<svg xmlns="http://www.w3.org/2000/svg" enable-background="new 0 0 3000 1178.717" viewBox="0 0 3000 1178.717" id="modern-kitchen"><linearGradient id="a" x1="1501.398" x2="1501.398" y1="816.614" y2="1178.717" gradientUnits="userSpaceOnUse"><stop offset="0" stop-color="#92a0c9"></stop><stop offset=".256" stop-color="#96a4ce"></stop><stop offset="1" stop-color="#9fadd7"></stop></linearGradient><rect width="2997.15" height="362.103" x="2.823" y="816.614" fill="url(#a)"></rect><g opacity=".43"><g opacity=".47"><rect width="2.998" height="196.281" x="1540.109" y="980.227" fill="#020202"></rect><rect width="2.998" height="2.21" x="1540.109" y="1176.508" fill="#020202"></rect></g><g opacity=".47"><polygon fill="#020202" points="1243.979 1176.508 1243.441 1178.717 1246.525 1178.717 1247.063 1176.508"></polygon><polygon fill="#020202" points="1294.729 980.581 1291.818 979.873 1243.979 1176.508 1247.063 1176.508"></polygon></g><g opacity=".47"><polygon fill="#020202" points="1037.75 980.828 1035.004 979.626 948.764 1176.508 952.037 1176.508"></polygon><polygon fill="#020202" points="948.764 1176.508 947.797 1178.717 951.069 1178.717 952.037 1176.508"></polygon></g><g opacity=".47"><polygon fill="#020202" points="775.637 981.03 773.108 979.424 647.929 1176.508 651.48 1176.508"></polygon><polygon fill="#020202" points="647.929 1176.508 646.526 1178.717 650.076 1178.717 651.48 1176.508"></polygon></g><g opacity=".47"><polygon fill="#020202" points="523.638 981.183 521.329 979.271 358.105 1176.508 361.995 1176.508"></polygon><polygon fill="#020202" points="358.105 1176.508 356.276 1178.717 360.167 1178.717 361.995 1176.508"></polygon></g><g opacity=".47"><polygon fill="#020202" points="52.934 1176.508 50.666 1178.717 54.961 1178.717 57.229 1176.508"></polygon><polygon fill="#020202" points="350.12 891.179 348.029 889.033 52.934 1176.508 57.229 1176.508"></polygon></g><g opacity=".47"><polygon fill="#020202" points="1788.719 979.873 1785.807 980.581 1833.474 1176.508 1836.557 1176.508"></polygon><polygon fill="#020202" points="1833.474 1176.508 1834.011 1178.717 1837.095 1178.717 1836.557 1176.508"></polygon></g><g opacity=".47"><polygon fill="#020202" points="2025.146 816.241 2022.277 817.104 2130.391 1176.508 2133.52 1176.508"></polygon><polygon fill="#020202" points="2130.391 1176.508 2131.056 1178.717 2134.185 1178.717 2133.52 1176.508"></polygon></g><g opacity=".47"><polygon fill="#020202" points="2213.695 815.836 2211.135 817.393 2429.44 1176.508 2432.947 1176.508"></polygon><polygon fill="#020202" points="2429.44 1176.508 2430.783 1178.717 2434.29 1178.717 2432.947 1176.508"></polygon></g><g opacity=".47"><polygon fill="#020202" points="2544.497 961.497 2542.188 963.408 2718.542 1176.508 2722.432 1176.508"></polygon><polygon fill="#020202" points="2718.542 1176.508 2720.37 1178.717 2724.26 1178.717 2722.432 1176.508"></polygon></g><rect width="2.997" height="264.301" x="2898.788" y="922.421" fill="#020202" opacity=".47" transform="rotate(-45.749 2900.27 1054.551)"></rect><rect width="2997.177" height="2.998" x="2.823" y="1081.159" fill="#020202" opacity=".47"></rect><rect width="2997.177" height="2.998" x="2.823" y="964.431" fill="#020202" opacity=".47"></rect><rect width="2997.177" height="2.998" x="2.823" y="865.164" fill="#020202" opacity=".47"></rect></g><rect width="1788.914" height="884.954" x="2.823" y=".383" fill="#fbe3d7"></rect><polygon fill="#fff3ee" points="542.999 .383 0 884.624 0 885.337 1788.914 885.337 1788.914 775.75 1261.345 .383"></polygon><polygon fill="#e8c9bc" points="1791.737 .383 1791.737 885.337 1856.159 816.614 1856.159 .383"></polygon><rect width="430.546" height="380.638" x="1855.273" y=".383" fill="#f2d6c9"></rect><linearGradient id="b" x1="200.613" x2="200.613" y1="689.891" y2="314.254" gradientUnits="userSpaceOnUse"><stop offset="0" stop-color="#454952"></stop><stop offset=".674" stop-color="#4e5560"></stop><stop offset="1" stop-color="#545c68"></stop></linearGradient><path fill="url(#b)" d="M44.715,314.254v375.637h311.796V314.254H44.715z M319.576,652.956H81.649V351.189h237.927
			V652.956z"></path><rect width="237.927" height="301.768" x="81.649" y="351.189" fill="#303233"></rect><polygon fill="#a8a8a8" points="319.576 351.189 272.973 351.189 272.973 617.814 319.576 652.956"></polygon><polygon fill="#8c8c8c" points="319.576 652.956 272.973 617.814 81.649 617.814 81.649 652.956"></polygon><rect width="237.927" height="14.119" x="81.649" y="574.019" fill="#8c8c8c"></rect><rect width="237.927" height="14.119" x="81.649" y="497.541" fill="#8c8c8c"></rect><rect width="237.927" height="14.119" x="81.649" y="421.062" fill="#8c8c8c"></rect><path fill="#e8b491" d="M164.988 554.278h-35.821c-10.902 0-19.741 8.838-19.741 19.741l0 0h75.302l0 0C184.729 563.117 175.891 554.278 164.988 554.278zM269.695 554.278h-35.821c-10.902 0-19.741 8.838-19.741 19.741l0 0h75.302l0 0C289.436 563.117 280.598 554.278 269.695 554.278zM118.84 477.8h-.611c-10.902 0-19.741 8.838-19.741 19.74v0h40.092v0C138.58 486.638 129.742 477.8 118.84 477.8zM192.05 477.8h-.611c-10.902 0-19.741 8.838-19.741 19.74v0h40.092v0C211.791 486.638 202.953 477.8 192.05 477.8zM265.261 477.8h-.611c-10.902 0-19.741 8.838-19.741 19.74v0h40.092v0C285.002 486.638 276.163 477.8 265.261 477.8zM140.476 421.062L140.476 421.062H260.75l0 0C242.643 403.152 159.497 404.198 140.476 421.062z"></path><rect width="48.24" height="375.637" x="356.511" y="314.254" fill="#2a2c2d"></rect><rect width="2.004" height="375.637" x="368.451" y="314.254" fill="#1a1b1c"></rect><rect width="35.298" height="112.953" x="369.453" y="441.326" fill="#474a4c"></rect><rect width="35.297" height=".502" x="369.454" y="470.881"></rect><rect width="35.297" height=".502" x="369.454" y="497.551"></rect><rect width="35.297" height=".502" x="369.454" y="524.221"></rect><path fill="#ff3658" d="M391.563,539.13c0,2.464-1.997,4.461-4.461,4.461s-4.461-1.997-4.461-4.461
			c0-2.464,1.997-4.461,4.461-4.461S391.563,536.666,391.563,539.13z"></path><path fill="#66ff9d" d="M391.563,511.66c0,2.464-1.997,4.461-4.461,4.461s-4.461-1.997-4.461-4.461
			c0-2.464,1.997-4.461,4.461-4.461S391.563,509.196,391.563,511.66z"></path><path fill="#1a1b1c" d="M391.563 484.19c0 2.464-1.997 4.461-4.461 4.461s-4.461-1.997-4.461-4.461c0-2.464 1.997-4.461 4.461-4.461S391.563 481.726 391.563 484.19zM391.563 456.72c0 2.464-1.997 4.461-4.461 4.461s-4.461-1.997-4.461-4.461c0-2.464 1.997-4.461 4.461-4.461S391.563 454.256 391.563 456.72z"></path><rect width="28.238" height="227.562" x="44.715" y="689.891" fill="#2a2c2d"></rect><rect width="27.307" height="227.562" x="377.444" y="689.891" fill="#2a2c2d"></rect><rect width="14.119" height="227.562" x="363.325" y="689.891" fill="#131414"></rect><rect width="14.119" height="227.562" x="72.585" y="689.891" fill="#131414"></rect><rect width="332.73" height="14.119" x="44.715" y="767.154" fill="#2a2c2d"></rect><rect width="332.73" height="14.119" x="44.715" y="823.718" fill="#2a2c2d"></rect><rect width="332.73" height="25.101" x="44.715" y="687.625" fill="#2a2c2d"></rect><rect width="237.927" height="301.768" x="81.649" y="351.189" fill="#ebf9ff" opacity=".35"></rect><polygon fill="#fff" points="356.511 314.254 280.546 314.254 44.715 519.325 44.715 632.068 356.511 346.837" opacity=".15"></polygon><polygon fill="#fff" points="356.511 394.234 44.715 685.151 44.715 689.891 178.638 689.891 356.511 510.484" opacity=".15"></polygon><g><linearGradient id="c" x1="620.921" x2="620.921" y1="314.254" y2="917.453" gradientUnits="userSpaceOnUse"><stop offset="0" stop-color="#545c68"></stop><stop offset=".326" stop-color="#4e5560"></stop><stop offset="1" stop-color="#454952"></stop></linearGradient><rect width="356.79" height="603.198" x="442.526" y="314.254" fill="url(#c)"></rect><polygon fill="#fff" points="799.316 396.772 442.526 834.48 442.526 917.453 577.421 917.453 799.316 624.818" opacity=".05"></polygon><polygon fill="#fff" points="526.956 314.254 442.526 389.683 442.526 644.616 729.097 314.254" opacity=".05"></polygon><rect width="356.79" height="2.182" x="442.526" y="328.851" fill="#1a1b1c"></rect><rect width="356.79" height="2.182" x="442.526" y="470.042" fill="#1a1b1c"></rect><rect width="356.79" height="2.182" x="442.526" y="611.233" fill="#1a1b1c"></rect><rect width="356.79" height="2.182" x="442.526" y="769.68" fill="#1a1b1c"></rect><rect width="302.9" height="10.938" x="468.542" y="789.727" fill="#1a1b1c"></rect><rect width="302.9" height="10.938" x="468.542" y="822.301" fill="#1a1b1c"></rect><rect width="302.9" height="10.938" x="468.542" y="854.876" fill="#1a1b1c"></rect><rect width="302.9" height="10.938" x="468.542" y="887.45" fill="#1a1b1c"></rect><path fill="#a7a7a8" d="M698.406,359.749H513.063c-2.354,0-4.28-1.926-4.28-4.28l0,0c0-2.354,1.926-4.28,4.28-4.28h185.343
			c2.354,0,4.28,1.926,4.28,4.28l0,0C702.686,357.823,700.76,359.749,698.406,359.749z"></path><rect width="242.815" height="36.605" x="486.506" y="378.051" fill="#1a1b1c"></rect><ellipse cx="781.973" cy="365.501" fill="#1a1b1c" rx="6.814" ry="5.752"></ellipse><path fill="#66ff9d" d="M788.786,388.384c0,3.177-3.051,5.752-6.814,5.752c-3.763,0-6.814-2.575-6.814-5.752
			c0-3.177,3.051-5.752,6.814-5.752C785.736,382.631,788.786,385.207,788.786,388.384z"></path><path fill="#ff3658" d="M788.786,411.266c0,3.177-3.051,5.752-6.814,5.752c-3.763,0-6.814-2.575-6.814-5.752
			c0-3.177,3.051-5.752,6.814-5.752C785.736,405.514,788.786,408.089,788.786,411.266z"></path><path fill="#a7a7a8" d="M698.406,501.151H513.063c-2.354,0-4.28-1.926-4.28-4.28v0c0-2.354,1.926-4.28,4.28-4.28h185.343
			c2.354,0,4.28,1.926,4.28,4.28v0C702.686,499.225,700.76,501.151,698.406,501.151z"></path><polygon fill="#fff" points="531.576 351.189 521.201 359.749 536.291 359.749 544.982 351.189" opacity=".55"></polygon><polygon fill="#fff" points="575.321 351.189 564.237 359.749 615.066 359.749 624.826 351.189" opacity=".55"></polygon><polygon fill="#fff" points="659.634 351.189 651.987 359.749 666.323 359.749 672.495 351.189" opacity=".55"></polygon><polygon fill="#fff" points="536.49 492.59 528.076 501.151 575.437 501.151 582.642 492.59" opacity=".55"></polygon><polygon fill="#fff" points="611.523 492.59 604.86 501.151 615.185 501.151 621.4 492.59" opacity=".55"></polygon><polygon fill="#fff" points="648.846 492.59 641.994 501.151 668.021 501.151 673.598 492.59" opacity=".55"></polygon><rect width="242.815" height="36.605" x="486.506" y="519.453" fill="#1a1b1c"></rect><polygon fill="#fff" points="517.634 378.051 486.506 407.997 486.506 414.656 568.057 414.656 598.537 378.051" opacity=".15"></polygon><polygon fill="#fff" points="653.157 378.051 623.825 414.656 677.029 414.656 705.497 378.051" opacity=".15"></polygon><polygon fill="#fff" points="534.419 519.453 502.733 556.058 586.942 556.058 618.257 519.453" opacity=".15"></polygon><polygon fill="#fff" points="663.401 519.453 634.637 556.058 679.795 556.058 707.131 519.453" opacity=".15"></polygon><path fill="#1a1b1c" d="M788.786,506.903c0,3.177-3.051,5.752-6.814,5.752c-3.763,0-6.814-2.575-6.814-5.752
			c0-3.177,3.051-5.752,6.814-5.752C785.736,501.151,788.786,503.726,788.786,506.903z"></path><ellipse cx="781.973" cy="529.786" fill="#66ff9d" rx="6.814" ry="5.752"></ellipse><ellipse cx="781.973" cy="552.668" fill="#ff3658" rx="6.814" ry="5.752"></ellipse><rect width="2.182" height="456.517" x="763.537" y="314.254" fill="#1a1b1c"></rect><rect width="185.337" height="5.752" x="513.853" y="359.749" fill="#1a1b1c" opacity=".2"></rect><rect width="185.337" height="5.752" x="513.853" y="501.724" fill="#1a1b1c" opacity=".2"></rect></g><g><linearGradient id="d" x1="805.899" x2="1946.407" y1="166.858" y2="166.858" gradientUnits="userSpaceOnUse"><stop offset="0" stop-color="#545c68"></stop><stop offset=".326" stop-color="#4e5560"></stop><stop offset="1" stop-color="#454952"></stop></linearGradient><rect width="1140.508" height="169.429" x="805.899" y="82.143" fill="url(#d)"></rect><polygon fill="#fff" points="1110.64 82.143 967.53 251.572 1272.082 251.572 1413.929 82.143" opacity=".15"></polygon><polygon fill="#fff" points="1619.285 82.143 1489.984 251.572 1658.047 251.572 1776.901 82.143" opacity=".15"></polygon><polygon fill="#2a2c2d" points="1946.407 82.143 805.899 82.143 847.864 57.435 1920.914 57.435"></polygon><polygon fill="#131414" points="1900.912 272.751 846.165 272.751 805.899 252.095 1946.407 252.095"></polygon><rect width="1062.461" height="10.589" x="843.158" y="110.381" fill="#4083c6"></rect><linearGradient id="e" x1="957.699" x2="963.17" y1="35.086" y2="35.086" gradientUnits="userSpaceOnUse"><stop offset="0" stop-color="#545c68"></stop><stop offset=".326" stop-color="#4e5560"></stop><stop offset="1" stop-color="#454952"></stop></linearGradient><rect width="5.471" height="69.406" x="957.699" y=".383" fill="url(#e)"></rect><linearGradient id="f" x1="947.613" x2="971.341" y1="53.219" y2="53.219" gradientUnits="userSpaceOnUse"><stop offset="0" stop-color="#545c68"></stop><stop offset=".326" stop-color="#4e5560"></stop><stop offset="1" stop-color="#454952"></stop></linearGradient><polygon fill="url(#f)" points="971.341 69.789 947.613 69.789 952.624 36.648 967.332 36.648"></polygon><linearGradient id="g" x1="1811.195" x2="1816.666" y1="35.086" y2="35.086" gradientUnits="userSpaceOnUse"><stop offset="0" stop-color="#545c68"></stop><stop offset=".326" stop-color="#4e5560"></stop><stop offset="1" stop-color="#454952"></stop></linearGradient><rect width="5.471" height="69.406" x="1811.195" y=".383" fill="url(#g)"></rect><linearGradient id="h" x1="1801.109" x2="1824.837" y1="53.219" y2="53.219" gradientUnits="userSpaceOnUse"><stop offset="0" stop-color="#545c68"></stop><stop offset=".326" stop-color="#4e5560"></stop><stop offset="1" stop-color="#454952"></stop></linearGradient><polygon fill="url(#h)" points="1824.837 69.789 1801.109 69.789 1806.12 36.648 1820.828 36.648"></polygon><rect width="3.138" height="20.656" x="1858.294" y="110.381" fill="#a0b0c1"></rect><path fill="#a0b0c1" d="M1855.287 221.731h6.014v-90.694h-3.011c-1.658 0-3.003 1.344-3.003 3.003V221.731zM1069.598 214.607c4.259 8.234-1.285 19.549-12.377 25.286-11.102 5.742-23.539 3.726-27.798-4.509-.321-.62-.588-1.255-.792-1.911 4.182 5.119 14.949 5.186 25.208-.119 10.259-5.306 16.417-14.126 14.657-20.497C1068.913 213.401 1069.277 213.986 1069.598 214.607z"></path><ellipse cx="1132.015" cy="260.639" fill="#c8d1db" rx="38.435" ry="44.923" transform="rotate(-19.695 1132.007 260.653)"></ellipse><ellipse cx="1124.892" cy="263.188" fill="#a0b0c1" rx="26.756" ry="31.272" transform="rotate(-19.695 1124.887 263.203)"></ellipse><ellipse cx="1335.494" cy="251.572" fill="#c8d1db" rx="57.521" ry="61.398"></ellipse><ellipse cx="1327.39" cy="248.197" fill="#a0b0c1" rx="38.435" ry="41.026"></ellipse><path fill="#a0b0c1" d="M1875.55,240.133c-2.034,12.141-10.328,21.288-17.257,21.288c-6.406,0-14.78-9.229-17.257-21.288
				c-2.484-12.093,4.183-23.292,17.257-23.292C1871.498,216.841,1877.773,226.864,1875.55,240.133z"></path><polygon fill="#a0b0c1" points="1957.781 266.781 1977.783 270.79 1977.783 169.603 1957.781 173.612"></polygon><polygon fill="#a0b0c1" points="1957.781 173.612 1957.781 93.909 1967.782 93.909 1967.782 171.608"></polygon><rect width="21.375" height="3.138" x="1946.407" y="97.831" fill="#a0b0c1"></rect><rect width="3.137" height="20.656" x="928.995" y="110.381" fill="#a0b0c1"></rect><path fill="#a0b0c1" d="M1114.166,131.037h8.759c2.094,0,3.791,1.697,3.791,3.791v108.334h-12.55V131.037z"></path><rect width="3.138" height="20.656" x="1114.166" y="110.381" fill="#a0b0c1"></rect><rect width="3.138" height="20.656" x="998.337" y="110.381" fill="#a0b0c1"></rect><path fill="#a0b0c1" d="M1004.351,194.834h-6.014v-63.797h3.53c1.372,0,2.484,1.112,2.484,2.484V194.834z"></path><rect width="3.138" height="20.656" x="881.977" y="110.381" fill="#a0b0c1"></rect><path fill="#a0b0c1" d="M887.99,194.834h-6.014v-63.797h3.53c1.372,0,2.484,1.112,2.484,2.484V194.834z"></path><rect width="3.138" height="20.656" x="1068.026" y="110.381" fill="#a0b0c1"></rect><path fill="#a0b0c1" d="M1065.019,221.731h6.014v-90.694h-3.011c-1.658,0-3.003,1.344-3.003,3.003V221.731z"></path><rect width="3.138" height="20.656" x="1187.115" y="110.381" fill="#a0b0c1"></rect><path fill="#a0b0c1" d="M1193.259 221.731h-6.014v-90.694h3.011c1.658 0 3.003 1.344 3.003 3.003V221.731zM1315.363 131.037h8.759c2.094 0 3.791 1.697 3.791 3.791v108.334h-12.55V131.037z"></path><rect width="3.138" height="20.656" x="1315.363" y="110.381" fill="#a0b0c1"></rect><path fill="#c8d1db" d="M1013.906 213.044l-12.402-12.402c-3.458-3.458-3.458-9.118 0-12.576l0 0c3.458-3.458 9.118-3.458 12.576 0l12.401 12.401c3.458 3.458 3.458 9.118 0 12.576v0C1023.024 216.502 1017.365 216.502 1013.906 213.044zM1067.91 211.342c.25.484.453.994.587 1.514 1.76 6.371-4.398 15.192-14.657 20.497-10.259 5.306-21.026 5.238-25.208.119-.347-.41-.646-.869-.896-1.354-3.216-6.219 2.596-15.66 13.053-21.461.344-.19.678-.375 1.026-.556.349-.18.693-.346 1.047-.517C1053.63 204.41 1064.693 205.122 1067.91 211.342zM1207.919 250.715l-12.564 4.335c-3.971 1.37-8.109-1.58-8.109-5.781V208.43l5.115-.837c5.058-.828 9.933 2.266 11.337 7.195l8.109 28.471C1212.695 246.382 1210.989 249.656 1207.919 250.715z"></path><rect width="6.905" height="127.227" x="928.995" y="120.971" fill="#a0b0c1"></rect><path fill="#c8d1db" d="M938.773,289.223h-13.927c-5.74,0-10.033-5.27-8.872-10.891l13.021-30.135h6.905l11.817,30.53
				C948.602,284.233,944.35,289.223,938.773,289.223z"></path><rect width="3.138" height="20.656" x="852.745" y="110.381" fill="#a0b0c1"></rect><rect width="6.905" height="127.227" x="852.745" y="120.971" fill="#a0b0c1"></rect><path fill="#c8d1db" d="M859.328 248.197h-7.507c-6.773 0-12.252 5.514-12.209 12.287l.113 17.848c-1.043 5.054 2.327 9.811 7.189 10.722v-29.356h4.891v29.525h6.905v-29.525h4.891v29.46c5.033-.593 8.693-5.285 7.867-10.43l.07-18.274C871.563 253.692 866.089 248.197 859.328 248.197zM882.417 216.534h5.598c2.803 0 5.084-2.132 5.115-4.781l.058-4.87c.051-4.283-1.641-8.403-4.688-11.413l-.643-.635h-.388l-5.218.03 0 0c-3.336 3.08-5.184 7.447-5.072 11.986l.123 4.961C877.368 214.437 879.639 216.534 882.417 216.534z"></path><path fill="#4083c6" d="M1478.909 231.424L1478.909 231.424c-1.438 0-2.615-1.176-2.615-2.615v-81.3c0-1.438 1.177-2.615 2.615-2.615l0 0c1.438 0 2.615 1.177 2.615 2.615v81.3C1481.523 230.248 1480.347 231.424 1478.909 231.424zM1500.872 231.424L1500.872 231.424c-1.438 0-2.615-1.176-2.615-2.615v-81.3c0-1.438 1.177-2.615 2.615-2.615l0 0c1.438 0 2.615 1.177 2.615 2.615v81.3C1503.486 230.248 1502.31 231.424 1500.872 231.424zM1522.835 231.424L1522.835 231.424c-1.438 0-2.615-1.176-2.615-2.615v-81.3c0-1.438 1.177-2.615 2.615-2.615l0 0c1.438 0 2.615 1.177 2.615 2.615v81.3C1525.449 230.248 1524.273 231.424 1522.835 231.424zM1544.798 231.424L1544.798 231.424c-1.438 0-2.615-1.176-2.615-2.615v-81.3c0-1.438 1.177-2.615 2.615-2.615l0 0c1.438 0 2.615 1.177 2.615 2.615v81.3C1547.412 230.248 1546.236 231.424 1544.798 231.424zM1566.761 231.424L1566.761 231.424c-1.438 0-2.615-1.176-2.615-2.615v-81.3c0-1.438 1.177-2.615 2.615-2.615l0 0c1.438 0 2.615 1.177 2.615 2.615v81.3C1569.375 230.248 1568.199 231.424 1566.761 231.424zM1588.724 231.424L1588.724 231.424c-1.438 0-2.615-1.176-2.615-2.615v-81.3c0-1.438 1.177-2.615 2.615-2.615h0c1.438 0 2.615 1.177 2.615 2.615v81.3C1591.339 230.248 1590.162 231.424 1588.724 231.424zM1610.687 231.424L1610.687 231.424c-1.438 0-2.615-1.176-2.615-2.615v-81.3c0-1.438 1.177-2.615 2.615-2.615l0 0c1.438 0 2.615 1.177 2.615 2.615v81.3C1613.302 230.248 1612.125 231.424 1610.687 231.424zM1632.65 231.424L1632.65 231.424c-1.438 0-2.615-1.176-2.615-2.615v-81.3c0-1.438 1.177-2.615 2.615-2.615l0 0c1.438 0 2.615 1.177 2.615 2.615v81.3C1635.265 230.248 1634.088 231.424 1632.65 231.424zM1654.613 231.424L1654.613 231.424c-1.438 0-2.615-1.176-2.615-2.615v-81.3c0-1.438 1.177-2.615 2.615-2.615l0 0c1.438 0 2.615 1.177 2.615 2.615v81.3C1657.228 230.248 1656.051 231.424 1654.613 231.424zM1676.576 231.424L1676.576 231.424c-1.438 0-2.615-1.176-2.615-2.615v-81.3c0-1.438 1.177-2.615 2.615-2.615l0 0c1.438 0 2.615 1.177 2.615 2.615v81.3C1679.191 230.248 1678.014 231.424 1676.576 231.424zM1698.539 231.424L1698.539 231.424c-1.438 0-2.615-1.176-2.615-2.615v-81.3c0-1.438 1.177-2.615 2.615-2.615l0 0c1.438 0 2.615 1.177 2.615 2.615v81.3C1701.154 230.248 1699.977 231.424 1698.539 231.424zM1720.502 231.424L1720.502 231.424c-1.438 0-2.615-1.176-2.615-2.615v-81.3c0-1.438 1.177-2.615 2.615-2.615l0 0c1.438 0 2.615 1.177 2.615 2.615v81.3C1723.117 230.248 1721.94 231.424 1720.502 231.424zM1742.465 231.424L1742.465 231.424c-1.438 0-2.615-1.176-2.615-2.615v-81.3c0-1.438 1.177-2.615 2.615-2.615l0 0c1.438 0 2.615 1.177 2.615 2.615v81.3C1745.08 230.248 1743.903 231.424 1742.465 231.424zM1764.428 231.424L1764.428 231.424c-1.438 0-2.615-1.176-2.615-2.615v-81.3c0-1.438 1.177-2.615 2.615-2.615l0 0c1.438 0 2.615 1.177 2.615 2.615v81.3C1767.043 230.248 1765.866 231.424 1764.428 231.424z"></path></g><g><rect width="334.432" height="160.138" x="1398.448" y="382.675" fill="#fff"></rect><polygon fill="#f2d6c9" points="1398.448 542.813 1415.381 526.717 1716.26 526.717 1732.88 542.813"></polygon><polygon fill="#ddbbaf" points="1415.381 526.717 1415.381 382.675 1398.448 382.675 1398.448 542.813"></polygon><polygon fill="#ddbbaf" points="1716.26 526.717 1716.26 382.675 1732.88 382.675 1732.88 542.813"></polygon></g><rect width="430.546" height="435.281" x="1855.273" y="381.333" fill="#f2d6c9"></rect><rect width="101.793" height="18.826" x="2027.722" y="408.236" fill="#e9f5ff"></rect><polygon fill="#e8c9bc" points="2285.819 .383 2285.819 816.614 2350.241 885.337 2350.241 .383"></polygon><rect width="649.478" height="884.954" x="2350.495" y=".383" fill="#fbe3d7"></rect><polygon fill="#fff3ee" points="2789.37 .383 2350.495 880.826 2350.495 885.337 2999.973 885.337 2999.973 .383"></polygon><g opacity=".1"><rect width="620.063" height="18.079" x="2379.91" y="1038.755" fill="#a87451"></rect><rect width="620.063" height="9.039" x="2379.91" y="1148.609" fill="#dca772"></rect><rect width="620.063" height="8.573" x="2379.91" y="1140.502" fill="#c09067"></rect><rect width="24.316" height="138.794" x="2379.91" y="1003.649" fill="#c09067"></rect><rect width="24.316" height="138.794" x="2579.015" y="1003.649" fill="#c09067"></rect><rect width="24.316" height="138.794" x="2784.134" y="1003.649" fill="#c09067"></rect><rect width="24.316" height="138.794" x="2975.684" y="1003.649" fill="#c09067"></rect><rect width="620.063" height="8.27" x="2379.91" y="1031.577" fill="#c09067"></rect><polygon fill="#fff" points="2543.63 1045.562 2445.232 1045.562 2438.216 1051.913 2550.646 1051.913"></polygon><ellipse cx="2494.431" cy="1051.833" fill="#c8d1db" rx="56.215" ry="1.085"></ellipse><polygon fill="#fff" points="2543.63 1051.913 2445.232 1051.913 2438.216 1058.263 2550.646 1058.263"></polygon><ellipse cx="2494.431" cy="1058.184" fill="#c8d1db" rx="56.215" ry="1.085"></ellipse><polygon fill="#fff" points="2543.63 1058.263 2445.232 1058.263 2438.216 1064.614 2550.646 1064.614"></polygon><path fill="#c8d1db" d="M2550.646,1064.534c0-0.599-25.168-1.085-56.215-1.085s-56.215,0.486-56.215,1.085
				s25.168,1.085,56.215,1.085S2550.646,1065.133,2550.646,1064.534z"></path><polygon fill="#fff" points="2543.63 1064.614 2445.232 1064.614 2438.216 1070.964 2550.646 1070.964"></polygon><path fill="#c8d1db" d="M2550.646,1070.885c0-0.599-25.168-1.085-56.215-1.085s-56.215,0.486-56.215,1.085
				s25.168,1.085,56.215,1.085S2550.646,1071.484,2550.646,1070.885z"></path><polygon fill="#fff" points="2531.194 1070.964 2455.679 1070.964 2450.295 1075.838 2536.578 1075.838"></polygon><ellipse cx="2493.437" cy="1075.777" fill="#c8d1db" rx="43.142" ry=".833"></ellipse><g><polygon fill="#fff" points="2743.673 1045.562 2645.275 1045.562 2638.259 1051.913 2750.689 1051.913"></polygon><ellipse cx="2694.474" cy="1051.833" fill="#c8d1db" rx="56.215" ry="1.085"></ellipse><polygon fill="#fff" points="2743.673 1051.913 2645.275 1051.913 2638.259 1058.263 2750.689 1058.263"></polygon><ellipse cx="2694.474" cy="1058.184" fill="#c8d1db" rx="56.215" ry="1.085"></ellipse><polygon fill="#fff" points="2743.673 1058.263 2645.275 1058.263 2638.259 1064.614 2750.689 1064.614"></polygon><path fill="#c8d1db" d="M2750.689,1064.534c0-0.599-25.168-1.085-56.215-1.085s-56.215,0.486-56.215,1.085
					s25.168,1.085,56.215,1.085S2750.689,1065.133,2750.689,1064.534z"></path><g><polygon fill="#fff" points="2743.673 1064.614 2645.275 1064.614 2638.259 1070.964 2750.689 1070.964"></polygon><path fill="#c8d1db" d="M2750.689,1070.885c0-0.599-25.168-1.085-56.215-1.085s-56.215,0.486-56.215,1.085
					s25.168,1.085,56.215,1.085S2750.689,1071.484,2750.689,1070.885z"></path></g><g><polygon fill="#fff" points="2731.237 1070.964 2655.722 1070.964 2650.338 1075.838 2736.621 1075.838"></polygon><ellipse cx="2693.479" cy="1075.777" fill="#c8d1db" rx="43.142" ry=".833"></ellipse></g></g><g><polygon fill="#fff" points="2947.163 1045.562 2848.765 1045.562 2841.749 1051.913 2954.179 1051.913"></polygon><ellipse cx="2897.964" cy="1051.833" fill="#c8d1db" rx="56.215" ry="1.085"></ellipse><polygon fill="#fff" points="2947.163 1051.913 2848.765 1051.913 2841.749 1058.263 2954.179 1058.263"></polygon><ellipse cx="2897.964" cy="1058.184" fill="#c8d1db" rx="56.215" ry="1.085"></ellipse><polygon fill="#fff" points="2947.163 1058.263 2848.765 1058.263 2841.749 1064.614 2954.179 1064.614"></polygon><path fill="#c8d1db" d="M2954.179,1064.534c0-0.599-25.168-1.085-56.215-1.085s-56.215,0.486-56.215,1.085
					s25.168,1.085,56.215,1.085S2954.179,1065.133,2954.179,1064.534z"></path><g><polygon fill="#fff" points="2947.163 1064.614 2848.765 1064.614 2841.749 1070.964 2954.179 1070.964"></polygon><path fill="#c8d1db" d="M2954.179,1070.885c0-0.599-25.168-1.085-56.215-1.085s-56.215,0.486-56.215,1.085
					s25.168,1.085,56.215,1.085S2954.179,1071.484,2954.179,1070.885z"></path></g><g><polygon fill="#fff" points="2934.727 1070.964 2859.212 1070.964 2853.828 1075.838 2940.111 1075.838"></polygon><ellipse cx="2896.969" cy="1075.777" fill="#c8d1db" rx="43.142" ry=".833"></ellipse></g></g><g><path fill="#fff" d="M2374.027,1165.441c13.729-0.814,29.686-1.408,47.456-1.429
				c17.436-0.021,33.127,0.513,46.671,1.27c-5.848-3.354-11.697-6.708-17.545-10.062c-0.859-0.492-2.125-0.841-3.564-0.996
				c-7.111-0.765-14.443-1.092-23.775-1.097c-7.709-0.004-16.103,0.266-22.241,0.793c-2.403,0.206-4.554,0.739-6.137,1.499
				C2387.937,1158.761,2380.982,1162.101,2374.027,1165.441z"></path><path fill="#c8d1db" d="M2468.154,1165.239c0-1.008-21.071-1.826-47.063-1.826s-47.064,0.817-47.064,1.826
				c0,1.008,21.071,1.826,47.064,1.826S2468.154,1166.247,2468.154,1165.239z"></path></g><g><path fill="#fff" d="M2725.572,1165.441c21.469-0.814,46.423-1.408,74.212-1.429
				c27.267-0.021,51.805,0.513,72.986,1.27c-9.146-3.354-18.292-6.708-27.437-10.062c-1.343-0.492-3.323-0.841-5.574-0.996
				c-11.12-0.765-22.586-1.092-37.18-1.097c-12.056-0.004-25.182,0.266-34.781,0.793c-3.757,0.206-7.122,0.739-9.597,1.499
				C2747.325,1158.761,2736.448,1162.101,2725.572,1165.441z"></path><path fill="#c8d1db" d="M2872.77,1165.239c0-1.008-32.951-1.826-73.599-1.826c-40.648,0-73.599,0.817-73.599,1.826
				c0,1.008,32.951,1.826,73.599,1.826C2839.819,1167.064,2872.77,1166.247,2872.77,1165.239z"></path></g><g><path fill="#fff" d="M2500.21,1159.939c13.729-0.451,29.686-0.779,47.456-0.79c17.437-0.011,33.127,0.284,46.671,0.703
				c-5.848-1.855-11.697-3.71-17.545-5.566c-0.859-0.272-2.125-0.465-3.564-0.551c-7.111-0.423-14.443-0.604-23.775-0.607
				c-7.709-0.002-16.103,0.147-22.241,0.439c-2.403,0.114-4.554,0.409-6.137,0.829
				C2514.12,1156.244,2507.165,1158.092,2500.21,1159.939z"></path><path fill="#c8d1db" d="M2594.337,1159.827c0-0.558-21.071-1.01-47.063-1.01c-25.993,0-47.064,0.452-47.064,1.01
				s21.071,1.01,47.064,1.01C2573.266,1160.837,2594.337,1160.385,2594.337,1159.827z"></path></g></g><g><linearGradient id="i" x1="2388.392" x2="2475.299" y1="488.961" y2="488.961" gradientUnits="userSpaceOnUse"><stop offset="0" stop-color="#545c68"></stop><stop offset=".326" stop-color="#4e5560"></stop><stop offset="1" stop-color="#454952"></stop></linearGradient><path fill="url(#i)" d="M2431.845,462.51c-23.81,0-43.137,29.169-43.453,52.903h86.907
			C2474.982,491.678,2455.655,462.51,2431.845,462.51z"></path><linearGradient id="j" x1="2419.88" x2="2443.935" y1="456.46" y2="456.46" gradientUnits="userSpaceOnUse"><stop offset="0" stop-color="#545c68"></stop><stop offset=".326" stop-color="#4e5560"></stop><stop offset="1" stop-color="#454952"></stop></linearGradient><path fill="url(#j)" d="M2440.013,476.07h-16.211c-2.157,0-3.922-1.765-3.922-3.922v-31.376
			c0-2.157,1.765-3.922,3.922-3.922h16.211c2.157,0,3.922,1.765,3.922,3.922v31.376
			C2443.935,474.305,2442.17,476.07,2440.013,476.07z"></path><rect width="9.936" height="30.374" x="2426.155" y="406.476" fill="#bac2ce"></rect><rect width="3.007" height="406.093" x="2429.62" y=".383" fill="#bac2ce"></rect></g><g><linearGradient id="k" x1="2510.086" x2="2596.993" y1="488.961" y2="488.961" gradientUnits="userSpaceOnUse"><stop offset="0" stop-color="#545c68"></stop><stop offset=".326" stop-color="#4e5560"></stop><stop offset="1" stop-color="#454952"></stop></linearGradient><path fill="url(#k)" d="M2553.539,462.51c-23.81,0-43.137,29.169-43.453,52.903h86.907
			C2596.677,491.678,2577.349,462.51,2553.539,462.51z"></path><linearGradient id="l" x1="2541.574" x2="2565.629" y1="456.46" y2="456.46" gradientUnits="userSpaceOnUse"><stop offset="0" stop-color="#545c68"></stop><stop offset=".326" stop-color="#4e5560"></stop><stop offset="1" stop-color="#454952"></stop></linearGradient><path fill="url(#l)" d="M2561.707,476.07h-16.211c-2.157,0-3.922-1.765-3.922-3.922v-31.376
			c0-2.157,1.765-3.922,3.922-3.922h16.211c2.157,0,3.922,1.765,3.922,3.922v31.376
			C2565.629,474.305,2563.864,476.07,2561.707,476.07z"></path><rect width="9.936" height="30.374" x="2547.85" y="406.476" fill="#bac2ce"></rect><rect width="3.007" height="406.093" x="2551.314" y=".383" fill="#bac2ce"></rect></g><g><linearGradient id="m" x1="2631.78" x2="2718.687" y1="488.961" y2="488.961" gradientUnits="userSpaceOnUse"><stop offset="0" stop-color="#545c68"></stop><stop offset=".326" stop-color="#4e5560"></stop><stop offset="1" stop-color="#454952"></stop></linearGradient><path fill="url(#m)" d="M2675.234,462.51c-23.809,0-43.137,29.169-43.453,52.903h86.907
			C2718.371,491.678,2699.043,462.51,2675.234,462.51z"></path><linearGradient id="n" x1="2663.269" x2="2687.323" y1="456.46" y2="456.46" gradientUnits="userSpaceOnUse"><stop offset="0" stop-color="#545c68"></stop><stop offset=".326" stop-color="#4e5560"></stop><stop offset="1" stop-color="#454952"></stop></linearGradient><path fill="url(#n)" d="M2683.401,476.07h-16.211c-2.157,0-3.922-1.765-3.922-3.922v-31.376
			c0-2.157,1.765-3.922,3.922-3.922h16.211c2.157,0,3.922,1.765,3.922,3.922v31.376
			C2687.323,474.305,2685.559,476.07,2683.401,476.07z"></path><rect width="9.936" height="30.374" x="2669.544" y="406.476" fill="#bac2ce"></rect><rect width="3.007" height="406.093" x="2673.008" y=".383" fill="#bac2ce"></rect></g><g><linearGradient id="o" x1="2753.475" x2="2840.382" y1="488.961" y2="488.961" gradientUnits="userSpaceOnUse"><stop offset="0" stop-color="#545c68"></stop><stop offset=".326" stop-color="#4e5560"></stop><stop offset="1" stop-color="#454952"></stop></linearGradient><path fill="url(#o)" d="M2796.928,462.51c-23.81,0-43.137,29.169-43.453,52.903h86.907
			C2840.065,491.678,2820.738,462.51,2796.928,462.51z"></path><linearGradient id="p" x1="2784.963" x2="2809.018" y1="456.46" y2="456.46" gradientUnits="userSpaceOnUse"><stop offset="0" stop-color="#545c68"></stop><stop offset=".326" stop-color="#4e5560"></stop><stop offset="1" stop-color="#454952"></stop></linearGradient><path fill="url(#p)" d="M2805.096,476.07h-16.211c-2.157,0-3.922-1.765-3.922-3.922v-31.376
			c0-2.157,1.765-3.922,3.922-3.922h16.211c2.157,0,3.922,1.765,3.922,3.922v31.376
			C2809.018,474.305,2807.253,476.07,2805.096,476.07z"></path><rect width="9.936" height="30.374" x="2791.238" y="406.476" fill="#bac2ce"></rect><rect width="3.007" height="406.093" x="2794.703" y=".383" fill="#bac2ce"></rect></g><g><linearGradient id="q" x1="2875.169" x2="2962.076" y1="488.961" y2="488.961" gradientUnits="userSpaceOnUse"><stop offset="0" stop-color="#545c68"></stop><stop offset=".326" stop-color="#4e5560"></stop><stop offset="1" stop-color="#454952"></stop></linearGradient><path fill="url(#q)" d="M2918.622,462.51c-23.809,0-43.137,29.169-43.453,52.903h86.907
			C2961.76,491.678,2942.432,462.51,2918.622,462.51z"></path><linearGradient id="r" x1="2906.657" x2="2930.712" y1="456.46" y2="456.46" gradientUnits="userSpaceOnUse"><stop offset="0" stop-color="#545c68"></stop><stop offset=".326" stop-color="#4e5560"></stop><stop offset="1" stop-color="#454952"></stop></linearGradient><path fill="url(#r)" d="M2926.79,476.07h-16.211c-2.157,0-3.922-1.765-3.922-3.922v-31.376
			c0-2.157,1.765-3.922,3.922-3.922h16.211c2.157,0,3.922,1.765,3.922,3.922v31.376
			C2930.712,474.305,2928.947,476.07,2926.79,476.07z"></path><rect width="9.936" height="30.374" x="2912.933" y="406.476" fill="#bac2ce"></rect><rect width="3.007" height="406.093" x="2916.397" y=".383" fill="#bac2ce"></rect></g><g><polygon fill="#bac2ce" points="277.615 201.156 188.194 201.156 53.888 284.694 413.925 284.694"></polygon><rect width="360.037" height="5.229" x="53.888" y="284.694" fill="#a0b0c1"></rect><rect width="88.724" height="201.156" x="188.194" fill="#c8d1db"></rect><polygon fill="#bac2ce" points="666.674 201.156 577.253 201.156 442.947 284.694 802.984 284.694"></polygon><polygon fill="#bac2ce" points="277.615 201.156 188.194 201.156 53.888 284.694 413.925 284.694"></polygon><polygon fill="#bac2ce" points="666.674 201.156 577.253 201.156 442.947 284.694 802.984 284.694"></polygon><polygon fill="#fff" points="208.791 201.156 113.07 284.694 163.074 284.694 220.191 201.156" opacity=".15"></polygon><polygon fill="#fff" points="597.709 201.156 499.909 284.694 554.976 284.694 608.526 201.156" opacity=".15"></polygon><rect width="360.037" height="5.229" x="442.947" y="284.694" fill="#a0b0c1"></rect><rect width="88.724" height="201.156" x="577.253" fill="#c8d1db"></rect><rect width="14.466" height="201.156" x="205.724" fill="#fff" opacity=".15"></rect><rect width="14.466" height="201.156" x="594.135" fill="#fff" opacity=".15"></rect></g><rect width="289.538" height="16.549" x="83.736" y="750.605" fill="#131414"></rect><rect width="296.797" height="17.382" x="71.792" y="806.335" fill="#131414"></rect><g><rect width="174.797" height="369.058" x="1894.689" y="447.557" fill="#4083c6"></rect><circle cx="1982.602" cy="525.341" r="34.546" fill="#d2e9ff" transform="rotate(-76.714 1982.762 525.323)"></circle><rect width="174.797" height="369.058" x="2069.486" y="447.557" fill="#4083c6"></rect><circle cx="2157.661" cy="525.341" r="34.546" fill="#d2e9ff" transform="rotate(-76.714 2157.834 525.318)"></circle><rect width="2.823" height="369.058" x="2068.074" y="447.557" fill="#1a1b1c" opacity=".4"></rect></g><g><path fill="#9accef" d="M981.136,474.761H872.109l0.614-126.99h107.585L981.136,474.761z M879.434,467.435h95.405
				l-0.818-112.337H878.82L879.434,467.435z"></path><polygon fill="#eef7ff" points="974.283 359.796 974.021 355.097 932.646 355.097 898.143 355.097 878.82 355.097 878.196 402.43 878.622 467.435 879.882 467.435 974.839 467.435"></polygon><polygon fill="#9cb8ef" points="963.993 457.825 888.258 457.825 888.295 364.707 964.186 364.707"></polygon><path fill="#fff" d="M899.436 376.182c15.984.051 31.968.103 47.952.154 2.291.007 4.583.015 6.874.022 1.568.005 1.57-2.431 0-2.436-15.984-.051-31.968-.102-47.952-.154-2.291-.007-4.583-.015-6.874-.022C897.868 373.742 897.866 376.177 899.436 376.182L899.436 376.182zM928.431 393.536c8.435 0 16.87 0 25.304 0 1.567 0 1.57-2.436 0-2.436-8.435 0-16.87 0-25.304 0C926.863 391.101 926.861 393.536 928.431 393.536L928.431 393.536zM900.315 409.283c15.355 0 30.71 0 46.065 0 2.218 0 4.435 0 6.653 0 1.567 0 1.57-2.436 0-2.436-15.355 0-30.71 0-46.065 0-2.218 0-4.435 0-6.653 0C898.747 406.847 898.745 409.283 900.315 409.283L900.315 409.283zM900.315 424.608c11.129-.119 22.258-.239 33.388-.358 1.566-.017 1.57-2.452 0-2.436-11.129.119-22.259.239-33.388.358C898.748 422.189 898.744 424.625 900.315 424.608L900.315 424.608zM944.246 424.507c2.929 0 5.858 0 8.786 0 1.567 0 1.57-2.436 0-2.436-2.929 0-5.858 0-8.786 0C942.679 422.071 942.676 424.507 944.246 424.507L944.246 424.507zM900.139 439.619c15.406-.208 30.812-.417 46.218-.625 2.225-.03 4.45-.06 6.675-.09 1.566-.021 1.571-2.457 0-2.436-15.406.208-30.812.417-46.218.625-2.225.03-4.45.06-6.675.09C898.573 437.205 898.568 439.641 900.139 439.619L900.139 439.619z"></path><circle cx="957.249" cy="448.133" r="12.652" fill="#9accef"></circle><defs><filter id="s" width="96.087" height="112.337" x="878.196" y="355.098" filterUnits="userSpaceOnUse"><feFlood flood-color="#fff" flood-opacity="1" result="back"></feFlood><feBlend in="SourceGraphic" in2="back"></feBlend></filter></defs><mask id="u" width="96.087" height="112.337" x="878.196" y="355.098" maskUnits="userSpaceOnUse"><g filter="url(#s)"><defs><filter id="t" width="96.087" height="112.337" x="878.197" y="355.098" filterUnits="userSpaceOnUse"><feFlood flood-color="#fff" flood-opacity="1" result="back"></feFlood><feBlend in="SourceGraphic" in2="back"></feBlend></filter></defs><linearGradient id="v" x1="926.24" x2="926.24" y1="355.098" y2="467.435" gradientUnits="userSpaceOnUse"><stop offset="0" stop-color="#fff"></stop><stop offset="1"></stop></linearGradient><path fill="url(#v)" d="M974.284,359.796l-0.262-4.699h-41.374
					c-18.285,17.924-35.092,31.76-54.45,47.333l1.237,65.005h0.448C912.726,429.099,939.148,393.229,974.284,359.796z" mask="url(#u)"></path></g></mask><path fill="#fff" d="M974.284,359.796l-0.262-4.699h-41.374c0,0-54.451,58.658-54.451,58.658l1.238,53.679h0.448
				C879.434,467.435,974.284,359.796,974.284,359.796z" opacity=".49"></path></g><g><rect width="9.703" height="25.201" x="1506.128" y="509.629" fill="#f4d4d0"></rect><path fill="#506b42" d="M1465.152 512.964c-2.334-10.154-6.506-19.578-12.394-28.002-10.283-14.717-23.403-22.851-32.596-27.083l1.125-2.439c9.493 4.371 23.044 12.774 33.673 27.984 6.087 8.711 10.395 18.445 12.806 28.938L1465.152 512.964zM1475.928 517.936l-2.6-.671c3.941-15.336 9.741-30.189 17.24-44.144 7.617-14.176 16.971-27.397 27.81-39.302l1.985 1.81c-10.688 11.74-19.92 24.78-27.432 38.764C1485.533 488.155 1479.813 502.806 1475.928 517.936z"></path><path fill="#506b42" d="M1497.61 527.608l-2.663-.342c.695-5.444 1.01-16.251-4.689-27.446-7.25-14.232-19.78-20.454-24.829-22.467l.992-2.495c5.332 2.128 18.564 8.7 26.227 23.746C1498.676 510.438 1498.344 521.854 1497.61 527.608zM1399.149 451.137c.372-1.368 6.521-.885 13.733 1.078 7.212 1.963 12.757 4.664 12.385 6.031s-6.521.885-13.733-1.078C1404.322 455.206 1398.777 452.505 1399.149 451.137zM1406.586 467.732c-.207-1.402 5.62-3.424 13.015-4.514 7.395-1.091 13.557-.838 13.764.564s-5.62 3.424-13.015 4.514C1412.955 469.387 1406.793 469.135 1406.586 467.732z"></path><path fill="#506b42" d="M1424.192,437.218c1.339-0.464,4.409,4.885,6.856,11.948c2.447,7.063,3.344,13.164,2.005,13.629
				c-1.339,0.464-4.409-4.885-6.856-11.948C1423.75,443.784,1422.852,437.682,1424.192,437.218z"></path><ellipse cx="1443.125" cy="455.61" fill="#506b42" rx="13.534" ry="2.567" transform="rotate(-81.911 1443.175 455.644)"></ellipse><path fill="#506b42" d="M1463.175 453.354c1.169.802-1.314 6.448-5.546 12.61-4.231 6.162-8.609 10.506-9.777 9.704-1.169-.803 1.314-6.448 5.546-12.61C1457.629 456.896 1462.006 452.552 1463.175 453.354zM1475.605 467.703c.935 1.066-2.863 5.925-8.483 10.853-5.62 4.928-10.933 8.059-11.868 6.993-.935-1.066 2.864-5.925 8.484-10.853C1469.357 469.768 1474.671 466.637 1475.605 467.703zM1538.259 418.35c.935 1.066-2.864 5.925-8.483 10.853-5.62 4.928-10.934 8.059-11.868 6.993-.935-1.066 2.864-5.925 8.483-10.853C1532.01 420.416 1537.324 417.285 1538.259 418.35zM1538.501 438.504c.264 1.393-5.475 3.651-12.819 5.044-7.344 1.393-13.511 1.393-13.775 0-.264-1.393 5.475-3.651 12.819-5.044C1532.07 437.111 1538.237 437.111 1538.501 438.504zM1511.545 442.597c-1.393.264-3.651-5.475-5.044-12.819-1.393-7.344-1.393-13.511 0-13.775 1.393-.264 3.651 5.475 5.044 12.819C1512.938 436.165 1512.938 442.333 1511.545 442.597zM1505.143 452.325c-1.228.709-5.253-3.964-8.99-10.437-3.737-6.473-5.772-12.295-4.544-13.004 1.228-.709 5.253 3.964 8.99 10.437S1506.371 451.616 1505.143 452.325zM1498.864 461.315c-.88 1.111-6.343-1.752-12.201-6.395-5.858-4.643-9.893-9.307-9.012-10.418.881-1.111 6.343 1.752 12.201 6.395C1495.71 455.54 1499.745 460.204 1498.864 461.315zM1492.598 469.847c-.709 1.228-6.531-.807-13.004-4.544-6.473-3.737-11.146-7.762-10.437-8.99.709-1.228 6.531.807 13.004 4.544C1488.634 464.594 1493.307 468.619 1492.598 469.847z"></path><path fill="#506b42" d="M1532.302 455.239c-.134 1.411-6.275 1.981-13.716 1.272-7.441-.709-13.364-2.427-13.23-3.838s6.275-1.981 13.716-1.272C1526.513 452.11 1532.436 453.828 1532.302 455.239zM1525.688 469.044c-.372 1.368-6.521.885-13.733-1.078-7.212-1.963-12.757-4.664-12.385-6.031.372-1.368 6.521-.885 13.733 1.078C1520.516 464.976 1526.061 467.676 1525.688 469.044zM1518.212 482.723c-.639 1.266-6.566-.438-13.24-3.805-6.673-3.367-11.565-7.122-10.927-8.388.639-1.266 6.566.438 13.239 3.805S1518.85 481.457 1518.212 482.723zM1415.064 479.982c-.537-1.312 4.637-4.67 11.555-7.5 6.918-2.83 12.962-4.06 13.498-2.748.537 1.312-4.636 4.67-11.555 7.5C1421.645 480.064 1415.601 481.294 1415.064 479.982zM1423.921 490.054c-.709-1.228 3.964-5.253 10.437-8.99 6.473-3.737 12.295-5.772 13.004-4.544.709 1.228-3.964 5.253-10.437 8.99C1430.452 489.247 1424.629 491.281 1423.921 490.054zM1432.417 502.144c-.867-1.122 3.224-5.737 9.138-10.308 5.914-4.571 11.411-7.368 12.278-6.246.867 1.122-3.224 5.737-9.138 10.308C1438.781 500.469 1433.284 503.266 1432.417 502.144z"></path><rect width="63.003" height="25.201" x="1443.125" y="509.629" fill="#fff"></rect></g><g><rect width="248.587" height="9.406" x="1065.494" y="377.972" fill="#bac2ce"></rect><rect width="248.587" height="9.406" x="1065.494" y="431.765" fill="#bac2ce"></rect><linearGradient id="w" x1="1146.165" x2="1166.382" y1="424.38" y2="424.38" gradientUnits="userSpaceOnUse"><stop offset="0" stop-color="#545c68"></stop><stop offset=".326" stop-color="#4e5560"></stop><stop offset="1" stop-color="#454952"></stop></linearGradient><path fill="url(#w)" d="M1146.165,495.071V356.685c0-1.655,1.342-2.996,2.996-2.996l0,0
			c1.655,0,2.996,1.341,2.996,2.996v54.264l14.224,10.197c0,0-0.009,12.559-6.378,35.529
			C1153.484,480.186,1146.165,495.071,1146.165,495.071z"></path><linearGradient id="x" x1="1102.631" x2="1135.398" y1="435.181" y2="435.181" gradientUnits="userSpaceOnUse"><stop offset="0" stop-color="#545c68"></stop><stop offset=".326" stop-color="#4e5560"></stop><stop offset="1" stop-color="#454952"></stop></linearGradient><path fill="url(#x)" d="M1102.631,516.674v-21.603V356.685c0-1.655,1.342-2.996,2.996-2.996l0,0
			c1.655,0,2.996,1.341,2.996,2.996v54.264l26.774,10.197c0,0-2.258,23.997-9.777,46.725
			C1114.902,500.275,1102.631,516.674,1102.631,516.674z"></path><linearGradient id="y" x1="1188.915" x2="1200.895" y1="424.38" y2="424.38" gradientUnits="userSpaceOnUse"><stop offset="0" stop-color="#545c68"></stop><stop offset=".326" stop-color="#4e5560"></stop><stop offset="1" stop-color="#454952"></stop></linearGradient><path fill="url(#y)" d="M1188.915,495.071V356.685c0-1.655,1.341-2.996,2.996-2.996l0,0
			c1.655,0,2.996,1.341,2.996,2.996v54.264l5.988,10.982c0,0-0.523,15.541-4.205,36.162
			C1195.063,467.205,1188.915,495.071,1188.915,495.071z"></path><linearGradient id="z" x1="1231.25" x2="1243.23" y1="404.835" y2="404.835" gradientUnits="userSpaceOnUse"><stop offset="0" stop-color="#545c68"></stop><stop offset=".326" stop-color="#4e5560"></stop><stop offset="1" stop-color="#454952"></stop></linearGradient><path fill="url(#z)" d="M1231.25,455.982v-99.298c0-1.655,1.341-2.996,2.996-2.996l0,0
			c1.655,0,2.996,1.341,2.996,2.996v54.264l5.988,10.982c0,0-0.487,6.333-3.826,16.032
			C1234.249,452.937,1231.25,455.982,1231.25,455.982z"></path><linearGradient id="A" x1="1270.528" x2="1282.508" y1="404.835" y2="404.835" gradientUnits="userSpaceOnUse"><stop offset="0" stop-color="#545c68"></stop><stop offset=".326" stop-color="#4e5560"></stop><stop offset="1" stop-color="#454952"></stop></linearGradient><path fill="url(#A)" d="M1270.528,455.982v-99.298c0-1.655,1.341-2.996,2.996-2.996l0,0
			c1.655,0,2.996,1.341,2.996,2.996v54.264l5.988,10.982c0,0-0.487,6.333-3.826,16.032
			C1273.527,452.937,1270.528,455.982,1270.528,455.982z"></path></g><polygon fill="#020202" points="2379.91 1031.577 3000 1057.601 3000 1023.217 2379.91 1023.217" opacity=".3"></polygon><g><rect width="620.063" height="44.66" x="2379.91" y="901.372" fill="#a87451"></rect><rect width="620.063" height="22.33" x="2379.91" y="652.328" fill="#dca772"></rect><rect width="620.063" height="21.179" x="2379.91" y="673.506" fill="#c09067"></rect><rect width="24.316" height="342.867" x="2379.91" y="689.891" fill="#c09067"></rect><rect width="24.316" height="342.867" x="2579.015" y="689.891" fill="#c09067"></rect><rect width="24.316" height="342.867" x="2784.134" y="689.891" fill="#c09067"></rect><rect width="24.316" height="342.867" x="2975.684" y="689.891" fill="#c09067"></rect><rect width="620.063" height="20.43" x="2379.91" y="943.338" fill="#c09067"></rect><polygon fill="#fff" points="2543.63 929.219 2445.232 929.219 2438.216 913.531 2550.646 913.531"></polygon><ellipse cx="2494.431" cy="913.727" fill="#c8d1db" rx="56.215" ry="2.68"></ellipse><polygon fill="#fff" points="2543.63 913.531 2445.232 913.531 2438.216 897.843 2550.646 897.843"></polygon><ellipse cx="2494.431" cy="898.039" fill="#c8d1db" rx="56.215" ry="2.68"></ellipse><polygon fill="#fff" points="2543.63 897.843 2445.232 897.843 2438.216 882.155 2550.646 882.155"></polygon><path fill="#c8d1db" d="M2550.646,882.351c0,1.48-25.168,2.68-56.215,2.68s-56.215-1.2-56.215-2.68
				c0-1.48,25.168-2.68,56.215-2.68S2550.646,880.871,2550.646,882.351z"></path><polygon fill="#fff" points="2543.63 882.155 2445.232 882.155 2438.216 866.467 2550.646 866.467"></polygon><ellipse cx="2494.431" cy="866.663" fill="#c8d1db" rx="56.215" ry="2.68"></ellipse><polygon fill="#fff" points="2531.194 866.467 2455.679 866.467 2450.295 854.427 2536.578 854.427"></polygon><path fill="#c8d1db" d="M2536.578,854.578c0,1.136-19.315,2.057-43.142,2.057s-43.142-0.921-43.142-2.057
				c0-1.136,19.315-2.057,43.142-2.057S2536.578,853.442,2536.578,854.578z"></path><g><polygon fill="#fff" points="2743.673 929.219 2645.275 929.219 2638.259 913.531 2750.689 913.531"></polygon><ellipse cx="2694.474" cy="913.727" fill="#c8d1db" rx="56.215" ry="2.68"></ellipse><polygon fill="#fff" points="2743.673 913.531 2645.275 913.531 2638.259 897.843 2750.689 897.843"></polygon><ellipse cx="2694.474" cy="898.039" fill="#c8d1db" rx="56.215" ry="2.68"></ellipse><polygon fill="#fff" points="2743.673 897.843 2645.275 897.843 2638.259 882.155 2750.689 882.155"></polygon><path fill="#c8d1db" d="M2750.689,882.351c0,1.48-25.168,2.68-56.215,2.68s-56.215-1.2-56.215-2.68
					c0-1.48,25.168-2.68,56.215-2.68S2750.689,880.871,2750.689,882.351z"></path><g><polygon fill="#fff" points="2743.673 882.155 2645.275 882.155 2638.259 866.467 2750.689 866.467"></polygon><ellipse cx="2694.474" cy="866.663" fill="#c8d1db" rx="56.215" ry="2.68"></ellipse></g><g><polygon fill="#fff" points="2731.237 866.467 2655.722 866.467 2650.338 854.427 2736.621 854.427"></polygon><path fill="#c8d1db" d="M2736.621,854.578c0,1.136-19.315,2.057-43.142,2.057c-23.827,0-43.142-0.921-43.142-2.057
					c0-1.136,19.315-2.057,43.142-2.057C2717.306,852.521,2736.621,853.442,2736.621,854.578z"></path></g></g><g><polygon fill="#fff" points="2947.163 929.219 2848.765 929.219 2841.749 913.531 2954.179 913.531"></polygon><ellipse cx="2897.964" cy="913.727" fill="#c8d1db" rx="56.215" ry="2.68"></ellipse><polygon fill="#fff" points="2947.163 913.531 2848.765 913.531 2841.749 897.843 2954.179 897.843"></polygon><ellipse cx="2897.964" cy="898.039" fill="#c8d1db" rx="56.215" ry="2.68"></ellipse><polygon fill="#fff" points="2947.163 897.843 2848.765 897.843 2841.749 882.155 2954.179 882.155"></polygon><path fill="#c8d1db" d="M2954.179,882.351c0,1.48-25.168,2.68-56.215,2.68s-56.215-1.2-56.215-2.68
					c0-1.48,25.168-2.68,56.215-2.68S2954.179,880.871,2954.179,882.351z"></path><g><polygon fill="#fff" points="2947.163 882.155 2848.765 882.155 2841.749 866.467 2954.179 866.467"></polygon><ellipse cx="2897.964" cy="866.663" fill="#c8d1db" rx="56.215" ry="2.68"></ellipse></g><g><polygon fill="#fff" points="2934.727 866.467 2859.212 866.467 2853.828 854.427 2940.111 854.427"></polygon><path fill="#c8d1db" d="M2940.111,854.578c0,1.136-19.315,2.057-43.142,2.057s-43.142-0.921-43.142-2.057
					c0-1.136,19.315-2.057,43.142-2.057S2940.111,853.442,2940.111,854.578z"></path></g></g><g><path fill="#fff" d="M2374.027,633.076c13.729,2.012,29.686,3.477,47.456,3.53c17.436,0.052,33.127-1.267,46.671-3.138
				c-5.848,8.285-11.697,16.57-17.545,24.856c-0.859,1.216-2.125,2.078-3.564,2.46c-7.111,1.891-14.443,2.697-23.775,2.709
				c-7.709,0.01-16.103-0.657-22.241-1.958c-2.403-0.509-4.554-1.826-6.137-3.704
				C2387.937,649.579,2380.982,641.327,2374.027,633.076z"></path><path fill="#c8d1db" d="M2468.154,633.577c0,2.491-21.071,4.51-47.063,4.51s-47.064-2.019-47.064-4.51
				c0-2.491,21.071-4.51,47.064-4.51S2468.154,631.086,2468.154,633.577z"></path></g><g><path fill="#fff" d="M2725.572,633.076c21.469,2.012,46.423,3.477,74.212,3.53c27.267,0.052,51.805-1.267,72.986-3.138
				c-9.146,8.285-18.292,16.57-27.437,24.856c-1.343,1.216-3.323,2.078-5.574,2.46c-11.12,1.891-22.586,2.697-37.18,2.709
				c-12.056,0.01-25.182-0.657-34.781-1.958c-3.757-0.509-7.122-1.826-9.597-3.704
				C2747.325,649.579,2736.448,641.327,2725.572,633.076z"></path><path fill="#c8d1db" d="M2872.77,633.577c0,2.491-32.951,4.51-73.599,4.51c-40.648,0-73.599-2.019-73.599-4.51
				c0-2.491,32.951-4.51,73.599-4.51C2839.819,629.067,2872.77,631.086,2872.77,633.577z"></path></g><g><path fill="#fff" d="M2500.21,646.667c13.729,1.113,29.686,1.924,47.456,1.953c17.437,0.028,33.127-0.701,46.671-1.736
				c-5.848,4.583-11.697,9.166-17.545,13.749c-0.859,0.673-2.125,1.149-3.564,1.361c-7.111,1.046-14.443,1.492-23.775,1.498
				c-7.709,0.005-16.103-0.364-22.241-1.083c-2.403-0.282-4.554-1.01-6.137-2.049C2514.12,655.796,2507.165,651.232,2500.21,646.667
				z"></path><ellipse cx="2547.274" cy="646.944" fill="#c8d1db" rx="47.064" ry="2.495"></ellipse></g></g><g opacity=".1"><rect width="31.376" height="165.344" x="484.516" y="1007.601" fill="#c09067"></rect><polygon fill="#a87451" points="515.892 1007.601 530.011 1015.24 530.011 1172.946 515.892 1172.946"></polygon><polygon fill="#9accef" points="736.306 1160.712 1088.499 1160.712 1089.283 1171.025 738.659 1171.025"></polygon><polygon fill="#9accef" points="1089.283 1160.712 1492.348 1160.712 1493.246 1171.025 1077.965 1171.025"></polygon><polygon fill="#d2e9ff" points="736.306 1160.712 736.306 995.368 765.765 995.368 1060.261 995.856 1089.283 995.856 1089.283 1160.712"></polygon><rect width="298.854" height="20.626" x="761.407" y="1129.774" fill="#e9f5ff"></rect><rect width="89.421" height="3.438" x="864.162" y="1142.379" fill="#b7daf7"></rect><rect width="298.854" height="20.626" x="761.407" y="1101.456" fill="#e9f5ff"></rect><rect width="89.421" height="3.438" x="864.162" y="1114.061" fill="#b7daf7"></rect><rect width="298.854" height="20.626" x="761.407" y="1073.139" fill="#e9f5ff"></rect><rect width="89.421" height="3.438" x="864.162" y="1085.743" fill="#b7daf7"></rect><rect width="298.854" height="20.626" x="761.407" y="1044.821" fill="#e9f5ff"></rect><rect width="89.421" height="3.438" x="864.162" y="1057.425" fill="#b7daf7"></rect><rect width="298.854" height="20.626" x="761.407" y="1016.503" fill="#e9f5ff"></rect><rect width="89.421" height="3.438" x="864.162" y="1029.108" fill="#b7daf7"></rect><rect width="406.316" height="164.623" x="1086.93" y="996.089" fill="#d2e9ff"></rect><rect width="1.522" height="164.622" x="1290.327" y="996.09" fill="#1a1b1c"></rect><rect width="2.797" height="164.622" x="1087.884" y="996.09" fill="#1a1b1c"></rect><rect width="435.338" height="10.313" x="1493.246" y="1160.712" fill="#2a2c2d"></rect><rect width="414.944" height="164.623" x="1493.246" y="996.089" fill="#d2e9ff"></rect><linearGradient id="B" x1="1517.998" x2="1545.059" y1="653.009" y2="653.009" gradientTransform="matrix(1 0 0 -1 0 1798.348)" gradientUnits="userSpaceOnUse"><stop offset="0" stop-color="#545c68"></stop><stop offset=".326" stop-color="#4e5560"></stop><stop offset="1" stop-color="#454952"></stop></linearGradient><path fill="url(#B)" d="M1539.491,1138.75h-15.924c-3.076,0-5.569,2.493-5.569,5.569v2.04
						c0,3.076,2.493,5.569,5.569,5.569h15.924c3.075,0,5.569-2.493,5.569-5.569v-2.04
						C1545.059,1141.243,1542.566,1138.75,1539.491,1138.75z"></path><rect width="2.797" height="164.622" x="1491.848" y="996.09" fill="#1a1b1c"></rect><linearGradient id="C" x1="1585.848" x2="1612.909" y1="653.009" y2="653.009" gradientTransform="matrix(1 0 0 -1 0 1798.348)" gradientUnits="userSpaceOnUse"><stop offset="0" stop-color="#545c68"></stop><stop offset=".326" stop-color="#4e5560"></stop><stop offset="1" stop-color="#454952"></stop></linearGradient><path fill="url(#C)" d="M1607.341,1138.75h-15.924c-3.076,0-5.569,2.493-5.569,5.569v2.04
						c0,3.076,2.493,5.569,5.569,5.569h15.924c3.075,0,5.569-2.493,5.569-5.569v-2.04
						C1612.91,1141.243,1610.416,1138.75,1607.341,1138.75z"></path><linearGradient id="D" x1="1653.698" x2="1680.759" y1="653.009" y2="653.009" gradientTransform="matrix(1 0 0 -1 0 1798.348)" gradientUnits="userSpaceOnUse"><stop offset="0" stop-color="#545c68"></stop><stop offset=".326" stop-color="#4e5560"></stop><stop offset="1" stop-color="#454952"></stop></linearGradient><path fill="url(#D)" d="M1675.191,1138.75h-15.924c-3.076,0-5.569,2.493-5.569,5.569v2.04
						c0,3.076,2.493,5.569,5.569,5.569h15.924c3.076,0,5.569-2.493,5.569-5.569v-2.04
						C1680.76,1141.243,1678.266,1138.75,1675.191,1138.75z"></path><linearGradient id="E" x1="1721.548" x2="1748.61" y1="653.009" y2="653.009" gradientTransform="matrix(1 0 0 -1 0 1798.348)" gradientUnits="userSpaceOnUse"><stop offset="0" stop-color="#545c68"></stop><stop offset=".326" stop-color="#4e5560"></stop><stop offset="1" stop-color="#454952"></stop></linearGradient><path fill="url(#E)" d="M1743.041,1138.75h-15.924c-3.075,0-5.569,2.493-5.569,5.569v2.04
						c0,3.076,2.493,5.569,5.569,5.569h15.924c3.076,0,5.569-2.493,5.569-5.569v-2.04
						C1748.61,1141.243,1746.116,1138.75,1743.041,1138.75z"></path><linearGradient id="F" x1="1789.398" x2="1816.46" y1="653.009" y2="653.009" gradientTransform="matrix(1 0 0 -1 0 1798.348)" gradientUnits="userSpaceOnUse"><stop offset="0" stop-color="#545c68"></stop><stop offset=".326" stop-color="#4e5560"></stop><stop offset="1" stop-color="#454952"></stop></linearGradient><path fill="url(#F)" d="M1810.891,1138.75h-15.924c-3.075,0-5.569,2.493-5.569,5.569v2.04
						c0,3.076,2.493,5.569,5.569,5.569h15.924c3.076,0,5.569-2.493,5.569-5.569v-2.04
						C1816.46,1141.243,1813.966,1138.75,1810.891,1138.75z"></path><linearGradient id="G" x1="1857.248" x2="1884.31" y1="653.009" y2="653.009" gradientTransform="matrix(1 0 0 -1 0 1798.348)" gradientUnits="userSpaceOnUse"><stop offset="0" stop-color="#545c68"></stop><stop offset=".326" stop-color="#4e5560"></stop><stop offset="1" stop-color="#454952"></stop></linearGradient><path fill="url(#G)" d="M1878.741,1138.75h-15.924c-3.075,0-5.569,2.493-5.569,5.569v2.04
						c0,3.076,2.493,5.569,5.569,5.569h15.924c3.076,0,5.569-2.493,5.569-5.569v-2.04
						C1884.31,1141.243,1881.816,1138.75,1878.741,1138.75z"></path><rect width="414.944" height="1.522" x="1493.246" y="1127.485" fill="#1a1b1c"></rect><rect width="414.944" height="1.522" x="1493.246" y="1108.769" fill="#1a1b1c"></rect><rect width="1.522" height="113.44" x="1638.382" y="996.09" fill="#1a1b1c"></rect><g><path fill="#a7a7a8" d="M1800.484,1114.57h-190.38c-0.969,0-1.761,0.793-1.761,1.762v0.645
						c0,0.969,0.793,1.761,1.761,1.761h190.38c0.969,0,1.762-0.793,1.762-1.761v-0.645
						C1802.245,1115.363,1801.453,1114.57,1800.484,1114.57z"></path><polygon fill="#fff" points="1631.136 1118.739 1620.76 1114.57 1635.85 1114.57 1644.542 1118.739" opacity=".55"></polygon><polygon fill="#fff" points="1674.88 1118.739 1663.797 1114.57 1714.626 1114.57 1724.385 1118.739" opacity=".55"></polygon><polygon fill="#fff" points="1759.193 1118.739 1751.546 1114.57 1765.882 1114.57 1772.054 1118.739" opacity=".55"></polygon><rect width="185.337" height="2.801" x="1613.412" y="1111.769" fill="#1a1b1c" opacity=".2"></rect></g><rect width="312.189" height="96.937" x="1545.059" y="1012.594" fill="#252626"></rect><rect width="312.189" height="16.631" x="1545.059" y="1012.594" fill="#101011"></rect><polygon fill="#fff" points="1643.797 1109.53 1545.059 1057.787 1545.059 1012.594 1610.058 1012.594 1786.416 1109.53" opacity=".15"></polygon><polygon fill="#fff" points="1857.248 1109.53 1848.287 1109.53 1681.011 1012.594 1756.898 1012.594 1857.248 1074.838" opacity=".15"></polygon><rect width="152.865" height="12.247" x="1113.355" y="1137.37" fill="#e9f5ff"></rect><rect width="152.865" height="128.697" x="1113.355" y="1006.464" fill="#e9f5ff"></rect><rect width="152.865" height="2.209" x="1113.355" y="1135.161" fill="#e9f5ff"></rect><rect width="152.503" height="128.697" x="1316.318" y="1006.464" fill="#e9f5ff"></rect><rect width="152.503" height="2.209" x="1316.318" y="1135.161" fill="#e9f5ff"></rect><rect width="152.503" height="12.247" x="1316.318" y="1137.37" fill="#e9f5ff"></rect><path fill="#b7daf7" d="M1252.127 1097.292c0-2.235-3.721-4.048-8.312-4.048s-8.312 1.812-8.312 4.048c0 2.236 3.722 4.048 8.312 4.048S1252.127 1099.527 1252.127 1097.292zM1347.644 1097.292c0-2.235-3.722-4.048-8.312-4.048s-8.312 1.812-8.312 4.048c0 2.236 3.722 4.048 8.312 4.048S1347.644 1099.527 1347.644 1097.292z"></path><rect width="31.376" height="139.844" x="2072.94" y="1007.55" fill="#c09067"></rect><rect width="31.376" height="2.209" x="2072.94" y="1147.394" fill="#c09067"></rect><rect width="31.376" height="23.291" x="2072.94" y="1149.603" fill="#c09067"></rect><polygon fill="#a87451" points="2072.94 1007.55 2058.821 1015.189 2058.821 1147.394 2072.94 1147.394"></polygon><rect width="14.119" height="2.209" x="2058.821" y="1147.394" fill="#a87451"></rect><rect width="14.119" height="23.291" x="2058.821" y="1149.603" fill="#a87451"></rect></g><g><polygon fill="#020202" points="2104.316 1058.698 273.301 1083.628 530.011 1042.904 2072.94 1036.664" opacity=".3"></polygon><polygon fill="#dca772" points="1829.147 615.603 2024.552 615.603 2125.495 697.964 1850.172 697.964"></polygon><polygon fill="#c09067" points="2125.495 697.964 2125.495 719.143 1852.526 719.143 1850.172 697.964"></polygon><polygon fill="#dca772" points="937.895 615.497 694.733 615.497 463.337 697.859 738.659 697.859"></polygon><polygon fill="#c09067" points="463.337 697.859 463.337 719.037 736.306 719.037 738.659 697.859"></polygon><rect width="31.376" height="339.555" x="484.516" y="719.037" fill="#c09067"></rect><polygon fill="#a87451" points="515.892 1058.592 530.011 1042.904 530.011 719.037 515.892 719.037"></polygon><polygon fill="#d2e9ff" points="933.973 615.497 1192.039 615.497 1089.283 697.859 738.659 697.859"></polygon><polygon fill="#9accef" points="736.306 719.037 1088.499 719.037 1089.283 697.859 738.659 697.859"></polygon><polygon fill="#9accef" points="1089.283 719.037 1492.348 719.037 1493.246 697.859 1077.965 697.859"></polygon><polygon fill="#d2e9ff" points="736.306 719.037 736.306 1058.592 765.765 1058.592 1060.261 1057.59 1089.283 1057.59 1089.283 719.037"></polygon><rect width="298.854" height="42.357" x="761.407" y="740.216" fill="#e9f5ff"></rect><rect width="89.421" height="7.06" x="864.162" y="749.628" fill="#b7daf7"></rect><rect width="298.854" height="42.357" x="761.407" y="798.37" fill="#e9f5ff"></rect><rect width="89.421" height="7.06" x="864.162" y="807.782" fill="#b7daf7"></rect><rect width="298.854" height="42.357" x="761.407" y="856.524" fill="#e9f5ff"></rect><rect width="89.421" height="7.06" x="864.162" y="865.936" fill="#b7daf7"></rect><rect width="298.854" height="42.357" x="761.407" y="914.678" fill="#e9f5ff"></rect><rect width="89.421" height="7.06" x="864.162" y="924.09" fill="#b7daf7"></rect><rect width="298.854" height="42.357" x="761.407" y="972.831" fill="#e9f5ff"></rect><rect width="89.421" height="7.06" x="864.162" y="982.244" fill="#b7daf7"></rect><polygon fill="#e9f5ff" points="842.984 676.68 946.654 629.616 1142.143 629.616 1076.559 676.68"></polygon><rect width="406.316" height="338.073" x="1086.93" y="719.037" fill="#d2e9ff"></rect><rect width="2.182" height="338.074" x="1289.997" y="719.037" fill="#1a1b1c"></rect><rect width="4.009" height="338.074" x="1087.279" y="719.037" fill="#1a1b1c"></rect><polygon fill="#d2e9ff" points="1089.283 697.859 1192.039 615.497 1531.376 615.497 1493.246 697.859"></polygon><polygon fill="#c09067" points="1261.066 639.797 1234.396 662.561 1234.396 668.819 1412.584 668.819 1433.414 639.797 1433.414 633.538"></polygon><polygon fill="#dca772" points="1261.066 633.538 1234.396 662.561 1412.584 662.561 1433.414 633.538"></polygon><rect width="435.338" height="21.179" x="1493.246" y="697.859" fill="#2a2c2d"></rect><linearGradient id="H" x1="1493.246" x2="1928.584" y1="656.678" y2="656.678" gradientUnits="userSpaceOnUse"><stop offset="0" stop-color="#545c68"></stop><stop offset=".326" stop-color="#4e5560"></stop><stop offset="1" stop-color="#454952"></stop></linearGradient><polygon fill="url(#H)" points="1493.246 697.859 1531.376 615.497 1894.202 615.497 1928.584 697.859"></polygon><rect width="414.944" height="338.073" x="1493.246" y="719.037" fill="#d2e9ff"></rect><linearGradient id="I" x1="1517.998" x2="1545.059" y1="750.609" y2="750.609" gradientUnits="userSpaceOnUse"><stop offset="0" stop-color="#545c68"></stop><stop offset=".326" stop-color="#4e5560"></stop><stop offset="1" stop-color="#454952"></stop></linearGradient><path fill="url(#I)" d="M1531.529,764.14L1531.529,764.14c-7.473,0-13.531-6.058-13.531-13.531l0,0
								c0-7.473,6.058-13.531,13.531-13.531l0,0c7.473,0,13.531,6.058,13.531,13.531l0,0
								C1545.059,758.082,1539.001,764.14,1531.529,764.14z"></path><rect width="4.009" height="338.074" x="1491.242" y="719.037" fill="#1a1b1c"></rect><linearGradient id="J" x1="1585.848" x2="1612.909" y1="750.609" y2="750.609" gradientUnits="userSpaceOnUse"><stop offset="0" stop-color="#545c68"></stop><stop offset=".326" stop-color="#4e5560"></stop><stop offset="1" stop-color="#454952"></stop></linearGradient><path fill="url(#J)" d="M1599.379,764.14L1599.379,764.14c-7.473,0-13.531-6.058-13.531-13.531l0,0
								c0-7.473,6.058-13.531,13.531-13.531l0,0c7.473,0,13.531,6.058,13.531,13.531l0,0
								C1612.91,758.082,1606.852,764.14,1599.379,764.14z"></path><linearGradient id="K" x1="1653.698" x2="1680.759" y1="750.609" y2="750.609" gradientUnits="userSpaceOnUse"><stop offset="0" stop-color="#545c68"></stop><stop offset=".326" stop-color="#4e5560"></stop><stop offset="1" stop-color="#454952"></stop></linearGradient><path fill="url(#K)" d="M1667.229,764.14L1667.229,764.14c-7.473,0-13.531-6.058-13.531-13.531l0,0
								c0-7.473,6.058-13.531,13.531-13.531l0,0c7.473,0,13.531,6.058,13.531,13.531l0,0
								C1680.76,758.082,1674.702,764.14,1667.229,764.14z"></path><linearGradient id="L" x1="1721.548" x2="1748.61" y1="750.609" y2="750.609" gradientUnits="userSpaceOnUse"><stop offset="0" stop-color="#545c68"></stop><stop offset=".326" stop-color="#4e5560"></stop><stop offset="1" stop-color="#454952"></stop></linearGradient><path fill="url(#L)" d="M1735.079,764.14L1735.079,764.14c-7.473,0-13.531-6.058-13.531-13.531l0,0
								c0-7.473,6.058-13.531,13.531-13.531l0,0c7.473,0,13.531,6.058,13.531,13.531l0,0
								C1748.61,758.082,1742.552,764.14,1735.079,764.14z"></path><linearGradient id="M" x1="1789.398" x2="1816.46" y1="750.609" y2="750.609" gradientUnits="userSpaceOnUse"><stop offset="0" stop-color="#545c68"></stop><stop offset=".326" stop-color="#4e5560"></stop><stop offset="1" stop-color="#454952"></stop></linearGradient><path fill="url(#M)" d="M1802.929,764.14L1802.929,764.14c-7.473,0-13.531-6.058-13.531-13.531l0,0
								c0-7.473,6.058-13.531,13.531-13.531l0,0c7.473,0,13.531,6.058,13.531,13.531l0,0
								C1816.46,758.082,1810.402,764.14,1802.929,764.14z"></path><linearGradient id="N" x1="1857.248" x2="1884.31" y1="750.609" y2="750.609" gradientUnits="userSpaceOnUse"><stop offset="0" stop-color="#545c68"></stop><stop offset=".326" stop-color="#4e5560"></stop><stop offset="1" stop-color="#454952"></stop></linearGradient><path fill="url(#N)" d="M1870.779,764.14L1870.779,764.14c-7.473,0-13.531-6.058-13.531-13.531l0,0
								c0-7.473,6.058-13.531,13.531-13.531l0,0c7.473,0,13.531,6.058,13.531,13.531l0,0
								C1884.31,758.082,1878.252,764.14,1870.779,764.14z"></path><rect width="414.944" height="2.182" x="1493.246" y="784.62" fill="#1a1b1c"></rect><rect width="414.944" height="2.182" x="1493.246" y="823.055" fill="#1a1b1c"></rect><rect width="2.182" height="232.965" x="1638.052" y="824.146" fill="#1a1b1c"></rect><g><path fill="#c8d1db" d="M1781.832,614.021v26.763c0,1.244-10.465,2.258-23.377,2.258s-23.377-1.014-23.377-2.258
								v-26.763H1781.832z"></path><path fill="#fff" d="M1759.543,614.021l-24.464,22.582v4.181c0,1.105,8.256,2.027,19.148,2.22
								l27.516-28.983H1759.543z" opacity=".26"></path><ellipse cx="1758.455" cy="614.02" fill="#a0b0c1" rx="23.376" ry="2.257"></ellipse><path fill="#dde6ed" d="M1781.831,620.146l38.944-11.029c1.208-0.342,2.041-1.444,2.041-2.699l0,0
								c0-1.853-1.764-3.197-3.55-2.705l-37.434,10.307V620.146z"></path></g><g><path fill="#c8d1db" d="M1858.736,650.905v29.078c0,2.435-15.57,4.418-34.781,4.418
								c-19.212,0-34.781-1.983-34.781-4.418v-29.078H1858.736z"></path><path fill="#fff" d="M1843.692,650.905l-38.837,32.769c5.483,0.459,12.043,0.728,19.1,0.728
								c3.995,0,7.829-0.087,11.403-0.245l23.378-20.715v-12.536H1843.692z" opacity=".26"></path><ellipse cx="1823.955" cy="650.904" fill="#a0b0c1" rx="34.781" ry="4.417"></ellipse><path fill="#dde6ed" d="M1741.646,671.786l63.98-8.932c3.147-1.237,6.801-0.245,8.723,2.367l0,0
								c2.692,3.66,0.802,8.681-3.768,10.011l-65.888,4.167c-2.836,0.825-5.723-1.13-5.723-3.874l0,0
								C1738.969,673.895,1740.022,672.424,1741.646,671.786z"></path></g><g><path fill="#c8d1db" d="M1632.794,645.542v38.428c0,1.787-15.026,3.242-33.565,3.242
								c-18.54,0-33.565-1.455-33.565-3.242v-38.428H1632.794z"></path><path fill="#fff" d="M1593.088 645.542l-27.425 18.544v19.883c0 .752 2.667 1.444 7.129 1.995l50.719-40.422H1593.088zM1632.793 653.629l-38.447 33.547c1.595.023 3.223.036 4.882.036 3.128 0 6.153-.042 9.026-.12l24.539-21.896V653.629z" opacity=".26"></path><ellipse cx="1599.228" cy="645.541" fill="#a0b0c1" rx="33.564" ry="3.241"></ellipse><path fill="#dde6ed" d="M1632.792,654.337l55.917-15.836c1.734-0.491,2.931-2.074,2.931-3.876l0,0
								c0-2.66-2.533-4.59-5.098-3.884l-53.75,14.8V654.337z"></path></g><g><path fill="#c8d1db" d="M1325.904,642.955l-35.811,3.398l6.405-50.204l0.221-0.02c0.03,0.01,0.05,0.01,0.08,0.02v-0.02
							l19.304-1.544L1325.904,642.955z"></path><path fill="#bac2ce" d="M1296.497,596.148l-6.405,50.204l-13.34-9.151l10.333-43.669l0.521,0.14v0.311
							c2.406,0.571,4.821,1.133,7.216,1.704c0.03,0.01,0.06,0.01,0.09,0.02L1296.497,596.148z"></path><path fill="#2a2c2d" d="M1299.634,578.678c-0.672,0.601-2.486,3.177-2.836,9.652v7.798h-0.08
							c-0.602-0.14-1.203-0.291-1.804-0.421c-0.03-0.01-0.06-0.01-0.09-0.02l-7.216-2.015v-4.661c0-2.897,1.103-5.743,3.257-7.668
							c0.2-0.18,0.411-0.351,0.632-0.521c2.736-2.095,5.703-2.295,7.236-2.225C1299.143,578.618,1299.454,578.658,1299.634,578.678z
							"></path><linearGradient id="O" x1="1296.798" x2="1316.172" y1="587.225" y2="587.225" gradientUnits="userSpaceOnUse"><stop offset="0" stop-color="#545c68"></stop><stop offset=".326" stop-color="#4e5560"></stop><stop offset="1" stop-color="#454952"></stop></linearGradient><path fill="url(#O)" d="M1313.225,581.986c-3.939-4.51-13.711-3.729-14.493-3.388
							c0.411,0.02,0.722,0.06,0.902,0.08c-0.672,0.601-2.486,3.177-2.836,9.652v7.798l19.304-1.544
							C1316.101,590.485,1316.883,586.165,1313.225,581.986z M1300.677,589.743c0.261-1.784,0.521-3.578,0.782-5.362
							c0.541-0.301,1.333-0.682,2.356-0.912c0.812-0.19,2.235-0.501,3.919,0c0.571,0.16,2.325,0.712,3.538,2.486
							c0.822,1.203,0.992,2.405,1.042,3.007C1308.434,589.222,1304.555,589.483,1300.677,589.743z"></path><path fill="#1a1b1c" d="M1301.462 603.208c0 .866-.409 1.569-.914 1.569-.505 0-.914-.702-.914-1.569s.409-1.569.914-1.569C1301.053 601.64 1301.462 602.342 1301.462 603.208zM1307.941 602.484c0 .866-.409 1.569-.914 1.569-.505 0-.914-.702-.914-1.569s.409-1.569.914-1.569C1307.532 600.915 1307.941 601.617 1307.941 602.484zM1314.421 602.042c0 .866-.409 1.569-.914 1.569-.505 0-.914-.702-.914-1.569 0-.866.409-1.569.914-1.569C1314.011 600.473 1314.421 601.175 1314.421 602.042zM1301.936 612.203c0 .867-.409 1.569-.914 1.569-.505 0-.914-.702-.914-1.569 0-.866.409-1.569.914-1.569C1301.527 610.634 1301.936 611.336 1301.936 612.203zM1308.415 611.478c0 .866-.409 1.569-.914 1.569-.505 0-.914-.702-.914-1.569s.409-1.569.914-1.569C1308.006 609.909 1308.415 610.612 1308.415 611.478z" opacity=".58"></path><ellipse cx="1313.981" cy="611.036" fill="#1a1b1c" opacity=".58" rx=".914" ry="1.569"></ellipse><ellipse cx="1301.496" cy="621.198" fill="#1a1b1c" opacity=".58" rx=".914" ry="1.569"></ellipse><path fill="#1a1b1c" d="M1308.89,620.473c0,0.867-0.409,1.569-0.914,1.569
							c-0.505,0-0.914-0.702-0.914-1.569c0-0.866,0.409-1.569,0.914-1.569C1308.48,618.904,1308.89,619.606,1308.89,620.473z" opacity=".58"></path><ellipse cx="1314.455" cy="620.031" fill="#1a1b1c" opacity=".58" rx=".914" ry="1.569"></ellipse><path fill="#1a1b1c" d="M1302.885 630.192c0 .866-.409 1.569-.914 1.569-.505 0-.914-.702-.914-1.569s.409-1.569.914-1.569C1302.475 628.623 1302.885 629.326 1302.885 630.192zM1309.364 629.467c0 .866-.409 1.569-.914 1.569-.505 0-.914-.702-.914-1.569s.409-1.569.914-1.569C1308.955 627.899 1309.364 628.601 1309.364 629.467zM1315.843 629.026c0 .867-.409 1.569-.914 1.569-.505 0-.914-.702-.914-1.569 0-.866.409-1.569.914-1.569C1315.434 627.457 1315.843 628.159 1315.843 629.026zM1303.359 639.187c0 .866-.409 1.569-.914 1.569-.505 0-.914-.702-.914-1.569s.409-1.569.914-1.569C1302.95 637.618 1303.359 638.32 1303.359 639.187zM1309.838 638.462c0 .866-.409 1.569-.914 1.569-.505 0-.914-.702-.914-1.569 0-.866.409-1.569.914-1.569C1309.429 636.893 1309.838 637.596 1309.838 638.462zM1316.318 638.02c0 .867-.409 1.569-.914 1.569-.505 0-.914-.702-.914-1.569 0-.866.409-1.569.914-1.569C1315.908 636.451 1316.318 637.154 1316.318 638.02z" opacity=".58"></path><polygon fill="#fff" points="1295.152 606.693 1293.65 618.462 1318.167 604.777 1316.545 596.77" opacity=".26"></polygon><polygon fill="#fff" points="1292.303 629.026 1290.518 643.012 1321.813 622.766 1319.525 611.478" opacity=".26"></polygon></g><g><rect width="61.618" height="32.087" x="1150.004" y="594.581" fill="#c8d1db"></rect><polygon fill="#fff" points="1176.017 594.581 1162.312 594.581 1150.004 600.86 1150.004 608.057" opacity=".26"></polygon><polygon fill="#fff" points="1196.716 594.581 1150.004 619.166 1150.004 626.668 1170.084 626.668 1211.622 605.282 1211.622 594.581" opacity=".26"></polygon><path fill="#c8d1db" d="M1138.827 602.248h11.177v6.673h-11.177c-1.843 0-3.336-1.494-3.336-3.336l0 0C1135.491 603.741 1136.984 602.248 1138.827 602.248zM1222.798 602.248h-11.177v6.673h11.177c1.843 0 3.336-1.494 3.336-3.336l0 0C1226.135 603.741 1224.641 602.248 1222.798 602.248z"></path><path fill="#a0b0c1" d="M1211.622,594.581c0,1.278-13.906,2.313-31.06,2.313c-17.154,0-31.06-1.036-31.06-2.313
							c0-1.278,13.906-2.313,31.06-2.313C1197.716,592.268,1211.622,593.303,1211.622,594.581z"></path></g><g><path fill="#a7a7a8" d="M1797.965,813.796h-185.343c-2.354,0-4.28-1.926-4.28-4.28l0,0c0-2.354,1.926-4.28,4.28-4.28
							h185.343c2.354,0,4.28,1.926,4.28,4.28l0,0C1802.245,811.87,1800.319,813.796,1797.965,813.796z"></path><polygon fill="#fff" points="1631.136 805.236 1620.76 813.796 1635.85 813.796 1644.542 805.236" opacity=".55"></polygon><polygon fill="#fff" points="1674.88 805.236 1663.797 813.796 1714.626 813.796 1724.385 805.236" opacity=".55"></polygon><polygon fill="#fff" points="1759.193 805.236 1751.546 813.796 1765.882 813.796 1772.054 805.236" opacity=".55"></polygon><rect width="185.337" height="5.752" x="1613.412" y="813.796" fill="#1a1b1c" opacity=".2"></rect></g><g><rect width="226.73" height="2.182" x="861.616" y="667.13" fill="#1a1b1c"></rect></g><g><rect width="220.153" height="2.182" x="877.759" y="659.465" fill="#1a1b1c"></rect></g><g><rect width="214.531" height="2.182" x="894.819" y="651.8" fill="#1a1b1c"></rect></g><g><rect width="208.12" height="2.182" x="912.271" y="644.135" fill="#1a1b1c"></rect></g><g><rect width="202.21" height="2.182" x="928.221" y="636.469" fill="#1a1b1c"></rect></g><rect width="312.189" height="199.072" x="1545.059" y="824.146" fill="#252626"></rect><rect width="312.189" height="34.153" x="1545.059" y="989.065" fill="#101011"></rect><polygon fill="#fff" points="1643.797 824.146 1545.059 930.407 1545.059 1023.217 1610.058 1023.217 1786.416 824.146" opacity=".15"></polygon><polygon fill="#fff" points="1857.248 824.146 1848.287 824.146 1681.011 1023.217 1756.898 1023.217 1857.248 895.391" opacity=".15"></polygon><rect width="1171.884" height="6.111" x="736.306" y="719.037" fill="#1a1b1c" opacity=".67"></rect><g><rect width="107.719" height="56.093" x="968.893" y="597.787" fill="#c8d1db"></rect><path fill="#c8d1db" d="M949.354 611.19h19.539v11.665h-19.539c-3.221 0-5.833-2.611-5.833-5.833l0 0C943.522 613.801 946.133 611.19 949.354 611.19zM1096.152 611.19h-19.539v11.665h19.539c3.221 0 5.833-2.611 5.833-5.833l0 0C1101.984 613.801 1099.373 611.19 1096.152 611.19z"></path><polygon fill="#fff" points="1063.074 597.787 1009.449 597.787 968.893 614.173 968.893 639.645" opacity=".26"></polygon><polygon fill="#fff" points="982.386 653.88 1026.818 653.88 1076.613 629.524 1076.613 609.498" opacity=".26"></polygon><ellipse cx="1022.753" cy="597.787" fill="#a0b0c1" rx="53.86" ry="4.118"></ellipse></g><rect width="152.865" height="293.983" x="1113.355" y="741.823" fill="#e9f5ff"></rect><rect width="152.503" height="293.983" x="1316.318" y="741.823" fill="#e9f5ff"></rect><circle cx="1243.815" cy="849.279" r="8.312" fill="#b7daf7" transform="rotate(-45.001 1243.811 849.297)"></circle><circle cx="1339.332" cy="849.279" r="8.312" fill="#b7daf7" transform="rotate(-22.5 1339.267 849.245)"></circle><rect width="31.376" height="339.555" x="2072.94" y="719.143" fill="#c09067"></rect><polygon fill="#a87451" points="2072.94 1058.698 2058.821 1043.01 2058.821 719.143 2072.94 719.143"></polygon></g></svg>