<svg xmlns="http://www.w3.org/2000/svg" viewBox="0 0 2800 1900" id="chef-with-empty-wooden-board-welcoming-guest"><g data-name="Layer 1"><ellipse cx="1229.548" cy="1737.873" fill="#d1bfb2" rx="656.548" ry="77.4"></ellipse><rect width="53.029" height="199.47" x="714.556" y="1572.365" fill="#84643e"></rect><path fill="#a78961" d="M767.5841,1610.8934v160.9421h-26.541V1633.1787C741.0431,1620.8757,752.9317,1610.8934,767.5841,1610.8934Z"></path><rect width="53.029" height="199.47" x="1132.817" y="1572.365" fill="#84643e"></rect><path fill="#a78961" d="M1185.8457,1610.8934v160.9421h-26.541V1633.1787C1159.3047,1620.8757,1171.1933,1610.8934,1185.8457,1610.8934Z"></path><polygon fill="#725839" points="1291.447 1165.184 1290.665 1184.217 1289.935 1202.153 1288.631 1234.742 1287.745 1257.007 1287.693 1257.373 1287.171 1270.513 1280.444 1437.108 1278.986 1472.095 1276.587 1531.955 1276.429 1535.292 1276.117 1542.853 1275.126 1567.829 625.274 1586.496 608.954 1567.829 608.954 1146.518 1275.126 1146.518 1291.447 1165.184"></polygon><rect width="666.173" height="421.312" x="625.274" y="1165.184" fill="#a78961"></rect><polygon fill="#84643e" points="671.525 1375.84 625.274 1378.916 625.274 1369.427 671.525 1375.84"></polygon><polygon fill="#84643e" points="739.519 1184.217 625.274 1202.884 625.274 1184.217 739.519 1184.217"></polygon><polygon fill="#84643e" points="792.6 1435.856 625.274 1449.622 625.274 1435.856 792.6 1435.856"></polygon><polygon fill="#84643e" points="821.122 1208.671 625.274 1225.983 625.274 1208.671 821.122 1208.671"></polygon><polygon fill="#84643e" points="1119.011 1351.542 625.274 1362.805 625.274 1351.542 1119.011 1351.542"></polygon><polygon fill="#84643e" points="1146.231 1559.643 625.274 1572.365 625.274 1559.643 1146.231 1559.643"></polygon><polygon fill="#84643e" points="1291.447 1184.217 1291.447 1202.206 863.304 1193.55 1102.013 1193.55 931.664 1184.217 1291.447 1184.217"></polygon><polygon fill="#84643e" points="1291.447 1234.586 1291.447 1270.408 1097.946 1275.362 1291.447 1257.007 821.122 1257.007 1291.447 1234.586"></polygon><polygon fill="#84643e" points="932.654 1449.622 1291.447 1436.69 1291.447 1472.304 1052.061 1468.184 1119.011 1455.931 932.654 1449.622"></polygon><polygon fill="#84643e" points="1291.447 1534.823 1291.447 1543.479 1276.117 1542.853 1175.482 1538.577 1276.429 1535.292 1291.447 1534.823"></polygon><path fill="#594025" d="M625.2742,1165.1844v421.3118l-16.32-18.6668V1146.5177l.051.0522Z"></path><path d="M1291.447,1532.8413v53.6549H625.2742l-16.32-18.6668V1146.5177l.051.0522c.3653,1.0425,5.2142,13.765,16.269,34.0492.6773,1.1469,1.3036,2.3461,1.9808,3.5975,2.9203,5.162,6.1538,10.7417,9.8557,16.7375,1.5123,2.5028,3.129,5.1099,4.7967,7.717,3.0769,4.7974,6.3625,9.8035,9.9078,14.9655,25.3406,36.9167,63.5092,82.8017,118.6242,127.9051,3.18,2.5556,6.3613,5.1627,9.6456,7.7176,102.3564,80.7165,259.9309,157.0004,496.5021,172.6954C1281.4882,1532.2678,1286.4415,1532.581,1291.447,1532.8413Z" style="mix-blend-mode:soft-light" opacity=".3"></path><path fill="#6b6b6b" d="M1648.4749,1710.7302c-2.6218,11.4598-29.4743,11.5444-62.4582,9.1761-44.8675-3.2986-78.3589,9.0919-84.9137-7.6966-.0847-.2112-.1693-.4223-.254-.5916-4.398-13.0672-1.1418-35.0142.8879-45.6707.7196-3.8478,1.6075-7.6543,1.6075-7.6543l42.7526-21.1438a3.23986,3.23986,0,0,0,.1688.381c.9302,2.7483,7.485,20.467,21.9898,26.5143a37.08662,37.08662,0,0,0,7.4845,2.0721c.2963.0423.5926.127.9307.1693,5.3706.9725,11.6714,1.5218,18.395,2.579,13.6164,2.1567,29.0515,6.5124,42.8372,21.1014.8038.8884,1.5647,1.7344,2.3255,2.6646C1647.0373,1700.5383,1649.448,1706.4168,1648.4749,1710.7302Z"></path><path d="M1648.4749,1710.7302c-2.6218,11.4598-29.4743,11.5444-62.4582,9.1761-44.8675-3.2986-78.3589,9.0919-84.9137-7.6966-.0847-.2112-.1693-.4223-.254-.5916-4.398-13.0672-1.1418-35.0142.8879-45.6707.7196-3.8478,1.6075-7.6543,1.6075-7.6543l42.7526-21.1438a3.23986,3.23986,0,0,0,.1688.381c.9302,2.7483,7.485,20.467,21.9898,26.5143a37.08662,37.08662,0,0,0,7.4845,2.0721c-.5916.3381-.2112.3804.9307.1693,5.3706.9725,11.6714,1.5218,18.395,2.579-27.9944,18.5224-48.0386,40.5964-8.5422,39.7085C1629.7413,1707.601,1635.0696,1712.7599,1648.4749,1710.7302Z" style="mix-blend-mode:soft-light" opacity=".3"></path><path fill="#6b6b6b" d="M1567.7905,1750.3954c-3.9748,11.7984-18.8601,21.4401-57.8496,21.4401-82.9257,0-56.8765-43.6833-48.3769-58.9486,8.4575-15.3085,9.7263-26.8953,9.7263-26.8953l1.2263-8.9226h74.891l1.2265,8.9226s.0847.7191.3387,1.9874a84.38076,84.38076,0,0,0,9.3877,24.9079C1562.8427,1720.9635,1572.2732,1737.0753,1567.7905,1750.3954Z"></path><path d="M1567.7905,1750.3954c-3.9748,11.7984-18.8601,21.4401-57.8496,21.4401-82.9257,0-56.8765-43.6833-48.3769-58.9486,8.4575-15.3085,9.7263-26.8953,9.7263-26.8953l1.2263-8.9226h74.891l1.2265,8.9226s.0847.7191.3387,1.9874c-14.3361,3.0028-55.0585,13.9551-66.0957,42.2452C1470.0215,1763.251,1533.1149,1766.5919,1567.7905,1750.3954Z" style="mix-blend-mode:soft-light" opacity=".3"></path><path fill="#333" d="M1691.7682,1465.6336a658.59014,658.59014,0,0,1-28.9578,79.2778c-19.0293,43.4366-113.1331,136.0927-113.1331,136.0927l-19.6589-107.6853s20.6841-17.6517,30.1988-28.8211c11.5831-21.5115,14.8926-75.7038,14.8926-75.7038Z"></path><path d="M1691.7773,1465.6314s-2.4102,8.6268-7.1045,22.5393c-39.4536,12.3479-119.5888,51.4639-106.5644,163.7369-16.3652,17.2113-28.4171,29.0944-28.4171,29.0944l-19.6638-107.6642s20.6787-17.6761,30.1934-28.8401c11.5867-21.5244,14.8853-75.6947,14.8853-75.6947Z" style="mix-blend-mode:soft-light" opacity=".3"></path><path fill="#333" d="M1393.0896,1477.844s47.9871,148.9765,78.1859,208.1331c43.023,7.8599,78.5997,0,78.5997,0s-5.7916-153.8898-16.1336-197.7402S1393.0896,1477.844,1393.0896,1477.844Z"></path><path d="M1513.3242,1689.4595a220.15373,220.15373,0,0,1-42.0339-3.4679c-30.1933-59.1602-78.1898-208.1391-78.1898-208.1391s130.2881-33.4495,140.6483,10.4029c.9726,4.1864,1.9451,9.3877,2.8335,15.3924C1516.3687,1518.4485,1468.1188,1568.6017,1513.3242,1689.4595Z" style="mix-blend-mode:soft-light" opacity=".3"></path><path fill="#b7765a" d="M1986.8248,971.8606l7.5102-13.6244a162.11694,162.11694,0,0,0-6.6551-18.8137c-4.4886-10.6966-9.7687-15.0545,2.2257-28.1312s21.024-24.1009,24.4994-49.2464,7.5654-29.029,18.1929-22.7467,33.905,26.5242,32.6003,48.2917-22.6139,35.4349-22.6139,35.4349,25.4729-8.8248,51.1213-11.0944c33.5929-46.0292,72.0151-69.8633,80.097-46.1455,32.4821-10.0455,40.8335,3.9383,40.8977,18.1798,19.3918,4.3188,11.8375,19.4954,4.4438,25.7658s-45.0517,56.3129-61.3703,73.4529-69.041,42.1254-110.462,49.0582S1986.8248,971.8606,1986.8248,971.8606Z"></path><path d="M2164.758,934.4748c5.5488-17.156,41.0928-41.0589,54.0091-49.3295a32.4292,32.4292,0,0,0-4.0658-1.1937,27.06505,27.06505,0,0,0-2.0828-10.7725c-29.8261,30.0144-82.1425,58.0264-76.7637,40.203,4.1123-13.496,25.7816-35.789,38.0539-47.6053l-.1194.0231a16.50788,16.50788,0,0,0-2.3917-4.6923c-3.5291,1.7958-9.3048,4.7685-18.7382,9.7265-21.4234,11.1936-52.4107,63.7829-72.7614,71.1401-20.3907,7.3655-28.7966-21.6071-28.7966-21.6071-4.7972,1.4218-7.8926,2.4744-8.4415,2.6218a56.56206,56.56206,0,0,0,10.4292-9.1918c-10.6161,1.1863-24.3012-1.9824-28.7244-24.2201a82.96087,82.96087,0,0,1,6.0469-51.4791c-9.0238-4.4409-12.7559.5696-15.9867,23.9574-3.5119,25.133-12.5156,36.1523-24.5019,49.2327-12.0264,13.0882-6.7341,17.4255-2.2289,28.1424a167.64325,167.64325,0,0,1,6.6447,18.7979l-7.5116,13.6177s19.0785,67.322,60.5006,60.3854,94.1238-31.8895,110.4324-49.0631c8.0182-8.4371,21.1851-24.7973,33.3835-39.9811C2172.4933,950.3813,2160.538,947.4143,2164.758,934.4748Zm-23.881,40.2873c-31.4229,18.9828-83.291,50.1661-79.5361,14.347,3.7947-35.8268,56.6312-40.8878,57.8391-41.0388C2151.0781,944.1299,2172.2999,955.7793,2140.877,974.7621Z" style="mix-blend-mode:soft-light" opacity=".3"></path><path fill="#995942" d="M2051.6735 985.9473c.6141-9.3712 5.176-18.2718 11.3362-25.5531 6.3222-7.2845 14.7537-12.5058 23.6072-16.0775 4.3737-2.0697 9.0702-3.0068 13.6617-4.3629 4.6514-.9885 9.3644-1.7668 14.0763-2.3599 4.7255-.2549 9.463-.7193 14.188-.7906l14.1549.3886-2.2615.7593c11.6527-9.9238 23.4965-19.6412 35.7486-28.8599q9.1488-6.9618 18.7031-13.4037c6.4289-4.1827 12.8463-8.4703 19.8123-11.7229-12.5338 8.7819-23.8946 18.9783-35.5468 28.8126l-34.5899 29.9701-.9123.7906-1.3509-.0307-13.7028-.3145c-4.5562.0151-9.0867.4142-13.636.5962-4.4872.5628-8.9978 1.1042-13.4462 1.8817-4.3571 1.11-8.846 1.8983-13.0047 3.5948-8.4726 2.8974-16.5734 7.208-23.0746 13.4598A47.26789 47.26789 0 002051.6735 985.9473zM2173.8025 865.7848c-5.4509 4.628-10.7131 9.3846-15.998 14.0947-5.2336 4.7664-10.4769 9.5047-15.5349 14.4393-10.2665 9.7276-19.985 19.9394-30.0018 30.1591a147.08128 147.08128 0 0112.5589-17.3881 187.161 187.161 0 0114.6465-15.6955C2149.8714 881.5814 2161.1381 872.5241 2173.8025 865.7848z"></path><path fill="#995942" d="M2042.5845,923.0247a31.20475,31.20475,0,0,1,11.3545,7.155,31.68809,31.68809,0,0,1,7.6121,11.4267,28.00217,28.00217,0,0,1,1.7141,13.6631,31.23583,31.23583,0,0,1-4.3224,12.7185c.6147-4.4384,1.3863-8.647,1.1661-12.8582a33.46571,33.46571,0,0,0-2.3362-12.0765C2054.8959,935.3261,2049.2693,928.7903,2042.5845,923.0247Z"></path><path fill="#e6e8e8" d="M2053.7584,1097.9837c-14.5467,19.7061-48.3767,51.2101-84.7444,81.0651-49.0952,40.3424-102.8007,77.6401-119.9268,78.9086-28.6287,2.1144-84.4904-29.8973-88.7191-32.35q-.2541-.1266-.254-.1268c.9302,2.7065,1.8604,5.3704,2.7906,8.0768,18.2262,53.8322,30.9547,108.7637,38.6937,147.3722,6.3854,31.7577,9.43,52.4364,9.43,52.4364a776.11213,776.11213,0,0,1-306.7538,65.2075c-90.2841.5919-148.2601-15.0122-148.2601-15.0122q-8.43645-11.5446-15.5194-23.5542a318.081,318.081,0,0,1-18.522-36.7479c-40.0464-93.7514-31.3352-190.2938-31.3352-190.2938-34.7602-7.6961-85.2092-20.1287-124.9596-45.1208-54.5086-34.2951-71.0853-107.7908-32.6037-159.466,8.7112-11.7561,19.114-20.9324,29.8549-26.8951,32.2654-17.9299,152.7849-39.1583,152.7849-39.1583s229.5365,2.9179,325.0221-.6341c17.5489-.6768,30.5738-1.5647,36.8323-2.7065a40.81493,40.81493,0,0,1,5.6245-.6342c10.91-.5077,23.3428,2.8756,36.6206,9.4724,35.8598,17.8452,77.7669,59.2025,112.189,110.328,14.082-7.527,50.3217-35.31,84.829-62.7545,39.2006-31.2083,76.244-61.909,76.244-61.909s23.9772,32.4768,42.2875,78.1896C2043.4405,1051.7634,2050.4175,1074.4295,2053.7584,1097.9837Z"></path><path fill="#b7765a" d="M1424.2518,982.7172s60.8132,77.7722,140.7917,87.7006c52.9514-33.6461,80.8104-104.7995,80.8104-104.7995l-98.2276-32.0534Z"></path><path fill="#b23030" d="M1584.5759,1493.9114a773.16013,773.16013,0,0,0,226.4525-60.5454s-3.0446-20.6787-9.43-52.4364a949.24388,949.24388,0,0,1-230.9533,52.6658c-16.6357-75.1917-39.119-188.897-44.2119-274.3372,86.9434-57.9337,133.1634-140.902,156.7601-200.9078a40.81493,40.81493,0,0,0-5.6245.6342c-6.2585,1.1418-19.2834,2.0297-36.8323,2.7065-27.9949,41.3993-90.9182,121.4496-197.06,192.1968,5.314,89.255,29.6007,209.3062,46.396,284.1353,6.1937,27.594,11.3764,49.0893,14.2021,60.5503a772.34454,772.34454,0,0,0,79.6447-4.5883h-.0005c.2215-.0224.4357-.0389.6597-.0634Z"></path><path d="M1579.8945,1494.438c1.3287-.1381,2.6879-.3067,4.0243-.4528-1.3535.1374-2.677.2473-4.0346.3885C1579.8857,1494.3954,1579.8935,1494.4163,1579.8945,1494.438Z"></path><path fill="#7c7c7c" d="M1760.1013,1225.4812c-9.3347-19.0447-17.5347-38.3247-26.4338-57.2873-8.7599-19.0416-18.0799-37.6657-27.9717-56.4079,14.0688,15.9432,24.7311,34.5936,33.7225,53.7406A303.7074,303.7074,0,0,1,1760.1013,1225.4812Z"></path><path fill="#b23030" d="M2053.7584 1097.9837c-14.5467 19.7061-48.3767 51.2101-84.7444 81.0651-7.4844-87.4927-38.1429-142.5511-52.1821-163.6525 39.2006-31.2083 76.244-61.909 76.244-61.909S2042.7219 1020.7666 2053.7584 1097.9837zM1447.2711 1078.2778c-7.7387 105.4651-42.7529 168.854-43.8101 170.7994l-.0423.042-1.5646-.2114c-.2114-.0423-.4228-.0846-.6765-.1267q-.3807-.06345-.8882-.127c-.5074-.0846-1.0572-.169-1.7336-.2537-.2114-.0423-.4651-.0423-.6768-.0846-.9725-.1691-2.1144-.3382-3.4673-.5075-12.3059-1.8606-41.4843-6.1738-110.6667-16.4076 36.3675-67.9981 50.1109-149.4862 53.4515-172.7021C1377.285 1066.8601 1418.3886 1074.5565 1447.2711 1078.2778zM1506.5779 1498.5328c-.7547.0062-1.5538.0369-2.3033.0407-2.8257-11.461-8.0084-32.9563-14.2021-60.5503-76.3233.8455-135.188-8.0941-168.0994-14.764a303.36558 303.36558 0 0034.0414 60.3021s58.9832 15.8487 150.5685 15.0223C1506.583 1498.5663 1506.5779 1498.5501 1506.5779 1498.5328z"></path><path d="M1506.5779,1498.5328c-.7547.0062-1.5538.0369-2.3033.0407-2.8257-11.461-8.0084-32.9563-14.2021-60.5503-76.3233.8455-135.188-8.0941-168.0994-14.764a303.36558,303.36558,0,0,0,34.0414,60.3021s58.9832,15.8487,150.5685,15.0223C1506.583,1498.5663,1506.5779,1498.5501,1506.5779,1498.5328Z" style="mix-blend-mode:soft-light" opacity=".3"></path><path d="M1801.5984,1380.9296c-81.4882,83.3062-306.6692,122.3801-461.1033,79.0775a318.081,318.081,0,0,1-18.522-36.7479c-40.0464-93.7514-31.3352-190.2938-31.3352-190.2938-34.7602-7.6961-85.2092-20.1287-124.9596-45.1208-54.5086-34.2951-71.0853-107.7908-32.6037-159.466,8.7112-11.7561,19.114-20.9324,29.8549-26.8951,32.2654-17.9299,152.7849-39.1583,152.7849-39.1583s229.5365,2.9179,325.0221-.6341c17.5489-.6768,30.5738-1.5647,36.8323-2.7065a40.81493,40.81493,0,0,1,5.6245-.6342c10.91-.5077,23.3428,2.8756,36.6206,9.4724-39.3699,37.4667-175.3239,130.8797-505.5472,62.3318,32.5191,138.4493,311.5744,218.2035,311.5744,218.2035s-.6344,52.9017-36.4942,49.1804-85.5052-16.9573-85.5052-16.9573S1542.8408,1415.0978,1801.5984,1380.9296Z" style="mix-blend-mode:soft-light" opacity=".6"></path><path d="M2053.7584,1097.9837c-14.5467,19.7061-48.3767,51.2101-84.7444,81.0651-49.0952,40.3424-102.8007,77.6401-119.9268,78.9086-28.6287,2.1144-84.4904-29.8973-88.7191-32.35-6.2585-18.691-23.5545-66.6452-48.3349-104.1963,91.0023,58.2298,124.917,71.4658,172.1105,42.4989,29.7278-18.2682,101.9547-85.2518,151.2197-132.2331C2043.4405,1051.7634,2050.4175,1074.4295,2053.7584,1097.9837Z" style="mix-blend-mode:soft-light" opacity=".6"></path><path fill="#b23030" d="M1827.6613,440.7206s-20.4423,61.0651-47.948,127.8506c-11.6378,28.103-24.4857,57.2694-37.64,83.2941-61.0386,46.1726-394.4207,36.4203-482.3366,33.005-13.5176-.505-21.2545-.9043-21.2545-.9043l-24.2268-55.9494-31.3314-85.5403s97.7688,35.4291,129.2429-81.189c128.0017,62.5469,217.554,7.661,246.6116-91.4549,74.177,108.4668,175.9538,105.439,224.9864,58.4544C1805.8641,453.9406,1827.6613,440.7206,1827.6613,440.7206Z"></path><path fill="#e6e8e8" d="M1934.2278,460.6909c-4.346,41.7004-43.2799,72.5134-90.2957,74.1849,4.6073,4.8783,7.0489,10.2496,6.487,15.641-1.6858,16.1748-29.0571,26.5005-61.1261,23.0797a105.30451,105.30451,0,0,1-10.9805-1.725c.4942-1.0973.9475-2.1986,1.4008-3.3003,27.5057-66.7855,47.948-127.8506,47.948-127.8506l-.0462.0374c-1.1706.6844-22.3912,12.433-43.8502-12.4712-49.0326,46.9846-150.8094,50.0124-224.9864-58.4544-29.0576,99.1159-118.6099,154.0018-246.6116,91.4549-31.4741,116.6181-129.2429,81.189-129.2429,81.189l31.3314,85.5403,11.2097,25.8978a90.6508,90.6508,0,0,1-58.4131,13.2753c-31.9439-3.4074-58.1257-22.3417-70.5897-47.5643-44.8005-10.6562-76.0599-49.4251-71.6481-91.7575,2.2389-21.4819,13.2652-40.0674,29.5317-53.3664a141.04741,141.04741,0,0,1-11.5407-71.8023c7.2828-69.8798,65.8814-123.4677,140.2486-135.6799a148.32089,148.32089,0,0,1,.5042-24.3077c8.8939-85.3383,89.8975-146.63,180.9613-136.9163,44.3197,4.7276,82.829,25.4454,109.6481,55.308,27.0176-50.7385,88.2076-82.5422,155.4385-75.3707,82.4092,8.7906,143.8353,72.8817,141.284,145.2251a161.364,161.364,0,0,1,45.1366-16.9062c69.7921-14.9574,135.7249,17.2461,147.2834,71.8442,8.5731,40.6505-15.38,82.2611-56.9408,107.0446C1925.877,410.609,1936.9012,435.039,1934.2278,460.6909Z"></path><ellipse cx="1336.112" cy="206.082" fill="#fff" opacity=".5" rx="122.787" ry="71.821" transform="rotate(-7.686 1336.113 206.083)"></ellipse><ellipse cx="1621.509" cy="192.736" fill="#fff" opacity=".5" rx="77.98" ry="122.831" transform="rotate(-79.857 1621.509 192.736)"></ellipse><ellipse cx="1845.253" cy="310.402" fill="#fff" opacity=".5" rx="96.481" ry="61.254" transform="rotate(-16.548 1845.253 310.402)"></ellipse><path d="M1827.6613,440.7206l-.0462.0374c-1.1706.6844-22.3912,12.433-43.8502-12.4712-49.0326,46.9846-150.8094,50.0124-224.9864-58.4544-29.0576,99.1159-118.6099,154.0018-246.6116,91.4549-31.4741,116.6181-129.2429,81.189-129.2429,81.189l31.3314,85.5403,11.2097,25.8978a90.6508,90.6508,0,0,1-58.4131,13.2753c-31.9439-3.4074-58.1257-22.3417-70.5897-47.5643-44.8005-10.6562-76.0599-49.4251-71.6481-91.7575,2.2389-21.4819,13.2652-40.0674,29.5317-53.3664a141.04741,141.04741,0,0,1-11.5407-71.8023c7.2828-69.8798,65.8814-123.4677,140.2486-135.6799,0,0-43.0011,163.1318,124.1464,154.3,66.9324,56.2882,178.5574,56.5256,253.6121-76.2702,41.2688,96.0555,170.8877,122.4032,226.9435,56.704C1798.9731,440.5565,1827.6613,440.7206,1827.6613,440.7206Z" style="mix-blend-mode:soft-light" opacity=".6"></path><path d="M1779.7133,568.5712c-81.7476,62.7458-344.8433,98.9921-519.9766,116.2991-13.5176-.505-21.2545-.9043-21.2545-.9043l-24.2268-55.9494-31.3314-85.5403s97.7688,35.4291,129.2429-81.189c128.0017,62.5469,217.554,7.661,246.6116-91.4549,0,0,6.6797,152.9284-167.8967,145.4223C1409.5577,558.3461,1625.5136,520.0952,1779.7133,568.5712Z" style="mix-blend-mode:soft-light" opacity=".6"></path><path fill="#e6e8e8" d="M1779.7133,568.5712c-11.6378,28.103-24.4857,57.2694-37.64,83.2941-70.448,53.3037-503.5911,32.1007-503.5911,32.1007l-24.2268-55.9494C1247.798,604.7204,1445.7833,520.2594,1779.7133,568.5712Z"></path><path d="M1742.0733,651.8653c-70.448,53.3037-503.5911,32.1007-503.5911,32.1007l-24.2268-55.9494c33.5426-23.2962,231.5279-107.7572,565.4579-59.4454,0,0-128.7211-11.4309-256.4539,4.97C1395.5311,589.8996,1657.7041,610.3696,1742.0733,651.8653Z" style="mix-blend-mode:soft-light" opacity=".6"></path><path fill="#b7765a" d="M1268.5309,884.8477c-.0375-.0152-.0375-.0152-.0906.0072-1.159.5843-2.424,1.2136-3.7491,1.7746-71.4751,31.8182-88.1767-63.5257-63.9536-88.8432,5.9145-6.0351,11.7942-9.2741,17.3018-10.5117,17.7652-4.1761,32.4081,10.4083,32.4081,10.4083a160.40462,160.40462,0,0,1,17.6831,14.2351l.0977.0836c12.2916,11.3917,26.1919,28.1345,24.8423,44.3633-.0153.0377.0072.0906-.0081.1283C1292.1407,866.5716,1285.3095,876.4952,1268.5309,884.8477Z"></path><path d="M1268.5309,884.8477c-.0375-.0152-.0375-.0152-.0906.0072-38.4658,14.1888-61.8564-30.2888-59.7707-52.2357,2.0631-22,22.0714-12.3122,22.0714-12.3122a77.50887,77.50887,0,0,0-12.7016-33.0324c17.7652-4.1761,32.4081,10.4083,32.4081,10.4083a160.40462,160.40462,0,0,1,17.6831,14.2351l.0977.0836c16.9633,19.6963,23.8687,33.8684,24.8423,44.3633-.0153.0377.0072.0906-.0081.1283C1292.1407,866.5716,1285.3095,876.4952,1268.5309,884.8477Z" style="mix-blend-mode:soft-light" opacity=".3"></path><path fill="#995942" d="M1262.343,869.2392c-8.3443-11.5324-15.0058-23.2211-23.0586-33.3188-4.0373-4.9371-8.3192-9.5343-13.3869-12.3259-5.0272-2.8287-11.2884-2.9601-18.2572-.7881a19.59545,19.59545,0,0,1,20.9989-6.4462c7.9052,2.2396,13.7626,7.7392,18.385,13.37a71.22231,71.22231,0,0,1,10.5556,18.7927A66.7336,66.7336,0,0,1,1262.343,869.2392Z"></path><path fill="#b7765a" d="M1737.3911,857.4986c.0355-.0195.0355-.0195.0908-.0033,1.2192.4455,2.5487.9235,3.9301,1.3266,74.6897,23.2923,80.1927-73.3469,53.1903-95.6763-6.5761-5.3066-12.7925-7.84-18.4066-8.4289-18.1302-2.0822-30.9782,14.1058-30.9782,14.1058a160.40613,160.40613,0,0,0-15.9081,16.1945l-.0873.0943c-10.8837,12.7436-22.7432,30.989-19.5158,46.9508.0196.0357.0033.0908.0229.1265C1711.8165,842.0914,1719.7552,851.1536,1737.3911,857.4986Z"></path><path d="M1737.3911,857.4986c.0355-.0195.0355-.0195.0908-.0033,39.8547,9.6202,57.9153-37.2753,53.2922-58.8309-4.6071-21.6109-23.3533-9.6625-23.3533-9.6625a77.51053,77.51053,0,0,1,8.7749-34.2852c-18.1302-2.0822-30.9782,14.1058-30.9782,14.1058a160.40613,160.40613,0,0,0-15.9081,16.1945l-.0873.0943c-14.5582,21.535-19.769,36.4138-19.5158,46.9508.0196.0357.0033.0908.0229.1265C1711.8165,842.0914,1719.7552,851.1536,1737.3911,857.4986Z" style="mix-blend-mode:soft-light" opacity=".3"></path><path fill="#995942" d="M1741.7221,841.2766a66.73939,66.73939,0,0,1,2.3225-21.1298,71.24245,71.24245,0,0,1,8.2987-19.8926c3.9369-6.1298,9.1152-12.2732,16.7062-15.4169a19.59625,19.59625,0,0,1,21.6056,3.9611c-7.1741-1.3469-13.3771-.4884-18.0417,2.9057-4.7084,3.3618-8.4269,8.4255-11.8626,13.7985C1753.9268,816.4682,1748.6693,828.8523,1741.7221,841.2766Z"></path><path fill="#b7765a" d="M1746.4215,643.9076l-.7341,6.4312-1.1667,10.1671L1731.818,771.9537l-4.9863,43.709a66.18982,66.18982,0,0,0-.3897,7.7501,61.93325,61.93325,0,0,0,3.7843,20.9338c9.0185,24.7597,20.5685,82.4233-46.1242,122.8077a.14018.14018,0,0,0-.1122.0448c-4.5087,2.7113-9.4033,5.3685-14.6477,7.9313-34.2204,16.6857-84.7081,29.2708-158.3641,33.5672-122.9506,7.1719-184.5259-16.2056-214.2203-46.5301-31.2363-31.8416-27.3463-71.3934-22.6114-91.2173a63.52847,63.52847,0,0,0,.0366-28.884l-39.4645-168.3104s105.4121-54.0428,253.0673-62.6557C1635.4408,602.4872,1746.4215,643.9076,1746.4215,643.9076Z"></path><path fill="#fff" d="M1730.2263 844.3466c9.0185 24.7597 20.5685 82.4233-46.1242 122.8077a.14018.14018 0 00-.1122.0448c-4.5087 2.7113-9.4033 5.3685-14.6477 7.9313-13.2729-10.4724-22.1484-24.9119-23.3026-44.6984-3.6204-62.0661 46.5131-93.1838 80.4024-107.0192A61.93325 61.93325 0 001730.2263 844.3466zM1744.5207 660.5059L1731.818 771.9537c-64.5277 15.8521-122.4767-30.6124-115.0107-82.3082C1624.98 633.012 1719.8134 654.0285 1744.5207 660.5059z" opacity=".11"></path><path d="M1746.4215,643.9076l-.7341,6.4312c-62.1288-10.5681-367.5447-55.7572-411.4509,67.036-48.9029,136.8179,51.889,326.2248,349.7534,249.8243-103.1146,42.2794-276.2142,61.2898-387.2321-5.0316-31.2363-31.8416-27.3463-71.3934-22.6114-91.2173a63.52847,63.52847,0,0,0,.0366-28.884l-39.4645-168.3104s105.4121-54.0428,253.0673-62.6557C1635.4408,602.4872,1746.4215,643.9076,1746.4215,643.9076Z" style="mix-blend-mode:soft-light" opacity=".3"></path><ellipse cx="1402.561" cy="767.933" rx="31.09" ry="46.539" transform="rotate(-5.454 1402.528 767.918)" style="mix-blend-mode:soft-light" opacity=".3"></ellipse><ellipse cx="1405.23" cy="782.646" fill="#333" rx="19.582" ry="24.414" transform="rotate(-2.463 1405.233 782.648)"></ellipse><path fill="#fff" d="M1416.0729 774.4159c.2203 5.1218-3.0476 9.4221-7.2992 9.605s-7.8767-3.8208-8.097-8.9426 3.0475-9.4221 7.2991-9.605S1415.8525 769.2941 1416.0729 774.4159zM1403.4544 788.7044a4.45046 4.45046 0 11-4.6376-4.2551A4.45039 4.45039 0 011403.4544 788.7044z"></path><ellipse cx="1589.841" cy="752.593" rx="28.058" ry="42.001" transform="rotate(-5.593 1589.84 752.593)" style="mix-blend-mode:soft-light" opacity=".3"></ellipse><ellipse cx="1592.283" cy="765.865" fill="#333" rx="17.673" ry="22.033" transform="rotate(-2.603 1592.284 765.865)"></ellipse><path fill="#fff" d="M1602.0501,758.4134c.2101,4.6219-2.7297,8.5101-6.5662,8.6845s-7.1171-3.4309-7.3272-8.0528,2.7296-8.5101,6.5662-8.6845S1601.84,753.7915,1602.0501,758.4134Z"></path><circle cx="1586.681" cy="771.519" r="4.016" fill="#fff" transform="rotate(-15.299 1586.681 771.519)"></circle><path fill="#333" d="M1439.1558,704.0813c-6.2653,1.8356-14.9523,5.2609-24.1427,9.1098-5.2431,2.2735-10.6422,4.6339-15.8401,7.0258-3.9007,1.7339-7.6409,3.4609-11.1064,5.0555-7.6776,3.5426-14.0099,6.6259-17.5116,8.3025-1.8492.8827-2.8706,1.4085-2.8706,1.4085-12.2363-4.4126-21.1328-22.6618-21.1328-22.6618,1.3571-2.9896,2.7996-5.8626,4.2473-8.6154a127.768,127.768,0,0,1,12.0748-18.9504,95.21593,95.21593,0,0,1,11.0759-12.2821,73.95671,73.95671,0,0,1,12.4813-9.4914,50.908,50.908,0,0,1,23.7152-7.8467C1431.0565,653.9549,1445.6507,684.2464,1439.1558,704.0813Z"></path><path d="M1388.0666 725.2724c-7.6776 3.5426-14.0099 6.6259-17.5116 8.3025a119.726 119.726 0 01-19.7561-29.8687 127.768 127.768 0 0112.0748-18.9504C1366.2443 694.9708 1373.6928 712.2382 1388.0666 725.2724zM1415.0131 713.1911c-5.2431 2.2735-10.6422 4.6339-15.8401 7.0258-8.2397-9.5235-20.1621-26.2372-25.2234-47.7432a73.95671 73.95671 0 0112.4813-9.4914C1389.3133 674.9047 1396.897 697.1857 1415.0131 713.1911z" style="mix-blend-mode:soft-light" opacity=".3"></path><path fill="#333" d="M1637.539,692.8858c-3.2788,5.9667-8.1916,14.443-11.19,17.6589-2.3801,2.542-19.9026.3086-38.0208-3.0445-2.7111-.5307-5.4227-1.0613-8.0847-1.5941-3.3635-.6518-6.6309-1.3576-9.7458-2.0204-6.1832-1.3768-11.7665-2.6804-16.0982-3.8381-3.6251-.9396-6.3993-1.7663-7.9177-2.3483-9.8255-3.8591,7.2817-33.274,16.6578-44.4816,3.552-4.2356,9.4407-6.2314,15.9883-6.8119a58.12474,58.12474,0,0,1,18.8863,1.5275,51.51656,51.51656,0,0,1,9.3949,3.131c.5622.3244,1.121.5991,1.6313.8758a51.2445,51.2445,0,0,1,5.7933,3.8834c7.5101,5.6019,16.7044,14.4672,21.9686,22.2568A14.19375,14.19375,0,0,1,1637.539,692.8858Z"></path><path d="M1598.0142 647.9333c-16.5875 18.3394-24.5531 43.8258-27.5165 55.9524-6.1832-1.3768-11.7665-2.6804-16.0982-3.8381a139.1073 139.1073 0 0124.7284-53.6418A58.12474 58.12474 0 011598.0142 647.9333zM1614.8337 655.8235c-14.5235 17.7027-22.8704 40.1185-26.5055 51.6767-2.7111-.5307-5.4227-1.0613-8.0847-1.5941 9.6633-29.9908 21.4084-47.4742 27.1656-54.8418.5622.3244 1.121.5991 1.6313.8758A51.2445 51.2445 0 011614.8337 655.8235z" style="mix-blend-mode:soft-light" opacity=".3"></path><path fill="#995942" d="M1482.9465,897.2991c5.8894.5528,11.4491,1.2559,16.9593,1.6263a137.2346,137.2346,0,0,0,16.3219.0924,138.99923,138.99923,0,0,0,16.1969-2.0004c5.4287-1.0105,10.8693-2.3508,16.6589-3.5762a47.46993,47.46993,0,0,1-14.9818,9.2957,55.23869,55.23869,0,0,1-35.1921,2.0417A47.707,47.707,0,0,1,1482.9465,897.2991Z"></path><path fill="#333" d="M1274.183 842.0662a140.791 140.791 0 01-28.0518-36.9235c-25.844-48.2609-26.5546-108.3165-11.4127-131.3869 2.0616-1.3827 4.2755-2.7741 6.6107-4.0581 18.5936-10.4566 44.1733-17.8783 44.1733-17.8783S1264.4038 776.7252 1274.183 842.0662zM1749.4279 778.08a140.49959 140.49959 0 01-22.6344 37.5849c2.1157-66.0348-33.362-187.6404-33.362-187.6404s24.4527 4.0822 43.8761 11.7859a91.59811 91.59811 0 019.1139 4.0972C1764.3916 665.391 1770.6026 726.6174 1749.4279 778.08z"></path><path d="M1726.7935 815.6649c2.1157-66.0348-33.362-187.6404-33.362-187.6404s24.4527 4.0822 43.8761 11.7859c-8.3848 27.42-20.973 88.3659 12.1203 138.2696A140.49959 140.49959 0 011726.7935 815.6649zM1274.183 842.0662a140.791 140.791 0 01-28.0518-36.9235c25.0343-52.185 6.6019-109.141-4.802-135.445 18.5936-10.4566 44.1733-17.8783 44.1733-17.8783S1264.4038 776.7252 1274.183 842.0662z" style="mix-blend-mode:soft-light" opacity=".3"></path><path fill="#280303" d="M1600.99,861.2499s-.1778,1.2692-.7175,3.5249c-3.2985,13.9567-19.6752,64.8488-83.746,68.5862-64.0289,3.7348-86.2534-44.9057-91.152-58.3842-.7986-2.1777-1.1227-3.4176-1.1227-3.4176Z"></path><path fill="#fff" d="M1600.99,861.2499s-.1778,1.2692-.7175,3.5249c-1.5286,1.8516-3.222,3.7548-5.0459,5.5818a99.77573,99.77573,0,0,1-33.6864,22.4854c-12.6174,5.2679-28.0536,8.9801-46.7896,10.073-45.4601,2.6517-73.1551-12.4346-89.3761-27.9382-.7986-2.1777-1.1227-3.4176-1.1227-3.4176Z"></path><path fill="#e5e5e5" d="M1600.99,861.2499s-.1778,1.2692-.7175,3.5249c-1.5286,1.8516-3.222,3.7548-5.0459,5.5818-9.4673,2.4407-64.1925,16.0398-109.6045,15.9192,21.754,15.3907,56.5286,10.8445,75.9181,6.5662-12.6174,5.2679-28.0536,8.9801-46.7896,10.073-45.4601,2.6517-73.1551-12.4346-89.3761-27.9382-.7986-2.1777-1.1227-3.4176-1.1227-3.4176Z"></path><path fill="#333" d="M1665.1389,830.2785c.5986,14.1956-.9962,38.0061-150.2144,46.7102l-.2669.0156c-148.9154,8.6481-153.2655-14.7774-154.3215-28.9464-1.092-14.1283,7.5933-27.8709,7.5933-27.8709s-7.1003,23.8638,2.0014,34.3118c9.102,10.4479,41.6416-8.8173,64.5534-26.5649,15.7755-12.2049,32.9308-21.0859,50.9338-25.9234a29.47949,29.47949,0,0,0,45.5478-3.4983,124.19025,124.19025,0,0,1,16.6605,2.9682,149.96868,149.96868,0,0,1,41.5276,17.4315c24.8198,14.9633,59.3789,30.3146,67.2042,18.8793s-2.0015-34.3118-2.0015-34.3118S1664.5808,816.119,1665.1389,830.2785Z"></path><path d="M1514.6576,877.0043c-148.9154,8.6481-153.2655-14.7774-154.3215-28.9464-1.092-14.1283,7.5933-27.8709,7.5933-27.8709s-7.1003,23.8638,2.0014,34.3118c9.102,10.4479,41.6416-8.8173,64.5534-26.5649,15.7755-12.2049,32.9308-21.0859,50.9338-25.9234a29.47949,29.47949,0,0,0,45.5478-3.4983,124.19025,124.19025,0,0,1,16.6605,2.9682c-8.0727,8.5044-25.9502,22.0561-59.5631,25.547C1448.0612,831.1588,1449.7853,868.5853,1514.6576,877.0043Z" style="mix-blend-mode:soft-light" opacity=".3"></path><path fill="#fff" d="M1535.7078,782.0923a17.99059,17.99059,0,0,1-.6247,6.9987.29739.29739,0,0,0-.0313.1167s-.0315.1165-.0922.3878c-.1324.3521-.2876.9731-.5458,1.7916-.0944.3497-.2246.74-.3528,1.1682a29.2432,29.2432,0,0,1-54.5182-.1097.29836.29836,0,0,0-.0447-.1123,17.98737,17.98737,0,0,1-1.4341-6.8786c-.0526-6.806,4.2419-16.467,27.879-17.8458S1534.9687,775.3263,1535.7078,782.0923Z" opacity=".11"></path><path fill="#995942" d="M1535.7172,781.5947l.1334.5243.0023-.0345a20.176,20.176,0,0,1,.9477,7.4025l-.0963.2971a1.298,1.298,0,0,0,.1294-.6777l-.0587.5665a6.51572,6.51572,0,0,1-.1226,1.2035l-.2401,1.4307.126-.3464a27.68266,27.68266,0,0,1-9.9301,17.1586,31.09,31.09,0,0,1-19.1621,6.9697,30.49744,30.49744,0,0,1-19.3573-6.3344c-5.3493-4.2697-9.2264-10.2443-10.2357-16.7068l-.106-.678.0051.1828a1.31168,1.31168,0,0,0,.2087.662l-.1312-.2851a20.12728,20.12728,0,0,1,.0879-7.4655l.0068.0339.0724-.5363.2064.4491.0069.0362a32.04124,32.04124,0,0,0,2.9561,6.2897l-.1306-.2834a2.35231,2.35231,0,0,1,.2977.8844l-.1004-.4933a29.97809,29.97809,0,0,0,11.5267,10.9266,29.20387,29.20387,0,0,0,28.7473-.7116,29.4513,29.4513,0,0,0,10.782-11.2448l.1266-.3484.4214-.7413a4.45883,4.45883,0,0,0,.4916-.9814l-.0588.5648a2.34181,2.34181,0,0,1,.1922-.9089l-.0964.2951a31.91627,31.91627,0,0,0,2.1971-6.5931l.0023-.0362Z"></path><path fill="#e6e8e8" d="M1524.0142,1275.2564a25.29562,25.29562,0,0,1-.1508,3.6761,27.16171,27.16171,0,1,1-34.7945-28.9959,27.527,27.527,0,0,1,7.068-1.1028A27.15888,27.15888,0,0,1,1524.0142,1275.2564Z"></path><path d="M1521.6052,1284.6875a26.10316,26.10316,0,1,1-39.1909-31.4365,25.64548,25.64548,0,0,0-2.0925,10.8864,26.119,26.119,0,0,0,26.7769,25.4454A25.82089,25.82089,0,0,0,1521.6052,1284.6875Z" style="mix-blend-mode:soft-light" opacity=".6"></path><path fill="#fff" d="M1524.0142,1275.2564a25.29562,25.29562,0,0,1-.1508,3.6761,26.34311,26.34311,0,0,1-7.1024,1.1388,27.15884,27.15884,0,0,1-27.8429-26.4588,25.3648,25.3648,0,0,1,.1508-3.6759,27.527,27.527,0,0,1,7.068-1.1028A27.15888,27.15888,0,0,1,1524.0142,1275.2564Z" opacity=".22"></path><path fill="#e6e8e8" d="M1546.5952,1378.627a25.28011,25.28011,0,0,1-.1509,3.676,27.16166,27.16166,0,1,1-34.7944-28.9958,27.5227,27.5227,0,0,1,7.068-1.1028A27.15881,27.15881,0,0,1,1546.5952,1378.627Z"></path><path d="M1544.1861,1388.058a26.10316,26.10316,0,1,1-39.1909-31.4365,25.64882,25.64882,0,0,0-2.0925,10.8864,26.1191,26.1191,0,0,0,26.777,25.4455A25.82116,25.82116,0,0,0,1544.1861,1388.058Z" style="mix-blend-mode:soft-light" opacity=".6"></path><path fill="#fff" d="M1546.5952,1378.627a25.28011,25.28011,0,0,1-.1509,3.676,26.34242,26.34242,0,0,1-7.1023,1.1389,27.15907,27.15907,0,0,1-27.843-26.4589,25.36339,25.36339,0,0,1,.1509-3.6758,27.5227,27.5227,0,0,1,7.068-1.1028A27.15881,27.15881,0,0,1,1546.5952,1378.627Z" opacity=".22"></path><path fill="#b7765a" d="M1529.182,1228.4829c-3.8483,25.3304-11.291,65.3343-18.1839,56.7924-3.0445,9.8951-12.6862,4.1017-12.6862,4.1017s-2.4102,4.6939-16.492-10.4449c-14.1241-15.1813-27.3602-32.0117-36.1981-41.1036-6.7662-6.9775-20.1712-9.261-30.0243-15.3927,9.0496-22.8351,20.9747-59.6676,27.8253-108.0022a88.76262,88.76262,0,0,0,20.6786,9.2186c15.9425,4.4402,53.2399,9.6417,57.9337,20.6787C1526.7295,1155.3679,1533.0726,1203.1104,1529.182,1228.4829Z"></path><path fill="#995942" d="M1480.3764 1207.3466a177.00791 177.00791 0 016.889 19.9796c1.989 6.7322 3.6159 13.5462 5.1726 20.3751 1.441 6.8542 2.8039 13.7252 3.8052 20.6707a174.79058 174.79058 0 012.0597 21.0217 176.13529 176.13529 0 01-6.9033-20.0018c-1.9867-6.7291-3.6113-13.5326-5.1583-20.3529-1.4307-6.8454-2.7919-13.7059-3.7904-20.6482A177.843 177.843 0 011480.3764 1207.3466zM1502.7154 1181.8362a215.63348 215.63348 0 016.1323 25.4131c1.6263 8.5473 2.7793 17.1684 3.7407 25.8174a260.83979 260.83979 0 011.3709 26.1131c-.0525 8.7018-.503 17.6203-2.9704 26.0771-.1653-8.7425-1.1097-17.2464-1.973-25.833l-2.7337-25.7131C1504.604 1216.5293 1502.9076 1199.3373 1502.7154 1181.8362z"></path><path fill="#841818" d="M1206.5283,1030.1545c40.2512,7.5907,80.3582,15.6889,120.4183,23.971,10.0065,2.1161,20.0615,3.9711,30.1164,5.8286l30.1393,5.6519c20.1082,3.6247,40.2648,7.0618,60.4603,9.627l2.9892.3795-.3194,2.8903c-1.6303,14.7745-2.6818,29.6319-5.0528,44.3178q-3.56775,22.0194-8.9755,43.6888c-7.323,28.7964-16.7467,57.2391-30.9193,83.5854l-.1654.3074-.2201.2141-.0416.0411-.8018.7809-1.0287-.1631-56.2879-8.9188c-18.7357-3.1143-37.4896-6.102-56.2013-9.3909,18.8834,2.0885,37.724,4.4781,56.5828,6.7411l28.2631,3.5711,28.2255,3.6857-1.8287.6172.041-.0419-.3837.5198c6.658-13.0245,11.9686-26.7748,16.7848-40.6352,4.81-13.8807,8.9048-28.0146,12.365-42.2998q5.1894-21.4287,8.5005-43.2589c1.2015-7.2537,1.806-14.5855,2.5912-21.8928l2.4297-21.9181,2.6687,3.2689c-20.3876-2.7677-40.5636-6.3889-60.6998-10.1956-20.1282-3.8297-40.2244-7.809-60.1535-12.5349C1286.1127,1049.4048,1246.2487,1040.0335,1206.5283,1030.1545Z"></path></g></svg>