<svg xmlns="http://www.w3.org/2000/svg" viewBox="0 0 2800 1900" id="chef-holding-board-and-recipe-on-mobile-screen-as-online-order-concept"><g data-name="Layer 1"><ellipse cx="1470.467" cy="1750.005" fill="#d1bfb2" rx="664.844" ry="64.952"></ellipse><rect width="34.602" height="157.473" x="1852.281" y="649.203" fill="#444343"></rect><rect width="34.602" height="157.473" x="1852.281" y="649.203" style="mix-blend-mode:soft-light" opacity=".3"></rect><rect width="34.602" height="94.757" x="1852.281" y="830.536" fill="#444343"></rect><rect width="34.602" height="94.757" x="1852.281" y="830.536" style="mix-blend-mode:soft-light" opacity=".3"></rect><path fill="#2e5170" d="M1864.7288,572.559l8.5187,1113.7107c.158,20.6631-11.4675,38.6372-28.6758,48.5539a62.52,62.52,0,0,1-30.1867,8.0914l-712.7197,4.875c-32.6499.2233-59.4849-24.7329-59.7228-55.8341l-8.5187-1113.7108c-.1336-17.4671,8.1474-32.8619,21.0315-43.3888a61.26087,61.26087,0,0,1,37.831-13.2564l712.7196-4.875C1837.6529,516.5016,1864.4909,541.4578,1864.7288,572.559Z"></path><path fill="#a8d5dd" d="M1818.7049,1560.8835c.1995,25.5763-22.783,46.4841-51.3518,46.6838l-116.5491.7978-40.9379.2796-48.3992.3185-201.5772,1.3969h-.0399l-35.3517.2397-51.312.3585-126.5643.8786c-28.5287.1588-51.8706-20.4295-52.0301-46.0058l-7.0624-918.7477c-.1995-25.5763,22.8231-46.524,51.3518-46.6833l620.7313-4.2691c28.5688-.1997,51.8706,20.3885,52.07,46.0048Z"></path><path d="M1844.5717,1734.8236a62.52,62.52,0,0,1-30.1867,8.0914l-712.7197,4.875c-32.6499.2233-59.4849-24.7329-59.7228-55.8341l-8.5187-1113.7108c-.1336-17.4671,8.1474-32.8619,21.0315-43.3888,15.306,23.753,32.0717,49.8417,50.2908,77.8397,178.3107,274.8782,483.1129,735.0871,688.5814,1044.9341C1811.2982,1684.5636,1828.5429,1710.4358,1844.5717,1734.8236Z" style="mix-blend-mode:soft-light" opacity=".3"></path><ellipse cx="1453.336" cy="1672.438" rx="126.155" ry="50.446" style="mix-blend-mode:soft-light" opacity=".3"></ellipse><ellipse cx="1453.336" cy="1672.438" fill="#2e5170" rx="115.638" ry="46.241"></ellipse><path fill="#e6e8e8" d="M2062.8158,1093.8491c-33.636,17.3561-63.1223,31.3612-88.9779,42.6134-86.6637,37.5859-133.0679,44.17-160.32,41.9753-25.3766-2.0749-86.3446-34.7531-118.8234-53.0678,10.9726,44.928,16.7979,75.8109,16.7979,75.8109s9.4165,52.6289,17.5563,108.6888c1.6359,11.2921,3.232,22.7036,4.6683,33.8355,3.9901,30.9627,6.9427,59.8906,6.9427,78.325-24.1797,17.3961-54.105,29.486-85.5466,37.9055-45.7258,12.2492-94.6437,16.6781-133.5866,18.2742-25.3367,1.0374-46.4841.8777-59.8107.8777-12.4889,0-31.8805.1597-55.1425-.7184-2.035-.0799-4.0699-.1593-6.1446-.2392-20.2695-.8382-43.2122-2.4738-66.953-5.5862a507.57858,507.57858,0,0,1-65.2771-12.6481c-31.4016-8.3795-61.327-20.4694-85.4667-37.8655,0-2.1148.0397-4.3495.1196-6.7434.1198-3.7509.3193-7.8208.5986-12.1294.1994-2.8333.3989-5.7459.6383-8.7784.2793-3.0325.5586-6.1448.838-9.3765.2793-2.7928.5584-5.6261.8777-8.5387.1597-1.4763.3192-2.9526.4788-4.4689.3192-2.9925.6784-6.025,1.0374-9.0974.5187-4.668,1.1173-9.3765,1.7157-14.1649,8.5787-67.7908,22.8631-147.5517,22.8631-147.5517s5.9052-30.2843,16.9178-74.5338c-32.9978,18.5533-91.7311,49.7957-116.5094,51.7907-27.2521,2.1947-73.6563-4.3894-160.3199-41.9753-25.8557-11.2522-55.3419-25.2573-88.978-42.6134,3.7107-19.5518,10.2145-41.6963,17.0773-62.1253,12.4888-37.1875,26.1347-68.6685,26.1347-68.6685s29.5264,13.1673,86.9033,25.8554c23.9802,5.3066,52.8282,10.4938,86.3843,14.6432,64.7986-17.1569,203.7716-94.4441,203.7716-94.4441a129.75019,129.75019,0,0,1,17.1971,0,508.53469,508.53469,0,0,1,28.7683-55.3818h266.4553c6.2642,10.2542,12.2892,21.3067,18.0748,32.9178q5.4462,10.9524,10.6533,22.504a136.2646,136.2646,0,0,1,18.115-.04s3.6708,2.035,10.0947,5.5462c33.1173,17.9947,139.4122,74.5343,193.6769,88.8979,33.5562-4.1494,62.4041-9.3366,86.3843-14.6432,57.3769-12.6881,86.9033-25.8554,86.9033-25.8554s13.4464,31.0427,25.8954,67.9106C2052.4418,1051.5941,2059.0652,1074.0581,2062.8158,1093.8491Z"></path><path fill="#333" d="M1412.0796,1445.9705c-3.9501,9.8154-8.4189,22.4635-13.0475,36.3887-18.1147,54.2251-38.6236,127.8012-38.6236,127.8012a4.42629,4.42629,0,0,1-.5188.1997h-.0399l-35.3517.2397-51.312.3585a1448.377,1448.377,0,0,1-4.3492-173.9654S1431.3516,1398.0101,1412.0796,1445.9705Z"></path><path d="M1412.0796,1445.9705c-3.9501,9.8154-8.4189,22.4635-13.0475,36.3887-29.3667,8.4194-85.786,36.5889-74.534,128.2406l-51.312.3585a1448.377,1448.377,0,0,1-4.3492-173.9654S1431.3516,1398.0101,1412.0796,1445.9705Z" style="mix-blend-mode:soft-light" opacity=".3"></path><path fill="#333" d="M1650.804,1608.3651l-40.9379.2796-48.3992.3185c-5.1074-17.9941-21.9453-76.9276-37.0677-122.3344-4.6683-13.9651-9.1371-26.6133-13.0872-36.3892-19.272-48.0003,143.2427-9.0175,143.2427-9.0175s.3989,8.8578.6782,24.1395C1655.7516,1494.8485,1655.6318,1548.2349,1650.804,1608.3651Z"></path><path d="M1609.8661,1608.6447l-48.3992.3185c-5.1074-17.9941-21.9453-76.9276-37.0677-122.3344-4.6683-13.9651-9.1371-26.6133-13.0872-36.3892-19.272-48.0003,143.2427-9.0175,143.2427-9.0175s.3989,8.8578.6782,24.1395C1630.8139,1481.2424,1588.5192,1522.2996,1609.8661,1608.6447Z" style="mix-blend-mode:soft-light" opacity=".3"></path><path fill="#b7765a" d="M1369.0643,919.1068s23.4199,66.6164,88.9954,99.9246,127.5079-118.6605,127.5079-118.6605Z"></path><path fill="#b23030" d="M1189.0387,1348.7288c-3.6708,29.0474-6.3044,55.8606-6.3044,73.2971,40.6986,29.2868,97.7561,43.571,150.744,50.5136.4479-15.5243,1.4313-44.4112,3.3968-82.5199C1271.4982,1378.8714,1219.9847,1361.2018,1189.0387,1348.7288Z"></path><path d="M1189.0387,1348.7288c-3.6708,29.0474-6.3044,55.8606-6.3044,73.2971,40.6986,29.2868,97.7561,43.571,150.744,50.5136.4479-15.5243,1.4313-44.4112,3.3968-82.5199C1271.4982,1378.8714,1219.9847,1361.2018,1189.0387,1348.7288Z" style="mix-blend-mode:soft-light" opacity=".3"></path><path fill="#b23030" d="M1733.7197,1343.7013c-118.2662,51.5749-231.4574,61.7921-325.7909,54.951q4.3083-146.8536,22.0288-318.7328s130.4745-71.5417,169.0981-178.9137c-4.7082-2.9127-9.0974-5.6259-13.1272-7.9801l-24.8182,17.237s-27.5711,85.8659-192.0408,136.8585c-18.7284,129.6716-27.8553,258.7694-32.1944,342.8984-1.9655,38.1087-2.9489,66.9956-3.3968,82.5199,26.1747,3.4319,51.3519,5.0674,73.0977,5.8258,23.262.8777,42.6536.7184,55.1424.7184,47.8806,0,196.7092,2.1144,278.9439-57.0578C1740.6623,1403.5919,1737.7098,1374.6641,1733.7197,1343.7013Z"></path><circle cx="2132.108" cy="721.359" r="36.49" fill="#97a0a0" transform="rotate(-37.969 2132.108 721.359)"></circle><path d="M2168.1003,727.2097a36.48234,36.48234,0,1,1-44.1376-41.3975c-.0338.8921-.0681,1.7417-.0595,2.6332.21,21.6539,19.062,39.0506,42.1171,38.827C2166.6995,727.2658,2167.3787,727.2592,2168.1003,727.2097Z" style="mix-blend-mode:soft-light" opacity=".3"></path><path fill="#97a0a0" d="M1925.9509,921.7809c-.9965-102.7638,89.0167-186.9511,201.0501-188.0375s203.6622,81.3396,204.6587,184.1034Z"></path><path d="M2331.6454,917.8508l-405.6896,3.9339a170.49172,170.49172,0,0,1,1.1508-21.4546c7.9891-69.4183,57.657-127.6914,125.8182-153.023a87.88536,87.88536,0,0,0-.4177,9.4734c.6616,68.2303,80.7224,122.7401,178.8436,121.7886,32.8627-.3187,63.6274-6.8166,89.931-17.942a173.87536,173.87536,0,0,1,10.3637,57.2237Z" style="mix-blend-mode:soft-light" opacity=".3"></path><path d="M2331.6454,917.8508l-405.6896,3.9339a170.49172,170.49172,0,0,1,1.1508-21.4546l402.9724-3.9076A170.5281,170.5281,0,0,1,2331.6454,917.8508Z" style="mix-blend-mode:soft-light" opacity=".3"></path><path fill="#97a0a0" d="M2339.8888,949.706l-411.0947,3.9863a19.2983,19.2983,0,0,1-19.4845-19.1102l-.0337-3.4815a19.2983,19.2983,0,0,1,19.1102-19.4845l411.0947-3.9863a19.29817,19.29817,0,0,1,19.4845,19.1102l.0338,3.4815A19.29838,19.29838,0,0,1,2339.8888,949.706Z"></path><path d="M2357.9427,936.7038a19.28449,19.28449,0,0,1-18.0477,12.9988l-411.0819,3.9862a19.29906,19.29906,0,0,1-19.5057-19.0887l-.0338-3.4816a19.33547,19.33547,0,0,1,19.1315-19.5059l411.0819-3.9862a19.09766,19.09766,0,0,1,13.8557,5.7255l-298.9494,2.8989S2197.5653,954.5221,2357.9427,936.7038Z" style="mix-blend-mode:soft-light" opacity=".3"></path><path fill="#97a0a0" d="M2069.4369 920.4093l-6.4563.0475-47.0459.4752c.3802-3.0389 1.0443-6.4568 1.804-10.1599.7122-3.5604 1.4239-7.4054 1.9941-11.3455a69.57627 69.57627 0 00.6641-16.9482c-1.9935-19.5588-15.4762-32.0918 9.0206-28.1036 22.122 3.608 39.3547 20.9827 35.6522 44.6241a43.83215 43.83215 0 01-1.8996 7.6437c.6178 1.2343 1.1869 2.4687 1.8046 3.6555.9017 1.9935 1.8034 3.9395 2.6107 5.7916.5696 1.2818 1.0918 2.5162 1.6139 3.703A5.28045 5.28045 0 012069.4369 920.4093zM2329.0368 889.7524c.3552 2.012.6531 4.0304.9313 6.0604Q2329.5508 892.76 2329.0368 889.7524zM2327.6895 882.716q.7362 3.4944 1.3473 7.0364C2328.6201 887.3961 2328.2041 885.0381 2327.6895 882.716z"></path><path d="M2069.4369,920.4093l-6.4563.0475-47.0459.4752c.3802-3.0389,1.0443-6.4568,1.804-10.1599.7122-3.5604,1.4239-7.4054,1.9941-11.3455a69.57627,69.57627,0,0,0,.6641-16.9482c-1.9935-19.5588-15.4762-32.0918,9.0206-28.1036,22.122,3.608,39.3547,20.9827,35.6522,44.6241a43.83215,43.83215,0,0,1-1.8996,7.6437c.6178,1.2343,1.1869,2.4687,1.8046,3.6555.9017,1.9935,1.8034,3.9395,2.6107,5.7916.5696,1.2818,1.0918,2.5162,1.6139,3.703A5.28045,5.28045,0,0,1,2069.4369,920.4093Z" style="mix-blend-mode:soft-light" opacity=".3"></path><path d="M2069.4369,920.4093l-6.4563.0475-47.0459.4752c.3802-3.0389,1.0443-6.4568,1.804-10.1599.7122-3.5604,1.4239-7.4054,1.9941-11.3455l45.3369-.4277a43.83215,43.83215,0,0,1-1.8996,7.6437c.6178,1.2343,1.1869,2.4687,1.8046,3.6555.9017,1.9935,1.8034,3.9395,2.6107,5.7916.5696,1.2818,1.0918,2.5162,1.6139,3.703A5.28045,5.28045,0,0,1,2069.4369,920.4093Z" style="mix-blend-mode:soft-light" opacity=".3"></path><path fill="#97a0a0" d="M2108.1269,943.9557c-7.1209,1.7571-16.947,5.9341-25.3498,8.2603l-15.0022.1425-43.5324.3802c-2.3736-7.3586-5.744-17.4228-7.8801-22.3121-.9973-2.3261-.9498-5.5545-.4277-9.4946.3802-3.0389,1.0443-6.4568,1.804-10.1599l45.3364-.474h1.8996c.9017,1.9935,1.8034,3.9395,2.6107,5.7916.5696,1.2818,1.0918,2.5162,1.6139,3.703a5.28045,5.28045,0,0,1,.2376.6166c5.9816,14.1944,8.8774,23.9741,14.0993,26.7748C2085.5772,948.3234,2094.9774,946.7095,2108.1269,943.9557Z"></path><path d="M2108.1269,943.9557c-7.1209,1.7571-16.947,5.9341-25.3498,8.2603l-15.0022.1425-43.5324.3802c-2.3736-7.3586-5.744-17.4228-7.8801-22.3121-.9973-2.3261-.9498-5.5545-.4277-9.4946.3802-3.0389,1.0443-6.4568,1.804-10.1599l45.3364-.474h1.8996c.9017,1.9935,1.8034,3.9395,2.6107,5.7916l-4.6048.0475-8.5923.095s2.9903.8067,8.5923,2.1361c1.804.3796,3.8926.9017,6.2187,1.4244a5.28045,5.28045,0,0,1,.2376.6166c5.9816,14.1944,8.8774,23.9741,14.0993,26.7748C2085.5772,948.3234,2094.9774,946.7095,2108.1269,943.9557Z" style="mix-blend-mode:soft-light" opacity=".3"></path><path fill="#b7765a" d="M2268.9185,950.365c-41.3963,19.0367-142.0869,54.3088-168.5767,70.3547-31.3801,19.0843-53.7872,35.7949-53.7872,35.7949l-23.784-80.8942,4.2732-14.0993s-1.1393-3.75-2.8013-8.7824c-2.3736-7.3586-5.744-17.4228-7.8801-22.3121-.9973-2.3261-.9498-5.5545-.4277-9.4946.3802-3.0389,1.0443-6.4568,1.804-10.1599.7122-3.5604,1.4239-7.4054,1.9941-11.3455a69.57627,69.57627,0,0,0,.6641-16.9482c-1.9935-19.5588-15.4762-32.0918,9.0206-28.1036,22.122,3.608,39.3547,20.9827,35.6522,44.6241a43.83215,43.83215,0,0,1-1.8996,7.6437c.6178,1.2343,1.1869,2.4687,1.8046,3.6555.9017,1.9935,1.8034,3.9395,2.6107,5.7916.5696,1.2818,1.0918,2.5162,1.6139,3.703a5.28045,5.28045,0,0,1,.2376.6166c5.9816,14.1944,8.8774,23.9741,14.0993,26.7748,2.041,1.1393,12.9296,5.5182,27.3661,4.8506-7.1209,1.7571-19.2348-.4589-28.1252.1813l149.3023-1.4714Z"></path><path d="M2232.0794 950.7446l36.8391-.3796c-41.3963 19.0367-142.0869 54.3088-168.5767 70.3547-31.3801 19.0843-53.7872 35.7949-53.7872 35.7949l-23.784-80.8942 4.2732-14.0993s45.4314 45.2419 84.2646 27.2494C2135.3294 977.662 2188.831 961.8056 2232.0794 950.7446zM2110.1791 951.6453c-7.9137 1.7246-18.5534.4729-27.402.5707-6.6581.0735-12.0108 2.4687-15.0022.1425a5.01407 5.01407 0 01-1.6609-2.136c-2.5162-5.7441-3.0864-19.2743-3.1334-29.7657v-4.3196c0-2.2786.047-4.2733.0945-5.8391.0475-2.2792.095-3.6555.095-3.6555.6178 1.2343 1.1869 2.4687 1.8046 3.6555.9017 1.9935 1.8034 3.9395 2.6107 5.7916.5696 1.2818 1.0918 2.5162 1.6139 3.703a5.28045 5.28045 0 01.2376.6166c5.9816 14.1944 8.8774 23.9741 14.0993 26.7748C2085.5772 948.3234 2097.0296 954.3991 2110.1791 951.6453z" style="mix-blend-mode:soft-light" opacity=".3"></path><path fill="#b23030" d="M993.1249 988.9107c-11.8106 23.2223-37.3071 80.3596-41.1373 147.5518-25.8557-11.2522-55.3419-25.2573-88.978-42.6134 1.5959-8.3795 3.6708-17.2373 6.1047-26.2149l-19.1071-38.8686L903.309 969.958v-.0399c1.8355-4.389 2.9126-6.8628 2.9126-6.8628S935.748 976.2226 993.1249 988.9107zM1932.7151 988.9107c11.8106 23.2223 37.307 80.3596 41.1373 147.5518 25.8557-11.2522 55.3419-25.2573 88.978-42.6134-10.414-55.1427-43.212-130.7938-43.212-130.7938S1990.0919 976.2226 1932.7151 988.9107z"></path><path d="M1416.9074,1227.6349a394.19673,394.19673,0,0,1-62.0052-66.9526c-28.2545-39.0276-48.5237-83.7471-56.7715-133.6616,221.0788,12.3267,322.9426-76.7684,354.5086-112.3647-6.4239-3.5112-10.0947-5.5462-10.0947-5.5462a136.2646,136.2646,0,0,0-18.115.04q-5.20695-11.5515-10.6533-22.504l-120.26-32.9178H1329.2462a508.53469,508.53469,0,0,0-28.7683,55.3818,129.75019,129.75019,0,0,0-17.1971,0s-138.973,77.2872-203.7716,94.4441c-33.5561-4.1494-62.4041-9.3366-86.3843-14.6432-57.3769-12.6881-86.9033-25.8554-86.9033-25.8554s-13.6459,31.481-26.1347,68.6685c48.3593,19.4714,130.9533,49.7957,184.8588,53.3069,80.1599,5.1873,52.0301-10.4139,192.6792-61.247l.0046.0004a1823.47789,1823.47789,0,0,0-45.7304,177.3968s-14.2844,79.7609-22.8631,147.5517c-.5984,4.7884-1.197,9.4969-1.7157,14.1649-.359,3.0724-.7182,6.1049-1.0374,9.0974-.1596,1.5163-.3191,2.9926-.4788,4.4689-.3193,2.9126-.5984,5.7459-.8777,8.5387-.2794,3.2317-.5587,6.344-.838,9.3765-.2394,3.0325-.4389,5.9451-.6383,8.7784-.2793,4.3086-.4788,8.3785-.5986,12.1294,28.9278,8.7385,57.9355,15.8803,86.7036,21.5463q32.67855,6.34455,64.7586,10.1749c25.5361,3.0719,50.6733,4.9076,75.1723,5.6256a713.26553,713.26553,0,0,0,101.2274-4.03c32.1997-3.6705,62.3245-9.6157,89.6165-17.7555,62.0451-18.4739,109.4069-48.0803,133.3871-87.1429C1638.5945,1349.6103,1510.3544,1308.1941,1416.9074,1227.6349Z" style="mix-blend-mode:soft-light" opacity=".6"></path><path fill="#b23030" d="M1771.021,428.9931s-20.8543,57.6794-48.5644,120.6446c-11.7208,26.494-24.618,53.973-37.7354,78.4536-59.1702,42.5751-376.3852,25.7018-460.0185,20.4491-12.8596-.7886-20.2174-1.3448-20.2174-1.3448l-21.7947-53.8248-27.886-82.1622s92.2863,35.9597,124.9091-74.3644c120.4562,62.4685,206.9745,12.2458,236.8981-81.4683,68.1607,104.9673,165.1385,104.4006,212.8953,60.7791C1749.9655,441.0848,1771.021,428.9931,1771.021,428.9931Z"></path><path fill="#e6e8e8" d="M1872.0361,450.4337c-5.0872,39.607-42.8602,68.0602-87.6653,68.5817,4.2759,4.7499,6.4784,9.9198,5.8207,15.0406-1.9732,15.3628-28.2705,24.5717-58.7278,20.5847a100.3397,100.3397,0,0,1-10.416-1.8924c.4955-1.0336.9522-2.072,1.4089-3.1106,27.7101-62.9652,48.5644-120.6446,48.5644-120.6446l-.0448.0346c-1.1302.625-21.6033,11.3288-41.4691-12.8727-47.7568,43.6215-144.7346,44.1882-212.8953-60.7791-29.9236,93.7141-116.4419,143.9368-236.8981,81.4683-32.6228,110.3241-124.9091,74.3644-124.9091,74.3644l27.886,82.1622,10.0842,24.9142a86.34014,86.34014,0,0,1-55.9215,11.311c-30.3385-3.9715-54.8372-22.596-66.131-46.8959-42.4152-11.1662-71.2973-48.7923-66.133-88.9996,2.6207-20.4035,13.5426-37.8492,29.3338-50.1418a134.341,134.341,0,0,1-9.3546-68.6309c8.5249-66.3717,65.5404-116.063,136.6287-125.9986a141.26561,141.26561,0,0,1,1.0333-23.1336c10.4107-81.0543,88.935-137.5711,175.4223-126.2494,42.0924,5.5101,78.2883,26.1135,103.1451,55.1582,26.8801-47.6969,85.8673-76.5869,149.7195-68.2283,78.2676,10.2457,135.2973,72.6694,131.2214,141.4947a153.69333,153.69333,0,0,1,43.3627-15.0704c66.7944-12.6535,128.8409,19.5102,138.604,71.7601,7.2378,38.9014-16.5166,77.9766-56.6537,100.629C1865.2246,402.557,1875.1655,426.0695,1872.0361,450.4337Z"></path><ellipse cx="1308.322" cy="194.39" fill="#fff" opacity=".5" rx="116.948" ry="68.406" transform="rotate(-6.317 1308.321 194.39)"></ellipse><ellipse cx="1580.372" cy="188.177" fill="#fff" opacity=".5" rx="74.272" ry="116.99" transform="rotate(-78.488 1580.372 188.177)"></ellipse><ellipse cx="1790.737" cy="305.308" fill="#fff" opacity=".5" rx="91.893" ry="58.341" transform="rotate(-15.179 1790.707 305.305)"></ellipse><path d="M1771.021,428.9931l-.0448.0346c-1.1302.625-21.6033,11.3288-41.4691-12.8727-47.7568,43.6215-144.7346,44.1882-212.8953-60.7791-29.9236,93.7141-116.4419,143.9368-236.8981,81.4683-32.6228,110.3241-124.9091,74.3644-124.9091,74.3644l27.886,82.1622,10.0842,24.9142a86.34014,86.34014,0,0,1-55.9215,11.311c-30.3385-3.9715-54.8372-22.596-66.131-46.8959-42.4152-11.1662-71.2973-48.7923-66.133-88.9996,2.6207-20.4035,13.5426-37.8492,29.3338-50.1418a134.341,134.341,0,0,1-9.3546-68.6309c8.5249-66.3717,65.5404-116.063,136.6287-125.9986,0,0-44.6571,154.3508,114.697,149.7456,62.4501,55.1193,168.7308,57.8858,243.2181-66.8505,37.1089,92.4005,159.9287,120.4381,214.7987,59.1569C1743.7087,428.184,1771.021,428.9931,1771.021,428.9931Z" style="mix-blend-mode:soft-light" opacity=".6"></path><path d="M1722.4566,549.6377c-79.2658,57.8843-330.6031,86.4092-497.7539,98.9027-12.8596-.7886-20.2174-1.3448-20.2174-1.3448l-21.7947-53.8248-27.886-82.1622s92.2863,35.9597,124.9091-74.3644c120.4562,62.4685,206.9745,12.2458,236.8981-81.4683,0,0,2.8797,145.7662-163.1762,134.6459C1370.2376,531.4773,1576.7352,499.9708,1722.4566,549.6377Z" style="mix-blend-mode:soft-light" opacity=".6"></path><path fill="#e6e8e8" d="M1722.4566,549.6377c-11.7208,26.494-24.618,53.973-37.7354,78.4536-68.2918,49.151-480.2359,19.1043-480.2359,19.1043l-21.7947-53.8248C1215.1591,571.9522,1405.5974,496.0367,1722.4566,549.6377Z"></path><path d="M1684.7212,628.0913c-68.2918,49.151-480.2359,19.1043-480.2359,19.1043l-21.7947-53.8248c32.4685-21.4186,222.9068-97.3341,539.766-43.7331,0,0-122.3045-13.8137-244.3013-1.1043C1356.1637,561.2024,1605.3316,586.6602,1684.7212,628.0913Z" style="mix-blend-mode:soft-light" opacity=".6"></path><path fill="#b7765a" d="M1228.5251,839.1533c-.0354-.0153-.0354-.0153-.0865.0049-1.1169.5299-2.3357,1.1004-3.6102,1.6043-68.7807,28.6698-82.5136-62.4942-58.8728-86.0494,5.769-5.612,11.4412-8.5622,16.7135-9.6153,17.0105-3.572,30.6212,10.6482,30.6212,10.6482a152.77867,152.77867,0,0,1,16.5134,13.9566l.0911.0818c11.4444,11.1267,24.2989,27.385,22.6444,42.8069-.0154.0356.0049.0864-.0105.122C1251.4216,822.2886,1244.6912,831.5822,1228.5251,839.1533Z"></path><path d="M1228.5251,839.1533c-.0354-.0153-.0354-.0153-.0865.0049-36.949,12.6347-58.2086-30.248-55.7232-51.0978,2.4652-20.9008,21.296-11.2209,21.296-11.2209a73.82337,73.82337,0,0,0-11.3423-31.7417c17.0105-3.572,30.6212,10.6482,30.6212,10.6482a152.77867,152.77867,0,0,1,16.5134,13.9566l.0911.0818c15.7037,19.1404,21.9563,32.7918,22.6444,42.8069-.0154.0356.0049.0864-.0105.122C1251.4216,822.2886,1244.6912,831.5822,1228.5251,839.1533Z" style="mix-blend-mode:soft-light" opacity=".3"></path><path fill="#995942" d="M1222.9887,824.1508c-7.6941-11.1642-13.7418-22.4628-21.1977-32.25-3.7476-4.7676-7.6691-9.3202-12.4663-12.0416-4.7224-2.8077-10.6808-3.0754-17.366-1.1653a18.66441,18.66441,0,0,1,20.1413-5.6606c7.4402,2.3649,12.9444,7.657,17.2014,13.1489a68.96632,68.96632,0,0,1,9.6227,18.1344A63.57309,63.57309,0,0,1,1222.9887,824.1508Z"></path><path fill="#b7765a" d="M1675.5829,823.783c.0343-.0177.0343-.0177.0866-.0011,1.1507.452,2.4057.9374,3.7119,1.3526,70.5873,23.8781,78.0265-68.0137,52.8238-89.8897-6.1408-5.2025-12.0022-7.7561-17.3344-8.4446-17.2157-2.3953-29.8176,12.726-29.8176,12.726a152.77909,152.77909,0,0,0-15.5158,15.0579l-.0853.0879c-10.6532,11.8863-22.3607,28.9892-19.651,44.261.0179.0344.0012.0865.019.121C1651.5822,808.5307,1658.9349,817.3401,1675.5829,823.783Z"></path><path d="M1675.5829,823.783c.0343-.0177.0343-.0177.0866-.0011,37.7295,10.0672,55.9937-34.1744,52.0822-54.8042-3.8949-20.6822-22.0164-9.7319-22.0164-9.7319a73.82232,73.82232,0,0,1,9.1355-32.4456c-17.2157-2.3953-29.8176,12.726-29.8176,12.726a152.77909,152.77909,0,0,0-15.5158,15.0579l-.0853.0879c-14.352,20.1737-19.6522,34.2222-19.651,44.261.0179.0344.0012.0865.019.121C1651.5822,808.5307,1658.9349,817.3401,1675.5829,823.783Z" style="mix-blend-mode:soft-light" opacity=".3"></path><path fill="#995942" d="M1680.0761,808.4352a63.56337,63.56337,0,0,1,2.6924-20.0659,68.949,68.949,0,0,1,8.3547-18.7522c3.8699-5.7719,8.9968-11.429,16.2574-14.2993a18.66205,18.66205,0,0,1,20.4826,4.2634c-6.8005-1.4458-12.7265-.7701-17.2449,2.3557-4.5989,3.0442-8.1982,7.8552-11.6098,12.8685C1692.2422,785.0817,1686.985,796.7692,1680.0761,808.4352Z"></path><path fill="#b7765a" d="M1689.0425,620.6132l-.8454,6.1069-1.3423,9.6543-14.6315,105.8284-5.7426,41.5049a63.02839,63.02839,0,0,0-.5474,7.3706,58.98556,58.98556,0,0,0,3.1269,20.0187c8.0236,23.7808,17.7088,78.9492-46.7132,115.8842a.13414.13414,0,0,0-.1079.0402c-4.3548,2.479-9.0757,4.8977-14.1276,7.2186-32.9634,15.1088-81.3228,25.9429-151.5538,28.3576-117.2333,4.0306-175.3315-19.6302-202.9155-49.1801-29.0177-31.0296-24.4136-68.6012-19.454-87.3691a60.508,60.508,0,0,0,.6923-27.5018L1201.134,637.388s101.6004-49.059,242.3895-53.8994S1689.0425,620.6132,1689.0425,620.6132Z"></path><path fill="#fff" d="M1669.0602 811.097c8.0236 23.7808 17.7088 78.9492-46.7132 115.8842a.13414.13414 0 00-.1079.0402c-4.3548 2.479-9.0757 4.8977-14.1276 7.2186-12.3998-10.2737-20.5221-24.2245-21.1708-43.0909-2.0347-59.18 46.4093-87.6684 78.9926-100.0708A58.98556 58.98556 0 001669.0602 811.097zM1686.8548 636.3744l-14.6315 105.8284c-61.8023 13.6253-115.9222-31.9357-107.6367-80.9892C1573.6573 607.4749 1663.4767 629.6445 1686.8548 636.3744z" opacity=".11"></path><path d="M1689.0425,620.6132l-.8454,6.1069c-58.9168-11.4766-348.6967-61.4553-393.2976,54.4656-49.6777,129.1612,41.9828,311.8031,327.3396,245.8357-99.145,37.9105-264.3982,52.072-368.5969-13.6039-29.0177-31.0296-24.4136-68.6012-19.454-87.3691a60.508,60.508,0,0,0,.6923-27.5018L1201.134,637.388s101.6004-49.059,242.3895-53.8994S1689.0425,620.6132,1689.0425,620.6132Z" style="mix-blend-mode:soft-light" opacity=".3"></path><ellipse cx="1358.805" cy="730.881" rx="29.611" ry="44.326" transform="rotate(-4.084 1358.807 730.882)" style="mix-blend-mode:soft-light" opacity=".3"></ellipse><ellipse cx="1361.012" cy="744.951" fill="#333" rx="18.651" ry="23.253" transform="rotate(-1.094 1361.01 744.95)"></ellipse><ellipse cx="1364.186" cy="737.501" fill="#fff" rx="7.339" ry="8.841" transform="rotate(-1.094 1364.182 737.499)"></ellipse><circle cx="1354.945" cy="750.76" r="4.239" fill="#fff" transform="rotate(-46.094 1354.945 750.76)"></circle><ellipse cx="1537.478" cy="720.537" rx="26.724" ry="40.004" transform="rotate(-4.224 1537.479 720.537)" style="mix-blend-mode:soft-light" opacity=".3"></ellipse><path fill="#333" d="M1556.3287,732.8671c.2496,11.5873-7.0824,21.143-16.3764,21.3432s-17.0307-9.0309-17.2803-20.6183,7.0824-21.1431,16.3765-21.3433S1556.0791,721.2797,1556.3287,732.8671Z"></path><path fill="#fff" d="M1548.9701 726.3567c.0949 4.4056-2.7928 8.0409-6.4498 8.1197s-6.6986-3.4289-6.7935-7.8345 2.7928-8.0409 6.4498-8.1197S1548.8752 721.9511 1548.9701 726.3567zM1537.8626 738.4031a3.82549 3.82549 0 11-3.907-3.7422A3.82551 3.82551 0 011537.8626 738.4031z"></path><path fill="#333" d="M1395.1033,670.9159c-6.0074,1.6052-14.3569,4.669-23.1953,8.1246-5.0441,2.0455-10.2387,4.1701-15.2424,6.3292-3.7536,1.5623-7.3542,3.1215-10.6903,4.561-7.3911,3.1985-13.4906,5.9902-16.863,7.5069-1.7808.7984-2.7654,1.2758-2.7654,1.2758-11.5506-4.48-19.6063-22.0589-19.6063-22.0589,1.3602-2.8157,2.7991-5.5184,4.2402-8.1067a121.69485,121.69485,0,0,1,11.9286-17.7692,90.694,90.694,0,0,1,10.8257-11.4426,70.44481,70.44481,0,0,1,12.1003-8.7534,48.487,48.487,0,0,1,22.7596-6.9316C1388.5322,623.0027,1401.739,652.1775,1395.1033,670.9159Z"></path><path d="M1345.9753 689.9307c-7.3911 3.1985-13.4906 5.9902-16.863 7.5069a114.03492 114.03492 0 01-18.1315-28.8898 121.69485 121.69485 0 0111.9286-17.7692C1325.8864 660.5817 1332.5856 677.1928 1345.9753 689.9307zM1371.908 679.0405c-5.0441 2.0455-10.2387 4.1701-15.2424 6.3292-7.6289-9.2555-18.6007-25.4411-22.9305-46.0337a70.44481 70.44481 0 0112.1003-8.7534C1348.3087 642.0004 1355.0226 663.3884 1371.908 679.0405z" style="mix-blend-mode:soft-light" opacity=".3"></path><path fill="#333" d="M1584.2529,664.7708c-3.2577,5.6067-8.1284,13.5658-11.0566,16.5597-2.3242,2.3663-18.9577-.1591-36.1331-3.7643-2.5693-.567-5.1392-1.1339-7.6617-1.7018-3.1878-.6972-6.2829-1.4436-9.2337-2.1455-5.8562-1.4518-11.1428-2.82-15.2409-4.021-3.4303-.9772-6.0531-1.8274-7.4856-2.4161-9.2677-3.8982,7.6907-31.5169,16.8735-41.9751,3.4785-3.9521,9.1309-5.7185,15.3786-6.1222a55.36121,55.36121,0,0,1,17.9483,1.8843,49.058,49.058,0,0,1,8.8743,3.1951c.5279.3216,1.0537.5959,1.5333.871a48.81543,48.81543,0,0,1,5.4279,3.8295c7.0234,5.5049,15.5761,14.1554,20.4113,21.6923A13.51857,13.51857,0,0,1,1584.2529,664.7708Z"></path><path d="M1547.6417 621.0688c-16.2116 17.0847-24.3763 41.1708-27.4739 52.6501-5.8562-1.4518-11.1428-2.82-15.2409-4.021a132.49366 132.49366 0 0124.7665-50.5134A55.36121 55.36121 0 011547.6417 621.0688zM1563.4772 628.9644c-14.2319 16.5254-22.6897 37.6792-26.414 48.6018-2.5693-.567-5.1392-1.1339-7.6617-1.7018 9.8837-28.3365 21.4649-44.7164 27.1145-51.6005.5279.3216 1.0537.5959 1.5333.871A48.81543 48.81543 0 011563.4772 628.9644z" style="mix-blend-mode:soft-light" opacity=".3"></path><path fill="#995942" d="M1432.4018,855.889c5.5951.6607,10.8733,1.4563,16.112,1.9344a130.64594,130.64594,0,0,0,15.5388.4596,132.38886,132.38886,0,0,0,15.4675-1.5363c5.1924-.8385,10.4033-1.9906,15.9439-3.0262-8.4561,7.409-19.75,11.3873-31.1616,11.8306C1452.8867,865.8791,1441.3534,862.6831,1432.4018,855.889Z"></path><path fill="#333" d="M1234.8805 798.5466a134.09264 134.09264 0 01-25.8698-35.7959c-23.5096-46.5409-22.8195-103.7402-7.8767-125.3627 1.9944-1.2696 4.1342-2.5441 6.3869-3.7135 17.9422-9.5333 42.4674-16.0178 42.4674-16.0178S1227.056 736.1082 1234.8805 798.5466zM1688.8515 748.4368a133.81874 133.81874 0 01-22.4072 35.2722c3.5174-62.8284-27.4959-179.4252-27.4959-179.4252s23.1903 4.4435 41.5093 12.2207a87.21228 87.21228 0 018.5848 4.1087C1705.6642 641.4781 1710.1846 699.9175 1688.8515 748.4368z"></path><path d="M1666.4443 783.709c3.5174-62.8284-27.4959-179.4252-27.4959-179.4252s23.1903 4.4435 41.5093 12.2207c-8.6077 25.9178-21.981 83.6623 8.3938 131.9323A133.81874 133.81874 0 011666.4443 783.709zM1234.8805 798.5466a134.09264 134.09264 0 01-25.8698-35.7959c25.0246-49.1194 8.77-103.7707-1.4898-129.0762 17.9422-9.5333 42.4674-16.0178 42.4674-16.0178S1227.056 736.1082 1234.8805 798.5466z" style="mix-blend-mode:soft-light" opacity=".3"></path><path fill="#280303" d="M1545.6203,824.2505s-.1982,1.2045-.7634,3.34c-3.4584,13.2141-20.2101,61.2995-81.3015,63.3999-61.0515,2.099-81.1061-44.7209-85.4637-57.6663-.7108-2.0917-.9912-3.2797-.9912-3.2797Z"></path><path fill="#fff" d="M1545.6203,824.2505s-.1982,1.2045-.7634,3.34c-1.4977,1.7283-3.1534,3.5019-4.9316,5.2a95.03063,95.03063,0,0,1-32.587,20.6433c-12.1339,4.7288-26.9163,7.9121-44.781,8.5263-43.3462,1.4903-69.3732-13.5048-84.4656-28.636-.7108-2.0917-.9912-3.2797-.9912-3.2797Z"></path><path fill="#e5e5e5" d="M1545.6203,824.2505s-.1982,1.2045-.7634,3.34c-1.4977,1.7283-3.1534,3.5019-4.9316,5.2-9.0701,2.1085-61.4873,13.8118-104.7246,12.6634,20.3632,15.1496,53.578,11.6123,72.1376,7.9799-12.1339,4.7288-26.9163,7.9121-44.781,8.5263-43.3462,1.4903-69.3732-13.5048-84.4656-28.636-.7108-2.0917-.9912-3.2797-.9912-3.2797Z"></path><path fill="#333" d="M1607.4059,796.2204c.2469,13.5303-1.8135,36.1657-144.093,41.0574l-.2545.0088c-141.9899,4.8453-145.5988-17.5587-146.2818-31.0741-.7182-13.4774,7.8645-26.3651,7.8645-26.3651s-7.3038,22.5609,1.1248,32.7163c8.4288,10.1554,39.8506-7.4479,62.0705-23.8252,15.2987-11.2621,31.8356-19.3279,49.0877-23.5243a28.07751,28.07751,0,0,0,43.4489-2.2944,118.29015,118.29015,0,0,1,15.7962,3.2054,142.83759,142.83759,0,0,1,39.1446,17.5429c23.2922,14.8125,55.8491,30.2161,63.5603,19.5059s-1.1249-32.7163-1.1249-32.7163S1607.1968,782.7254,1607.4059,796.2204Z"></path><path d="M1463.0584,837.2866c-141.9899,4.8453-145.5988-17.5587-146.2818-31.0741-.7182-13.4774,7.8645-26.3651,7.8645-26.3651s-7.3038,22.5609,1.1248,32.7163c8.4288,10.1554,39.8506-7.4479,62.0705-23.8252,15.2987-11.2621,31.8356-19.3279,49.0877-23.5243a28.07751,28.07751,0,0,0,43.4489-2.2944,118.29015,118.29015,0,0,1,15.7962,3.2054c-7.8802,7.9139-25.2111,20.4106-57.2958,22.9696C1400.6906,792.1182,1401.4804,827.7939,1463.0584,837.2866Z" style="mix-blend-mode:soft-light" opacity=".3"></path><path fill="#fff" d="M1485.2619,747.3932a17.13238,17.13238,0,0,1-.7541,6.6497.2819.2819,0,0,0-.0324.1104s-.0326.1102-.0967.3672c-.134.3323-.296.92-.5604,1.6935-.0979.3308-.2307.6994-.3625,1.1042a27.85255,27.85255,0,0,1-51.9083-1.3452.28238.28238,0,0,0-.0399-.1079,17.13277,17.13277,0,0,1-1.209-6.5822c.1048-6.4817,4.4138-15.5829,26.9517-16.3578S1484.7122,740.934,1485.2619,747.3932Z" opacity=".11"></path><path fill="#995942" d="M1485.2822,746.9196l.1037.4996.0029-.0296a18.94289,18.94289,0,0,1,.7458,7.0694l-.0991.2805a1.23771,1.23771,0,0,0,.1391-.6421l-.069.5383a6.20007,6.20007,0,0,1-.1443,1.1428l-.2607,1.3572.1274-.3274a26.1629,26.1629,0,0,1-9.8591,16.0923,29.66663,29.66663,0,0,1-36.6762-.2539,25.98775,25.98775,0,0,1-9.3677-16.1386l-.0857-.6479.0011.1745a1.24632,1.24632,0,0,0,.1831.6345l-.1182-.2747a18.86837,18.86837,0,0,1,.266-7.1064l.0046.0295.0702-.5059.175.4358.0052.0319a31.38448,31.38448,0,0,0,2.6831,6.0552l-.1176-.2723a2.23322,2.23322,0,0,1,.263.8484l-.084-.4718a28.59341,28.59341,0,0,0,10.7249,10.6687,27.20231,27.20231,0,0,0,13.7093,3.5906,27.824,27.824,0,0,0,13.6949-3.5964,28.45031,28.45031,0,0,0,10.5081-10.4815l.1287-.3286.4184-.6965a4.23539,4.23539,0,0,0,.4897-.9232l-.0684.5361a2.23473,2.23473,0,0,1,.2034-.8606l-.0979.2787a31.23878,31.23878,0,0,0,2.2531-6.2279l.0034-.0319Z"></path><path d="M2062.8158,1093.8491c-33.636,17.3561-63.1223,31.3612-88.9779,42.6134-86.6637,37.5859-133.0679,44.17-160.32,41.9753-25.3766-2.0749-86.3446-34.7531-118.8234-53.0678l-23.6212-97.5963s93.3671,68.7084,159.961,73.8957c42.015,3.3116,144.5193-39.0228,214.4649-70.7035C2052.4418,1051.5941,2059.0652,1074.0581,2062.8158,1093.8491Z" style="mix-blend-mode:soft-light" opacity=".6"></path><path fill="#85582d" d="M856.643,1204.3754a24.43728,24.43728,0,0,1-21.484,27.0903h-.0001l-.0123.0014a24.43731,24.43731,0,0,1-27.1042-21.4572l-16.774-144.6104a.03915.03915,0,0,0,.04-.0399c5.6261-2.9925,7.7007-6.4634,7.7007-6.4634l-.3989-4.0699h-.1597a7.18227,7.18227,0,0,0-4.7082-6.3844,7.37359,7.37359,0,0,0-2.7532-.4783,11.97724,11.97724,0,0,0-1.7157.1592l-.9974-8.8578.0807-.1536a6.17094,6.17094,0,0,0,2.4729-2.8788,12.05764,12.05764,0,0,0,1.157-3.2317,22.202,22.202,0,0,0,.2794-5.387,31.32415,31.32415,0,0,0-.4389-3.3115,13.93394,13.93394,0,0,0-1.3964-3.711,37.81118,37.81118,0,0,0-2.3942-3.7903,8.1453,8.1453,0,0,0-2.6732-2.673l-1.2769-10.9727a7.55035,7.55035,0,0,0,1.8355-1.3569l.1196-.1198a6.10709,6.10709,0,0,0,1.6361-2.5133,5.908,5.908,0,0,0,.5187-1.3969c4.7878-1.7155,6.0247-7.8203,3.6308-11.7705a6.99406,6.99406,0,0,0-5.9451-3.3919h-.3992a8.04028,8.04028,0,0,0-3.6707.8782l-.6783-5.8258-4.2294-36.4286L764.3756,833.2191l48.5987-5.6256,4.9079,42.4936,10.2542,88.2997c-.9176,8.0599-3.9501,16.3591-9.0972,22.1444-.838,19.0726,7.0625,28.0502,15.4016,32.2399Z"></path><path d="M835.1589,1231.4657a24.47735,24.47735,0,0,1-27.0523-20.9478l-.0799-.5192-16.7183-144.6391c5.6261-2.9925,7.7007-6.4634,7.7007-6.4634l-.3989-4.0699h-.1597a7.18227,7.18227,0,0,0-4.7082-6.3844,3.48168,3.48168,0,0,0-2.7532-.4783,11.97724,11.97724,0,0,0-1.7157.1592l-.9975-8.8578a7.2687,7.2687,0,0,0,.6386-.5187,6.61469,6.61469,0,0,0,1.9151-2.5137,12.05764,12.05764,0,0,0,1.157-3.2317,22.202,22.202,0,0,0,.2794-5.387,31.32415,31.32415,0,0,0-.4389-3.3115,13.93394,13.93394,0,0,0-1.3964-3.711,37.81118,37.81118,0,0,0-2.3942-3.7903,8.1453,8.1453,0,0,0-2.6732-2.673l-1.2769-10.9727a7.55035,7.55035,0,0,0,1.8355-1.3569l.1196-.1198a6.10709,6.10709,0,0,0,1.6361-2.5133,5.908,5.908,0,0,0,.5187-1.3969,7.57693,7.57693,0,0,0,4.8278-7.3815,7.35845,7.35845,0,0,0-.1196-1.3165,1.8041,1.8041,0,0,0-.1198-.6386c-.04-.2391-.1196-.4388-.1595-.6385a4.58534,4.58534,0,0,0-.2394-.678,4.7823,4.7823,0,0,0-.4389-.9177.8726.8726,0,0,0-.1198-.1997,5.17241,5.17241,0,0,0-.3989-.5986,7.0784,7.0784,0,0,0-5.9454-2.7933,8.04028,8.04028,0,0,0-3.6707.8782L764.3756,833.2191l48.5987-5.6256,4.9476,42.4936h-.0397l-24.2995,2.4738,13.287,114.7537v.0399Z" style="mix-blend-mode:soft-light" opacity=".3"></path><rect width="624.087" height="343.436" x="458.69" y="503.81" fill="#85582d" transform="rotate(-6.609 770.734 675.529)"></rect><polygon fill="#99692b" points="1060.922 469.145 1060.908 469.031 441.039 540.852 771.197 675.506 1060.922 469.145"></polygon><polygon fill="#99692b" points="1100.395 809.759 1100.445 810.193 481.409 881.917 494.356 872.7 506.786 863.836 517.445 856.247 771.001 675.623 771.187 675.497 1060.198 793.361 1071.56 798 1086.411 804.06 1100.395 809.759"></polygon><rect width="597.566" height="328.122" x="471.955" y="511.462" transform="rotate(-6.609 770.739 675.523)" style="mix-blend-mode:multiply" fill="#85582d" opacity=".4"></rect><rect width="569.448" height="313.374" x="486.012" y="518.836" fill="#cc9e4c" transform="rotate(-6.609 770.736 675.523)"></rect><rect width="555.358" height="305.619" x="492.776" y="520.287" fill="#f7d180" transform="rotate(-6.609 770.455 673.096)"></rect><polygon points="1100.445 810.193 480.528 882.02 441 540.866 441.044 540.861 455.732 546.855 469.86 552.642 469.882 552.64 477.309 555.68 771.001 675.623 1059.449 793.447 1071.561 798.399 1085.733 804.18 1100.445 810.193" style="mix-blend-mode:soft-light" opacity=".3"></polygon><path fill="#b7765a" d="M904.466,958.6259v.1598c-.0796,1.2371-.1595,2.3544-.2793,3.4318v.04c-.0797,1.0369-.1995,2.0345-.2791,2.9126-.0799.4783-.1198.9576-.1598,1.3565-.0399.359-.0796.6785-.1196.9975a7.31041,7.31041,0,0,0-.0798.8378c-.1196.8382-.1995,1.3964-.2394,1.5562v.0399c-6.7033,16.1599-23.5811,58.2146-34.1947,97.6762,0,0-13.9253,5.7454-27.4516,7.5412-5.2669.6785-10.4938.7983-14.8029-.319a56.3488,56.3488,0,0,1-10.2944-3.7908,3.69273,3.69273,0,0,0-.5586-.2791,71.93376,71.93376,0,0,1-16.2395-11.3321s-.0797.0799-.2794.2397a56.24419,56.24419,0,0,1-5.8979,4.2993c-.1617.1067-.3492.2128-.5189.32-.5787.3624-1.1286.7218-1.7627,1.0861h-.04v.04c-.2393.1198-.4787.2796-.7181.3994-.0799.0399-.1595.1198-.1995.1198a35.25242,35.25242,0,0,1-14.8828,4.6281,11.82456,11.82456,0,0,1-1.676-.1198c-.3589-.04-.6782-.0799-1.0372-.1198-.5187-.0794-.9975-.1593-1.4765-.2791a15.32022,15.32022,0,0,1-3.1521-.9975c-.1595-.0794-.2793-.1194-.4388-.1992-5.5462-2.4743-8.2594-7.5018-6.4239-13.3271a14.7309,14.7309,0,0,1,1.9551-4.1099c-1.1174.0399-2.2345.0399-3.3118,0-.5188,0-.9976,0-1.5163-.0399h-.0799q-.89745-.06-1.7953-.1194-1.197-.05985-2.3942-.2391c-1.5958-.1997-3.1121-.4394-4.6283-.7185-1.4364-.319-2.833-.6385-4.1895-1.0374a.14678.14678,0,0,0-.1198-.0399c-.6783-.2392-1.3565-.4389-1.995-.6785-13.0076-4.5882-19.1522-14.4834-6.3441-27.172a47.203,47.203,0,0,1,5.0273-4.4289c-1.2766-.7583-2.5135-1.5561-3.7107-2.3544-1.1171-.718-2.1546-1.4364-3.1521-2.1943a2.16341,2.16341,0,0,0-.359-.2791,52.477,52.477,0,0,1-4.9875-4.2296c-.7184-.6785-1.3967-1.357-2.035-2.0749q-.8979-.9579-1.676-1.9152a2.23949,2.23949,0,0,1-.2394-.3195h-.0397c-10.4541-13.0875-8.818-28.6882,18.8329-40.858h.04q1.67565-.71745,3.4713-1.4364a41.2187,41.2187,0,0,1-7.9002-6.2242c-.5587-.5587-1.1173-1.1573-1.6361-1.7559a35.53839,35.53839,0,0,1-8.0597-15.6012c-.1597-.678-.2793-1.3565-.3991-2.0349a20.0072,20.0072,0,0,1-.2394-2.035,17.36634,17.36634,0,0,1-.1196-2.0345c-.3193-11.4913,6.1446-21.9452,19.2318-24.8584a56.70093,56.70093,0,0,1,23.9802-.319,51.15746,51.15746,0,0,1,14.045,5.0674,34.81767,34.81767,0,0,1,3.4314,2.1149c.1595.1193.3193.1992.3989.2791a.49332.49332,0,0,1,.1198.0798,54.37578,54.37578,0,0,1,6.7432-6.6231c2.7532-2.2346,5.9851-4.3095,9.0575-4.8682.5584-.1193,1.4763-.1992,2.7529-.319,2.7134-.1997,6.9429-.3994,12.1299-.4788,24.0201-.359,68.4691,1.8353,76.6089,15.4814C904.9448,928.5812,905.1842,946.8555,904.466,958.6259Z"></path><path d="M904.466,958.6259v.1598c-.0796,1.2371-.1995,2.3544-.2793,3.4318v.04c-.1196,1.0769-.1995,2.0345-.2791,2.9126-.0799.4783-.1198.9576-.1598,1.3565-.0399.359-.0796.6785-.1196.9975a7.31041,7.31041,0,0,0-.0798.8378c-.1196.8382-.1995,1.3964-.2394,1.5562v.0399c-6.7033,16.1599-23.5811,58.2146-34.1947,97.6762,0,0-13.9253,5.7454-27.4516,7.5412-5.2669.6785-10.4938.7983-14.8029-.319a56.3488,56.3488,0,0,1-10.2944-3.7908,3.69273,3.69273,0,0,0-.5586-.2791,78.75114,78.75114,0,0,1-16.5189-11.0924c-.319-.2796-.4788-.4389-.4788-.4389s-.3589.359-.9575.9176q-.11985.11985-.359.359a58.57482,58.57482,0,0,1-6.3842,4.8278.03915.03915,0,0,0-.04.0399,6.95609,6.95609,0,0,0-.7181.4394c-.0799.0399-.1595.1198-.1995.1198a35.25242,35.25242,0,0,1-14.8828,4.6281,11.82456,11.82456,0,0,1-1.676-.1198c-.3589-.04-.6782-.0799-1.0372-.1198-.5187-.0794-.9975-.1593-1.4765-.2791a15.32022,15.32022,0,0,1-3.1521-.9975c-.1595-.0794-.2793-.1194-.4388-.1992,14.5635-4.3895,23.262-11.4519,13.4464-13.5268-6.1845-1.3161-13.4863-.8378-19.8703.1997a14.7309,14.7309,0,0,1,1.9551-4.1099c-1.1174.0399-2.2345.0399-3.3118,0-.5188,0-.9976,0-1.5163-.0399h-.0799q-.89745-.06-1.7953-.1194-1.197-.05985-2.3942-.2391c-1.5958-.1997-3.1121-.4394-4.6283-.7185-1.4364-.319-2.833-.6385-4.1895-1.0374a.14678.14678,0,0,0-.1198-.0399c-.6783-.2392-1.3565-.4389-1.995-.6785l-.2394-.8378c17.197-4.8677,32.0002-17.7954,32.5986-23.5813.8779-8.2192-19.9503-6.5437-38.7033-2.6335v-.1194a47.203,47.203,0,0,1,5.0273-4.4289c-1.2766-.7583-2.5135-1.5561-3.7107-2.3544-1.1171-.718-2.1546-1.4364-3.1521-2.1943a2.16341,2.16341,0,0,0-.359-.2791,52.477,52.477,0,0,1-4.9875-4.2296c-.7184-.6785-1.3967-1.357-2.035-2.0749q-.8979-.9579-1.676-1.9152a2.00283,2.00283,0,0,1-.2791-.3195h.0397c7.9801-1.5158,20.11-4.9476,25.4166-8.3391,27.4515-17.4364,19.272-31.0821-6.5834-32.5189q1.67565-.71745,3.4713-1.4364a41.2187,41.2187,0,0,1-7.9002-6.2242c-.5587-.5587-1.1173-1.1573-1.6361-1.7559a35.53839,35.53839,0,0,1-8.0597-15.6012c-.1597-.678-.2793-1.3565-.3991-2.0349a20.0072,20.0072,0,0,1-.2394-2.035,17.36634,17.36634,0,0,1-.1196-2.0345c11.4911,3.9901,28.0099,5.2667,45.1671-8.1798a73.59752,73.59752,0,0,0,12.0899-11.9302,34.81767,34.81767,0,0,1,3.4314,2.1149c.1595.1193.3193.1992.3989.2791a.49332.49332,0,0,1,.1198.0798,54.37578,54.37578,0,0,1,6.7432-6.6231c2.7532-2.2346,5.9851-4.3095,9.0575-4.8682.5584-.1193,1.4763-.1992,2.7529-.319a82.105,82.105,0,0,0-11.0123,11.9302c-6.9429,9.2966-12.09,21.0276-10.8531,34.833,1.5562,17.5962,8.2595,16.6781,16.12,10.733,7.541-5.6656,16.1197-15.9203,22.3841-18.9927a7.8454,7.8454,0,0,1,2.3939-.8377c12.1696-2.1149,7.222,26.5339,3.3517,44.7282-3.9104,18.2348,22.3442,29.0876,50.1946,2.1947C892.9349,976.2226,899.9572,966.5266,904.466,958.6259Z" style="mix-blend-mode:soft-light" opacity=".3"></path><path fill="#85582d" d="M856.7852,1207.2059a24.454,24.454,0,0,1-48.6786,3.312l-.0799-.5192-16.7583-144.5992a.03915.03915,0,0,0,.04-.0399c5.6261-2.9925,7.7007-6.4634,7.7007-6.4634l-.3989-4.0699h-.1597a7.18227,7.18227,0,0,0-4.7082-6.3844,7.37359,7.37359,0,0,0-2.7532-.4783,11.97724,11.97724,0,0,0-1.7157.1592l-.9975-8.8578c.04-.0399.04-.0798.0799-.1597.1994-.1193.3989-.2392.5587-.359a6.61469,6.61469,0,0,0,1.9151-2.5137,12.05764,12.05764,0,0,0,1.157-3.2317,22.202,22.202,0,0,0,.2794-5.387,31.32415,31.32415,0,0,0-.4389-3.3115,13.93394,13.93394,0,0,0-1.3964-3.711,37.81118,37.81118,0,0,0-2.3942-3.7903,8.1453,8.1453,0,0,0-2.6732-2.673l-1.2769-10.9727a7.55035,7.55035,0,0,0,1.8355-1.3569l.1196-.1198a6.10709,6.10709,0,0,0,1.6361-2.5133,5.908,5.908,0,0,0,.5187-1.3969,7.57693,7.57693,0,0,0,4.8278-7.3815,7.35845,7.35845,0,0,0-.1196-1.3165,1.8041,1.8041,0,0,0-.1198-.6386c-.04-.2391-.1196-.4388-.1595-.6385a4.58534,4.58534,0,0,0-.2394-.678,3.67277,3.67277,0,0,0-.2794-.5592c-.0399-.1193-.1198-.2391-.1595-.3585a.8726.8726,0,0,0-.1198-.1997.53635.53635,0,0,0-.2394-.2795,2.21188,2.21188,0,0,0-.2394-.3191h.0799c.319,0,.5984.0799.9176.0799a26.44475,26.44475,0,0,0,3.232,1.1967,22.6371,22.6371,0,0,0,11.2919.6785v-.0399a20.81827,20.81827,0,0,0,7.1021-2.8727,32.532,32.532,0,0,0,5.9451-5.0275c-.279.3589-.5584.7583-.8777,1.1168-.838,19.0726,7.0625,28.0502,15.4016,32.2399l22.1846,191.602A22.88406,22.88406,0,0,1,856.7852,1207.2059Z"></path><path d="M835.1589,1231.4657a24.47735,24.47735,0,0,1-27.0523-20.9478l-.0799-.5192-16.7183-144.6391c5.6261-2.9925,7.7007-6.4634,7.7007-6.4634l-.3989-4.0699h-.1597a7.18227,7.18227,0,0,0-4.7082-6.3844,3.48168,3.48168,0,0,0-2.7532-.4783,11.97724,11.97724,0,0,0-1.7157.1592l-.9975-8.8578a7.2687,7.2687,0,0,0,.6386-.5187,6.61469,6.61469,0,0,0,1.9151-2.5137,12.05764,12.05764,0,0,0,1.157-3.2317,22.202,22.202,0,0,0,.2794-5.387,31.32415,31.32415,0,0,0-.4389-3.3115,13.93394,13.93394,0,0,0-1.3964-3.711,37.81118,37.81118,0,0,0-2.3942-3.7903,8.1453,8.1453,0,0,0-2.6732-2.673l-1.2769-10.9727a7.55035,7.55035,0,0,0,1.8355-1.3569l.1196-.1198a6.10709,6.10709,0,0,0,1.6361-2.5133,5.908,5.908,0,0,0,.5187-1.3969,7.57693,7.57693,0,0,0,4.8278-7.3815,7.35845,7.35845,0,0,0-.1196-1.3165,6.61549,6.61549,0,0,0-.2793-1.2771,11.57067,11.57067,0,0,0-.5188-1.2372,4.27755,4.27755,0,0,0-.5187-.8377.87077.87077,0,0,0-.1994-.3191c.3192,0,.6383.0799.9575.0799a26.44475,26.44475,0,0,0,3.232,1.1967,22.67519,22.67519,0,0,0,11.2919.6386v.0399Z" style="mix-blend-mode:soft-light" opacity=".3"></path><path fill="#995942" d="M827.3786 943.863c2.2322 5.9625 2.2948 12.5949 1.5217 18.977a39.652 39.652 0 01-7.2565 18.2127 24.09112 24.09112 0 01-17.8337 9.8597 31.00771 31.00771 0 01-10.2497-1.2396 27.62029 27.62029 0 01-9.3908-4.6082c-5.7928-4.2901-9.0194-11.1294-10.2903-17.65a64.59256 64.59256 0 01-.3465-19.5304 32.2886 32.2886 0 01.8449-4.8679 28.37375 28.37375 0 011.352-4.793 65.99486 65.99486 0 014.1284-8.754 99.24855 99.24855 0 0111.0117-15.4919 139.69017 139.69017 0 00-8.3744 16.7784 66.341 66.341 0 00-3.0285 8.6601 31.40957 31.40957 0 00-.8362 4.359 27.32287 27.32287 0 00-.4405 4.4535c-.179 6.1624-.1697 12.2942 1.2286 17.9924 1.29 5.6601 3.9169 10.9138 8.4005 14.1052 4.1759 3.3495 10.2833 4.9889 15.7237 4.942 5.5377-.018 10.671-2.8303 14.494-7.1546a39.7826 39.7826 0 008.0058-15.8564A44.303 44.303 0 00827.3786 943.863zM799.0037 1059.2568c-1.3624-3.5333-3.4573-6.1306-6.0517-7.442a20.51015 20.51015 0 00-8.8149-1.8608 97.2071 97.2071 0 00-10.0793.6554 106.41129 106.41129 0 01-10.8338.8409 35.0222 35.0222 0 0121.0197-7.4768c3.9198.2034 8.2725 1.1312 11.5148 4.1301A10.8344 10.8344 0 01799.0037 1059.2568z"></path><path fill="#995942" d="M741.8855,1016.9709a75.89712,75.89712,0,0,1,21.04-8.3327,49.63093,49.63093,0,0,1,11.5727-1.4354c3.9633.0945,8.2012.5407,12.1945,2.9103a33.44822,33.44822,0,0,1,2.7005,2.2166,27.10119,27.10119,0,0,1,2.0416,2.4275,23.70665,23.70665,0,0,1,3.0343,5.5748,18.93156,18.93156,0,0,1,.0551,12.6002c-2.7933,8.0928-10.186,13.0394-17.442,14.6296,6.3624-3.8949,11.6063-9.472,12.9537-15.9213a15.21,15.21,0,0,0-.8554-9.2715c-1.1619-2.7596-3.4584-5.8443-5.6437-7.1748-2.4119-1.5925-5.8333-2.1129-9.2176-2.3435a61.02012,61.02012,0,0,0-10.6113.3737C756.5087,1014.0381,749.255,1015.4787,741.8855,1016.9709Z"></path><path fill="#995942" d="M775.5477 1010.058l.0214-.0579.0076-.0058c3.6572-4.3283 7.1424-7.4716 10.0793-11.1039a91.22015 91.22015 0 008.3657-12.1342 14.632 14.632 0 01.1443 8.401 19.64763 19.64763 0 01-3.9226 7.5753 19.99784 19.99784 0 01-14.6441 7.3093l.0064-.0052zM748.0166 961.2997a19.2617 19.2617 0 016.6765-3.2678 29.6513 29.6513 0 017.1093-1.1295c4.7647-.0608 9.8006.7348 13.9846 3.9186a38.36262 38.36262 0 01-7.0664 1.4992c-2.2682.3552-4.4976.43-6.746.5615A44.0541 44.0541 0 01748.0166 961.2997zM819.0395 980.5317a103.52886 103.52886 0 003.5373 13.5505 31.60763 31.60763 0 006.4968 11.0205c5.7029 6.2157 14.3404 9.3016 23.8408 11.1398a27.50216 27.50216 0 01-14.771.5279 26.315 26.315 0 01-13.4537-7.5984 26.86943 26.86943 0 01-6.6174-13.9261A32.16273 32.16273 0 01819.0395 980.5317z"></path><path fill="#e6e8e8" d="M1419.3765,1153.2498a23.6521,23.6521,0,0,1-.9065,3.3199,25.40666,25.40666,0,1,1-25.6564-33.7139,25.74174,25.74174,0,0,1,6.6746.4731A25.40392,25.40392,0,0,1,1419.3765,1153.2498Z"></path><path d="M1415.2073,1161.3441a24.4165,24.4165,0,1,1-29.154-36.8587,23.99027,23.99027,0,0,0-4.185,9.4873,24.43136,24.43136,0,0,0,19.0895,28.7999A24.15242,24.15242,0,0,0,1415.2073,1161.3441Z" style="mix-blend-mode:soft-light" opacity=".6"></path><path fill="#fff" d="M1419.3765,1153.2498a23.6521,23.6521,0,0,1-.9065,3.3199,24.63786,24.63786,0,0,1-6.7134-.4475,25.40407,25.40407,0,0,1-19.8495-29.9468,23.72006,23.72006,0,0,1,.9065-3.3196,25.74174,25.74174,0,0,1,6.6746.4731A25.40392,25.40392,0,0,1,1419.3765,1153.2498Z" opacity=".22"></path><path fill="#e6e8e8" d="M1401.0188,1328.3382a23.662,23.662,0,0,1-.9065,3.3199,25.4067,25.4067,0,1,1-25.6564-33.7139,25.74506,25.74506,0,0,1,6.6745.4731A25.404,25.404,0,0,1,1401.0188,1328.3382Z"></path><path d="M1396.8496,1336.4325a24.41654,24.41654,0,1,1-29.1541-36.8587,23.99168,23.99168,0,0,0-4.185,9.4873,24.4315,24.4315,0,0,0,19.0896,28.7999A24.15251,24.15251,0,0,0,1396.8496,1336.4325Z" style="mix-blend-mode:soft-light" opacity=".6"></path><path fill="#fff" d="M1401.0188,1328.3382a23.662,23.662,0,0,1-.9065,3.3199,24.6376,24.6376,0,0,1-6.7134-.4475,25.404,25.404,0,0,1-19.8495-29.9467,23.72142,23.72142,0,0,1,.9065-3.3197,25.74506,25.74506,0,0,1,6.6745.4731A25.404,25.404,0,0,1,1401.0188,1328.3382Z" opacity=".22"></path></g></svg>