<svg xmlns="http://www.w3.org/2000/svg" viewBox="0 0 2800 1900" id="chef-holding-new-recipe"><g data-name="Layer 1"><ellipse cx="1304.154" cy="1734.082" fill="#d1bfb2" rx="485.648" ry="83.489"></ellipse><path fill="#e6e8e8" d="M1879.4435,930.3799c-10.5302,30.3468-25.8009,62.0151-43.0922,92.1291-43.4029,75.615-99.3566,141.6325-123.7974,152.9011-72.5454,3.3805-122.3987-7.7714-141.0887-12.9003.8547,1.515,1.7097,3.031,2.5644,4.5849l.1167.2333c35.9813,65.7064,59.1787,174.3885,62.9479,271.4914.3885,9.9086-1.3212,20.0507-2.4091,30.464-55.9538,56.9636-142.0601,81.055-230.4592,86.4173a721.29533,721.29533,0,0,1-109.7702-1.9817c-27.7826-2.5253-54.5938-6.411-79.4231-11.1908-59.9561-11.4625-108.527-28.0155-132.2295-42.8197,0-3.8472.0389-7.7329.0778-11.657.272-19.7006,1.2045-40.1782,2.5644-60.3835,5.5954-83.892,14.9987-193.4677,15.5038-196.6153l-1.5541.6996-4.1966,1.865-7.3829,3.2639L968.642,1289.61s-52.845-82.8039-91.85732-174.7385c-15.54268-36.6421-28.9094-74.7214-35.8258-109.5763a576.70835,576.70835,0,0,0,95.8595-23.3524c56.26439-18.7681,91.42992-39.6341,91.42992-39.6341s8.0821,46.3562,18.4959,94.8104c1.2045,5.4785,2.4091,10.9574,3.6523,16.4364,0,0,.4665-1.2048,1.399-3.3806,5.3234-12.2399,25.1791-54.71,55.0599-79.8891,23.7414-20.0118,213.3235-12.9785,333.6626-6.3342,17.7964,1.0104,34.0774,1.9818,48.0657,2.8365,24.3633,1.5548,41.8099,2.7981,48.4545,3.3032,1.9039.1167,2.9142.1945,2.9142.1945s84.7854,24.3627,105.3405,33.4551c11.8124-16.553,24.4797-36.9528,36.3698-57.3526,27.122-46.4724,50.2806-92.7893,50.2806-92.7893s45.9676,25.3346,87.9717,47.3661C1844.3947,913.788,1867.5534,925.4839,1879.4435,930.3799Z"></path><path fill="#b7765a" d="M823.31578,938.1485s48.7639,60.8787,97.1443,62.8946,58.86292-28.756,77.81192-46.6316,24.9965-22.3105,20.5616-38.0342-11.0719-33.3287,1.3852-52.1433,15.4136-33.5975-24.90343-30.9097c27.68433-8.8698,28.75943-16.6085,18.81463-23.356s-17.47073-1.103-29.29712-29.325-15.3204-32.5223-31.1785-31.9848-26.9798,6.8539-27.7688,15.3205.6221,64.104-5.0223,78.215c-24.1902-22.9807-72.7722-123.3701-89.907-97.7688S865.629,857.6955,872.48278,870.708c-64.104-67.6215-89.1006-87.3059-97.5671-68.594s55.6374,92.8953,65.7167,102.5714c-63.7009-40.7202-95.1482-67.3294-101.5989-47.1709S792.69458,936.5358,823.31578,938.1485Z"></path><path d="M1018.8301,916.372c4.4511,15.7431-1.6074,20.1532-20.56523,38.0395-18.95809,17.8863-29.42609,48.631-77.81009,46.6116-48.384-1.9782-97.139-62.891-97.139-62.891-30.6212-1.6069-90.751-60.4591-84.2805-80.6123a13.17069,13.17069,0,0,1,1.3601-2.9672c15.04262,20.2357,61.5309,75.9144,100.2299,50.1151-.165-.1651-.3298-.2888-.4945-.4538-11.4161-11.3336-73.5653-83.662-65.1989-102.0846a12.44081,12.44081,0,0,1,3.3382-4.6566c10.7153,25.7169,44.7572,94.5836,94.2127,73.2355-6.8412-13.0239-58.6459-100.6834-41.5427-126.277,2.1432-3.2143,4.78092-4.4096,7.7893-4.1213,1.3601,13.7655,6.6353,37.5867,24.3568,70.8041,29.54982,55.5549,57.7806,31.0747,57.7806,31.0747,5.64622-14.095,4.2451-69.7325,5.0281-78.2226.61812-6.7173,7.78912-12.0751,18.6694-14.2595-3.2558,5.5641-3.7916,14.4245,2.3904,28.5195,15.4961,35.3605,47.76569,52.3408,67.54812,31.9813,9.5202,6.7177,8.1188,14.3833-19.20543,23.1204,15.33143-1.0303,24.398.4945,29.09633,3.7913-21.884.66-55.1017,14.26-49.24952,62.6027,0,0-40.8419-5.1104-44.0567,36.8034-3.2557,41.9545,9.93252,48.384,40.595,25.5518,28.643-21.3893,28.14852-36.8854,42.73782-62.1082C1015.5741,905.6155,1017.3465,911.0966,1018.8301,916.372Z" style="mix-blend-mode:soft-light" opacity=".3"></path><path fill="#995942" d="M995.31527,833.324a53.77624,53.77624,0,0,1-19.59827,3.8905c-6.75762.1064-14.33932-1.9658-19.73272-7.1778-5.376-5.1861-7.8046-12.0908-9.7157-18.0884-2.1239-5.933-4.4493-11.8691-8.4722-17.0881,5.8624,3.3723,9.8558,9.2913,12.9113,15.2002,2.9185,5.9729,5.3471,11.6391,9.548,15.5125,3.9907,4.0032,9.6978,5.9804,15.818,6.849C982.21948,833.2974,988.68408,833.217,995.31527,833.324Z"></path><path fill="#995942" d="M921.66958,934.9229a53.64932,53.64932,0,0,1,3.31142-17.14,45.484,45.484,0,0,1,9.30608-15.2514,42.28333,42.28333,0,0,1,6.9251-6.0046,44.82833,44.82833,0,0,1,8.2457-4.0989c5.7383-2.3858,11.91912-2.8065,17.9445-3.0631l-2.8665,4.2808a44.41447,44.41447,0,0,1-3.5197-19.0526,41.17147,41.17147,0,0,1,5.6212-18.4179,50.542,50.542,0,0,1,12.4315-14.1447,54.16673,54.16673,0,0,1,16.24639-8.7065,64.577,64.577,0,0,0-14.18189,11.0214,53.90076,53.90076,0,0,0-10.173,14.1422,38.56488,38.56488,0,0,0-4.0293,16.3285,40.086,40.086,0,0,0,3.2571,16.4133l1.7062,4.1749-4.57338.1071c-5.424.1267-10.89212.5195-15.92642,2.3478a39.2611,39.2611,0,0,0-7.337,3.1904,46.69462,46.69462,0,0,0-6.4388,4.8357C929.63688,913.2387,924.34428,923.7533,921.66958,934.9229Z"></path><path fill="#b7765a" d="M1262.6571,970.0558s14.661,72.983,112.9854,115.0496c68.4216-45.1076,80.3884-121.8774,80.3884-121.8774s-40.6078-46.5958-61.2583-43.7049S1262.6571,970.0558,1262.6571,970.0558Z"></path><path fill="#333" d="M1517.8765,1526.0528s-2.2829,10.5302-6.4573,27.4717c-8.9551,36.4865-26.5799,102.6983-48.521,157.2533-11.1313-3.2252-20.6216-6.4893-28.649-9.6753-27.3999-10.7245-37.8178-19.9335-37.8178-19.9335s5.0306-108.4104,2.5334-154.8442C1396.4314,1479.8523,1517.8765,1526.0528,1517.8765,1526.0528Z"></path><path d="M1517.8765,1526.0528s-2.2829,10.5302-6.4573,27.4717c-24.9741,13.5223-75.529,52.6122-77.17,147.578-27.3999-10.7245-37.8178-19.9335-37.8178-19.9335s5.0306-108.4104,2.5334-154.8442C1396.4314,1479.8523,1517.8765,1526.0528,1517.8765,1526.0528Z" style="mix-blend-mode:soft-light" opacity=".3"></path><path fill="#6b6b6b" d="M1543.7426,1723.4451c.2857,4.313-2.4973,7.81-9.0975,10.1026-27.0075,9.3257-89.7998-2.72-115.8797-.1942-26.0441,2.5255-30.7181-19.7782-22.334-52.1845,38.1749-16.2421,81.0587-9.9862,81.0587-9.9862.9633.4662,1.891.9325,2.8543,1.3987C1514.7731,1689.9117,1542.9935,1710.389,1543.7426,1723.4451Z"></path><path d="M1543.7426,1723.4451c.2857,4.313-2.4973,7.81-9.0975,10.1026-27.0075,9.3257-89.7998-2.72-115.8797-.1942-26.0441,2.5255-30.7181-19.7782-22.334-52.1845,38.1749-16.2421,81.0587-9.9862,81.0587-9.9862.9633.4662,1.891.9325,2.8543,1.3987-18.3024,3.2641-42.9913,10.7634-48.771,27.938C1423.3318,1725.1159,1504.0342,1727.9524,1543.7426,1723.4451Z" style="mix-blend-mode:soft-light" opacity=".3"></path><path fill="#333" d="M1177.2657,1719.1707a4.37061,4.37061,0,0,1-.2853.5829c-8.0273,16.281-44.4894,1.9429-94.188,2.448-50.2692.5052-87.48083-3.0309-58.6533-30.4248,28.8628-27.3551,63.7553-23.8192,81.4511-29.3757a44.94346,44.94346,0,0,0,25.1169-20.0113l46.5586,25.0626s.5,2.4091,1.1419,6.2559C1180.1558,1684.4328,1182.7244,1706.4645,1177.2657,1719.1707Z"></path><path d="M1176.9804,1719.7536c-8.0273,16.281-44.4894,1.9429-94.188,2.448-50.2692.5052-87.48083-3.0309-58.6533-30.4248,28.8628-27.3551,63.7553-23.8192,81.4511-29.3757a44.94346,44.94346,0,0,0,25.1169-20.0113l46.5586,25.0626s.5,2.4091,1.1419,6.2559c-9.526,3.4194-28.6132,7.2275-66.3243,6.9166-67.4655-.5051-52.0883,38.0406,34.2148,39.051C1157.9289,1719.7925,1168.0968,1719.8312,1176.9804,1719.7536Z" style="mix-blend-mode:soft-light" opacity=".3"></path><path fill="#6b6b6b" d="M1177.2657,1719.1707a4.37061,4.37061,0,0,1-.2853.5829c-8.0273,16.281-44.4894,1.9429-94.188,2.448-50.2692.5052-87.48083-3.0309-58.6533-30.4248,28.8628-27.3551,63.7553-23.8192,81.4511-29.3757a44.94346,44.94346,0,0,0,25.1169-20.0113l46.5586,25.0626s.5,2.4091,1.1419,6.2559C1180.1558,1684.4328,1182.7244,1706.4645,1177.2657,1719.1707Z"></path><path d="M1176.9804,1719.7536c-8.0273,16.281-44.4894,1.9429-94.188,2.448-50.2692.5052-87.48083-3.0309-58.6533-30.4248,28.8628-27.3551,63.7553-23.8192,81.4511-29.3757a44.94346,44.94346,0,0,0,25.1169-20.0113l46.5586,25.0626s.5,2.4091,1.1419,6.2559c-9.526,3.4194-28.6132,7.2275-66.3243,6.9166-67.4655-.5051-52.0883,38.0406,34.2148,39.051C1157.9289,1719.7925,1168.0968,1719.8312,1176.9804,1719.7536Z" style="mix-blend-mode:soft-light" opacity=".3"></path><path fill="#e6e8e8" d="M1237.2751,1527.0631c-4.2811,8.2765-9.3121,19.0399-14.628,30.93-20.6569,46.2394-45.3814,109.4593-45.3814,109.4593s-9.2403,2.3702-29.4337,1.0881a286.8603,286.8603,0,0,1-42.2418-6.1394,1419.58914,1419.58914,0,0,1,15.3409-160.1675S1258.2177,1486.5356,1237.2751,1527.0631Z"></path><path d="M1237.2751,1527.0631c-4.2811,8.2765-9.3121,19.0399-14.628,30.93-25.4018,4.1188-76.1348,23.2752-74.8151,110.5474a286.8603,286.8603,0,0,1-42.2418-6.1394,1419.58914,1419.58914,0,0,1,15.3409-160.1675S1258.2177,1486.5356,1237.2751,1527.0631Z" style="mix-blend-mode:soft-light" opacity=".6"></path><path fill="#333" d="M1237.2751,1527.0631c-4.2811,8.2765-9.3121,19.0399-14.628,30.93-20.6569,46.2394-45.3814,109.4593-45.3814,109.4593s-9.2403,2.3702-29.4337,1.0881a286.8603,286.8603,0,0,1-42.2418-6.1394,1419.58914,1419.58914,0,0,1,15.3409-160.1675S1258.2177,1486.5356,1237.2751,1527.0631Z"></path><path d="M1237.2751,1527.0631c-4.2811,8.2765-9.3121,19.0399-14.628,30.93-25.4018,4.1188-76.1348,23.2752-74.8151,110.5474a286.8603,286.8603,0,0,1-42.2418-6.1394,1419.58914,1419.58914,0,0,1,15.3409-160.1675S1258.2177,1486.5356,1237.2751,1527.0631Z" style="mix-blend-mode:soft-light" opacity=".3"></path><path fill="#7c7c7c" d="M1050.4156 1053.5446c5.0377 12.2796 8.5543 24.8557 11.9683 37.4451 3.294 12.6426 6.3113 25.2256 8.9092 38.2097-6.7562-11.4795-10.8536-24.1404-14.3054-36.783C1053.7244 1079.6914 1051.17 1066.796 1050.4156 1053.5446zM1170.2701 1182.4332c-10.2935 9.9038-21.5582 18.4235-33.061 26.6035-11.5997 8.042-23.4432 15.7368-36.2667 22.0346 10.2858-9.9146 21.5515-18.433 33.0609-26.6035C1145.6097 1196.4347 1157.4542 1188.7418 1170.2701 1182.4332zM1573.1594 1163.85c-10.8666-13.3509-20.2773-27.5627-29.3326-41.9881-8.9103-14.5115-17.4558-29.2396-24.54-44.849 10.8735 13.3363 20.2856 27.5538 29.3326 41.988C1557.5217 1133.5219 1566.0687 1148.2558 1573.1594 1163.85z"></path><path fill="#b23030" d="M1294.109,1473.2078c-106.5324-10.6467-184.6299-36.7585-208.6764-45.5401-1.6055,24.2078-2.6401,48.8041-2.6401,72.0404,33.5366,20.9437,116.8074,45.3846,211.6732,54.0108Z"></path><path d="M1294.109,1473.2078c-106.5324-10.6467-184.6299-36.7585-208.6764-45.5401-1.6055,24.2078-2.6401,48.8041-2.6401,72.0404,33.5366,20.9437,116.8074,45.3846,211.6732,54.0108Z" style="mix-blend-mode:soft-light" opacity=".3"></path><path fill="#b23030" d="M1637.0942 1438.8194q-.7578 14.8629-2.4091 30.464c-55.9538 56.9636-142.0601 81.055-230.4592 86.4173a721.29533 721.29533 0 01-109.7702-1.9817c-27.7826-2.5253-54.5938-6.411-79.4231-11.1908l44.5296-396.1056c109.4982-45.3066 167.9778-126.3227 180.9558-182.471a106.45018 106.45018 0 002.5258-15.3871c1.9039-22.731.3884-37.5352.3884-37.5352s-.6994-234.928 39.7893-39.5179a385.558 385.558 0 017.033 48.8042 199.55168 199.55168 0 01-1.6708 46.4725c-20.4386 134.1335-171.2415 208.622-171.2415 208.622l-23.2363 297.7979C1429.3661 1490.6935 1555.6116 1465.4755 1637.0942 1438.8194zM1046.7442 1037.1191c-21.9542 25.5676-52.6122 43.0531-82.45412 54.9041-35.6315 14.2222-70.1752 20.4387-87.5054 22.8483-15.54268-36.6421-28.9094-74.7214-35.8258-109.5763a576.70835 576.70835 0 0095.8595-23.3524c56.26439-18.7681 91.42992-39.6341 91.42992-39.6341S1036.3304 988.6649 1046.7442 1037.1191z"></path><path d="M1087.8155 1236.8812L968.642 1289.61s-52.845-82.8039-91.85732-174.7385c-15.54268-36.6421-28.9094-74.7214-35.8258-109.5763a576.70835 576.70835 0 0095.8595-23.3524c6.3725 28.2873 16.12562 69.6698 27.4717 110.0804 13.1725 46.8614 28.44319 92.4403 42.89772 114.744C1035.2814 1250.0541 1072.2728 1242.593 1087.8155 1236.8812zM1537.0382 970.0913c-35.7872 29.6088-175.516 126.7506-401.4287 58.518-68.6211 65.1239-69.2816 86.2622-69.2816 86.2622s-10.1029-34.6215-14.5324-64.6966c5.3234-12.2399 25.1791-54.71 55.0599-79.8891 23.7414-20.0118 213.3235-12.9785 333.6626-6.3342 17.7964 1.0104 34.0774 1.9818 48.0657 2.8365C1512.947 968.3429 1530.3936 969.5862 1537.0382 970.0913z" style="mix-blend-mode:soft-light" opacity=".6"></path><circle cx="1847.522" cy="610.815" r="35.535" fill="#97a0a0" transform="rotate(-64.205 1847.522 610.815)"></circle><path d="M1882.3562,617.7145a35.528,35.528,0,1,1-41.5725-41.7678c-.0628.8672-.1245,1.6929-.146,2.5608-.5202,21.0821,17.2457,38.6445,39.692,39.1984C1880.9909,617.7222,1881.6522,617.7385,1882.3562,617.7145Z" style="mix-blend-mode:soft-light" opacity=".3"></path><path fill="#97a0a0" d="M1640.1695,798.9814c2.4688-100.05,92.8927-178.9747,201.9674-176.2831s195.4959,85.9799,193.027,186.0299"></path><path d="M2035.1499,808.7316l-394.9758-9.7464a166.05179,166.05179,0,0,1,1.838-20.8426c10.0983-67.2951,60.3885-122.3484,127.5751-144.722a85.58811,85.58811,0,0,0-.7235,9.2061c-1.6392,66.4285,74.4572,122.16,169.9872,124.5173,31.9948.7895,62.1545-4.5053,88.1272-14.4531a169.3288,169.3288,0,0,1,8.1718,56.0407Z" style="mix-blend-mode:soft-light" opacity=".3"></path><path d="M2035.1499,808.7316l-394.9758-9.7464a166.05179,166.05179,0,0,1,1.838-20.8426l392.3303,9.6812A166.08517,166.08517,0,0,1,2035.1499,808.7316Z" style="mix-blend-mode:soft-light" opacity=".3"></path><path fill="#97a0a0" d="M2042.107,840.011l-400.2381-9.8762a18.7936,18.7936,0,0,1-18.3242-19.2514l.0837-3.3895a18.7933,18.7933,0,0,1,19.2513-18.3241l400.2382,9.8762a18.79358,18.79358,0,0,1,18.3241,19.2514l-.0836,3.3895A18.79345,18.79345,0,0,1,2042.107,840.011Z"></path><path d="M2060.1133,827.9606a18.77974,18.77974,0,0,1-18.0002,12.0473l-400.2257-9.8759a18.79422,18.79422,0,0,1-18.3454-19.2311l.0836-3.3897a18.82954,18.82954,0,0,1,19.2727-18.3442l400.2256,9.876a18.59807,18.59807,0,0,1,13.2938,6.036l-291.0545-7.182S1903.4271,839.936,2060.1133,827.9606Z" style="mix-blend-mode:soft-light" opacity=".3"></path><path fill="#b7765a" d="M1992.0071,827.2522a11.7814,11.7814,0,0,1-3.2497,3.2547c-18.1318,13.127-151.0685,53.1494-182.1754,70.6148-31.1581,17.4971-53.5627,33.0281-53.5627,33.0281l-20.3981-79.5441,4.6107-13.5424s-6.1207-22.515-9.3663-30.6513c-3.1944-8.168,6.7322-27.4497,5.5283-46.5437-1.255-19.0622-13.9597-31.7263,9.7377-27.0513,23.6464,4.7068,40.9787,25.5689,31.0773,52.0147,9.8038,21.3256,11.9985,36.3742,18.4879,40.1633,1.9551,1.156,11.1523-.0951,24.0251-2.3191.4113-.0785.7812-.1664,1.1411-.2132,30.2177-5.2775,79.5517-15.7695,104.143-14.7262C1954.426,813.0852,1998.4149,816.6619,1992.0071,827.2522Z"></path><path d="M1992.0071 827.2522a11.7814 11.7814 0 01-3.2497 3.2547c-18.1318 13.127-151.0685 53.1494-182.1754 70.6148-31.1581 17.4971-53.5627 33.0281-53.5627 33.0281l-20.3981-79.5441 4.6107-13.5424s42.6901 45.5341 81.0939 29.3407C1855.3357 854.757 1962.5196 830.3438 1992.0071 827.2522zM1816.7219 826.6759c-13.5437 2.8525-37.2986 14.2697-41.0714 4.6569-3.8899-9.8584-1.4416-42.5011-1.4416-42.5011 9.8038 21.3256 11.9985 36.3742 18.4879 40.1633C1794.6519 830.151 1803.8491 828.8999 1816.7219 826.6759z" style="mix-blend-mode:soft-light" opacity=".3"></path><path fill="#333" d="M1582.0445,747.3463a140.8159,140.8159,0,0,1-19.4745,31.1101c-60.7701,46.1629-22.8706-199.0176-22.8706-199.0176l23.0822,28.312s8.3937,10.776,16.2676,28.4034C1590.8531,662.4047,1601.6337,703.8807,1582.0445,747.3463Z"></path><path d="M1582.0445,747.3463a140.8159,140.8159,0,0,1-19.4745,31.1101c-60.7701,46.1629-22.8706-199.0176-22.8706-199.0176l23.0822,28.312s8.3937,10.776,16.2676,28.4034C1573.1779,662.2112,1567.3694,706.6833,1582.0445,747.3463Z" style="mix-blend-mode:soft-light" opacity=".3"></path><path fill="#b7765a" d="M1573.7431,811.9191c-29.1514-4.0988-19.0479-27.3837-9.8933-41.5623l.0413-.0674a107.224,107.224,0,0,1,8.1197-11.0021s6.4462-10.6877,16.6019-11.3043a17.37239,17.37239,0,0,1,10.5824,3.0585C1615.1454,761.2667,1616.2041,817.937,1573.7431,811.9191Z"></path><path d="M1598.5912,772.0296c3.4801,12.066-3.9419,37.2859-26.4552,35.712-11.8963-.8798-12.3168-19.4015-8.2862-37.3848l.0413-.0674a107.224,107.224,0,0,1,8.1197-11.0021s6.4462-10.6877,16.6019-11.3043a50.304,50.304,0,0,0-3.4045,20.789S1595.1113,759.9643,1598.5912,772.0296Z" style="mix-blend-mode:soft-light" opacity=".3"></path><path fill="#995942" d="M1573.1743,801.7067a41.75234,41.75234,0,0,1,.3152-12.5133,48.51286,48.51286,0,0,1,3.5926-12.1257c1.8988-3.829,4.3235-7.7125,8.2058-10.3568a12.2918,12.2918,0,0,1,6.5548-2.2408,11.7242,11.7242,0,0,1,3.3491.465,31.19241,31.19241,0,0,1,2.9127,1.3855,12.41472,12.41472,0,0,0-10.0677,3.805,35.45941,35.45941,0,0,0-5.8626,9.3077c-1.6625,3.4647-2.9893,7.1715-4.4637,10.8814C1576.2857,794.0538,1574.8912,797.8473,1573.1743,801.7067Z"></path><path fill="#b23030" d="M1631.3746,404.1996s-15.7518,58.6077-37.8528,123.0156c-9.3602,27.1063-19.8032,55.2846-30.7213,80.5295-55.059,47.0592-371.22,57.9708-454.6441,60.0557-12.8259.3395-20.1733.4302-20.1733.4302l-26.2313-51.1112-34.7007-78.487s94.6381,27.402,117.5585-84.0674c124.8556,51.0612,206.3925-5.9019,228.057-100.7809,76.6106,97.4487,172.7761,88.4752,216.422,41.376C1611.5202,417.9337,1631.3746,404.1996,1631.3746,404.1996Z"></path><path fill="#e6e8e8" d="M1733.4297,416.5468c-1.6562,39.4433-36.6956,70.7396-81.1032,75.1412,4.6489,4.3063,7.2767,9.2061,7.0626,14.3057-.6424,15.2993-25.9441,26.6495-56.5028,25.3664a100.545,100.545,0,0,1-10.496-.9596c.4031-1.0608.7673-2.1229,1.1315-3.1853,22.101-64.4079,37.8528-123.0156,37.8528-123.0156l-.0415.038c-1.0677.7135-20.4631,13.0303-42.2445-9.0775-43.6459,47.0992-139.8114,56.0727-216.422-41.376-21.6645,94.879-103.2014,151.8421-228.057,100.7809-22.9204,111.4694-117.5585,84.0674-117.5585,84.0674l34.7007,78.487,12.1378,23.6586a86.55033,86.55033,0,0,1-54.5126,15.9908c-30.43962-1.2781-56.33982-17.4921-69.625-40.4407-43.03722-7.315-74.91312-41.8599-73.23182-81.901.8531-20.3191,10.1954-38.4461,24.80982-51.9212a131.85138,131.85138,0,0,1-15.15682-66.7705c2.7753-66.0975,55.0873-119.9772,124.76512-135.9298a138.60445,138.60445,0,0,1-.9555-22.8699c3.3893-80.7193,76.4563-143.1867,163.2317-139.5431,42.2325,1.7732,79.9073,18.9209,107.0549,45.3648,22.5849-49.3007,78.634-82.868,142.6988-80.1781,78.5283,3.2973,140.4531,59.8184,142.3019,127.9459a153.91306,153.91306,0,0,1,41.7308-18.6031c65.1849-18.2564,129.4964,8.0317,143.656,58.636,10.5113,37.679-9.7105,78.2186-47.5921,104.0078C1722.5728,369.9927,1734.4485,392.2833,1733.4297,416.5468Z"></path><ellipse cx="1152.234" cy="213.333" fill="#fff" opacity=".5" rx="116.465" ry="67.617" transform="rotate(-11.235 1152.234 213.333)"></ellipse><ellipse cx="1421.61" cy="183.607" fill="#fff" opacity=".5" rx="73.442" ry="116.465" transform="rotate(-83.699 1421.608 183.607)"></ellipse><ellipse cx="1640.346" cy="280.693" fill="#fff" opacity=".5" rx="91.482" ry="57.688" transform="rotate(-19.939 1640.346 280.693)"></ellipse><path d="M1631.3746,404.1996l-.0415.038c-1.0677.7135-20.4631,13.0303-42.2445-9.0775-43.6459,47.0992-139.8114,56.0727-216.422-41.376-21.6645,94.879-103.2014,151.8421-228.057,100.7809-22.9204,111.4694-117.5585,84.0674-117.5585,84.0674l34.7007,78.487,12.1378,23.6586a86.55033,86.55033,0,0,1-54.5126,15.9908c-30.43962-1.2781-56.33982-17.4921-69.625-40.4407-43.03722-7.315-74.91312-41.8599-73.23182-81.901.8531-20.3191,10.1954-38.4461,24.80982-51.9212a131.85138,131.85138,0,0,1-15.15682-66.7705c2.7753-66.0975,55.0873-119.9772,124.76512-135.9298,0,0-31.09062,155.8677,126.6139,137.5045,66.6773,48.858,172.3577,42.3595,235.5789-86.9348,44.7275,87.7686,168.9802,104.7198,218.1715,39.6134C1604.2082,405.7729,1631.3746,404.1996,1631.3746,404.1996Z" style="mix-blend-mode:soft-light" opacity=".6"></path><path d="M1593.5218,527.2152c-73.6856,63.8784-320.6009,113.7778-485.3654,140.5852-12.8259.3395-20.1733.4302-20.1733.4302l-26.2313-51.1112-34.7007-78.487s94.6381,27.402,117.5585-84.0674c124.8556,51.0612,206.3925-5.9019,228.057-100.7809,0,0,15.3369,143.2891-150.363,146.7487C1242.5224,539.8968,1444.696,490.9524,1593.5218,527.2152Z" style="mix-blend-mode:soft-light" opacity=".6"></path><path fill="#e6e8e8" d="M1593.5218,527.2152c-9.3602,27.1063-19.8032,55.2846-30.7213,80.5295-63.5458,54.3262-474.8174,60.4859-474.8174,60.4859l-26.2313-51.1112C1092.1308,593.2106,1274.5694,501.9293,1593.5218,527.2152Z"></path><path d="M1562.8005,607.7447c-63.5458,54.3262-474.8174,60.4859-474.8174,60.4859l-26.2313-51.1112c30.379-23.9088,212.8176-115.1901,531.77-89.9042,0,0-122.5238-2.9894-242.4715,20.1123C1231.1043,570.3891,1480.4891,573.8358,1562.8005,607.7447Z" style="mix-blend-mode:soft-light" opacity=".6"></path><path fill="#b7765a" d="M1577.4172,904.1057q-1.5396,2.4501-3.3186,4.8896c-1.7801,2.4797-3.7197,4.9527-5.7379,7.3824-28.2322,33.6177-81.3095,62.0015-157.4631,77.2434-112.5796,22.5327-193.8317-11.8903-242.2152-53.4747-.1545-.1261-.2687-.2508-.4232-.3769-.0776-.0432-.1141-.1246-.1922-.1678-19.682-16.9907-33.8849-35.1881-42.4739-51.1545-8.8497-16.4162-15.7705-42.6496-21.1114-71.3308-12.6104-67.5418-16.4986-148.8858-16.4986-148.8858s39.3469-30.2774,118.644-52.8906c78.9344-22.5488,197.4234-37.5297,356.1734-7.5953-.0458,2.9915-.1297,5.9414-.1704,8.8135-.025.5974-.0119,1.2367-.037,1.8342-.6651,39.6046-.3254,71.4288.4931,96.6076,1.3203,39.8478,3.8549,63.143,5.4534,74.5051.9007,6.1045,1.506,8.8039,1.506,8.8039C1597.0953,832.7714,1599.026,870.4494,1577.4172,904.1057Z"></path><path fill="#fff" d="M1563.0862 715c-52.4621-10.9834-118.6819-33.6399-95.0743-58.8309 22.6466-24.1536 66.32-33.8944 94.5812-37.7767C1561.928 657.997 1562.2677 689.8212 1563.0862 715zM1577.4172 904.1057q-1.5396 2.4501-3.3186 4.8896a102.38844 102.38844 0 01-31.191-10.9283c-28.6201-16.089-39.6459-52.9117-24.2196-81.9185 10.7444-20.1433 30.4794-26.2992 49.8516-26.6434.9007 6.1045 1.506 8.8039 1.506 8.8039C1597.0953 832.7714 1599.026 870.4494 1577.4172 904.1057z" opacity=".11"></path><path d="M1568.3607,916.3777c-122.6859,109.2362-324.765,86.5426-399.6783,23.7687-.1545-.1261-.2687-.2508-.4232-.3769-.0776-.0432-.1141-.1246-.1922-.1678-19.682-16.9907-33.8849-35.1881-42.4739-51.1545-8.8497-16.4162-15.7705-42.6496-21.1114-71.3308-12.6104-67.5418-16.4986-148.8858-16.4986-148.8858s39.3469-30.2774,118.644-52.8906c78.9344-22.5488,197.4234-37.5297,356.1734-7.5953-.0458,2.9915-.1297,5.9414-.1704,8.8135-69.3491-4.229-239.8502-5.2417-301.3063,81.0618-77.9134,109.4398-57.5648,220.8104,7.0428,261.9184C1333.014,1000.6481,1511.4136,961.841,1568.3607,916.3777Z" style="mix-blend-mode:soft-light" opacity=".3"></path><path fill="#fff" d="M1468.7931,797.2505c-14.882,9.3931-29.7321,16.1134-28.4412,3.4357a41.82016,41.82016,0,0,1,7.7259-20.5097c12.3713-5.6669,23.4234-8.4357,24.6757-1.199C1473.5853,783.8818,1471.9913,790.4801,1468.7931,797.2505Z" opacity=".11"></path><path d="M1468.7931,797.2505s-26.0743,24.095-44.5064,22.9306-18.9451-12.3559-1.2702-26.3968c-17.9582,10.1019-30.3702,23.8517-9.8667,31.3728s33.3279,3.1526,41.1217-7.537S1468.7931,797.2505,1468.7931,797.2505Z" style="mix-blend-mode:soft-light" opacity=".3"></path><path fill="#280303" d="M1272.8228,866.0106s-19.7447,23.899-19.838,44.7187,47.322,38.4283,82.0767,35.2023,68.1617-23.9484,83.7749-61.0357S1272.8228,866.0106,1272.8228,866.0106Z"></path><path fill="#fff" d="M1399.9941,874.9839a54.3635,54.3635,0,0,1-5.1576,14.471,8.08657,8.08657,0,0,0-.4335.8201l-.0398-.0017a43.53877,43.53877,0,0,1-15.2268,16.6426c-2.763,1.1612-5.4806,2.2044-8.2347,3.1665-.1214.0348-.2028.0711-.3241.106-51.4784,17.8744-99.6008,1.4456-102.3713-10.5247-2.9426-12.616,5.1268-41.293,5.1268-41.293Z"></path><path fill="#e5e5e5" d="M1399.9941,874.9839a54.3635,54.3635,0,0,1-5.1576,14.471l-.3919.7818-.0416.0383-.0398-.0017c-1.9093.798-40.8388,16.3655-100.7873,4.9878-4.1099,18.0272,44.2915,24.9686,77.0017,14.9273-51.4784,17.8744-99.6008,1.4456-102.3713-10.5247-2.9426-12.616,5.1268-41.293,5.1268-41.293Z"></path><path fill="#b7765a" d="M1117.182,867.578c-2.1311,1.1935-4.4493,2.3366-6.9196,3.4701-76.1017,34.443-94.5823-67.2908-68.8614-94.421,6.2422-6.519,12.5181-10.0305,18.3863-11.3624,18.9742-4.5915,34.7096,10.8823,34.7096,10.8823a170.81129,170.81129,0,0,1,18.9161,15.1089l.1083.0831c7.2521,6.67,15.0429,15.0104,20.35,24.103l.0354.0404C1143.9439,832.6032,1145.1455,852.2329,1117.182,867.578Z"></path><path d="M1117.182,867.578c-.0404.0355-.0404.0355-.0779.0331-40.9368,15.3799-69.0878-30.4159-67.0368-53.8674,2.0914-23.4867,23.4956-13.3138,23.4956-13.3138a82.51431,82.51431,0,0,0-13.7756-35.1652c18.9742-4.5915,34.7096,10.8823,34.7096,10.8823a170.81129,170.81129,0,0,1,18.9161,15.1089l.1083.0831c3.7073,7.9619,11.9269,16.14,20.35,24.103l.0354.0404C1143.9439,832.6032,1145.1455,852.2329,1117.182,867.578Z" style="mix-blend-mode:soft-light" opacity=".3"></path><path fill="#995942" d="M1107.6317,852.4983c-8.9982-12.2518-16.1559-24.7106-24.8416-35.4273-4.3602-5.2165-8.9079-10.1865-14.3755-13.0741-5.3872-2.9877-12.0735-3.0865-19.5008-.7216a20.92409,20.92409,0,0,1,22.3808-7.0213c8.418,2.3992,14.764,8.1446,19.7199,14.1561a77.31452,77.31452,0,0,1,11.3945,19.9978A71.26876,71.26876,0,0,1,1107.6317,852.4983Z"></path><path fill="#333" d="M1179.3848,756.9938a245.63323,245.63323,0,0,1-18.8088,17.3072c-3.8192,3.1763-7.8304,6.378-12.1071,9.5628,0,0-.429,1.3416-1.0785,3.7341a131.4839,131.4839,0,0,0-3.4372,19.5959c-1.4289,14.4382-.7441,33.236,8.1537,49.1417-24.685-14.7218-36.6961-22.4985-47.6338-39.2213-1.3241-7.1609-2.5625-14.4686-3.7231-21.8091l.0025-.0379c-2.0377-13.1793-3.8031-26.4552-5.2941-39.2567-1.6869-14.4881-3.0363-28.3075-4.1454-40.5518-2.4245-27.7734-3.3327-47.232-3.3327-47.232s39.3528-30.2798,118.6441-52.8763a4.541,4.541,0,0,0,.3443.5547C1221.4493,640.7694,1240.0365,695.0371,1179.3848,756.9938Z"></path><path d="M1342.0906,747.8914a66.907,66.907,0,0,1-2.9143,20.5553c-24.3243-19.8173-49.5423,2.9916-54.3994,7.8103a63.94793,63.94793,0,0,1-6.2947-27.7053c-.2721-26.2672,13.7552-47.7551,31.3185-47.9102C1327.3637,700.4475,1341.8186,721.6242,1342.0906,747.8914Z" style="mix-blend-mode:soft-light" opacity=".3"></path><ellipse cx="1498.717" cy="738.876" rx="28.693" ry="42.952" transform="rotate(-4.171 1498.717 738.876)" style="mix-blend-mode:soft-light" opacity=".3"></ellipse><ellipse cx="1500.876" cy="752.506" fill="#333" rx="18.072" ry="22.532" transform="rotate(-1.181 1500.874 752.505)"></ellipse><path fill="#fff" d="M1511.0502 745.1361c.0976 4.7303-3.0065 8.6306-6.9331 8.7116s-7.1887-3.6881-7.2863-8.4184 3.0066-8.6307 6.9332-8.7116S1510.9527 740.4058 1511.0502 745.1361zM1499.1124 758.0591a4.10737 4.10737 0 11-4.1912-4.0218A4.1074 4.1074 0 011499.1124 758.0591z"></path><path fill="#995942" d="M1428.2673,828.0373c6.0713.7602,11.4887-1.7137,16.0528-5.0277a62.64039,62.64039,0,0,0,11.9843-12.1364,80.43042,80.43042,0,0,0,8.7557-14.5844c2.3186-5.0175,4.1621-10.5564,3.9065-15.285a5.108,5.108,0,0,0-.326-1.9468c-.0197-.0621-.316-.3643-1.2948-.4809a22.074,22.074,0,0,0-7.2917.9896c-5.3766,1.3786-10.7536,3.81-16.1549,6.073-10.7409,4.7831-21.3616,10.182-32.2175,15.3604a176.439,176.439,0,0,1,29.4254-20.9228,95.60516,95.60516,0,0,1,16.8041-7.7518,26.87033,26.87033,0,0,1,10.3174-1.4913,9.52876,9.52876,0,0,1,6.5591,3.2829,9.03954,9.03954,0,0,1,1.7143,3.5465,14.30787,14.30787,0,0,1,.4251,2.9408c.1012,7.276-2.2806,13.337-5.0977,18.9836a71.18183,71.18183,0,0,1-10.7876,15.2856,55.29827,55.29827,0,0,1-14.7094,11.4719,30.96172,30.96172,0,0,1-8.9689,2.8629A17.67409,17.67409,0,0,1,1428.2673,828.0373Z"></path><path fill="#333" d="M1454.8425 889.021c-14.9674.0103-30.1937.4884-45.457.8852-46.7866 1.1885-94.0267 1.7594-134.4421-12.869-53.5827-19.4519-39.6881-70.9135-39.6881-70.9135-.5751 18.4551 2.2873 36.7751 21.8265 47.6531 19.5391 10.8783 30.9336 1.8577 55.6508-19.3354 24.7188-21.2331 45.2401-22.327 78.3412-15.07 47.264 13.1199 43.7174 9.1793 62.7861 6.5476s38.8367-1.9615 48.1252 4.0162c9.246 6.0157 14.9814 17.7115 29.5029 25.4654s23.1585-5.9323 23.339-19.7344C1563.5388 872.4717 1518.7503 885.9571 1454.8425 889.021zM1350.1348 673.6901c-6.36 1.2895-15.2526 3.9493-24.6794 6.9861-5.3846 1.8094-10.9311 3.6917-16.2808 5.6223-4.0095 1.3882-7.8595 2.7832-11.4263 4.0702-7.9028 2.8611-14.4344 5.3807-18.0439 6.7459-1.9059.7182-2.9619 1.1528-2.9619 1.1528-11.7467-5.4023-19.0186-24.2268-19.0186-24.2268 1.5962-2.8465 3.2672-5.5702 4.9332-8.1746a127.01124 127.01124 0 0113.5573-17.7501 94.65549 94.65549 0 0112.0057-11.2301 73.51827 73.51827 0 0113.1621-8.3476 50.601 50.601 0 0124.1495-5.7711C1346.3411 623.3615 1358.2404 654.5933 1350.1348 673.6901z"></path><path d="M1297.7483 690.3687c-7.9028 2.8611-14.4344 5.3807-18.0439 6.7459a119.007 119.007 0 01-17.0473-31.2486 127.01124 127.01124 0 0113.5573-17.7501C1278.6912 658.5172 1284.6117 676.2472 1297.7483 690.3687zM1325.4554 680.6762c-5.3846 1.8094-10.9311 3.6917-16.2808 5.6223-7.3574-10.1271-17.7557-27.6861-20.9545-49.4127a73.51827 73.51827 0 0113.1621-8.3476C1303.2313 640.5894 1308.863 663.2963 1325.4554 680.6762z" style="mix-blend-mode:soft-light" opacity=".3"></path><path fill="#333" d="M1538.8937,669.5223c-3.0248,4.5428-7.5255,10.9791-10.1393,13.3439-2.074,1.8686-15.9182-1.1073-30.1622-5.0182-2.1293-.6083-4.2592-1.2166-6.3492-1.8232-2.6423-.7494-5.2042-1.5354-7.6471-2.2767-4.8452-1.5204-9.2162-2.9414-12.5974-4.1608-2.8316-.9971-4.9914-1.8461-6.1646-2.4143-7.5856-3.7509,8.0798-26.0824,16.3314-34.3968,3.1253-3.1415,7.9646-4.3352,13.234-4.3534a46.59616,46.59616,0,0,1,14.9817,2.5048,41.3024,41.3024,0,0,1,7.2912,3.14c.427.2973.8547.5548,1.2434.8106a41.06623,41.06623,0,0,1,4.3633,3.4959c5.6177,4.9854,12.3586,12.692,16.0335,19.2721A11.37831,11.37831,0,0,1,1538.8937,669.5223Z"></path><path d="M1510.381 630.9276c-14.4969 13.5203-22.5932 33.3358-25.7851 42.8205-4.8452-1.5204-9.2162-2.9414-12.5974-4.1608a111.5165 111.5165 0 0123.4008-41.1645A46.59616 46.59616 0 011510.381 630.9276zM1523.2789 638.3741c-12.805 13.1521-20.9969 30.4891-24.6867 39.4739-2.1293-.6083-4.2592-1.2166-6.3492-1.8232 9.7587-23.2979 20.3294-36.4639 25.4292-41.9572.427.2973.8547.5548 1.2434.8106A41.06623 41.06623 0 011523.2789 638.3741zM1409.3855 889.9062c-46.7866 1.1885-94.0267 1.7594-134.4421-12.869-53.5827-19.4519-39.6881-70.9135-39.6881-70.9135-.5751 18.4551 2.2873 36.7751 21.8265 47.6531 19.5391 10.8783 30.9336 1.8577 55.6508-19.3354 24.7188-21.2331 45.2401-22.327 78.3412-15.07 47.264 13.1199 43.7174 9.1793 62.7861 6.5476 0 0-18.8423 11.5017-47.1087 6.0043C1381.5709 827.0744 1361.9876 865.7251 1409.3855 889.9062zM1147.3904 787.5979a131.4839 131.4839 0 00-3.4372 19.5959 210.04856 210.04856 0 01-43.2032-11.8887l.0025-.0379c-2.0377-13.1793-3.8031-26.4552-5.2941-39.2567C1110.2588 770.0543 1129.676 780.3645 1147.3904 787.5979zM1179.3848 756.9938a245.63323 245.63323 0 01-18.8088 17.3072c-16.1359-9.8696-39.8245-27.6462-69.263-58.8423-2.4245-27.7734-3.3327-47.232-3.3327-47.232s39.3528-30.2798 118.6441-52.8763a4.541 4.541 0 00.3443.5547C1186.6604 633.4576 1129.6278 691.8066 1179.3848 756.9938z" style="mix-blend-mode:soft-light" opacity=".3"></path><path fill="#b23030" d="M1879.4435,930.3799c-10.5302,30.3468-25.8009,62.0151-43.0922,92.1291-62.637-14.2995-127.0615-56.4589-154.6886-76.1207,27.122-46.4724,50.2806-92.7893,50.2806-92.7893S1847.1147,917.0907,1879.4435,930.3799Z"></path><path d="M1819.915 900.9651c24.4797 12.8229 47.6384 24.5188 59.5285 29.4148-10.5302 30.3468-25.8009 62.0151-43.0922 92.1291-43.4029 75.615-99.3566 141.6325-123.7974 152.9011-72.5454 3.3805-122.3987-7.7714-141.0887-12.9003.8547 1.515 1.7097 3.031 2.5644 4.5849l-51.8347-85.2903s113.7334 41.2658 159.4678 38.6233C1718.6544 1118.2904 1792.9095 960.9596 1819.915 900.9651zM1960.2265 951.2454c5.8674-6.411 2.5258 2.1762 0 0zM1637.0942 1438.8194c-120.6114 134.4835-409.4332 99.5125-554.2133 49.2321.272-19.7006 1.2045-40.1782 2.5644-60.3835 5.5954-83.892 14.9987-193.4677 15.5038-196.6153l-1.5541.6996a77.94489 77.94489 0 0111.9677-8.0042c17.3302-9.4035 54.9823-36.8361 54.9823-36.8361C1271.6855 1371.7142 1453.1464 1460.3073 1637.0942 1438.8194z" style="mix-blend-mode:soft-light" opacity=".6"></path><path fill="#333" d="M1340.1477,769.2627c-5.1869-2.0095-9.7101-4.0837-14.5411-4.6659a39.49234,39.49234,0,0,0-13.9913.5303c-9.2982,1.9899-18.1413,6.7863-27.6932,11.9843a37.46914,37.46914,0,0,1,10.773-12.3778,38.28658,38.28658,0,0,1,15.2951-7.2038,29.99581,29.99581,0,0,1,17.2505,1.2513C1332.7508,760.726,1337.0925,764.835,1340.1477,769.2627Z"></path><path fill="#e6e8e8" d="M1306.6703,1227.3195a23.58147,23.58147,0,0,1-.948,3.2951,25.313,25.313,0,1,1-25.1034-33.9336,25.65048,25.65048,0,0,1,6.6429.5616A25.31033,25.31033,0,0,1,1306.6703,1227.3195Z"></path><path d="M1302.4074,1235.3268a24.32654,24.32654,0,1,1-28.5454-37.1138,23.90123,23.90123,0,0,0-4.2975,9.3949,24.34132,24.34132,0,0,0,18.6279,28.9493A24.06406,24.06406,0,0,0,1302.4074,1235.3268Z" style="mix-blend-mode:soft-light" opacity=".6"></path><path fill="#fff" d="M1306.6703,1227.3195a23.58147,23.58147,0,0,1-.948,3.2951,24.55011,24.55011,0,0,1-6.682-.5366,25.31046,25.31046,0,0,1-19.3694-30.1021,23.61382,23.61382,0,0,1,.948-3.2949,25.65048,25.65048,0,0,1,6.6429.5616A25.31033,25.31033,0,0,1,1306.6703,1227.3195Z" opacity=".22"></path><path fill="#e6e8e8" d="M1294.1448,1400.3571a23.55044,23.55044,0,0,1-.948,3.2951,25.313,25.313,0,1,1-25.1034-33.9336,25.65485,25.65485,0,0,1,6.6429.5616A25.31038,25.31038,0,0,1,1294.1448,1400.3571Z"></path><path d="M1289.8819,1408.3645a24.32656,24.32656,0,1,1-28.5454-37.1139,23.90242,23.90242,0,0,0-4.2975,9.395,24.34122,24.34122,0,0,0,18.6279,28.9492A24.06325,24.06325,0,0,0,1289.8819,1408.3645Z" style="mix-blend-mode:soft-light" opacity=".6"></path><path fill="#fff" d="M1294.1448,1400.3571a23.55044,23.55044,0,0,1-.948,3.2951,24.54647,24.54647,0,0,1-6.682-.5366,25.31041,25.31041,0,0,1-19.3694-30.1021,23.62745,23.62745,0,0,1,.948-3.2949,25.65485,25.65485,0,0,1,6.6429.5616A25.31038,25.31038,0,0,1,1294.1448,1400.3571Z" opacity=".22"></path></g></svg>