<svg xmlns="http://www.w3.org/2000/svg" enable-background="new 0 0 4465.4 4836.8" viewBox="0 0 4465.4 4836.8" id="chef"><path fill="#720c0c" d="M2232.7,4836.8c-301.4,0-593.8-59-869.1-175.5c-132.3-56-259.9-125.2-379.3-205.9
					c-118.2-79.9-229.4-171.6-330.4-272.6c-101-101-192.7-212.2-272.6-330.4c-80.6-119.4-149.9-247-205.9-379.3
					C59,3197.9,0,2905.5,0,2604.1s59-593.8,175.5-869.1c56-132.3,125.2-259.9,205.9-379.3c79.9-118.2,171.6-229.4,272.6-330.4
					c101-101,212.2-192.7,330.4-272.6c119.4-80.6,247-149.9,379.3-205.9c275.3-116.4,567.7-175.5,869.1-175.5s593.8,59,869.1,175.5
					c132.3,56,259.9,125.2,379.3,205.9c118.2,79.9,229.4,171.6,330.4,272.6c101,101,192.7,212.2,272.6,330.4
					c80.6,119.4,149.9,247,205.9,379.3c116.4,275.3,175.5,567.7,175.5,869.1s-59,593.8-175.5,869.1
					c-56,132.3-125.2,259.9-205.9,379.3c-79.9,118.2-171.6,229.4-272.6,330.4c-101,101-212.2,192.7-330.4,272.6
					c-119.4,80.6-247,149.9-379.3,205.9C2826.5,4777.7,2534.1,4836.8,2232.7,4836.8z M2232.7,469.5c-288.2,0-567.7,56.4-830.9,167.7
					c-254.2,107.5-482.5,261.4-678.5,457.5c-196.1,196.1-350,424.3-457.5,678.5c-111.3,263.1-167.7,542.7-167.7,830.9
					s56.4,567.7,167.7,830.9c107.5,254.2,261.4,482.5,457.5,678.5c196.1,196.1,424.3,350,678.5,457.5
					c263.1,111.3,542.7,167.7,830.9,167.7s567.7-56.4,830.9-167.7c254.2-107.5,482.5-261.4,678.5-457.5
					c196.1-196.1,350-424.3,457.5-678.5c111.3-263.1,167.7-542.7,167.7-830.9s-56.4-567.7-167.7-830.9
					c-107.5-254.2-261.4-482.5-457.5-678.5c-196.1-196.1-424.3-350-678.5-457.5C2800.4,525.9,2520.9,469.5,2232.7,469.5z"></path><circle cx="2232.7" cy="2604.1" r="2183.7" fill="#ff9300"></circle><polygon fill="#fc0" points="2228.6 522.2 2423.7 1705.5 3083.3 703.9 2780.2 1864.3 3790.2 1217.5 3041.3 2154.3 4227 1974.2 3161.9 2525.4 4318.4 2843.2 3121.1 2913.5 4048.4 3674.2 2926 3251.5 3463.7 4323.5 2610.3 3480.9 2665.5 4678.9 2228.6 3562 1791.7 4678.9 1846.9 3480.9 993.5 4323.5 1531.1 3251.5 408.8 3674.2 1336 2913.5 138.8 2843.2 1295.2 2525.4 230.1 1974.2 1415.8 2154.3 667 1217.5 1676.9 1864.3 1373.9 703.9 2033.5 1705.5"></polygon><path fill="#720c0c" d="M2279.6,4834.2c-12.8,0-25.7-0.1-38.7-0.5c-138.4,0-355.3-14-603.5-80.3
						c-149.3-39.9-238.7-79.6-242.5-81.3c-17.6-7.9-29-25.4-29-44.8v-90.2c-140.7-16.2-251.4-71.6-329.7-164.8
						c-149-177.6-123.5-427.5-121.3-446.4c25.7-274.9,85.5-509.1,177.8-696.3c78.7-159.6,181.8-287,306.4-378.6
						c71.7-52.7,150.9-93.8,235.4-122.1c67.5-22.6,138.4-37.2,210.9-43.3c107.7-9.1,186.8,3.3,207.9,7.1h380.4
						c18.4-1.8,115.9-9.3,246.2,12.3c83.2,13.9,163,36.9,237.1,68.4c93.1,39.6,177.3,92.9,250.4,158.3
						c109,97.5,194.4,222.9,253.7,372.7c68.3,172.5,103,380.3,103.2,617.6c0.9,16.6,5.2,139.2-41.3,286.2
						c-28.9,91.5-71.7,173.8-127,244.6c-69.2,88.5-158,158.9-264,209.2c-2.4,1.3-4.4,2.3-6,3c-3.8,1.8-8.9,4-14.5,6.4
						c-10.5,4.5-28,11.7-52.2,20.9c-40.1,15.2-105,38.2-186.4,61C2699.2,4790.9,2497.5,4834.2,2279.6,4834.2z M1464.1,4594.4
						c36.7,14.3,106.6,39.7,201,64.8c131,34.9,337.4,76.4,576.4,76.4c0.4,0,0.8,0,1.2,0c118.5,2.9,309.9-7.4,548.8-72.5
						c139.9-38.1,238.3-79.8,254.3-87.5c1.1-0.6,2.2-1.2,3.3-1.7c91.9-43.5,168.7-104,228.4-179.9c48.1-61.1,85.4-132.5,111-212.1
						c44.3-137.9,37.9-254.3,37.9-255.5c-0.1-1-0.1-2-0.1-3c0-417.2-109.1-726.2-324.2-918.5c-283.4-253.4-656.6-214.8-660.4-214.4
						c-1.8,0.2-3.6,0.3-5.5,0.3h-387.5c-3.4,0-6.9-0.4-10.2-1.1c-0.7-0.1-78.2-15.9-188.8-6.1c-146.6,13.1-279.1,62.7-393.8,147.3
						c-111.5,82.3-204.3,197.8-275.7,343.1c-86.7,176.3-143.1,398.9-167.6,661.5c0,0.5-0.1,0.9-0.1,1.4
						c-0.3,2.1-25,225.2,99.4,372.7c68.5,81.3,171.4,126.2,305.8,133.3c26,1.4,46.4,22.9,46.4,49V4594.4z M3021.9,4609.6
						C3021.9,4609.6,3021.9,4609.6,3021.9,4609.6C3021.9,4609.6,3021.9,4609.6,3021.9,4609.6z M3021.9,4609.5
						C3021.9,4609.5,3021.9,4609.5,3021.9,4609.5C3021.9,4609.5,3021.9,4609.5,3021.9,4609.5z M3021.9,4609.4
						C3021.9,4609.4,3021.9,4609.4,3021.9,4609.4C3021.9,4609.4,3021.9,4609.4,3021.9,4609.4z M3021.9,4609.3
						C3021.9,4609.3,3021.9,4609.3,3021.9,4609.3C3021.9,4609.3,3021.9,4609.3,3021.9,4609.3z M3022,4609.2
						C3022,4609.2,3022,4609.2,3022,4609.2C3022,4609.2,3022,4609.2,3022,4609.2z M3022,4609.1C3022,4609.1,3022,4609.1,3022,4609.1
						C3022,4609.1,3022,4609.1,3022,4609.1z M3022,4609C3022,4609,3022,4609,3022,4609C3022,4609,3022,4609,3022,4609z
						 M3044.3,4576.6c-2,1.2-4,2.7-6,4.4C3040.2,4579.4,3042.2,4577.9,3044.3,4576.6z M3524.5,3923.4L3524.5,3923.4L3524.5,3923.4z"></path><path fill="#ddd" d="M3475.5,3923.4c0-1298.2-1039.1-1181.7-1039.1-1181.7h-387.5c0,0-955-203.5-1085,1189.3
						c0,0-65,533.5,451.2,561c0,124.1,0,135.3,0,135.3s351.4,157.4,826.5,157.4c437.7,10.7,828.3-164.5,828.6-166.4
						C3506.5,4411.9,3475.5,3923.4,3475.5,3923.4z"></path><path fill="#fff" d="M1829 2752.7c-262.3 23.2-717.2 156-849.5 1042.4C1205.2 3030.9 1665.3 2855.7 1829 2752.7zM2657.6 2752.7c285.4 43.1 753.2 234.2 812.1 1007.1C3244 2995.6 2821.3 2855.7 2657.6 2752.7z"></path><path fill="#720c0c" d="M2244,3189.3c-120.7,0-234.7-34.3-321.1-96.5c-43.6-31.4-78-68.3-102.3-109.7
					c-26-44.4-39.3-91.8-39.3-140.8c0-49.1,13.2-96.5,39.3-140.8c24.3-41.4,58.7-78.3,102.3-109.7c86.4-62.3,200.5-96.5,321.1-96.5
					c120.7,0,234.7,34.3,321.1,96.5c43.6,31.4,78,68.3,102.3,109.7c26,44.4,39.3,91.8,39.3,140.8c0,49.1-13.2,96.5-39.3,140.8
					c-24.3,41.4-58.7,78.3-102.3,109.7C2478.7,3155,2364.6,3189.3,2244,3189.3z M2244,2593.3c-100.3,0-194,27.7-263.8,78
					c-65,46.8-100.8,107.5-100.8,170.9c0,63.4,35.8,124.1,100.8,170.9c69.8,50.3,163.5,78,263.8,78c100.3,0,194-27.7,263.8-78
					c65-46.8,100.8-107.5,100.8-170.9c0-63.4-35.8-124.1-100.8-170.9C2437.9,2621,2344.2,2593.3,2244,2593.3z"></path><ellipse cx="2244" cy="2842.2" fill="#ddd" rx="413.6" ry="298"></ellipse><path fill="#720c0c" d="M3234.3 1529.7c-13.2 0-23.9 10.7-23.9 23.9v947.9h47.9v-947.9C3258.2 1540.4 3247.5 1529.7 3234.3 1529.7zM2637.8 4787.1c-13.5 0-24.5-11-24.5-24.5V3310.8l-374.5-125.2c-10-3.3-16.7-12.7-16.7-23.3v-158.1c0-13.5 11-24.5 24.5-24.5 13.5 0 24.5 11 24.5 24.5v140.4l374.5 125.2c10 3.3 16.7 12.7 16.7 23.3v1469.4C2662.4 4776.1 2651.4 4787.1 2637.8 4787.1zM2067.9 3375.4c-32.4 0-58.8 26.3-58.8 58.8 0 32.4 26.3 58.8 58.8 58.8 32.4 0 58.8-26.3 58.8-58.8C2126.7 3401.7 2100.4 3375.4 2067.9 3375.4z"></path><path fill="#720c0c" d="M2419 3492.9c32.4 0 58.8-26.3 58.8-58.8 0-32.4-26.3-58.8-58.8-58.8-32.4 0-58.8 26.3-58.8 58.8C2360.2 3466.6 2386.5 3492.9 2419 3492.9zM2067.9 4610.6c-32.4 0-58.8 26.3-58.8 58.8 0 32.4 26.3 58.8 58.8 58.8 32.4 0 58.8-26.3 58.8-58.8C2126.7 4636.9 2100.4 4610.6 2067.9 4610.6zM2419 4728.1c32.4 0 58.8-26.3 58.8-58.8 0-32.4-26.3-58.8-58.8-58.8-32.4 0-58.8 26.3-58.8 58.8C2360.2 4701.8 2386.5 4728.1 2419 4728.1zM2296.6 3116.6h-112c-143 0-281.8-27.9-412.5-83-126.2-53.2-239.7-129.3-337.2-226.3-97.5-97-174.3-210-228.1-335.9-49.1-114.8-77.2-235.9-83.8-360.7-39.7-5.3-75.7-17.3-107.5-36.1-39.9-23.5-72.4-57-96.8-99.5-31.6-55.2-48.5-126.1-47.6-199.8.8-66.5 15.6-129.1 40.7-171.8 35.3-60 95.9-94.6 175.3-100 18.1-1.2 35.1-.8 49.9.4 40.6-235.1 159.7-450.3 339.2-610.8 195-174.4 446.5-270.4 708.4-270.4h112c260.1 0 510.5 94.9 704.9 267.3 180.4 159.9 300.7 375.3 342.1 610.7 15-.9 32.4-.9 51 .7 79.2 7.1 139.6 42.4 174.7 102.1 0 0 0 0 0 0 25.1 42.7 40 105.3 40.7 171.8.8 73.7-16.1 144.7-47.6 199.8-24.3 42.5-56.9 76-96.8 99.5-31.8 18.7-67.8 30.8-107.5 36.1-6.6 124.9-34.7 246.1-83.9 360.9-53.9 125.9-130.6 238.8-228.1 335.8-97.5 97-211 173.1-337.2 226.3C2578.3 3088.7 2439.5 3116.6 2296.6 3116.6zM1170.5 2010.4c.1 0 .1 0 .2 0 26.9.1 48.7 21.9 48.9 48.8.8 129.7 26.8 255.4 77.4 373.6 48.9 114.3 118.6 216.9 207.1 304.9 88.6 88.1 191.6 157.2 306.1 205.5 118.6 50 244.5 75.3 374.4 75.3h112c129.8 0 255.7-25.3 374.3-75.3 114.5-48.2 217.5-117.4 306.1-205.4 88.5-88 158.2-190.6 207.1-304.8 50.6-118.2 76.7-243.9 77.5-373.5.2-26.9 21.9-48.6 48.8-48.7 7.2 0 14 1.5 20.1 4.2 66.6-4.8 115.9-34.5 146.8-88.5 51.4-89.8 39-219.6 7.5-273.2-18.6-31.6-51.9-49.8-98.9-54.1-34.9-3.1-64.8 2.6-70.9 3.8-3 .8-6.2 1.3-9.4 1.5-25.8 1.6-48.5-17-51.8-42.7-29.6-230.8-142.3-443.3-317.3-598.4-176.5-156.5-403.7-242.6-639.9-242.6h-112c-237.7 0-466 87.2-643 245.4-175.6 157-287.5 371.6-315.2 604.4-3.1 25.9-25.9 44.9-52 43.1-9.9-.7-18.9-4.2-26.2-9.8-13.7-2.1-34.4-4.2-56.7-2.4-45.6 3.6-76.7 20.5-95.1 51.7-31.5 53.6-43.9 183.4 7.5 273.2 30.8 53.8 79.9 83.5 146.1 88.4C1156.2 2012 1163.2 2010.4 1170.5 2010.4z"></path><path fill="#f4ae98" d="M3527,1628.4c-65.3-111.1-224.6-72.8-224.6-72.8v0.1c-63.9-498.6-489.9-883.9-1005.8-883.9h-112
					c-519.1,0-947,390-1006.9,893l0.1-4.9c0,0-158.3-42.5-223.7,68.6c-65.3,111.1-57.8,436.3,216.4,436.3l0.1-5.2
					c3.2,557.3,456,1008.1,1014,1008.1h112c558,0,1010.6-450.6,1014-1007.8l0.1,4.9C3584.8,2064.7,3592.3,1739.5,3527,1628.4z"></path><path fill="#ed9077" d="M2401.7 2019.2c-81.4 0-195.1 0-321.3 0-40.7 174 2 225 153.2 225h14C2398.7 2244.2 2442.4 2193.2 2401.7 2019.2zM2239.5 2796.7c-77.2 0-125.3-32.6-125.3-32.6s12.7 95.7 125.3 95.7c112.7 0 125.3-95.7 125.3-95.7S2316.7 2796.7 2239.5 2796.7zM1178.1 1561.2c0 0 303.9-32.7 508.8-330.7 435.5-90.8 1123.3-3.7 1123.3-3.7s179.8 291.6 492.9 328.8C3183.5 1122.4 2823.9 879 2321 879 1818 879 1370.9 1096.9 1178.1 1561.2z"></path><path fill="#720c0c" d="M2244.3,531.5c-1140.9,0-1156.9,1021.2-1156.9,1021.2l90.1,8.5c0,0,310.8-67.7,494.9-452.4
				c0,0,615.5-103.3,1153,0c184.1,384.7,477.1,446.8,477.1,446.8l91.1-4.9C3393.7,1550.7,3385.2,531.5,2244.3,531.5z"></path><path fill="#ed9077" d="M1098,1917c0,0-50.9-61.5,1.7-109c52.6-47.5,5.3-124.7-52.6-105.5C989.3,1721.7,986.4,1902.6,1098,1917z"></path><path fill="#f9e6e1" d="M1178.4,1561.2c0,0-154.3-51.1-226.3,69c-72,120.1-7,287.4,0.7,302.3c-23.8-76.2-44.6-396.7,222.1-337.9
					C1174.9,1583.3,1178.4,1574.9,1178.4,1561.2z"></path><path fill="#ed9077" d="M1170.6 2064.7c0 0 84.5 23 135.8 204.1 51.4 181.2 167.6 618.2 638.1 770.1C1522.7 2943.5 1177.9 2551.8 1170.6 2064.7zM3383.1 1917c0 0 50.9-61.5-1.7-109-52.6-47.5-5.3-124.7 52.6-105.5C3491.8 1721.7 3494.7 1902.6 3383.1 1917z"></path><path fill="#f9e6e1" d="M3302.7,1561.2c0,0,154.4-51.4,226.4,68.7c72,120.1,6.9,287.6-0.8,302.6c23.8-76.2,44.6-396.7-222.1-337.9
					C3306.2,1584.9,3302.7,1581.1,3302.7,1561.2z"></path><path fill="#ed9077" d="M3310.6,2064.7c0,0-84.5,23-135.8,204.1c-51.4,181.2-167.6,618.2-638.1,770.1
					C2958.5,2943.5,3303.3,2551.8,3310.6,2064.7z"></path><path fill="#e04c34" d="M1437.5 1879.9c-64.2 0-116.3 23.5-116.3 52.5 0 29 52.1 52.4 116.3 52.4 64.2 0 116.3-23.5 116.3-52.4C1553.8 1903.3 1501.7 1879.9 1437.5 1879.9zM3043.6 1879.9c-64.2 0-116.3 23.5-116.3 52.5 0 29 52.1 52.4 116.3 52.4 64.2 0 116.3-23.5 116.3-52.4C3159.9 1903.3 3107.8 1879.9 3043.6 1879.9z"></path><path fill="#f4ae98" d="M2378.5,1970.2c-30.8-151.5-103.9-254.9-103.9-254.9l-171.9,254.9c-32.4,138.9,11.9,179.7,132.3,179.7h11.2
				C2366.6,2149.9,2406.9,2110.1,2378.5,1970.2z"></path><path fill="#720c0c" d="M2246.1 2165.2H2235c-69.8 0-111.7-13.5-135.7-43.8-25.1-31.6-28.8-80.8-11.5-154.7 1.9-8.2 10.2-13.4 18.4-11.4 8.2 1.9 13.4 10.2 11.4 18.4-14.7 63.2-12.9 105.2 5.7 128.6 17.4 22 52.9 32.2 111.7 32.2h11.2c58.2 0 91.9-9.5 109.3-30.7 18.9-23.1 21.4-64.6 8-130.6-29.8-146.3-100.7-248.1-101.4-249.1-4.9-6.9-3.2-16.5 3.7-21.4 6.9-4.9 16.5-3.2 21.4 3.7 3.1 4.3 75.3 107.8 106.4 260.7 15.6 76.7 11.2 124.8-14.3 156.1C2355.5 2152.3 2314.4 2165.2 2246.1 2165.2zM1596 1346.1c-44 3.9-39.6 39.4-3.2 38.4 0 0 82.2-1.2 193.7 68.3 18 11.3 38.5 29.9 52.9 19.9C1872 1466 1804.9 1335.4 1596 1346.1zM2888.5 1353.5c43.7 6.7 37 41.9.7 38.5 0 0-82-6.5-197.7 55.7-18.7 10.1-40.3 27.4-54 16.5C2605.4 1455.5 2680.7 1329.5 2888.5 1353.5zM1160 1497.8c-13.5-1-25.2 9.2-26.2 22.7-20.5 291.7-11.7 575.1-11.6 577.9.4 13.3 11.3 23.7 24.5 23.7.3 0 .5 0 .8 0 13.5-.4 24.2-11.8 23.7-25.3-.1-2.8-8.8-283.8 11.6-572.9C1183.7 1510.4 1173.5 1498.7 1160 1497.8zM3347.8 1520.5c-1-13.5-12.7-23.7-26.2-22.7-13.5 1-23.7 12.7-22.7 26.2 20.3 289.1 11.6 570.1 11.6 572.9-.4 13.5 10.2 24.9 23.7 25.3.3 0 .5 0 .8 0 13.2 0 24.1-10.5 24.5-23.7C3359.5 2095.6 3368.3 1812.2 3347.8 1520.5z"></path><path fill="#ddd" d="M2465.8,2415.2h-447.9c0,0-149.4,284.4,223.7,284.4S2465.8,2415.2,2465.8,2415.2z"></path><path fill="#720c0c" d="M2241.6 2714.9c-125.4 0-208.2-31.7-246-94.3-54.4-90 6.2-207.6 8.8-212.6 2.6-5 7.9-8.2 13.6-8.2h447.9c5.7 0 10.9 3.2 13.6 8.2 2.6 5 62.9 122.5 8.4 212.5C2449.9 2683.2 2367 2714.9 2241.6 2714.9zM2027.6 2430.5c-11.7 26.5-43.9 111.4-5.8 174.4 31.9 52.7 105.9 79.4 219.7 79.4 113.9 0 187.9-26.8 219.9-79.5 38.2-62.9 6.2-147.8-5.5-174.3H2027.6zM2225.2 2183.5C2225.2 2183.5 2225.3 2183.5 2225.2 2183.5 2225.3 2183.5 2225.3 2183.5 2225.2 2183.5L2225.2 2183.5z"></path><path fill="#720c0c" d="M2871 2266.8c-55.1 108.4-236.2 142.9-330.7 54.2-130.3-122.3-173.7-138.1-299-138.1-125.3 0-168.7 15.7-299 138.1-94.5 88.7-275.6 54.2-330.7-54.2-55.1-108.4-103.6 295.4 304 295.4 221.3 0 324.9-80.2 325.7-81.1.8.9 104.4 81.1 325.7 81.1C2974.6 2562.2 2926.1 2158.5 2871 2266.8zM3330.5 1160.5H1156.1c-1.3 0-2.5 0-3.8-.1-8.8-.7-217.4-18.6-318.1-171.1C772.4 895.6 765.8 775 814.5 631c61.1-180.7 203.2-282.2 410.8-293.4 103.7-5.6 198.3 12.9 248.4 25.4 26.2-38 77.6-102.7 159.6-167 72.8-57 155.1-102.5 244.8-135C1989.5 20.6 2112.3 0 2243.3 0c131 0 253.9 20.6 365.2 61 89.7 32.6 172 78 244.8 135 82.1 64.3 133.4 129 159.6 167 50.1-12.5 144.6-31.1 248.4-25.4 207.6 11.3 349.7 112.8 410.8 293.4 48.7 144.1 42.1 264.6-19.8 358.3-100.7 152.5-309.2 170.4-318.1 171.1C3333 1160.5 3331.8 1160.5 3330.5 1160.5zM1158.5 1062.4h2169.7c17-1.8 172.5-20.9 242.6-127.6 44.1-67.1 46.9-158.7 8.4-272.4-26.4-78-71.5-136.7-133.9-174.3-51.2-30.9-114.9-48.6-189.3-52.6-131.4-7.1-248.5 30.7-249.7 31.1-22.6 7.4-47.3-2.5-58.5-23.4-.4-.7-48.4-87.6-158.8-172.9-64.5-49.9-137.5-89.6-217-118.1-99.8-35.8-210.3-53.9-328.6-54-118.2 0-228.8 18.2-328.6 54-79.5 28.5-152.5 68.3-217 118.1-110.4 85.4-158.4 172.2-158.9 173.1-11.2 21-35.8 30.7-58.5 23.3-1.1-.4-120.6-38.7-252.1-31-73.9 4.3-137.1 22.2-187.9 53.1-61.9 37.7-106.6 96.1-132.9 173.7-38.5 113.7-35.6 205.3 8.4 272.4C985.8 1041.4 1141 1060.6 1158.5 1062.4z"></path><path fill="#ddd" d="M3625.7,646.7C3493.2,255.1,2991,420,2991,420s-198.6-370.7-747.7-371c-549.1,0.2-747.7,371-747.7,371
					S993.5,255.1,861,646.7c-145.6,430.5,295.2,464.7,295.2,464.7h2174.4C3330.5,1111.4,3771.3,1077.2,3625.7,646.7z"></path><path fill="#720c0c" d="M3360.8,1302.8c-3.7,0-7.4-0.4-11-1.3c-413.4-95.2-786.9-143.5-1110.3-143.5
					c-323.3,0-696.9,48.3-1110.3,143.5c-14,3.2-28.8,0.1-40.3-8.5c-11.5-8.6-18.7-21.8-19.7-36.2c-3.6-55.9-4.6-97.4-3-123.6
					c1.1-17.3,3.3-53.4,35.1-67.1c3.4-1.5,7-2.6,10.6-3.3c29.3-11.2,138.6-50.9,310-90.9c181.8-42.4,471-92.9,816.2-92.9
					c345.1,0,637.3,50.5,821.6,92.9c175.8,40.4,287.9,80.6,316.3,91.2c0,0,0.1,0,0.1,0c6,1.3,35.8,9.9,39.1,47.6
					c0.5,5.6,0.7,13,0.5,23.4c-0.3,24.6-2.3,65.9-6,122.7c-0.9,14.4-8.1,27.6-19.7,36.2C3381.5,1299.4,3371.2,1302.8,3360.8,1302.8z
					 M2239.5,1060c315.9,0,677.5,44.8,1075.8,133.2c1.1-20.8,1.7-35.9,2.1-46.8c-46.3-16.1-144.7-47.8-282-79.3
					c-178.9-41-462.5-89.9-797.4-89.9c-334.7,0-615.1,48.8-791.5,89.8c-141.5,32.9-240.5,66.1-282.8,81.4c-0.3,9.7-0.3,24,0.4,44.7
					C1562.2,1104.7,1923.7,1060,2239.5,1060z M1086.7,1145.1L1086.7,1145.1L1086.7,1145.1z M1086.6,1145
					C1086.6,1145,1086.6,1145,1086.6,1145C1086.6,1145,1086.6,1145,1086.6,1145z M3410.5,1129.6
					C3410.5,1129.6,3410.5,1129.6,3410.5,1129.6C3410.5,1129.6,3410.5,1129.6,3410.5,1129.6z"></path><path fill="#ddd" d="M3360.8,1253.7c10.2-157.6,4.2-142.3,4.2-142.3S2897.2,928.1,2238,928.1
					c-659.2,0-1115.7,183.3-1115.7,183.3s-14.4-15.4-4.2,142.3c284.4-65.5,702.9-144.7,1121.3-144.7
					C2657.9,1109,3076.3,1188.2,3360.8,1253.7z"></path><path fill="#fff" d="M2715.5 249.7C2523 126.3 2084.4 86.1 1776 238.9c-101.4 73.7 171.8 101.2 469.1 103C2642.8 344.3 2810.1 310.4 2715.5 249.7zM1312.3 463.6c-144.6-25.1-387.2 64.7-404.2 321.7 3.4 143.9 150.7-42.3 234-123.7C1242.9 563 1451.1 487.7 1312.3 463.6zM3166.8 463.6c144.6-25.1 387.2 64.7 404.2 321.7-3.4 143.9-150.7-42.3-234-123.7C3236.2 563 3028.1 487.7 3166.8 463.6z"></path><path fill="#720c0c" d="M2201.2,2595.7c-145.8,0-206.7-17.6-210.5-18.8c-5.4-1.6-8.5-7.3-6.8-12.7c1.6-5.4,7.3-8.5,12.7-6.8l0,0
				c0.3,0.1,34.6,10.1,112.6,15.1c72,4.5,196.9,5.6,383.4-15.4c5.6-0.6,10.7,3.4,11.3,9c0.6,5.6-3.4,10.7-9,11.3
				C2372.3,2591.1,2275.7,2595.7,2201.2,2595.7z"></path><path fill="#720c0c" d="M2187.6 2466.3c-5.6-.1-10.2 4.5-10.2 10.2l-.6 203.8c0 5.6 4.5 10.2 10.2 10.2 0 0 0 0 0 0 5.6 0 10.2-4.6 10.2-10.2l.6-203.8C2197.8 2470.9 2193.3 2466.3 2187.6 2466.3zM2099.4 2513.7C2099.4 2513.7 2099.4 2513.7 2099.4 2513.7c-5.7 0-10.2 4.5-10.3 10.2l-.6 137.5c0 5.6 4.5 10.2 10.2 10.3 0 0 0 0 0 0 5.6 0 10.2-4.5 10.2-10.2l.6-137.5C2109.6 2518.3 2105.1 2513.7 2099.4 2513.7zM2295.9 2466.3C2295.9 2466.3 2295.8 2466.3 2295.9 2466.3c-5.7 0-10.2 4.6-10.2 10.2l.6 203.8c0 5.6 4.6 10.2 10.2 10.2 0 0 0 0 0 0 5.6 0 10.2-4.6 10.2-10.2l-.6-203.8C2306.1 2470.8 2301.5 2466.3 2295.9 2466.3zM2394.3 2523.9c0-5.6-4.6-10.2-10.2-10.2 0 0 0 0 0 0-5.6 0-10.2 4.6-10.2 10.3l.6 137.5c0 5.6 4.6 10.2 10.2 10.2 0 0 0 0 0 0 5.6 0 10.2-4.6 10.2-10.3L2394.3 2523.9z"></path><path fill="#f4ae98" d="M2117.9,3730.6c0,0-130.5,293.3,13.9,614.9c81.9,1.8,85.3,0.2,85.3,0.2S2118.4,4012.9,2117.9,3730.6z"></path><path fill="#720c0c" d="M2192.7 4370.9c-13.6 0-33.1-.3-61.4-.9-9.5-.2-18-5.8-21.8-14.5-77-171.3-76.8-334.5-63.1-441.2 14.9-115.8 47.7-190.6 49.1-193.7 4.7-10.6 16.2-16.4 27.5-14 11.3 2.4 19.4 12.4 19.5 23.9.5 275.4 97.2 604.8 98.2 608.1 3.4 11.6-2.1 24-13.1 29.2C2223.6 4369.7 2221.1 4370.9 2192.7 4370.9zM2148 4321.3c15.7.3 27.7.4 36.9.5-19.3-70.9-65.1-252.3-83.6-441.8-2.4 13.4-4.6 27.5-6.5 42.4C2082.5 4019.4 2082.2 4166.3 2148 4321.3zM1832.9 1755.7c0 0-111.6-122-240.8-21.6-25.2 15-44.3-19.7-13.8-44.1 30.6-24.4 152.9-119.1 276-4.7C1895.5 1723.8 1859.6 1782.9 1832.9 1755.7z"></path><path fill="#a09f9f" d="M1282.8,3817.5c0,0,24.5-587.2,99.9-587.2s132.5,556.6,132.5,556.6L1282.8,3817.5z"></path><path fill="#720c0c" d="M1391.1,3357c-13.2,0-23.9,10.7-23.9,23.9V3813h47.9v-432.1C1415,3367.7,1404.3,3357,1391.1,3357z"></path><path fill="#a09f9f" d="M1657.6 4529.6c0 0 88.1 144.2 182.5 219-263.4-47.8-425-121.3-425-121.3l-3.3-103L1657.6 4529.6zM3251.4 4495.4c0 0-37.6-1266.5-151-1265-75.4.9-254.5 1200.5-254.5 1200.5s212.9 193.4 272 163.7S3251.4 4495.4 3251.4 4495.4z"></path><path fill="#a09f9f" d="M2825.5,4529.6c0,0-70,139.1-164.4,213.9c266.2-54.9,409.1-123.9,409.1-123.9l1.1-95.3L2825.5,4529.6z"></path><path fill="#720c0c" d="M2275.7,4586.4c-0.4,0-0.9,0-1.3,0l-893.6-46.5c-13.5-0.7-23.9-12.2-23.2-25.8c0.7-13.5,12.2-23.9,25.8-23.2
				l835.6,43.5c-31.9-40-77.5-105.7-115.2-193.2c-37.7-87.4-59.6-178.6-65-270.8c-6.1-103.4,8.5-208.4,43.4-312.7
				c-420.1,30.1-717.2,78.8-817.6,101c-13.2,2.9-26.3-5.4-29.2-18.7c-2.9-13.2,5.4-26.3,18.7-29.2c3-0.7,309-67.2,862.3-104.7
				c8.4-0.6,16.4,3.2,21.4,9.9c5,6.7,6.2,15.5,3.2,23.3c-41.6,109.4-59.5,219.8-53.1,328.1c5.1,86.6,25.7,172.1,61.1,254.3
				c60.3,140,143.2,221.7,144,222.5c7.3,7.1,9.4,18,5.3,27.4C2294.2,4580.7,2285.4,4586.4,2275.7,4586.4z"></path><path fill="#a09f9f" d="M2043.7,4126.9c0,2.6,35.6,258.1,183.7,409.8c-308.7-18.3-634-33.5-812.3-44.7s-358.9-79.2-427.7-312.9
				c5.1,9.6,77,163.5,459.3,181.7C1906.2,4382.8,2043.7,4126.9,2043.7,4126.9z"></path><path fill="#720c0c" d="M3092.7,3357c-13.2,0-23.9,10.7-23.9,23.9v1242.7h47.9V3380.9C3116.6,3367.7,3105.9,3357,3092.7,3357z"></path><path fill="#f4ae98" d="M2335.1,3468c0,0-6-152.5-91.9-409.5c-97.3-290.8,303.9-389.7,430-122.3
						c114.9,243.5,43.9,476.2,43.9,476.2S2584.8,3397.1,2335.1,3468z"></path><path fill="#720c0c" d="M2335.1,3492.6c-5.1,0-10.2-1.6-14.4-4.7c-6.1-4.4-9.8-11.4-10.1-18.9l0,0c-0.1-1.5-7.1-152.8-90.7-402.7
						c-22.7-67.9-21.6-132,3.2-185.3c22.3-47.9,63.5-85.9,116-107c60.3-24.2,131.2-24.6,194.6-1c49.6,18.5,117.9,60,161.7,152.8
						c33.9,71.9,73.1,189.4,67.4,340.8c-3.5,90.7-21.4,150.5-22.2,153c-3.5,11.3-14.5,18.6-26.3,17.2
						c-1.2-0.1-131.7-13.6-372.5,54.8C2339.6,3492.2,2337.3,3492.6,2335.1,3492.6z M2436.6,2804.5c-27.4,0-54.5,5-79.3,14.9
						c-71.7,28.8-133.3,104.7-90.9,231.3c64.9,194.1,84.8,328.6,90.7,385.7c180.6-48.4,295.9-51.2,341.2-49.8
						c5.3-23.4,13.4-67.3,15.5-123.6c2.8-77.7-5.8-195.7-62.8-316.4c-36.8-77.9-93.4-112.5-134.5-127.8
						C2490.8,2809.3,2463.5,2804.5,2436.6,2804.5z"></path><path fill="#f4ae98" d="M2149.8,4091.2c96.1,467,136.9,664.9,539.5,578.5c463.6-99.5,461.7-235.7,405.6-412.2
						c0,0,70.5-152-61.4-298.5l-0.1-0.5c63.3-186.6-61.4-298.5-61.4-298.5c-18.2-184.3-70.3-310.2-535.4-218.4
						c-404,79.7-363.2,277.6-267.1,744.6L2149.8,4091.2z"></path><path fill="#720c0c" d="M2528.9,4714c-11,0-21.6-0.4-31.9-1.1c-56.4-3.9-103.1-18.4-142.8-44.3
						c-60.9-39.7-104.3-104.7-140.8-210.5c-25.1-72.8-45.3-159.7-67.3-264.1c-0.3-0.9-0.5-1.8-0.7-2.7l-17.2-83.6
						c-0.8-3.8-1.6-7.7-2.4-11.6c-0.2-0.9-0.3-1.8-0.4-2.7c-21-104.6-36.8-192.4-42.5-269.2c-8.3-111.7,5.9-188.5,46.1-249
						c51.7-77.8,145-126.3,302.7-157.4c123.8-24.4,221.8-34.3,299.5-30.3c74.2,3.8,130.3,20.5,171.4,51.1
						c69.1,51.3,84.9,134.6,92.8,210.5c11.5,12.1,34.8,39.6,53.3,80.3c22.1,48.6,41.4,126.2,12.1,223.9
						c65.5,78.2,78.4,157.1,77.3,210.5c-0.9,44.7-11.4,79.1-17.2,94.8c22.7,72.9,41.1,155.6-2.1,230.1
						c-25.7,44.3-70.6,81.7-137.3,114.6c-69.8,34.4-163.7,64-287.1,90.5C2631.1,4707.3,2576.6,4714,2528.9,4714z M2183.6,4134.1
						c53,255.8,93.1,425.5,197.3,493.5c65.5,42.7,161.8,48.5,303.2,18.2c119.4-25.6,209.6-53.9,275.7-86.5
						c57.7-28.4,95.9-59.6,116.5-95.2c31.4-54.1,21.4-116.3-4.9-199c-1.9-5.8-1.5-12.2,1.1-17.7c0.1-0.3,15.9-35.6,16.5-86.6
						c0.8-67.5-24.1-129.8-73.9-185.1c-2.9-3.2-4.9-7.2-5.8-11.5l-0.1-0.5c-0.9-4.3-0.6-8.7,0.8-12.8
						c23.9-70.5,22.2-137.6-5.2-199.3c-20.7-46.6-49.2-72.8-49.4-73.1c-4.5-4.1-7.4-9.8-8-15.8c-8.5-86.4-23.9-147.4-74.1-184.8
						c-33.1-24.6-80.4-38.1-144.7-41.5c-73.7-3.8-167.7,5.8-287.5,29.4c-141.9,28-228.1,71.3-271.4,136.5
						C2100.9,3706,2131.2,3877.9,2183.6,4134.1z"></path><path fill="#f9e6e1" d="M2582.9,2946.6c-55-109.5-248.7-62.7-177.6,91C2479.7,3198.9,2691.9,3163.4,2582.9,2946.6z"></path><path fill="#ed9077" d="M2135.5,3859.5c0,0,120,527.3,317.8,635.4S3095,4387,3095,4387s31.4,115.6-189.5,198
						s-474.5,129.5-563.3,13C2239,4492,2168.5,4118.6,2135.5,3859.5z"></path><path fill="#ed9077" d="M3072.9 4252.6c0 0 22.8-69.3 14.5-127-122.6 124.9-419.2 181-511.4 157.6-92.2-23.4-53.4 133.5 127.9 97.6S3001.6 4292.2 3072.9 4252.6zM3014.3 3938.1c0 0 20.9-60.8 8.8-128.2-95.4 80.3-357.2 119.2-510.9 140.7-137.8 19.3-59.9 137.3 121.5 101.4C2815 4016.1 2942.9 3977.8 3014.3 3938.1zM2945 3634.7c0 0-3.2-36.5-18.4-81.2-179.9.2-311.7 10-489.7 82.7-101.8 41.5-59.5 118.1 121.8 82.2S2873.6 3674.3 2945 3634.7z"></path><path fill="#720c0c" d="M2647.1 4424.8c-11.8 0-22.2-8.5-24.2-20.5-2.2-13.4 6.8-26 20.2-28.2 357.4-59 434-131.7 434.7-132.4-.3.3-.4.4-.4.4l36.1 33.2c-7.8 8.5-87.5 85.3-462.4 147.2C2649.8 4424.7 2648.4 4424.8 2647.1 4424.8zM2559.9 4086.8c-11.3 0-21.4-7.8-23.9-19.3-2.9-13.2 5.5-26.3 18.7-29.2l473.4-103.6c13.2-2.9 26.3 5.5 29.2 18.7 2.9 13.2-5.5 26.3-18.7 29.2l-473.4 103.6C2563.4 4086.6 2561.6 4086.8 2559.9 4086.8zM2495.1 3747.5c-10.7 0-20.5-7-23.6-17.8-3.7-13 3.8-26.6 16.9-30.3 154.5-44.1 283.1-68.2 382.2-71.7 76.1-2.7 106.9 8.3 110.2 9.6l-17.7 45.7.4.1c-1.1-.4-111.6-36.5-461.6 63.3C2499.6 3747.2 2497.3 3747.5 2495.1 3747.5z"></path><path fill="#f9e6e1" d="M2134.1,3707.4c0,0,1.2-49.4,30.5-98.9c33.7-56.8,106.3-116.4,287.8-146.4
					c339.6-56.1,398.4-15.6,450.8,45.6c-76.1-67-306.2-23.6-453.2,8.5C2260.8,3557.5,2170,3610.9,2134.1,3707.4z"></path><path fill="#720c0c" d="M2905.4,1712.4c0,77.7-63,140.6-140.6,140.6c-77.7,0-140.6-62.9-140.6-140.6c0-77.7,63-140.6,140.6-140.6
			C2842.5,1571.8,2905.4,1634.8,2905.4,1712.4z"></path><path fill="#fff" d="M2768.2,1679.6c0,26.2-21.3,47.4-47.5,47.4c-26.2,0-47.4-21.2-47.4-47.4c0-26.2,21.2-47.4,47.4-47.4
			C2747,1632.1,2768.2,1653.4,2768.2,1679.6z"></path></svg>