<svg xmlns="http://www.w3.org/2000/svg" width="256" height="256" viewBox="0 0 5690.3 4976"><path fill="#720c0c" d="M2232.7 4839.2c-301.4 0-593.8-59-869.1-175.5-132.3-56-259.9-125.2-379.3-205.9-118.2-79.8-229.3-171.5-330.4-272.5-101-101-192.7-212.2-272.6-330.4-80.6-119.4-149.9-247-205.9-379.3C59 3200.3 0 2907.9 0 2606.5s59-593.8 175.5-869.1c56-132.3 125.2-259.9 205.9-379.3 79.9-118.2 171.6-229.4 272.6-330.4S866.1 835 984.3 755.2c119.4-80.6 247-149.9 379.3-205.9 275.3-116.4 567.7-175.5 869.1-175.5s593.8 59 869.1 175.5c132.3 56 259.9 125.2 379.3 205.9 118.2 79.9 229.4 171.6 330.4 272.6 101 101 192.7 212.2 272.6 330.4 80.6 119.4 149.9 247 205.9 379.3 116.4 275.3 175.5 567.7 175.5 869.1s-59 593.8-175.5 869.1c-56 132.3-125.2 259.9-205.9 379.3-79.9 118.2-171.6 229.4-272.6 330.4-101 101-212.2 192.7-330.4 272.6-119.4 80.6-247 149.9-379.3 205.9-275.3 116.3-567.7 175.3-869.1 175.3zm0-4367.3c-288.2 0-567.7 56.4-830.9 167.7-254.2 107.5-482.5 261.4-678.5 457.5-196.1 196.1-350 424.3-457.5 678.5-111.3 263.1-167.7 542.7-167.7 830.9s56.4 567.7 167.7 830.9c107.5 254.2 261.4 482.5 457.5 678.5 196.1 196.1 424.3 350 678.5 457.5 263.1 111.3 542.7 167.7 830.9 167.7s567.7-56.4 830.9-167.7c254.2-107.5 482.5-261.4 678.5-457.5 196.1-196.1 350-424.3 457.5-678.5 111.3-263.1 167.7-542.7 167.7-830.9s-56.4-567.7-167.7-830.9c-107.5-254.2-261.4-482.5-457.5-678.5-196.1-196.1-424.3-350-678.5-457.5-263.2-111.2-542.7-167.7-830.9-167.7z" class="color720c0c svgShape"/><circle cx="2232.7" cy="2606.5" r="2183.7" fill="#ff9300" class="colorff9300 svgShape"/><path fill="#fc0" d="M2228.6 524.7 2423.7 1708l659.6-1001.7-303.1 1160.4 1010-646.8-748.9 936.8L4227 1976.6l-1065.1 551.3 1156.5 317.7-1197.3 70.4 927.3 760.6L2926 3253.9 3463.7 4326l-853.4-842.7 55.2 1198.1-436.9-1117-436.9 1117 55.2-1198.1L993.5 4326l537.6-1072.1-1122.3 422.7L1336 2916l-1197.2-70.4 1156.4-317.7-1065.1-551.3 1185.7 180.1L667 1219.9l1009.9 646.8-303-1160.4L2033.5 1708z" class="colorfc0 svgShape"/><path fill="#720c0c" d="M1171.8 4929.8c-192.1 0-360.1-30.3-467.1-122.7-77.1-66.6-116.6-160.3-117.3-278.4 0-2.5.2-4.9.5-7.4 64.5-440.6 173.8-810.5 324.9-1099.5 124.2-237.7 277.4-422.6 455.3-549.5 99.5-71 261.3-161.2 466.8-187.8 108.7-14.1 185.2-4.4 205.2-1.3H2421c28.2-2.8 225.8-18.5 450.9 73.5 140.1 57.3 261.9 144.5 361.8 259.2 123.7 142.1 213.7 326.7 267.3 548.5 18.9 78-55.1 208.6-177.4 415.2-80.9 136.8-181.6 306.9-182.1 377 .2 9.4 2.8 122.3 5.6 242.5.5 20.6-12 39.4-31.2 46.9-137.4 53.5-263.9 93.8-386.7 123.1-178.9 42.8-347.6 61.3-501.4 55.1-115.1.1-273 22.4-440.1 46-204.3 28.8-422.3 59.6-615.9 59.6zm-486.3-398c1.2 87.9 28.5 153.7 83.3 201.1 78.9 68.1 215.4 100.3 417.5 98.7 184.2-1.6 389.3-30.5 587.7-58.5 171.1-24.1 332.8-47 454.8-47h2c145.1 6 305.1-11.7 475.6-52.5 108.8-26 221-61.1 341.8-106.8-2.6-111.8-4.8-208.7-4.8-208.7v-1.1c0-96.6 95.1-257.3 195.7-427.4 48-81.1 93.3-157.6 125.5-222.8 45.6-92.3 41.6-116.9 41-119.4-49.9-206.4-132.7-377-246-507.1-89.7-103.1-199-181.4-324.9-232.8-214.8-87.8-403.5-66.8-405.4-66.5-1.9.2-3.8.3-5.8.3H2036c-3 0-6.1-.3-9.1-.8-.6-.1-73.9-13-184.6 2-101.8 13.8-257.2 54.8-419.8 171.6-164.7 118.2-307.3 291.7-423.9 515.5-144.9 278-250.2 635.4-313.1 1062.2z" class="color720c0c svgShape"/><path fill="#ddd" d="M3092.5 4357c0-168 390.8-657.1 360.8-781.1-227-938.7-1029.7-843.7-1029.7-843.7H2036s-1106-208-1399.5 1796.2c3.5 605.4 1117.2 246.7 1592.3 246.7 339.9 13.9 674.5-99.1 869.3-174.9-3-125.5-5.6-243.2-5.6-243.2z" class="colorddd svgShape"/><path fill="#fff" d="M1814.3 2752.7c-274.8 20.7-706.3 203.5-997.5 1009.1 486.7-811.9 833.7-906.1 997.5-1009.1zm813 2.7c285.4 43.1 679.7 198.2 826.5 824-285.3-577.1-662.8-721-826.5-824z" class="colorfff svgShape"/><path fill="#720c0c" d="M2229.2 3189.3c-120.7 0-234.7-34.3-321.1-96.5-43.6-31.4-78-68.3-102.3-109.7-26-44.4-39.3-91.8-39.3-140.8 0-49.1 13.2-96.5 39.3-140.8 24.3-41.4 58.7-78.3 102.3-109.7 86.4-62.3 200.5-96.5 321.1-96.5s234.7 34.3 321.1 96.5c43.6 31.4 78 68.3 102.3 109.7 26 44.4 39.3 91.8 39.3 140.8 0 49.1-13.2 96.5-39.3 140.8-24.3 41.4-58.7 78.3-102.3 109.7-86.3 62.2-200.4 96.5-321.1 96.5zm0-596c-100.3 0-194 27.7-263.8 78-65 46.8-100.8 107.5-100.8 170.9 0 63.4 35.8 124.1 100.8 170.9 69.8 50.3 163.5 78 263.8 78 100.3 0 193.9-27.7 263.8-78 65-46.8 100.8-107.5 100.8-170.9 0-63.4-35.8-124.1-100.8-170.9-69.8-50.3-163.5-78-263.8-78z" class="color720c0c svgShape"/><ellipse cx="2229.2" cy="2842.2" fill="#ddd" class="colorddd svgShape" rx="413.6" ry="298"/><path fill="#720c0c" d="M3219.5 1529.7c-13.2 0-23.9 10.7-23.9 23.9v947.9h47.9v-947.9c-.1-13.2-10.8-23.9-24-23.9zm-596.4 3257.4c-13.5 0-24.5-11-24.5-24.5V3310.8L2224 3185.6c-10-3.3-16.7-12.7-16.7-23.3v-158.1c0-13.5 11-24.5 24.5-24.5s24.5 11 24.5 24.5v140.4l374.5 125.2c10 3.3 16.7 12.7 16.7 23.3v1469.4c.1 13.6-10.9 24.6-24.4 24.6zm-569.9-1310.4c-32.4 0-58.8 26.3-58.8 58.8 0 32.4 26.3 58.8 58.8 58.8 32.4 0 58.8-26.3 58.8-58.8-.1-32.5-26.4-58.8-58.8-58.8z" class="color720c0c svgShape"/><path fill="#720c0c" d="M2404.2 3594.2c32.4 0 58.8-26.3 58.8-58.8 0-32.4-26.3-58.8-58.8-58.8-32.4 0-58.8 26.3-58.8 58.8.1 32.5 26.4 58.8 58.8 58.8zm-351 274.3c-32.4 0-58.8 26.3-58.8 58.8 0 32.4 26.3 58.8 58.8 58.8 32.4 0 58.8-26.3 58.8-58.8-.1-32.5-26.4-58.8-58.8-58.8zm351 117.5c32.4 0 58.8-26.3 58.8-58.8 0-32.4-26.3-58.8-58.8-58.8-32.4 0-58.8 26.3-58.8 58.8.1 32.5 26.4 58.8 58.8 58.8zm-351 246.6c-32.4 0-58.8 26.3-58.8 58.8 0 32.4 26.3 58.8 58.8 58.8 32.4 0 58.8-26.3 58.8-58.8-.1-32.5-26.4-58.8-58.8-58.8zm351 117.5c32.4 0 58.8-26.3 58.8-58.8 0-32.4-26.3-58.8-58.8-58.8-32.4 0-58.8 26.3-58.8 58.8.1 32.5 26.4 58.8 58.8 58.8zm-122.4-1233.5h-112c-143 0-281.8-27.9-412.5-83-126.2-53.2-239.7-129.3-337.2-226.3s-174.3-210-228.1-335.9c-49.1-114.8-77.2-235.9-83.8-360.7-39.7-5.3-75.7-17.3-107.5-36.1-39.9-23.5-72.4-57-96.8-99.5-31.6-55.2-48.5-126.1-47.6-199.8.8-66.5 15.6-129.1 40.7-171.8 35.3-60 95.9-94.6 175.3-100 18.1-1.2 35.1-.8 49.9.4 40.6-235.1 159.7-450.3 339.2-610.8 195-174.4 446.5-270.4 708.4-270.4h112c260.1 0 510.5 94.9 704.9 267.3 180.4 159.9 300.7 375.3 342.1 610.7 15-.9 32.4-.9 51 .7 79.2 7.1 139.6 42.4 174.7 102.1 25.1 42.7 40 105.3 40.7 171.8.9 73.7-16.1 144.7-47.6 199.8-24.3 42.5-56.9 76-96.8 99.5-31.8 18.7-67.8 30.8-107.5 36.1-6.6 124.9-34.7 246.1-83.9 360.9-53.9 125.9-130.6 238.8-228.1 335.8s-211 173.1-337.2 226.3c-130.6 55-269.3 82.9-412.3 82.9zm-1126-1106.2h.2c26.9.1 48.7 21.9 48.9 48.8.8 129.7 26.8 255.4 77.4 373.6 48.9 114.3 118.6 216.9 207.1 304.9 88.6 88.1 191.6 157.2 306.1 205.5 118.6 50 244.5 75.3 374.4 75.3h112c129.8 0 255.7-25.3 374.3-75.3 114.5-48.3 217.5-117.4 306.1-205.4 88.5-88 158.2-190.6 207.1-304.8 50.6-118.2 76.7-243.9 77.5-373.5.2-26.9 21.9-48.6 48.8-48.8h.2c7.1 0 13.8 1.5 19.9 4.2 66.6-4.8 115.9-34.5 146.8-88.5 51.4-89.8 39-219.6 7.5-273.2-18.6-31.6-51.9-49.8-98.9-54.1-34.9-3.1-64.8 2.6-70.9 3.8-3 .8-6.2 1.3-9.4 1.5-25.9 1.7-48.5-17-51.8-42.7-29.6-230.8-142.3-443.3-317.3-598.4-176.6-156.3-403.8-242.5-640-242.5h-112c-237.7 0-466 87.2-643 245.4-175.6 157-287.5 371.6-315.2 604.4-3.1 25.9-25.9 44.9-52 43.1-9.9-.7-18.9-4.2-26.2-9.8-13.7-2.1-34.4-4.2-56.7-2.4-45.6 3.6-76.7 20.5-95.1 51.7-31.5 53.6-43.9 183.4 7.5 273.2 30.8 53.8 79.9 83.5 146.1 88.4 6.3-2.8 13.3-4.4 20.6-4.4z" class="color720c0c svgShape"/><path fill="#f4ae98" d="M3512.3 1628.4c-65.3-111.1-224.6-72.8-224.6-72.8v.1c-63.9-498.6-489.9-883.9-1005.8-883.9h-112c-519.1 0-947 390-1006.9 893l.1-4.9s-158.3-42.5-223.7 68.6c-65.3 111.1-57.8 436.3 216.4 436.3l.1-5.2c3.2 557.3 456 1008.1 1014 1008.1h112c558 0 1010.6-450.6 1014-1007.8l.1 4.9c274.1-.1 281.6-325.3 216.3-436.4z" class="colorf4ae98 svgShape"/><path fill="#ed9077" d="M2224.7 2758.7c-62.2 0-100.9-32.6-100.9-32.6s10.2 95.7 100.9 95.7 100.9-95.7 100.9-95.7-38.7 32.6-100.9 32.6zM1163.3 1561.2s339.2-54.9 502.9-326.2c475.2-89.7 1113.3-9 1113.3-9s195.7 292.3 508.8 329.5C3168.8 1122.4 2809.1 879 2306.2 879c-502.9 0-950 217.9-1142.9 682.2z" class="colored9077 svgShape"/><path fill="#720c0c" d="M2229.6 531.5c-1140.9 0-1156.9 1021.2-1156.9 1021.2l90.1 8.5s310.8-67.7 494.9-452.4c0 0 617-107.9 1153 0 184.1 384.7 477.1 446.8 477.1 446.8l91.1-4.9s-8.5-1019.2-1149.3-1019.2z" class="color720c0c svgShape"/><path fill="#ed9077" d="M1083.3 1917s-50.9-61.5 1.7-109 5.3-124.7-52.6-105.5c-57.9 19.2-60.8 200.1 50.9 214.5z" class="colored9077 svgShape"/><path fill="#f9e6e1" d="M1163.7 1561.2s-154.3-51.1-226.3 69-7 287.4.7 302.3c-23.8-76.2-44.6-396.7 222.1-337.9-.1-11.3 3.5-19.7 3.5-33.4z" class="colorf9e6e1 svgShape"/><path fill="#ed9077" d="M1155.9 2064.7s84.5 23 135.8 204.1c51.4 181.2 167.6 618.2 638.1 770.1-421.8-95.4-766.6-487.1-773.9-974.2zM3368.3 1917s50.9-61.5-1.7-109-5.3-124.7 52.6-105.5c57.9 19.2 60.8 200.1-50.9 214.5z" class="colored9077 svgShape"/><path fill="#f9e6e1" d="M3287.9 1561.2s154.4-51.4 226.4 68.7 6.9 287.6-.8 302.6c23.8-76.2 44.6-396.7-222.1-337.9.1-9.7-3.5-13.5-3.5-33.4z" class="colorf9e6e1 svgShape"/><path fill="#ed9077" d="M3295.9 2064.7s-84.5 23-135.8 204.1c-51.4 181.2-167.6 618.2-638.1 770.1 421.7-95.4 766.6-487.1 773.9-974.2z" class="colored9077 svgShape"/><path fill="#e04c34" d="M1422.7 1879.9c-64.2 0-116.3 23.5-116.3 52.5s52.1 52.4 116.3 52.4c64.2 0 116.3-23.5 116.3-52.4 0-29.1-52-52.5-116.3-52.5zm1606.2 0c-64.2 0-116.3 23.5-116.3 52.5s52.1 52.4 116.3 52.4c64.2 0 116.3-23.5 116.3-52.4 0-29.1-52.1-52.5-116.3-52.5z" class="colore04c34 svgShape"/><path fill="#720c0c" d="M1571.1 1451.3c-41.2 16.1-26.9 48.9 7.7 37.7 0 0 78.6-24.2 205.1 11.2 20.5 5.7 45.3 17.9 56.3 4.3 29.5-15.5-71.5-122.1-269.1-53.2zm1309.7 0c41.2 16.1 26.9 48.9-7.7 37.7 0 0-78.6-24.2-205.1 11.2-20.5 5.7-45.3 17.9-56.3 4.3-29.5-15.5 71.5-122.1 269.1-53.2zm-1735.5 46.5c-13.5-1-25.2 9.2-26.2 22.7-20.5 291.7-11.7 575.1-11.6 577.9.4 13.3 11.3 23.7 24.5 23.7h.8c13.5-.4 24.2-11.8 23.7-25.3-.1-2.8-8.8-283.8 11.6-572.9.8-13.5-9.3-25.2-22.8-26.1zm2187.7 22.7c-1-13.5-12.7-23.7-26.2-22.7s-23.7 12.7-22.7 26.2c20.3 289.1 11.6 570.1 11.6 572.9-.4 13.5 10.2 24.9 23.7 25.3h.8c13.2 0 24.1-10.5 24.5-23.7.1-2.9 8.8-286.3-11.7-578zM2227.5 2677h-.4c-60.4 0-140.5-17.6-178.9-101.2-3.5-7.7-.1-16.8 7.5-20.3 7.7-3.5 16.8-.1 20.3 7.6 25.3 55.3 76.1 83.3 151 83.3h.4c73.3 0 123.5-26.9 149.4-79.9 3.7-7.6 12.9-10.8 20.5-7.1 7.6 3.7 10.8 12.9 7.1 20.5-21.6 44.3-69.8 97.1-176.9 97.1zm-17-493.5zm1105.3-1023H1141.4c-1.3 0-2.5 0-3.8-.1-8.8-.7-217.4-18.6-318.1-171.1C757.7 895.6 751 775 799.8 631c61.1-180.7 203.2-282.1 410.8-293.4 103.7-5.6 198.3 12.9 248.4 25.4 26.2-38 77.6-102.7 159.6-167 72.8-57 155.1-102.5 244.8-135 111.3-40.4 234.2-61 365.2-61s253.9 20.6 365.2 61c89.7 32.5 172 78 244.8 135 82.1 64.3 133.4 129 159.6 167 50.1-12.5 144.6-31.1 248.4-25.4 207.6 11.3 349.7 112.8 410.8 293.4 48.7 144.1 42.1 264.6-19.8 358.3-100.7 152.5-309.2 170.4-318.1 171.1-1.2 0-2.5.1-3.7.1zm-2172.1-98.1h2169.7c17-1.8 172.5-20.9 242.6-127.6 44.1-67.1 46.9-158.7 8.4-272.4-26.3-77.6-71-136-132.9-173.7-50.8-30.9-114-48.8-187.9-53.1-131.5-7.7-251 30.6-252.2 31-22.6 7.4-47.3-2.5-58.5-23.5-.4-.7-48.4-87.6-158.8-172.9-64.5-49.9-137.5-89.6-217-118.1-99.8-35.8-210.3-53.9-328.6-54-118.2 0-228.8 18.2-328.6 54-79.5 28.5-152.5 68.3-217 118.1-110.4 85.4-158.4 172.2-158.9 173.1-11.2 21-35.8 30.7-58.5 23.3-1.1-.4-120.6-38.7-252.1-31-73.9 4.3-137.1 22.2-187.9 53.1-61.9 37.7-106.6 96.1-132.9 173.7-38.5 113.7-35.6 205.3 8.4 272.4 70.1 106.6 225.3 125.8 242.7 127.6z" class="color720c0c svgShape"/><path fill="#ddd" d="M3610.9 646.7C3478.4 255.1 2976.3 420 2976.3 420S2777.6 49.3 2228.6 49c-549.1.2-747.7 371-747.7 371S978.7 255.1 846.2 646.7c-145.6 430.5 295.2 464.7 295.2 464.7h2174.4s440.8-34.2 295.1-464.7z" class="colorddd svgShape"/><path fill="#720c0c" d="M3346 1302.8c-3.7 0-7.4-.4-11-1.3-413.4-95.2-786.9-143.5-1110.3-143.5-323.3 0-696.9 48.3-1110.3 143.5-14 3.2-28.8.1-40.3-8.5-11.5-8.6-18.7-21.8-19.7-36.2-3.6-55.9-4.6-97.4-3-123.6 1.1-17.3 3.3-53.4 35.1-67.1 3.4-1.5 7-2.6 10.6-3.3 29.3-11.2 138.6-50.9 310-90.9 181.8-42.4 471-92.9 816.2-92.9 345.1 0 637.3 50.5 821.6 92.9 175.8 40.4 287.9 80.6 316.3 91.2h.1c6 1.3 35.8 9.9 39.1 47.6.5 5.6.7 13 .5 23.4-.3 24.6-2.3 65.9-6 122.7-.9 14.4-8.1 27.6-19.7 36.2-8.4 6.4-18.7 9.8-29.2 9.8zM2224.7 1060c315.9 0 677.5 44.8 1075.8 133.2 1.1-20.8 1.7-35.9 2.1-46.8-46.3-16.1-144.7-47.8-282-79.3-178.9-41-462.5-89.9-797.4-89.9-334.7 0-615.1 48.8-791.5 89.8-141.5 32.9-240.5 66.1-282.8 81.4-.3 9.7-.3 24 .4 44.7 398.2-88.4 759.7-133.1 1075.4-133.1zM1071.8 1145s.1 0 0 0c.1 0 0 0 0 0zm2324-15.4z" class="color720c0c svgShape"/><path fill="#ddd" d="M3346 1253.7c10.2-157.6 4.2-142.3 4.2-142.3s-467.8-183.3-1126.9-183.3c-659.2 0-1115.7 183.3-1115.7 183.3s-14.4-15.4-4.2 142.3c284.4-65.5 702.9-144.7 1121.3-144.7 418.5 0 836.9 79.2 1121.3 144.7z" class="colorddd svgShape"/><path fill="#fff" d="M2700.8 249.7c-192.5-123.4-631.1-163.6-939.5-10.8-101.4 73.7 171.8 101.2 469.1 103 397.6 2.4 564.9-31.6 470.4-92.2zM1297.6 463.6c-144.6-25.1-387.2 64.7-404.2 321.7 3.4 143.9 150.7-42.3 234-123.7 100.8-98.6 308.9-173.9 170.2-198zm1854.5 0c144.6-25.1 387.2 64.7 404.2 321.7-3.4 143.9-150.7-42.3-234-123.7-100.8-98.6-309-173.9-170.2-198z" class="colorfff svgShape"/><path fill="#ed9077" d="M2399.8 2000.6h-365.7c-46.3 198 2.3 256 174.3 256h15.9c172.1.1 221.8-58 175.5-256z" class="colored9077 svgShape"/><path fill="#f4ae98" d="M2373.3 1944.9c-35.1-172.4-118.2-290.1-118.2-290.1l-195.7 290.1c-36.9 158.1 13.5 204.5 150.6 204.5h12.7c137.1-.1 183-45.4 150.6-204.5z" class="colorf4ae98 svgShape"/><path fill="#720c0c" d="M2222.7 2164.7H2210c-78.8 0-125.9-15.1-152.8-49.1-28.1-35.5-32.2-90.8-12.7-174.2 1.9-8.2 10.2-13.4 18.4-11.4 8.2 1.9 13.4 10.2 11.4 18.4-17.2 73.6-15 120.7 6.9 148.2 20.3 25.6 61.2 37.5 128.8 37.5h12.7c67 0 105.8-11 126-35.7 21.9-26.8 25-74.6 9.5-150.3-34-167-114.9-283.1-115.7-284.3-4.9-6.9-3.2-16.5 3.7-21.4 6.9-4.9 16.5-3.2 21.4 3.7 3.5 4.9 85.4 122.3 120.7 295.9 17.6 86.6 12.7 140.9-15.8 175.8-26.6 32.4-72.7 46.9-149.8 46.9zm-20.4 27.7zm645.7 83.3c-55.1 108.4-236.2 142.9-330.7 54.2-130.3-122.3-173.7-153.9-299-153.9-125.3 0-168.7 31.6-299 153.9-94.5 88.7-275.6 54.2-330.7-54.2-55.1-108.4-103.6 295.4 304 295.4 221.3 0 324.9-116.1 325.7-117.1.8.9 104.4 117.1 325.7 117.1 407.6 0 359.1-403.8 304-295.4zm-207.9-480.9s111.6-122 240.8-21.6c25.2 15 44.3-19.7 13.8-44.1-30.6-24.4-152.9-119.1-276-4.7-41.3 38.5-5.3 97.6 21.4 70.4zm-818.2 0s-111.6-122-240.8-21.6c-25.2 15-44.3-19.7-13.8-44.1 30.6-24.4 152.9-119.1 276-4.7 41.3 38.5 5.4 97.6-21.4 70.4z" class="color720c0c svgShape"/><path fill="#a09f9f" d="M1564 4345.7s-104.9-713.5-150.2-1003-108.3-112.3-124.1 92.6-29.5 419.5-29.5 419.5-279.7-59.1-441.2 68.9c260-37.4 437.2 23.6 437.2 23.6s-301.9-21.9-412.3 42.7c-156.1 91.3 369.3-48.2 427.8 103.2 21 54.2-318.9-57.3-586.8 159.3-20.8 88.3-27.7 153.6-27.7 153.6s61.6-224.6 906.8-60.4zm1497.1-1005.2c45.3-289.5 108.8-112.3 124.1 92.6 7.9 105.9 12 160.5 12 160.5s87.6-39.1 226.6-12.4c-89.6 26.8-213.2 126.7-226.6 195.7-13.4 69 36.1-34 122.6-49.4 86.5-15.5-138 309-184.4 494.5-36.1 52.5-42.2 91.7-43.3 94.8-1 3.1 5.9 283.5 5.9 283.5l-97.6 37.9s-87.5-38.2-178.5-75.7c146-364.4 193.9-932.5 239.2-1222z" class="colora09f9f svgShape"/><path fill="#720c0c" d="M1362.6 3357c-13.2 0-23.9 10.7-23.9 23.9v988h47.9v-988c-.1-13.2-10.8-23.9-24-23.9z" class="color720c0c svgShape"/><path fill="#720c0c" d="M721.2 4016.9c-3.5 0-7-1.2-9.9-3.7-6.4-5.5-7.2-15.1-1.8-21.5 1.8-2.1 44.5-51.5 147.4-79.7 59.4-16.2 127.1-22.2 201.2-17.6 91.9 5.7 194 27.6 303.5 65.2 8 2.7 12.3 11.5 9.5 19.5-2.7 8-11.5 12.3-19.5 9.5-106-36.4-204.6-57.7-293.1-63.4-70.4-4.6-134.6.7-190.7 15.6-49.7 13.2-83.7 31.8-103.6 45-21.4 14.3-31.3 25.6-31.4 25.7-2.9 3.5-7.2 5.4-11.6 5.4zm-52.7 220.5c-3.2 0-6.4-1-9.2-3.1-6.8-5.1-8.2-14.7-3.1-21.4 1.4-1.9 35-46.2 105.7-90.4 64.8-40.4 174.7-88.4 330.1-87.4 8.5.1 15.3 7 15.2 15.4-.1 8.4-6.9 15.2-15.3 15.2h-.1c-147.3-.9-251.2 44.1-312.4 82-66.4 41.2-98.4 83.1-98.7 83.6-3 4-7.6 6.1-12.2 6.1z" class="color720c0c svgShape"/><path fill="#f4ae98" d="M794.2 4869.8c270.6 154.2 726.8 69.8 1769.6-84.8 325.2-51.5 438.4-116.4 438.4-116.4s-315.7-165-566.8-196.1c-574.3-71.1-1101.9-160.5-1453.9-195.1-357.9-35.3-535.2 394.2-187.3 592.4z" class="colorf4ae98 svgShape"/><path fill="#720c0c" d="M1193.5 4976c-177.1 0-306.7-25.3-411.4-85-84-47.9-144.9-112.8-176.2-187.9-28.8-69.1-32-143.4-9.3-214.8 23.1-72.7 72.1-136.2 137.9-178.8 71.2-46.1 157.5-65.7 249.6-56.6 191.2 18.8 430.2 53.2 707 93 227.1 32.6 484.5 69.7 747.5 102.2 252.6 31.3 562.1 191.9 575.1 198.7 7.9 4.2 13 12.3 13.2 21.3.2 9-4.6 17.3-12.3 21.8-4.8 2.7-120.9 67.7-446.8 119.4h-.2c-79.9 11.8-155.9 23.2-229.5 34.2-528.6 79-886.9 132.5-1144.6 132.5zm-252.9-676.2c-66.3 0-127.7 17.3-179.5 50.9-56.3 36.5-98.1 90.6-117.8 152.5-32.8 103.3-7.2 248.2 163.1 345.2 116.4 66.3 271.8 88.6 519.4 74.4 242.4-13.9 562.2-61.7 1004.9-127.9 73.5-11 149.6-22.4 229.4-34.2 205.4-32.6 325.4-70.7 384.2-93.4-96.3-46.1-324.2-147.3-511.9-170.5-263.5-32.6-521.2-69.7-748.5-102.3-276.2-39.7-514.7-74-704.8-92.7-12.9-1.3-25.8-2-38.5-2z" class="color720c0c svgShape"/><path fill="#ed9077" d="M632.8 4560s-40 285.9 370.4 353.7c421.3 69.7 1692.5-176.5 1692.5-176.5s-73.6-91.6-120-140.7c-46.4-49.1-146.4 79-1137.5 120.1-683.9 0-805.4-156.6-805.4-156.6z" class="colored9077 svgShape"/><path fill="#f9e6e1" d="M975 4299.7c-62.5-7.2-146.8.5-235.1 66 150.8-37.2 1356.3 87.1 1356.3 87.1s-251.5-35.1-673-96.4c-123.9-18.1-270.1-36.2-448.2-56.7z" class="colorf9e6e1 svgShape"/><path fill="#720c0c" d="M1366.6 4237.4c-2.6 0-5.3-.7-7.7-2.1-.5-.3-33.3-19-94.8-32.8-56.9-12.7-150.8-23.7-274.6-3.5-8.4 1.3-16.2-4.3-17.6-12.7-1.4-8.4 4.3-16.2 12.7-17.6 248.7-40.5 384.2 36.7 389.8 40.1 7.3 4.3 9.8 13.7 5.5 21-2.9 4.9-8 7.6-13.3 7.6zm1749.3 143.8c-.9 0-1.9-.1-2.8-.2-12.3-1.4-21.6-11.7-21.8-24.1-2-172.7-1.4-977-1.4-985.1 0-13.5 11-24.5 24.5-24.5s24.5 11 24.5 24.5c0 6.4-.4 516.7.4 811.8 44.3-135.9 100.9-264.3 169-383.3 66.7-116.5 125.1-189.1 147.2-214.9.5-.5.8-.9 1-1.2 8.1-10.2 22.8-12.4 33.5-4.7 11 7.9 13.6 23.2 5.7 34.2-.7 1-1.3 1.7-2.9 3.6-40.2 47.1-246.2 304.2-353.3 745.1-2.5 11.2-12.4 18.8-23.6 18.8zm340.7-796.8c-.3.4-.5.7-.6.8.2-.2.4-.5.6-.8z" class="color720c0c svgShape"/><path fill="#720c0c" d="M3129.6 3804.6c-2.5 0-5.1-.6-7.4-1.9-7.4-4.1-10-13.4-5.9-20.8 1.1-2 27.6-49.1 85.8-100.7 53.5-47.4 145.1-107.7 277.7-125.5 8.4-1.1 16.1 4.8 17.2 13.2 1.1 8.4-4.8 16.1-13.2 17.2-124.4 16.7-210.3 72.9-260.4 117.2-54.6 48.2-80.1 93.1-80.3 93.5-2.9 5-8.2 7.8-13.5 7.8zm-9.5 218.4c-1.6 0-3.3-.3-5-.8-8-2.7-12.3-11.5-9.5-19.5.6-1.8 15.2-44 43.6-95.4 38.6-69.8 82.3-120.6 129.9-151 7.1-4.6 16.6-2.5 21.2 4.7 4.6 7.1 2.5 16.6-4.7 21.2-103.9 66.4-160.5 228.9-161 230.5-2.2 6.3-8.1 10.3-14.5 10.3z" class="color720c0c svgShape"/><path fill="#f4ae98" d="M3634.5 4500.3c283.7-235.8 374.2-892.1 526.6-1743.4 125.8 16 260.4 19.8 306 9.7 312.3-69.2 412.7-92.9 362.2-168.6-57.9-86.9-830.2-30.4-830.2-30.4S3340.7 3670 3140.2 4251.7c-113.4 329.1 260.9 442.6 494.3 248.6z" class="colorf4ae98 svgShape"/><path fill="#720c0c" d="M3378.3 4619.7c-68.2 0-131.3-18.1-180.8-52.3-46.1-31.9-78.3-76.7-93.1-129.5-16.1-57.6-11.8-122.9 12.8-194.1 104.1-302.1 332.8-745.3 506.3-1063.9 187.7-344.7 353.1-622 354.8-624.8 4.1-6.9 11.3-11.3 19.3-11.9 1.9-.1 196.1-14.2 394.8-17.4 117.1-1.9 213.1.3 285.2 6.5 101 8.7 154.2 24.8 172.4 52.2 16.5 24.7 20.6 47.7 12.4 68.3-21.7 53.9-117 77.5-389.7 137.9-46.4 10.3-171.1 7.3-291.3-6.5-12.8 71.7-25.2 142.2-37.2 210.6-65.5 372.2-122.1 693.7-195.4 953.5-81.2 287.9-176 469.3-298.4 571-67.2 55.8-150.6 90.9-234.9 98.8-12.7 1.1-25 1.6-37.2 1.6zm635.4-2028.5c-32.4 54.7-181.1 306.9-347.3 612.2-172.6 316.9-399.9 757.4-502.9 1056.3-21.3 61.7-25.3 117.2-11.9 164.9 11.8 42.3 36.7 76.8 73.8 102.4 48.9 33.8 114.7 48.7 185.4 42.1 74.6-7 148.5-38.2 208.1-87.7 114.4-95.1 204.1-268.7 282.5-546.6 72.6-257.5 129-577.8 194.3-948.7 13.3-75.7 27.1-153.9 41.3-233.5 2.3-12.9 14.3-21.7 27.2-20 130.4 16.6 259.1 18.6 297.6 10.1 127.6-28.3 209.2-46.7 267.6-64.6 69.1-21.2 84.3-36.5 87.2-43.7 2.3-5.8-2.9-15.6-7.7-22.8-.6-.8-15-20.2-136.2-30.6-70.4-6-164.6-8.1-280-6.3-168 2.8-332.8 13.4-379 16.5zm-379.2 1909.1z" class="color720c0c svgShape"/><ellipse cx="4222" cy="2335.9" fill="#a09f9f" class="colora09f9f svgShape" rx="1443.8" ry="286.2"/><path fill="#720c0c" d="M4222 2646.6c-387.2 0-751.5-29.9-1025.7-84.3-134.5-26.7-240.5-57.9-315.1-92.8-84.7-39.7-127.6-84.6-127.6-133.6s42.9-93.9 127.6-133.6c74.5-34.9 180.5-66.1 315.1-92.8 274.2-54.4 638.5-84.3 1025.7-84.3s751.5 29.9 1025.7 84.3c134.5 26.7 240.5 57.9 315.1 92.8 84.7 39.7 127.6 84.6 127.6 133.6s-42.9 93.9-127.6 133.6c-74.5 34.9-180.5 66.1-315.1 92.8-274.3 54.4-638.5 84.3-1025.7 84.3zm0-572.3c-384.1 0-745 29.6-1016.2 83.4-297.2 58.9-403.1 130.7-403.1 178.3s105.9 119.4 403.1 178.3c271.2 53.8 632.1 83.4 1016.2 83.4s745-29.6 1016.2-83.4c297.2-58.9 403.1-130.7 403.1-178.3s-105.9-119.4-403.1-178.3c-271.3-53.8-632.1-83.4-1016.2-83.4z" class="color720c0c svgShape"/><path fill="#ddd" d="M5347.3 2210.6c0 107.3-503.8 194.3-1125.4 194.3s-1125.4-87-1125.4-194.3c0-107.3 91.8-1048.2 1125.4-1048.2s1125.4 940.9 1125.4 1048.2z" class="colorddd svgShape"/><path fill="#720c0c" d="M4222 2429.4c-302 0-586-20.3-799.9-57.3-105.1-18.1-188-39.4-246.3-63.2-69.8-28.5-103.7-60.6-103.7-98.3 0-31.5 6.6-112.1 31.2-214.8 31.7-132.3 81.3-254.2 147.5-362.4 89.1-145.5 205.8-261.1 346.9-343.5 172.8-100.9 382.8-152 624.3-152 241.4 0 451.5 51.1 624.3 152 141.2 82.4 257.9 198 346.9 343.5 66.2 108.2 115.8 230.1 147.5 362.4 24.6 102.7 31.2 183.3 31.2 214.8 0 37.7-33.9 69.8-103.7 98.3-58.3 23.8-141.2 45.1-246.3 63.2-213.9 36.9-498 57.3-799.9 57.3zm0-1242.5c-232.6 0-434.3 48.9-599.5 145.3-134.1 78.3-245.1 188.2-329.8 326.8-63.5 103.8-111.2 220.9-141.7 348.2-23.6 98.4-29.8 176-29.8 203.3 0 20.7 64.6 71 309.3 113.2 211.2 36.5 492.3 56.5 791.6 56.5s580.4-20.1 791.6-56.5c244.6-42.2 309.3-92.5 309.3-113.2 0-27.3-6.2-104.9-29.8-203.3-30.5-127.3-78.2-244.4-141.7-348.2-84.8-138.6-195.8-248.5-329.8-326.8-165.4-96.4-367.1-145.3-599.7-145.3z" class="color720c0c svgShape"/><ellipse cx="4222" cy="1036.3" fill="#ddd" class="colorddd svgShape" rx="128.5" ry="117.1"/><path fill="#720c0c" d="M4222 1180c-85.5 0-155-64.5-155-143.7 0-79.2 69.6-143.7 155-143.7 85.5 0 155 64.5 155 143.7 0 79.2-69.6 143.7-155 143.7zm0-234.3c-56.2 0-101.9 40.6-101.9 90.6 0 49.9 45.7 90.6 101.9 90.6s101.9-40.6 101.9-90.6c0-49.9-45.8-90.6-101.9-90.6z" class="color720c0c svgShape"/><path fill="#a09f9f" d="M3239.1 1761.3s.1 0 0 0c-.1-.2-.1-.2 0 0zm1964.6-7.6s0 .1 0 0c.1-.2.1-.2 0 0zm0 .1c-4.2 10.5-229.1 494-975.7 494h-15.7c-746.3 0-968.9-475.9-973.2-486.4-.8 1.5-127.2 235.4-120.2 454.8 2.6-.3 48.3 86.4 539.9 144.4 88.5 10.5 195.7 15 314.6 16.8h-19.2 19.9c77.7 1.2 160.4 1.2 246.1.9 85.7.3 168.4.3 246.1-.9h19.9-19.2c118.8-1.8 226-6.4 314.6-16.8 491.6-58.1 540.8-139.7 543.4-139.5 7-219.4-120.5-465.8-121.3-467.3z" class="colora09f9f svgShape"/><path fill="#fff" d="M4689.6 1372.1c-192.5-123.4-631.1-163.6-939.5-10.8-101.4 73.7 171.8 101.2 469.1 103 397.6 2.4 564.9-31.6 470.4-92.2z" class="colorfff svgShape"/><path fill="#f9e6e1" d="M3150.1 4308.7s23.4-93.8 98.8-271.4c101.6-239.1 337-709.8 587-1138.8 0 0-403.4 1101.9-685.8 1410.2z" class="colorf9e6e1 svgShape"/><path fill="#ed9077" d="M3142.2 4359.2s159 111.6 342.3 4.8c221.6-129.1 550.3-1033.4 550.3-1033.4s-105.6 611.1-235.2 900.6c-44.7 99.9-130.9 232.9-232 289.6-191.9 107.5-423.8 46.4-425.4-161.6z" class="colored9077 svgShape"/></svg>