<svg xmlns="http://www.w3.org/2000/svg" enable-background="new 0 0 4465.4 4835.9" viewBox="0 0 4465.4 4835.9" id="chef"><path fill="#720c0c" d="M2232.7,4835.9c-301.4,0-593.8-59-869.1-175.5c-132.3-56-259.9-125.2-379.3-205.9
				c-118.2-79.9-229.4-171.6-330.4-272.6c-101-101-192.7-212.2-272.6-330.4c-80.6-119.4-149.9-247-205.9-379.3
				C59,3197,0,2904.5,0,2603.2s59-593.8,175.5-869.1c56-132.3,125.2-259.9,205.9-379.3c79.9-118.2,171.6-229.4,272.6-330.4
				s212.2-192.7,330.4-272.6c119.4-80.6,247-149.9,379.3-205.9c275.3-116.4,567.7-175.5,869.1-175.5s593.8,59,869.1,175.5
				c132.3,56,259.9,125.2,379.3,205.9c118.2,79.9,229.4,171.6,330.4,272.6c101,101,192.7,212.2,272.6,330.4
				c80.6,119.4,149.9,247,205.9,379.3c116.4,275.3,175.5,567.7,175.5,869.1s-59,593.8-175.5,869.1
				c-56,132.3-125.2,259.9-205.9,379.3c-79.9,118.2-171.6,229.4-272.6,330.4c-101,101-212.2,192.7-330.4,272.6
				c-119.4,80.6-247,149.9-379.3,205.9C2826.5,4776.8,2534.1,4835.9,2232.7,4835.9z M2232.7,468.6c-288.2,0-567.7,56.4-830.9,167.7
				c-254.2,107.5-482.5,261.4-678.5,457.5c-196.1,196.1-350,424.3-457.5,678.5C154.5,2035.4,98.1,2315,98.1,2603.2
				s56.4,567.7,167.7,830.9c107.5,254.2,261.4,482.5,457.5,678.5c196.1,196.1,424.3,350,678.5,457.5
				c263.1,111.3,542.7,167.7,830.9,167.7s567.7-56.4,830.9-167.7c254.2-107.5,482.5-261.4,678.5-457.5
				c196.1-196.1,350-424.3,457.5-678.5c111.3-263.1,167.7-542.7,167.7-830.9s-56.4-567.7-167.7-830.9
				c-107.5-254.2-261.4-482.5-457.5-678.5c-196.1-196.1-424.3-350-678.5-457.5C2800.4,525,2520.9,468.6,2232.7,468.6z"></path><circle cx="2232.7" cy="2603.2" r="2183.7" fill="#fc0"></circle><polygon fill="#ff9300" points="2232.7 690.3 2321.5 1474.9 2531.9 713.9 2496.9 1502.7 2823.8 784 2665.8 1557.6 3101.1 898.8 2824 1638.2 3357 1055.7 2967.7 1742.6 3585.3 1250.6 3093.3 1868.2 3780.2 1478.8 3197.6 2011.8 3937 1734.8 3278.3 2170.1 4051.9 2012.1 3333.1 2339 4122 2303.9 3360.9 2514.4 4145.5 2603.2 3360.9 2692 4122 2902.4 3333.1 2867.4 4051.9 3194.2 3278.3 3036.2 3937 3471.6 3197.6 3194.5 3780.2 3727.5 3093.3 3338.1 3585.3 3955.7 2967.7 3463.7 3357 4150.7 2824 3568.1 3101.1 4307.5 2665.8 3648.7 2823.8 4422.4 2496.9 3703.6 2531.9 4492.4 2321.5 3731.4 2232.7 4516 2143.9 3731.4 1933.5 4492.4 1968.5 3703.6 1641.6 4422.4 1799.6 3648.7 1364.3 4307.5 1641.4 3568.1 1108.4 4150.7 1497.7 3463.7 880.1 3955.7 1372.1 3338.1 685.2 3727.5 1267.8 3194.5 528.4 3471.6 1187.1 3036.2 413.5 3194.2 1132.3 2867.4 343.4 2902.4 1104.5 2692 319.9 2603.2 1104.5 2514.4 343.4 2303.9 1132.3 2339 413.5 2012.1 1187.1 2170.1 528.4 1734.8 1267.8 2011.8 685.2 1478.8 1372.1 1868.2 880.1 1250.6 1497.7 1742.6 1108.4 1055.7 1641.4 1638.2 1364.3 898.8 1799.6 1557.6 1641.6 784 1968.5 1502.7 1933.5 713.9 2143.9 1474.9"></polygon><path fill="#720c0c" d="M2241.5,4834.9h-0.3c-27.1,0-49.1-22-49.1-49c0-26.9,21.6-48.7,48.4-49c0.5,0,1.1,0,1.6,0
					c26.8,0.4,48.4,22.2,48.4,49C2290.5,4812.9,2268.6,4834.9,2241.5,4834.9z M2241.7,4736.8
					C2241.7,4736.8,2241.7,4736.8,2241.7,4736.8L2241.7,4736.8z M2241.6,4736.8C2241.6,4736.8,2241.6,4736.8,2241.6,4736.8
					C2241.6,4736.8,2241.6,4736.8,2241.6,4736.8z M2241.6,4736.8C2241.6,4736.8,2241.6,4736.8,2241.6,4736.8
					C2241.6,4736.8,2241.6,4736.8,2241.6,4736.8z M2241.5,4736.8C2241.5,4736.8,2241.5,4736.8,2241.5,4736.8
					C2241.5,4736.8,2241.5,4736.8,2241.5,4736.8z M2241.5,4736.8C2241.5,4736.8,2241.5,4736.8,2241.5,4736.8
					C2241.5,4736.8,2241.5,4736.8,2241.5,4736.8z"></path><path fill="#ddd" d="M2241.5,4785.8c0,0-0.1,0-0.1,0s-0.1,0-0.1,0H2241.5z"></path><path fill="#720c0c" d="M2241.4,4834.9c-138.4,0-355.5-14-604-80.4c-149.3-39.9-238.7-79.6-242.4-81.3c-17.6-7.9-29-25.4-29-44.8
					V3601.7c-273.6-6.3-507.5-65.4-695.8-176c-169.2-99.4-304-241.5-400.7-422.6C94,2674.8,83.1,2292.9,77.8,2109.4
					c-0.5-16.7,7.6-32.5,21.3-41.9c13.8-9.4,31.4-11.2,46.8-4.7c93.7,39.5,172.1,47.9,221.7,47.9c0.4,0,0.7,0,1.1,0
					c51.8-0.1,83.3-9.1,85.8-9.9c14.9-5,31.1-2.4,43.9,6.7c12.9,9.2,20.2,24.2,20.2,40c0,110.8,18.6,209.9,55.3,294.4
					c32.3,74.5,79.5,139.6,140.3,193.5c64.9,57.6,146.7,103.8,243,137.4c78.5,27.3,166.6,46.3,262,56.5
					c164.3,17.4,294.3,2.3,295.6,2.1c1.9-0.2,3.9-0.4,5.9-0.4h1441.5c2,0,3.9,0.1,5.9,0.4c1.3,0.2,131.3,15.3,295.6-2.1
					c95.4-10.1,183.6-29.1,262-56.5c96.3-33.5,178-79.7,243-137.4c60.8-53.9,108-119,140.3-193.5c36.7-84.5,55.3-183.6,55.3-294.4
					c0-15.8,7.3-30.8,20.2-40c12.8-9.2,28.9-11.8,43.9-6.7c2.5,0.7,34,9.7,85.8,9.9c0.4,0,0.7,0,1.1,0c49.6,0,128-8.4,221.7-47.9
					c15.4-6.5,33-4.7,46.8,4.7c13.8,9.4,21.8,25.2,21.3,41.9c-5.2,183.5-16.2,565.4-191.6,893.8c-96.7,181-231.6,323.2-400.7,422.6
					c-188.3,110.6-422.1,169.7-695.7,176c0.2,227.6,1.5,1007.2,1.5,1015.8c0,18.9-10.8,36.2-27.9,44.4c-3.8,1.8-93.7,44.3-243.5,87
					C2709.2,4788.1,2492.4,4834.9,2241.4,4834.9z M1464,4595.6c36.7,14.3,106.6,39.7,201,64.8c131,34.8,337.3,76.4,576.3,76.4
					c131.7,0,338.6-14.2,576.3-81.6c95.5-27.1,166-54.4,202.5-69.7c-0.3-166.1-1.5-922.6-1.5-1032.3c0-27.1,22-49.1,49.1-49.1
					c277.1,0,510.9-54.8,695.1-163c153.4-90.1,275.8-219.3,363.9-384.2c144.5-270.5,170.2-585.9,177.7-778
					c-104.7,32.4-190,32.7-243.8,27c-11.7,210.7-88.1,379.8-227.3,503.2c-74.9,66.4-168.1,119.1-277.1,156.9
					c-85.8,29.7-181.7,50.3-284.9,61.1c-162.4,17-290.3,4.5-312.1,2.1H1523.4c-21.8,2.4-149.7,14.9-312.1-2.1
					c-103.2-10.8-199-31.3-284.9-61.1c-109-37.8-202.2-90.5-277.1-156.9c-139.3-123.4-215.6-292.5-227.3-503.2
					c-53.8,5.7-139.1,5.4-243.8-27c7.5,192.1,33.2,507.5,177.7,778c88.1,164.9,210.5,294.1,363.9,384.2
					c184.2,108.2,418.1,163,695.1,163c27.1,0,49.1,22,49.1,49.1V4595.6z"></path><path fill="#ddd" d="M4013.2,2147.5c0,859.9-1051.1,732.6-1051.1,732.6H1520.6c0,0-1051.1,127.4-1051.1-732.6
					c0,0-140.7,45.7-342.6-39.5c11.4,398.5,54.8,1445.2,1288.1,1445.2c0,124.1,0,1075.3,0,1075.3s351.4,157.3,826.4,157.4
					c475,0,827.9-168.3,827.9-168.3s-1.5-940.3-1.5-1064.4c1233.3,0,1276.7-1046.7,1288.1-1445.2
					C4153.9,2193.2,4013.2,2147.5,4013.2,2147.5z"></path><path fill="#720c0c" d="M2243.9,3189.3c-120.7,0-234.7-34.3-321.1-96.5c-43.6-31.4-78-68.3-102.3-109.7
				c-26-44.4-39.3-91.8-39.3-140.8c0-49.1,13.2-96.5,39.3-140.8c24.3-41.4,58.7-78.3,102.3-109.7c86.4-62.3,200.5-96.5,321.1-96.5
				s234.7,34.3,321.1,96.5c43.6,31.4,78,68.3,102.3,109.7c26,44.4,39.3,91.8,39.3,140.8c0,49.1-13.2,96.5-39.3,140.8
				c-24.3,41.4-58.7,78.3-102.3,109.7C2478.6,3155,2364.6,3189.3,2243.9,3189.3z M2243.9,2593.3c-100.3,0-194,27.7-263.8,78
				c-65,46.8-100.8,107.5-100.8,170.9c0,63.4,35.8,124.1,100.8,170.9c69.8,50.3,163.5,78,263.8,78c100.3,0,194-27.7,263.8-78
				c65-46.8,100.8-107.5,100.8-170.9c0-63.4-35.8-124.1-100.8-170.9C2437.8,2621,2344.1,2593.3,2243.9,2593.3z"></path><ellipse cx="2243.9" cy="2842.2" fill="#ddd" rx="413.6" ry="298"></ellipse><path fill="#720c0c" d="M3234.2 1529.7c-13.2 0-23.9 10.7-23.9 23.9v947.9h47.9v-947.9C3258.1 1540.4 3247.4 1529.7 3234.2 1529.7zM2637.8 4787.1c-13.5 0-24.5-11-24.5-24.5V3310.8l-374.5-125.2c-10-3.3-16.7-12.7-16.7-23.3v-158.1c0-13.5 11-24.5 24.5-24.5 13.5 0 24.5 11 24.5 24.5v140.4l374.5 125.2c10 3.3 16.7 12.7 16.7 23.3v1469.4C2662.3 4776.1 2651.3 4787.1 2637.8 4787.1zM2067.9 3486.5c-32.4 0-58.8 26.3-58.8 58.8 0 32.4 26.3 58.8 58.8 58.8 32.4 0 58.8-26.3 58.8-58.8C2126.6 3512.8 2100.3 3486.5 2067.9 3486.5zM2067.9 3973.4c-32.4 0-58.8 26.3-58.8 58.8 0 32.4 26.3 58.8 58.8 58.8 32.4 0 58.8-26.3 58.8-58.8C2126.6 3999.7 2100.3 3973.4 2067.9 3973.4zM2067.9 4460.3c-32.4 0-58.8 26.3-58.8 58.8 0 32.4 26.3 58.8 58.8 58.8 32.4 0 58.8-26.3 58.8-58.8C2126.6 4486.6 2100.3 4460.3 2067.9 4460.3z"></path><path fill="#720c0c" d="M2418.9 3604c32.4 0 58.8-26.3 58.8-58.8 0-32.4-26.3-58.8-58.8-58.8-32.4 0-58.8 26.3-58.8 58.8C2360.1 3577.7 2386.4 3604 2418.9 3604zM2418.9 4091.6c32.4 0 58.8-26.3 58.8-58.8 0-32.4-26.3-58.8-58.8-58.8-32.4 0-58.8 26.3-58.8 58.8C2360.1 4065.3 2386.4 4091.6 2418.9 4091.6zM2418.9 4579.1c32.4 0 58.8-26.3 58.8-58.8 0-32.4-26.3-58.8-58.8-58.8-32.4 0-58.8 26.3-58.8 58.8C2360.1 4552.8 2386.4 4579.1 2418.9 4579.1zM2296.5 3116.6h-112c-143 0-281.8-27.9-412.5-83-126.2-53.2-239.7-129.3-337.2-226.3-97.5-97-174.3-210-228.1-335.9-49.1-114.8-77.2-235.9-83.8-360.7-39.7-5.3-75.7-17.3-107.5-36.1-39.9-23.5-72.4-57-96.8-99.5-31.6-55.2-48.5-126.1-47.6-199.8.8-66.5 15.6-129.1 40.7-171.8 35.3-60 95.9-94.6 175.3-100 18.1-1.2 35.1-.8 49.9.4 40.6-235.1 159.7-450.3 339.2-610.8 195-174.4 446.5-270.4 708.4-270.4h112c260.1 0 510.5 94.9 704.9 267.3 180.4 159.9 300.7 375.3 342.1 610.7 15-.9 32.4-.9 51 .7 79.2 7.1 139.6 42.4 174.7 102.1 0 0 0 0 0 0 25.1 42.7 40 105.3 40.7 171.8.8 73.7-16.1 144.7-47.6 199.8-24.3 42.5-56.9 76-96.8 99.5-31.8 18.7-67.8 30.8-107.5 36.1-6.6 124.9-34.7 246.1-83.9 360.9-53.9 125.9-130.6 238.8-228.1 335.8-97.5 97-211 173.1-337.2 226.3C2578.2 3088.7 2439.4 3116.6 2296.5 3116.6zM1170.4 2010.4c.1 0 .1 0 .2 0 26.9.1 48.7 21.9 48.9 48.8.8 129.7 26.8 255.4 77.4 373.6 48.9 114.3 118.6 216.9 207.1 304.9 88.6 88.1 191.6 157.2 306.1 205.5 118.6 50 244.5 75.3 374.4 75.3h112c129.8 0 255.7-25.3 374.3-75.3 114.5-48.3 217.5-117.4 306.1-205.4 88.5-88 158.2-190.6 207.1-304.8 50.6-118.2 76.7-243.9 77.5-373.5.2-26.9 21.9-48.6 48.8-48.8.1 0 .2 0 .2 0 7.1 0 13.8 1.5 19.9 4.2 66.6-4.8 115.9-34.5 146.8-88.5 51.4-89.8 39-219.6 7.5-273.2l0 0c-18.3-31.1-50.8-49.2-96.6-53.9-35.6-3.6-67 2.3-73.3 3.6-3 .8-6.1 1.3-9.3 1.5-25.9 1.7-48.5-17-51.8-42.7-29.6-230.8-142.3-443.3-317.3-598.4-176.5-156.5-403.7-242.6-639.9-242.6h-112c-237.7 0-466 87.2-643 245.4-175.6 157-287.5 371.6-315.2 604.4-3.1 25.9-25.9 44.9-52 43.1-9.9-.7-18.9-4.2-26.2-9.8-13.7-2.1-34.4-4.2-56.7-2.4-45.6 3.6-76.7 20.5-95.1 51.7-31.5 53.6-43.9 183.4 7.5 273.2 30.8 53.8 79.9 83.5 146.1 88.4C1156.2 2012 1163.1 2010.4 1170.4 2010.4z"></path><path fill="#f4ae98" d="M3526.9,1628.4c-65.3-111.1-224.6-72.8-224.6-72.8v0.1c-63.9-498.6-489.9-883.9-1005.8-883.9h-112
				c-519.1,0-947,390-1006.9,893l0.1-4.9c0,0-158.3-42.5-223.7,68.6c-65.3,111.1-57.8,436.3,216.4,436.3l0.1-5.2
				c3.2,557.3,456,1008.1,1014,1008.1h112c558,0,1010.6-450.6,1014-1007.8l0.1,4.9C3584.7,2064.7,3592.2,1739.5,3526.9,1628.4z"></path><path fill="#ed9077" d="M2401.6 2019.2c-81.4 0-195.1 0-321.3 0-40.7 174 2 225 153.2 225h14C2398.6 2244.2 2442.3 2193.2 2401.6 2019.2zM2239.4 2805.6c-50.8 0-82.5-32.6-82.5-32.6s8.4 95.7 82.5 95.7c74.2 0 82.5-95.7 82.5-95.7S2290.2 2805.6 2239.4 2805.6zM1178 1561.2c0 0 303.9-32.7 508.8-330.7 435.5-90.8 1123.3-3.7 1123.3-3.7s179.8 291.6 492.9 328.8C3183.4 1122.4 2823.8 879 2320.9 879 1817.9 879 1370.8 1096.9 1178 1561.2z"></path><path fill="#720c0c" d="M2244.2,531.5c-1140.9,0-1156.9,1021.2-1156.9,1021.2l90.1,8.5c0,0,310.8-67.7,494.9-452.4
			c0,0,615.5-103.3,1153,0c184.1,384.7,477.1,446.8,477.1,446.8l91.1-4.9C3393.6,1550.7,3385.1,531.5,2244.2,531.5z"></path><path fill="#ed9077" d="M1097.9,1917c0,0-50.9-61.5,1.7-109c52.6-47.5,5.3-124.7-52.6-105.5C989.2,1721.7,986.3,1902.6,1097.9,1917z
				"></path><path fill="#f9e6e1" d="M1178.4,1561.2c0,0-154.3-51.1-226.3,69c-72,120.1-7,287.4,0.7,302.3c-23.8-76.2-44.6-396.7,222.1-337.9
				C1174.8,1583.3,1178.4,1574.9,1178.4,1561.2z"></path><path fill="#ed9077" d="M1170.5 2064.7c0 0 84.5 23 135.8 204.1 51.4 181.2 167.6 618.2 638.1 770.1C1522.7 2943.5 1177.8 2551.8 1170.5 2064.7zM3383 1917c0 0 50.9-61.5-1.7-109-52.6-47.5-5.3-124.7 52.6-105.5C3491.8 1721.7 3494.6 1902.6 3383 1917z"></path><path fill="#f9e6e1" d="M3302.6,1561.2c0,0,154.4-51.4,226.4,68.7c72,120.1,6.9,287.6-0.8,302.6c23.8-76.2,44.6-396.7-222.1-337.9
				C3306.2,1584.9,3302.6,1581.1,3302.6,1561.2z"></path><path fill="#ed9077" d="M3310.5,2064.7c0,0-84.5,23-135.8,204.1c-51.4,181.2-167.6,618.2-638.1,770.1
				C2958.4,2943.5,3303.2,2551.8,3310.5,2064.7z"></path><path fill="#e04c34" d="M1437.4 1879.9c-64.2 0-116.3 23.5-116.3 52.5 0 29 52.1 52.4 116.3 52.4 64.2 0 116.3-23.5 116.3-52.4C1553.7 1903.3 1501.6 1879.9 1437.4 1879.9zM3043.5 1879.9c-64.2 0-116.3 23.5-116.3 52.5 0 29 52.1 52.4 116.3 52.4 64.2 0 116.3-23.5 116.3-52.4C3159.8 1903.3 3107.8 1879.9 3043.5 1879.9z"></path><path fill="#f4ae98" d="M2378.4,1970.2c-30.8-151.5-103.9-254.9-103.9-254.9l-171.9,254.9c-32.4,138.9,11.9,179.7,132.3,179.7h11.2
			C2366.5,2149.9,2406.8,2110.1,2378.4,1970.2z"></path><path fill="#720c0c" d="M2246.1 2165.2h-11.2c-69.8 0-111.7-13.5-135.7-43.8-25.1-31.6-28.8-80.8-11.5-154.7 1.9-8.2 10.2-13.4 18.4-11.4 8.2 1.9 13.4 10.2 11.4 18.4-14.7 63.2-12.9 105.2 5.7 128.6 17.4 22 52.9 32.2 111.7 32.2h11.2c58.2 0 91.9-9.5 109.3-30.7 18.9-23.1 21.4-64.6 8-130.6-29.8-146.3-100.7-248.1-101.4-249.1-4.9-6.9-3.2-16.5 3.7-21.4 6.9-4.9 16.5-3.2 21.4 3.7 3.1 4.3 75.3 107.8 106.4 260.7 15.6 76.7 11.2 124.8-14.3 156.1C2355.4 2152.3 2314.3 2165.2 2246.1 2165.2zM1585.8 1451.3c-41.2 16.1-26.9 48.9 7.7 37.7 0 0 78.6-24.2 205.1 11.2 20.5 5.7 45.3 17.9 56.3 4.3C1884.3 1489 1783.4 1382.4 1585.8 1451.3zM2895.4 1451.3c41.2 16.1 26.9 48.9-7.7 37.7 0 0-78.6-24.2-205.1 11.2-20.5 5.7-45.3 17.9-56.3 4.3C2596.9 1489 2697.8 1382.4 2895.4 1451.3zM1159.9 1497.8c-13.5-1-25.2 9.2-26.2 22.7-20.5 291.7-11.7 575.1-11.6 577.9.4 13.3 11.3 23.7 24.5 23.7.3 0 .5 0 .8 0 13.5-.4 24.2-11.8 23.7-25.3-.1-2.8-8.8-283.8 11.6-572.9C1183.6 1510.4 1173.4 1498.7 1159.9 1497.8zM3347.7 1520.5c-1-13.5-12.7-23.7-26.2-22.7-13.5 1-23.7 12.7-22.7 26.2 20.3 289.1 11.6 570.1 11.6 572.9-.4 13.5 10.2 24.9 23.7 25.3.3 0 .5 0 .8 0 13.2 0 24.1-10.5 24.5-23.7C3359.4 2095.6 3368.2 1812.2 3347.7 1520.5zM3330.4 1160.5H1156.1c-1.3 0-2.5 0-3.8-.1-8.8-.7-217.4-18.6-318.1-171.1C772.3 895.6 765.7 775 814.4 631c61.1-180.7 203.2-282.1 410.8-293.4 103.7-5.6 198.3 12.9 248.4 25.4 26.2-38 77.6-102.7 159.6-167C1706 139 1788.4 93.5 1878 61 1989.4 20.6 2112.3 0 2243.2 0c131 0 253.9 20.6 365.2 61 89.7 32.5 172 78 244.8 135 82.1 64.3 133.4 129 159.6 167 50.1-12.5 144.6-31.1 248.4-25.4 207.6 11.3 349.7 112.8 410.8 293.4 0 0 0 0 0 0 48.7 144.1 42.1 264.6-19.8 358.3-100.7 152.5-309.2 170.4-318.1 171.1C3333 1160.4 3331.7 1160.5 3330.4 1160.5zM1158.4 1062.4h2169.7c17-1.8 172.5-20.9 242.6-127.6 44.1-67.1 46.9-158.7 8.4-272.4-26.3-77.6-71-136-132.9-173.7-50.8-30.9-114-48.8-187.9-53.1-131.5-7.7-251 30.6-252.2 31-22.6 7.4-47.3-2.5-58.5-23.5-.4-.7-48.4-87.6-158.8-172.9-64.5-49.9-137.5-89.6-217-118.1-99.8-35.8-210.3-53.9-328.6-54-119.5 0-231.1 18.6-331.7 55.1-79.9 29-153.2 69.4-217.8 120-108.9 85.4-154.5 169.1-155 170-11.2 21-35.9 30.9-58.5 23.4-1.1-.4-120.6-38.7-252.1-31-73.9 4.3-137.1 22.2-187.9 53.1-61.9 37.7-106.6 96.1-132.9 173.7-38.5 113.7-35.6 205.3 8.4 272.4C985.7 1041.4 1140.9 1060.6 1158.4 1062.4z"></path><path fill="#ddd" d="M3625.6,646.7C3493.1,255.1,2990.9,420,2990.9,420s-198.6-370.7-747.7-371c-549.1,0.2-747.7,371-747.7,371
				S993.4,255.1,860.9,646.7c-145.6,430.5,295.2,464.7,295.2,464.7h2174.4C3330.4,1111.4,3771.2,1077.2,3625.6,646.7z"></path><path fill="#720c0c" d="M3360.7,1302.8c-3.7,0-7.4-0.4-11-1.3c-413.4-95.2-786.9-143.5-1110.3-143.5
				c-323.3,0-696.9,48.3-1110.3,143.5c-14,3.2-28.8,0.1-40.3-8.5c-11.5-8.6-18.7-21.8-19.7-36.2c-3.6-55.9-4.6-97.4-3-123.6
				c1.1-17.3,3.3-53.4,35.1-67.1c3.4-1.5,7-2.6,10.6-3.3c29.3-11.2,138.6-50.9,310-90.9c181.8-42.4,471-92.9,816.2-92.9
				c345.1,0,637.3,50.5,821.6,92.9c175.8,40.4,287.9,80.6,316.3,91.2c0,0,0.1,0,0.1,0c6,1.3,35.8,9.9,39.1,47.6
				c0.5,5.6,0.7,13,0.5,23.4c-0.3,24.6-2.3,65.9-6,122.7c-0.9,14.4-8.1,27.6-19.7,36.2C3381.4,1299.4,3371.1,1302.8,3360.7,1302.8z
				 M2239.4,1060c315.9,0,677.5,44.8,1075.8,133.2c1.1-20.8,1.7-35.9,2.1-46.8c-46.3-16.1-144.7-47.8-282-79.3
				c-178.9-41-462.5-89.9-797.4-89.9c-335.8,0-617.1,49.1-793.9,90.4c-140.7,32.8-238.4,65.6-280.4,80.8c-0.3,9.7-0.3,24,0.4,44.7
				C1562.1,1104.7,1923.6,1060,2239.4,1060z M1086.5,1145C1086.5,1145,1086.5,1145,1086.5,1145C1086.5,1145,1086.5,1145,1086.5,1145
				z M3410.4,1129.6C3410.4,1129.6,3410.4,1129.6,3410.4,1129.6C3410.4,1129.6,3410.4,1129.6,3410.4,1129.6z"></path><path fill="#ddd" d="M3360.7,1253.7c10.2-157.6,4.2-142.3,4.2-142.3s-467.8-183.3-1126.9-183.3
				c-659.2,0-1115.7,183.3-1115.7,183.3s-14.4-15.4-4.2,142.3c284.4-65.5,702.9-144.7,1121.3-144.7
				C2657.8,1109,3076.3,1188.2,3360.7,1253.7z"></path><path fill="#fff" d="M2715.4 249.7c-192.5-123.4-631.1-163.6-939.5-10.8-101.4 73.7 171.8 101.2 469.1 103C2642.7 344.3 2810 310.3 2715.4 249.7zM1312.2 463.6C1167.6 438.5 925 528.3 908 785.3c3.4 143.9 150.7-42.3 234-123.7C1242.8 563 1451 487.7 1312.2 463.6zM3166.8 463.6c144.6-25.1 387.2 64.7 404.2 321.7-3.4 143.9-150.7-42.3-234-123.7C3236.2 563 3028 487.7 3166.8 463.6z"></path><path fill="#720c0c" d="M2651 1755.7c0 0 111.6-122 240.8-21.6 25.2 15 44.3-19.7 13.8-44.1-30.6-24.4-152.9-119.1-276-4.7C2588.3 1723.8 2624.2 1782.9 2651 1755.7zM1832.8 1755.7c0 0-111.6-122-240.8-21.6-25.2 15-44.3-19.7-13.8-44.1 30.6-24.4 152.9-119.1 276-4.7C1895.5 1723.8 1859.5 1782.9 1832.8 1755.7z"></path><path fill="#ef7f68" d="M2334.4,2412.7h-190.3c0,0-19.2,320.3,95,320.3h0.2C2353.6,2733.1,2334.4,2412.7,2334.4,2412.7z"></path><path fill="#720c0c" d="M2239.4,2748.4h-0.2c-20.7,0-39-8.3-54.3-24.5c-29.7-31.6-48.1-94.1-54.7-185.9
			c-4.8-66.7-1.5-123.8-1.3-126.2c0.5-8.1,7.2-14.4,15.3-14.4h190.3c8.1,0,14.8,6.3,15.3,14.4c0.1,2.4,3.5,59.5-1.3,126.2
			c-6.6,91.8-25,154.3-54.7,185.9C2278.3,2740.1,2260.1,2748.4,2239.4,2748.4z M2158.7,2428.1c-2.6,71.3,1.8,225.2,48.4,274.8
			c9.4,10,19.9,14.9,32,14.9h0.2c12.1,0,22.5-4.9,32-14.9c46.7-49.6,51.1-203.5,48.4-274.8H2158.7z"></path><path fill="#720c0c" d="M2868.5,2279c-55.1,108.4-236.2,142.9-330.7,54.2c-130.3-122.3-173.7-153.9-299-153.9
			c-125.3,0-168.7,31.6-299,153.9c-94.5,88.7-275.6,54.2-330.7-54.2c-55.1-108.4-103.6,295.4,304,295.4
			c221.3,0,324.9-116.1,325.7-117.1c0.8,0.9,104.4,117.1,325.7,117.1C2972,2574.4,2923.6,2170.7,2868.5,2279z"></path><path fill="#fff" d="M1520.6,2880.1c0,0-698.1,70.7-954.5-345.8C662.5,2905.3,1066.2,3023.5,1520.6,2880.1z"></path><path fill="#a09f9f" d="M1498.3,3630.1c0,0-33.9-543-89.8-543s-109.2,313-109.2,313s-902.9,113.5-1083.9-958.9
			c0,3.3,180.9,16.4,286.2-52.6c-11.5-59.2-14.8-77.3-14.8-77.3l-360.2-70.7c0,0,1.4,460.2,240.1,830.6
			c242.7,376.6,693.3,493.4,1046,493.4v1063.8c0,0,153.4,76.8,394,114.8C1656.9,4584.9,1542.6,4370.6,1498.3,3630.1z"></path><path fill="#720c0c" d="M1391,3357c-13.2,0-23.9,10.7-23.9,23.9V3813h47.9v-432.1C1415,3367.7,1404.2,3357,1391,3357z"></path><path fill="#f4ae98" d="M312.2,1393.1c0,0,21.9-109.1,4.9-305.9c-19.2-222.7,282-224.2,325.7-13.1
					c39.7,192.2-50.4,344.9-50.4,344.9S501.3,1385.6,312.2,1393.1z"></path><path fill="#720c0c" d="M592.4,1443.6c-2.8,0-5.7-0.5-8.5-1.5c-0.8-0.3-90.1-31.7-270.8-24.5c-7.5,0.3-14.8-2.9-19.6-8.6
					c-4.9-5.7-6.9-13.3-5.4-20.7l0,0c0.2-1.1,20.9-108.8,4.5-299c-4.6-53.7,7.6-100.6,35.4-135.5c25-31.5,62.2-52.2,104.8-58.4
					c48.5-7.1,100.5,5.2,142.7,33.6c33,22.3,75.6,64.7,91.3,140.1c41.2,199.2-49.4,355.8-53.3,362.4
					C609,1439.2,600.9,1443.6,592.4,1443.6z M366.7,1367.5c110.3,0,180.7,13.9,213.2,22.3c20.6-43.4,68.8-166.1,38.9-310.7
					c-21-101.7-107.8-145.5-178.9-135.2c-80.5,11.7-103.6,80.6-98.3,141.2c12.1,140.6,4.8,236.9-0.8,282.6
					C349.6,1367.5,358.3,1367.5,366.7,1367.5z"></path><path fill="#f4ae98" d="M82,1801c-11.8,347.4-16.8,494.6,283.3,502.2c345.5,8.8,367.5-88,357.9-222.7c0,0,75.9-95.7,7.5-222l0-0.3
					c76.8-121.4,7.5-222,7.5-222c18.6-133.7,3.3-231.8-342-246.4c-299.9-12.7-304.9,134.6-316.7,481.9L82,1801z"></path><path fill="#720c0c" d="M408.5,2328.4c-14.1,0-28.7-0.2-43.8-0.6c-119-3-193.5-27.1-241.5-78.1c-69.1-73.4-73.2-196-68-376.3
					c-0.1-0.8-0.1-1.6,0-2.5l0,0c0-0.4,0-0.7,0-1l2.2-64.9c0.1-1.6,0.1-3.3,0.2-4.9c0-0.8,0.1-1.7,0.2-2.5
					c7.1-180.2,19.4-302.3,93.4-370.8c51.3-47.6,127.3-66.6,246.2-61.5c181.7,7.7,285,37.8,334.9,97.7c41.3,49.6,38.8,112,31.5,168
					c6.6,11.8,17.7,35.1,23.7,66.1c7.4,38.8,8,97.5-28.7,162.3c32.3,67.1,27.7,125.7,17.7,163.8c-8,30.5-20.7,53-28.1,64.3
					c3.5,56.3,1.8,118.8-42.8,165.5C656.1,2304.7,563.6,2328.4,408.5,2328.4z M105.3,1837.5c-6.2,188.6-6.8,314.5,53.6,378.6
					c37.8,40.1,103.6,60,207.1,62.7c162.3,4.2,261.8-15.3,304.1-59.6c29.8-31.2,33.1-75.5,28.8-136.8c-0.4-6.1,1.4-12.2,5.3-17
					c2.6-3.3,64.6-85.3,5.2-195.1c-2.1-3.8-3.1-8.2-2.9-12.5l0-0.3c0.2-4.3,1.5-8.6,3.8-12.2c66.7-105.5,10.4-191.5,8-195.1
					c-3.5-5.1-4.9-11.1-4-17.2c8.5-60.9,8.2-105.3-19.5-138.4c-39.2-47-137.1-73.2-299.3-80.1c-103.4-4.4-170.4,11-210.8,48.5
					C119.8,1522.8,111.9,1648.6,105.3,1837.5z"></path><path fill="#f9e6e1" d="M577,1066c-20.3-87-165.5-87-141.5,34.1C460.7,1227.1,617.2,1238.3,577,1066z"></path><path fill="#ed9077" d="M121.8,1607.7c0,0-15.5,420.9,106.2,531.4s470.5,16.3,470.5,16.3s3.1,105.3-174.5,120.3
					c-171.2,14.4-348.4,5.5-391.4-92.2C77.6,2090.7,102.1,1739.1,121.8,1607.7z"></path><path fill="#ed9077" d="M708.5 2073.4c0 0 21.8-52.9 25.8-95.1-108.3 67.5-321.8 64.2-383.1 31.9s-60.7 85.5 74 91C559.8 2106.7 651.2 2089.2 708.5 2073.4zM720.8 1840.5c0 0 21.6-51.5 21.1-96.9-81.3 40.6-266.4 30.9-379 19.9-101-9.9-65.9 87.1 68.7 92.6S663.5 1856.4 720.8 1840.5zM716.6 1612.4c0 0 5.8-35.2.9-63.2-127.5-30.6-215.6-42.4-354.2-21.4-79.2 12-62.4 73.5 72.3 79.1C570.2 1612.4 659.3 1628.3 716.6 1612.4z"></path><path fill="#720c0c" d="M520.5 2128.6c-39.5 0-85.8-1.6-140.2-5.6-9.8-.7-17.2-9.3-16.5-19.1.7-9.8 9.3-17.3 19.1-16.5 263.4 19.3 330.1-19.1 330.7-19.5l-.4.2 19.9 29.7C727.5 2101.6 681.5 2128.6 520.5 2128.6zM730.8 1876.2c-.1 0-.3 0-.4 0l-353.2-7.6c-9.9-.2-17.7-8.4-17.5-18.3.2-9.7 8.2-17.5 17.9-17.5.1 0 .3 0 .4 0l353.2 7.6c9.9.2 17.7 8.4 17.5 18.3C748.5 1868.4 740.5 1876.2 730.8 1876.2zM728.4 1651.2c-.7-.4-72.9-45-337.9-34.1-10 .4-18.2-7.3-18.6-17.1-.4-9.9 7.3-18.2 17.1-18.6 117-4.8 212.2.1 283.1 14.6 54.3 11.1 74.3 24.2 76.4 25.7l-20.4 29.4L728.4 1651.2z"></path><path fill="#f9e6e1" d="M134.2,1552.1c0,0,11.6-49.7,40.7-81.3c33.4-36.4,103.4-67.3,236.1-57.5c250.5,18.6,287.1,69,303.1,119
				c-42-63.5-210.7-73.5-319.5-75.8C254.5,1453.5,175.9,1486.5,134.2,1552.1z"></path><path fill="#a09f9f" d="M2984,3630.1c0,0,33.9-543,89.8-543c55.9,0,109.2,313,109.2,313s902.9,113.5,1083.9-958.9
			c0,3.3-180.9,16.4-286.2-52.6c11.5-59.2,14.8-77.3,14.8-77.3l360.2-70.7c0,0-1.4,460.2-240.1,830.6
			c-242.7,376.6-693.3,493.4-1046,493.4l0.8,1053.5c0,0-187.8,84.9-407.2,125C2813,4584.8,2939.7,4370.6,2984,3630.1z"></path><path fill="#f4ae98" d="M4170.1,1393.1c0,0-21.9-109.1-4.9-305.9c19.2-222.7-282-224.2-325.6-13.1
					c-39.7,192.2,50.4,344.9,50.4,344.9S3981,1385.6,4170.1,1393.1z"></path><path fill="#720c0c" d="M3889.9,1443.6c-8.5,0-16.7-4.4-21.2-12c-3.9-6.6-94.5-163.1-53.3-362.4c8.6-41.7,31.4-99.8,91.3-140.1
					c42.2-28.5,94.2-40.7,142.7-33.6c42.5,6.2,79.8,27,104.8,58.4c27.8,34.9,40,81.8,35.4,135.5c-16.4,190.2,4.3,297.9,4.5,299
					c1.5,7.4-0.5,15-5.4,20.7c-4.9,5.7-12.1,8.9-19.6,8.6c-180.7-7.2-270,24.2-270.8,24.5
					C3895.5,1443.1,3892.7,1443.6,3889.9,1443.6z M4021.7,942.5c-66.3,0-139.2,44.7-158.2,136.6c-29.9,144.6,18.3,267.3,38.9,310.7
					c35-9.1,113.9-24.5,239.1-22.1c-5.6-45.7-12.9-142-0.8-282.6c5.2-60.5-17.9-129.4-98.3-141.2
					C4035.6,942.9,4028.7,942.5,4021.7,942.5z"></path><path fill="#f4ae98" d="M4400.3,1801c11.8,347.4,16.8,494.6-283.3,502.2c-345.5,8.8-367.5-88-357.9-222.7c0,0-75.9-95.7-7.5-222
					l0-0.3c-76.8-121.4-7.5-222-7.5-222c-18.6-133.7-3.3-231.8,342-246.4c299.9-12.7,304.9,134.6,316.7,481.9L4400.3,1801z"></path><path fill="#720c0c" d="M4073.8,2328.4c-155.1,0-247.6-23.7-296.9-75.3c-44.6-46.7-46.3-109.1-42.8-165.5
					c-7.4-11.4-20.1-33.8-28.1-64.3c-10-38.2-14.6-96.7,17.7-163.8c-36.7-64.8-36.2-123.5-28.7-162.3c5.9-31,17.1-54.3,23.7-66.1
					c-7.3-56-9.8-118.4,31.5-168c49.9-59.9,153.2-90,334.9-97.7c118.9-5,194.9,14,246.2,61.5c73.9,68.5,86.3,190.6,93.4,370.8
					c0.1,0.8,0.2,1.6,0.2,2.5c0.1,1.6,0.1,3.2,0.2,4.9l2.2,64.9c0,0.4,0,0.7,0,1l0,0c0,0.8,0,1.7,0,2.5
					c5.2,180.2,1.1,302.9-68,376.3c-48,50.9-122.5,75-241.5,78.1C4102.5,2328.2,4087.8,2328.4,4073.8,2328.4z M4119.8,1413.7
					c-10.5,0-21.4,0.2-32.7,0.7c-162.2,6.8-260.1,33-299.3,80.1c-27.6,33.2-27.9,77.5-19.5,138.4c0.8,6.1-0.6,12.2-4.1,17.3
					c-2.4,3.5-58.7,89.5,8.1,195c2.3,3.7,3.6,7.9,3.8,12.2l0,0.3c0.2,4.4-0.9,8.7-2.9,12.5c-59.5,109.8,2.6,191.7,5.2,195.2
					c3.8,4.8,5.6,10.8,5.2,16.9c-4.3,61.3-1.1,105.6,28.8,136.8c42.3,44.3,141.7,63.7,304.1,59.6c103.5-2.6,169.3-22.6,207.1-62.7
					c60.4-64.1,59.7-190,53.6-378.6c-6.6-188.9-14.5-314.7-79.1-374.6C4261.9,1429.6,4204.8,1413.7,4119.8,1413.7z"></path><path fill="#f9e6e1" d="M3905.3,1066c20.3-87,165.5-87,141.5,34.1C4021.5,1227.1,3865.1,1238.3,3905.3,1066z"></path><path fill="#ed9077" d="M4360.4,1607.7c0,0,15.5,420.9-106.2,531.4c-121.6,110.4-470.5,16.3-470.5,16.3s-3.1,105.3,174.5,120.3
					c171.2,14.4,348.4,5.5,391.4-92.2C4404.7,2090.7,4380.2,1739.1,4360.4,1607.7z"></path><path fill="#ed9077" d="M3773.7 2073.4c0 0-21.8-52.9-25.8-95.1 108.3 67.5 321.8 64.2 383.1 31.9 61.3-32.3 60.7 85.5-74 91C3922.5 2106.7 3831.1 2089.2 3773.7 2073.4zM3761.5 1840.5c0 0-21.6-51.5-21.1-96.9 81.3 40.6 266.4 30.9 379 19.9 101-9.9 65.9 87.1-68.7 92.6C3916.1 1861.7 3818.8 1856.4 3761.5 1840.5zM3765.7 1612.4c0 0-5.8-35.2-.9-63.2 127.5-30.6 215.6-42.4 354.2-21.4 79.2 12 62.4 73.5-72.3 79.1C3912.1 1612.4 3823 1628.3 3765.7 1612.4z"></path><path fill="#720c0c" d="M3961.8 2128.6c-161.1 0-207-27-212.7-30.8l19.9-29.7-.4-.2c.6.4 67.3 38.8 330.7 19.5 9.8-.8 18.4 6.7 19.1 16.5.7 9.8-6.7 18.4-16.5 19.1C4047.7 2127 4001.3 2128.6 3961.8 2128.6zM3751.5 1876.2c-9.7 0-17.7-7.8-17.9-17.5-.2-9.9 7.6-18 17.5-18.3l353.2-7.6c.1 0 .3 0 .4 0 9.7 0 17.7 7.8 17.9 17.5.2 9.9-7.6 18-17.5 18.3l-353.2 7.6C3751.8 1876.2 3751.6 1876.2 3751.5 1876.2zM3753.9 1651.2l.2-.2-20.4-29.4c2.1-1.5 22.1-14.5 76.4-25.7 70.9-14.5 166.1-19.4 283.1-14.6 9.9.4 17.5 8.7 17.1 18.6-.4 9.9-8.8 17.5-18.6 17.1-138.3-5.7-222.8 3.9-269.3 12.9C3772 1639.8 3754.1 1651.1 3753.9 1651.2z"></path><path fill="#f9e6e1" d="M4348.1,1552.1c0,0-11.6-49.7-40.7-81.3c-33.4-36.4-103.4-67.3-236.1-57.5c-250.5,18.6-287.1,69-303.1,119
				c42-63.5,210.7-73.5,319.5-75.8C4227.8,1453.5,4306.3,1486.5,4348.1,1552.1z"></path><path fill="#720c0c" d="M3091.5,3357c-13.2,0-23.9,10.7-23.9,23.9V3813h47.9v-432.1C3115.4,3367.7,3104.7,3357,3091.5,3357z"></path></svg>