<svg xmlns="http://www.w3.org/2000/svg" viewBox="0 0 2800 1900" id="chef-cooking-in-frying-pan"><g data-name="Layer 1"><ellipse cx="1110.454" cy="1749.594" fill="#d1bfb2" rx="65.36" ry="463.46" transform="rotate(-87.675 1110.454 1749.595)"></ellipse><path fill="#97a0a0" d="M1704.5834,1066.1739l-100.734,80.4172-101.4218-9.1061-49.5778-4.452-80.8219-7.2444,21.6113,66.7783h275.8556a50.46224,50.46224,0,0,0,7.0015-.4856h.0405a53.45736,53.45736,0,0,0,12.7482-3.3998l99.2772-40.7952a40.03085,40.03085,0,0,0,15.0148-10.8869,39.20172,39.20172,0,0,0,8.4185-16.472Zm-63.4998,80.5385,70.1773-58.0362a6.07852,6.07852,0,1,1,7.7712,9.3489l-70.2188,58.0768a6.08093,6.08093,0,0,1-7.7297-9.3895Zm32.4584,22.8261a5.9811,5.9811,0,0,1-3.5215,1.1333,6.07392,6.07392,0,0,1-3.5611-11.0084l74.7106-53.8273a6.05976,6.05976,0,0,1,7.0826,9.8346Zm96.9295-35.0889-47.5137,31.2846a6.2034,6.2034,0,0,1-3.319.9712,5.94068,5.94068,0,0,1-5.059-2.7115,6.06969,6.06969,0,0,1,1.7-8.4182l47.5137-31.2845a6.07842,6.07842,0,0,1,6.678,10.1584Z"></path><path d="M1811.9955,1120.5274a39.20172,39.20172,0,0,1-8.4185,16.472,40.03085,40.03085,0,0,1-15.0148,10.8869l-99.2772,40.7952a53.45736,53.45736,0,0,1-12.7482,3.3998h-.0405c-45.288-10.4823-72.6469-45.4902-72.6469-45.4902l100.734-80.4172Z" style="mix-blend-mode:soft-light" opacity=".3"></path><polygon fill="#333" points="1506.11 1192.567 1393.639 1192.567 1372.028 1125.789 1452.85 1133.033 1502.428 1137.485 1504.815 1172.938 1506.11 1192.567"></polygon><path d="M1676.4963,1192.0813a50.46224,50.46224,0,0,1-7.0015.4856H1393.6392l-21.6113-66.7783,80.8219,7.2444c.5661,5.0589,5.8681,24.6473,51.9655,39.9052C1537.3947,1183.7441,1590.3725,1192.3241,1676.4963,1192.0813Z" style="mix-blend-mode:soft-light" opacity=".3"></path><path fill="#b7765a" d="M1479.0412,1393.5089c20.8025,2.3878,30.4752-11.9796,28.1278-28.9373-2.064-14.6103-21.9761-34.1176-27.4802-39.2575a40.27377,40.27377,0,0,0,5.4232-12.5058,41.99032,41.99032,0,0,0,1.1737-11.5749c-.5666-21.45-14.9746-45.1664-24.6473-53.2202-11.494-9.5109-53.8678-10.0775-82.7646,10.8868-28.8968,21.0049-44.3165,52.249-44.3165,52.249l-4.7757,40.5931s8.3372,24.5663,50.4682,18.617c-1.9426,36.0198,13.8818,49.0921,51.2777,35.0485,25.5376,19.993,39.6217,12.4652,47.5137-11.8987"></path><path d="M1394.3339,1250.1175a103.05438,103.05438,0,0,1,40.7957-8.4179C1429.1804,1246.4347,1414.0035,1255.986,1394.3339,1250.1175Z" style="mix-blend-mode:soft-light" opacity=".3"></path><path d="M1479.689,1369.3472c-11.6158-22.7046-2.7118-35.4937,3.2374-40.9168-1.3353-1.2951-2.4282-2.3474-3.2374-3.1164a40.27352,40.27352,0,0,0,5.4231-12.5056,41.98792,41.98792,0,0,0,1.1733-11.5751q-.06075-1.7604-.2426-3.521c-26.145,13.3961-71.1895-6.7992-91.7089-47.5948a82.54493,82.54493,0,0,0-15.46,8.7826c-28.8968,21.0048-44.3168,52.2488-44.3168,52.2488l-4.7754,40.5932s8.3374,24.5664,50.4681,18.6169c-1.9426,36.0199,13.8815,49.0922,51.2773,35.0486,25.5379,19.9928,39.6219,12.4651,47.5142-11.8987,12.1815,1.4164,20.5595-2.9546,24.9307-10.1989C1495.5536,1385.0097,1486.407,1382.5005,1479.689,1369.3472Zm-42.6168,16.0674c-12.8702-22.9881,2.5898-33.0656,2.5898-33.0656s8.2969-6.7587,14.3676-7.9322c-3.8851,7.7299-.9308,30.1109,22.0569,46.7042C1466.1711,1410.3045,1449.9419,1408.362,1437.0722,1385.4146Z" style="mix-blend-mode:soft-light" opacity=".3"></path><path fill="#333" d="M1450.8322 1337.7388a28.5242 28.5242 0 00-4.1682.4046 33.23156 33.23156 0 00-10.8467 3.7236c-1.8615 1.0118-3.6015 2.3069-5.423 3.3995a22.89824 22.89824 0 00-9.7133 6.8802 28.49838 28.49838 0 00-10.8462-2.2664c-8.3779 0-15.1768 4.1282-20.1143 8.661a25.56371 25.56371 0 01-24.1214-22.8666 19.96816 19.96816 0 01-.1616-2.7115v-4.0877a25.57758 25.57758 0 0125.0518-25.5781l38.6101-.8498c3.9661 9.1869 13.841 30.7584 20.64 34.7651A9.15255 9.15255 0 001450.8322 1337.7388zM1650.884 1371.9375l-143.7151-7.3659c-1.1328-8.0944-7.7302-17.6456-14.3266-25.4566a170.83053 170.83053 0 00-13.1533-13.801 40.27352 40.27352 0 005.4231-12.5056 41.98792 41.98792 0 001.1733-11.5751l97.6587-2.0639 41.6045-.8905zM1357.8283 747.7427a140.0017 140.0017 0 01-19.1835 34.3604c-59.6552 49.4158-31.6892-200.8205-31.6892-200.8205l24.6471 27.723a149.15958 149.15958 0 0116.3913 25.5782C1361.3498 660.1619 1375.2719 702.131 1357.8283 747.7427z"></path><path d="M1357.8283,747.7427a140.0017,140.0017,0,0,1-19.1835,34.3604c-59.6552,49.4158-31.6892-200.8205-31.6892-200.8205l24.6471,27.723a149.15958,149.15958,0,0,1,16.3913,25.5782C1343.3396,656.6814,1335.2858,710.711,1357.8283,747.7427Z" style="mix-blend-mode:soft-light" opacity=".3"></path><path fill="#b7765a" d="M1351.392,815.5776c-29.7348-2.9151-20.4809-26.9568-11.8016-41.7239l.0389-.0702a108.8378,108.8378,0,0,1,7.7652-11.5021s6.0816-11.112,16.3535-12.1697a17.63225,17.63225,0,0,1,10.861,2.6508C1391.2183,762.4521,1394.7047,819.8721,1351.392,815.5776Z"></path><path d="M1374.8902,774.0708c4.0427,12.087-2.4096,37.9766-25.3057,37.3392-12.1006-.3856-13.3156-19.1492-9.9941-37.5563l.0389-.0702a108.8378,108.8378,0,0,1,7.7652-11.5021s6.0816-11.112,16.3535-12.1697a51.05387,51.05387,0,0,0-2.5671,21.2256S1370.8478,761.9844,1374.8902,774.0708Z" style="mix-blend-mode:soft-light" opacity=".3"></path><path fill="#995942" d="M1350.3802,805.2462a42.55156,42.55156,0,0,1-.2204-12.7126,48.26644,48.26644,0,0,1,3.1338-12.4567c1.7342-3.9697,3.9933-8.0316,7.8554-10.8825a12.59517,12.59517,0,0,1,6.5836-2.5603,10.77667,10.77667,0,0,1,6.4209,1.6684,12.40436,12.40436,0,0,0-10.0597,4.2268,34.37866,34.37866,0,0,0-5.5351,9.7291C1355.5439,789.4931,1353.4685,797.3045,1350.3802,805.2462Z"></path><path fill="#b23030" d="M1392.4723,399.6862s-13.4774,60.1003-33.146,126.3525c-8.3375,27.885-17.7272,56.9032-27.7236,82.9669-53.8275,50.0635-373.9579,74.5893-458.4633,80.2555-12.9913.8902-20.4379,1.2951-20.4379,1.2951L823.9261,639.845,785.397,561.7347s97.1321,23.7569,115.6279-90.2518c128.7807,46.4614,209.0359-14.7722,226.9646-111.9043,81.8341,95.5536,178.9661,82.3598,221.2188,32.7417C1372.9242,414.4582,1392.4723,399.6862,1392.4723,399.6862Z"></path><path fill="#e6e8e8" d="M1496.4844,407.8613c0,40.0671-34.1984,73.2942-79.0414,79.6483,4.8975,4.1687,7.7708,9.0253,7.7708,14.2056,0,15.5412-25.1733,28.1278-56.2153,28.1278a102.08532,102.08532,0,0,1-10.684-.5261c.3636-1.0928.6877-2.1854,1.0118-3.2782,19.6686-66.2522,33.146-126.3525,33.146-126.3525l-.0405.0403c-1.0523.7689-20.1953,14.0843-43.2235-7.4062-42.2527,49.6181-139.3847,62.8119-221.2188-32.7417-17.9287,97.1321-98.1839,158.3657-226.9646,111.9043C882.5291,585.4916,785.397,561.7347,785.397,561.7347l38.5291,78.1103,13.3154,23.4736a87.84144,87.84144,0,0,1-54.5963,18.5361c-30.9209,0-57.8747-15.3387-72.3234-38.0435-43.9522-5.5851-77.7459-39.2574-77.7459-79.9316,0-20.6405,8.7015-39.4194,22.9471-53.7058a133.81858,133.81858,0,0,1-18.2122-67.0616c0-67.1426,50.7516-124.0053,120.7273-143.1483a140.67989,140.67989,0,0,1-1.9425-23.1499c0-81.9957,71.4321-148.4502,159.5795-148.4502,42.9004,0,81.8337,15.7841,110.4879,41.443,20.8026-50.9537,76.2085-87.3782,141.2863-87.3782,79.7701,0,144.9699,54.6773,149.7453,123.6814a156.20865,156.20865,0,0,1,41.524-20.6407c65.3218-21.2879,131.6545,2.6308,148.1673,53.3419,12.263,37.7599-6.5164,79.7291-43.8312,107.4928C1483.4931,361.1166,1496.4844,383.2142,1496.4844,407.8613Z"></path><ellipse cx="898.486" cy="226.543" fill="#fff" opacity=".5" rx="118.203" ry="68.626" transform="rotate(-13.639 898.486 226.543)"></ellipse><ellipse cx="1170.374" cy="184.931" fill="#fff" opacity=".5" rx="74.538" ry="118.203" transform="rotate(-86.103 1170.374 184.929)"></ellipse><ellipse cx="1396.311" cy="274.065" fill="#fff" opacity=".5" rx="92.847" ry="58.549" transform="rotate(-22.344 1396.31 274.065)"></ellipse><path d="M1392.4723,399.6862l-.0405.0403c-1.0523.7689-20.1953,14.0843-43.2235-7.4062-42.2527,49.6181-139.3847,62.8119-221.2188-32.7417-17.9287,97.1321-98.1839,158.3657-226.9646,111.9043C882.5291,585.4916,785.397,561.7347,785.397,561.7347l38.5291,78.1103,13.3154,23.4736a87.84144,87.84144,0,0,1-54.5963,18.5361c-30.9209,0-57.8747-15.3387-72.3234-38.0435-43.9522-5.5851-77.7459-39.2574-77.7459-79.9316,0-20.6405,8.7015-39.4194,22.9471-53.7058a133.81858,133.81858,0,0,1-18.2122-67.0616c0-67.1426,50.7516-124.0053,120.7273-143.1483,0,0-24.8902,159.3775,134.2443,134.0422,69.6926,46.7042,176.5785,35.615,235.1814-98.1844,49.0917,87.0952,175.8088,98.9939,222.9179,30.88C1364.9919,402.4382,1392.4723,399.6862,1392.4723,399.6862Z" style="mix-blend-mode:soft-light" opacity=".6"></path><path d="M1359.3263,526.0387c-71.9993,67.9116-320.253,129.0237-486.1869,163.2224-12.9913.8902-20.4379,1.2951-20.4379,1.2951L823.9261,639.845,785.397,561.7347s97.1321,23.7569,115.6279-90.2518c128.7807,46.4614,209.0359-14.7722,226.9646-111.9043,0,0,21.6527,144.6458-146.2238,155.2088C1003.9441,553.8427,1206.8692,495.6039,1359.3263,526.0387Z" style="mix-blend-mode:soft-light" opacity=".6"></path><path fill="#e6e8e8" d="M1359.3263,526.0387c-8.3375,27.885-17.7272,56.9032-27.7236,82.9669-62.1239,57.7937-478.9012,81.5506-478.9012,81.5506L823.9261,639.845C853.7132,614.3074,1034.824,513.9782,1359.3263,526.0387Z"></path><path d="M1331.6027,609.0056c-62.1239,57.7937-478.9012,81.5506-478.9012,81.5506L823.9261,639.845c29.7871-25.5376,210.8979-125.8668,535.4002-113.8063,0,0-124.3695,2.1854-245.0158,30.7181C993.6642,585.2488,1246.6932,578.1257,1331.6027,609.0056Z" style="mix-blend-mode:soft-light" opacity=".6"></path><path fill="#6b6b6b" d="M1410.8871,1623.5904c.6472,16.9171-10.3204,42.7381-35.4532,62.8121a115.39164,115.39164,0,0,1-18.2528,11.8177c-46.7045,24.8091-45.6521,41.3217-71.3521,34.8055-26.5086-6.7587-39.5809-37.2337-39.5809-37.2337l6.7184-81.146s16.6338,38.4076,66.1306,23.7569c.3236-.0808.6882-.2023,1.0118-.2831,48.8086-14.7317,71.5137-41.605,85.3142-29.0184C1408.7825,1612.1773,1410.6441,1617.2363,1410.8871,1623.5904Z"></path><path d="M1410.8871,1623.5904c.6472,16.9171-10.3204,42.7381-35.4532,62.8121a115.39164,115.39164,0,0,1-18.2528,11.8177c-46.7045,24.8091-45.6521,41.3217-71.3521,34.8055-26.5086-6.7587-39.5809-37.2337-39.5809-37.2337l6.7184-81.146s16.6338,38.4076,66.1306,23.7569c.3236-.0808.6882-.2023,1.0118-.2831-22.2999,18.5359-43.8306,39.4194-48.1209,53.7058-9.5107,31.6894,36.9102,24.9307,87.9044-19.7907C1384.6616,1650.3016,1400.8908,1635.9342,1410.8871,1623.5904Z" style="mix-blend-mode:soft-light" opacity=".3"></path><path fill="#b7765a" d="M1325.8295,1100.3355s10.6898-8.3143,30.6837-24.9429,25.9327-19.7959,40.5817-7.7204,46.3224,39.7898,52.4592,48.698,5.5428,18.8061-12.0755,18.4102-36.6225-4.949-36.6225-4.949,8.1163,37.8103,16.0347,69.0878,19.664,59.9157-24.6789,50.1497c-15.3089-7.6544-24.8109-23.4911-24.8109-23.4911s-28.7701,6.8626-46.7184-30.6177S1325.8295,1100.3355,1325.8295,1100.3355Z"></path><path d="M1453.0178,1126.6386c-.4451,4.8162-4.8564,8.3774-15.541,8.1346-17.6051-.4046-36.6266-4.9374-36.6266-4.9374s1.1734,5.5446,3.1159,14.1246c-13.7199,3.8448-31.6891,17.0386-16.2286,61.2742,7.4866,21.4094,18.1717,35.2104,29.2609,44.0737-4.9779,2.2259-12.8297,2.3877-24.7691-.2428-15.339-7.6492-24.8087-23.4738-24.8087-23.4738s-28.7758,6.8397-46.745-30.6369c-17.9287-37.4768,5.14-94.6228,5.14-94.6228s10.6841-8.2969,30.7178-24.9307c1.3759-1.1331,2.6308-2.1854,3.8857-3.1972a57.15992,57.15992,0,0,0-1.741,23.2308C1361.3093,1117.8966,1409.9564,1124.8981,1453.0178,1126.6386Z" style="mix-blend-mode:soft-light" opacity=".3"></path><path fill="#995942" d="M1344.9658,1170.1492c5.0202,8.9535,8.6368,18.1583,12.275,27.3608,3.5268,9.2768,6.8839,18.3705,10.16,28.0678a53.93169,53.93169,0,0,1-9.287-12.1651,99.15089,99.15089,0,0,1-6.5335-13.7192,114.374,114.374,0,0,1-4.4523-14.4694A74.30144,74.30144,0,0,1,1344.9658,1170.1492Z"></path><path fill="#333" d="M986.0154,1493.4738c-2.1046,10.2395-3.9261,22.6238-5.5856,36.2222-8.3774,69.2067-11.3317,169.1313-11.3317,169.1313l-28.4923,19.0215s-2.3066.5262-15.4194-5.5446c-9.5923-4.4112-24.9712-12.3843-49.4968-26.6707C835.0153,1577.9382,823.4,1457.5754,823.4,1457.5754S998.6826,1431.1881,986.0154,1493.4738Z"></path><path d="M986.0154,1493.4738c-2.1046,10.2395-3.9261,22.6238-5.5856,36.2222-26.9943,21.0858-86.4469,79.7698-58.3193,171.2357,1.2544,4.0472,2.2662,7.8515,3.0759,11.3725-9.5923-4.4112-24.9712-12.3843-49.4968-26.6707C835.0153,1577.9382,823.4,1457.5754,823.4,1457.5754S998.6826,1431.1881,986.0154,1493.4738Z" style="mix-blend-mode:soft-light" opacity=".3"></path><path fill="#333" d="M1319.0971,1638.4029a332.90279,332.90279,0,0,0-36.8696,23.3522c-13.2343,9.6728-27.0753,21.5715-35.9794,34.0369-54.2322-72.4444-106.4808-198.7567-106.4808-198.7567s111.6208-55.4057,153.9945-27.723c.3236,6.8397.7287,13.5174,1.1734,19.993C1301.411,1584.2923,1319.0971,1638.4029,1319.0971,1638.4029Z"></path><path d="M1282.2275,1661.7551c-13.2343,9.6728-27.0753,21.5715-35.9794,34.0369-54.2322-72.4444-106.4808-198.7567-106.4808-198.7567s111.6208-55.4057,153.9945-27.723c.3236,6.8397.7287,13.5174,1.1734,19.993C1271.5429,1514.4381,1231.0307,1575.5505,1282.2275,1661.7551Z" style="mix-blend-mode:soft-light" opacity=".3"></path><path fill="#e6e8e8" d="M1331.6433,1419.9368a.78746.78746,0,0,1-.0406.3239q-2.1246,22.21875-5.0994,43.6688c-59.7768,19.1028-115.3038,31.2846-166.1765,38.3268q-22.58385,3.1566-43.9927,5.0185c-208.8343,18.3335-328.5494-48.6471-328.5494-48.6471a164.35681,164.35681,0,0,1-11.2507-21.6117c-10.1585-23.1905-16.9985-51.2373-20.3169-82.7647-13.882-131.614,34.8861-323.6117,152.3755-479.5489l358.4985,80.8218,1.3354.2833c4.7759,10.199,9.2682,20.6405,13.4769,31.4061C1332.0889,1114.3756,1345.2422,1277.8813,1331.6433,1419.9368Z"></path><path fill="#b23030" d="M1212.7374 1072.7708c-10.1984-.8095-20.1548-1.7405-29.7466-2.7925l83.4121-114.5754 1.3354.2831c4.2497 9.0659 8.3374 18.3743 12.182 27.8851a656.95888 656.95888 0 01-39.9855 90.94C1230.6261 1074.0657 1221.5605 1073.4588 1212.7374 1072.7708zM1332.0889 1420.0178q-2.0646 22.2189-5.019 43.6689c-77.3818 24.9307-147.6811 38.2458-210.0481 43.8714 19.5076-96.1202 28.7758-187.1008 32.7014-235.4642 8.418.4856 17.322.8902 26.7518 1.133 12.2625.3239 25.4158.4452 39.824.3644-3.9257 45.1258-11.3323 119.7961-20.2359 159.0132l.0405.3643C1248.3122 1431.9165 1295.3808 1427.424 1332.0889 1420.0178z"></path><path fill="#b23030" d="M1195.5775 1432.8878l-35.2507 69.3685q-22.58385 3.1566-43.9927 5.0185c-208.8343 18.3335-328.5494-48.6471-328.5494-48.6471-16.4718-26.4684-27.1158-62.3262-31.5676-104.3764C867.2306 1412.2471 1051.0127 1435.5183 1195.5775 1432.8878zM1293.3369 1271.5957c-48.1562 1.9019-85.5106 2.522-116.7566 1.7505 34.1735-74.3921 36.4148-164.8119 35.7583-200.5467a1055.04247 1055.04247 0 00114.8244 2.3419C1337.9124 1149.0159 1313.3125 1232.4901 1293.3369 1271.5957z"></path><path d="M1332.0889,1420.0178q-.24315.1212-.4862.2429c-142.096,75.5605-352.6698,85.8808-555.0687,16.7553-10.1585-23.1905-16.9985-51.2373-20.3169-82.7647-13.882-131.614,34.8861-323.6117,152.3755-479.5489l358.4985,80.8218,1.3354.2833c4.7759,10.199,9.2682,20.6405,13.4769,31.4061-40.2286,28.492-147.9237,80.3767-342.876,12.182-95.7962,205.7579,55.9321,366.7949,392.6159,420.5412C1331.8053,1419.9773,1331.9268,1419.9773,1332.0889,1420.0178Z" style="mix-blend-mode:soft-light" opacity=".6"></path><path fill="#b7765a" d="M1359.0427,908.9007q-1.45695,2.55-3.1569,5.0995c-1.6995,2.5903-3.5611,5.1805-5.5041,7.7302-27.1969,35.2912-79.8101,66.333-156.3827,85.0311-113.1992,27.642-197.0564-3.8044-247.8891-43.9119-.162-.1213-.2831-.2429-.4451-.3641-.0805-.0406-.121-.1216-.2021-.1621-20.6814-16.391-35.8583-34.2389-45.2475-50.0634-9.6728-16.2697-17.8077-42.5763-24.4446-71.4324-15.663-67.9521-23.0691-150.2714-23.0691-150.2714s38.6096-32.3774,118.056-58.684c79.0814-26.2258,198.5944-46.4616,360.8452-22.8666.0811,3.0354.1216,6.0303.2026,8.9444,0,.6069.0405,1.2546.0405,1.8615,1.0118,40.1884,2.7113,72.4444,4.6134,97.9415,3.0353,40.3504,6.5974,63.8645,8.702,75.3178,1.1733,6.1518,1.902,8.8633,1.902,8.8633C1375.9596,835.7281,1379.5216,873.8524,1359.0427,908.9007Z"></path><path fill="#fff" d="M1336.4592 717.753c-53.6655-8.9038-121.7787-29.0586-98.9126-55.608 21.9358-25.4566 65.807-37.1935 94.2992-42.3335C1332.8576 659.9999 1334.5571 692.2559 1336.4592 717.753zM1359.0427 908.9007q-1.45695 2.55-3.1569 5.0995a103.91444 103.91444 0 01-32.0938-9.7536c-29.7066-15.0961-42.4548-51.9657-28.0471-82.0361 10.0374-20.8833 29.7871-27.9659 49.4163-29.1397 1.1733 6.1518 1.902 8.8633 1.902 8.8633C1375.9596 835.7281 1379.5216 873.8524 1359.0427 908.9007z" opacity=".11"></path><path d="M1350.3817,921.7304c-119.7556,115.9918-325.6351,101.5839-404.2718,41.1192-.162-.1213-.2831-.2429-.4451-.3641-.0805-.0406-.121-.1216-.2021-.1621-20.6814-16.391-35.8583-34.2389-45.2475-50.0634-9.6728-16.2697-17.8077-42.5763-24.4446-71.4324-15.663-67.9521-23.0691-150.2714-23.0691-150.2714s38.6096-32.3774,118.056-58.684c79.0814-26.2258,198.5944-46.4616,360.8452-22.8666.0811,3.0354.1216,6.0303.2026,8.9444-70.5019-1.3357-243.4373,4.8969-302.0807,95.0274-74.3465,114.292-48.9707,226.3581,18.2933,265.2919C1115.3223,1017.203,1294.5716,970.256,1350.3817,921.7304Z" style="mix-blend-mode:soft-light" opacity=".3"></path><path fill="#fff" d="M1244.3456,805.1718c-14.6908,10.1584-29.4631,17.6053-28.6938,4.6948a42.443,42.443,0,0,1,6.961-21.1263c12.3035-6.2731,23.3927-9.5513,24.9707-2.2664C1248.6358,791.4116,1247.3004,798.1703,1244.3456,805.1718Z" opacity=".11"></path><path d="M1244.3456,805.1718s-25.4141,25.5431-44.1543,25.1472-19.7369-11.7226-2.412-26.713c-17.7799,11.0082-29.7805,25.4793-8.6693,32.2329s33.9296,1.7778,41.3776-9.3935S1244.3456,805.1718,1244.3456,805.1718Z" style="mix-blend-mode:soft-light" opacity=".3"></path><path fill="#280303" d="M1048.5544,883.2401s-19.0041,25.0748-18.2122,46.1905,49.6218,36.9524,84.7266,32.2014,68.098-27.1864,82.3511-65.4586S1048.5544,883.2401,1048.5544,883.2401Z"></path><path fill="#fff" d="M1177.8914,886.9246a55.17614,55.17614,0,0,1-4.6139,14.8936,8.1842,8.1842,0,0,0-.4046.85h-.0405a44.18726,44.18726,0,0,1-14.7318,17.5243c-2.7522,1.2951-5.4635,2.4687-8.2153,3.5615-.1216.0405-.2026.0808-.3241.1213-51.4394,20.3169-100.9362,5.7067-104.2551-6.3136-3.521-12.6676,3.4405-42.0904,3.4405-42.0904Z"></path><path fill="#e5e5e5" d="M1177.8914,886.9246a55.17614,55.17614,0,0,1-4.6139,14.8936l-.3641.8095-.0405.0405h-.0405c-1.9021.8905-40.7148,18.3338-101.9885,9.3489-3.3999,18.4551,45.9758,23.4331,78.7173,11.8582-51.4394,20.3169-100.9362,5.7067-104.2551-6.3136-3.521-12.6676,3.4405-42.0904,3.4405-42.0904Z"></path><ellipse cx="1077.325" cy="752.257" rx="32.267" ry="48.302" transform="rotate(-2.99 1077.324 752.257)" style="mix-blend-mode:soft-light" opacity=".3"></ellipse><path fill="#b7765a" d="M883.9455,895.2618c-.7287.3644-1.4569.7285-2.1852,1.0523-73.9823,35.1294-96.3633-65.5237-71.6757-93.8538,6.0303-6.8803,12.2631-10.7249,18.1718-12.3034,19.022-5.4638,35.6153,9.5513,35.6153,9.5513a172.99144,172.99144,0,0,1,19.8717,14.5295l.081.0807C907.0146,833.8663,935.911,869.1172,883.9455,895.2618Z"></path><path d="M883.9455,895.2618c-.7287.3644-1.4569.7285-2.1852,1.0523-36.1009,7.1231-62.327-34.6032-61.3152-56.6198,1.0929-23.8784,23.2713-14.4485,23.2713-14.4485a83.78975,83.78975,0,0,0-15.46-35.0889c19.022-5.4638,35.6153,9.5513,35.6153,9.5513a172.99144,172.99144,0,0,1,19.8717,14.5295l.081.0807C907.0146,833.8663,935.911,869.1172,883.9455,895.2618Z" style="mix-blend-mode:soft-light" opacity=".3"></path><path fill="#995942" d="M880.4715,876.5715c-4.8756-6.0504-9.1722-12.0917-13.4751-18.0099-4.3561-5.8722-8.6386-11.6202-13.2233-16.8565-4.6277-5.1342-9.5028-9.8876-15.1341-12.6456-5.59-2.7999-12.3742-2.6157-19.8051.0989a21.23633,21.23633,0,0,1,22.396-8.073c8.6741,2.0124,15.3015,7.6607,20.5993,13.5151a77.18293,77.18293,0,0,1,12.4056,19.7934A72.32961,72.32961,0,0,1,880.4715,876.5715Z"></path><path fill="#333" d="M945.4627,780.727a267.17359,267.17359,0,0,1-21.086,19.9525c-1.7811,1.5379-3.5616,3.0354-5.4231,4.5733a107.7342,107.7342,0,0,0-2.5092,12.951,121.87208,121.87208,0,0,0-1.2139,20.7215c.3231,12.7889,2.8733,27.1971,10.5221,39.6622-25.659-13.8818-38.2051-21.2882-49.982-37.7599-.8502-3.6831-1.66-7.4064-2.4692-11.1702-2.7113-12.6677-5.14-25.6187-7.2851-38.3269V791.29c-2.5898-15.1363-4.7754-29.8276-6.5964-43.1022-4.5333-33.2273-6.7184-57.6316-6.7184-57.6316s38.6096-32.3774,118.056-58.684c.5662.8498,1.1334,1.7808,1.6995,2.7116C988.3221,660.6475,1007.101,715.3653,945.4627,780.727Z"></path><ellipse cx="1079.436" cy="767.632" fill="#333" rx="20.324" ry="25.339"></ellipse><ellipse cx="1083.049" cy="759.582" fill="#fff" rx="7.997" ry="9.634"></ellipse><path fill="#fff" d="M1077.3245,773.8346a4.61905,4.61905,0,1,1-4.619-4.6191A4.619,4.619,0,0,1,1077.3245,773.8346Z"></path><ellipse cx="1272.204" cy="744.704" rx="29.121" ry="43.592" transform="rotate(-6.575 1272.204 744.704)" style="mix-blend-mode:soft-light" opacity=".3"></ellipse><ellipse cx="1274.973" cy="758.434" fill="#333" rx="18.342" ry="22.868" transform="rotate(-3.585 1274.972 758.433)"></ellipse><ellipse cx="1277.773" cy="750.979" fill="#fff" rx="7.217" ry="8.695" transform="rotate(-3.586 1277.775 750.98)"></ellipse><path fill="#fff" d="M1273.4214,764.1399a4.16866,4.16866,0,1,1-4.4212-3.8998A4.16869,4.16869,0,0,1,1273.4214,764.1399Z"></path><path fill="#995942" d="M1204.5621,838.1159c6.1889.5123,11.577-2.227,16.0643-5.7821a63.58147,63.58147,0,0,0,11.6353-12.8165,81.633,81.633,0,0,0,8.2578-15.1618c2.1372-5.1864,3.7706-10.8813,3.3105-15.6657a5.19749,5.19749,0,0,0-.4135-1.9602c-.0227-.0624-.3364-.3557-1.3336-.4324a22.41578,22.41578,0,0,0-7.3516,1.3138c-5.3934,1.627-10.7425,4.3216-16.1231,6.8457-10.6878,5.3075-21.228,11.2345-32.0154,16.948a179.03208,179.03208,0,0,1,28.9475-22.4691,97.014,97.014,0,0,1,16.7098-8.5762,27.26466,27.26466,0,0,1,10.3985-1.9512,9.6706,9.6706,0,0,1,6.7906,3.0495,9.17793,9.17793,0,0,1,1.8894,3.5234,14.53761,14.53761,0,0,1,.5563,2.9635c.4122,7.3743-1.7448,13.6215-4.3607,19.4671a72.2711,72.2711,0,0,1-10.2883,15.959,56.1063,56.1063,0,0,1-14.4274,12.259,31.422,31.422,0,0,1-8.9727,3.2854A17.93921,17.93921,0,0,1,1204.5621,838.1159Z"></path><path fill="#333" d="M1234.1066 898.8233c-15.1769.6477-30.5963 1.7808-46.0568 2.8331-47.3922 3.1972-95.2705 5.7874-136.8755-7.3254-55.1625-17.4433-43.264-70.2182-43.264-70.2182.2025 18.7384 3.8851 37.1934 24.1615 47.3921 20.2763 10.199 31.4465.5667 55.608-21.9761 24.1615-22.5832 44.924-24.5663 78.7983-18.6168 48.4855 11.2915 44.7214 7.4466 63.9454 3.9661s39.2979-3.6425 48.9712 2.0236c9.6318 5.7064 15.9456 17.322 31.0009 24.5663s23.2307-7.0015 22.8261-21.0048C1343.6227 877.4139 1298.7803 892.9954 1234.1066 898.8233zM1118.7623 684.9306c-6.3944 1.5784-15.2984 4.6541-24.7282 8.1348-5.383 2.0641-10.9271 4.209-16.2697 6.3944-4.0066 1.5784-7.8512 3.1569-11.4132 4.6138-7.8918 3.2377-14.4077 6.0707-18.0098 7.6087-1.902.8095-2.9543 1.2951-2.9543 1.2951-12.1415-4.9779-20.3169-23.7569-20.3169-23.7569 1.4975-2.9543 3.0759-5.7874 4.6544-8.4992a128.90409 128.90409 0 0112.9917-18.5763 96.06729 96.06729 0 0111.6959-11.8987 74.609 74.609 0 0112.9913-9.0251 51.356 51.356 0 0124.2425-6.8802C1112.7726 634.0576 1126.1684 665.2209 1118.7623 684.9306z"></path><path d="M1066.3512 704.0736c-7.8918 3.2377-14.4077 6.0707-18.0098 7.6087a120.78257 120.78257 0 01-18.6168-30.961 128.90409 128.90409 0 0112.9917-18.5763C1045.6707 672.5867 1052.4291 690.3134 1066.3512 704.0736zM1094.0341 693.0654c-5.383 2.0641-10.9271 4.209-16.2697 6.3944-7.8917-9.9559-19.1835-27.3184-23.3522-49.2135a74.609 74.609 0 0112.9913-9.0251C1069.7916 653.3627 1076.4691 676.1483 1094.0341 693.0654z" style="mix-blend-mode:soft-light" opacity=".3"></path><path fill="#333" d="M1309.991,672.6675c-2.8738,4.7354-7.1636,11.4536-9.7133,13.9628-2.0236,1.9831-16.1887-.4451-30.7989-3.8043-2.1851-.5262-4.3708-1.0523-6.5159-1.5785-2.7113-.6474-5.3425-1.3354-7.8512-1.9831-4.978-1.3354-9.4708-2.5902-12.9513-3.6828-2.9138-.8905-5.14-1.6595-6.3538-2.1856-7.8518-3.4805,7.0825-26.7923,15.0958-35.5745,3.0354-3.3188,7.8918-4.7352,13.2344-4.978a47.291,47.291,0,0,1,15.2984,1.9021,41.916,41.916,0,0,1,7.5272,2.8735c.4456.2834.8902.5262,1.2953.769a41.71538,41.71538,0,0,1,4.5734,3.3592c5.9087,4.8162,13.0722,12.3439,17.0789,18.8597A11.54819,11.54819,0,0,1,1309.991,672.6675Z"></path><path d="M1279.4352 634.7456c-14.1246 14.3271-21.4907 34.7653-24.3235 44.5188-4.978-1.3354-9.4708-2.5902-12.9513-3.6828a113.18043 113.18043 0 0121.9764-42.7381A47.291 47.291 0 011279.4352 634.7456zM1292.8311 641.7473c-12.4246 13.8818-19.9933 31.8107-23.3523 41.0787-2.1851-.5262-4.3708-1.0523-6.5159-1.5785 8.9036-24.0402 19.062-37.8409 23.9995-43.6284.4456.2834.8902.5262 1.2953.769A41.71538 41.71538 0 011292.8311 641.7473zM1188.0498 901.6564c-47.3922 3.1972-95.2705 5.7874-136.8755-7.3254-55.1625-17.4433-43.264-70.2182-43.264-70.2182.2025 18.7384 3.8851 37.1934 24.1615 47.3921 20.2763 10.199 31.4465.5667 55.608-21.9761 24.1615-22.5832 44.924-24.5663 78.7983-18.6168 48.4855 11.2915 44.7214 7.4466 63.9454 3.9661 0 0-18.6168 12.4654-47.5137 8.0943C1157.1699 839.1276 1138.9576 879.1541 1188.0498 901.6564z" style="mix-blend-mode:soft-light" opacity=".3"></path><path d="M1326.3007,1161.9298c-6.5964,45.045-20.721,85.8405-33.065,109.8402-29.261,1.0928-54.5963,1.6998-76.9367,1.8213-14.4082.0808-27.5615-.0405-39.824-.3644-9.4298-.2428-18.3338-.6474-26.7518-1.133a540.24471,540.24471,0,0,1-100.37-15.0961c-47.4732-11.4939-97.051-44.3166-118.9058-60.0194l-.04-.0405v-.0405s241.2917,55.3652,395.7723-35.4532Q1326.24045,1161.6869,1326.3007,1161.9298Z" style="mix-blend-mode:soft-light" opacity=".6"></path><path fill="#841818" d="M918.9533,1188.3579l11.5548,8.4403.0105.0076.0105.0105.0403.0394-.0204-.0175c25.921,18.0041,53.2929,34.0989,82.3232,46.2853a250.14158,250.14158,0,0,0,44.8887,14.079c15.3796,3.4329,30.8713,6.2885,46.4684,8.3712,31.2019,4.1773,62.731,5.3293,94.2653,5.2517,15.7593.3249,31.5384-.2315,47.3128-.6426l47.3227-1.226-2.3978,1.5252a308.79586,308.79586,0,0,0,18.3466-46.4615,417.84167,417.84167,0,0,0,11.9182-48.6633c6.064-32.8059,8.3313-66.5663,3.7857-99.557l2.8562,2.4014c-32.1355.8522-64.3305.4866-96.4083-1.6579a876.08322,876.08322,0,0,1-95.7645-11.1443c-31.6655-5.4829-63.1076-12.4949-93.7923-22.0595-30.5768-9.7325-60.9209-20.8483-88.9267-36.5784,28.3656,15.0391,58.8963,25.3842,89.5909,34.3427a819.24035,819.24035,0,0,0,93.7696,20.3955c7.9207,1.1254,15.8053,2.4938,23.7523,3.4195l23.8305,2.811c15.9377,1.4243,31.8684,2.841,47.844,3.6536,31.9373,1.9909,63.9603,2.2093,95.9372,1.2173l2.5045-.0775.3523,2.4798c4.8062,33.7922,2.627,68.118-3.3723,101.4457a415.84087,415.84087,0,0,1-12.2891,49.3246,314.35213,314.35213,0,0,1-18.9274,47.2834l-.7604,1.4911-1.6392.0353-47.4365,1.0167c-15.8111.3408-31.6165.8269-47.4539.4309a661.39177,661.39177,0,0,1-94.7913-6.4063c-15.6933-2.3125-31.2619-5.4019-46.6696-9.0608a235.38228,235.38228,0,0,1-45.154-15.0245c-28.9674-12.992-55.9829-29.7826-81.4876-48.4202l-.0134-.0097-.0088-.0093-.0396-.0402.0198.0169Z"></path><path fill="#6b6b6b" d="M1011.8764,1734.5232c-3.2379,5.4233-10.9676,9.8348-23.7568,12.3035-43.5471,8.3777-190.2975,13.4366-194.0216-14.0033-1.3754-10.2797,9.7543-20.6404,24.2025-29.5848,35.4533-21.9356,77.4224-28.4514,117.813-20.5597a243.56378,243.56378,0,0,1,28.6138,7.2851q2.1846.72855,4.3708,1.457C1002.2846,1702.8745,1019.7682,1721.5724,1011.8764,1734.5232Z"></path><path d="M1011.8764 1734.5232c-3.2379 5.4233-10.9676 9.8348-23.7568 12.3035-43.5471 8.3777-190.2975 13.4366-194.0216-14.0033-1.3754-10.2797 9.7543-20.6404 24.2025-29.5848 35.4533-21.9356 77.4224-28.4514 117.813-20.5597a243.56378 243.56378 0 0128.6138 7.2851c-32.4584-1.7807-81.7126-.6476-109.233 18.9002C814.9415 1737.599 941.4966 1748.4859 1011.8764 1734.5232zM915.2305 838.9253a218.96451 218.96451 0 01-41.9291-9.2679c-2.7113-12.6677-5.14-25.6187-7.2851-38.3269 15.3389 11.8177 33.6727 20.5597 50.4281 26.8733A121.87208 121.87208 0 00915.2305 838.9253zM945.4627 780.727a267.17359 267.17359 0 01-21.086 19.9525c-15.9862-9.8346-38.0435-26.0638-64.9568-52.4917-4.5333-33.2273-6.7184-57.6316-6.7184-57.6316s38.6096-32.3774 118.056-58.684c.5662.8498 1.1334 1.7808 1.6995 2.7116C950.4002 655.0219 896.6536 715.4056 945.4627 780.727z" style="mix-blend-mode:soft-light" opacity=".3"></path><polygon points="1603.856 1260.276 1605.192 1260.276 1604.261 1261.814 1603.856 1260.276" style="mix-blend-mode:soft-light" opacity=".3"></polygon><path d="M2167.4241,1272.1341q0,1.1535-1.6995,2.3069Z" style="mix-blend-mode:soft-light" opacity=".3"></path><path fill="#995942" d="M1479.608,1325.4356a27.205,27.205,0,0,1-14.6688,14.4989,22.64133,22.64133,0,0,1-11.065,1.6785,14.26752,14.26752,0,0,1-5.822-1.9745,19.71255,19.71255,0,0,1-4.4068-4.0143c-4.4849-5.7048-7.4531-11.7773-10.1279-18.0271a108.94712,108.94712,0,0,1-6.1994-19.3181c3.7572,5.6704,7.0793,11.4773,10.4347,17.1964,3.4154,5.6293,6.6717,11.5143,10.56,16.2724,1.9506,2.4827,3.5746,3.698,6.4174,4.1977a20.64229,20.64229,0,0,0,8.6993-.4822C1469.3635,1333.9226,1474.87,1330.292,1479.608,1325.4356Z"></path><path fill="#7c7c7c" d="M1481.0793,1326.7871l-.2613-.2776-2.7057-2.4049.1866-.2612,1.3902,1.4718,1.7727.954-.3405.5109-.3033-.2706Zm-1.4695-1.3506-1.7821-.947.2846-.3849Z"></path><path fill="#995942" d="M1479.0412,1393.509a59.0536,59.0536,0,0,1-13.9253-9.3106,51.79423,51.79423,0,0,1-10.8323-13.2163,30.72565,30.72565,0,0,1-4.1292-17.1025c.4303-5.9754,3.3542-11.8216,8.0846-14.9671a25.7234,25.7234,0,0,0-3.3472,14.9966,35.40069,35.40069,0,0,0,4.7036,14.141C1464.538,1377.0826,1471.9952,1384.8576,1479.0412,1393.509Z"></path><path d="M1365.5991 1335.6747c17.8076.6477 48.445 1.6595 81.0649 2.4687a33.23156 33.23156 0 00-10.8467 3.7236c-1.8615 1.0118-3.6015 2.3069-5.423 3.3995a22.89824 22.89824 0 00-9.7133 6.8802 28.49838 28.49838 0 00-10.8462-2.2664c-8.3779 0-15.1768 4.1282-20.1143 8.661A25.56371 25.56371 0 011365.5991 1335.6747zM1650.884 1371.9375l-143.7151-7.3659c-1.1328-8.0944-7.7302-17.6456-14.3266-25.4566 29.8676.4451 56.9435.5261 72.4439-.3239 35.8179-1.983 26.4687-26.3876 18.6579-39.6217l41.6045-.8905z" style="mix-blend-mode:soft-light" opacity=".6"></path><path fill="#995942" d="M1421.6121,1352.511a50.61328,50.61328,0,0,0-12.0412-.2875,32.10836,32.10836,0,0,0-10.5798,3.4157c-6.6804,3.4744-12.5188,8.8701-18.7415,14.7199a29.2973,29.2973,0,0,1,5.7953-11.5543,32.21071,32.21071,0,0,1,10.1605-8.5555,24.92285,24.92285,0,0,1,13.3113-2.7445A21.67268,21.67268,0,0,1,1421.6121,1352.511Z"></path><path fill="#995942" d="M1452.4916,1338.9125c-7.877.6085-15.2741,2.9116-21.0775,7.2959a31.97687,31.97687,0,0,0-11.6972,17.4396c-1.9791,6.9426-1.0764,14.1064,1.3902,21.2122a105.87994,105.87994,0,0,0,10.4201,20.5474,56.43234,56.43234,0,0,1-14.7924-18.7245,39.1107,39.1107,0,0,1-3.6942-11.8794,33.7855,33.7855,0,0,1,.8065-12.6914,32.79167,32.79167,0,0,1,14.9697-19.8441A31.80712,31.80712,0,0,1,1452.4916,1338.9125Z"></path><path fill="#97a0a0" d="M2161.5964,1260.276l-.2025.7689-1.9426,7.5277-2.3882,9.1872-3.3589,12.9509-23.4733,90.2519-1.619,6.1517c0,.0811-.0405.1213-.081.2023-12.8297,43.9522-480.1967,43.8715-491.6905-.2023l-28.4517-109.3545-4.1277-15.9459-.2026-.769-.2025-.7689Z"></path><ellipse cx="1882.731" cy="1260.287" fill="#97a0a0" rx="278.882" ry="20.984"></ellipse><ellipse cx="1882.731" cy="1260.287" rx="278.882" ry="20.984" style="mix-blend-mode:soft-light" opacity=".3"></ellipse><path d="M1770.4375,1324.0189c140.0724,87.419,297.0623,73.3752,358.0934,63.2977-12.8297,43.9522-480.1967,43.8715-491.6905-.2023l-28.4517-109.3545c33.3486,8.8633,143.5534,15.3791,274.3577,15.3791s240.9681-6.5158,274.3167-15.3791l-3.3589,12.9509S1955.1908,1338.265,1770.4375,1324.0189Z" style="mix-blend-mode:soft-light" opacity=".3"></path><path d="M2143.4247,1267.7229c-39.9866,7.9323-141.6509,13.5579-260.6783,13.5579-133.7186,0-245.4204-7.0826-272.5767-16.5528q.91-.18225,1.9426-.3644c.6471-.1212,1.2948-.2428,1.983-.3641,7.3661-1.3356,16.4318-2.5497,26.9943-3.7235,50.3065-5.5041,134.4469-9.1062,229.7579-9.1062,95.4325,0,179.6138,3.6021,229.9199,9.1062,2.8328.3238,5.5851.6476,8.2158.9712,1.7806.2026,3.48.4454,5.14.6477,1.6995.2428,3.3185.4452,4.8969.688,5.8277.85,10.8867,1.7402,15.1364,2.6712.7282.1618,1.4569.3236,2.1451.4857A67.845,67.845,0,0,1,2143.4247,1267.7229Z" style="mix-blend-mode:soft-light"></path><path fill="#98a84f" d="M1835.1247,1077.5219a20.28283,20.28283,0,1,0-8.4966-11.0462A20.27571,20.27571,0,0,0,1835.1247,1077.5219Zm-.7587-13.4847a12.1798,12.1798,0,1,1,5.5203,6.8803A12.17259,12.17259,0,0,1,1834.366,1064.0372Z"></path><path d="M1835.1247,1077.5219a20.26087,20.26087,0,1,0-6.3111-9.4287A20.04605,20.04605,0,0,0,1835.1247,1077.5219Zm7.1979-28.7454a12.16519,12.16519,0,1,1-7.9566,15.2607A12.15234,12.15234,0,0,1,1842.3226,1048.7765Z" style="mix-blend-mode:soft-light" opacity=".3"></path><path fill="#98a84f" d="M1743.6132,946.9851a20.28265,20.28265,0,1,0-8.4967-11.0461A20.27494,20.27494,0,0,0,1743.6132,946.9851Zm-.7587-13.4846a12.17967,12.17967,0,1,1,5.5202,6.8803A12.17259,12.17259,0,0,1,1742.8545,933.5005Z"></path><path d="M1743.6132,946.9851a20.26078,20.26078,0,1,0-6.3111-9.4286A20.04526,20.04526,0,0,0,1743.6132,946.9851Zm7.1979-28.7453a12.16525,12.16525,0,1,1-7.9566,15.2607A12.15234,12.15234,0,0,1,1750.8111,918.2398Z" style="mix-blend-mode:soft-light" opacity=".3"></path><path fill="#98a84f" d="M1711.4989 1033.1049s-13.4883-.1484-8.9692-5.9716 12.7943 6.4769 25.609-1.7161c0 0 3.8158-3.402-1.6234-4.3762 0 0 6.4713-3.5057 4.2967-5.7531s-11.2072.1103-11.2072.1103 15.2817-5.7934 10.4057-9.6334-14.6942 1.4536-14.6942 1.4536-5.0481-3.0048 5.7614-9.6361c.8192-.5026 3.5934-3.332 1.1022-4.2576s-.4661-3.0302-3.4141-3.0788-1.3675-2.0129-3.6486-2.2716-5.8166 4.0325-5.8166 4.0325 3.7121-6.0576 1.0107-7.6502-5.8624 2.3362-6.4835 4.2427-4.1296.0794-4.0259 2.735-3.3496 6.4322-6.6816 2.8388-8.433-2.7191-4.0744 5.683c0 0-4.8302-2.1437-5.0647-1.3366s7.6662 13.4695-3.5261 8.1985c0 0-11.1857 3.2806-11.8769 4.9648s3.9652.95 3.9652.95-4.5285 1.9158-5.2076 2.863 8.2229 2.0521 8.9356 3.5383.0916 3.3926-3.4991 2.0802-10.2479.0524-8.5544 4.6509 6.6209.8463 7.8362 3.1516-5.4299 2.9331-6.4714 3.5057 2.6071 2.8443 2.6071 2.8443-3.001 5.4058 3.0015 3.5142c0 0 .5324 4.5979 2.1472 3.9057s.8358-3.746 5.1436-3.4539-.3839-3.5448.959-4.5179 3.8602.6164 4.6252-2.1908-1.1014-6.9846 2.4869-6.6491 6.9553 4.0401 4.0066 5.1527.7518 4.712-2.7406 5.2627-4.2825 1.5328-4.038 3.472-5.0203 2.6818-6.53 3.7075 5.3517.6963 5.3517.6963-6.9069 3.0931-7.9872 4.8998 5.2557-.1899 5.2557-.1899-1.1713 7.3343 3.4721 4.0381c0 0 .5486 6.9756 2.6727 5.573s5.1435-3.4538 5.1435-3.4538 1.5056 5.9408 2.9537 5.3011 1.7037-2.7364 3.5287-2.7616 4.0269.5639 3.5105-1.6562a25.07864 25.07864 0 00-1.5854-4.4493s2.9011 5.1344 5.5163 4.127 2.4849-3.1659 1.048-6.5622-2.7708-2.976-4.2714-2.5031-3.9288-3.161-1.8572-4.7303 6.6168-2.2685 7.5353 2.391 8.367 5.6115 9.2279 3.6905-3.4104-4.424-3.4104-4.424 4.6686-1.4713 3.4237-3.0952a9.04333 9.04333 0 00-3.8854-2.4414S1718.9002 1034.6828 1711.4989 1033.1049zM2070.9822 1112.8046s-13.4883-.1484-8.9692-5.9716 12.7943 6.4769 25.609-1.7161c0 0 3.8158-3.402-1.6234-4.3762 0 0 6.4713-3.5057 4.2967-5.7531s-11.2072.1103-11.2072.1103 15.2817-5.7934 10.4057-9.6334-14.6942 1.4536-14.6942 1.4536-5.0482-3.0048 5.7614-9.6361c.8192-.5026 3.5934-3.332 1.1022-4.2576s-.4661-3.0302-3.4141-3.0788-1.3676-2.0129-3.6486-2.2717-5.8166 4.0326-5.8166 4.0326 3.7121-6.0576 1.0107-7.6503-5.8624 2.3363-6.4835 4.2427-4.1296.0795-4.0259 2.7351-3.3496 6.4322-6.6816 2.8388-8.433-2.7191-4.0744 5.683c0 0-4.8302-2.1437-5.0647-1.3366s7.6662 13.4695-3.5261 8.1985c0 0-11.1857 3.2806-11.877 4.9648s3.9653.9499 3.9653.9499-4.5285 1.9159-5.2076 2.8631 8.2229 2.0521 8.9356 3.5382.0916 3.3927-3.4991 2.0803-10.2479.0524-8.5544 4.6509 6.6209.8462 7.8361 3.1516-5.4298 2.9331-6.4713 3.5057 2.6071 2.8443 2.6071 2.8443-3.001 5.4058 3.0015 3.5142c0 0 .5324 4.5978 2.1472 3.9057s.8358-3.746 5.1436-3.4539-.384-3.5449.959-4.518 3.8602.6165 4.6252-2.1907-1.1014-6.9846 2.4869-6.6491 6.9553 4.0401 4.0066 5.1527.7518 4.712-2.7406 5.2627-4.2825 1.5328-4.038 3.472-5.0203 2.6818-6.53 3.7075 5.3517.6963 5.3517.6963-6.9069 3.0931-7.9872 4.8998 5.2557-.1899 5.2557-.1899-1.1713 7.3343 3.472 4.0381c0 0 .5486 6.9755 2.6728 5.573s5.1435-3.4539 5.1435-3.4539 1.5056 5.9409 2.9536 5.3012 1.7038-2.7364 3.5288-2.7617 4.0269.564 3.5105-1.6561a25.07864 25.07864 0 00-1.5854-4.4493s2.9011 5.1344 5.5163 4.127 2.4849-3.1659 1.048-6.5623-2.7708-2.9759-4.2714-2.503-3.9288-3.161-1.8572-4.7303 6.6168-2.2685 7.5353 2.391 8.3669 5.6115 9.2279 3.6905-3.4104-4.424-3.4104-4.424 4.6686-1.4713 3.4237-3.0952a9.04333 9.04333 0 00-3.8854-2.4414S2078.3835 1114.3825 2070.9822 1112.8046z"></path><path fill="#e2a88d" d="M1876.9686,951.0398a44.3688,44.3688,0,1,0-22.624,58.5261A44.3686,44.3686,0,0,0,1876.9686,951.0398Zm-73.2641,32.4135a35.73193,35.73193,0,1,1,47.1511,18.2264A35.73007,35.73007,0,0,1,1803.7045,983.4533Z"></path><path fill="#e6e8e8" d="M1873.3175,952.6551a40.37634,40.37634,0,1,0-20.5882,53.2598A40.38161,40.38161,0,0,0,1873.3175,952.6551Zm-69.613,30.7982a35.73193,35.73193,0,1,1,47.1511,18.2264A35.73007,35.73007,0,0,1,1803.7045,983.4533Z"></path><path fill="#e2a88d" d="M2012.3815,871.507a44.36875,44.36875,0,1,0-22.624,58.5261A44.3686,44.3686,0,0,0,2012.3815,871.507Zm-73.264,32.4135a35.73193,35.73193,0,1,1,47.151,18.2264A35.72994,35.72994,0,0,1,1939.1175,903.9205Z"></path><path fill="#e6e8e8" d="M2008.7305,873.1223a40.37638,40.37638,0,1,0-20.5883,53.2598A40.38164,40.38164,0,0,0,2008.7305,873.1223Zm-69.613,30.7982a35.73193,35.73193,0,1,1,47.151,18.2264A35.72994,35.72994,0,0,1,1939.1175,903.9205Z"></path><path fill="#dd5729" d="M1838.3586,1196.184s-43.8335,31.6499-78.126-9.0685l14.5178-11.2474,65.7901-50.9678a55.46164,55.46164,0,0,1,8.6781,8.5259C1859.3186,1145.6562,1870.7926,1169.6448,1838.3586,1196.184Z"></path><path fill="#ea623d" d="M1849.2186,1133.4262c-6.2638-2.03-13.8269-2.2893-17.5938,5.8227-7.0833,15.2647-2.3293,35.6194-20.1145,38.2427-17.7843,2.6176-13.5407-5.5891-28.4994-2.0647a21.04227,21.04227,0,0,1-8.2605.4412l65.7901-50.9678A55.46164,55.46164,0,0,1,1849.2186,1133.4262Z"></path><path fill="#c94623" d="M1832.8755,1140.0658s-4.6508.9675-6.0131,8.0922-1.5665,22.3184-12.1706,27.1084-28.3532-10.2013-36.0414,5.6569,28.017,27.2629,54.9293,5.1563S1842.3318,1140.3482,1832.8755,1140.0658Z"></path><path fill="#ea623d" d="M1835.7593,1140.9253s.3333.1372.9283.4596a22.07549,22.07549,0,0,1,2.4858,1.5727,24.86779,24.86779,0,0,1,3.4784,3.0326,23.04511,23.04511,0,0,1,3.5974,4.8987,21.81791,21.81791,0,0,1,2.4363,6.9047,24.42134,24.42134,0,0,1-.0386,8.2263,32.97224,32.97224,0,0,1-2.6409,8.3038c-.6573,1.3154-1.3021,2.6562-2.0881,3.9095l-.5672.9565c-.1957.3141-.4072.6162-.6104.9251l-.6162.9223-.3085.4612-.1543.2306-.0386.0576-.0193.0289-.0846.1129-.0957.1191a39.20216,39.20216,0,0,1-3.1181,3.2891c-1.0697,1.0255-2.1944,1.9752-3.3334,2.8842a51.00116,51.00116,0,0,1-7.1086,4.7271,47.72358,47.72358,0,0,1-7.2657,3.2592q-.89835.30285-1.7714.5973c-.5892.1735-1.1657.3534-1.7385.5091-1.1547.2838-2.2673.5531-3.3492.747q-.8055.1686-1.5864.2756c-.5195.0744-1.0224.1669-1.5196.2153-.9963.0841-1.9319.2005-2.82.224-.8852.0445-1.71.0912-2.4768.0614-.7648-.0065-1.4643-.0161-2.0962-.0655-.6314-.0385-1.1932-.0645-1.6808-.1172-.4864-.0589-.9001-.109-1.2356-.1498-.6676-.0879-1.0236-.1347-1.0236-.1347s.3576-.0354,1.0282-.1019c.3336-.0299.745-.0668,1.2287-.1103l1.6526-.2045c.6177-.0629,1.2972-.1774,2.0334-.305q.5511-.0921,1.1465-.1916l1.2238-.2435c1.6826-.3396,3.5529-.8263,5.5517-1.4453a54.55876,54.55876,0,0,0,12.8503-5.9681c1.0922-.6927,2.1865-1.4203,3.2621-2.2011,1.0682-.7905,2.1387-1.6043,3.1748-2.4751,1.0387-.8674,2.0447-1.7877,3.0274-2.7308a36.46021,36.46021,0,0,0,2.7448-2.9332l.073-.0888c.0646-.0853-.0643.0869-.0447.0593l.0182-.0266.0362-.0533.1449-.2133.2898-.4264.5801-.8523c.1911-.285.3919-.565.5751-.8537l.5281-.876c.7297-1.1559,1.3615-2.3462,1.9877-3.5305a33.60173,33.60173,0,0,0,2.6633-7.2792,23.57807,23.57807,0,0,0,.5746-7.1269,22.52662,22.52662,0,0,0-1.5219-6.2843,25.89175,25.89175,0,0,0-2.6864-4.9212,31.20587,31.20587,0,0,0-2.8032-3.4143c-.859-.8871-1.573-1.5613-2.084-1.9928C1836.0467,1141.1425,1835.7593,1140.9253,1835.7593,1140.9253Z"></path><path fill="#ce893e" d="M1786.9001 1189.1363c-.9436.8421-2.0691.7561-3.2557-1.007-3.4285-5.087 5.8403-8.521 5.8403-8.521.0034.0485.0078.091.0112.1394C1789.7841 1182.8388 1788.6564 1187.5842 1786.9001 1189.1363zM1801.9411 1191.82a5.10417 5.10417 0 01-2.9185.5279c-6.8186-4.4933 2.3072-10.4909 2.3072-10.4909.0759.1448.1508.2954.216.4324C1804.6247 1188.4732 1803.5324 1190.8956 1801.9411 1191.82zM1816.5143 1189.1231a5.0179 5.0179 0 01-1.0268.469c-7.4271.6248-3.936-9.8057-3.936-9.8057.3871.2419.7501.4854 1.0968.72C1820.2493 1185.6401 1818.1049 1188.1688 1816.5143 1189.1231zM1829.6941 1183.1333a3.94232 3.94232 0 01-.2943.4137c-8.3983 1.0499-6.4832-8.9133-6.4832-8.9133.4677.1247.9044.2558 1.3168.3887C1832.3156 1177.6433 1830.512 1181.821 1829.6941 1183.1333zM1838.6156 1171.1449a8.7101 8.7101 0 01-.9898.6309c-5.4784 2.8395-7.8463-6.3777-7.8463-6.3777.5484-.0282 1.0707-.0432 1.5609-.0459C1842.3967 1165.2452 1838.6156 1171.1449 1838.6156 1171.1449zM1840.4647 1156.4994c-2.6536 1.9307-10.5238-2.1219-10.5238-2.1219s3.7064-3.9957 6.9235-4.6917c1.814-.3952 3.4733.2512 4.2345 3.2351C1841.585 1154.8287 1841.2574 1155.9352 1840.4647 1156.4994z"></path><path fill="#df9f50" d="M1786.9001 1189.1363a3.06206 3.06206 0 01-1.8245-1.4999c-2.5627-3.8048 1.9665-6.6812 4.4203-7.8887C1789.7841 1182.8388 1788.6564 1187.5842 1786.9001 1189.1363zM1801.9411 1191.82a5.60455 5.60455 0 01-1.4874.035c-5.1926-3.4227-1.1419-7.7099 1.0921-9.5656C1804.6247 1188.4732 1803.5324 1190.8956 1801.9411 1191.82zM1816.5143 1189.1231c-5.3987.1661-4.5054-5.9528-3.866-8.6167C1820.2493 1185.6401 1818.1049 1188.1688 1816.5143 1189.1231zM1829.6941 1183.1333c-5.7154.0322-5.69-5.8402-5.4607-8.1109C1832.3156 1177.6433 1830.512 1181.821 1829.6941 1183.1333zM1838.6156 1171.1449a8.7101 8.7101 0 01-.9898.6309c-3.8023.6281-5.7838-4.8057-6.2854-6.4236C1842.3967 1165.2452 1838.6156 1171.1449 1838.6156 1171.1449zM1840.4647 1156.4994c-3.3238.3547-9.0926-2.6148-9.0926-2.6148a21.17359 21.17359 0 015.4923-4.1988c1.814-.3952 3.4733.2512 4.2345 3.2351C1841.585 1154.8287 1841.2574 1155.9352 1840.4647 1156.4994z"></path><path fill="#dd5729" d="M1932.895,1197.0826s35.2157,41.0239-2.4823,78.6114l-12.4257-13.5231-56.3074-61.2824a55.46572,55.46572,0,0,1,7.7678-9.3628C1880.787,1180.4354,1903.7285,1166.9893,1932.895,1197.0826Z"></path><path fill="#ea623d" d="M1869.4474,1191.5257c-1.4973,6.4121-1.1213,13.9702,7.2781,17.0433,15.8052,5.7778,35.6894-.6671,39.7954,16.8354,4.1003,17.502-4.4334,13.9618.3334,28.5721a21.04331,21.04331,0,0,1,1.1327,8.1944l-56.3074-61.2824A55.46572,55.46572,0,0,1,1869.4474,1191.5257Z"></path><path fill="#c94623" d="M1877.4347,1207.2542s1.3542,4.5533,8.5681,5.313,22.3712-.3113,28.0338,9.8536-7.7867,29.1091,8.6605,35.4398,24.8165-30.2054.5301-55.1683S1876.9228,1197.8076,1877.4347,1207.2542Z"></path><path fill="#ea623d" d="M1878.0492,1204.3085s.1088-.3436.3801-.9637a22.0721,22.0721,0,0,1,1.3587-2.6089,24.87037,24.87037,0,0,1,2.73-3.7205,23.03946,23.03946,0,0,1,4.5797-3.9957,21.81757,21.81757,0,0,1,6.6759-3.007,24.42435,24.42435,0,0,1,8.2006-.6516,32.96825,32.96825,0,0,1,8.4961,1.935c1.3658.5446,2.7561,1.0747,4.0709,1.7527l1.0007.4849c.3294.1687.6482.3541.9731.5307l.9707.5367.4854.2687.2428.1344.0606.0336.0304.0169.1196.0748.1267.0854a39.16783,39.16783,0,0,1,3.5391,2.8312c1.1116.9798,2.1523,2.0209,3.1536,3.0796a51.0055,51.0055,0,0,1,5.3068,6.6869,47.71632,47.71632,0,0,1,3.8573,6.9668q.37725.8697.7438,1.715c.2224.5726.45,1.132.6532,1.6897.3796,1.1268.7413,2.2128,1.0253,3.2747q.2355.78855.4077,1.5577c.1177.5114.2521,1.0048.342,1.4962.1675.9857.3619,1.9083.4598,2.7912.1186.8784.2343,1.6964.269,2.463.0576.7626.1068,1.4604.1106,2.0943.0146.6324.0358,1.1943.0242,1.6846-.0179.4897-.0332.9062-.0456,1.2439-.0316.6726-.0484,1.0313-.0484,1.0313s-.0653-.3534-.1878-1.016c-.0578-.3299-.1291-.7369-.213-1.2152-.0996-.4742-.2141-1.0192-.3424-1.6296-.1145-.6103-.2856-1.2777-.4745-2.0006q-.138-.5415-.2871-1.1265-.1668-.579-.3454-1.199c-.4795-1.6482-1.1214-3.471-1.9058-5.4109a54.55651,54.55651,0,0,0-7.0252-12.3043c-.7818-1.0302-1.5987-2.0596-2.4669-3.066-.8774-.998-1.7781-1.9966-2.7328-2.9559-.9515-.9623-1.9529-1.8875-2.9752-2.7877a36.47593,36.47593,0,0,0-3.153-2.489l-.0947-.0653c-.0903-.0572.092.0568.0629.0395l-.0281-.0158-.0561-.0316-.2247-.1265-.4492-.253-.898-.5066c-.3-.1665-.5959-.3431-.8989-.5015l-.9173-.4527c-1.213-.6302-2.4521-1.1598-3.6848-1.6845a33.59393,33.59393,0,0,0-7.4769-2.0432,23.57882,23.57882,0,0,0-7.15.0252,22.52455,22.52455,0,0,0-6.1344,2.0438,25.89368,25.89368,0,0,0-4.6786,3.0898,31.20365,31.20365,0,0,0-3.167,3.0797c-.812.9304-1.4239,1.6984-1.8109,2.2438C1878.2415,1204.0038,1878.0492,1204.3085,1878.0492,1204.3085Z"></path><path fill="#ce893e" d="M1930.1891 1248.9509c.9183.8697.9271 1.9984-.7303 3.3287-4.7815 3.8432-8.9809-5.1048-8.9809-5.1048.048-.0074.09-.0154.1379-.0228C1923.6719 1246.6054 1928.4951 1247.331 1930.1891 1248.9509zM1931.6016 1233.7378a5.10525 5.10525 0 01.7709 2.864c-3.9055 7.1715-10.6476-1.4191-10.6476-1.4191.138-.0877.2818-.175.4128-.2515C1928.0414 1231.3445 1930.5469 1232.2297 1931.6016 1233.7378zM1927.6916 1219.4422a5.01946 5.01946 0 01.5535.9839c1.2457 7.3485-9.4409 4.7447-9.4409 4.7447.2085-.406.4207-.7882.6254-1.1533C1923.9076 1216.0126 1926.6072 1217.9373 1927.6916 1219.4422zM1920.6172 1206.8114a3.94883 3.94883 0 01.437.2585c1.7507 8.2806-8.338 7.2081-8.338 7.2081.085-.4765.179-.9226.2768-1.3447C1914.9267 1204.6597 1919.2409 1206.1065 1920.6172 1206.8114zM1907.9227 1198.9271a8.69575 8.69575 0 01.7116.9333c3.2891 5.2209-5.6969 8.3538-5.6969 8.3538-.0741-.5442-.1329-1.0634-.1767-1.5516C1901.7266 1195.6543 1907.9227 1198.9271 1907.9227 1198.9271zM1893.1737 1198.3131c2.1465 2.4823-1.2316 10.6647-1.2316 10.6647s-4.2926-3.3581-5.2559-6.5054c-.5461-1.7745-.0411-3.4822 2.8683-4.4911C1891.4148 1197.3369 1892.545 1197.5705 1893.1737 1198.3131z"></path><path fill="#df9f50" d="M1930.1891 1248.9509a3.06171 3.06171 0 01-1.3415 1.9439c-3.5764 2.8729-6.8226-1.3991-8.2318-3.7428C1923.6719 1246.6054 1928.4951 1247.331 1930.1891 1248.9509zM1931.6016 1233.7378a5.60267 5.60267 0 01.1596 1.4792c-2.975 5.4615-7.5869 1.7848-9.6235-.2858C1928.0414 1231.3445 1930.5469 1232.2297 1931.6016 1233.7378zM1927.6916 1219.4422c.6184 5.3658-5.5538 4.9889-8.262 4.5753C1923.9076 1216.0126 1926.6072 1217.9373 1927.6916 1219.4422zM1920.6172 1206.8114c.5116 5.6925-5.3422 6.1598-7.6242 6.1219C1914.9267 1204.6597 1919.2409 1206.1065 1920.6172 1206.8114zM1907.9227 1198.9271a8.69575 8.69575 0 01.7116.9333c.9449 3.7363-4.3035 6.1666-5.8736 6.8022C1901.7266 1195.6543 1907.9227 1198.9271 1907.9227 1198.9271zM1893.1737 1198.3131c.6322 3.2824-1.8428 9.28-1.8428 9.28a21.17583 21.17583 0 01-4.6447-5.1207c-.5461-1.7745-.0411-3.4822 2.8683-4.4911C1891.4148 1197.3369 1892.545 1197.5705 1893.1737 1198.3131z"></path><path fill="#b23030" d="M1912.0039,1027.9523a17.941,17.941,0,0,0,2.9497,2.7325c5.063,3.7383,11.5791,4.6342,15.8366,4.7773.0273.6629.0855,1.3703.1769,2.1115a19.10377,19.10377,0,0,0,4.437,10.6817,12.92549,12.92549,0,0,0,2.2807,1.978,15.68951,15.68951,0,0,0,9.7451,2.5905c10.0412-.3627,14.7481-4.0657,16.96-7.3812,4.1212,1.9147,10.8534,4.0423,18.2436,2.3108,8.0291-1.8747,14.7104-7.7141,19.8454-17.3416l.0517-.1023c.2435-.4922,5.9307-12.1909.1979-20.8219a13.36,13.36,0,0,0-1.2341-1.5912c-2.8809-3.2445-7.2476-5.253-13.0629-6.0131-1.0412-.1349-2.1332-.2341-3.2611-.2896,2.7879-7.1837,6.2641-19.6211,1.6302-29.0384a18.43657,18.43657,0,0,0-3.1263-4.5318c-3.2261-3.4676-7.8373-5.7314-13.7637-6.7455-8.1123-1.3915-14.7262-.325-19.7114,3.1557a19.59835,19.59835,0,0,0-2.3305,1.9114c-5.6579,5.4469-7.0722,13.4993-7.3052,18.9844-4.4618-1.1274-10.9019-1.7923-17.0955.9885-6.9319,3.1068-11.7954,9.6374-14.4369,19.418C1906.4689,1015.1962,1907.472,1022.6688,1912.0039,1027.9523Zm84.2068-14.2358.0355.0509c2.702,4.0325.4598,10.75-.6517,13.0509-4.0154,7.5009-8.9527,11.9996-14.6599,13.3611-8.2747,1.9703-15.906-3.1948-16.2188-3.412l-6.3511-4.8372.2166,7.7568c-.1179.6315-1.3139,5.0086-11.4283,5.375a9.06526,9.06526,0,0,1-4.1965-.7068,5.8136,5.8136,0,0,1-1.8101-1.331c-2.7858-3.0269-2.7577-9.0225-2.5129-11.0591l.2948-2.3177.3237-2.5747-4.904.5449c-.0967.0108-8.6289.8256-14.147-2.737a10.3934,10.3934,0,0,1-2.3023-1.9817c-2.7577-3.2171-3.2249-8.3081-1.375-15.1398,2.0056-7.3953,5.3957-12.2247,10.0764-14.3374,7.4303-3.3696,16.1938.8533,16.2657.8885l6.5457,3.2712-.9596-7.2474c-.0176-.1202-1.4342-12.3899,4.8021-18.392,3.3027-3.1775,8.4617-4.1847,15.3415-3.0123,4.5252.7708,7.7739,2.3853,9.8466,4.9063a10.78359,10.78359,0,0,1,1.3817,2.1416c4.1756,8.4491-1.5364,22.8928-4.088,27.7429l-3.2414,6.1272,3.8527-.2467,3.0677-.191C1988.1013,1008.8568,1993.9043,1010.3453,1996.2107,1013.7165Z"></path><path d="M1914.5299,1030.2136c.1391.1586.2782.3171.4237.4712,5.063,3.7383,11.5791,4.6342,15.8366,4.7773.0273.6629.0855,1.3703.1769,2.1115q1.2594.11505,2.3491.1498c.1642,3.6263,1.0685,8.7056,4.3686,12.5099a15.68951,15.68951,0,0,0,9.7451,2.5905c10.0412-.3627,14.7481-4.0657,16.96-7.3812,4.1212,1.9147,10.8534,4.0423,18.2436,2.3108,8.0291-1.8747,14.7104-7.7141,19.8454-17.3416l.0517-.1023c.2435-.4922,5.9307-12.1909.1979-20.8219a13.36,13.36,0,0,0-1.2341-1.5912c-3.354-2.4029-7.9714-3.7532-13.7981-4.0414.2387-.6212.4895-1.2793.7352-1.9717-1.0412-.1349-2.1332-.2341-3.2611-.2896,2.7879-7.1837,6.2641-19.6211,1.6302-29.0384a18.43657,18.43657,0,0,0-3.1263-4.5318,25.71532,25.71532,0,0,0-11.2377-4.4842c-8.1123-1.3915-14.7263-.325-19.7114,3.1557a19.59035,19.59035,0,0,0-2.3305,1.9114c-5.658,5.4469-7.0722,13.4993-7.3053,18.9845-4.4618-1.1275-10.9019-1.7924-17.0955.9885-6.9319,3.1068-11.7953,9.6373-14.4369,19.4179C1908.9948,1017.4575,1909.9979,1024.9301,1914.5299,1030.2136Zm1.9938-22.4545c2.0056-7.3953,5.3957-12.2247,10.0764-14.3374,7.4303-3.3696,16.1938.8533,16.2657.8885l6.5457,3.2712-.9596-7.2474c-.0176-.1202-1.4342-12.3899,4.8021-18.392,3.3027-3.1775,8.4617-4.1847,15.3415-3.0123,4.5252.7708,7.7739,2.3853,9.8466,4.9063a11.085,11.085,0,0,1,3.9076,4.4029c4.1757,8.4491-1.5363,22.8928-4.088,27.7429l-1.9146,3.6192,3.0677-.191c8.6865-.5532,14.4895.9353,16.7959,4.3065a7.54275,7.54275,0,0,1,2.5615,2.3122c2.7019,4.0325.4598,10.7501-.6518,13.0509-4.0154,7.5009-8.9527,11.9996-14.6599,13.3611-8.2747,1.9704-15.906-3.1947-16.2187-3.412l-6.3512-4.8372.2166,7.7568c-.1178.6315-1.3139,5.0086-11.4283,5.375-2.6885.0966-4.6565-.5654-6.0066-2.0378a6.56093,6.56093,0,0,1-.7158-.9303,5.8136,5.8136,0,0,1-1.8101-1.331c-2.7858-3.0269-2.7577-9.0225-2.5129-11.0591l.2948-2.3177-2.0544.2316c-.1138.0132-11.4664,1.1021-16.4492-4.7188a2.76162,2.76162,0,0,1-.2237-.2796,10.3934,10.3934,0,0,1-2.3023-1.9817C1915.141,1019.6818,1914.6738,1014.5908,1916.5237,1007.7591Z" style="mix-blend-mode:soft-light" opacity=".3"></path><path fill="#98a84f" d="M1905.5213,1150.5613a17.94446,17.94446,0,0,0,2.9496,2.7325c5.063,3.7383,11.5792,4.6342,15.8367,4.7773.0272.6629.0855,1.3703.1768,2.1115a19.10448,19.10448,0,0,0,4.437,10.6817,12.93391,12.93391,0,0,0,2.2808,1.9779,15.68788,15.68788,0,0,0,9.745,2.5905c10.0413-.3626,14.7481-4.0656,16.96-7.3811,4.1212,1.9146,10.8535,4.0423,18.2437,2.3107,8.029-1.8746,14.7104-7.714,19.8454-17.3415l.0516-.1024c.2436-.4921,5.9307-12.1908.198-20.8219a13.37979,13.37979,0,0,0-1.2341-1.5911c-2.881-3.2446-7.2476-5.2531-13.0629-6.0132-1.0412-.1348-2.1333-.2341-3.2612-.2896,2.7879-7.1837,6.2641-19.6211,1.6303-29.0384a18.4406,18.4406,0,0,0-3.1263-4.5317c-3.2261-3.4676-7.8374-5.7314-13.7637-6.7456-8.1123-1.3914-14.7263-.3249-19.7114,3.1558a19.5806,19.5806,0,0,0-2.3305,1.9114c-5.658,5.4469-7.0722,13.4993-7.3053,18.9844-4.4618-1.1275-10.9019-1.7924-17.0954.9885-6.932,3.1068-11.7954,9.6374-14.437,19.4179C1899.9862,1137.8051,1900.9893,1145.2778,1905.5213,1150.5613Zm84.2067-14.2359.0356.0509c2.7019,4.0326.4598,10.7501-.6518,13.051-4.0154,7.5009-8.9527,11.9996-14.6598,13.361-8.2748,1.9704-15.9061-3.1947-16.2188-3.4119l-6.3511-4.8373.2165,7.7568c-.1178.6315-1.3139,5.0086-11.4283,5.3751a9.06612,9.06612,0,0,1-4.1964-.7068,5.81559,5.81559,0,0,1-1.8102-1.331c-2.7858-3.027-2.7576-9.0226-2.5128-11.0591l.2947-2.3178.3237-2.5747-4.9039.545c-.0968.0108-8.629.8256-14.147-2.737a10.38934,10.38934,0,0,1-2.3023-1.9818c-2.7577-3.217-3.2249-8.3081-1.3751-15.1398,2.0057-7.3953,5.3958-12.2246,10.0764-14.3373,7.4304-3.3697,16.1938.8533,16.2657.8884l6.5458,3.2713-.9596-7.2475c-.0176-.1202-1.4342-12.3898,4.802-18.3919,3.3028-3.1775,8.4618-4.1847,15.3415-3.0123,4.5252.7707,7.7739,2.3853,9.8466,4.9062a10.78431,10.78431,0,0,1,1.3817,2.1417c4.1757,8.4491-1.5363,22.8928-4.088,27.7428l-3.2414,6.1273,3.8527-.2467,3.0677-.191C1981.6186,1131.4658,1987.4216,1132.9543,1989.728,1136.3254Z"></path><path d="M1908.0472,1152.8226c.1391.1586.2782.3171.4237.4712,5.063,3.7383,11.5792,4.6342,15.8367,4.7773.0272.6629.0855,1.3703.1768,2.1115q1.2594.115,2.3491.1498c.1643,3.6262,1.0685,8.7056,4.3687,12.5098a15.68788,15.68788,0,0,0,9.745,2.5905c10.0413-.3626,14.7481-4.0656,16.96-7.3811,4.1212,1.9146,10.8535,4.0423,18.2437,2.3107,8.029-1.8746,14.7104-7.714,19.8454-17.3415l.0516-.1024c.2436-.4921,5.9307-12.1908.198-20.8219a13.37979,13.37979,0,0,0-1.2341-1.5911c-3.354-2.4029-7.9714-3.7532-13.7981-4.0415.2386-.6212.4894-1.2793.7352-1.9717-1.0412-.1348-2.1333-.2341-3.2612-.2896,2.7879-7.1837,6.2641-19.6211,1.6303-29.0384a18.4406,18.4406,0,0,0-3.1263-4.5317,25.71531,25.71531,0,0,0-11.2378-4.4843c-8.1123-1.3914-14.7262-.3249-19.7114,3.1558a19.5806,19.5806,0,0,0-2.3305,1.9114c-5.6579,5.4469-7.0722,13.4993-7.3052,18.9844-4.4618-1.1274-10.9019-1.7923-17.0955.9885-6.9319,3.1068-11.7954,9.6374-14.437,19.4179C1902.5121,1140.0664,1903.5153,1147.5391,1908.0472,1152.8226Zm1.9938-22.4546c2.0057-7.3953,5.3958-12.2246,10.0764-14.3373,7.4304-3.3697,16.1938.8533,16.2657.8884l6.5458,3.2713-.9596-7.2475c-.0176-.1202-1.4342-12.3898,4.802-18.3919,3.3028-3.1775,8.4618-4.1847,15.3415-3.0123,4.5252.7707,7.7739,2.3853,9.8466,4.9062a11.08474,11.08474,0,0,1,3.9077,4.403c4.1756,8.4491-1.5364,22.8928-4.088,27.7428l-1.9147,3.6193,3.0677-.191c8.6865-.5532,14.4895.9353,16.7959,4.3064a7.54307,7.54307,0,0,1,2.5615,2.3123c2.7019,4.0325.4598,10.75-.6517,13.0509-4.0154,7.5009-8.9528,11.9996-14.6599,13.3611-8.2747,1.9703-15.906-3.1948-16.2188-3.412l-6.3511-4.8372.2165,7.7567c-.1178.6315-1.3139,5.0086-11.4282,5.3751-2.6885.0965-4.6566-.5654-6.0066-2.0378a6.56661,6.56661,0,0,1-.7158-.9303,5.81559,5.81559,0,0,1-1.8102-1.331c-2.7858-3.027-2.7576-9.0226-2.5128-11.0591l.2947-2.3178-2.0543.2316c-.1139.0133-11.4664,1.1022-16.4493-4.7187a2.74679,2.74679,0,0,1-.2236-.2796,10.38934,10.38934,0,0,1-2.3023-1.9818C1908.6584,1142.2908,1908.1912,1137.1997,1910.041,1130.368Z" opacity=".3"></path><path fill="#333" d="M1886.7126,850.1765a36.0196,36.0196,0,0,1-7.5277,13.1128,54.26953,54.26953,0,0,1-22.7451,15.0959c-22.502,8.0538-45.4906,1.3356-51.3588-14.9746a23.6338,23.6338,0,0,1-1.3759-6.8397c-.6072-14.6913,12.101-30.3943,31.5271-37.3553a56.05148,56.05148,0,0,1,22.9886-3.2377c13.5169,1.0523,24.6061,7.6087,28.4107,18.2123A25.11691,25.11691,0,0,1,1886.7126,850.1765Z"></path><path d="M1879.1849,863.2893a54.26953,54.26953,0,0,1-22.7451,15.0959c-22.502,8.0538-45.4906,1.3356-51.3588-14.9746a23.6338,23.6338,0,0,1-1.3759-6.8397c-.6072-14.6913,12.101-30.3943,31.5271-37.3553a56.05148,56.05148,0,0,1,22.9886-3.2377c-9.6733,5.5851-19.7912,13.1533-26.024,22.664C1820.8245,856.0045,1847.4952,868.6316,1879.1849,863.2893Z" style="mix-blend-mode:soft-light" opacity=".3"></path><path fill="#e6e8e8" d="M1200.3273,1328.5324a22.29059,22.29059,0,0,1-.6359,3.1813,23.95091,23.95091,0,1,1-26.3283-30.0317,24.26918,24.26918,0,0,1,6.3079.0094A23.94838,23.94838,0,0,1,1200.3273,1328.5324Z"></path><path d="M1196.9346,1336.4167a23.01749,23.01749,0,1,1-29.8229-32.761,22.61783,22.61783,0,0,0-3.3166,9.1954,23.03143,23.03143,0,0,0,19.832,25.8388A22.76853,22.76853,0,0,0,1196.9346,1336.4167Z" style="mix-blend-mode:soft-light" opacity=".6"></path><path fill="#fff" d="M1200.3273,1328.5324a22.29059,22.29059,0,0,1-.6359,3.1813,23.2294,23.2294,0,0,1-6.3427.0173,23.94845,23.94845,0,0,1-20.6214-26.8679,22.3515,22.3515,0,0,1,.6358-3.1811,24.26918,24.26918,0,0,1,6.3079.0094A23.94838,23.94838,0,0,1,1200.3273,1328.5324Z" opacity=".22"></path></g></svg>