<svg xmlns="http://www.w3.org/2000/svg" viewBox="0 0 2800 1900" id="chef-holding-empty-board"><g data-name="Layer 1"><ellipse cx="1400" cy="1744.639" fill="#d1bfb2" rx="634.916" ry="72.932"></ellipse><path fill="#6b6b6b" d="M1720.7133,1742.3751c-3.6817,12.6563-41.3798,12.7758-87.7388,10.1493-62.9696-3.6224-110.0398,10.0293-119.2447-8.478-.1257-.2385-.2511-.4771-.3348-.6763-6.1923-14.4081-1.6319-38.6459,1.2135-50.4271,1.046-4.2186,2.2593-8.4377,2.2593-8.4377l60.0825-23.3229a2.6022,2.6022,0,0,0,.2092.3979c1.297,3.0249,10.5438,22.6063,30.92,29.293a64.93642,64.93642,0,0,0,10.46,2.2684c22.8868,3.4631,57.8651,1.8311,87.3206,26.3483,1.1297.9551,2.2176,1.9103,3.3055,2.9053C1718.7051,1731.1512,1722.0941,1737.6386,1720.7133,1742.3751Z"></path><path d="M1720.7133,1742.3751c-3.6817,12.6563-41.3798,12.7758-87.7388,10.1493-62.9696-3.6224-110.0398,10.0293-119.2447-8.478-.1257-.2385-.2511-.4771-.3348-.6763-6.1923-14.4081-1.6319-38.6459,1.2135-50.4271,1.046-4.2186,2.2593-8.4377,2.2593-8.4377l60.0825-23.3229a2.6022,2.6022,0,0,0,.2092.3979c1.297,3.0249,10.5438,22.6063,30.92,29.293a64.93642,64.93642,0,0,0,10.46,2.2684c-8.2005,3.9008-22.259,8.9949-44.4762,12.6567-40.5432,6.607-58.3253,35.8203,31.7988,34.2282C1666.5304,1738.9917,1701.9271,1744.6435,1720.7133,1742.3751Z" style="mix-blend-mode:soft-light" opacity=".3"></path><path fill="#6b6b6b" d="M1308.3778,1739.1511c-.0835.1992-.2091.4382-.3345.6768-9.2049,18.5072-56.2752,4.8555-119.2447,8.4774-63.7229,3.6215-111.1279,1.9901-76.1912-30.1291,1.0879-.995,2.1758-1.9501,3.3053-2.9053,34.3928-28.656,76.3585-21.6113,97.7806-28.6162,20.3762-6.6866,29.623-26.2686,30.92-29.2934a2.59471,2.59471,0,0,0,.2092-.3974l60.0414,23.3071s1.2546,4.2343,2.3006,8.4534C1310.0096,1700.5051,1314.5703,1724.7434,1308.3778,1739.1511Z"></path><path d="M1308.0433,1739.8279c-9.2049,18.5072-56.2752,4.8555-119.2447,8.4774-63.7229,3.6215-111.1279,1.9901-76.1912-30.1291,1.0879-.995,2.1758-1.9501,3.3053-2.9053,34.3928-28.656,76.3585-21.6113,97.7806-28.6162,20.3762-6.6866,29.623-26.2686,30.92-29.2934a2.59471,2.59471,0,0,0,.2092-.3974l60.0414,23.3071s1.2546,4.2343,2.3006,8.4534c-11.8827,4.3779-35.8571,9.7509-83.6804,11.7409-85.6053,3.5423-63.8064,45.2928,45.6476,41.1534C1283.9014,1741.0216,1296.7882,1740.425,1308.0433,1739.8279Z" style="mix-blend-mode:soft-light" opacity=".3"></path><path fill="#333" d="M1358.8631,1517.1501c-4.1307,9.773-8.8273,22.3982-13.7112,36.3069-18.9726,54.0868-40.4844,127.482-40.4844,127.482s-11.2705,4.0608-36.883,5.8311a414.86537,414.86537,0,0,1-54.1031-.0976c-9.1666-96.3698-5.0351-178.4983-5.0351-178.4983S1379.0635,1469.2977,1358.8631,1517.1501Z"></path><path d="M1358.8631,1517.1501c-4.1307,9.773-8.8273,22.3982-13.7112,36.3069-31.3473,8.5281-92.2935,37.5769-77.3674,133.3131a414.86537,414.86537,0,0,1-54.1031-.0976c-9.1666-96.3698-5.0351-178.4983-5.0351-178.4983S1379.0635,1469.2977,1358.8631,1517.1501Z" style="mix-blend-mode:soft-light" opacity=".3"></path><path fill="#333" d="M1608.0795,1690.9131c-14.686.876-27.4053,1.0747-38.2837.8362-5.8159-.1594-11.0878-.3984-15.8157-.7565-25.6062-1.7514-36.9032-5.8112-36.9032-5.8112s-21.5059-73.3915-40.4594-127.4799c-4.8952-13.9301-9.5813-26.547-13.7237-36.2979-20.2087-47.8799,150.2065-8.9949,150.2065-8.9949s.4183,8.8355.7113,24.0794A1411.87193,1411.87193,0,0,1,1608.0795,1690.9131Z"></path><path d="M1569.7958,1691.7493c-5.8159-.1594-11.0878-.3984-15.8157-.7565-25.6062-1.7514-36.9032-5.8112-36.9032-5.8112s-21.5059-73.3915-40.4594-127.4799c-4.8952-13.9301-9.5813-26.547-13.7237-36.2979-20.2087-47.8799,150.2065-8.9949,150.2065-8.9949s.4183,8.8355.7113,24.0794C1587.034,1553.0847,1539.6708,1597.1439,1569.7958,1691.7493Z" style="mix-blend-mode:soft-light" opacity=".3"></path><path fill="#e6e8e8" d="M1741.8871,1483.3395c-97.5747,70.2101-274.1656,67.7013-330.9777,67.7013-14.8186,0-37.8274.189-65.4287-.8524-25.8022-.8998-55.6759-2.8405-86.7332-6.9125-62.8722-8.2377-130.5732-25.1865-178.8636-59.9364,0-2.5093.0474-5.1606.1422-8.001.6155-20.4524,3.5034-48.6692,7.3382-78.9688,10.1789-80.4365,27.1277-175.0762,27.1277-175.0762s-40.7627-100.0367-11.1256-201.304c29.637-101.2677,188.9477-180.3313,188.9477-180.3313h237.1431s11.457,5.6813,28.8323,16.0021c4.7814,2.7934,9.9893,6.0127,15.5758,9.4687,12.8302,8.0958,27.3647,17.896,42.2303,29.1634,42.6091,32.2412,87.8694,76.3179,102.3093,125.6971,16.2859,55.723,11.3149,111.0674,3.5034,149.5577-6.3915,31.4835-14.6292,51.7463-14.6292,51.7463s11.1729,62.446,20.8312,128.9637c1.9409,13.398,3.8348,26.9381,5.5391,40.1471C1738.3837,1427.1429,1741.8871,1461.4669,1741.8871,1483.3395Z"></path><path fill="#b7765a" d="M1300.9717,886.6065s27.7885,79.043,105.5964,118.5644,151.2931-140.7952,151.2931-140.7952Z"></path><path fill="#b23030" d="M1087.3643,1396.3697c-4.3555,34.4658-7.4804,66.2808-7.4804,86.9698,48.2904,34.7499,115.9914,51.6987,178.8636,59.9364.5314-18.4202,1.6983-52.6956,4.0305-97.9131C1185.2057,1432.135,1124.0829,1411.1694,1087.3643,1396.3697Z"></path><path d="M1087.3643,1396.3697c-4.3555,34.4658-7.4804,66.2808-7.4804,86.9698,48.2904,34.7499,115.9914,51.6987,178.8636,59.9364.5314-18.4202,1.6983-52.6956,4.0305-97.9131C1185.2057,1432.135,1124.0829,1411.1694,1087.3643,1396.3697Z" style="mix-blend-mode:soft-light" opacity=".3"></path><path fill="#b23030" d="M1733.6494,1390.4043c-140.3274,61.1957-274.6332,73.3188-386.5635,65.2016q5.112-174.24765,26.138-378.1889s154.813-84.887,200.6414-212.288c-5.5865-3.456-10.7944-6.6753-15.5758-9.4687l-29.4478,20.4524s-32.7142,101.8832-227.8639,162.3879c-22.222,153.8603-33.0514,307.0399-38.1998,406.8622-2.3322,45.2175-3.4991,79.4929-4.0305,97.9131,31.0573,4.072,60.931,6.0127,86.7332,6.9125,27.6013,1.0414,50.6101.8524,65.4287.8524,56.8121,0,233.403,2.5088,330.9777-67.7013C1741.8871,1461.4669,1738.3837,1427.1429,1733.6494,1390.4043Z"></path><path fill="#4c4c4c" d="M1443.2818,1162.8856a36.90319,36.90319,0,0,1-.5586,4.9015c-3.1359,17.6622-17.8253,30.6486-34.7558,29.7706-18.4497-.9567-32.5376-18.0428-31.4955-38.1368.8728-16.8316,12.0682-30.4257,26.4795-33.8502a31.296,31.296,0,0,1,8.7895-.7768C1430.1906,1125.7507,1444.3239,1142.7916,1443.2818,1162.8856Z"></path><path d="M1439.3661,1175.261c-5.6792,11.8329-17.3037,19.6644-30.2874,18.9911-17.7432-.9202-31.2914-17.3518-30.2893-36.6762.6272-12.0946,6.7736-22.4443,15.6553-28.2297a36.99573,36.99573,0,0,0-3.6749,14.353c-1.0021,19.3244,12.5462,35.756,30.2893,36.6762A30.01709,30.01709,0,0,0,1439.3661,1175.261Z" style="mix-blend-mode:soft-light" opacity=".6"></path><path fill="#fff" d="M1443.2818,1162.8856a36.90319,36.90319,0,0,1-.5586,4.9015,29.95685,29.95685,0,0,1-8.8354.8216c-18.4498-.9567-32.5371-18.0428-31.495-38.1367a36.99113,36.99113,0,0,1,.5586-4.9013,31.296,31.296,0,0,1,8.7895-.7768C1430.1906,1125.7507,1444.3239,1142.7916,1443.2818,1162.8856Z" opacity=".22"></path><path fill="#4c4c4c" d="M1431.6798,1386.6099a36.90659,36.90659,0,0,1-.5586,4.9016c-3.1359,17.6622-17.8252,30.6486-34.7557,29.7706-18.4498-.9568-32.5376-18.0429-31.4956-38.1368.8729-16.8316,12.0682-30.4257,26.4795-33.8502a31.296,31.296,0,0,1,8.7895-.7769C1418.5887,1349.475,1432.7219,1366.516,1431.6798,1386.6099Z"></path><path d="M1427.7641,1398.9853c-5.6791,11.833-17.3037,19.6644-30.2874,18.9911-17.7431-.9201-31.2914-17.3518-30.2893-36.6761.6272-12.0947,6.7737-22.4444,15.6554-28.2298a36.994,36.994,0,0,0-3.6749,14.3531c-1.0022,19.3243,12.5461,35.756,30.2892,36.6761A30.01643,30.01643,0,0,0,1427.7641,1398.9853Z" style="mix-blend-mode:soft-light" opacity=".6"></path><path fill="#fff" d="M1431.6798,1386.6099a36.90659,36.90659,0,0,1-.5586,4.9016,29.95988,29.95988,0,0,1-8.8354.8216c-18.4497-.9568-32.537-18.0428-31.495-38.1368a36.98963,36.98963,0,0,1,.5586-4.9012,31.296,31.296,0,0,1,8.7895-.7769C1418.5887,1349.475,1432.7219,1366.516,1431.6798,1386.6099Z" opacity=".22"></path><path d="M1733.6494,1390.4043c-78.7321,128.2058-369.8942,170.578-653.6233,84.9342.6155-20.4524,3.5034-48.6692,7.3382-78.9688,10.1789-80.4365,27.1277-175.0762,27.1277-175.0762s-40.7627-100.0367-11.1256-201.304c29.637-101.2677,188.9477-180.3313,188.9477-180.3313h237.1431s11.457,5.6813,28.8323,16.0021c4.7814,2.7934,9.9893,6.0127,15.5758,9.4687,12.8302,8.0958,27.3647,17.896,42.2303,29.1634-43.1298,35.1291-188.5216,133.1771-404.0286,71.678C1220.068,1243.829,1536.748,1402.6661,1733.6494,1390.4043Z" style="mix-blend-mode:soft-light" opacity=".6"></path><rect width="962.399" height="529.61" x="954.122" y="1038.463" fill="#85582d"></rect><polygon fill="#99692b" points="1916.474 1038.625 1916.474 1038.448 954.185 1038.448 1436.034 1303.315 1916.474 1038.625"></polygon><polygon fill="#99692b" points="1916.486 1567.397 1916.486 1568.072 955.489 1568.072 976.959 1556.25 997.573 1544.878 1015.248 1535.144 1435.714 1303.46 1436.022 1303.299 1857.821 1535.144 1874.402 1544.268 1896.076 1556.186 1916.486 1567.397"></polygon><rect width="921.5" height="505.994" x="974.579" y="1050.263" style="mix-blend-mode:multiply" fill="#85582d" opacity=".4"></rect><rect width="878.14" height="483.251" x="996.256" y="1061.634" fill="#cc9e4c"></rect><rect width="856.413" height="471.292" x="1007.12" y="1063.847" fill="#f7d180"></rect><polygon points="1916.486 1568.072 954.122 1568.072 954.122 1038.462 954.19 1038.462 975.625 1050.252 996.24 1061.624 996.274 1061.624 1007.112 1067.6 1435.714 1303.46 1856.659 1535.144 1874.333 1544.878 1895.016 1556.25 1916.486 1568.072" style="mix-blend-mode:soft-light" opacity=".3"></polygon><path d="M1025.3183,1385.2885a23.60751,23.60751,0,0,0-5.7014-7.8454,45.15518,45.15518,0,0,0-10.2123-6.7015c10.5436-2.0801,17.6112-5.5815,21.8007-12.1818,5.6402-8.9299,5.1299-20.2778-.263-29.0837a26.68883,26.68883,0,0,0-5.3031-6.4467c-6.3775-5.6799-14.5301-9.5377-21.8599-12.1238,15.7701-2.1455,25.8633-6.0241,31.3799-14.8369,7.7714-12.2706,5.2268-28.6987-5.1562-38.7879a7.69939,7.69939,0,0,0-1.0321-1.0088c-6.3109-5.6323-14.1996-9.6779-21.6296-12.5467,13.3162-2.2662,22.0743-6.1961,27.0702-14.1771,6.5179-10.2793,5.732-23.4742-.7584-33.4157a30.28985,30.28985,0,0,0-5.4299-6.381c-17.01-15.1816-45.5003-18.88-45.5003-18.88-21.2611-1.8022-35.9534,13.2891-39.5666,26.661-1.3463,5.0545-1.5071,13.4761.8848,21.9962,2.5306,8.7819,7.8277,17.6074,17.3883,22.6134-9.1745,5.2448-15.3569,13.8857-17.5254,21.9112a37.22619,37.22619,0,0,0-.6793,13.3387c1.1886,12.1331,7.1765,26.9716,22.4805,32.8561-8.3878,4.6548-14.0204,12.4773-15.9572,19.758a38.51777,38.51777,0,0,0,.1908,16.9649c1.98,8.948,7.0247,18.3806,17.0909,23.21a26.3688,26.3688,0,0,0-8.4568,12.8598,29.05691,29.05691,0,0,0-.0524,12.3751c1.9105,11.0774,9.5805,23.8122,29.0844,22.5083,19.5684-1.2403,31.0907-3.2833,36.4796-11.8914A21.98144,21.98144,0,0,0,1025.3183,1385.2885Z" style="mix-blend-mode:soft-light" opacity=".3"></path><path fill="#b7765a" d="M923.0337,1260.7513c1.5854,16.1841,11.7083,37.1835,41.0927,35.3221,27.3441-1.7743,43.3224-4.6328,50.8418-16.6453,7.7715-12.2708,5.2268-28.6987-5.1561-38.788a7.70546,7.70546,0,0,0-1.0321-1.0088c-17.0099-15.1815-45.5003-18.8799-45.5003-18.8799-21.2618-1.8656-35.9534,13.2891-39.5666,26.6612A37.22819,37.22819,0,0,0,923.0337,1260.7513Z"></path><path fill="#b7765a" d="M929.7479,1330.3302c2.9568,13.3621,12.6877,27.8596,35.8894,26.3869,24.3489-1.5495,38.6079-4.1333,45.377-14.7981,5.6402-8.9298,5.1299-20.2778-.263-29.0835a26.68415,26.68415,0,0,0-5.303-6.4467c-15.206-13.5429-40.5659-16.8299-40.5659-16.8299-19.0265-1.6361-32.1427,11.8428-35.3252,23.8065A38.51408,38.51408,0,0,0,929.7479,1330.3302Z"></path><path fill="#b7765a" d="M938.3295 1378.7753c1.9107 11.0773 9.5806 23.8121 29.0845 22.5083 19.5684-1.2404 31.0908-3.2834 36.4795-11.8915a21.98108 21.98108 0 001.2338-20.7444 23.60776 23.60776 0 00-5.7014-7.8453c-12.1778-10.898-32.6191-13.5387-32.6191-13.5387a27.00617 27.00617 0 00-28.4248 19.1365A29.05662 29.05662 0 00938.3295 1378.7753zM923.8503 1202.888c4.0492 14.0514 15.1794 28.2143 39.5284 26.6648 27.3442-1.7743 43.3224-4.6328 50.8418-16.6453 6.5181-10.2792 5.7321-23.4742-.7583-33.4157a30.29582 30.29582 0 00-5.4299-6.3811c-17.0099-15.1815-45.5002-18.8798-45.5002-18.8798-21.2612-1.8022-35.9535 13.2891-39.5667 26.6608C921.6191 1185.9462 921.4583 1194.3678 923.8503 1202.888z"></path><path d="M938.3295 1378.7753c1.9107 11.0773 9.5806 23.8121 29.0845 22.5083 19.5684-1.2404 31.0908-3.2834 36.4795-11.8915a21.98108 21.98108 0 001.2338-20.7444C999.1188 1378.8575 982.2626 1394.4192 938.3295 1378.7753zM929.7479 1330.3302c2.9568 13.3621 12.6877 27.8596 35.8894 26.3869 24.3489-1.5495 38.6079-4.1333 45.377-14.7981 5.6402-8.9298 5.1299-20.2778-.263-29.0835C1006.4201 1324.7483 990.1853 1344.5132 929.7479 1330.3302zM923.0337 1260.7513c1.5854 16.1841 11.7083 37.1835 41.0927 35.3221 27.3441-1.7743 43.3224-4.6328 50.8418-16.6453 7.7715-12.2708 5.2268-28.6987-5.1561-38.788.6093 8.7956-2.5532 28.222-40.8997 27.2499C947.0911 1267.3061 932.5122 1264.1529 923.0337 1260.7513zM923.8503 1202.888c4.0492 14.0514 15.1794 28.2143 39.5284 26.6648 27.3442-1.7743 43.3224-4.6328 50.8418-16.6453 6.5181-10.2792 5.7321-23.4742-.7583-33.4157C1006.7382 1194.1746 986.2484 1215.582 923.8503 1202.888zM1845.3238 1385.2885a23.60751 23.60751 0 015.7014-7.8454 45.15518 45.15518 0 0110.2123-6.7015c-10.5436-2.0801-17.6112-5.5815-21.8007-12.1818-5.6402-8.9299-5.1299-20.2778.263-29.0837a26.6865 26.6865 0 015.3031-6.4467c6.3775-5.6799 14.5301-9.5377 21.8599-12.1238-15.7701-2.1455-25.8633-6.0241-31.3799-14.8369-7.7714-12.2706-5.2268-28.6987 5.1562-38.7879a7.69939 7.69939 0 011.0321-1.0088c6.3108-5.6323 14.1996-9.6779 21.6296-12.5467-13.3162-2.2662-22.0743-6.1961-27.0702-14.1771-6.5179-10.2793-5.732-23.4742.7584-33.4157a30.28985 30.28985 0 015.4299-6.381c17.0099-15.1816 45.5003-18.88 45.5003-18.88 21.2611-1.8022 35.9534 13.2891 39.5666 26.661 1.3462 5.0545 1.5071 13.4761-.8848 21.9962-2.5306 8.7819-7.8277 17.6074-17.3883 22.6134 9.1745 5.2448 15.3569 13.8857 17.5253 21.9112a37.22359 37.22359 0 01.6794 13.3387c-1.1886 12.1331-7.1765 26.9716-22.4805 32.8561 8.3878 4.6548 14.0204 12.4773 15.9572 19.758a38.51777 38.51777 0 01-.1908 16.9649c-1.98 8.948-7.0247 18.3806-17.0909 23.21a26.3688 26.3688 0 018.4568 12.8598 29.05691 29.05691 0 01.0524 12.3751c-1.9105 11.0774-9.5805 23.8122-29.0844 22.5083-19.5684-1.2403-31.0907-3.2833-36.4796-11.8914A21.98144 21.98144 0 011845.3238 1385.2885z" style="mix-blend-mode:soft-light" opacity=".3"></path><path fill="#b7765a" d="M1947.6084,1260.7513c-1.5855,16.1841-11.7083,37.1835-41.0927,35.3221-27.3441-1.7743-43.3224-4.6328-50.8418-16.6453-7.7715-12.2708-5.2268-28.6987,5.1561-38.788a7.70546,7.70546,0,0,1,1.0321-1.0088c17.0099-15.1815,45.5003-18.8799,45.5003-18.8799,21.2618-1.8656,35.9534,13.2891,39.5666,26.6612A37.22819,37.22819,0,0,1,1947.6084,1260.7513Z"></path><path fill="#b7765a" d="M1940.8942,1330.3302c-2.9568,13.3621-12.6877,27.8596-35.8894,26.3869-24.3489-1.5495-38.6079-4.1333-45.377-14.7981-5.6402-8.9298-5.1299-20.2778.263-29.0835a26.68415,26.68415,0,0,1,5.303-6.4467c15.206-13.5429,40.5659-16.8299,40.5659-16.8299,19.0265-1.6361,32.1427,11.8428,35.3252,23.8065A38.51408,38.51408,0,0,1,1940.8942,1330.3302Z"></path><path fill="#b7765a" d="M1932.3126 1378.7753c-1.9107 11.0773-9.5806 23.8121-29.0845 22.5083-19.5684-1.2404-31.0908-3.2834-36.4795-11.8915a21.98108 21.98108 0 01-1.2338-20.7444 23.60776 23.60776 0 015.7014-7.8453c12.1778-10.898 32.6191-13.5387 32.6191-13.5387a27.00617 27.00617 0 0128.4248 19.1365A29.05662 29.05662 0 011932.3126 1378.7753zM1946.7918 1202.888c-4.0492 14.0514-15.1794 28.2143-39.5284 26.6648-27.3442-1.7743-43.3224-4.6328-50.8418-16.6453-6.5181-10.2792-5.7321-23.4742.7583-33.4157a30.29582 30.29582 0 015.4299-6.3811c17.0099-15.1815 45.5002-18.8798 45.5002-18.8798 21.2612-1.8022 35.9535 13.2891 39.5667 26.6608C1949.023 1185.9462 1949.1838 1194.3678 1946.7918 1202.888z"></path><path d="M1932.3126 1378.7753c-1.9107 11.0773-9.5806 23.8121-29.0845 22.5083-19.5684-1.2404-31.0908-3.2834-36.4795-11.8915a21.98108 21.98108 0 01-1.2338-20.7444C1871.5233 1378.8575 1888.3795 1394.4192 1932.3126 1378.7753zM1940.8942 1330.3302c-2.9568 13.3621-12.6877 27.8596-35.8894 26.3869-24.3489-1.5495-38.6079-4.1333-45.377-14.7981-5.6402-8.9298-5.1299-20.2778.263-29.0835C1864.222 1324.7483 1880.4568 1344.5132 1940.8942 1330.3302zM1947.6084 1260.7513c-1.5855 16.1841-11.7083 37.1835-41.0927 35.3221-27.3441-1.7743-43.3224-4.6328-50.8418-16.6453-7.7715-12.2708-5.2268-28.6987 5.1561-38.788-.6093 8.7956 2.5532 28.222 40.8997 27.2499C1923.551 1267.3061 1938.1299 1264.1529 1947.6084 1260.7513zM1946.7918 1202.888c-4.0492 14.0514-15.1794 28.2143-39.5284 26.6648-27.3442-1.7743-43.3224-4.6328-50.8418-16.6453-6.5181-10.2792-5.7321-23.4742.7583-33.4157C1863.9039 1194.1746 1884.3937 1215.582 1946.7918 1202.888z" style="mix-blend-mode:soft-light" opacity=".3"></path><path fill="#b23030" d="M1720.0662,425.9545s-22.3507,55.7482-51.5888,116.439c-12.3625,25.535-25.9094,51.9943-39.5709,75.5117-59.3416,39.6767-369.2278,12.4893-450.9017,4.5344-12.559-1.2044-19.7413-1.9964-19.7413-1.9964l-19.519-53.4109-24.5271-81.3493s89.1094,38.2985,124.7491-68.5764c115.7868,65.1902,202.1509,18.9491,234.59-71.7607,63.176,105.0235,158.1059,107.732,206.3126,66.6472C1699.0526,437.08,1720.0662,425.9545,1720.0662,425.9545Z"></path><path fill="#e6e8e8" d="M1818.2068,450.337c-6.3115,38.5917-44.2368,65.1675-88.1045,64.1702,4.0249,4.7925,6.0066,9.9264,5.1906,14.9159-2.4481,14.969-28.4947,23.0967-58.1687,18.1698a98.21283,98.21283,0,0,1-10.1304-2.2025c.5197-.9949,1.0017-1.9957,1.4836-2.9969,29.2381-60.6908,51.5888-116.439,51.5888-116.439l-.0451.0324c-1.1271.5736-21.5239,10.3603-40.152-13.9938-48.2067,41.0848-143.1366,38.3763-206.3126-66.6472-32.4391,90.7098-118.8032,136.9509-234.59,71.7607-35.6397,106.8749-124.7491,68.5764-124.7491,68.5764l24.5271,81.3493,9.0309,24.7225a84.5493,84.5493,0,0,1-55.1101,9.1882c-29.5583-4.9077-52.9081-23.9595-63.1435-48.1215-41.1355-12.3554-68.1359-50.1514-61.7288-89.3279,3.2514-19.8804,14.5275-36.5868,30.3958-48.0861a131.55466,131.55466,0,0,1-6.846-67.4828c10.5765-64.6702,68.0488-111.3839,137.9562-118.7158a138.35651,138.35651,0,0,1,1.7897-22.6058c12.9162-78.9763,91.6685-131.6463,175.9315-117.6558,41.0098,6.809,75.741,28.1912,99.0906,57.4532,27.9122-45.7757,86.6142-72.0651,148.8241-61.7362,76.2547,12.6608,129.9684,75.6731,123.6636,142.8942a150.50926,150.50926,0,0,1,42.9454-13.2901c65.7966-10.1363,125.4383,23.4297,133.2353,74.8944,5.7745,38.3158-18.7884,75.7589-58.8322,96.5778C1813.1514,403.2516,1822.0893,426.5975,1818.2068,450.337Z"></path><ellipse cx="1275.123" cy="180.783" fill="#fff" opacity=".5" rx="114.523" ry="66.987" transform="rotate(-4.348 1275.122 180.783)"></ellipse><ellipse cx="1541.584" cy="183.856" fill="#fff" opacity=".5" rx="72.732" ry="114.564" transform="rotate(-76.519 1541.584 183.856)"></ellipse><ellipse cx="1743.524" cy="305.569" fill="#fff" opacity=".5" rx="89.987" ry="57.131" transform="rotate(-13.209 1743.523 305.569)"></ellipse><path d="M1720.0662,425.9545l-.0451.0324c-1.1271.5736-21.5239,10.3603-40.152-13.9938-48.2067,41.0848-143.1366,38.3763-206.3126-66.6472-32.4391,90.7098-118.8032,136.9509-234.59,71.7607-35.6397,106.8749-124.7491,68.5764-124.7491,68.5764l24.5271,81.3493,9.0309,24.7225a84.5493,84.5493,0,0,1-55.1101,9.1882c-29.5583-4.9077-52.9081-23.9595-63.1435-48.1215-41.1355-12.3554-68.1359-50.1514-61.7288-89.3279,3.2514-19.8804,14.5275-36.5868,30.3958-48.0861a131.55466,131.55466,0,0,1-6.846-67.4828c10.5765-64.6702,68.0488-111.3839,137.9562-118.7158,0,0-48.8989,149.5584,107.2137,150.4133,59.2644,56.0458,163.1867,62.3295,240.2836-57.2417,33.2088,91.6797,152.4673,123.2524,208.2299,65.1236C1693.3633,424.2436,1720.0662,425.9545,1720.0662,425.9545Z" style="mix-blend-mode:soft-light" opacity=".6"></path><path d="M1668.4774,542.3935c-79.524,53.9834-326.4641,73.4433-490.4726,80.0461-12.559-1.2044-19.7413-1.9964-19.7413-1.9964l-19.519-53.4109-24.5271-81.3493s89.1094,38.2985,124.7491-68.5764c115.7868,65.1902,202.1509,18.9491,234.59-71.7607,0,0-2.0864,142.7562-164.2288,126.2855C1324.3767,512.7686,1527.5331,488.8819,1668.4774,542.3935Z" style="mix-blend-mode:soft-light" opacity=".6"></path><path fill="#e6e8e8" d="M1668.4774,542.3935c-12.3625,25.535-25.9094,51.9943-39.5709,75.5117-68.4901,45.8055-470.643,2.538-470.643,2.538l-19.519-53.4109C1171.2417,547.1627,1360.1753,479.2732,1668.4774,542.3935Z"></path><path d="M1628.9065,617.9052c-68.4901,45.8055-470.643,2.538-470.643,2.538l-19.519-53.4109c32.4972-19.8696,221.4308-87.7591,529.7329-24.6388,0,0-119.2329-17.6346-239.0571-9.3011C1309.6025,541.3866,1552.6031,574.6858,1628.9065,617.9052Z" style="mix-blend-mode:soft-light" opacity=".6"></path><path fill="#b7765a" d="M1175.3319,809.1184c-.0342-.0162-.0342-.0162-.0848.0019-1.1109.4811-2.3229.9983-3.5873,1.4486-68.2793,25.7444-78.652-63.9386-54.7225-86.1963,5.8348-5.2982,11.4854-7.9947,16.6808-8.8479,16.7682-2.9235,29.6103,11.4515,29.6103,11.4515a149.6016,149.6016,0,0,1,15.6917,14.2149l.0865.0831c10.8261,11.2745,22.8595,27.6189,20.7214,42.6564-.0163.0343.0018.0847-.0145.119C1198.3078,793.3836,1191.4082,802.2527,1175.3319,809.1184Z"></path><path d="M1175.3319,809.1184c-.0342-.0162-.0342-.0162-.0848.0019-36.5866,11.1221-55.9501-31.5619-52.8162-51.8837,3.116-20.3723,21.2197-10.2652,21.2197-10.2652a72.2917,72.2917,0,0,0-10.0325-31.4467c16.7682-2.9235,29.6103,11.4515,29.6103,11.4515a149.6016,149.6016,0,0,1,15.6917,14.2149l.0865.0831c14.7249,19.2607,20.3848,32.8316,20.7214,42.6564-.0163.0343.0018.0847-.0145.119C1198.3078,793.3836,1191.4082,802.2527,1175.3319,809.1184Z" style="mix-blend-mode:soft-light" opacity=".3"></path><path fill="#995942" d="M1170.4178,794.2492c-7.154-11.1852-12.692-22.4467-19.6607-32.2759-3.507-4.7921-7.1916-9.3793-11.795-12.204-4.5275-2.9065-10.3494-3.3692-16.9567-1.7255a18.27741,18.27741,0,0,1,19.9026-4.8618c7.2021,2.5651,12.4109,7.9294,16.3922,13.4475a67.53488,67.53488,0,0,1,8.8076,18.0718A62.2426,62.2426,0,0,1,1170.4178,794.2492Z"></path><path fill="#b7765a" d="M1613.3783,809.1184c.0341-.0162.0341-.0162.0847.0019,1.1109.4811,2.3229.9983,3.5873,1.4486,68.2793,25.7444,78.652-63.9386,54.7226-86.1963-5.8349-5.2982-11.4855-7.9947-16.6809-8.8479-16.7681-2.9235-29.6102,11.4515-29.6102,11.4515a149.59607,149.59607,0,0,0-15.6918,14.2149l-.0865.0831c-10.826,11.2745-22.8594,27.6189-20.7213,42.6564.0163.0343-.0019.0847.0144.119C1590.4023,793.3836,1597.3019,802.2527,1613.3783,809.1184Z"></path><path d="M1613.3783,809.1184c.0341-.0162.0341-.0162.0847.0019,36.5866,11.1221,55.9501-31.5619,52.8162-51.8837-3.1159-20.3723-21.2197-10.2652-21.2197-10.2652a72.293,72.293,0,0,1,10.0325-31.4467c-16.7681-2.9235-29.6102,11.4515-29.6102,11.4515a149.59607,149.59607,0,0,0-15.6918,14.2149l-.0865.0831c-14.7249,19.2607-20.3848,32.8316-20.7213,42.6564.0163.0343-.0019.0847.0144.119C1590.4023,793.3836,1597.3019,802.2527,1613.3783,809.1184Z" style="mix-blend-mode:soft-light" opacity=".3"></path><path fill="#995942" d="M1618.2921,794.2492a62.2426,62.2426,0,0,1,3.31-19.5479,67.55285,67.55285,0,0,1,8.8076-18.0718c3.9819-5.5181,9.1901-10.8824,16.3923-13.4475a18.27656,18.27656,0,0,1,19.9025,4.8618c-6.6067-1.6437-12.4292-1.181-16.9567,1.7255-4.6033,2.8247-8.288,7.4119-11.795,12.204C1630.9847,771.8025,1625.4461,783.064,1618.2921,794.2492Z"></path><path fill="#b7765a" d="M1633.3873,610.7319l-1.0329,5.9483-1.6385,9.4033L1612.8353,729.164l-7.0168,40.4271a61.70692,61.70692,0,0,0-.7837,7.195,57.76174,57.76174,0,0,0,2.3866,19.6972c7.0524,23.5439,14.6748,77.8624-49.6168,111.8425a.131.131,0,0,0-.107.0357c-4.3453,2.2796-9.047,4.4879-14.0694,6.5893-32.7692,13.6777-80.4624,22.6537-149.2777,22.6537-114.8702,0-170.9339-25.1114-196.9357-54.9596-27.3552-31.3446-21.585-67.9605-16.0995-86.1616a59.25142,59.25142,0,0,0,1.6028-26.8922l-27.6044-158.8592s101.0856-44.5946,239.0368-44.5946C1532.3015,566.1373,1633.3873,610.7319,1633.3873,610.7319Z"></path><path fill="#333" d="M1547.5818,779.8493c-.2137,13.2502-2.9918,35.3338-142.4033,35.3338h-.2494c-139.1265-.0356-141.9046-22.0836-142.1183-35.3338-.2494-13.2144,8.584-25.5386,8.584-25.5386s-7.9073,21.8343,0,32.0568,39.2518-5.9482,61.5491-21.2288c15.3517-10.5073,31.8075-17.8447,48.8331-21.3712a27.49527,27.49527,0,0,0,42.6-.7835,115.8354,115.8354,0,0,1,15.3516,3.6686,139.8801,139.8801,0,0,1,37.7201,18.4861c22.2973,15.2806,53.6419,31.4514,61.5491,21.2288s0-32.0568,0-32.0568S1547.8312,766.6349,1547.5818,779.8493Z"></path><path d="M1404.9291,815.1831c-139.1265-.0356-141.9046-22.0836-142.1183-35.3338-.2494-13.2144,8.584-25.5386,8.584-25.5386s-7.9073,21.8343,0,32.0568,39.2518-5.9482,61.5491-21.2288c15.3517-10.5073,31.8075-17.8447,48.8331-21.3712a27.49527,27.49527,0,0,0,42.6-.7835,115.8354,115.8354,0,0,1,15.3516,3.6686c-7.9785,7.4801-25.3604,19.1272-56.8474,20.5521C1345.4105,768.8789,1344.9831,803.8208,1404.9291,815.1831Z" style="mix-blend-mode:soft-light" opacity=".3"></path><path fill="#fff" d="M1607.4214 796.4833c7.0524 23.5439 14.6748 77.8624-49.6168 111.8425a.131.131 0 00-.107.0357c-4.3453 2.2796-9.047 4.4879-14.0694 6.5893-11.7897-10.4719-19.2696-24.3987-19.2696-42.8848 0-57.987 48.37-84.2382 80.6762-95.2799A57.76174 57.76174 0 001607.4214 796.4833zM1630.7159 626.0835L1612.8353 729.164c-60.9435 11.2554-112.3769-35.1556-102.6174-82.8847C1520.9035 593.9911 1608.0625 618.7104 1630.7159 626.0835zM1429.6841 727.9528a16.77714 16.77714 0 01-.9617 6.4827.27672.27672 0 00-.0355.1069s-.0356.1068-.1069.3561c-.1424.3207-.3207.8905-.6055 1.6386-.1069.3204-.2493.6767-.392 1.0685a27.27492 27.27492 0 01-50.7565-3.0632.27672.27672 0 00-.0355-.1069 16.77846 16.77846 0 01-.9618-6.4827c.3207-6.34 4.8441-15.1022 26.9277-15.1022S1429.3635 721.6128 1429.6841 727.9528z" opacity=".11"></path><path d="M1633.3873,610.7319l-1.0329,5.9483c-57.2748-13.2144-339.1967-71.8785-386.7475,40.071-52.9649,124.7366,30.5963,306.5698,312.0907,251.6103-98.3074,33.7664-260.5149,42.0656-360.2828-25.7166-27.3552-31.3446-21.585-67.9605-16.0995-86.1616a59.25142,59.25142,0,0,0,1.6028-26.8922l-27.6044-158.8592s101.0856-44.5946,239.0368-44.5946C1532.3015,566.1373,1633.3873,610.7319,1633.3873,610.7319Z" style="mix-blend-mode:soft-light" opacity=".3"></path><ellipse cx="1306.479" cy="707.538" rx="28.997" ry="43.407" transform="rotate(-2.115 1306.48 707.538)" style="mix-blend-mode:soft-light" opacity=".3"></ellipse><ellipse cx="1308.165" cy="721.382" fill="#333" rx="22.771" ry="18.264" transform="rotate(-89.125 1308.165 721.382)"></ellipse><path fill="#fff" d="M1318.7077 714.3076c-.0731 4.7809-3.3494 8.6075-7.318 8.5469s-7.1266-3.9855-7.0536-8.7664 3.3494-8.6075 7.318-8.5469S1318.7807 709.5266 1318.7077 714.3076zM1306.1824 726.9264a4.15093 4.15093 0 11-4.087-4.2139A4.15089 4.15089 0 011306.1824 726.9264z"></path><ellipse cx="1481.691" cy="703.426" rx="26.17" ry="39.174" transform="rotate(-2.255 1481.692 703.426)" style="mix-blend-mode:soft-light" opacity=".3"></ellipse><ellipse cx="1483.243" cy="715.916" fill="#333" rx="20.55" ry="16.483" transform="rotate(-89.265 1483.243 715.916)"></ellipse><path fill="#fff" d="M1492.7423,709.5084c-.0554,4.3149-3.0038,7.7755-6.5856,7.7296s-6.4404-3.5812-6.385-7.8961,3.0038-7.7755,6.5855-7.7296S1492.7977,705.1935,1492.7423,709.5084Z"></path><circle cx="1477.72" cy="720.876" r="3.746" fill="#fff" transform="rotate(-13.842 1477.72 720.876)"></circle><path fill="#333" d="M1344.0205,650.0719c-5.9334,1.3689-14.208,4.0864-22.9743,7.171-5.0054,1.8321-10.1608,3.7366-15.1305,5.6814-3.7261,1.4026-7.3025,2.8075-10.6159,4.1041-7.3411,2.8816-13.4046,5.4085-16.7562,6.7794-1.7697.7215-2.7493,1.1556-2.7493,1.1556-11.1537-4.7732-18.4462-22.2485-18.4462-22.2485,1.426-2.7099,2.9252-5.3066,4.4226-7.7912a119.17168,119.17168,0,0,1,12.2723-16.9891,88.80763,88.80763,0,0,1,10.98-10.8344,68.97937,68.97937,0,0,1,12.1369-8.1597,47.48148,47.48148,0,0,1,22.5077-6.0181C1339.2017,602.9588,1351.1453,631.9562,1344.0205,650.0719Z"></path><path d="M1295.2998 667.0284c-7.3411 2.8816-13.4046 5.4085-16.7562 6.7794a111.67028 111.67028 0 01-16.7729-28.8841 119.17168 119.17168 0 0112.2723-16.9891C1276.6266 637.629 1282.6241 654.1114 1295.2998 667.0284zM1321.0462 657.2429c-5.0054 1.8321-10.1608 3.7366-15.1305 5.6814-7.1548-9.3149-17.3481-25.5248-20.8927-45.8241a68.97937 68.97937 0 0112.1369-8.1597C1299.1962 620.1982 1305.0474 641.3562 1321.0462 657.2429z" style="mix-blend-mode:soft-light" opacity=".3"></path><path fill="#333" d="M1529.3454,650.4224c-3.377,5.3775-8.4117,13.0031-11.3782,15.8346-2.3542,2.2377-18.5483-.7936-35.2363-4.8998-2.4955-.6414-4.9915-1.2827-7.4411-1.9234-3.0965-.7895-6.1005-1.6242-8.9647-2.4105-5.6826-1.6178-10.8104-3.1348-14.7808-4.4481-3.3243-1.0717-5.8626-1.9921-7.2447-2.6165-8.9391-4.1269,8.5873-30.5863,17.9262-40.5126,3.5373-3.7509,9.1287-5.2894,15.2568-5.4742a54.21209,54.21209,0,0,1,17.5023,2.448,48.04358,48.04358,0,0,1,8.5777,3.4256c.5058.3325,1.0112.6186,1.4713.9041a47.78334,47.78334,0,0,1,5.1833,3.9305c6.6885,5.6239,14.7679,14.3778,19.2464,21.9167A13.23846,13.23846,0,0,1,1529.3454,650.4224Z"></path><path d="M1494.9849 606.4199c-16.4409 16.1751-25.242 39.4731-28.6598 50.6034-5.6826-1.6178-10.8104-3.1348-14.7808-4.4481a129.74538 129.74538 0 0125.9383-48.6033A54.21209 54.21209 0 011494.9849 606.4199zM1510.2172 614.6801c-14.4845 15.6943-23.4739 36.1126-27.4863 46.6771-2.4955-.6414-4.9915-1.2827-7.4411-1.9234 10.6264-27.3999 22.512-43.041 28.2728-49.5883.5058.3325 1.0112.6186 1.4713.9041A47.78334 47.78334 0 011510.2172 614.6801z" style="mix-blend-mode:soft-light" opacity=".3"></path><path fill="#995942" d="M1429.72 727.4898l.0841.4926.0045-.0288a18.53484 18.53484 0 01.4914 6.9437l-.1057.2712a1.21113 1.21113 0 00.1572-.6237l-.0853.5246a6.0623 6.0623 0 01-.1798 1.1135l-.3011 1.3194.1362-.3155a25.62365 25.62365 0 01-10.1907 15.4171 29.0502 29.0502 0 01-35.8863-1.4826 25.44911 25.44911 0 01-8.6245-16.11l-.062-.6364-.005.1699a1.22272 1.22272 0 00.1583.6276l-.1068-.2723a18.49042 18.49042 0 01.4992-6.9465l.0039.0293.0857-.4931.1567.4323.0038.0315a30.76272 30.76272 0 002.4223 6.0168l-.1062-.2707a2.189 2.189 0 01.2291.839l-.0664-.4643a28.00874 28.00874 0 0010.1369 10.8022 26.63719 26.63719 0 0013.2965 3.9752 27.24724 27.24724 0 0013.5238-3.0588 27.8649 27.8649 0 0010.6373-9.9045l.1367-.3177.4327-.6668a4.13241 4.13241 0 00.5108-.8877l-.0852.523a2.18789 2.18789 0 01.228-.8357l-.1051.269a30.60913 30.60913 0 002.4151-6.019l.0039-.031zM1374.3002 832.3575c5.4534.8346 10.5924 1.7914 15.7032 2.4356a127.95136 127.95136 0 0015.1919.9723 129.60041 129.60041 0 0015.1902-.9828c5.1097-.6459 10.2482-1.5983 15.7055-2.4251-8.5249 6.9664-19.7122 10.4795-30.8957 10.5299C1394.0119 842.8243 1382.8323 839.3079 1374.3002 832.3575z"></path><path fill="#333" d="M1182.9181 769.5911a131.31464 131.31464 0 01-24.1139-35.9035c-21.4425-46.3399-18.8424-102.2969-3.4905-122.9557 1.9946-1.1755 4.1316-2.3507 6.3756-3.4195 17.8807-8.7264 42.1013-14.2474 42.1013-14.2474S1177.3614 708.2202 1182.9181 769.5911zM1628.8993 735.8246a131.04329 131.04329 0 01-23.1165 33.7665c5.5565-61.3709-20.8725-176.5261-20.8725-176.5261s22.5465 5.1291 40.2134 13.357a85.41116 85.41116 0 018.2636 4.3099C1648.9526 631.7113 1651.4103 689.0573 1628.8993 735.8246z"></path><path d="M1605.7828 769.5911c5.5565-61.3709-20.8725-176.5261-20.8725-176.5261s22.5465 5.1291 40.2134 13.357c-9.2964 25.0756-24.3276 81.1394 3.7756 129.4026A131.04329 131.04329 0 011605.7828 769.5911zM1182.9181 769.5911a131.31464 131.31464 0 01-24.1139-35.9035c26.144-47.2304 12.0748-101.2638 2.8851-126.3752 17.8807-8.7264 42.1013-14.2474 42.1013-14.2474S1177.3614 708.2202 1182.9181 769.5911z" style="mix-blend-mode:soft-light" opacity=".3"></path></g></svg>