<svg xmlns="http://www.w3.org/2000/svg" viewBox="0 0 2800 1900" id="chef-turning-his-mustache-while-holding-empty-plate"><g data-name="Layer 1"><ellipse cx="1197.645" cy="1747.3" fill="#d1bfb2" rx="67.566" ry="479.106" transform="rotate(-87.675 1197.645 1747.3)"></ellipse><path fill="#b7765a" d="M1697.0493,1025.1571s6.7087-29.7099-15.3341-40.2522-26.8348-23.0012-26.8348-23.0012l314.3501,69.0037s-86.2546,22.0428-129.3819,23.9596-51.7528,26.8347-51.7528,26.8347Z"></path><path fill="#e6e8e8" d="M1843.9974,1091.621s-29.4058,113.9589-103.8594,177.3738c-73.1385,62.3345-126.6889,25.1312-128.5207,23.8158,3.8516,10.804,7.6097,21.6082,11.1798,32.3181,6.1066,18.226,11.7902,36.3108,17.0513,54.0201.7047,2.2079,1.3154,4.4156,1.9731,6.5765-83.8017,110.8114-223.2674,154.4034-360.1026,144.8675-7.6097-.5637-15.2195-1.2681-22.7822-2.1139-97.3302-10.9917-191.6537-48.6649-261.6921-108.0401,2.8186-23.0641,5.731-50.1211,8.4553-77.6008,8.0326-79.8087,14.7969-163.0937,14.7969-163.0937l25.7886-268.0335.8926-9.3948s333.6092-30.6268,442.6826,26.963a425.60568,425.60568,0,0,1,114.7573,88.5461c28.6073,31.1908,41.901,55.2415,41.901,55.2415,8.0794-20.3869,17.709-42.5117,28.9829-65.388,36.7336,14.2332,67.4545,28.1376,92.1629,40.4448C1818.4905,1073.3014,1843.9974,1091.621,1843.9974,1091.621Z"></path><path fill="#b7765a" d="M1188.7085,987.7761s15.624,88.0288,110.2867,138.6771c79.0388-21.0379,108.4486-105.5911,113.0439-119.3769s17.4621-48.71,0-57.9005S1188.7085,987.7761,1188.7085,987.7761Z"></path><path fill="#6b6b6b" d="M1488.0288,1769.4556c-20.5279,4.6033-66.1394.4696-90.9418,0-35.6061-.7047-67.3135,8.2672-76.4735-5.5429-5.9658-8.9252-5.4021-21.4671-4.3215-29.265a59.92966,59.92966,0,0,1,1.4092-7.0461l14.374-27.8085a749.08587,749.08587,0,0,0,76.8963,14.9377c39.7868,5.3551,72.6686,21.3731,87.6063,42.5114C1501.1344,1763.6776,1497.0007,1767.3887,1488.0288,1769.4556Z"></path><path d="M1488.0288,1769.4556c-4.9792-8.6433-14.2803-17.7563-30.956-25.319-38.7535-17.4745-113.8178-12.1194-140.7808-9.4889a59.92966,59.92966,0,0,1,1.4092-7.0461l14.374-27.8085a749.08587,749.08587,0,0,0,76.8963,14.9377c39.7868,5.3551,72.6686,21.3731,87.6063,42.5114C1501.1344,1763.6776,1497.0007,1767.3887,1488.0288,1769.4556Z" style="mix-blend-mode:soft-light" opacity=".3"></path><path fill="#6b6b6b" d="M1098.6615,1734.9766c-5.214,16.5349-26.963,4.6033-77.507,8.8781-39.7401,3.335-98.7394,7.2809-109.1207-5.4021-2.8654-3.476-2.0666-8.1734,3.7111-14.4678,21.8427-23.8158,81.406-36.5929,103.2957-40.5855,5.167-.9396,8.2204-1.4092,8.2204-1.4092l25.6479-17.3334h7.4217l39.8341,37.2033S1103.8286,1718.4416,1098.6615,1734.9766Z"></path><path d="M1098.6615,1734.9766c-5.214,16.5349-26.963,4.6033-77.507,8.8781-39.7401,3.335-98.7394,7.2809-109.1207-5.4021,51.6246,2.1139,139.1839.094,151.2092-14.4678,11.8845-14.3273-25.5069-32.6469-44.2024-40.5855,5.167-.9396,8.2204-1.4092,8.2204-1.4092l25.6479-17.3334h7.4217l39.8341,37.2033S1103.8286,1718.4416,1098.6615,1734.9766Z" style="mix-blend-mode:soft-light" opacity=".3"></path><path fill="#333" d="M1218.4451,1477.0427,1100.1647,1701.86a202.07266,202.07266,0,0,0-38.1428-13.9982,187.365,187.365,0,0,0-34.7609-5.8717c9.8645-52.3761,20.011-149.3774,25.6479-207.5312,2.7243-28.513,4.3686-47.6784,4.3686-47.6784Z"></path><path d="M1218.4451,1477.0427,1100.1647,1701.86a202.07266,202.07266,0,0,0-38.1428-13.9982c55.3352-108.3219,11.8843-185.5004-9.113-213.4029,2.7243-28.513,4.3686-47.6784,4.3686-47.6784Z" style="mix-blend-mode:soft-light" opacity=".3"></path><path fill="#333" d="M1498.4099,1467.225l-89.4384,247.5058c-13.0589,5.8247-28.1843,9.113-42.2765,10.992a277.82331,277.82331,0,0,1-48.9938,1.8788l13.1526-185.7819,3.9927-56.2277,41.0552-18.367Z"></path><path d="M1498.4099,1467.225l-89.4384,247.5058c-13.0589,5.8247-28.1843,9.113-42.2765,10.992,18.1318-104.4703-15.8302-160.8391-35.8412-183.9031l3.9927-56.2277,41.0552-18.367Z" style="mix-blend-mode:soft-light" opacity=".3"></path><path fill="#b23030" d="M1281.7189,1530.5928c-7.6097-.5637-15.2195-1.2681-22.7822-2.1139-97.3302-10.9917-191.6537-48.6649-261.6921-108.0401,2.8186-23.0641,5.731-50.1211,8.4553-77.6008,36.4048,20.9502,125.6086,64.871,251.9214,78.0237C1257.6213,1420.8617,1275.1898,1481.4112,1281.7189,1530.5928Z"></path><path d="M1281.7189,1530.5928c-7.6097-.5637-15.2195-1.2681-22.7822-2.1139-97.3302-10.9917-191.6537-48.6649-261.6921-108.0401,2.8186-23.0641,5.731-50.1211,8.4553-77.6008,36.4048,20.9502,125.6086,64.871,251.9214,78.0237C1257.6213,1420.8617,1275.1898,1481.4112,1281.7189,1530.5928Z" style="mix-blend-mode:soft-light" opacity=".3"></path><path fill="#7c7c7c" d="M1611.5828 1292.7583c-17.543-40.6256-34.7215-81.1944-53.4737-121.07-18.5806-39.959-38.6412-79.1315-59.6995-118.0466 25.8103 35.9913 47.2399 75.0061 66.0794 115.0654C1583.1313 1208.8799 1599.2511 1250.2454 1611.5828 1292.7583zM1646.5121 1073.0477c-2.0703 9.2606-4.7195 18.2506-7.405 27.2185-2.6955 8.9621-5.5588 17.8492-8.4483 26.7266-5.9075 17.7259-11.9124 35.3503-19.076 52.8659a190.42741 190.42741 0 014.7183-27.9073c2.1208-9.18 4.7851-18.21 7.6702-27.1641C1629.9924 1106.9698 1637.0218 1089.4527 1646.5121 1073.0477z"></path><path fill="#b23030" d="M1641.8215,1385.7253c-88.452,116.965-238.9565,159.0537-382.8848,142.7536-2.8186-25.2717-4.8385-62.2405-6.3417-107.4761-2.4895-74.548-3.476-171.502-4.1334-275.4554,116.4013-61.2543,150.6922-162.3891,150.6922-162.3891h53.3157s-23.9099,105.6914-90.0493,169.1063c0,156.4703,4.8384,243.4661,6.6705,270.8047,6.2473-.3756,12.5419-.8922,18.9303-1.5029,135.6609-14.6558,213.2149-76.6615,234.7761-96.4377C1629.6551,1345.6093,1635.9968,1365.9021,1641.8215,1385.7253Z"></path><path d="M1046.2854 911.7108l.8926-9.3948s333.6092-30.6268 442.6826 26.963a425.60568 425.60568 0 01114.7573 88.5461C1243.4823 1182.3278 1094.293 999.6462 1046.2854 911.7108zM1843.9974 1091.621s-29.4058 113.9589-103.8594 177.3738c-73.1385 62.3345-126.6889 25.1312-128.5207 23.8158 3.8516 10.804 7.6097 21.6082 11.1798 32.3181 6.1066 18.226 11.7902 36.3108 17.0513 54.0201-228.1523 190.1505-541.6098 114.9454-634.1485-36.3108 480.262 124.9977 500.226-277.0056 500.226-277.0056s37.861 39.2704 84.2242 170.7035c109.0264-11.9783 159.8053-132.9363 177.5146-188.4125C1818.4905 1073.3014 1843.9974 1091.621 1843.9974 1091.621z" style="mix-blend-mode:soft-light" opacity=".6"></path><path fill="#333" d="M1094.172,767.4661a147.386,147.386,0,0,0,18.4737,33.6801c60.7154,51.8971,35.8911-206.5714,35.8911-206.5714l-25.8244,28.1916s-9.4198,10.7537-18.7095,28.6977C1090.0872,678.1814,1076.3232,720.8692,1094.172,767.4661Z"></path><path d="M1094.172,767.4661a147.386,147.386,0,0,0,18.4737,33.6801c60.7154,51.8971,35.8911-206.5714,35.8911-206.5714l-25.8244,28.1916s-9.4198,10.7537-18.7095,28.6977C1108.5674,679.0445,1111.9564,725.8626,1094.172,767.4661Z" style="mix-blend-mode:soft-light" opacity=".3"></path><path fill="#b7765a" d="M1098.9544,835.4373c30.7069-2.5259,21.5532-27.4648,12.8422-42.8314l-.0391-.0729a112.22822,112.22822,0,0,0-7.8211-11.9853s-6.0914-11.5558-16.6657-12.8121c-3.2821-.4327-7.0591.2439-11.2417,2.5579C1058.7466,780.0164,1054.2251,839.1664,1098.9544,835.4373Z"></path><path d="M1075.3951,792.2601c-4.3634,12.3977,1.8717,39.1969,25.4904,38.9091,12.4832-.2023,14.0388-19.53,10.9111-38.5633l-.0391-.0729a112.22822,112.22822,0,0,0-7.8211-11.9853s-6.0914-11.5558-16.6657-12.8121a52.64963,52.64963,0,0,1,2.3044,21.9272S1079.7584,779.863,1075.3951,792.2601Z" style="mix-blend-mode:soft-light" opacity=".3"></path><path fill="#995942" d="M1100.164,824.8008c-1.5612-4.136-2.7897-8.1842-4.0532-12.1765-1.3165-3.9655-2.4796-7.9184-4.0083-11.6387a37.10453,37.10453,0,0,0-5.5643-10.0786,12.9923,12.9923,0,0,0-10.2902-4.5828,32.57748,32.57748,0,0,1,3.1266-1.2724,12.278,12.278,0,0,1,3.5272-.2837,12.86694,12.86694,0,0,1,6.7143,2.7359c3.8972,2.9971,6.1964,7.2013,7.9497,11.3167a50.75978,50.75978,0,0,1,3.0231,12.8864A43.6878,43.6878,0,0,1,1100.164,824.8008Z"></path><path fill="#b23030" d="M1063.3081,405.9457s12.9267,62.1874,32.138,130.8179c8.1467,28.887,17.3602,58.9593,27.247,85.9952,54.694,52.4895,384.387,82.9447,471.4297,90.1508,13.381,1.1277,21.0527,1.6653,21.0527,1.6653l30.4889-51.8242,40.9882-79.9183s-100.5369,22.9283-117.7682-94.9254c-133.5365,45.8284-215.3-18.6053-232.2188-119.0482-85.9219,97.2053-185.8625,82.0335-228.6288,30.1901C1083.2259,421.4927,1063.3081,405.9457,1063.3081,405.9457Z"></path><path fill="#e6e8e8" d="M955.9286,412.6965c-.6466,41.3135,34.0793,76.1261,80.2147,83.4015-5.1171,4.2193-8.1582,9.1807-8.2418,14.5221-.2508,16.0247,25.5024,29.4091,57.51,29.9101a105.276,105.276,0,0,0,11.025-.3701c-.3573-1.1327-.6739-2.2645-.9904-3.3965-19.2113-68.6305-32.138-130.8179-32.138-130.8179l.0411.0422c1.0726.8098,20.5963,14.8483,44.6876-6.939,42.7663,51.8434,142.7069,67.0152,228.6288-30.1901,16.9188,100.4429,98.6823,164.8766,232.2188,119.0482,17.2313,117.8537,117.7682,94.9254,117.7682,94.9254l-40.9882,79.9183-14.1084,23.9888a90.58516,90.58516,0,0,0,55.9955,19.9938c31.8827.499,59.9225-14.8818,75.1871-38.0597,45.4095-5.0496,80.7979-39.2238,81.4544-81.1634.3331-21.2825-8.3361-40.786-22.7943-55.7467a137.998,137.998,0,0,0,19.8611-68.8538c1.0836-69.2312-50.3291-128.6818-122.1727-149.5496a145.058,145.058,0,0,0,2.3766-23.8387c1.3233-84.5464-71.2584-154.2208-162.1479-155.6434-44.2349-.6923-84.634,14.9544-114.5937,40.9491-20.6273-52.8745-77.169-91.3263-144.2712-92.3765-82.2514-1.2874-150.3618,54.0385-156.3994,125.1122a161.08205,161.08205,0,0,0-42.4826-21.9529c-67.0102-23.0043-135.7923.5879-153.6372,52.61-13.2539,38.7366,5.4324,82.3143,43.4599,111.544C970.0784,364.7073,956.3264,387.2827,955.9286,412.6965Z"></path><ellipse cx="1575.456" cy="235.389" fill="#fff" opacity=".5" rx="70.769" ry="121.895" transform="rotate(-75.464 1575.456 235.389)"></ellipse><ellipse cx="1295.781" cy="188.094" fill="#fff" opacity=".5" rx="121.895" ry="76.866" transform="rotate(-3 1295.78 188.094)"></ellipse><ellipse cx="1061.377" cy="276.355" fill="#fff" opacity=".5" rx="60.377" ry="95.747" transform="rotate(-66.76 1061.377 276.355)"></ellipse><path d="M1063.3081,405.9457l.0411.0422c1.0726.8098,20.5963,14.8483,44.6876-6.939,42.7663,51.8434,142.7069,67.0152,228.6288-30.1901,16.9188,100.4429,98.6823,164.8766,232.2188,119.0482,17.2313,117.8537,117.7682,94.9254,117.7682,94.9254l-40.9882,79.9183-14.1084,23.9888a90.58516,90.58516,0,0,0,55.9955,19.9938c31.8827.499,59.9225-14.8818,75.1871-38.0597,45.4095-5.0496,80.7979-39.2238,81.4544-81.1634.3331-21.2825-8.3361-40.786-22.7943-55.7467a137.998,137.998,0,0,0,19.8611-68.8538c1.0836-69.2312-50.3291-128.6818-122.1727-149.5496,0,0,23.0924,164.737-140.5834,136.0454-72.6143,47.0323-182.6462,33.8732-240.9127-105.0341-52.0244,89.0122-182.8753,99.236-230.3506,28.243C1091.5989,409.2268,1063.3081,405.9457,1063.3081,405.9457Z" style="mix-blend-mode:soft-light" opacity=".6"></path><path d="M1095.4461,536.7636c73.143,71.1861,328.1329,138.2057,498.6767,176.146,13.381,1.1277,21.0527,1.6653,21.0527,1.6653l30.4889-51.8242,40.9882-79.9183s-100.5369,22.9283-117.7682-94.9254c-133.5365,45.8284-215.3-18.6053-232.2188-119.0482,0,0-24.6607,148.7959,148.2675,162.3968C1461.4345,571.1678,1253.1368,507.8425,1095.4461,536.7636Z" style="mix-blend-mode:soft-light" opacity=".6"></path><path fill="#e6e8e8" d="M1095.4461,536.7636c8.1467,28.887,17.3602,58.9593,27.247,85.9952,63.1237,60.5941,492.4824,91.8161,492.4824,91.8161l30.4889-51.8242C1615.3628,635.9379,1430.2373,529.5649,1095.4461,536.7636Z"></path><path d="M1122.6931,622.7588c63.1237,60.5941,492.4824,91.8161,492.4824,91.8161l30.4889-51.8242c-30.3016-26.8128-215.4271-133.1858-550.2183-125.9871,0,0,128.2029,4.2605,252.1418,35.6278C1471.5274,603.7167,1210.7422,592.2886,1122.6931,622.7588Z" style="mix-blend-mode:soft-light" opacity=".6"></path><path fill="#b7765a" d="M1089.5597,931.54q1.46115,2.65275,3.1728,5.309c1.7106,2.6983,3.5882,5.3992,5.5506,8.0596,27.4733,36.8279,81.2222,69.6843,159.875,90.1999,116.2744,30.3287,203.2477-.7425,256.3089-41.2774.169-.1224.2958-.2458.4648-.3682.0837-.0405.1268-.1234.211-.1639,21.5893-16.5671,37.5264-34.7252,47.463-50.8905,10.2363-16.6197,19.0487-43.6134,26.3578-73.26,17.2469-69.8131,26.2119-154.5736,26.2119-154.5736s-39.2881-34.0076-120.7814-62.4147c-81.1181-28.3179-204.0222-51.1119-371.701-29.4014-.1326,3.1285-.2227,6.2159-.3532,9.2193-.0098.6258-.0621,1.293-.0719,1.9188-1.6918,41.4222-3.9647,74.6542-6.3374,100.9138-3.781,41.5566-7.8333,65.7446-10.1882,77.5202-1.3092,6.3242-2.1043,9.1083-2.1043,9.1083C1073.2975,855.8181,1069.0094,895.0709,1089.5597,931.54Z"></path><path fill="#fff" d="M1115.9306 734.8107c55.4785-8.3147 126.0358-27.9973 102.8869-55.7416-22.2074-26.6025-67.2539-39.4125-96.5495-45.1722C1120.5762 675.3191 1118.3033 708.5511 1115.9306 734.8107zM1089.5597 931.54q1.46115 2.65275 3.1728 5.309a107.16 107.16 0 0033.2496-9.539c30.8742-15.0863 44.614-52.8971 30.2435-84.1355-10.0126-21.6949-30.2624-29.3164-50.4832-30.8436-1.3092 6.3242-2.1043 9.1083-2.1043 9.1083C1073.2975 855.8181 1069.0094 895.0709 1089.5597 931.54z" opacity=".11"></path><path d="M1098.2831,944.9086c121.6089,121.5326,334.1252,109.999,416.1839,48.9225.169-.1224.2958-.2458.4648-.3682.0837-.0405.1268-.1234.211-.1639,21.5893-16.5671,37.5264-34.7252,47.463-50.8905,10.2363-16.6197,19.0487-43.6134,26.3578-73.26,17.2469-69.8131,26.2119-154.5736,26.2119-154.5736s-39.2881-34.0076-120.7814-62.4147c-81.1181-28.3179-204.0222-51.1119-371.701-29.4014-.1326,3.1285-.2227,6.2159-.3532,9.2193,72.7165-.2394,250.9309,8.978,309.944,102.8586,74.8147,119.0472,46.8409,234.1898-23.1438,273.2491C1339.1137,1047.1445,1155.0462,995.8443,1098.2831,944.9086Z" style="mix-blend-mode:soft-light" opacity=".3"></path><path fill="#fff" d="M1209.4988,826.4353c14.9838,10.7116,30.0954,18.6285,29.5106,5.304a43.7707,43.7707,0,0,0-6.8366-21.8959c-12.5851-6.6667-23.9663-10.2258-25.7109-2.7398C1205.2971,812.1778,1206.565,819.1683,1209.4988,826.4353Z" opacity=".11"></path><path d="M1209.4988,826.4353s25.7924,26.7479,45.1219,26.6421,20.54-11.7687,2.9181-27.5051c18.1553,11.6376,30.2957,26.7526,8.4188,33.3755s-35.0138,1.2856-42.5131-10.3535S1209.4988,826.4353,1209.4988,826.4353Z" style="mix-blend-mode:soft-light" opacity=".3"></path><ellipse cx="1382.569" cy="774.57" rx="49.811" ry="33.275" transform="rotate(-86.113 1382.57 774.57)" style="mix-blend-mode:soft-light" opacity=".3"></ellipse><path fill="#b7765a" d="M1572.6522,921.1095c2.1548,1.3756,4.5082,2.7097,7.0211,4.0429,77.4414,40.5752,102.8826-64.6107,77.6423-94.5087-6.1295-7.1878-12.4754-11.2352-18.5268-12.9804-19.549-5.9412-36.9231,9.2788-36.9231,9.2788a178.76336,178.76336,0,0,0-20.6757,14.647l-.1182.0804c-7.9796,6.5322-16.6227,14.7775-22.7159,23.9583l-.0395.04C1546.797,882.9522,1544.3584,903.3905,1572.6522,921.1095Z"></path><path d="M1572.6522,921.1095c.0401.0395.0401.0395.0794.0392,41.8472,18.5374,74.0216-27.6173,73.2918-52.2449-.7697-24.6668-23.7476-15.3273-23.7476-15.3273a86.36,86.36,0,0,1,16.513-35.9132c-19.549-5.9412-36.9231,9.2788-36.9231,9.2788a178.76336,178.76336,0,0,0-20.6757,14.647l-.1182.0804c-4.3535,8.0957-13.4349,16.1455-22.7159,23.9583l-.0395.04C1546.797,882.9522,1544.3584,903.3905,1572.6522,921.1095Z" style="mix-blend-mode:soft-light" opacity=".3"></path><path fill="#995942" d="M1583.54,905.9286a74.56736,74.56736,0,0,1,6.7886-22.767,79.582,79.582,0,0,1,13.111-20.2089c5.5563-5.9509,12.4815-11.668,21.4577-13.603a21.90055,21.90055,0,0,1,22.9625,8.6853c-7.6184-2.9188-14.6104-3.2181-20.4199-.4213-5.8508,2.7529-10.9541,7.5754-15.8084,12.7946-4.8119,5.3252-9.3206,11.183-13.9072,17.1675C1593.1925,893.6087,1588.6645,899.7685,1583.54,905.9286Z"></path><path fill="#333" d="M1514.3221,801.8134a257.0957,257.0957,0,0,0,18.61,19.2175c3.7992,3.5491,7.7974,7.1362,12.0741,10.7217,0,0,.3675,1.4276.9019,3.9666a137.614,137.614,0,0,1,2.4105,20.6826c.6229,15.1723-1.2255,34.7725-11.4813,50.8558,26.6802-13.8948,39.699-21.2967,52.1354-38.1108,1.8151-7.4025,3.5495-14.9636,5.2046-22.5636l-.0003-.0398c2.9234-13.648,5.5681-27.4133,7.8975-40.6994,2.6357-15.0367,4.8786-29.395,6.7754-42.1221,4.2071-28.8737,6.3287-49.151,6.3287-49.151s-39.2941-34.0104-120.7822-62.3996a4.75083,4.75083,0,0,1-.3933.5588C1477.3742,677.8376,1454.6822,733.4208,1514.3221,801.8134Z"></path><ellipse cx="1380.144" cy="790.389" fill="#333" rx="26.13" ry="20.959" transform="rotate(-89.103 1380.143 790.386)"></ellipse><path fill="#fff" d="M1368.3026 781.9009c-.0859 5.4862 3.5363 9.9915 8.0903 10.0627s8.3155-4.3184 8.4013-9.8046-3.5363-9.9915-8.0903-10.0628S1368.3884 776.4146 1368.3026 781.9009zM1382.2211 796.8188a4.76328 4.76328 0 104.8373-4.6882A4.76318 4.76318 0 001382.2211 796.8188z"></path><ellipse cx="1181.75" cy="763.637" rx="44.954" ry="30.031" transform="rotate(-82.528 1181.75 763.637)" style="mix-blend-mode:soft-light" opacity=".3"></ellipse><ellipse cx="1178.673" cy="777.749" fill="#333" rx="23.582" ry="18.915" transform="rotate(-85.518 1178.672 777.75)"></ellipse><ellipse cx="1175.906" cy="770.017" fill="#fff" rx="8.966" ry="7.443" transform="rotate(-85.517 1175.906 770.017)"></ellipse><path fill="#fff" d="M1180.1806,783.6578a4.2989,4.2989,0,1,0,4.6217-3.9498A4.299,4.299,0,0,0,1180.1806,783.6578Z"></path><path fill="#995942" d="M1268.9473,833.7941c-11.0246-6.0735-21.7946-12.3592-32.7312-18.0026-5.5063-2.693-10.9834-5.5479-16.5165-7.3188a23.41252,23.41252,0,0,0-7.5636-1.4667c-1.0301.0627-1.3595.3603-1.3851.4252a5.2326,5.2326,0,0,0-.4543,2.0177c-.539,4.9239,1.0352,10.8257,3.171,16.2021a84.00117,84.00117,0,0,0,8.2692,15.7636,65.558,65.558,0,0,0,11.787,13.4015c4.566,3.7407,10.0743,6.6513,16.4641,6.2303a18.49152,18.49152,0,0,1-9.577.6808,32.48609,32.48609,0,0,1-9.2032-3.5296,57.87384,57.87384,0,0,1-14.6815-12.8749,74.62674,74.62674,0,0,1-10.3514-16.6247c-2.5875-6.0755-4.7289-12.5485-4.1717-20.1475a15.56091,15.56091,0,0,1,.6258-3.0453,9.44783,9.44783,0,0,1,2.0042-3.6007,9.96641,9.96641,0,0,1,7.0475-3.0334,27.87551,27.87551,0,0,1,10.687,2.1858,99.87883,99.87883,0,0,1,17.0887,9.1128A185.53288,185.53288,0,0,1,1268.9473,833.7941Z"></path><path fill="#333" d="M1218.5448 923.1654c15.6386.9127 31.5194 2.3299 47.4438 3.6645 48.8148 4.0614 98.1407 7.5049 141.2516-5.3443 57.1599-17.0957 45.743-71.7044 45.743-71.7044-.5113 19.3181-4.6062 38.2878-25.6779 48.4765-21.0717 10.189-32.4339.0768-56.9832-23.5571-24.5486-23.6757-45.925-26.0556-80.949-20.4677-50.176 10.8603-46.2328 6.9566-65.9987 3.0575s-40.4615-4.39-50.5271 1.2962c-10.0235 5.7285-16.7212 17.6036-32.3618 24.8303s-23.8403-7.5943-23.1971-22.0266C1105.9675 899.3225 1151.9534 916.1124 1218.5448 923.1654zM1340.9291 704.4805c6.5678 1.7307 15.6992 5.0457 25.3661 8.7869 5.5172 2.2152 11.1991 4.5163 16.6726 6.8559 4.1058 1.6922 8.0445 3.3818 11.6938 4.9415 8.0851 3.4658 14.7579 6.4921 18.4472 8.136 1.9481.8654 3.0253 1.3831 3.0253 1.3831 12.5996-4.9368 21.3323-24.1679 21.3323-24.1679-1.4963-3.0705-3.0782-6.0171-4.662-8.8388a132.92843 132.92843 0 00-13.096-19.3638 99.06707 99.06707 0 00-11.8677-12.4576 76.938 76.938 0 00-13.2498-9.5155c-8.5223-4.8919-17.0002-7.2785-24.8855-7.4855C1347.9261 652.1217 1333.6106 684.0381 1340.9291 704.4805z"></path><path d="M1394.6616 725.0648c8.0851 3.4658 14.7579 6.4921 18.4472 8.136a124.55493 124.55493 0 0019.6956-31.6236 132.92843 132.92843 0 00-13.096-19.3638C1416.4936 692.9323 1409.2388 711.1012 1394.6616 725.0648zM1366.2952 713.2674c5.5172 2.2152 11.1991 4.5163 16.6726 6.8559 8.2979-10.1382 20.2211-27.8586 24.8729-50.3675a76.938 76.938 0 00-13.2498-9.5155C1391.9325 672.7209 1384.6797 696.1075 1366.2952 713.2674z" style="mix-blend-mode:soft-light" opacity=".3"></path><path fill="#333" d="M1143.9497,688.7498c2.8868,4.9291,7.2015,11.9255,9.7901,14.5539,2.0545,2.0774,16.6994-.1977,31.8184-3.4256,2.2616-.5073,4.5237-1.0145,6.744-1.5224,2.8061-.6239,5.5303-1.2907,8.1275-1.9181,5.1543-1.2966,9.8071-2.518,13.4136-3.5884,3.0188-.8711,5.3266-1.6281,6.5867-2.151,8.1522-3.4621-6.8705-27.74-14.9913-36.9248-3.0763-3.4709-8.0609-5.0098-13.5657-5.3464a48.76606,48.76606,0,0,0-15.805,1.7144,43.21689,43.21689,0,0,0-7.8077,2.8414c-.4641.285-.9264.5282-1.3481.772a43.01617,43.01617,0,0,0-4.7698,3.3899c-6.1702,4.8706-13.6781,12.5169-17.9145,19.1708A11.90853,11.90853,0,0,0,1143.9497,688.7498Z"></path><path d="M1176.068 650.1414c14.3327 15.0007 21.5982 36.1935 24.3617 46.2962 5.1543-1.2966 9.8071-2.518 13.4136-3.5884a116.71379 116.71379 0 00-21.9703-44.4222A48.76606 48.76606 0 001176.068 650.1414zM1162.1424 657.1447c12.5871 14.5141 20.1019 33.1229 23.4158 42.7334 2.2616-.5073 4.5237-1.0145 6.744-1.5224-8.7926-24.9317-19.0443-39.3257-24.0419-45.3729-.4641.285-.9264.5282-1.3481.772A43.01617 43.01617 0 001162.1424 657.1447zM1265.9886 926.8299c48.8148 4.0614 98.1407 7.5049 141.2516-5.3443 57.1599-17.0957 45.743-71.7044 45.743-71.7044-.5113 19.3181-4.6062 38.2878-25.6779 48.4765-21.0717 10.189-32.4339.0768-56.9832-23.5571-24.5486-23.6757-45.925-26.0556-80.949-20.4677-50.176 10.8603-46.2328 6.9566-65.9987 3.0575 0 0 18.9949 13.1536 48.8612 9.113C1298.8382 862.8543 1316.9711 904.4199 1265.9886 926.8299zM1545.9081 835.7192a137.614 137.614 0 012.4105 20.6826 219.84377 219.84377 0 0045.8587-9.8186l-.0003-.0398c2.9234-13.648 5.5681-27.4133 7.8975-40.6994C1585.7635 819.626 1564.8535 829.2288 1545.9081 835.7192zM1514.3221 801.8134a257.0957 257.0957 0 0018.61 19.2175c17.4549-9.3401 43.278-26.4868 75.9178-57.309 4.2071-28.8737 6.3287-49.151 6.3287-49.151s-39.2941-34.0104-120.7822-62.3996a4.75083 4.75083 0 01-.3933.5588C1514.165 672.2943 1570.2409 736.6992 1514.3221 801.8134z" style="mix-blend-mode:soft-light" opacity=".3"></path><path fill="#b7765a" d="M1117.313,861.3758c-5.316,17.7364,1.9424,30.8727,17.941,40.4822-6.4915,23.6657-16.1521,48.098-27.9591,61.8477-23.9728,27.806-96.7078-6.3893-127.529-33.8374-30.873-27.4482-4.9586-98.7522-4.9586-98.7522s85.0025-13.954,93.5382-16.8163c8.5874-2.8624,48.4053-13.2387,48.4053-13.2387s25.1483,22.7969,27.3459,42.8847c.8685,7.6159-.7663,22.5926-4.4469,39.8179C1124.5196,890.153,1116.6485,875.5853,1117.313,861.3758Z"></path><path d="M1117.313,861.3758c-5.316,17.7364,1.9424,30.8727,17.941,40.4822-6.4915,23.6657-16.1521,48.098-27.9591,61.8477-23.9728,27.806-96.7078-6.3893-127.529-33.8374-30.873-27.4482-4.9586-98.7522-4.9586-98.7522s85.0025-13.954,93.5382-16.8163c8.5874-2.8624,48.4053-13.2387,48.4053-13.2387s25.1483,22.7969,27.3459,42.8847c.8685,7.6159-.7663,22.5926-4.4469,39.8179C1124.5196,890.153,1116.6485,875.5853,1117.313,861.3758Z" style="mix-blend-mode:soft-light" opacity=".3"></path><path d="M1139.6498,883.7637c3.6806-17.2253,5.3154-32.202,4.4469-39.8179-2.1976-20.0878-27.3459-42.8847-27.3459-42.8847s-39.8179,10.3763-48.4053,13.2387c-8.5357,2.8623-93.5382,16.8163-93.5382,16.8163s-25.9144,71.304,4.9586,98.7522c30.8212,27.4481,103.5562,61.6434,127.529,33.8374,11.807-13.7497,21.4676-38.182,27.9591-61.8477-15.9986-9.6095-23.257-22.7458-17.941-40.4822C1116.6485,875.5853,1124.5196,890.153,1139.6498,883.7637ZM984.468,869.9117s57.0426-.9711,58.0141,60.8258C1042.4821,930.7375,960.547,926.4437,984.468,869.9117Z" style="mix-blend-mode:soft-light" opacity=".3"></path><path fill="#b7765a" d="M1091.2956,845.4283c-1.6348,12.6761-6.5421,24.1768-14.6179,25.8125a9.61453,9.61453,0,0,1-3.2208.2043c-3.7824-.4598-8.9961-3.7824-14.0564-8.8938a59.21487,59.21487,0,0,1-4.3439-4.907c-6.6451-8.2293-12.1146-19.1166-12.4721-29.6972-.6134-17.123,3.6295-32.8151,19.5764-39.2555h.0511c.1535-.0511.2559-.102.4094-.1531a42.16184,42.16184,0,0,1,10.8355-2.5557,12.2935,12.2935,0,0,1,8.7409,2.0955C1096.9186,798.6078,1091.6026,842.9234,1091.2956,845.4283Z"></path><path fill="#b7765a" d="M1055.2606,842.6168c-1.6353,9.2007-4.2422,27.7551-31.7927,18.4012a28.37814,28.37814,0,0,1-4.2422-1.8912c-23.9728-13.2387-37.9779-65.8859-14.261-77.1311a17.073,17.073,0,0,1,2.9644-1.1755c29.2888-8.5871,45.3892,19.8322,45.3892,19.8322S1056.896,833.4163,1055.2606,842.6168Z"></path><path fill="#b7765a" d="M1011.7121,836.9944c-1.3802,10.8361-8.1788,15.7431-18.1457,14.3118a40.72786,40.72786,0,0,1-12.8297-4.498c-16.3562-8.6895-34.1949-36.6486-17.941-46.9738a4.82746,4.82746,0,0,1,.9197-.6133c17.8899-9.9673,35.2687,7.0026,35.2687,7.0026S1013.6538,822.018,1011.7121,836.9944Z"></path><path d="M1055.2606 842.6168c-1.6353 9.2007-4.2422 27.7551-31.7927 18.4012a28.37814 28.37814 0 01-4.2422-1.8912c10.8355-4.6516 20.599-17.2765 13.647-43.8559a49.18974 49.18974 0 00-27.908-33.2752 17.073 17.073 0 012.9644-1.1755c29.2888-8.5871 45.3892 19.8322 45.3892 19.8322S1056.896 833.4163 1055.2606 842.6168zM1011.7121 836.9944c-1.3802 10.8361-8.1788 15.7431-18.1457 14.3118.715-4.089.6127-9.6606-.9203-17.3277-4.0376-19.8319-19.423-29.646-29.8504-34.1441a4.82746 4.82746 0 01.9197-.6133c17.8899-9.9673 35.2687 7.0026 35.2687 7.0026S1013.6538 822.018 1011.7121 836.9944zM1091.2956 845.4283c-1.6348 12.6761-6.5421 24.1768-14.6179 25.8125a9.61453 9.61453 0 01-3.2208.2043c-3.7824-.4598-8.9961-3.7824-14.0564-8.8938 15.1813-4.6512 21.0596-20.4967 18.0434-46.8202-1.9417-17.1233-9.2001-24.2283-14.8225-27.1926a42.16184 42.16184 0 0110.8355-2.5557 12.2935 12.2935 0 018.7409 2.0955C1096.9186 798.6078 1091.6026 842.9234 1091.2956 845.4283z" style="mix-blend-mode:soft-light" opacity=".3"></path><path fill="#b7765a" d="M1123.5488,970.9641c-15.2831,3.8335-61.4391-40.2266-70.0259-53.4141-4.5492-7.0538-3.5265-17.7876.7151-25.5058,3.783-6.7983,10.0187-11.2452,17.0725-8.5871,15.0783,5.6224,35.0641,4.089,52.1359,6.4401a14.93434,14.93434,0,0,1,3.8847,1.0223c12.8297,4.907,10.7345,23.5126,10.7345,23.5126C1152.3771,940.3466,1138.8318,967.1305,1123.5488,970.9641Z"></path><path d="M1123.5488,970.9641c-15.2831,3.8335-61.4391-40.2266-70.0259-53.4141-4.5492-7.0538-3.5265-17.7876.7151-25.5058,5.7765,11.2959,15.079,27.2946,23.2059,31.5372,12.625,6.5424,26.1198-2.8624,49.8872-32.6619,12.8297,4.907,10.7345,23.5126,10.7345,23.5126C1152.3771,940.3466,1138.8318,967.1305,1123.5488,970.9641Z" style="mix-blend-mode:soft-light" opacity=".3"></path><path fill="#b7765a" d="M1158.4088,833.3652c.5622,13.2386-21.6722,51.6252-45.4915,58.3211-23.2059,6.4913-49.2739-9.7117-51.8296-18.861-.0512-.2555-.1023-.4602-.1535-.7157-1.1244-7.4627,9.3542-8.8426,17.9922-9.4559,1.7383-.1024,3.4242-.2047,4.9067-.3067,8.8938-.6134,30.5661-60.1612,32.9177-61.2859C1149.4127,785.7781,1157.8972,820.1268,1158.4088,833.3652Z"></path><path d="M1158.4088,833.3652c.5622,13.2386-21.6722,51.6252-45.4915,58.3211-23.2059,6.4913-49.2739-9.7117-51.8296-18.861,35.4728,17.8899,60.9274,6.7982,74.371-15.8455,13.8517-23.5123,14.3627-60.4164-11.0408-51.3183-25.4041,9.1493-15.3342,73.3484-30.6683,63.2791a41.29036,41.29036,0,0,0-14.8232-6.2869c1.7383-.1024,3.4242-.2047,4.9067-.3067,8.8938-.6134,30.5661-60.1612,32.9177-61.2859C1149.4127,785.7781,1157.8972,820.1268,1158.4088,833.3652Z" style="mix-blend-mode:soft-light" opacity=".3"></path><path fill="#e6e8e8" d="M944.312,916.7395s94.4481,35.1324,170.2697,51.4716c-32.7467,187.2275-125.5547,281.6494-206.6765,284.047s-67.3586-105.4686-45.4263-171.1728S944.312,916.7395,944.312,916.7395Z"></path><path d="M1114.5855,968.2154c-32.7641,187.208-125.5617,281.6285-206.6972,284.0499-40.6615,1.2058-57.4454-25.2852-61.3527-60.3056,26.1568,40.3066,75.0426,41.0003,133.6633-45.9393,69.6633-103.3764,27.1697-180.2638-7.6194-219.2459C1006.2953,938.415,1064.4999,957.4372,1114.5855,968.2154Z" style="mix-blend-mode:soft-light" opacity=".6"></path><path fill="#b8c6d1" d="M2080.7083,1002.6545c-7.309,41.6068-119.9131,56.5831-251.4803,33.4287-118.4312-20.8034-211.867-65.4258-224.0328-104.5281a27.16289,27.16289,0,0,1-.9708-12.7273c7.3089-41.6068,119.913-56.5831,251.4802-33.4795,99.928,17.532,181.9661,52.0339,212.5322,85.8713C2077.9479,981.9534,2082.4466,992.6363,2080.7083,1002.6545Z"></path><path fill="#ccdded" d="M2069.2076,983.9469c-7.3089,41.6068-119.913,56.5832-251.4803,33.4796-99.8768-17.5321-181.966-52.034-212.5321-85.8714a27.16289,27.16289,0,0,1-.9708-12.7273c7.3089-41.6068,119.913-56.5831,251.4802-33.4795,99.928,17.532,181.9661,52.0339,212.5322,85.8713A26.51529,26.51529,0,0,1,2069.2076,983.9469Z"></path><ellipse cx="1845.021" cy="946.262" fill="#bdc8d1" rx="49.509" ry="202.951" transform="rotate(-80.026 1845.02 946.262)"></ellipse><ellipse cx="1842.27" cy="952.69" fill="#ccdded" rx="35.177" ry="183.14" transform="rotate(-80.026 1842.27 952.69)"></ellipse><path fill="#e6e8e8" d="M1334.5787,1235.5215a31.5967,31.5967,0,0,1-.9009,4.5071,33.93214,33.93214,0,1,1-37.3003-42.547,34.3936,34.3936,0,0,1,8.9366.0133A33.92857,33.92857,0,0,1,1334.5787,1235.5215Z"></path><path d="M1329.7721,1246.6915a32.60969,32.60969,0,1,1-42.2511-46.4136,32.03943,32.03943,0,0,0-4.6988,13.0274,32.62951,32.62951,0,0,0,28.0966,36.6068A32.2571,32.2571,0,0,0,1329.7721,1246.6915Z" style="mix-blend-mode:soft-light" opacity=".6"></path><path fill="#fff" d="M1334.5787,1235.5215a31.5967,31.5967,0,0,1-.9009,4.5071,32.90881,32.90881,0,0,1-8.9861.0245,33.92863,33.92863,0,0,1-29.215-38.0647,31.673,31.673,0,0,1,.9008-4.5068,34.3936,34.3936,0,0,1,8.9366.0133A33.92857,33.92857,0,0,1,1334.5787,1235.5215Z" opacity=".22"></path><path fill="#e6e8e8" d="M1342.3468,1367.4753a31.5967,31.5967,0,0,1-.9009,4.5071,33.93213,33.93213,0,1,1-37.3003-42.5469,34.38913,34.38913,0,0,1,8.9366.0132A33.92863,33.92863,0,0,1,1342.3468,1367.4753Z"></path><path d="M1337.5402,1378.6453a32.60969,32.60969,0,1,1-42.2511-46.4136,32.04088,32.04088,0,0,0-4.6988,13.0274,32.62945,32.62945,0,0,0,28.0966,36.6068A32.257,32.257,0,0,0,1337.5402,1378.6453Z" style="mix-blend-mode:soft-light" opacity=".6"></path><path fill="#fff" d="M1342.3468,1367.4753a31.5967,31.5967,0,0,1-.9009,4.5071,32.9048,32.9048,0,0,1-8.9861.0245,33.92858,33.92858,0,0,1-29.215-38.0646,31.67016,31.67016,0,0,1,.9008-4.5068,34.38913,34.38913,0,0,1,8.9366.0132A33.92863,33.92863,0,0,1,1342.3468,1367.4753Z" opacity=".22"></path></g></svg>