<svg xmlns="http://www.w3.org/2000/svg" viewBox="0 0 2800 1900" id="chef-standing-with-recipe-menu"><g data-name="Layer 1"><ellipse cx="1252.887" cy="1753.15" fill="#d1bfb2" rx="456.807" ry="64.421"></ellipse><path fill="#e6e8e8" d="M1491.2153,1517.0607a249.52727,249.52727,0,0,1-41.3833,11.3803c-3.6402.6899-7.2805,1.341-10.8824,1.9542-2.5672.4598-5.1347.9196-7.7019,1.3027-1.8776.3452-3.7935.6516-5.671.958-3.6403.5748-7.2805,1.1497-10.8824,1.6862-3.8318.5749-7.6253,1.1493-11.4187,1.6479-3.7934.536-7.5485,1.0342-11.3038,1.494-3.4485.4598-6.8589.8812-10.2692,1.2648-.4982.0767-1.0347.115-1.5328.1913-3.4485.3831-6.8972.7666-10.3457,1.1113-3.6403.3831-7.2805.7283-10.8824,1.0342-3.6019.3452-7.1654.6521-10.729.9201-1.5328.1529-3.027.268-4.5215.3447-5.5561.4215-11.0356.7662-16.4766,1.1114-6.361.3447-12.6452.6127-18.8527.8429-3.1037.115-6.1691.1918-9.1961.2685-3.0654.0762-6.0927.1529-9.0814.1913-20.8833.3064-40.732-.153-59.5462-1.1876-144.9567-8.0088-227.0339-51.1165-227.0339-51.1165l2.5291-17.3196,5.671-39.2375,2.299-15.9404,31.7657-83.1117c-8.0469-1.4561-13.0282-2.3373-13.0282-2.3373s-118.4407,3.7551-89.204-153.6933,141.6997-253.1667,141.6997-253.1667,180.6692-71.4631,327.6185-11.4571a616.11251,616.11251,0,0,1,63.3397,30.0412c97.7872,53.6835,131.5837,110.394,131.5837,110.394S1716.1418,1432.7612,1491.2153,1517.0607Z"></path><path fill="#3771c4" d="M1213.9083,1157.6766s-4.1284,176.2467,5.6327,273.6285c-23.7934,15.676-62.8414,9.6628-62.8414,9.6628Z"></path><path fill="#b7765a" d="M1160.2065,967.9077s70.4482,86.9651,121.0646,100.8346c80.6044-40.8586,106.3243-133.0716,105.8344-136.0704s-84.4562-27.7389-93.4526-27.7389S1160.2065,967.9077,1160.2065,967.9077Z"></path><path fill="#6b6b6b" d="M1529.3799,1742.7152c-3.3718,12.1848-37.8963,12.2999-80.3527,9.7712-57.6684-3.4875-100.7761,9.6558-109.2061-8.1622-.1151-.2297-.2299-.4593-.3066-.6511-5.671-13.8715-1.4945-37.2066,1.1113-48.549.958-4.0615,2.0691-8.1234,2.0691-8.1234l55.0245-22.4543a2.565,2.565,0,0,0,.1916.3831c1.1878,2.9122,9.6562,21.7644,28.317,28.202a56.98414,56.98414,0,0,0,9.5795,2.1839c20.96,3.3341,52.9938,1.7629,79.9696,25.3669,1.0346.9196,2.0309,1.8392,3.0272,2.7972C1527.5407,1731.9092,1530.6444,1738.1551,1529.3799,1742.7152Z"></path><path d="M1529.3799,1742.7152c-3.3718,12.1848-37.8963,12.2999-80.3527,9.7712-57.6684-3.4875-100.7761,9.6558-109.2061-8.1622-.1151-.2297-.2299-.4593-.3066-.6511-5.671-13.8715-1.4945-37.2066,1.1113-48.549.958-4.0615,2.0691-8.1234,2.0691-8.1234l55.0245-22.4543a2.565,2.565,0,0,0,.1916.3831c1.1878,2.9122,9.6562,21.7644,28.317,28.202a56.98414,56.98414,0,0,0,9.5795,2.1839c-7.5102,3.7556-20.3852,8.6599-40.732,12.1853-37.1301,6.3609-53.4152,34.4862,29.1218,32.9534C1479.7583,1739.4578,1512.1752,1744.8991,1529.3799,1742.7152Z" style="mix-blend-mode:soft-light" opacity=".3"></path><path fill="#6b6b6b" d="M1174.7473,1739.6112c-.0765.1918-.1916.4219-.3064.6516-8.43,17.8179-51.5377,4.6746-109.2062,8.1617-58.3584,3.4866-101.7727,1.9159-69.7771-29.007.9963-.9579,1.9926-1.8775,3.0271-2.7971,31.4975-27.5887,69.9302-20.8064,89.549-27.5504,18.6608-6.4376,27.1292-25.2902,28.317-28.2024a2.551,2.551,0,0,0,.1916-.3826l54.9869,22.4391s1.149,4.0766,2.1069,8.1385C1176.2417,1702.4046,1180.4185,1725.7401,1174.7473,1739.6112Z"></path><path d="M1174.4409,1740.2628c-8.43,17.8179-51.5377,4.6746-109.2062,8.1617-58.3584,3.4866-101.7727,1.9159-69.7771-29.007.9963-.9579,1.9926-1.8775,3.0271-2.7971,31.4975-27.5887,69.9302-20.8064,89.549-27.5504,18.6608-6.4376,27.1292-25.2902,28.317-28.2024a2.551,2.551,0,0,0,.1916-.3826l54.9869,22.4391s1.149,4.0766,2.1069,8.1385c-10.8824,4.2149-32.8385,9.3877-76.6359,11.3036-78.3986,3.4104-58.4349,43.6059,41.8048,39.6207C1152.3314,1741.412,1164.1333,1740.8376,1174.4409,1740.2628Z" style="mix-blend-mode:soft-light" opacity=".3"></path><path fill="#333" d="M1220.9825,1525.8785c-3.7829,9.4091-8.0842,21.564-12.5569,34.9547-17.3755,52.0723-37.0763,122.734-37.0763,122.734s-10.3217,3.9095-33.778,5.6139a361.4747,361.4747,0,0,1-49.5485-.0939,1395.79941,1395.79941,0,0,1-4.6113-171.8503S1239.4824,1479.8084,1220.9825,1525.8785Z"></path><path d="M1220.9825,1525.8785c-3.7829,9.4091-8.0842,21.564-12.5569,34.9547-28.7084,8.2105-84.5239,36.1773-70.8543,128.3479a361.4747,361.4747,0,0,1-49.5485-.0939,1395.79941,1395.79941,0,0,1-4.6113-171.8503S1239.4824,1479.8084,1220.9825,1525.8785Z" style="mix-blend-mode:soft-light" opacity=".3"></path><path fill="#333" d="M1426.228,1693.1698c-13.4496.8434-25.0982,1.0347-35.0608.805-5.3262-.1534-10.1543-.3835-14.4843-.7283-23.4505-1.6862-33.7964-5.5947-33.7964-5.5947s-19.6955-70.6581-37.0534-122.732c-4.4832-13.4113-8.7748-25.5583-12.5684-34.946-18.5074-46.0966,137.5615-8.6599,137.5615-8.6599s.3831,8.5065.6514,23.1826A1428.59264,1428.59264,0,0,1,1426.228,1693.1698Z"></path><path d="M1391.1672,1693.9748c-5.3262-.1534-10.1543-.3835-14.4843-.7283-23.4505-1.6862-33.7964-5.5947-33.7964-5.5947s-19.6955-70.6581-37.0534-122.732c-4.4832-13.4113-8.7748-25.5583-12.5684-34.946-18.5074-46.0966,137.5615-8.6599,137.5615-8.6599s.3831,8.5065.6514,23.1826C1406.9542,1560.4747,1363.5783,1602.893,1391.1672,1693.9748Z" style="mix-blend-mode:soft-light" opacity=".3"></path><path fill="#b23030" d="M1277.1713 1152.542c-22.9143 1.9159-43.9508 3.6402-63.263 5.1344-.8431-34.2562-1.2262-55.8293-1.2262-55.8293 116.2184-70.6964 148.9419-156.1837 148.9419-156.1837l63.4929 2.8738s-32.7237 85.4874-148.9419 156.1838C1276.175 1104.721 1276.5197 1122.9604 1277.1713 1152.542zM1491.2153 1517.0607a249.52727 249.52727 0 01-41.3833 11.3803c-83.6098 15.5952-157.2187 18.5841-219.2938 15.1359-1.9159-21.8799-3.7167-47.7829-5.2879-75.8314h-.0381c-2.1842-38.433-4.062-80.9275-5.6712-123.0008 28.9683-10.5758 59.8526-22.2244 59.8526-22.2244s.6516-9.8477 1.8775-25.0982c1.8778 56.7489 4.33 117.9042 7.3572 171.3578 65.1406-1.4561 130.4726-11.5337 183.4664-37.4748z"></path><path fill="#f7d180" d="M1941.6428,1026.6292v558.7906l-211.7834,28.4321-123.0772,16.5531s-67.4779,63.6465-119.4754,63.6465-48.472-108.6317-48.472-108.6317V1026.6292Z"></path><path d="M1536.2389,1585.4199s-33.0451,12.2351-38.293,36.9751,30.8436,18.5235,42.2236,18.5235,27.4984-31.6432,27.4984-31.6432Z" style="mix-blend-mode:soft-light" opacity=".6"></path><path d="M1594.7815,1091.9426a23.2349,23.2349,0,0,0,7.4848-5.9233,44.44371,44.44371,0,0,0,6.1779-10.313c2.471,10.2843,6.1995,17.0931,12.8592,20.9465,9.0091,5.186,20.1478,4.2262,28.5895-1.4325a26.264,26.264,0,0,0,6.1255-5.4752c5.3281-6.5007,8.7926-14.6735,11.0399-21.9858,2.7464,15.4213,6.9679,25.1901,15.8568,30.2593,12.3804,7.1469,28.4326,3.9815,37.935-6.6361a7.57864,7.57864,0,0,0,.9503-1.0557c5.284-6.4333,8.9439-14.3542,11.4651-21.7764,2.766,13.0033,6.9841,21.4572,15.0341,26.0479,10.3714,5.9946,23.3153,4.6892,32.8295-2.0946a29.81046,29.81046,0,0,0,6.0557-5.5972c14.2427-17.34,16.7296-45.5059,16.7296-45.5059.914-20.9804-14.5194-34.8193-27.8148-37.8327-5.0248-1.1198-13.3129-.9381-21.5948,1.758-8.5338,2.843-16.9987,8.4082-21.5356,18.0119-5.5279-8.8102-14.2748-14.541-22.2543-16.3495a36.63713,36.63713,0,0,0-13.1444-.1297c-11.8834,1.6587-26.2335,8.1459-31.4025,23.433-4.9159-8.0604-12.8357-13.2837-20.0736-14.8944a37.90976,37.90976,0,0,0-16.6751.8724c-8.7193,2.3083-17.7915,7.6499-22.1343,17.7436a25.9532,25.9532,0,0,0-12.9874-7.7971,28.6002,28.6002,0,0,0-12.1715.448c-10.8161,2.3259-23.0296,10.3824-20.9601,29.5094,2.0095,19.193,4.4837,30.4413,13.1662,35.3932A21.63479,21.63479,0,0,0,1594.7815,1091.9426Z" style="mix-blend-mode:soft-light" opacity=".3"></path><path fill="#b7765a" d="M1713.1195,986.3317c-15.851,2.2123-36.0927,13.0144-33.0761,41.8352,2.8485,26.8179,6.3045,42.4152,18.4208,49.3247,12.3804,7.147,28.4325,3.9815,37.935-6.636a7.58432,7.58432,0,0,0,.9503-1.0557c14.2426-17.3399,16.7294-45.5059,16.7294-45.5059.9764-20.9837-14.5193-34.8193-27.815-37.8327A36.63968,36.63968,0,0,0,1713.1195,986.3317Z"></path><path fill="#b7765a" d="M1644.9684,995.7427c-13.0206,3.447-26.8843,13.6013-24.4995,36.3578,2.5065,23.8816,5.6229,37.7992,16.3836,44.0254,9.009,5.1859,20.1477,4.2261,28.5894-1.4327a26.26081,26.26081,0,0,0,6.1255-5.475c12.7039-15.4999,14.9126-40.5708,14.9126-40.5708.841-18.7763-12.9432-31.1303-24.8365-33.777A37.90644,37.90644,0,0,0,1644.9684,995.7427Z"></path><path fill="#b7765a" d="M1597.6751 1006.1371c-10.816 2.3261-23.0296 10.3825-20.9601 29.5095 2.0096 19.193 4.4837 30.4413 13.1662 35.393a21.634 21.634 0 0020.4493.376 23.23461 23.23461 0 007.4848-5.9233c10.2253-12.4152 11.997-32.6233 11.997-32.6233a26.57963 26.57963 0 00-19.9657-27.1798A28.59832 28.59832 0 001597.6751 1006.1371zM1770.0538 984.7991c-13.6543 4.549-27.1325 16.0659-24.626 39.9475 2.8485 26.8179 6.3045 42.4152 18.4208 49.3247 10.3715 5.9948 23.3153 4.6892 32.8296-2.0945a29.82168 29.82168 0 006.0558-5.5972c14.2425-17.3399 16.7293-45.5059 16.7293-45.5059.9141-20.9804-14.5193-34.8193-27.8146-37.8327C1786.6239 981.9211 1778.3358 982.1029 1770.0538 984.7991z"></path><path d="M1597.6751 1006.1371c-10.816 2.3261-23.0296 10.3825-20.9601 29.5095 2.0096 19.193 4.4837 30.4413 13.1662 35.393a21.634 21.634 0 0020.4493.376C1600.048 1065.9191 1584.0646 1049.9712 1597.6751 1006.1371zM1644.9684 995.7427c-13.0206 3.447-26.8843 13.6013-24.4995 36.3578 2.5065 23.8816 5.6229 37.7992 16.3836 44.0254 9.009 5.1859 20.1477 4.2261 28.5894-1.4327C1653.5523 1070.9149 1633.4607 1055.7478 1644.9684 995.7427zM1713.1195 986.3317c-15.851 2.2123-36.0927 13.0144-33.0761 41.8352 2.8485 26.8179 6.3045 42.4152 18.4208 49.3247 12.3804 7.147 28.4325 3.9815 37.935-6.636-8.6249.9541-27.856-1.3717-28.4479-39.1199C1707.6448 1010.2536 1710.1571 995.7899 1713.1195 986.3317zM1770.0538 984.7991c-13.6543 4.549-27.1325 16.0659-24.626 39.9475 2.8485 26.8179 6.3045 42.4152 18.4208 49.3247 10.3715 5.9948 23.3153 4.6892 32.8296-2.0945C1781.968 1065.9573 1760.0895 1046.6721 1770.0538 984.7991z" style="mix-blend-mode:soft-light" opacity=".3"></path><path fill="#b23030" d="M1299.3957,1150.5877c-1.1879,5.1345-2.3374,10.9205-3.4487,17.2431-6.8589,38.8544-12.07,96.5613-14.6759,129.3998-1.2259,15.3653-1.8775,25.2897-1.8775,25.2897s-80.4677,30.3094-103.3818,37.5132l11.4187-200.4028C1219.1579,1157.3317,1256.2113,1154.3811,1299.3957,1150.5877Z"></path><path fill="#7c7c7c" d="M1097.9813,1068.7422c3.2557,15.9132,4.7533,31.874,5.8402,47.8723.9067,16.0105,1.3874,32.0396.1089,48.2591-3.2619-15.8242-4.764-31.8389-5.8402-47.8723C1097.1943,1100.9559,1096.7091,1084.8729,1097.9813,1068.7422Z"></path><path fill="#b23030" d="M1230.5382,1543.5769c-144.9567-8.0088-227.0339-51.1165-227.0339-51.1165l8.2001-56.5571c35.6357,8.6215,119.9735,26.9374,213.5078,31.8422h.0381C1226.8215,1495.794,1228.6223,1521.697,1230.5382,1543.5769Z"></path><path d="M1230.5382,1543.5769c-144.9567-8.0088-227.0339-51.1165-227.0339-51.1165l2.5291-17.3196,5.671-39.2375c35.6357,8.6215,119.9735,26.9374,213.5078,31.8422h.0381c.9963,18.0476,2.1077,35.2142,3.2955,51.0012Q1229.5229,1531.85115,1230.5382,1543.5769Z" style="mix-blend-mode:soft-light" opacity=".3"></path><path d="M1054.0074,1073.7986c-61.0022,118.7857-71.0415,222.7421,232.3601,172.7372l107.5585,47.2844s-50.4647,44.9853-110.2789,68.3975c-17.2431,6.744-35.291,11.6869-53.1089,13.2581,18.2777,20.8833,37.1685,36.3253,55.7144,47.6675,71.2627,43.6068,137.9122,26.4128,150.4525,22.5663.3978-.1352.813-.2437,1.2098-.3803.4598-.1531.7281-.2299.8432-.2682-2.3374,2.1841-76.0613,68.3977-210.2123,73.6856-61.7304,2.4521-136.2586-8.0086-222.5124-43.6059l5.671-39.2375,2.299-15.9404,31.7657-83.1117c-8.0469-1.4561-13.0282-2.3373-13.0282-2.3373s-118.4407,3.7551-89.204-153.6933,141.6997-253.1667,141.6997-253.1667,180.6692-71.4631,327.6185-11.4571a616.11251,616.11251,0,0,1,63.3397,30.0412C1446.0383,988.043,1344.2659,1084.949,1054.0074,1073.7986Z" style="mix-blend-mode:soft-light" opacity=".6"></path><path fill="#b7765a" d="M1413.3532,1228.2964c-4.9813,5.2498-20.9981,8.0085-20.9981,8.0085s4.7514,30.7311,2.9887,50.4647c-1.7244,19.7339-16.7066,21.9945-42.9546,23.2591-22.2243,1.0346-60.0825-9.5412-71.1181-12.7981,2.6059-32.8385,7.817-90.5454,14.6759-129.3998,22.7608-8.6599,65.5238-24.1786,72.421-21.9945,9.5028,2.9887,15.4804,26.2477,18.7375,41.2302,26.7459-4.7517,35.7505-7.0123,35.9804,8.0083C1423.3542,1210.0572,1418.3345,1223.0469,1413.3532,1228.2964Z"></path><path d="M1414.9242,1226.3805a13.54557,13.54557,0,0,1-1.571,1.9159c-4.9813,5.2498-20.9981,8.0085-20.9981,8.0085s4.7514,30.7311,2.9887,50.4647c-1.7244,19.7339-16.7066,21.9945-42.9546,23.2591-22.2243,1.0346-60.0825-9.5412-71.1181-12.7981,2.6059-32.8385,7.817-90.5454,14.6759-129.3998,17.5113-6.6673,46.8628-17.3582,62.6116-20.9601-14.5991,8.2768-34.1031,20.6151-37.1685,29.1985-4.6749,13.1431,36.287,16.1701,65.4853,10.001.0767.3447.1534.6513.2301.9963,22.071-3.9085,32.0721-6.131,35.0225,1.6476-12.2618,3.2569-37.7048,11.3803-45.0236,24.3318C1368.8278,1227.7218,1394.3474,1229.1779,1414.9242,1226.3805Z" style="mix-blend-mode:soft-light" opacity=".3"></path><path fill="#995942" d="M1387.1057 1187.0664c-5.9613 3.2782-12.2076 4.8222-18.521 5.9595-6.3429.959-12.7549 1.498-19.4541.2914 5.9592-3.2903 12.2054-4.8349 18.521-5.9594C1373.9966 1186.4116 1380.4082 1185.8718 1387.1057 1187.0664zM1392.3551 1236.3049c-5.4339 3.1542-11.1423 4.5723-16.9153 5.5834-5.8009.8325-11.6685 1.2448-17.8124-.0905 5.4318-3.1662 11.1402-4.5849 16.915-5.5833C1380.3454 1235.3945 1386.213 1234.9817 1392.3551 1236.3049z"></path><path fill="#841818" d="M1062.7773,1166.6325c19.712-1.7556,39.4279-3.1431,59.1295-4.7243l59.1193-4.1219q59.08785-4.6329,118.1093-10.0575l3.8392-.3522-.782,3.8586-3.6414,17.9612c-1.0628,6.0353-2.0635,12.0875-2.9573,18.1636-1.8154,12.1464-3.3818,24.345-4.8191,36.5619l-4.0162,36.6987-3.6742,36.7533.0057-.1429-.0024.1906-.0012.094-.0048.0525-2.2106,25.0495-.0869.9864-.8686.3019-30.1663,10.4875-30.2082,10.3514,29.6437-11.8729,29.6859-11.7368-.9545,1.2871,1.5443-25.1451-.0056.1445-.0027-.1906-.0006-.0563.0063-.0884,2.6967-36.8981c.9518-12.2985,2.2538-24.5669,3.551-36.8389,1.3338-12.2687,2.7978-24.5284,4.5171-36.7698.8454-6.1218,1.8008-12.2358,2.8211-18.344l3.5549-18.2944,3.0563,3.5057-59.1381,4.6895c-19.7194,1.4757-39.4183,3.177-59.1818,4.0411l-59.2841,2.5288C1102.2849,1165.3417,1082.533,1166.1711,1062.7773,1166.6325Z"></path><path d="M1098.515,1079.5255s64.4304,74.5642,200.8806,71.0622c-72.9657,5.4945-196.0661,7.0889-196.0661,7.0889Z" style="mix-blend-mode:soft-light" opacity=".6"></path><path fill="#3771c4" d="M1213.9083,1155.1451c-6.6291,60.6957-18.4692,297.8095-18.4692,297.8095a.1412.1412,0,0,1-.1151.0383c-3.5252.4215-86.9816,10.3076-194.8084-31.8422,14.2542-112.0416,33.7581-253.8948,33.7581-253.8948S1144.4762,1143.8031,1213.9083,1155.1451Z"></path><path d="M1195.4391,1452.9546a.1412.1412,0,0,1-.1151.0383c-3.5252.4215-86.9816,10.3076-194.8084-31.8422,14.2542-112.0416,33.7581-253.8948,33.7581-253.8948S1055.0037,1393.4853,1195.4391,1452.9546Z" style="mix-blend-mode:soft-light" opacity=".3"></path><path fill="#ffe6bb" d="M1969.1168,1694.0515h-481.81c68.8956-25.1751,56.864-84.8748,48.9321-108.6317h470.3913S2035.1004,1663.7798,1969.1168,1694.0515Z"></path><path d="M1969.1168,1694.0515h-481.81c-51.9975,0-48.472-108.6317-48.472-108.6317V1026.6292s13.0279,368.2355,251.5956,558.7906a471.39453,471.39453,0,0,0,39.429,28.4321C1794.3103,1655.6952,1873.0155,1685.1232,1969.1168,1694.0515Z" style="mix-blend-mode:soft-light" opacity=".3"></path><path fill="#b23030" d="M1597.5542,451.9879s-24.0444,59.973-55.4983,125.2631c-13.2994,27.4701-27.873,55.9346-42.5698,81.2342-63.8387,42.6835-397.2089,13.4358-485.0723,4.8781-13.5108-1.2958-21.2373-2.1477-21.2373-2.1477L972.1782,603.757l-26.3858-87.5142s95.8623,41.2009,134.2029-73.7733c124.5615,70.1305,217.4706,20.3852,252.368-77.1989,67.9636,112.9825,170.0876,115.8963,221.9475,71.6979C1574.9481,463.9565,1597.5542,451.9879,1597.5542,451.9879Z"></path><path fill="#e6e8e8" d="M1703.1322,478.2182c-6.7898,41.5163-47.5892,70.106-94.7813,69.0333,4.3299,5.1556,6.4618,10.6786,5.5839,16.0462-2.6336,16.1033-30.6541,24.847-62.5769,19.5468a105.70673,105.70673,0,0,1-10.8981-2.3695c.5592-1.0702,1.0776-2.147,1.5961-3.224,31.4539-65.2901,55.4983-125.2631,55.4983-125.2631l-.0485.0348c-1.2125.6171-23.1551,11.1455-43.1949-15.0542-51.8599,44.1984-153.9839,41.2846-221.9475-71.6979-34.8974,97.5841-127.8065,147.3294-252.368,77.1989-38.3406,114.9742-134.2029,73.7733-134.2029,73.7733l26.3858,87.5142,9.7153,26.5961a90.95771,90.95771,0,0,1-59.2865,9.8845c-31.7983-5.2796-56.9176-25.7753-67.9287-51.7684-44.2529-13.2917-73.2995-53.9519-66.4068-96.0974,3.4978-21.387,15.6284-39.3594,32.6993-51.7301a141.52444,141.52444,0,0,1-7.3648-72.5969c11.378-69.5712,73.2057-119.825,148.411-127.7124a148.81091,148.81091,0,0,1,1.9253-24.3189c13.895-84.9615,98.6154-141.6229,189.264-126.5722,44.1177,7.325,81.4809,30.3277,106.6,61.8072,30.0275-49.2448,93.1781-77.5265,160.1025-66.4148,82.0335,13.6203,139.8177,81.4078,133.0351,153.7232a161.91647,161.91647,0,0,1,46.2-14.2973c70.7828-10.9045,134.9444,25.2053,143.3322,80.5701,6.2122,41.2195-20.2122,81.5002-63.2906,103.8968C1697.6937,427.5646,1707.3089,452.6796,1703.1322,478.2182Z"></path><ellipse cx="1118.892" cy="188.237" fill="#fff" opacity=".5" rx="123.201" ry="72.064" transform="rotate(-4.347 1118.892 188.237)"></ellipse><ellipse cx="1405.546" cy="191.543" fill="#fff" opacity=".5" rx="78.244" ry="123.246" transform="rotate(-76.519 1405.546 191.543)"></ellipse><ellipse cx="1622.789" cy="322.479" fill="#fff" opacity=".5" rx="96.807" ry="61.461" transform="rotate(-13.209 1622.79 322.479)"></ellipse><path d="M1597.5542,451.9879l-.0485.0348c-1.2125.6171-23.1551,11.1455-43.1949-15.0542-51.8599,44.1984-153.9839,41.2846-221.9475-71.6979-34.8974,97.5841-127.8065,147.3294-252.368,77.1989-38.3406,114.9742-134.2029,73.7733-134.2029,73.7733l26.3858,87.5142,9.7153,26.5961a90.95771,90.95771,0,0,1-59.2865,9.8845c-31.7983-5.2796-56.9176-25.7753-67.9287-51.7684-44.2529-13.2917-73.2995-53.9519-66.4068-96.0974,3.4978-21.387,15.6284-39.3594,32.6993-51.7301a141.52444,141.52444,0,0,1-7.3648-72.5969c11.378-69.5712,73.2057-119.825,148.411-127.7124,0,0-52.6047,160.8923,115.3386,161.812,63.7556,60.2931,175.5535,67.053,258.493-61.5797,35.7254,98.6275,164.0218,132.5929,224.0102,70.0589C1568.8276,450.1474,1597.5542,451.9879,1597.5542,451.9879Z" style="mix-blend-mode:soft-light" opacity=".6"></path><path d="M1542.0559,577.251c-85.5506,58.0745-351.2046,79.009-527.6421,86.1123-13.5108-1.2958-21.2373-2.1477-21.2373-2.1477L972.1782,603.757l-26.3858-87.5142s95.8623,41.2009,134.2029-73.7733c124.5615,70.1305,217.4706,20.3852,252.368-77.1989,0,0-2.2446,153.5747-176.6746,135.8558C1171.8781,545.3811,1390.4304,519.6842,1542.0559,577.251Z" style="mix-blend-mode:soft-light" opacity=".6"></path><path fill="#e6e8e8" d="M1542.0559,577.251c-13.2994,27.4701-27.873,55.9346-42.5698,81.2342-73.6804,49.2768-506.3096,2.7304-506.3096,2.7304L972.1782,603.757C1007.1381,582.3817,1210.3897,509.3473,1542.0559,577.251Z"></path><path d="M1499.4861,658.4852c-73.6804,49.2768-506.3096,2.7304-506.3096,2.7304L972.1782,603.757c34.9599-21.3753,238.2115-94.4097,569.8777-26.506,0,0-128.2688-18.971-257.1736-10.0059C1155.9844,576.1679,1417.4002,611.9905,1499.4861,658.4852Z" style="mix-blend-mode:soft-light" opacity=".6"></path><path fill="#b7765a" d="M1011.5383,864.1892c-.0367-.0175-.0367-.0175-.0912.0019-1.1951.5176-2.499,1.074-3.8591,1.5585-73.4538,27.6953-84.6125-68.7841-58.8696-92.7286,6.277-5.6997,12.3558-8.6005,17.9449-9.5184,18.0389-3.1451,31.8542,12.3193,31.8542,12.3193a160.9528,160.9528,0,0,1,16.8809,15.2921l.0931.0895c11.6465,12.1289,24.5918,29.7119,22.2917,45.889-.0176.0369.002.0911-.0156.1281C1036.2554,847.2619,1028.8329,856.8031,1011.5383,864.1892Z"></path><path d="M1011.5383,864.1892c-.0367-.0175-.0367-.0175-.0912.0019-39.3593,11.965-60.1902-33.9537-56.8187-55.8155,3.352-21.9162,22.8277-11.0432,22.8277-11.0432a77.77088,77.77088,0,0,0-10.7928-33.8298c18.0389-3.1451,31.8542,12.3193,31.8542,12.3193a160.9528,160.9528,0,0,1,16.8809,15.2921l.0931.0895c15.8408,20.7204,21.9297,35.3196,22.2917,45.889-.0176.0369.002.0911-.0156.1281C1036.2554,847.2619,1028.8329,856.8031,1011.5383,864.1892Z" style="mix-blend-mode:soft-light" opacity=".3"></path><path fill="#995942" d="M1006.2521,848.193c-7.6964-12.0326-13.6544-24.1475-21.1508-34.7219-3.7729-5.155-7.7365-10.0902-12.6888-13.1287-4.8705-3.1271-11.1343-3.6246-18.2417-1.8561a19.66113,19.66113,0,0,1,21.4105-5.2302c7.7484,2.7592,13.3512,8.5302,17.6348,14.4666a72.64991,72.64991,0,0,1,9.4749,19.4409A66.96,66.96,0,0,1,1006.2521,848.193Z"></path><path fill="#b7765a" d="M1482.7811,864.1892c.0367-.0175.0367-.0175.0912.0019,1.1951.5176,2.499,1.074,3.8591,1.5585,73.4538,27.6953,84.6125-68.7841,58.8697-92.7286-6.2771-5.6997-12.3559-8.6005-17.945-9.5184-18.0389-3.1451-31.8542,12.3193-31.8542,12.3193a160.9528,160.9528,0,0,0-16.8809,15.2921l-.0931.0895c-11.6465,12.1289-24.5918,29.7119-22.2917,45.889.0176.0369-.0019.0911.0156.1281C1458.064,847.2619,1465.4865,856.8031,1482.7811,864.1892Z"></path><path d="M1482.7811,864.1892c.0367-.0175.0367-.0175.0912.0019,39.3593,11.965,60.1902-33.9537,56.8187-55.8155-3.352-21.9162-22.8277-11.0432-22.8277-11.0432a77.77088,77.77088,0,0,1,10.7928-33.8298c-18.0389-3.1451-31.8542,12.3193-31.8542,12.3193a160.9528,160.9528,0,0,0-16.8809,15.2921l-.0931.0895c-15.8408,20.7204-21.9297,35.3196-22.2917,45.889.0176.0369-.0019.0911.0156.1281C1458.064,847.2619,1465.4865,856.8031,1482.7811,864.1892Z" style="mix-blend-mode:soft-light" opacity=".3"></path><path fill="#995942" d="M1488.0673,848.193a66.96576,66.96576,0,0,1,3.5611-21.0294,72.65558,72.65558,0,0,1,9.4748-19.4409c4.2837-5.9364,9.8865-11.7074,17.6349-14.4666a19.66125,19.66125,0,0,1,21.4105,5.2302c-7.1074-1.7685-13.3709-1.271-18.2417,1.8561-4.9523,3.0385-8.9159,7.9737-12.6888,13.1287C1501.7216,824.0455,1495.7636,836.1604,1488.0673,848.193Z"></path><path fill="#b7765a" d="M1504.3065,650.7683l-1.1111,6.399-1.7627,10.116L1482.197,778.1755l-7.5485,43.4908a66.40348,66.40348,0,0,0-.8432,7.7403,62.143,62.143,0,0,0,2.5675,21.1899c7.5869,25.3281,15.787,83.763-53.3769,120.3183a.1409.1409,0,0,0-.115.0383c-4.6747,2.4524-9.7327,4.8281-15.1357,7.0887-35.2525,14.7142-86.5601,24.3704-160.5904,24.3704-123.5754,0-183.8878-27.0143-211.8601-59.1245-29.4282-33.72-23.2207-73.1108-17.3196-92.6912a63.742,63.742,0,0,0,1.7244-28.9302l-29.6964-170.898s108.7461-47.9741,257.1517-47.9741C1395.5602,602.7942,1504.3065,650.7683,1504.3065,650.7683Z"></path><path fill="#333" d="M1411.9985,832.7019c-.2299,14.2544-3.2186,38.0116-153.1951,38.0116h-.2683c-149.6699-.0384-152.6586-23.7572-152.8885-38.0116-.2682-14.2158,9.2345-27.4739,9.2345-27.4739s-8.5064,23.4889,0,34.4861c8.5067,10.9973,42.2265-6.399,66.2136-22.8376,16.515-11.3036,34.2179-19.1971,52.5337-22.9907a29.57918,29.57918,0,0,0,45.8284-.8429,124.612,124.612,0,0,1,16.515,3.9466,150.48151,150.48151,0,0,1,40.5786,19.887c23.9871,16.4386,57.7071,33.8349,66.2135,22.8376s0-34.4861,0-34.4861S1412.2667,818.4861,1411.9985,832.7019Z"></path><path d="M1258.5351,870.7135c-149.6699-.0384-152.6586-23.7572-152.8885-38.0116-.2682-14.2158,9.2345-27.4739,9.2345-27.4739s-8.5064,23.4889,0,34.4861c8.5067,10.9973,42.2265-6.399,66.2136-22.8376,16.515-11.3036,34.2179-19.1971,52.5337-22.9907a29.57918,29.57918,0,0,0,45.8284-.8429,124.612,124.612,0,0,1,16.515,3.9466c-8.5832,8.0469-27.2823,20.5767-61.1555,22.1095C1194.506,820.9001,1194.0462,858.49,1258.5351,870.7135Z" style="mix-blend-mode:soft-light" opacity=".3"></path><path fill="#fff" d="M1476.3728 850.5965c7.5869 25.3281 15.787 83.763-53.3769 120.3183a.1409.1409 0 00-.115.0383c-4.6747 2.4524-9.7327 4.8281-15.1357 7.0887-12.6832-11.2654-20.7299-26.2477-20.7299-46.1347 0-62.3815 52.0356-90.622 86.79-102.5005A62.143 62.143 0 001476.3728 850.5965zM1501.4327 667.2833L1482.197 778.1755c-65.562 12.1084-120.8931-37.8198-110.394-89.166C1383.2984 632.7588 1477.0625 659.3515 1501.4327 667.2833zM1285.1661 776.8726a18.048 18.048 0 01-1.0346 6.9739.2982.2982 0 00-.0381.115s-.0384.1149-.1151.3831c-.1532.345-.345.958-.6514 1.7627-.115.3448-.2682.7281-.4216 1.1495a29.342 29.342 0 01-54.6031-3.2953.2982.2982 0 00-.0381-.115 18.04933 18.04933 0 01-1.0347-6.9739c.345-6.8205 5.2112-16.2468 28.9684-16.2468S1284.8212 770.0521 1285.1661 776.8726z" opacity=".11"></path><path d="M1504.3065,650.7683l-1.1111,6.399c-61.6153-14.2158-364.902-77.3256-416.0564,43.1077-56.9788,134.1896,32.915,329.8027,335.7419,270.6781-105.7575,36.3254-280.2576,45.2535-387.5862-27.6654-29.4282-33.72-23.2207-73.1108-17.3196-92.6912a63.742,63.742,0,0,0,1.7244-28.9302l-29.6964-170.898s108.7461-47.9741,257.1517-47.9741C1395.5602,602.7942,1504.3065,650.7683,1504.3065,650.7683Z" style="mix-blend-mode:soft-light" opacity=".3"></path><ellipse cx="1152.624" cy="754.91" rx="31.195" ry="46.696" transform="rotate(-2.115 1152.626 754.912)" style="mix-blend-mode:soft-light" opacity=".3"></ellipse><ellipse cx="1154.438" cy="769.804" fill="#333" rx="24.496" ry="19.648" transform="rotate(-89.125 1154.438 769.804)"></ellipse><path fill="#fff" d="M1165.7795,762.1932c-.0785,5.1433-3.6032,9.2599-7.8725,9.1947s-7.6667-4.2875-7.5882-9.4308,3.6033-9.2598,7.8726-9.1946S1165.8581,757.05,1165.7795,762.1932Z"></path><circle cx="1147.84" cy="775.7" r="4.466" fill="#fff" transform="rotate(-10.868 1147.84 775.7)"></circle><ellipse cx="1341.114" cy="750.487" rx="28.153" ry="42.143" transform="rotate(-2.255 1341.112 750.486)" style="mix-blend-mode:soft-light" opacity=".3"></ellipse><ellipse cx="1342.784" cy="763.924" fill="#333" rx="22.108" ry="17.732" transform="rotate(-89.264 1342.784 763.924)"></ellipse><path fill="#fff" d="M1353.003 757.0304c-.0595 4.6419-3.2314 8.3648-7.0846 8.3153s-6.9285-3.8525-6.869-8.4944 3.2315-8.3648 7.0847-8.3154S1353.0626 752.3884 1353.003 757.0304zM1340.8724 769.3114a4.03008 4.03008 0 11-3.978-4.0815A4.03 4.03 0 011340.8724 769.3114z"></path><path fill="#333" d="M1193.0107,693.0896c-6.3831,1.4726-15.2848,4.3961-24.7154,7.7144-5.3847,1.971-10.9308,4.0198-16.2771,6.112-4.0086,1.5089-7.8559,3.0203-11.4205,4.4151-7.8974,3.1-14.4204,5.8184-18.0259,7.2932-1.9039.7761-2.9578,1.2431-2.9578,1.2431-11.9989-5.1349-19.844-23.9345-19.844-23.9345,1.534-2.9153,3.1468-5.7088,4.7577-8.3816a128.20289,128.20289,0,0,1,13.2023-18.2767,95.54329,95.54329,0,0,1,11.8121-11.6554,74.207,74.207,0,0,1,13.0567-8.7781,51.07978,51.07978,0,0,1,24.2134-6.4741C1187.8266,642.4061,1200.6754,673.601,1193.0107,693.0896Z"></path><path d="M1140.5977 711.3311c-7.8974 3.1-14.4204 5.8184-18.0259 7.2932a120.13139 120.13139 0 01-18.0441-31.073 128.20289 128.20289 0 0113.2023-18.2767C1120.5095 679.7037 1126.9615 697.4353 1140.5977 711.3311zM1168.2953 700.804c-5.3847 1.971-10.9308 4.0198-16.2771 6.112-7.6971-10.0208-18.6629-27.4591-22.4761-49.2968a74.207 74.207 0 0113.0567-8.7781C1144.7894 660.952 1151.084 683.7134 1168.2953 700.804z" style="mix-blend-mode:soft-light" opacity=".3"></path><path fill="#333" d="M1392.38,693.4666c-3.6329,5.7851-9.0491,13.9886-12.2405,17.0347-2.5326,2.4072-19.9539-.8538-37.9066-5.2712-2.6846-.6899-5.3698-1.3799-8.005-2.0691-3.3311-.8494-6.5628-1.7473-9.6441-2.5932-6.1131-1.7404-11.6296-3.3724-15.9008-4.7852-3.5763-1.1529-6.3069-2.1431-7.7938-2.8147-9.6165-4.4397,9.238-32.9043,19.2847-43.5828,3.8054-4.0352,9.8205-5.6903,16.413-5.8891a58.32044,58.32044,0,0,1,18.8287,2.6335,51.68625,51.68625,0,0,1,9.2277,3.6852c.5442.3578,1.0879.6656,1.5828.9726a51.41364,51.41364,0,0,1,5.5762,4.2284c7.1953,6.0501,15.887,15.4674,20.7049,23.5776A14.24163,14.24163,0,0,1,1392.38,693.4666Z"></path><path d="M1355.4156 646.1295c-17.6869 17.4009-27.1549 42.4645-30.8318 54.4383-6.1131-1.7404-11.6296-3.3724-15.9008-4.7852a139.57678 139.57678 0 0127.9039-52.2866A58.32044 58.32044 0 011355.4156 646.1295zM1371.8023 655.0157c-15.5823 16.8837-25.2529 38.8494-29.5694 50.2144-2.6846-.6899-5.3698-1.3799-8.005-2.0691 11.4318-29.4764 24.2181-46.3028 30.4154-53.3463.5442.3578 1.0879.6656 1.5828.9726A51.41364 51.41364 0 011371.8023 655.0157z" style="mix-blend-mode:soft-light" opacity=".3"></path><path fill="#995942" d="M1285.2044 776.3746l.091.53.0042-.0313a19.94326 19.94326 0 01.5294 7.4703l-.1142.2917a1.305 1.305 0 00.1693-.671l-.0919.5639a6.50475 6.50475 0 01-.1931 1.1984l-.3239 1.4191.146-.3396a27.562 27.562 0 01-10.9627 16.5857 31.25218 31.25218 0 01-38.6056-1.595c-5.1121-4.5851-8.6441-10.7995-9.2785-17.3307l-.0664-.6848-.0056.183a1.31067 1.31067 0 00.1704.6749l-.1148-.2931a19.88418 19.88418 0 01.5369-7.4728l.0042.0315.0919-.5302.1686.4651.0042.0335a33.09483 33.09483 0 002.6057 6.473l-.1139-.2912a2.35093 2.35093 0 01.2463.9029l-.0714-.4999a30.1269 30.1269 0 0010.9055 11.6206 28.65106 28.65106 0 0014.304 4.2767 29.31211 29.31211 0 0014.5488-3.2908 29.97627 29.97627 0 0011.4434-10.655l.1469-.3414.4655-.7179a4.45771 4.45771 0 00.5494-.9544l-.0913.5621a2.34758 2.34758 0 01.2451-.899l-.1133.2898a32.91246 32.91246 0 002.598-6.4755l.0044-.0333zM1225.585 889.1893c5.8667.898 11.3949 1.9272 16.8931 2.6201a137.69982 137.69982 0 0016.3436 1.0462 139.44331 139.44331 0 0016.3409-1.0575c5.497-.6947 11.0252-1.7195 16.8957-2.6088-9.1708 7.4942-21.2058 11.2738-33.2366 11.3277C1246.7905 900.4493 1234.7636 896.6664 1225.585 889.1893z"></path><path fill="#333" d="M1019.6995 821.6663a141.26491 141.26491 0 01-25.9414-38.6243c-23.0674-49.8517-20.2703-110.0493-3.755-132.2737 2.1458-1.2646 4.4447-2.5289 6.8588-3.6786 19.2357-9.3877 45.2918-15.3272 45.2918-15.3272S1013.7216 755.6445 1019.6995 821.6663zM1499.4784 785.3409a140.9758 140.9758 0 01-24.8683 36.3254c5.9776-66.0218-22.4543-189.9038-22.4543-189.9038s24.2551 5.5178 43.2609 14.3692a91.90392 91.90392 0 018.8898 4.6366C1521.0514 673.3376 1523.6954 735.0294 1499.4784 785.3409z"></path><path d="M1474.6101 821.6663c5.9776-66.0218-22.4543-189.9038-22.4543-189.9038s24.2551 5.5178 43.2609 14.3692c-10.0009 26.976-26.1712 87.2885 4.0617 139.2092A140.9758 140.9758 0 011474.6101 821.6663zM1019.6995 821.6663a141.26491 141.26491 0 01-25.9414-38.6243c28.1253-50.8097 12.9899-108.938 3.1038-135.9523 19.2357-9.3877 45.2918-15.3272 45.2918-15.3272S1013.7216 755.6445 1019.6995 821.6663z" style="mix-blend-mode:soft-light" opacity=".3"></path><path fill="#e6e8e8" d="M1271.9562,1374.5921a21.60067,21.60067,0,0,1-.6159,3.0814,23.19881,23.19881,0,1,1-25.5016-29.0886,23.5141,23.5141,0,0,1,6.1098.0091A23.19641,23.19641,0,0,1,1271.9562,1374.5921Z"></path><path d="M1268.67,1382.2288a22.29467,22.29467,0,1,1-28.8864-31.7321,21.90419,21.90419,0,0,0-3.2124,8.9066,22.30812,22.30812,0,0,0,19.2091,25.0274A22.053,22.053,0,0,0,1268.67,1382.2288Z" style="mix-blend-mode:soft-light" opacity=".6"></path><path fill="#fff" d="M1271.9562,1374.5921a21.60067,21.60067,0,0,1-.6159,3.0814,22.49719,22.49719,0,0,1-6.1437.0168,23.19636,23.19636,0,0,1-19.9738-26.0241,21.6604,21.6604,0,0,1,.6159-3.0813,23.5141,23.5141,0,0,1,6.1098.0091A23.19641,23.19641,0,0,1,1271.9562,1374.5921Z" opacity=".22"></path></g></svg>