<svg xmlns="http://www.w3.org/2000/svg" viewBox="0 0 2800 1900" id="chef-with-kitchen-equipment"><g data-name="Layer 1"><ellipse cx="1385.793" cy="1732.039" fill="#d1bfb2" rx="497.536" ry="85.533"></ellipse><path fill="#6b6b6b" d="M1696.2005,1737.2994c-3.6413,13.1591-40.9262,13.2834-86.7771,10.5525-62.2793-3.7663-108.8337,10.4278-117.9377-8.8148-.1242-.248-.2483-.496-.3311-.7031-6.1244-14.9807-1.6139-40.1814,1.2002-52.4308,1.0346-4.3861,2.2346-8.7728,2.2346-8.7728l59.4239-24.2496a2.764,2.764,0,0,0,.2069.4137c1.2828,3.145,10.4282,23.5045,30.5811,30.4568a61.53186,61.53186,0,0,0,10.3454,2.3586c22.6358,3.6006,57.2308,1.9039,86.3634,27.3951,1.1174.9931,2.1933,1.9862,3.2693,3.0208C1694.2143,1725.6295,1697.5662,1732.3747,1696.2005,1737.2994Z"></path><path d="M1696.2005,1737.2994c-3.6413,13.1591-40.9262,13.2834-86.7771,10.5525-62.2793-3.7663-108.8337,10.4278-117.9377-8.8148-.1242-.248-.2483-.496-.3311-.7031-6.1244-14.9807-1.6139-40.1814,1.2002-52.4308,1.0346-4.3861,2.2346-8.7728,2.2346-8.7728l59.4239-24.2496a2.764,2.764,0,0,0,.2069.4137c1.2828,3.145,10.4282,23.5045,30.5811,30.4568a61.53186,61.53186,0,0,0,10.3454,2.3586c-8.1107,4.0558-22.0151,9.3522-43.9887,13.1595-40.0988,6.8695-57.686,37.2435,31.4502,35.5881C1642.6115,1733.7816,1677.6202,1739.6579,1696.2005,1737.2994Z" style="mix-blend-mode:soft-light" opacity=".3"></path><path fill="#6b6b6b" d="M1282.3899,1733.9473c-.0826.2071-.2069.4556-.3309.7036-9.104,19.2426-55.6583,5.0485-117.9376,8.8143-63.0244,3.7654-109.9099,2.0691-75.3561-31.3261,1.076-1.0346,2.152-2.0277,3.2691-3.0208,34.0158-29.7946,75.5215-22.47,96.7088-29.7532,20.1529-6.9523,29.2983-27.3122,30.5811-30.4573a2.74408,2.74408,0,0,0,.2069-.4132l59.3833,24.2332s1.2409,4.4026,2.2754,8.7893C1284.0038,1693.7659,1288.5145,1718.9671,1282.3899,1733.9473Z"></path><path d="M1282.059,1734.6509c-9.104,19.2426-55.6583,5.0485-117.9376,8.8143-63.0244,3.7654-109.9099,2.0691-75.3561-31.3261,1.076-1.0346,2.152-2.0277,3.2691-3.0208,34.0158-29.7946,75.5215-22.47,96.7088-29.7532,20.1529-6.9523,29.2983-27.3122,30.5811-30.4573a2.74408,2.74408,0,0,0,.2069-.4132l59.3833,24.2332s1.2409,4.4026,2.2754,8.7893c-11.7525,4.5518-35.4641,10.1383-82.7632,12.2073-84.6669,3.6831-63.107,47.0924,45.1472,42.7885C1258.1817,1735.8921,1270.9274,1735.2718,1282.059,1734.6509Z" style="mix-blend-mode:soft-light" opacity=".3"></path><path fill="#333" d="M1332.3218,1503.1258c-4.0854,10.1614-8.7305,23.2881-13.5609,37.7494-18.7647,56.2358-40.0406,132.5471-40.0406,132.5471s-11.147,4.2221-36.4788,6.0628a390.37206,390.37206,0,0,1-53.5101-.1015c-9.066-100.1987-4.9799-185.5903-4.9799-185.5903S1352.3008,1453.3722,1332.3218,1503.1258Z"></path><path d="M1332.3218,1503.1258c-4.0854,10.1614-8.7305,23.2881-13.5609,37.7494-31.0037,8.867-91.2818,39.0699-76.5194,138.6099a390.37206,390.37206,0,0,1-53.5101-.1015c-9.066-100.1987-4.9799-185.5903-4.9799-185.5903S1352.3008,1453.3722,1332.3218,1503.1258Z" style="mix-blend-mode:soft-light" opacity=".3"></path><path fill="#333" d="M1584.8013,1683.7927c-14.525.9108-27.105,1.1174-37.8641.8694-5.7521-.1657-10.9662-.4142-15.6424-.7865-25.3255-1.8211-36.4986-6.0421-36.4986-6.0421s-21.2702-76.3075-40.016-132.5449c-4.8415-14.4836-9.4763-27.6018-13.5733-37.7401-19.9871-49.7822,148.5602-9.3523,148.5602-9.3523s.4137,9.1866.7034,25.0361A1542.82638,1542.82638,0,0,1,1584.8013,1683.7927Z"></path><path d="M1546.9372,1684.6621c-5.7521-.1657-10.9662-.4142-15.6424-.7865-25.3255-1.8211-36.4986-6.0421-36.4986-6.0421s-21.2702-76.3075-40.016-132.5449c-4.8415-14.4836-9.4763-27.6018-13.5733-37.7401-19.9871-49.7822,148.5602-9.3523,148.5602-9.3523s.4137,9.1866.7034,25.0361C1563.9864,1540.4881,1517.1424,1586.2979,1546.9372,1684.6621Z" style="mix-blend-mode:soft-light" opacity=".3"></path><path fill="#e6e8e8" d="M1691.1164,1455.3994q-214.07085,117.6123-419.0483,71.3956-20.6901-4.6239-41.3422-10.9809c-.5775-.1538-1.1561-.3466-1.7336-.5395-.5395-.1542-1.1175-.3466-1.6565-.539q-66.6951-20.8644-132.4268-59.3362s-.0386-8.5534.2314-23.4644v-.0381c.1543-8.0916.3852-18.0706.7704-29.5909,2.1579-64.0363,9.0934-175.5413,31.1708-274.7931-95.9774-199.7766,101.256-225.3984,101.256-225.3984h329.3512s17.7231,6.2028,40.1861,20.1895c51.5527,32.0564,127.9568,105.147,70.4323,238.0357q-2.54265,5.89515-5.4328,11.9055c.4238,1.8879.848,3.7759,1.2327,5.6257,19.2649,89.0805,25.1214,171.6492,26.7398,223.1638C1691.8873,1434.9405,1691.1164,1455.3994,1691.1164,1455.3994Z"></path><path fill="#b23030" d="M1228.7994,1514.08c.6552.5785,1.2718,1.1561,1.9265,1.7341-.5775-.1538-1.1561-.3466-1.7336-.5395-.5395-.1542-1.1175-.3466-1.6565-.539q-66.6951-20.8644-132.4268-59.3362s-.0386-8.5534.2314-23.4644c.1543-8.0911.3852-18.1087.7704-29.629,42.4211,15.6813,86.4222,26.7779,124.0652,34.4452-.0767,3.7378-.1538,7.3593-.1924,10.9423v.5785c-.308,22.2312-.3852,47.545-.308,62.9183C1222.5196,1514.3114,1225.6402,1511.1522,1228.7994,1514.08Z"></path><path d="M1219.976,1436.7512c-.0386,1.8499-.0767,3.6992-.1152,5.51-.0386,1.8493-.0386,3.6601-.0772,5.4323v.5785c-.308,22.2312-.4237,48.5468-.3466,63.9201q-62.7075-20.63235-124.528-56.7927s-.0386-8.5534.2314-23.4644c.1543-8.0911.3852-18.1087.7704-29.629C1138.3319,1417.9873,1182.333,1429.0839,1219.976,1436.7512Z" style="mix-blend-mode:soft-light" opacity=".3"></path><path fill="#b7765a" d="M1258.6979,952.6893s36.1843,62.7407,107.5479,98.3007c93.4762-26.9394,118.1017-115.1882,118.1017-115.1882l-158.6323-18.431"></path><polygon fill="#333" points="1710.15 905.315 1470.92 1144.97 1447.031 1121.12 1462.751 1105.4 1686.262 881.466 1698.822 894.026 1710.15 905.315"></polygon><polygon points="1698.822 894.026 1483.365 1114.454 1462.751 1105.4 1686.262 881.466 1698.822 894.026" style="mix-blend-mode:soft-light" opacity=".3"></polygon><path fill="#516274" d="M1901.9119,772.3108l-80.6423-80.5265a33.47475,33.47475,0,0,0-34.5223-7.9759v.0385a32.93769,32.93769,0,0,0-15.1419,10.5571l-88.6182,109.309a26.42424,26.42424,0,0,0-5.7413,20.0738l8.0911,58.5649,23.9268,23.8496,60.4532,9.9024a26.6995,26.6995,0,0,0,20.6132-5.6638l14.6029-11.8288,94.4748-76.6736A33.44909,33.44909,0,0,0,1901.9119,772.3108ZM1707.222,831.5699c-3.6991-3.6992,16.4904-29.8605,45.0029-58.4496,6.2413-6.2418,12.3292-12.0598,18.1087-17.3384,20.7675-18.9182,37.3735-30.6313,40.2633-27.7802,3.5834,3.5835-15.7585,28.8587-43.4616,56.7927q-.8085.80985-1.6179,1.6184C1737.0054,815.0019,1710.8826,835.23,1707.222,831.5699Zm27.5488,27.5097c-3.0825-3.0821,10.6342-21.9231,31.9027-44.8095,4.1224-4.3929,8.5149-8.9777,13.1382-13.6011,28.5506-28.5891,54.6733-48.8172,58.3339-45.1566,3.6992,3.6601-16.4903,29.8219-45.0413,58.4106-8.4378,8.4378-16.6446,16.1823-24.1196,22.7326C1751.1073,852.3755,1737.3906,861.6613,1734.7708,859.0796Zm85.9213-17.6078c-14.0639,14.0634-27.5107,26.1227-37.9906,34.2529-10.7885,8.4377-18.4559,12.7535-20.3438,10.9037-2.0803-2.0803,3.4682-11.328,13.7553-24.1196a449.70587,449.70587,0,0,1,31.2861-34.33c28.5506-28.5887,54.6738-48.8168,58.3339-45.1181C1869.4317,786.7209,1849.2422,812.8826,1820.6921,841.4718Z"></path><path d="M1804.9331,898.6111l-14.6029,11.8288a26.6995,26.6995,0,0,1-20.6132,5.6638l-60.4532-9.9024-23.9268-23.8496-8.0911-58.5649a26.42424,26.42424,0,0,1,5.7413-20.0738l88.6182-109.309a32.93769,32.93769,0,0,1,15.1419-10.5571,530.13238,530.13238,0,0,0-16.4137,71.935c-5.7795,5.2786-11.8674,11.0966-18.1087,17.3384-28.5125,28.5891-48.702,54.7504-45.0029,58.4496,3.6606,3.6601,29.7834-16.568,58.2954-45.1571q.80925-.80925,1.6179-1.6184a251.48166,251.48166,0,0,0-.4618,29.4757c-21.2685,22.8864-34.9852,41.7274-31.9027,44.8095,2.6198,2.5817,16.3365-6.7041,34.2139-22.424a122.126,122.126,0,0,0,7.1283,25.8532c-10.2871,12.7916-15.8356,22.0393-13.7553,24.1196,1.8879,1.8498,9.5553-2.466,20.3438-10.9037A70.81245,70.81245,0,0,0,1804.9331,898.6111Z" style="mix-blend-mode:soft-light" opacity=".3"></path><path fill="#b23030" d="M1538.3468 917.9497l-18.8796-32.7502s-48.2006 142.6753-274.3312 205.864q-1.8075 13.061-3.4471 26.0922c19.1802 4.985 37.9817 11.8556 57.0678 17.2047.7459-.2991 1.4919-.5968 2.2345-.9044.1143-.048.1642-.0678.214-.088.0932-.04.1515-.0654.2794-.1199q.659-.28215 1.3184-.5649c2.0962-.9016 4.1878-1.8126 6.2888-2.7039 7.1236-3.0214 14.7087-6.3269 22.5477-6.9308.0522-.6477.096-1.2822.1496-1.9322 0 0 177.6219-82.2602 225.3212-195.7688C1550.3676 922.6502 1544.1263 920.1461 1538.3468 917.9497zM1691.1164 1455.3994q-235.74375 129.51765-460.3905 60.4147a.1415.1415 0 00-.1157-.0386c-.539-.1538-1.0784-.308-1.6179-.5009-.5395-.1542-1.1175-.3466-1.6565-.539-2.6203-.8094-5.279-1.6569-7.8988-2.5435-.0771-15.3733.0386-41.6889.3466-63.9201v-.5785c.0386-1.7722.0386-3.583.0772-5.4323.0385-1.8108.0766-3.6216.1152-5.51.6937-39.4928 2.235-87.462 5.3947-140.1708a85.42972 85.42972 0 0015.0262 12.5993c17.4155 10.9813 45.4652 13.4082 80.1033 6.5884q-2.2542 70.62465-1.2718 136.2798c165.1384 29.7447 289.0493-13.9868 371.6185-51.0132C1691.8873 1434.9405 1691.1164 1455.3994 1691.1164 1455.3994zM1549.4429 1183.2651a651.77522 651.77522 0 01-75.9803 62.0326c-12.715-51.8997-51.8607-119.3652-66.7331-143.8309a745.29767 745.29767 0 0087.6935-50.4742S1533.6463 1110.1745 1549.4429 1183.2651z"></path><path d="M1690.8084,1401.0732c-3.5064,4.0068-214.9565,244.3932-595.668,30.8237.1543-8.0916.3852-18.0706.7704-29.5909,2.1579-64.0363,9.0934-175.5413,31.1708-274.7931-95.9774-199.7766,101.256-225.3984,101.256-225.3984h329.3512s17.7231,6.2028,40.1861,20.1895c-42.4597,41.8812-200.3541,177.0049-421.4371,120.0194,36.0637,144.7175,79.0243,222.3544,115.2037,234.4146,36.1789,12.0594,184.6723-33.1744,257.8014-93.4729-49.51,55.6751-137.7378,94.416-160.0466,111.3305,122.6246,92.471,197.0002,20.5822,278.9109-134.2559a173.212,173.212,0,0,1-4.2001,17.5312c-14.6024,50.9746-73.5143,196.6549-273.7527,213.2228C1521.0471,1453.3958,1687.5335,1402.0746,1690.8084,1401.0732Z" style="mix-blend-mode:soft-light" opacity=".6"></path><path fill="#b23030" d="M1718.6161,440.546s-23.3,58.1162-53.78,121.3848c-12.8876,26.6196-27.01,54.2028-41.2518,78.7192-61.8621,41.3619-384.9109,13.0198-470.054,4.727-13.0924-1.2557-20.5798-2.0813-20.5798-2.0813l-20.3481-55.6796-25.5689-84.8046s92.8944,39.9253,130.0479-71.4893c120.7049,67.9593,210.7374,19.7541,244.5544-74.8087,65.8594,109.4845,164.8215,112.308,215.0758,69.4781C1696.71,452.144,1718.6161,440.546,1718.6161,440.546Z"></path><path fill="#e6e8e8" d="M1820.9254,465.9642c-6.5796,40.2309-46.1158,67.9355-91.8469,66.8959,4.1959,4.9961,6.2618,10.348,5.4111,15.5494-2.5521,15.6048-29.705,24.0778-60.6394,18.9416a102.39453,102.39453,0,0,1-10.5607-2.2961c.5418-1.0371,1.0442-2.0805,1.5466-3.1242,30.48-63.2686,53.78-121.3848,53.78-121.3848l-.0469.0337c-1.175.598-22.4382,10.8005-41.8576-14.5881-50.2543,42.8299-149.2164,40.0064-215.0758-69.4781-33.817,94.5628-123.8495,142.768-244.5544,74.8087-37.1535,111.4146-130.0479,71.4893-130.0479,71.4893l25.5689,84.8046,9.4145,25.7727a88.14171,88.14171,0,0,1-57.451,9.5785c-30.8138-5.1162-55.1553-24.9773-65.8255-50.1656-42.8828-12.8802-71.03-52.2815-64.3508-93.1221,3.3895-20.7249,15.1446-38.1408,31.6869-50.1286a137.14233,137.14233,0,0,1-7.1367-70.3492c11.0257-67.4171,70.9391-116.115,143.816-123.7583a144.20885,144.20885,0,0,1,1.8657-23.566c13.4648-82.3309,95.5621-137.238,183.4042-122.6533,42.7518,7.0982,78.9582,29.3887,103.2996,59.8936,29.0977-47.7201,90.2932-75.1262,155.1455-64.3585,79.4937,13.1986,135.4888,78.8873,128.9163,148.9637a156.90318,156.90318,0,0,1,44.7696-13.8546c68.5913-10.5669,130.7663,24.4249,138.8944,78.0755,6.0199,39.9434-19.5864,78.9769-61.331,100.6801C1815.6552,416.8788,1824.9727,441.2163,1820.9254,465.9642Z"></path><ellipse cx="1254.773" cy="184.961" fill="#fff" opacity=".5" rx="119.387" ry="69.833" transform="rotate(-4.347 1254.773 184.96)"></ellipse><ellipse cx="1532.553" cy="188.165" fill="#fff" opacity=".5" rx="75.821" ry="119.43" transform="rotate(-76.519 1532.553 188.165)"></ellipse><ellipse cx="1743.07" cy="315.047" fill="#fff" opacity=".5" rx="93.81" ry="59.558" transform="rotate(-13.209 1743.07 315.047)"></ellipse><path d="M1718.6161,440.546l-.0469.0337c-1.175.598-22.4382,10.8005-41.8576-14.5881-50.2543,42.8299-149.2164,40.0064-215.0758-69.4781-33.817,94.5628-123.8495,142.768-244.5544,74.8087-37.1535,111.4146-130.0479,71.4893-130.0479,71.4893l25.5689,84.8046,9.4145,25.7727a88.14171,88.14171,0,0,1-57.451,9.5785c-30.8138-5.1162-55.1553-24.9773-65.8255-50.1656-42.8828-12.8802-71.03-52.2815-64.3508-93.1221,3.3895-20.7249,15.1446-38.1408,31.6869-50.1286a137.14233,137.14233,0,0,1-7.1367-70.3492c11.0257-67.4171,70.9391-116.115,143.816-123.7583,0,0-50.976,155.911,111.7676,156.8022,61.7817,58.4264,170.1182,64.977,250.4898-59.6731,34.6194,95.5739,158.9435,128.4876,217.0746,67.8898C1690.779,438.7624,1718.6161,440.546,1718.6161,440.546Z" style="mix-blend-mode:soft-light" opacity=".6"></path><path d="M1664.8361,561.9308c-82.9019,56.2765-340.3309,76.5628-511.3058,83.4462-13.0924-1.2557-20.5798-2.0813-20.5798-2.0813l-20.3481-55.6796-25.5689-84.8046s92.8944,39.9253,130.0479-71.4893c120.7049,67.9593,210.7374,19.7541,244.5544-74.8087,0,0-2.1751,148.8199-171.2045,131.6496C1306.1194,531.0476,1517.9051,506.1463,1664.8361,561.9308Z" style="mix-blend-mode:soft-light" opacity=".6"></path><path fill="#e6e8e8" d="M1664.8361,561.9308c-12.8876,26.6196-27.01,54.2028-41.2518,78.7192-71.3992,47.751-490.6338,2.6457-490.6338,2.6457l-20.3481-55.6796C1146.4799,566.9026,1343.4387,496.1295,1664.8361,561.9308Z"></path><path d="M1623.5843,640.65c-71.3992,47.751-490.6338,2.6457-490.6338,2.6457l-20.3481-55.6796c33.8775-20.7135,230.8363-91.4866,552.2337-25.6853,0,0-124.2974-18.3836-249.2112-9.6961C1290.7178,560.8812,1544.0399,595.5948,1623.5843,640.65Z" style="mix-blend-mode:soft-light" opacity=".6"></path><path fill="#b7765a" d="M1150.7438,839.9851c-.0355-.0169-.0355-.0169-.0883.0019-1.1581.5015-2.4216,1.0407-3.7396,1.5102-71.1796,26.8378-81.9929-66.6544-57.047-89.8576,6.0827-5.5232,11.9733-8.3342,17.3894-9.2237,17.4804-3.0477,30.8679,11.9379,30.8679,11.9379a155.95287,155.95287,0,0,1,16.3583,14.8186l.0902.0867c11.2859,11.7534,23.8304,28.792,21.6015,44.4682-.017.0358.0019.0884-.0151.1242C1174.6958,823.5819,1167.5031,832.8277,1150.7438,839.9851Z"></path><path d="M1150.7438,839.9851c-.0355-.0169-.0355-.0169-.0883.0019-38.1407,11.5946-58.3267-32.9025-55.0596-54.0874,3.2483-21.2377,22.121-10.7013,22.121-10.7013a75.363,75.363,0,0,0-10.4586-32.7824c17.4804-3.0477,30.8679,11.9379,30.8679,11.9379a155.95287,155.95287,0,0,1,16.3583,14.8186l.0902.0867c15.3503,20.0789,21.2507,34.2261,21.6015,44.4682-.017.0358.0019.0884-.0151.1242C1174.6958,823.5819,1167.5031,832.8277,1150.7438,839.9851Z" style="mix-blend-mode:soft-light" opacity=".3"></path><path fill="#995942" d="M1145.6208,824.4839c-3.7721-5.8614-7.0303-11.6605-10.304-17.3499-3.3256-5.6472-6.5344-11.2321-10.1898-16.2971-3.5722-5.0664-7.5508-9.7342-12.2978-12.7217-4.7197-3.0303-10.7895-3.5126-17.677-1.7985a19.05095,19.05095,0,0,1,20.7482-5.0682c7.5599,2.6298,12.8521,8.3374,17.0877,14.019a71.76316,71.76316,0,0,1,9.1825,18.8381A64.84965,64.84965,0,0,1,1145.6208,824.4839Z"></path><path fill="#b7765a" d="M1607.3966,839.9851c.0355-.0169.0355-.0169.0883.0019,1.1582.5015,2.4216,1.0407,3.7397,1.5102,71.1795,26.8378,81.9928-66.6544,57.0469-89.8576-6.0827-5.5232-11.9733-8.3342-17.3893-9.2237-17.4804-3.0477-30.868,11.9379-30.868,11.9379a155.96463,155.96463,0,0,0-16.3583,14.8186l-.0901.0867c-11.286,11.7534-23.8305,28.792-21.6016,44.4682.017.0358-.0019.0884.0151.1242C1583.4447,823.5819,1590.6374,832.8277,1607.3966,839.9851Z"></path><path d="M1607.3966,839.9851c.0355-.0169.0355-.0169.0883.0019,38.1407,11.5946,58.3267-32.9025,55.0596-54.0874-3.2483-21.2377-22.121-10.7013-22.121-10.7013a75.363,75.363,0,0,1,10.4587-32.7824c-17.4804-3.0477-30.868,11.9379-30.868,11.9379a155.96463,155.96463,0,0,0-16.3583,14.8186l-.0901.0867c-15.3504,20.0789-21.2508,34.2261-21.6016,44.4682.017.0358-.0019.0884.0151.1242C1583.4447,823.5819,1590.6374,832.8277,1607.3966,839.9851Z" style="mix-blend-mode:soft-light" opacity=".3"></path><path fill="#995942" d="M1612.5193,824.4839a64.92409,64.92409,0,0,1,3.4503-20.3783,71.80333,71.80333,0,0,1,9.1824-18.8381c4.2356-5.6816,9.5278-11.3892,17.0877-14.019a19.05082,19.05082,0,0,1,20.7482,5.0682c-6.8875-1.7141-12.9572-1.2318-17.677,1.7985-4.747,2.9875-8.7242,7.6553-12.2978,12.7217-3.6553,5.065-6.8628,10.6499-10.1885,16.2971C1619.5496,812.8234,1616.2915,818.6225,1612.5193,824.4839Z"></path><path fill="#b7765a" d="M1628.2555,633.172l-1.0767,6.2009-1.7082,9.8028-18.6401,107.4588-7.3148,42.1443a64.3495,64.3495,0,0,0-.817,7.5006,60.21649,60.21649,0,0,0,2.488,20.5339c7.352,24.5439,15.2982,81.1696-51.7243,116.5931a.13669.13669,0,0,0-.1115.0371c-4.53,2.3765-9.4314,4.6787-14.667,6.8693-34.1612,14.2586-83.8802,23.6159-155.6184,23.6159-119.7494,0-178.1945-26.178-205.3008-57.2941-28.517-32.676-22.5017-70.8471-16.7833-89.8213a61.76976,61.76976,0,0,0,1.671-28.0345l-28.777-165.6068s105.3792-46.4889,249.1901-46.4889C1522.876,586.6831,1628.2555,633.172,1628.2555,633.172Z"></path><path fill="#333" d="M1538.8054,809.4727c-.2228,13.8131-3.1189,36.8347-148.452,36.8347h-.26c-145.036-.0372-147.9321-23.0216-148.1549-36.8347-.2599-13.7757,8.9486-26.6233,8.9486-26.6233s-8.2431,22.7617,0,33.4184c8.2434,10.6568,40.9191-6.2009,64.1635-22.1305,16.0037-10.9536,33.1585-18.6027,50.9073-22.2789a28.66341,28.66341,0,0,0,44.4095-.8168,120.75111,120.75111,0,0,1,16.0037,3.8244,145.81973,145.81973,0,0,1,39.3222,19.2713c23.2444,15.9296,55.9204,32.7873,64.1635,22.1305s0-33.4184,0-33.4184S1539.0654,795.697,1538.8054,809.4727Z"></path><path d="M1390.0934,846.3074c-145.036-.0372-147.9321-23.0216-148.1549-36.8347-.2599-13.7757,8.9486-26.6233,8.9486-26.6233s-8.2431,22.7617,0,33.4184c8.2434,10.6568,40.9191-6.2009,64.1635-22.1305,16.0037-10.9536,33.1585-18.6027,50.9073-22.2789a28.66341,28.66341,0,0,0,44.4095-.8168,120.75111,120.75111,0,0,1,16.0037,3.8244c-8.3175,7.7978-26.4377,19.9397-59.2621,21.425C1328.0467,798.0363,1327.6011,834.4624,1390.0934,846.3074Z" style="mix-blend-mode:soft-light" opacity=".3"></path><path fill="#fff" d="M1601.1867 826.8133c7.352 24.5439 15.2982 81.1696-51.7243 116.5931a.13669.13669 0 00-.1115.0371c-4.53 2.3765-9.4314 4.6787-14.667 6.8693-12.2906-10.9167-20.0881-25.4351-20.0881-44.7064 0-60.4501 50.4245-87.8163 84.1029-99.327A60.21649 60.21649 0 001601.1867 826.8133zM1625.4706 649.1757l-18.6401 107.4588c-63.5321 11.7335-117.1501-36.6489-106.9761-86.4053C1510.9939 615.7201 1601.855 641.4894 1625.4706 649.1757zM1415.8999 755.3719a17.48984 17.48984 0 01-1.0026 6.758.289.289 0 00-.0369.1115s-.0372.1113-.1115.3712c-.1485.3343-.3343.9283-.6312 1.7082-.1115.334-.26.7055-.4086 1.1139a28.43362 28.43362 0 01-52.9126-3.1933.289.289 0 00-.0369-.1115 17.48984 17.48984 0 01-1.0026-6.758c.3343-6.6093 5.0498-15.7437 28.0715-15.7437S1415.5656 748.7626 1415.8999 755.3719z" opacity=".11"></path><path d="M1628.2555,633.172l-1.0767,6.2009c-59.7077-13.7757-353.6043-74.9316-403.1749,41.773-55.2147,130.0349,31.8959,319.5917,325.347,262.2976-102.4831,35.2007-271.5805,43.8524-375.5862-26.8089-28.517-32.676-22.5017-70.8471-16.7833-89.8213a61.76976,61.76976,0,0,0,1.671-28.0345l-28.777-165.6068s105.3792-46.4889,249.1901-46.4889C1522.876,586.6831,1628.2555,633.172,1628.2555,633.172Z" style="mix-blend-mode:soft-light" opacity=".3"></path><ellipse cx="1287.461" cy="734.09" rx="30.229" ry="45.251" transform="rotate(-2.115 1287.459 734.089)" style="mix-blend-mode:soft-light" opacity=".3"></ellipse><ellipse cx="1289.219" cy="748.522" fill="#333" rx="23.738" ry="19.04" transform="rotate(-89.125 1289.219 748.522)"></ellipse><path fill="#fff" d="M1300.2096 741.1471c-.0761 4.984-3.4916 8.9731-7.6288 8.9099s-7.4293-4.1547-7.3532-9.1387 3.4917-8.9732 7.6289-8.91S1300.2857 736.1631 1300.2096 741.1471zM1287.1524 754.3019a4.32725 4.32725 0 11-4.2607-4.3929A4.32723 4.32723 0 011287.1524 754.3019z"></path><ellipse cx="1470.116" cy="729.803" rx="27.281" ry="40.838" transform="rotate(-2.255 1469.934 729.717)" style="mix-blend-mode:soft-light" opacity=".3"></ellipse><ellipse cx="1471.734" cy="742.824" fill="#333" rx="21.423" ry="17.183" transform="rotate(-89.265 1471.734 742.824)"></ellipse><path fill="#fff" d="M1481.6365 736.144c-.0577 4.4982-3.1314 8.1059-6.8653 8.0579s-6.714-3.7332-6.6563-8.2314 3.1315-8.1058 6.8654-8.0579S1481.6943 731.6458 1481.6365 736.144zM1469.8815 748.0448a3.90532 3.90532 0 11-3.8549-3.9551A3.90535 3.90535 0 011469.8815 748.0448z"></path><path fill="#333" d="M1326.5977,674.1829c-6.1854,1.4271-14.8115,4.26-23.9502,7.4756-5.218,1.91-10.5924,3.8954-15.7731,5.9228-3.8845,1.4622-7.6127,2.9267-11.0669,4.2783-7.6529,3.004-13.974,5.6384-17.4679,7.0675-1.8449.7521-2.8661,1.2046-2.8661,1.2046-11.6275-4.9759-19.2297-23.1934-19.2297-23.1934,1.4866-2.8251,3.0494-5.5321,4.6105-8.1222a124.22447,124.22447,0,0,1,12.7935-17.7108,92.58754,92.58754,0,0,1,11.4464-11.2946,71.912,71.912,0,0,1,12.6524-8.5063,49.498,49.498,0,0,1,23.4637-6.2736C1321.5741,625.0687,1334.0251,655.2977,1326.5977,674.1829Z"></path><path d="M1275.8075 691.8596c-7.6529 3.004-13.974 5.6384-17.4679 7.0675a116.414 116.414 0 01-17.4853-30.111 124.22447 124.22447 0 0112.7935-17.7108C1256.3412 661.2115 1262.5934 678.3941 1275.8075 691.8596zM1302.6475 681.6585c-5.218 1.91-10.5924 3.8954-15.7731 5.9228-7.4588-9.7106-18.0851-26.609-21.7802-47.7706a71.912 71.912 0 0112.6524-8.5063C1279.8694 643.0403 1285.9691 665.097 1302.6475 681.6585z" style="mix-blend-mode:soft-light" opacity=".3"></path><path fill="#333" d="M1519.7943,674.5483c-3.5204,5.606-8.7689,13.5554-11.8614,16.5072-2.4543,2.3327-19.3362-.8273-36.733-5.1079-2.6015-.6686-5.2035-1.3372-7.7572-2.0051-3.228-.8231-6.3596-1.6932-9.3455-2.5129-5.9239-1.6865-11.2695-3.2679-15.4086-4.637-3.4655-1.1173-6.1116-2.0768-7.5524-2.7276-9.3188-4.3022,8.952-31.8855,18.6876-42.2334,3.6876-3.9103,9.5165-5.5141,15.9049-5.7068a56.51608,56.51608,0,0,1,18.2457,2.552,50.08488,50.08488,0,0,1,8.942,3.5711c.5273.3467,1.0542.6449,1.5338.9425a49.83924,49.83924,0,0,1,5.4035,4.0974c6.9726,5.8628,15.3952,14.9885,20.0639,22.8476A13.80078,13.80078,0,0,1,1519.7943,674.5483Z"></path><path d="M1483.9744 628.6768c-17.1393 16.8621-26.3142 41.1497-29.8772 52.7528-5.9239-1.6865-11.2695-3.2679-15.4086-4.637a135.25625 135.25625 0 0127.0401-50.6678A56.51608 56.51608 0 011483.9744 628.6768zM1499.8537 637.2878c-15.0998 16.361-24.471 37.6466-28.6538 48.6598-2.6015-.6686-5.2035-1.3372-7.7572-2.0051 11.0778-28.5637 23.4682-44.8692 29.4737-51.6946.5273.3467 1.0542.6449 1.5338.9425A49.83924 49.83924 0 011499.8537 637.2878z" style="mix-blend-mode:soft-light" opacity=".3"></path><path fill="#995942" d="M1415.937 754.8896l.0882.5134.0039-.0305a19.31208 19.31208 0 01.5128 7.2393l-.1104.2823a1.26659 1.26659 0 00.1649-.6497l-.0896.5465a6.35821 6.35821 0 01-.1869 1.1611l-.3141 1.3747.1415-.3291a26.70831 26.70831 0 01-10.6234 16.0726 30.393 30.393 0 01-18.9802 5.6907 33.5844 33.5844 0 01-9.8666-2.0379 31.99062 31.99062 0 01-8.5633-5.1988 26.53417 26.53417 0 01-8.9917-16.7936l-.0649-.664-.0052.1778a1.28073 1.28073 0 00.1649.6536l-.1104-.2843a19.243 19.243 0 01.5206-7.2412l.0039.0305.0882-.5134.1636.4505.0039.0324a32.025 32.025 0 002.526 6.2722l-.1103-.2816a2.29765 2.29765 0 01.2388.8742l-.0701-.4835a29.20849 29.20849 0 0010.5675 11.2607 27.43473 27.43473 0 0013.8607 4.1538 27.894 27.894 0 0014.0996-3.1985 29.05165 29.05165 0 0011.0893-10.3254l.1415-.331.4517-.6951a4.38115 4.38115 0 00.5322-.9249l-.0882.5439a2.25233 2.25233 0 01.2375-.8703l-.1103.2803a31.88918 31.88918 0 002.5182-6.2748l.0039-.0324zM1358.1641 864.2111c5.6843.8703 11.0414 1.8679 16.3699 2.539a127.89792 127.89792 0 0015.8376 1.0138 129.68974 129.68974 0 0015.8351-1.0248c5.3259-.6731 10.683-1.6661 16.3724-2.528-8.8865 7.2704-20.5509 10.9115-32.2075 10.977C1378.7151 875.1057 1367.0572 871.4672 1358.1641 864.2111z"></path><path fill="#333" d="M1158.6524 798.7788a136.88979 136.88979 0 01-25.1382-37.4285c-22.3533-48.3083-19.6427-106.6421-3.6388-128.1783 2.0793-1.2255 4.3072-2.4506 6.6465-3.5648 18.6401-9.097 43.8895-14.8526 43.8895-14.8526S1152.8596 734.8011 1158.6524 798.7788zM1623.5769 763.5781a136.60782 136.60782 0 01-24.0984 35.2007c5.7926-63.9777-21.759-184.0242-21.759-184.0242s23.5041 5.347 41.9215 13.9243a89.05672 89.05672 0 018.6145 4.4931C1644.482 655.0425 1647.0441 714.8243 1623.5769 763.5781z"></path><path d="M1599.4785 798.7788c5.7926-63.9777-21.759-184.0242-21.759-184.0242s23.5041 5.347 41.9215 13.9243c-9.6913 26.1408-25.361 84.5859 3.9359 134.8992A136.60782 136.60782 0 011599.4785 798.7788zM1158.6524 798.7788a136.88979 136.88979 0 01-25.1382-37.4285c27.2545-49.2365 12.5877-105.5651 3.0077-131.7431 18.6401-9.097 43.8895-14.8526 43.8895-14.8526S1152.8596 734.8011 1158.6524 798.7788z" style="mix-blend-mode:soft-light" opacity=".3"></path><path fill="#333" d="M1348.0202,1102.5598c7.7793-4.0552,15.2934-9.2665,23.1691-13.4938L1212.0391,946.6573l-8.2068,9.5939-.1928-.1152-10.5571,11.9055,136.3846,144.2608C1335.6844,1109.0669,1341.8589,1105.7713,1348.0202,1102.5598Z"></path><path d="M1348.0202,1102.5598c1.1542-.602,2.3019-1.2351,3.4466-1.8804-4.8759-3.5416-9.9212-7.2294-15.3234-11.231-64.8457-48.0078-109.6171-119.519-124.1043-142.7911l-8.2068,9.5939-.1928-.1152-10.5571,11.9055,136.3846,144.2608C1335.6844,1109.0669,1341.8589,1105.7713,1348.0202,1102.5598Z" style="mix-blend-mode:soft-light" opacity=".3"></path><path fill="#97a0a0" d="M1204.4104,960.2585a33.57563,33.57563,0,0,0-.8095,18.7643l-8.5534,9.3625-13.9087-12.7921-2.505,2.774-12.8302,13.9867c-102.7973-94.2433-129.7294-156.5463-136.3179-187.4081-2.504-11.7903-2.0421-18.9568-1.695-21.6151.0771-.7709.1542-1.1561.1542-1.1561l184.0942,164.4828A40.09819,40.09819,0,0,0,1204.4104,960.2585Z"></path><path d="M1204.4104,960.2585a33.57563,33.57563,0,0,0-.8095,18.7643l-8.5534,9.3625-13.9087-12.7921-2.505,2.774c-53.363-47.6992-106.1103-97.0559-149.1481-173.4214-2.504-11.7903-2.0421-18.9568-1.695-21.6151.0771-.7709.1542-1.1561.1542-1.1561l184.0942,164.4828A40.09819,40.09819,0,0,0,1204.4104,960.2585Z" style="mix-blend-mode:soft-light" opacity=".3"></path><path fill="#b7765a" d="M1401.6823,1096.6891c0,.6933,0,1.348-.0385,2.0032,0,.6552,0,1.2713-.0386,1.8879,0,1.2327-.0386,2.3503-.0771,3.3906-38.6068,18.533-84.2648,35.8713-126.9169,40.8033h-.0766c-18.7644-.6167-34.6-13.3702-37.4126-23.8116-2.8126-10.4418-3.5064-33.4053-3.5064-33.4053s-30.3994-9.3239-25.1213-30.4381c5.3175-21.1527,49.7418-21.5769,88.6952-23.3491,4.5082-30.4,22.3474-43.4616,29.1287-42.4598,4.6619.6933,32.0569,24.6591,51.3984,44.3091v.0386c8.8615,9.0162,16.0284,17.184,18.4558,21.7307C1400.9115,1066.2502,1401.759,1084.1285,1401.6823,1096.6891Z"></path><path d="M1401.6823,1096.6891c0,.6933,0,1.348-.0385,2.0032,0,.6552,0,1.2713-.0386,1.8879,0,1.2327-.0386,2.3503-.0771,3.3906-38.6068,18.533-84.2648,35.8713-126.9169,40.8033h-.0766c-18.7644-.6167-34.6-13.3702-37.4126-23.8116-2.8126-10.4418-3.5064-33.4053-3.5064-33.4053s-30.3994-9.3239-25.1213-30.4381c5.3175-21.1527,49.7418-21.5769,88.6952-23.3491,4.5082-30.4,22.3474-43.4616,29.1287-42.4598,4.6619.6933,32.0569,24.6591,51.3984,44.3091v.0386c-29.0125-5.8952-75.7494,14.2172-58.1797,49.6262C1334.3322,1115.106,1374.7502,1106.5525,1401.6823,1096.6891Z" style="mix-blend-mode:soft-light" opacity=".3"></path><path fill="#7c7c7c" d="M1387.0966,1294.192a278.43676,278.43676,0,0,0,39.2119,22.1891,200.19486,200.19486,0,0,0,42.2298,14.6473c14.4461,3.0342,29.5802,4.2973,43.7707,1.7946,14.0878-3.3036,26.7556-11.6936,38.3252-20.8157,23.3015-18.5331,42.7776-41.7145,61.2322-65.3224q13.81065-17.7984,26.4675-36.5086c8.6126-12.3459,16.719-25.0357,24.5411-37.9307-13.5621,26.9699-29.7697,52.5722-47.4519,77.1068a434.88715,434.88715,0,0,1-28.4496,35.4099,281.58424,281.58424,0,0,1-32.7475,31.7642c-12.0746,9.261-25.2863,17.9418-40.7955,21.4251-15.5755,2.4891-31.0587,1.1748-45.8969-2.6136C1437.8794,1327.7313,1410.772,1312.8134,1387.0966,1294.192Z"></path><path d="M1655.1022,1025.6853s5.1089,24.7284-10.7835,42.915c.8807,37.4094-3.8308,69.0707-28.7076,87.5398s-69.5418,10.7422-69.5418,10.7422l-16.4588-46.6753Z" style="mix-blend-mode:soft-light" opacity=".6"></path><path fill="#b7765a" d="M1638.2153,1059.8546c16.2209,12.7916,5.8566,53.8643-3.7758,68.9677-9.5938,15.0656-34.1372,20.3437-60.4142,18.4558-14.4872-1.0404-27.0093-2.0422-35.2933-2.6969a452.91211,452.91211,0,0,0-40.6103-87.6935s14.7952-53.5948,23.0792-62.264,38.2601-10.9423,45.7732-6.396c7.5516,4.5081,15.4504,22.0393,19.0334,26.3931,40.7261-4.739,55.9837-6.7812,65.7703,5.4324C1661.6031,1032.3058,1656.3241,1048.3343,1638.2153,1059.8546Z"></path><path d="M1656.0165,1038.509c-1.9265,7.5517-8.0145,15.1038-17.8012,21.3456,0,0-65.3846.3081-72.1659,37.7207-4.6234,25.6218,18.3787,44.7709,45.2723,46.5821-10.7885,3.1593-23.811,4.0839-37.2964,3.1207-14.4872-1.0404-27.0093-2.0422-35.2933-2.6969a452.91211,452.91211,0,0,0-40.6103-87.6935s14.7952-53.5948,23.0792-62.264c4.3924-4.5467,14.7952-7.3593,24.7362-8.2839-7.706,9.0548-15.4505,20.6137-18.3402,32.8658-6.5113,27.626,58.4106-4.5848,58.4106-4.5848s-13.0997,18.8792-5.2395,30.2071C1587.7416,1054.7684,1635.0942,1053.3433,1656.0165,1038.509Z" style="mix-blend-mode:soft-light" opacity=".3"></path><path fill="#841818" d="M1127.0814,1127.5128c19.9568,42.6894,41.3576,84.8569,66.9589,124.2641a336.597,336.597,0,0,0,20.5126,28.4925c3.5376,4.6633,7.5681,8.8411,11.4921,13.1136a88.001,88.001,0,0,0,12.8485,11.3827c9.1137,6.5364,20.3394,9.6206,31.6747,10.8733,11.3876,1.2643,23.0055.5964,34.4849-.8269,23.0043-3.0154,45.5088-9.825,67.2124-18.3754a456.94282,456.94282,0,0,0,62.7943-31.1372,644.89688,644.89688,0,0,0,111.8212-84.7401l-1.079,3.4977a389.77309,389.77309,0,0,0-21.5575-67.8653c-4.6062-10.9738-9.5849-21.8022-15.0157-32.3996-5.4334-10.561-11.1523-21.1221-17.4161-31.0587l4.3972.8379c-16.9001,11.197-34.2101,21.4121-51.8897,31.1028-17.6702,9.6492-35.722,18.6746-54.1227,26.8271a512.1518,512.1518,0,0,1-56.5701,21.1266,307.84177,307.84177,0,0,1-59.0008,12.2627l-.0159.0013-.076-.0019.013-.0007-5.7543.4628,5.7264-.6938.0149-.0007.076-.0013-.0133.0007c39.8066-5.7595,77.7467-19.8805,113.9182-36.8552,18.1634-8.4498,35.8901-17.7251,53.2835-27.6403,17.3524-9.925,34.4635-20.4613,50.8359-31.7467l2.6549-1.8303,1.7436,2.6682a352.2882,352.2882,0,0,1,18.2391,31.4287c5.5758,10.72,10.6937,21.6744,15.4395,32.791a397.02969,397.02969,0,0,1,22.372,68.9991l.4501,2.0431-1.5294,1.4571c-34.3113,32.6793-71.9652,62.0921-113.0823,85.9206a464.329,464.329,0,0,1-64.0126,31.2561c-22.1757,8.5776-45.1981,15.4183-69.0153,18.3987a145.68954,145.68954,0,0,1-36.064.3089c-11.9519-1.5375-24.1972-5.0754-34.2335-12.5438a93.28559,93.28559,0,0,1-13.371-12.2647c-3.9747-4.4796-8.0496-8.8775-11.5622-13.6829a340.9853,340.9853,0,0,1-20.2666-29.2564c-12.6444-20.0316-23.6199-40.9921-34.1059-62.1349C1145.8498,1170.8025,1136.0209,1149.3391,1127.0814,1127.5128Z"></path><path fill="#e6e8e8" d="M1297.9547,1376.0772a25.533,25.533,0,0,1-.728,3.6423,27.4213,27.4213,0,1,1-30.1432-34.3831,27.78719,27.78719,0,0,1,7.2219.0107A27.41844,27.41844,0,0,1,1297.9547,1376.0772Z"></path><path d="M1294.0704,1385.1039a26.35258,26.35258,0,1,1-34.144-37.5078,25.89187,25.89187,0,0,0-3.7973,10.5277,26.36879,26.36879,0,0,0,22.7055,29.5828A26.0672,26.0672,0,0,0,1294.0704,1385.1039Z" style="mix-blend-mode:soft-light" opacity=".6"></path><path fill="#fff" d="M1297.9547,1376.0772a25.533,25.533,0,0,1-.728,3.6423,26.595,26.595,0,0,1-7.2618.0198,27.41845,27.41845,0,0,1-23.6094-30.7609,25.59281,25.59281,0,0,1,.728-3.642,27.78719,27.78719,0,0,1,7.2219.0107A27.41844,27.41844,0,0,1,1297.9547,1376.0772Z" opacity=".22"></path></g></svg>