<svg xmlns="http://www.w3.org/2000/svg" viewBox="0 0 2800 1900" id="chef-welcoming-guest-in-restaurant"><g data-name="Layer 1"><ellipse cx="1242.402" cy="1753.801" fill="#d1bfb2" rx="452.192" ry="63.771"></ellipse><path fill="#b7765a" d="M1772.4008,1015.6639l10.2699-12.3229a167.16169,167.16169,0,0,0-3.0549-20.349c-2.4504-11.7075-6.9428-17.1528,7.7596-28.0435s26.0015-20.2838,34.4417-45.0601,13.3411-27.9073,22.8704-19.467,29.1325,33.4888,23.551,55.2701-29.8295,31.4467-29.8295,31.4467,27.5153-3.9478,53.9251-1.2252c43.0181-40.0231,86.5807-56.6314,90.1202-31.0383,34.8501-3.8118,40.5677,11.9797,37.845,26.4098,18.7864,8.168,8.168,22.0536-.5445,26.9544s-56.6314,48.1911-76.5069,62.349-78.1404,29.1325-121.4308,28.0434S1772.4008,1015.6639,1772.4008,1015.6639Z"></path><path d="M1959.8526,1012.6439c8.9755-16.2822,49.6378-33.5234,64.3328-39.3682a33.45953,33.45953,0,0,0-3.8825-2.0043,27.90609,27.90609,0,0,0,0-11.3134c-36.0699,24.5476-94.5164,42.6658-85.5824,25.6748,6.8049-12.858,33.1057-31.1852,47.8427-40.7456h-.1253a17.02238,17.02238,0,0,0-1.5029-5.2184c-3.9243,1.1273-10.3533,3.0062-20.8737,6.179-23.8795,7.1387-65.5437,54.3131-87.5862,57.7779-22.0846,3.4654-24.9234-27.5109-24.9234-27.5109-5.1349.5004-8.4746.9601-9.0592,1.0019a58.3164,58.3164,0,0,0,12.3574-7.264c-10.9796-.8771-24.2138-6.7636-24.3389-30.1421a85.54214,85.54214,0,0,1,16.1981-50.9323c-8.2662-6.2621-13.0252-1.9202-20.8738,21.1245-8.4748,24.7565-19.7467,34.1497-34.4417,45.0457-14.737,10.8961-10.2282,16.3229-7.7649,28.0542a172.86121,172.86121,0,0,1,3.0474,20.331l-10.2699,12.3159s6.137,71.889,49.4291,72.9745,101.53-13.8604,121.4018-28.0542c9.7688-6.972,26.3009-20.9573,41.6222-33.9412C1964.5701,1030.2612,1953.0477,1024.9174,1959.8526,1012.6439Zm-32.0621,36.1111c-35.5272,13.067-94.1406,34.4835-83.3281-1.0436,10.8542-35.5272,65.3349-30.3088,66.5873-30.2252C1944.1137,1019.7407,1963.3177,1035.6881,1927.7905,1048.755Z" style="mix-blend-mode:soft-light" opacity=".3"></path><path fill="#995942" d="M1835.2942 1042.6181c2.4562-9.3668 8.8166-17.4847 16.4785-23.65 7.8263-6.1373 17.384-9.773 27.0458-11.6557 4.833-1.2392 9.7707-1.2687 14.6845-1.7427 4.9028-.0904 9.8265.0444 14.7122.3659 4.8344.6668 9.7212 1.1242 14.5184 1.9771l14.2542 3.164-2.4383.326c13.7395-7.7657 27.6318-15.2851 41.8396-22.2196q10.6248-5.2572 21.5581-9.909c7.3274-2.9756 14.6633-6.06 22.3522-7.9893-14.4081 6.4372-27.9046 14.5358-41.6262 22.211l-40.8838 23.5703-1.079.6219-1.361-.2959-13.8109-3.0001c-4.6151-.8768-9.2803-1.3592-13.9213-2.0659-4.6526-.3084-9.3252-.6435-13.9807-.7266-4.6282.2709-9.3273.1901-13.8693 1.0936-9.1446 1.2745-18.1893 4.0533-25.9949 9.1096A48.74 48.74 0 001835.2942 1042.6181zM1982.4542 944.8748c-6.4241 3.618-12.6821 7.4033-18.9546 11.1374-6.2318 3.8006-12.4668 7.5717-18.5535 11.5772-12.2975 7.8385-24.135 16.2739-36.276 24.6598a151.53237 151.53237 0 0116.1178-15.1451 193.0577 193.0577 0 0117.8994-13.0229C1955.135 956.1823 1968.3141 949.2183 1982.4542 944.8748z"></path><path fill="#995942" d="M1838.409,977.1382a32.17205,32.17205,0,0,1,10.0945,9.4658,32.68159,32.68159,0,0,1,5.4699,13.0582,28.87673,28.87673,0,0,1-.939,14.1677,32.22444,32.22444,0,0,1-6.8654,12.0301c1.491-4.3731,3.096-8.4832,3.6971-12.7891a34.50138,34.50138,0,0,0-.0014-12.6833C1848.4651,992.0017,1844.0482,984.2838,1838.409,977.1382Z"></path><path fill="#e6e8e8" d="M1838.409,1137.8446c-42.2485,38.1986-174.1287,124.5326-221.8046,145.9491-7.6396,3.4649-13.1503,5.2185-15.7386,4.8424-18.7864-2.7132-79.8212-49.4289-79.8212-49.4289.292,2.4629.626,4.9264.9183,7.4311l.0836.5428c7.5145,60.993,14.3611,133.2577,13.9017,191.3286v2.463c-.0415,3.4653-.1251,6.8471-.1669,10.1866-.2087,5.6358-.4174,11.105-.7514,16.407-17.534,16.2394-38.7833,29.5989-64.3328,39.2005a250.01271,250.01271,0,0,1-41.1214,11.3139c-3.5903.6681-7.2223,1.2939-10.771,1.9202-2.5883.4592-5.1348.9189-7.6814,1.2939-1.8369.3343-3.7574.6269-5.636.9607-3.5903.5427-7.2223,1.1267-10.7707,1.67-3.841.584-7.5981,1.1272-11.3555,1.6277-3.7571.5432-7.5145,1.0436-11.2301,1.5033-3.4233.4587-6.8048.8766-10.1864,1.2521-.5009.0836-1.0436.0836-1.5446.1672-3.4233.3756-6.8464.7935-10.2697,1.1267-3.632.3761-7.2225.7104-10.8127,1.0025-3.5903.3755-7.0972.6681-10.6456.9183-1.5446.1666-3.006.292-4.5088.3338-5.5107.4179-10.9378.7934-16.365,1.1272-6.3039.3343-12.5242.5846-18.7028.8348-3.0895.1254-6.137.1671-9.1427.2507-3.0477.0836-6.0534.1672-9.0176.209-3.2146.0417-6.429.0835-9.6019.0835-4.3001,0-8.433-.0418-12.4824-.0835q-3.88245,0-7.765-.1254c-1.2526-.0418-2.505-.0836-3.7574-.0836-3.5069-.0836-6.8466-.2089-10.0195-.2925-5.7194-.2084-10.9378-.4169-15.5299-.6676-143.9453-7.9739-225.4783-50.7651-225.4783-50.7651l2.5047-17.2417,5.6361-38.9503,2.296-15.8225,31.5611-82.5343c-8.0154-1.4616-12.9416-2.3382-12.9416-2.3382s-117.6444,3.7156-88.5883-152.6291c29.0145-156.386,140.7309-251.4451,140.7309-251.4451s179.4307-70.9708,325.3801-11.397a611.18027,611.18027,0,0,1,62.9135,29.8495c95.8103,52.6018,149.1638,144.9473,150.6248,147.4102,51.5584-21.1657,170.4552-91.6355,170.4552-91.6355s18.7446,22.0428,37.6981,67.3805A472.22433,472.22433,0,0,1,1838.409,1137.8446Z"></path><path fill="#96457f" d="M1195.2795,1149.8239s-4.1002,175.0449,5.5943,271.7626c-23.6311,15.5692-62.4129,9.5969-62.4129,9.5969Z"></path><path fill="#b7765a" d="M1141.944,961.3492s69.9677,86.3721,120.239,100.1469c80.0548-40.58,105.5993-132.1641,105.1127-135.1425s-83.8803-27.5497-92.8153-27.5497S1141.944,961.3492,1141.944,961.3492Z"></path><path fill="#6b6b6b" d="M1524.3976,1730.873c-3.3488,12.1018-37.6378,12.216-79.8047,9.7046-57.2752-3.4637-100.0889,9.5899-108.4614-8.1065-.1143-.2281-.2284-.4562-.3046-.6467-5.6323-13.7769-1.4842-36.9528,1.1038-48.2179.9515-4.0338,2.055-8.068,2.055-8.068l54.6493-22.3012a2.5435,2.5435,0,0,0,.1903.3805c1.1797,2.8923,9.5903,21.6159,28.1239,28.0096a56.58669,56.58669,0,0,0,9.5141,2.1691c20.8171,3.3113,52.6325,1.7509,79.4243,25.1939,1.0276.9133,2.0171,1.8267,3.0066,2.7781C1522.571,1720.1408,1525.6536,1726.344,1524.3976,1730.873Z"></path><path d="M1524.3976,1730.873c-3.3488,12.1018-37.6378,12.216-79.8047,9.7046-57.2752-3.4637-100.0889,9.5899-108.4614-8.1065-.1143-.2281-.2284-.4562-.3046-.6467-5.6323-13.7769-1.4842-36.9528,1.1038-48.2179.9515-4.0338,2.055-8.068,2.055-8.068l54.6493-22.3012a2.5435,2.5435,0,0,0,.1903.3805c1.1797,2.8923,9.5903,21.6159,28.1239,28.0096a56.58669,56.58669,0,0,0,9.5141,2.1691c-7.4589,3.7299-20.2461,8.6008-40.4542,12.1022-36.8769,6.3175-53.051,34.251,28.9232,32.7286C1475.1144,1727.6378,1507.3102,1733.042,1524.3976,1730.873Z" style="mix-blend-mode:soft-light" opacity=".3"></path><path fill="#6b6b6b" d="M1172.1833,1727.7902c-.0759.1905-.1902.419-.3042.6471-8.3726,17.6965-51.1863,4.6428-108.4615,8.1061-57.9604,3.4628-101.0787,1.9028-69.3013-28.8091.9896-.9515,1.9791-1.8648,3.0064-2.7781,31.2827-27.4006,69.4534-20.6645,88.9384-27.3625,18.5336-6.3937,26.9442-25.1178,28.1239-28.0101a2.5296,2.5296,0,0,0,.1903-.38l54.6119,22.2861s1.1412,4.0488,2.0926,8.083C1173.6676,1690.8373,1177.8159,1714.0137,1172.1833,1727.7902Z"></path><path d="M1171.8791,1728.4373c-8.3726,17.6965-51.1863,4.6428-108.4615,8.1061-57.9604,3.4628-101.0787,1.9028-69.3013-28.8091.9896-.9515,1.9791-1.8648,3.0064-2.7781,31.2827-27.4006,69.4534-20.6645,88.9384-27.3625,18.5336-6.3937,26.9442-25.1178,28.1239-28.0101a2.5296,2.5296,0,0,0,.1903-.38l54.6119,22.2861s1.1412,4.0488,2.0926,8.083c-10.8082,4.1861-32.6146,9.3237-76.1133,11.2265-77.864,3.3871-58.0364,43.3085,41.5197,39.3505C1149.9203,1729.5787,1161.6418,1729.0083,1171.8791,1728.4373Z" style="mix-blend-mode:soft-light" opacity=".3"></path><path fill="#333" d="M1218.1033,1515.515c-3.7572,9.3449-8.0291,21.417-12.4713,34.7163-17.257,51.7173-36.8234,121.897-36.8234,121.897s-10.2514,3.8829-33.5477,5.5758a359.02555,359.02555,0,0,1-49.2107-.0934,1386.28492,1386.28492,0,0,1-4.5798-170.6783S1236.477,1469.7591,1218.1033,1515.515Z"></path><path d="M1218.1033,1515.515c-3.7572,9.3449-8.0291,21.417-12.4713,34.7163-28.5126,8.1545-83.9475,35.9307-70.3711,127.4728a359.02555,359.02555,0,0,1-49.2107-.0934,1386.28492,1386.28492,0,0,1-4.5798-170.6783S1236.477,1469.7591,1218.1033,1515.515Z" style="mix-blend-mode:soft-light" opacity=".3"></path><path fill="#333" d="M1421.9492,1681.6655c-13.3579.8376-24.9271,1.0276-34.8217.7995-5.29-.1523-10.0851-.3809-14.3856-.7233-23.2906-1.6747-33.5659-5.5566-33.5659-5.5566s-19.5612-70.1762-36.8008-121.8951c-4.4525-13.3198-8.7149-25.3839-12.4827-34.7076-18.3812-45.7823,136.6235-8.6009,136.6235-8.6009s.3805,8.4485.6469,23.0245A1418.85257,1418.85257,0,0,1,1421.9492,1681.6655Z"></path><path d="M1387.1275,1682.465c-5.29-.1523-10.0851-.3809-14.3856-.7233-23.2906-1.6747-33.5659-5.5566-33.5659-5.5566s-19.5612-70.1762-36.8008-121.8951c-4.4525-13.3198-8.7149-25.3839-12.4827-34.7076-18.3812-45.7823,136.6235-8.6009,136.6235-8.6009s.3805,8.4485.6469,23.0245C1402.8068,1549.8753,1359.7266,1592.0043,1387.1275,1682.465Z" style="mix-blend-mode:soft-light" opacity=".3"></path><path fill="#b23030" d="M1258.1112 1144.7244c-22.7581 1.9028-43.6511 3.6154-62.8316 5.0994-.8374-34.0226-1.2178-55.4486-1.2178-55.4486 115.4258-70.2143 147.9261-155.1187 147.9261-155.1187l63.0599 2.8543s-32.5005 84.9044-147.9261 155.1187C1257.1217 1097.2295 1257.464 1115.3445 1258.1112 1144.7244zM1535.9482 1440.9727c-.0415 3.4653-.1251 6.8471-.1669 10.1866-.2087 5.6358-.4174 11.105-.7514 16.407q-3.44415 3.2565-7.1389 6.2621c-1.7951 1.5024-3.5902 2.964-5.4689 4.3832-1.8369 1.4193-3.7572 2.8391-5.6776 4.2166s-3.8825 2.7137-5.8863 4.0499c-2.0041 1.2939-4.0497 2.5878-6.137 3.8404-4.133 2.5465-8.4331 4.9259-12.8999 7.1805-1.7118.8765-3.4233 1.7117-5.1769 2.5052-1.0019.5005-2.0456.9601-3.0475 1.4188-1.8369.8352-3.7156 1.6705-5.6358 2.4635q-3.5694 1.5027-7.264 2.8803a250.01271 250.01271 0 01-41.1214 11.3139c-3.5903.6681-7.2223 1.2939-10.771 1.9202-2.5883.4592-5.1348.9189-7.6814 1.2939-1.8369.3343-3.7574.6269-5.636.9607-3.5903.5427-7.2223 1.1267-10.7707 1.67-3.841.584-7.5981 1.1272-11.3555 1.6277-3.7571.5432-7.5145 1.0436-11.2301 1.5033-3.4233.4587-6.8048.8766-10.1864 1.2521-.5009.0836-1.0436.0836-1.5446.1672-3.4233.3756-6.8464.7935-10.2697 1.1267-3.632.3761-7.2225.7104-10.8127 1.0025-3.5903.3755-7.0972.6681-10.6456.9183-1.5446.1666-3.006.292-4.5088.3338-5.5107.4179-10.9378.7934-16.365 1.1272-6.3039.3343-12.5242.5846-18.7028.8348-3.0895.1254-6.137.1671-9.1427.2507-3.0477.0836-6.0534.1672-9.0176.209-3.2146.0417-6.429.0835-9.6019.0835-4.3001 0-8.433-.0418-12.4824-.0835q-3.88245 0-7.765-.1254c-1.2526-.0418-2.505-.0836-3.7574-.0836-3.5069-.0836-6.8466-.2089-10.0195-.2925-5.7194-.2084-10.9378-.4169-15.5299-.6676q-1.00215-11.6475-2.0038-24.6729c-1.1273-15.6553-2.2128-32.7299-3.2147-50.6398h-.0417c-2.171-38.1985-4.0494-80.4057-5.6359-122.195 28.7639-10.4787 59.4484-22.0428 59.4484-22.0428s.6261-9.8101 1.8369-24.9231c.6679 21.0409 1.4611 42.7076 2.3379 64.333.7932 20.331 1.6697 40.662 2.5883 60.4508.7514 15.53 1.5447 30.7256 2.3797 45.379C1319.2788 1457.7135 1453.0377 1454.2068 1535.9482 1440.9727z"></path><path fill="#b23030" d="M1280.184,1142.7834c-1.1798,5.0995-2.3214,10.8461-3.4252,17.1255-6.8121,38.5895-11.9877,95.9028-14.5758,128.5174-1.2176,15.2605-1.8647,25.1173-1.8647,25.1173s-79.919,30.1027-102.6768,37.2574l11.3408-199.0363C1200.4933,1149.4814,1237.2941,1146.551,1280.184,1142.7834Z"></path><path fill="#7c7c7c" d="M1080.1432,1061.4962c3.2334,15.8045,4.7209,31.6563,5.8002,47.5456.9007,15.9013,1.3781,31.8214.1081,47.9303-3.2393-15.7163-4.7311-31.6222-5.8002-47.5462C1079.3611,1093.4899,1078.8795,1077.5169,1080.1432,1061.4962Z"></path><path fill="#b23030" d="M1211.796,1533.0927c-143.9681-7.9542-225.4856-50.7679-225.4856-50.7679l8.1442-56.1715c35.3926,8.5628,119.1553,26.7538,212.0518,31.6251h.0378C1208.1047,1485.6357,1209.8932,1511.362,1211.796,1533.0927Z"></path><path d="M1211.796,1533.0927c-143.9681-7.9542-225.4856-50.7679-225.4856-50.7679l2.5118-17.2015,5.6324-38.97c35.3926,8.5628,119.1553,26.7538,212.0518,31.6251h.0378c.9895,17.9246,2.0933,34.9741,3.2731,50.6534Q1210.78765,1521.447,1211.796,1533.0927Z" style="mix-blend-mode:soft-light" opacity=".3"></path><path d="M1535.9482,1438.5097v2.463c-.0415,3.4653-.1251,6.8471-.1669,10.1866-43.1252,18.2437-138.5182,46.8824-325.9646,57.2775h-.0415c-61.3271,2.4212-135.3038-7.9739-220.9698-43.3339l5.6361-38.9503,2.296-15.8225,31.5611-82.5343c-8.0154-1.4616-12.9416-2.3382-12.9416-2.3382s-117.6444,3.7156-88.5883-152.6291c29.0145-156.386,140.7309-251.4451,140.7309-251.4451s179.4307-70.9708,325.3801-11.397a611.18027,611.18027,0,0,1,62.9135,29.8495c-29.9747,41.4973-131.0455,137.7668-419.312,126.6618-60.6174,117.9785-70.5534,221.2618,230.7801,171.5827l106.7902,46.9659s-50.097,44.6697-109.5036,67.9228h-.0418c-17.1166,6.6795-35.0262,11.6059-52.7271,13.1506,18.16,20.7484,36.9046,36.0699,55.3154,47.3002a.04079.04079,0,0,0,.0418.0413C1323.4118,1447.9447,1471.3649,1443.6033,1535.9482,1438.5097Z" style="mix-blend-mode:soft-light" opacity=".6"></path><path fill="#b7765a" d="M1393.3644,1219.9622c-4.9473,5.214-20.8549,7.9539-20.8549,7.9539s4.7189,30.5215,2.9683,50.1206c-1.7126,19.5993-16.5927,21.8445-42.6616,23.1004-22.0729,1.0276-59.6728-9.4761-70.6332-12.7108,2.5881-32.6146,7.7637-89.9279,14.5758-128.5174,22.6056-8.6008,65.077-24.0137,71.9272-21.8445,9.4379,2.9683,15.3748,26.0688,18.6097,40.949,26.5635-4.7192,35.5067-6.9644,35.735,7.9537C1403.2972,1201.8474,1398.3117,1214.7485,1393.3644,1219.9622Z"></path><path d="M1394.9246,1218.0594a13.441,13.441,0,0,1-1.5602,1.9028c-4.9473,5.214-20.8549,7.9539-20.8549,7.9539s4.7189,30.5215,2.9683,50.1206c-1.7126,19.5993-16.5927,21.8445-42.6616,23.1004-22.0729,1.0276-59.6728-9.4761-70.6332-12.7108,2.5881-32.6146,7.7637-89.9279,14.5758-128.5174,17.3919-6.6218,46.5432-17.2398,62.1847-20.8171-14.4996,8.2204-33.8706,20.4745-36.915,28.9994-4.6431,13.0534,36.0395,16.0598,65.0386,9.9327.0762.3424.1524.6469.2286.9895,21.9204-3.8818,31.8534-6.0892,34.7836,1.6364-12.1782,3.2348-37.4476,11.3028-44.7166,24.1659C1349.1426,1219.3915,1374.4882,1220.8377,1394.9246,1218.0594Z" style="mix-blend-mode:soft-light" opacity=".3"></path><path fill="#995942" d="M1367.2957 1179.0136c-5.9204 3.2556-12.1243 4.789-18.3945 5.9183-6.2995.9531-12.6679 1.4879-19.3213.2896 5.9183-3.2675 12.122-4.802 18.3945-5.9188C1354.2761 1178.3627 1360.6442 1177.8268 1367.2957 1179.0136zM1372.5096 1227.9163c-5.3969 3.1327-11.0666 4.5408-16.8 5.5451-5.7615.8267-11.5891 1.2363-17.6912-.0899 5.3949-3.1447 11.0643-4.5534 16.8-5.5451C1360.5819 1227.0122 1366.4092 1226.602 1372.5096 1227.9163z"></path><path fill="#841818" d="M1031.1503,1159.1143c20.7756-1.2205,41.5298-2.4648,62.2633-4.1034q31.116-2.11905,62.1944-4.7536l62.1622-5.1372,62.1324-5.4256,4.1469-.3618-.8441,4.15-3.6248,17.8238c-1.0569,5.9911-2.0523,11.9993-2.9413,18.032-1.8061,12.0597-3.3651,24.1728-4.796,36.3042-2.7475,24.2758-5.4541,48.5834-7.7219,72.9366l.0059-.1525-.0025.1895-.0014.1018-.0049.0547-2.2172,24.8749-.0947,1.0611-.9289.3192c-20.0032,6.8724-39.9369,13.9213-60.0039,20.5883,19.5623-8.0473,39.2582-15.7135,58.8842-23.5566l-1.0224,1.3786,1.5123-24.9768-.0063.1548-.0028-.1895-.0006-.0523.0069-.1024c1.6309-24.4385,3.3858-48.8828,6.1205-73.2484,1.3214-12.1872,2.7723-24.3657,4.4769-36.5273.8381-6.0821,1.7854-12.1569,2.7976-18.2266l3.5221-18.1851,3.302,3.7876c-20.725,1.9037-41.4886,3.3472-62.2357,4.9676-20.7522,1.5749-41.4942,3.2015-62.2814,4.3008q-31.1715,1.71615-62.3654,2.9984C1072.774,1158.7132,1051.9649,1159.3464,1031.1503,1159.1143Z"></path><path d="M1080.6732,1072.2059s63.991,74.0556,199.5107,70.5776c-72.4681,5.457-194.729,7.0404-194.729,7.0404Z" style="mix-blend-mode:soft-light" opacity=".6"></path><path fill="#96457f" d="M1195.2796,1147.3097c-6.584,60.2819-18.3433,295.7787-18.3433,295.7787a.14.14,0,0,1-.1143.0381c-3.5012.4185-86.3884,10.2372-193.4799-31.6251,14.1569-111.2776,33.5279-252.1634,33.5279-252.1634S1126.321,1136.0451,1195.2796,1147.3097Z"></path><path d="M1176.9363,1443.0884a.14.14,0,0,1-.1143.0381c-3.5012.4185-86.3884,10.2372-193.4799-31.6251,14.1569-111.2776,33.5279-252.1634,33.5279-252.1634S1037.4585,1384.0246,1176.9363,1443.0884Z" style="mix-blend-mode:soft-light" opacity=".3"></path><path fill="#7c7c7c" d="M1503.5379,1120.2139c5.5755,19.3913,9.1537,39.1587,12.1632,58.9915,2.8291,19.8606,5.0387,39.8232,5.3237,59.9945-4.7653-19.6001-7.9853-39.3606-10.9687-59.1673C1507.2333,1160.2021,1504.6857,1140.346,1503.5379,1120.2139Z"></path><path d="M1838.409,1137.8446c-42.2485,38.1986-174.1287,124.5326-221.8046,145.9491-7.6396,3.4649-13.1503,5.2185-15.7386,4.8424-18.7864-2.7132-79.8212-49.4289-79.8212-49.4289.292,2.4629.626,4.9264.9183,7.4311l-18.4105-119.8992s86.292,69.5938,109.1695,70.7205c18.4526.9607,151.2514-96.7291,201.8494-134.4685A472.22433,472.22433,0,0,1,1838.409,1137.8446Z" style="mix-blend-mode:soft-light" opacity=".6"></path><path fill="#b23030" d="M1574.0317,449.4678s-23.8804,59.564-55.1198,124.4089c-13.2087,27.2827-27.6829,55.5531-42.2795,80.6802-63.4033,42.3924-394.5002,13.3442-481.7645,4.8448-13.4186-1.2869-21.0925-2.1331-21.0925-2.1331l-20.855-57.0667-26.2059-86.9174s95.2086,40.92,133.2877-73.2703c123.7121,69.6523,215.9876,20.2462,250.6471-76.6724,67.5001,112.2121,168.9277,115.106,220.4339,71.209C1551.5798,461.3548,1574.0317,449.4678,1574.0317,449.4678Z"></path><path fill="#e6e8e8" d="M1678.8898,475.5192c-6.7435,41.2332-47.2647,69.628-94.135,68.5625,4.3004,5.1205,6.4177,10.6058,5.5459,15.9368-2.6157,15.9935-30.4451,24.6776-62.1502,19.4135a104.94754,104.94754,0,0,1-10.8238-2.3533c.5553-1.0629,1.0702-2.1323,1.5852-3.202,31.2394-64.8449,55.1198-124.4089,55.1198-124.4089l-.0481.0346c-1.2042.6129-22.9972,11.0695-42.9004-14.9516-51.5062,43.897-152.9338,41.0031-220.4339-71.209-34.6595,96.9186-126.935,146.3247-250.6471,76.6724-38.0791,114.1903-133.2877,73.2703-133.2877,73.2703l26.2059,86.9174,9.649,26.4147a90.33639,90.33639,0,0,1-58.8822,9.8171c-31.5815-5.2436-56.5295-25.5995-67.4655-51.4153-43.9511-13.2011-72.7996-53.5841-65.9539-95.4421,3.4739-21.2411,15.5219-39.091,32.4763-51.3774a140.55918,140.55918,0,0,1-7.3146-72.1018c11.3004-69.0967,72.7065-119.0078,147.3989-126.8415a147.80629,147.80629,0,0,1,1.9122-24.1531c13.8003-84.382,97.9429-140.6571,187.9734-125.709,43.8168,7.2751,80.9252,30.1208,105.8731,61.3857,29.8226-48.909,92.5426-76.9978,159.0106-65.9619,81.4741,13.5275,138.8643,80.8527,132.128,152.6749a160.80875,160.80875,0,0,1,45.8849-14.1997c70.3002-10.8302,134.0242,25.0333,142.3548,80.0206,6.1698,40.9384-20.0743,80.9444-62.859,103.1883C1673.4884,425.211,1683.038,450.1548,1678.8898,475.5192Z"></path><ellipse cx="1098.633" cy="187.515" fill="#fff" opacity=".5" rx="122.361" ry="71.573" transform="rotate(-4.347 1098.634 187.515)"></ellipse><ellipse cx="1383.333" cy="190.799" fill="#fff" opacity=".5" rx="77.71" ry="122.405" transform="rotate(-76.519 1383.333 190.799)"></ellipse><ellipse cx="1599.095" cy="320.842" fill="#fff" opacity=".5" rx="96.147" ry="61.041" transform="rotate(-13.209 1599.095 320.842)"></ellipse><path d="M1574.0317,449.4678l-.0481.0346c-1.2042.6129-22.9972,11.0695-42.9004-14.9516-51.5062,43.897-152.9338,41.0031-220.4339-71.209-34.6595,96.9186-126.935,146.3247-250.6471,76.6724-38.0791,114.1903-133.2877,73.2703-133.2877,73.2703l26.2059,86.9174,9.649,26.4147a90.33639,90.33639,0,0,1-58.8822,9.8171c-31.5815-5.2436-56.5295-25.5995-67.4655-51.4153-43.9511-13.2011-72.7996-53.5841-65.9539-95.4421,3.4739-21.2411,15.5219-39.091,32.4763-51.3774a140.55918,140.55918,0,0,1-7.3146-72.1018c11.3004-69.0967,72.7065-119.0078,147.3989-126.8415,0,0-52.2459,159.7951,114.5521,160.7085,63.3208,59.8821,174.3564,66.5959,256.7303-61.1597,35.4818,97.9549,162.9032,131.6887,222.4826,69.5812C1545.5011,447.6398,1574.0317,449.4678,1574.0317,449.4678Z" style="mix-blend-mode:soft-light" opacity=".6"></path><path d="M1518.9119,573.8767c-84.9672,57.6784-348.8096,78.4702-524.044,85.525-13.4186-1.2869-21.0925-2.1331-21.0925-2.1331l-20.855-57.0667-26.2059-86.9174s95.2086,40.92,133.2877-73.2703c123.7121,69.6523,215.9876,20.2462,250.6471-76.6724,0,0-2.2293,152.5274-175.4698,134.9293C1151.2585,542.2241,1368.3204,516.7024,1518.9119,573.8767Z" style="mix-blend-mode:soft-light" opacity=".6"></path><path fill="#e6e8e8" d="M1518.9119,573.8767c-13.2087,27.2827-27.6829,55.5531-42.2795,80.6802-73.178,48.9407-502.857,2.7117-502.857,2.7117l-20.855-57.0667C987.6419,578.9723,1189.5075,506.436,1518.9119,573.8767Z"></path><path d="M1476.6324,654.5569c-73.178,48.9407-502.857,2.7117-502.857,2.7117l-20.855-57.0667c34.7215-21.2296,236.5871-93.7659,565.9915-26.3252,0,0-127.394-18.8416-255.4198-9.9377C1135.4731,572.8009,1395.1063,608.3793,1476.6324,654.5569Z" style="mix-blend-mode:soft-light" opacity=".6"></path><path fill="#b7765a" d="M992.012,858.8581c-.0364-.0173-.0364-.0173-.0905.002-1.187.514-2.4819,1.0666-3.8328,1.5478-72.9529,27.5065-84.0355-68.315-58.4682-92.0962,6.2343-5.6609,12.2716-8.5419,17.8226-9.4536,17.9159-3.1236,31.637,12.2354,31.637,12.2354a159.85684,159.85684,0,0,1,16.7658,15.1878l.0924.0888c11.5671,12.0463,24.4241,29.5093,22.1397,45.5761-.0174.0367.0019.0906-.0155.1272C1016.5606,842.0463,1009.1888,851.5224,992.012,858.8581Z"></path><path d="M992.012,858.8581c-.0364-.0173-.0364-.0173-.0905.002-39.0909,11.8834-59.7798-33.7222-56.4313-55.4349,3.3292-21.7668,22.6721-10.9679,22.6721-10.9679a77.24045,77.24045,0,0,0-10.7192-33.5992c17.9159-3.1236,31.637,12.2354,31.637,12.2354a159.85684,159.85684,0,0,1,16.7658,15.1878l.0924.0888c15.7328,20.5791,21.7801,35.0788,22.1397,45.5761-.0174.0367.0019.0906-.0155.1272C1016.5606,842.0463,1009.1888,851.5224,992.012,858.8581Z" style="mix-blend-mode:soft-light" opacity=".3"></path><path fill="#995942" d="M986.7618,842.9707c-7.632-11.9566-13.581-23.9719-21.0062-34.4846-3.7299-5.1462-7.7231-9.9682-12.6025-13.0394-4.8376-3.106-11.0583-3.5998-18.1174-1.8434a19.52682,19.52682,0,0,1,21.2646-5.1946c7.7344,2.6866,13.2428,8.4979,17.5146,14.3679a70.97051,70.97051,0,0,1,9.41,19.3082A66.49712,66.49712,0,0,1,986.7618,842.9707Z"></path><path fill="#b7765a" d="M1460.0414,858.8581c.0364-.0173.0364-.0173.0905.002,1.187.514,2.4819,1.0666,3.8328,1.5478,72.9529,27.5065,84.0355-68.315,58.4682-92.0962-6.2343-5.6609-12.2716-8.5419-17.8226-9.4536-17.9159-3.1236-31.637,12.2354-31.637,12.2354a159.85684,159.85684,0,0,0-16.7658,15.1878l-.0924.0888c-11.5671,12.0463-24.4241,29.5093-22.1397,45.5761.0174.0367-.0019.0906.0155.1272C1435.4927,842.0463,1442.8646,851.5224,1460.0414,858.8581Z"></path><path d="M1460.0414,858.8581c.0364-.0173.0364-.0173.0905.002,39.0909,11.8834,59.7798-33.7222,56.4313-55.4349-3.3292-21.7668-22.6721-10.9679-22.6721-10.9679a77.24045,77.24045,0,0,1,10.7192-33.5992c-17.9159-3.1236-31.637,12.2354-31.637,12.2354a159.85684,159.85684,0,0,0-16.7658,15.1878l-.0924.0888c-15.7328,20.5791-21.7801,35.0788-22.1397,45.5761.0174.0367-.0019.0906.0155.1272C1435.4927,842.0463,1442.8646,851.5224,1460.0414,858.8581Z" style="mix-blend-mode:soft-light" opacity=".3"></path><path fill="#995942" d="M1465.2915,842.9707a66.50008,66.50008,0,0,1,3.537-20.8859,70.96762,70.96762,0,0,1,9.41-19.3082c4.272-5.87,9.7801-11.6813,17.5146-14.3679a19.5266,19.5266,0,0,1,21.2645,5.1946c-7.059-1.7564-13.2798-1.2626-18.1173,1.8434-4.8794,3.0712-8.8727,7.8932-12.6025,13.0394C1478.8726,818.9988,1472.9236,831.0141,1465.2915,842.9707Z"></path><path fill="#b7765a" d="M1481.42,646.8926l-1.1036,6.3554-1.7507,10.047-19.1045,110.136-7.4971,43.1942a65.97628,65.97628,0,0,0-.8373,7.6875,61.7168,61.7168,0,0,0,2.5499,21.0455c7.5352,25.1554,15.6794,83.1918-53.0128,119.4977a.14.14,0,0,0-.1143.0381c-4.6428,2.4357-9.6663,4.7952-15.0325,7.0404-35.0121,14.6139-85.9698,24.2042-159.4953,24.2042-122.7327,0-182.6338-26.8301-210.4154-58.7214-29.2274-33.49-23.0623-72.6121-17.2014-92.059a63.30887,63.30887,0,0,0,1.7126-28.733L970.6237,646.8926s108.0045-47.647,255.3981-47.647C1373.4152,599.2456,1481.42,646.8926,1481.42,646.8926Z"></path><path fill="#fff" d="M1453.6767 845.3582c7.5352 25.1554 15.6794 83.1918-53.0128 119.4977a.14.14 0 00-.1143.0381c-4.6428 2.4357-9.6663 4.7952-15.0325 7.0404-12.5967-11.1887-20.5885-26.0687-20.5885-45.8201 0-61.9561 51.6808-90.0041 86.1982-101.8016A61.7168 61.7168 0 001453.6767 845.3582zM1478.5657 663.295l-19.1045 110.136c-65.1149 12.0258-120.0687-37.5619-109.6412-88.5579C1361.237 629.006 1454.3617 655.4173 1478.5657 663.295z" opacity=".11"></path><path d="M1481.42,646.8926l-1.1036,6.3554c-61.1952-14.1188-362.4137-76.7983-413.2192,42.8138-56.5902,133.2744,32.6905,327.5536,333.4524,268.8322-105.0363,36.0777-278.3464,44.9449-384.9432-27.4768-29.2274-33.49-23.0623-72.6121-17.2014-92.059a63.30887,63.30887,0,0,0,1.7126-28.733L970.6237,646.8926s108.0045-47.647,255.3981-47.647C1373.4152,599.2456,1481.42,646.8926,1481.42,646.8926Z" style="mix-blend-mode:soft-light" opacity=".3"></path><ellipse cx="1132.135" cy="750.325" rx="30.982" ry="46.378" transform="rotate(-2.115 1132.135 750.325)" style="mix-blend-mode:soft-light" opacity=".3"></ellipse><ellipse cx="1133.937" cy="765.116" fill="#333" rx="24.329" ry="19.514" transform="rotate(-89.126 1133.937 765.116)"></ellipse><path fill="#fff" d="M1145.2015,757.5577c-.0781,5.1082-3.5787,9.1967-7.8189,9.132s-7.6144-4.2583-7.5364-9.3665,3.5787-9.1966,7.8189-9.1319S1145.2795,752.4496,1145.2015,757.5577Z"></path><circle cx="1127.384" cy="770.973" r="4.435" fill="#fff" transform="rotate(-15.842 1127.384 770.972)"></circle><ellipse cx="1319.34" cy="745.931" rx="27.961" ry="41.856" transform="rotate(-2.255 1319.338 745.93)" style="mix-blend-mode:soft-light" opacity=".3"></ellipse><ellipse cx="1320.999" cy="759.276" fill="#333" rx="21.957" ry="17.611" transform="rotate(-89.265 1320.999 759.276)"></ellipse><path fill="#fff" d="M1331.1483 752.4301c-.0592 4.6102-3.2095 8.3077-7.0364 8.2586s-6.8813-3.8262-6.8221-8.4365 3.2094-8.3078 7.0363-8.2587S1331.2074 747.8198 1331.1483 752.4301zM1319.1003 764.6273a4.00258 4.00258 0 11-3.9509-4.0536A4.00264 4.00264 0 011319.1003 764.6273z"></path><path fill="#333" d="M1172.2469,688.9253c-6.3395,1.4626-15.1805,4.3661-24.5468,7.6618-5.348,1.9576-10.8563,3.9924-16.1661,6.0704-3.9812,1.4986-7.8024,2.9996-11.3426,4.3849-7.8436,3.0789-14.3221,5.7788-17.903,7.2435-1.8909.7708-2.9376,1.2346-2.9376,1.2346-11.9172-5.0998-19.7087-23.7712-19.7087-23.7712,1.5235-2.8955,3.1253-5.6699,4.7253-8.3245a127.32771,127.32771,0,0,1,13.1122-18.152,94.89134,94.89134,0,0,1,11.7316-11.576,73.69813,73.69813,0,0,1,12.9677-8.7182,50.73173,50.73173,0,0,1,24.0482-6.43C1167.0982,638.5875,1179.8593,669.5697,1172.2469,688.9253Z"></path><path d="M1120.1914 707.0424c-7.8436 3.0789-14.3221 5.7788-17.903 7.2435a119.30835 119.30835 0 01-17.921-30.8611 127.32771 127.32771 0 0113.1122-18.152C1100.2401 675.6307 1106.6481 693.2414 1120.1914 707.0424zM1147.7001 696.5871c-5.348 1.9576-10.8563 3.9924-16.1661 6.0704-7.6446-9.9526-18.5356-27.2719-22.3228-48.9607a73.69813 73.69813 0 0112.9677-8.7182C1124.3545 657.0069 1130.6062 679.613 1147.7001 696.5871z" style="mix-blend-mode:soft-light" opacity=".3"></path><path fill="#333" d="M1370.2567,689.2998c-3.6081,5.7456-8.9874,13.8931-12.157,16.9185-2.5154,2.3908-19.8179-.848-37.6481-5.2352-2.6663-.6853-5.3332-1.3705-7.9504-2.055-3.3084-.8437-6.518-1.7354-9.5784-2.5755-6.0714-1.7286-11.5503-3.3494-15.7924-4.7526-3.5519-1.1451-6.2639-2.1285-7.7406-2.7956-9.5509-4.4094,9.175-32.6798,19.1532-43.2856,3.7794-4.0076,9.7535-5.6514,16.3011-5.8489a57.92274,57.92274,0,0,1,18.7003,2.6156,51.33964,51.33964,0,0,1,9.1647,3.66c.5405.3554,1.0805.6611,1.5721.966a51.07,51.07,0,0,1,5.5381,4.1996c7.1463,6.0088,15.7787,15.3619,20.5637,23.4168A14.14454,14.14454,0,0,1,1370.2567,689.2998Z"></path><path d="M1333.5444 642.2855c-17.5663 17.2822-26.9698 42.1749-30.6216 54.0671-6.0714-1.7286-11.5503-3.3494-15.7924-4.7526a138.62583 138.62583 0 0127.7137-51.9301A57.92274 57.92274 0 011333.5444 642.2855zM1349.8193 651.1111c-15.476 16.7685-25.0806 38.5844-29.3677 49.872-2.6663-.6853-5.3332-1.3705-7.9504-2.055 11.3538-29.2754 24.0529-45.9871 30.2079-52.9826.5405.3554 1.0805.6611 1.5721.966A51.07 51.07 0 011349.8193 651.1111z" style="mix-blend-mode:soft-light" opacity=".3"></path><path fill="#995942" d="M1204.5991,883.6878c5.827.8921,11.3172,1.9139,16.778,2.6024a136.763,136.763,0,0,0,16.2322,1.0389,138.54147,138.54147,0,0,0,16.2296-1.0503c5.4591-.6901,10.9496-1.708,16.7803-2.591a47.302,47.302,0,0,1-15.4444,8.3785,55.04,55.04,0,0,1-35.1287-.0114A47.54265,47.54265,0,0,1,1204.5991,883.6878Z"></path><path fill="#333" d="M1000.1176 816.6252a140.29841 140.29841 0 01-25.7644-38.3609c-22.9102-49.5118-20.1322-109.2988-3.7295-131.3717 2.1311-1.2559 4.4144-2.5116 6.812-3.6535 19.1045-9.3237 44.983-15.2226 44.983-15.2226S994.1805 751.0537 1000.1176 816.6252zM1476.6248 780.5476a140.01471 140.01471 0 01-24.6987 36.0776c5.9368-65.5715-22.3012-188.6087-22.3012-188.6087s24.0897 5.4801 42.9659 14.2712a91.27914 91.27914 0 018.8292 4.6049C1498.0507 669.3081 1500.6766 730.5792 1476.6248 780.5476z"></path><path d="M1451.9261 816.6252c5.9368-65.5715-22.3012-188.6087-22.3012-188.6087s24.0897 5.4801 42.9659 14.2712c-9.9327 26.792-25.9928 86.6932 4.034 138.2599A140.01471 140.01471 0 011451.9261 816.6252zM1000.1176 816.6252a140.29841 140.29841 0 01-25.7644-38.3609c27.9334-50.4632 12.9012-108.1951 3.0825-135.0252 19.1045-9.3237 44.983-15.2226 44.983-15.2226S994.1805 751.0537 1000.1176 816.6252z" style="mix-blend-mode:soft-light" opacity=".3"></path><path fill="#280303" d="M1324.126,854.6746s-.2505,1.2524-.9183,3.4652c-4.0915,13.6933-23.337,63.3726-87.2942,63.3726-63.9155,0-83.2028-49.6793-87.294-63.3726-.6681-2.2128-.9185-3.4652-.9185-3.4652Z"></path><path fill="#fff" d="M1324.126,854.6746s-.2505,1.2524-.9183,3.4652c-1.6283,1.7533-3.4234,3.5484-5.3439,5.2602a99.43023,99.43023,0,0,1-34.8175,20.4146c-12.858,4.5085-28.43,7.3058-47.1328,7.3058-45.3795,0-72.0563-16.6157-87.294-32.9806-.6681-2.2128-.9185-3.4652-.9185-3.4652Z"></path><path fill="#e5e5e5" d="M1324.126,854.6746s-.2505,1.2524-.9183,3.4652c-1.6283,1.7533-3.4234,3.5484-5.3439,5.2602-9.56,1.8787-64.7922,12.232-109.963,9.4768,20.7486,16.5736,55.6077,14.0688,75.1455,10.9378-12.858,4.5085-28.43,7.3058-47.1328,7.3058-45.3795,0-72.0563-16.6157-87.294-32.9806-.6681-2.2128-.9185-3.4652-.9185-3.4652Z"></path><path fill="#333" d="M1389.7414,827.5856c-.2283,14.1572-3.1966,37.7523-152.1504,37.7523h-.2665c-148.6492-.0381-151.6175-23.5951-151.8459-37.7523-.2664-14.1189,9.1716-27.2866,9.1716-27.2866s-8.4485,23.3287,0,34.251c8.4487,10.9222,41.9385-6.3554,65.762-22.6819,16.4024-11.2265,33.9845-19.0662,52.1755-22.834a29.37719,29.37719,0,0,0,45.5158-.8371,123.75667,123.75667,0,0,1,16.4025,3.9197,149.45283,149.45283,0,0,1,40.3018,19.7514c23.8235,16.3265,57.3136,33.6041,65.762,22.6819s0-34.251,0-34.251S1390.0078,813.4667,1389.7414,827.5856Z"></path><path d="M1237.3245,865.3379c-148.6492-.0381-151.6175-23.5951-151.8459-37.7523-.2664-14.1189,9.1716-27.2866,9.1716-27.2866s-8.4485,23.3287,0,34.251c8.4487,10.9222,41.9385-6.3554,65.762-22.6819,16.4024-11.2265,33.9845-19.0662,52.1755-22.834a29.37719,29.37719,0,0,0,45.5158-.8371,123.75667,123.75667,0,0,1,16.4025,3.9197c-8.5247,7.9921-27.0964,20.4364-60.7385,21.9588C1173.732,815.8643,1173.2754,853.1978,1237.3245,865.3379Z" style="mix-blend-mode:soft-light" opacity=".3"></path><path fill="#fff" d="M1263.774,772.137a17.92378,17.92378,0,0,1-1.0277,6.9263.29661.29661,0,0,0-.0378.1143s-.0381.1141-.1143.3805c-.1521.3426-.3426.9514-.6469,1.7507-.1143.3423-.2664.7231-.4188,1.1416a29.14185,29.14185,0,0,1-54.2307-3.2728.296.296,0,0,0-.0379-.1143,17.92656,17.92656,0,0,1-1.0276-6.9263c.3426-6.774,5.1757-16.136,28.7708-16.136S1263.4313,765.363,1263.774,772.137Z" opacity=".11"></path><path fill="#995942" d="M1263.8121,771.6426l.1025.5291.0045-.0342a20.11092,20.11092,0,0,1,.5132,7.4193l-.1135.2901a1.29962,1.29962,0,0,0,.1684-.6668l-.0916.5605a6.43415,6.43415,0,0,1-.1917,1.1902l-.3218,1.4093.1454-.3374a27.58709,27.58709,0,0,1-10.8745,16.4936,30.98536,30.98536,0,0,1-19.4675,5.8222,30.39379,30.39379,0,0,1-18.8901-7.425c-5.074-4.5585-8.5842-10.7271-9.2137-17.215l-.066-.6804-.0054.182a1.3033,1.3033,0,0,0,.1693.6708l-.1141-.2913a20.05289,20.05289,0,0,1,.5209-7.4221l.0045.0348.1033-.5297.1795.4585.0045.0364a31.96913,31.96913,0,0,0,2.5757,6.4287l-.1135-.289a2.33819,2.33819,0,0,1,.2449.8967l-.0711-.4962a29.87755,29.87755,0,0,0,10.8327,11.5391,29.10409,29.10409,0,0,0,28.6409.9598,29.34828,29.34828,0,0,0,11.3789-10.561l.1459-.3391.4626-.7129a4.445,4.445,0,0,0,.5456-.9479l-.0907.5582a2.32732,2.32732,0,0,1,.2435-.8927l-.1127.2879a31.79833,31.79833,0,0,0,2.568-6.4316l.0046-.0358Z"></path><path fill="#e6e8e8" d="M1258.7689,1378.3157a22.32419,22.32419,0,0,1-.6364,3.1839,23.97023,23.97023,0,1,1-26.3496-30.0559,24.29072,24.29072,0,0,1,6.313.0094A23.96784,23.96784,0,0,1,1258.7689,1378.3157Z"></path><path d="M1255.3734,1386.2064a23.03605,23.03605,0,1,1-29.8469-32.7874,22.63266,22.63266,0,0,0-3.3193,9.2028,23.05009,23.05009,0,0,0,19.8479,25.8597A22.78724,22.78724,0,0,0,1255.3734,1386.2064Z" style="mix-blend-mode:soft-light" opacity=".6"></path><path fill="#fff" d="M1258.7689,1378.3157a22.32419,22.32419,0,0,1-.6364,3.1839,23.2475,23.2475,0,0,1-6.3479.0173,23.96777,23.96777,0,0,1-20.6381-26.8895,22.38536,22.38536,0,0,1,.6364-3.1837,24.29072,24.29072,0,0,1,6.313.0094A23.96784,23.96784,0,0,1,1258.7689,1378.3157Z" opacity=".22"></path></g></svg>