<svg xmlns="http://www.w3.org/2000/svg" width="256" height="256" viewBox="0 0 4465.4 4835.7"><path fill="#720c0c" d="M2232.7 4835.7c-301.4 0-593.8-59-869.1-175.5-132.3-56-259.9-125.2-379.3-205.9-118.2-79.9-229.4-171.6-330.4-272.6s-192.7-212.2-272.6-330.4c-80.6-119.4-149.9-247-205.9-379.3C59 3196.8 0 2904.4 0 2603s59-593.8 175.5-869.1c56-132.3 125.2-259.9 205.9-379.3 79.9-118.2 171.6-229.4 272.6-330.4s212.2-192.7 330.4-272.6c119.4-80.6 247-149.9 379.3-205.9 275.3-116.4 567.7-175.5 869.1-175.5s593.8 59 869.1 175.5c132.3 56 259.9 125.2 379.3 205.9 118.2 79.9 229.4 171.6 330.4 272.6 101 101 192.7 212.2 272.6 330.4 80.6 119.4 149.9 247 205.9 379.3 116.4 275.3 175.5 567.7 175.5 869.1s-59 593.8-175.5 869.1c-56 132.3-125.2 259.9-205.9 379.3-79.9 118.2-171.6 229.4-272.6 330.4-101 101-212.2 192.7-330.4 272.6-119.4 80.6-247 149.9-379.3 205.9-275.4 116.4-567.8 175.4-869.2 175.4zm0-4367.3c-288.2 0-567.7 56.4-830.9 167.7-254.2 107.5-482.5 261.4-678.5 457.5-196.1 196.1-350 424.3-457.5 678.5C154.5 2035.3 98.1 2314.8 98.1 2603s56.4 567.7 167.7 830.9c107.5 254.2 261.4 482.5 457.5 678.5 196.1 196.1 424.3 350 678.5 457.5 263.1 111.3 542.7 167.7 830.9 167.7s567.7-56.4 830.9-167.7c254.2-107.5 482.5-261.4 678.5-457.5 196.1-196.1 350-424.3 457.5-678.5 111.3-263.1 167.7-542.7 167.7-830.9s-56.4-567.7-167.7-830.9c-107.5-254.2-261.4-482.5-457.5-678.5-196.1-196.1-424.3-350-678.5-457.5-263.2-111.3-542.7-167.7-830.9-167.7z" class="color720c0c svgShape"/><circle cx="2232.7" cy="2603" r="2183.7" fill="#ff9300" class="colorff9300 svgShape"/><path fill="#fc0" d="M2232.7 524.7 2427.8 1708l659.6-1001.7-303.1 1160.4 1010-646.8-748.8 936.8 1185.7-180.1L3166 2527.9l1156.5 317.7-1197.2 70.4 927.2 760.6-1122.4-422.7L3467.8 4326l-853.4-842.7 55.2 1198.1-436.9-1117-436.9 1117 55.2-1198.1L997.6 4326l537.7-1072.1-1122.4 422.7 927.3-760.6-1197.3-70.4 1156.5-317.7-1065.2-551.3L1420 2156.7l-748.9-936.8 1010 646.8L1378 706.3 2037.6 1708z" class="colorfc0 svgShape"/><path fill="#720c0c" d="M2293.2 4835c-21 0-42.1-.4-63.3-1.3-250.3-.1-466.1-43.7-603.1-80.3-134.5-35.9-220.3-71.7-238.8-79.7-22.8-6.5-121.6-39.1-219.5-136.5-63.3-62.9-113.8-140.3-150-230-44.5-110.1-67.5-239.2-68.4-383.5v-.3c0-237.2 34.6-444.9 103-617.5 59.2-149.6 144.4-274.9 253.3-372.4 73.1-65.5 157.4-119 250.5-158.9 74.1-31.7 154-54.9 237.3-69 130.6-22 228.3-14.6 246.5-12.9h382.7c18.4-1.8 115.9-9.3 246.2 12.3 83.2 13.9 163 36.9 237.1 68.4 93.1 39.6 177.3 92.9 250.4 158.3 109 97.5 194.4 222.9 253.7 372.7 68.4 172.8 103.1 380.9 103.2 618.6.2 10.9 1.2 142.1-41.7 294.1-26.1 92.4-63.1 173.6-110.1 241.1-60 86.3-136.3 150.3-226.5 190.3-102.3 45.3-452.5 186.5-842.5 186.5zm-1245-911.7c.8 131.8 21.4 248.6 61.2 347.1 31.3 77.3 74.4 143.6 128.3 197.2 88.7 88.2 177.6 111.8 178.4 112.1 2.9.7 5.7 1.7 8.4 2.9.8.4 87.6 38.8 230 76.7 131 34.9 337.4 76.4 576.4 76.4h2c20.3.8 40.6 1.2 60.7 1.2 370.4 0 704.6-134.8 802.1-178 325.8-144.4 320.1-629.6 320-634.5v-1c0-416.6-108.8-725.4-323.3-917.7-64.7-58-139.3-105.4-221.9-140.9-66.6-28.6-138.5-49.6-213.7-62.4-129.3-22-224.8-12-225.7-11.9-1.8.2-3.6.3-5.4.3h-387.5c-1.8 0-3.6-.1-5.3-.3-.9-.1-96.5-9.9-225.9 12.5-75.3 13-147.3 34.2-214 62.9-82.6 35.7-157.4 83.3-222.1 141.4-214.1 192.6-322.7 500.8-322.7 916zm2465.7.1z" class="color720c0c svgShape"/><path fill="#ddd" d="M3464.8 3923.4c0-1298.2-1039.1-1181.7-1039.1-1181.7h-387.5S999.1 2627.8 999.1 3923.4c3.5 605.4 405.3 703.9 405.3 703.9s351.4 157.4 826.5 157.4c349 14.3 695.8-97.2 884.7-181 359.4-159.3 349.2-680.3 349.2-680.3z" class="colorddd svgShape"/><path fill="#fff" d="M1818.4 2752.7c-285.4 43.1-754.2 232.5-813.1 1005.5 225.7-764.2 649.3-902.5 813.1-1005.5zm828.5 0c285.4 43.1 753.2 234.2 812.1 1007.1-225.7-764.2-648.3-904.1-812.1-1007.1z" class="colorfff svgShape"/><path fill="#720c0c" d="M2233.3 3189.3c-120.7 0-234.7-34.3-321.1-96.5-43.6-31.4-78-68.3-102.3-109.7-26-44.4-39.3-91.8-39.3-140.8 0-49.1 13.2-96.5 39.3-140.8 24.3-41.4 58.7-78.3 102.3-109.7 86.4-62.3 200.5-96.5 321.1-96.5 120.7 0 234.7 34.3 321.1 96.5 43.6 31.4 78 68.3 102.3 109.7 26 44.4 39.3 91.8 39.3 140.8 0 49.1-13.2 96.5-39.3 140.8-24.3 41.4-58.7 78.3-102.3 109.7-86.3 62.2-200.4 96.5-321.1 96.5zm0-596c-100.3 0-194 27.7-263.8 78-65 46.8-100.8 107.5-100.8 170.9 0 63.4 35.8 124.1 100.8 170.9 69.8 50.3 163.5 78 263.8 78 100.3 0 194-27.7 263.8-78 65-46.8 100.8-107.5 100.8-170.9 0-63.4-35.8-124.1-100.8-170.9-69.8-50.3-163.5-78-263.8-78z" class="color720c0c svgShape"/><ellipse cx="2233.3" cy="2842.2" fill="#ddd" class="colorddd svgShape" rx="413.6" ry="298"/><path fill="#720c0c" d="M3223.6 1529.7c-13.2 0-23.9 10.7-23.9 23.9v947.9h47.9v-947.9c0-13.2-10.7-23.9-24-23.9zm-596.4 3257.4c-13.5 0-24.5-11-24.5-24.5V3310.8l-374.5-125.2c-10-3.3-16.7-12.7-16.7-23.3v-158.1c0-13.5 11-24.5 24.5-24.5s24.5 11 24.5 24.5v140.4l374.5 125.2c10 3.3 16.7 12.7 16.7 23.3v1469.4c0 13.6-10.9 24.6-24.5 24.6zm-569.9-1310.4c-32.4 0-58.8 26.3-58.8 58.8 0 32.4 26.3 58.8 58.8 58.8 32.4 0 58.8-26.3 58.8-58.8s-26.3-58.8-58.8-58.8z" class="color720c0c svgShape"/><path fill="#720c0c" d="M2408.3 3594.2c32.4 0 58.8-26.3 58.8-58.8 0-32.4-26.3-58.8-58.8-58.8-32.4 0-58.8 26.3-58.8 58.8.1 32.5 26.4 58.8 58.8 58.8zm-351 977.4c-32.4 0-58.8 26.3-58.8 58.8s26.3 58.8 58.8 58.8c32.4 0 58.8-26.3 58.8-58.8s-26.3-58.8-58.8-58.8zm351 117.5c32.4 0 58.8-26.3 58.8-58.8s-26.3-58.8-58.8-58.8c-32.4 0-58.8 26.3-58.8 58.8s26.4 58.8 58.8 58.8zm-122.4-1572.5h-112c-143 0-281.8-27.9-412.5-83-126.2-53.2-239.7-129.3-337.2-226.3s-174.3-210-228.1-335.9c-49.1-114.8-77.2-235.9-83.8-360.7-39.7-5.3-75.7-17.3-107.5-36.1-39.9-23.5-72.4-57-96.8-99.5-31.6-55.2-48.5-126.1-47.6-199.8.8-66.5 15.6-129.1 40.7-171.8 35.3-60 95.9-94.6 175.3-100 18.1-1.2 35.1-.8 49.9.4 40.6-235.1 159.7-450.3 339.2-610.8 195-174.4 446.5-270.4 708.4-270.4h112c260.1 0 510.5 94.9 704.9 267.3 180.4 159.9 300.7 375.3 342.1 610.7 15-.9 32.4-.9 51 .7 79.2 7.1 139.6 42.4 174.7 102.1 25.1 42.7 40 105.3 40.7 171.8.8 73.7-16.1 144.7-47.6 199.8-24.3 42.5-56.9 76-96.8 99.5-31.8 18.7-67.8 30.8-107.5 36.1-6.6 124.9-34.7 246.1-83.9 360.9-53.9 125.9-130.6 238.8-228.1 335.8s-211 173.1-337.2 226.3c-130.5 55-269.3 82.9-412.3 82.9zm-1126-1106.2h.2c26.9.1 48.7 21.9 48.9 48.8.8 129.7 26.8 255.4 77.4 373.6 48.9 114.3 118.6 216.9 207.1 304.9 88.6 88.1 191.6 157.2 306.1 205.5 118.6 50 244.5 75.3 374.4 75.3h112c129.8 0 255.7-25.3 374.3-75.3 114.5-48.2 217.5-117.4 306.1-205.4 88.5-88 158.2-190.6 207.1-304.8 50.6-118.2 76.7-243.9 77.5-373.5.2-26.9 21.9-48.6 48.8-48.7h.2c7.1 0 13.8 1.5 19.9 4.2 66.6-4.8 115.9-34.5 146.8-88.5 51.4-89.8 39-219.6 7.5-273.2-18.3-31.1-50.8-49.2-96.6-53.9-35.6-3.6-67 2.3-73.3 3.6-3 .8-6.1 1.3-9.3 1.5-25.9 1.6-48.5-17-51.8-42.7-29.6-230.8-142.3-443.3-317.3-598.4-176.5-156.5-403.7-242.6-639.9-242.6h-112c-237.7 0-466 87.2-643 245.4-175.6 157-287.5 371.6-315.2 604.4-3.1 25.9-25.9 44.9-52 43.1-9.9-.7-18.9-4.2-26.2-9.8-13.7-2.1-34.4-4.2-56.7-2.4-45.6 3.6-76.7 20.5-95.1 51.7-31.5 53.6-43.9 183.4 7.5 273.2 30.8 53.8 79.9 83.5 146.1 88.4 6.2-2.8 13.2-4.4 20.5-4.4z" class="color720c0c svgShape"/><path fill="#f4ae98" d="M3516.4 1628.4c-65.3-111.1-224.6-72.8-224.6-72.8v.1c-63.9-498.6-489.9-883.9-1005.8-883.9h-112c-519.1 0-947 390-1006.9 893l.1-4.9s-158.3-42.5-223.7 68.6c-65.3 111.1-57.8 436.3 216.4 436.3l.1-5.2c3.2 557.3 456 1008.1 1014 1008.1h112c558 0 1010.6-450.6 1014-1007.8l.1 4.9c274.1-.1 281.6-325.3 216.3-436.4z" class="colorf4ae98 svgShape"/><path fill="#720c0c" d="M1849.8 1713.3c0 77.7-63 140.6-140.6 140.6-77.7 0-140.6-62.9-140.6-140.6 0-77.7 63-140.6 140.6-140.6 77.7 0 140.6 63 140.6 140.6z" class="color720c0c svgShape"/><path fill="#ed9077" d="M2228.8 2758.7c-62.2 0-100.9-32.6-100.9-32.6s10.2 95.7 100.9 95.7 100.9-95.7 100.9-95.7-38.7 32.6-100.9 32.6zM1167.4 1561.2s339.2-54.9 502.9-326.2c475.2-89.7 1113.3-9 1113.3-9s195.7 292.3 508.8 329.5C3172.9 1122.4 2813.3 879 2310.3 879c-502.9 0-950 217.9-1142.9 682.2z" class="colored9077 svgShape"/><path fill="#720c0c" d="M2233.7 531.5c-1140.9 0-1156.9 1021.2-1156.9 1021.2l90.1 8.5s310.8-67.7 494.9-452.4c0 0 617-107.9 1153 0 184.1 384.7 477.1 446.8 477.1 446.8l91.1-4.9s-8.4-1019.2-1149.3-1019.2z" class="color720c0c svgShape"/><path fill="#ed9077" d="M1087.4 1917s-50.9-61.5 1.7-109 5.3-124.7-52.6-105.5c-57.8 19.2-60.7 200.1 50.9 214.5z" class="colored9077 svgShape"/><path fill="#f9e6e1" d="M1167.8 1561.2s-154.3-51.1-226.3 69-7 287.4.7 302.3c-23.8-76.2-44.6-396.7 222.1-337.9 0-11.3 3.5-19.7 3.5-33.4z" class="colorf9e6e1 svgShape"/><path fill="#ed9077" d="M1160 2064.7s84.5 23 135.8 204.1c51.4 181.2 167.6 618.2 638.1 770.1-421.8-95.4-766.6-487.1-773.9-974.2zM3372.5 1917s50.9-61.5-1.7-109-5.3-124.7 52.6-105.5c57.8 19.2 60.7 200.1-50.9 214.5z" class="colored9077 svgShape"/><path fill="#f9e6e1" d="M3292.1 1561.2s154.4-51.4 226.4 68.7 6.9 287.6-.8 302.6c23.8-76.2 44.6-396.7-222.1-337.9 0-9.7-3.5-13.5-3.5-33.4z" class="colorf9e6e1 svgShape"/><path fill="#ed9077" d="M3300 2064.7s-84.5 23-135.8 204.1c-51.4 181.2-167.6 618.2-638.1 770.1 421.8-95.4 766.6-487.1 773.9-974.2z" class="colored9077 svgShape"/><path fill="#e04c34" d="M1426.9 1879.9c-64.2 0-116.3 23.5-116.3 52.5s52.1 52.4 116.3 52.4c64.2 0 116.3-23.5 116.3-52.4-.1-29.1-52.1-52.5-116.3-52.5zm1606.1 0c-64.2 0-116.3 23.5-116.3 52.5s52.1 52.4 116.3 52.4c64.2 0 116.3-23.5 116.3-52.4 0-29.1-52.1-52.5-116.3-52.5z" class="colore04c34 svgShape"/><path fill="#fff" d="M1712.6 1680.4c0 26.2-21.3 47.4-47.5 47.4s-47.4-21.2-47.4-47.4 21.2-47.4 47.4-47.4c26.3 0 47.5 21.2 47.5 47.4z" class="colorfff svgShape"/><path fill="#720c0c" d="M1575.3 1380.3c-41.2 16.1-26.9 48.9 7.7 37.7 0 0 78.6-24.2 205.1 11.2 20.5 5.7 45.3 17.9 56.3 4.3 29.4-15.5-71.6-122.1-269.1-53.2zm1316.2 333c0 77.7-63 140.6-140.6 140.6-77.7 0-140.6-62.9-140.6-140.6 0-77.7 63-140.6 140.6-140.6 77.7 0 140.6 63 140.6 140.6z" class="color720c0c svgShape"/><path fill="#fff" d="M2754.3 1680.4c0 26.2-21.3 47.4-47.5 47.4s-47.4-21.2-47.4-47.4 21.2-47.4 47.4-47.4c26.3 0 47.5 21.2 47.5 47.4z" class="colorfff svgShape"/><path fill="#720c0c" d="M2884.9 1380.3c41.2 16.1 26.9 48.9-7.7 37.7 0 0-78.6-24.2-205.1 11.2-20.5 5.7-45.3 17.9-56.3 4.3-29.5-15.5 71.5-122.1 269.1-53.2zm-1735.5 117.5c-13.5-1-25.2 9.2-26.2 22.7-20.5 291.7-11.7 575.1-11.6 577.9.4 13.3 11.3 23.7 24.5 23.7h.8c13.5-.4 24.2-11.8 23.7-25.3-.1-2.8-8.8-283.8 11.6-572.9.9-13.5-9.3-25.2-22.8-26.1zm2187.7 22.7c-1-13.5-12.7-23.7-26.2-22.7s-23.7 12.7-22.7 26.2c20.3 289.1 11.6 570.1 11.6 572.9-.4 13.5 10.2 24.9 23.7 25.3h.8c13.2 0 24.1-10.5 24.5-23.7.1-2.9 8.9-286.3-11.7-578zM2231.6 2677h-.4c-60.4 0-140.5-17.6-178.9-101.2-3.5-7.7-.1-16.8 7.6-20.3 7.7-3.5 16.8-.1 20.3 7.6 25.3 55.3 76.1 83.3 151 83.3h.4c73.3 0 123.5-26.9 149.4-79.9 3.7-7.6 12.9-10.8 20.5-7.1 7.6 3.7 10.8 12.9 7.1 20.5-21.7 44.3-69.9 97.1-177 97.1zm-17-493.5c.1 0 .1 0 0 0zm1105.3-1023H1145.5c-1.3 0-2.5 0-3.8-.1-8.8-.7-217.4-18.6-318.1-171.1-61.8-93.7-68.4-214.3-19.7-358.3 61.1-180.7 203.2-282.2 410.8-293.4 103.7-5.6 198.3 12.9 248.4 25.4 26.2-38 77.6-102.7 159.6-167 72.8-57 155.1-102.5 244.8-135 111.4-40.4 234.2-61 365.2-61s253.9 20.6 365.2 61c89.7 32.5 172 78 244.8 135 82.1 64.3 133.4 129 159.6 167 50.1-12.5 144.6-31.1 248.4-25.4 207.6 11.3 349.7 112.8 410.8 293.4 48.7 144.1 42.1 264.6-19.8 358.3-100.7 152.5-309.2 170.4-318.1 171.1-1.2.1-2.4.1-3.7.1zm-2172.1-98.1h2169.7c17-1.8 172.5-20.9 242.6-127.6 44.1-67.1 46.9-158.7 8.4-272.4-26.4-78-71.5-136.7-133.9-174.3-51.2-30.9-114.9-48.6-189.3-52.6-131.4-7.1-248.5 30.7-249.7 31.1-22.6 7.4-47.3-2.5-58.5-23.4-.4-.7-48.4-87.6-158.8-172.9-64.5-49.9-137.5-89.6-217-118.1-99.8-35.8-210.3-53.9-328.6-54-118.2 0-228.8 18.2-328.6 54-79.5 28.5-152.5 68.3-217 118.1-110.4 85.4-158.4 172.2-158.9 173.1-11.2 21-35.8 30.7-58.5 23.3-1.1-.4-120.6-38.7-252.1-31-73.9 4.3-137.1 22.2-187.9 53.1-61.9 37.7-106.6 96.1-132.9 173.7-38.5 113.7-35.6 205.3 8.4 272.4 70 106.5 225.2 125.7 242.6 127.5z" class="color720c0c svgShape"/><path fill="#ddd" d="M3615 646.7C3482.6 255.1 2980.4 420 2980.4 420S2781.8 49.3 2232.7 49c-549.1.3-747.7 371-747.7 371S982.8 255.1 850.4 646.7c-145.6 430.5 295.2 464.7 295.2 464.7H3320c-.1 0 440.7-34.2 295-464.7z" class="colorddd svgShape"/><path fill="#720c0c" d="M3350.2 1302.8c-3.7 0-7.4-.4-11-1.3-413.4-95.2-787-143.5-1110.3-143.5-323.3 0-696.9 48.3-1110.3 143.5-14 3.2-28.8.1-40.3-8.5-11.5-8.6-18.7-21.8-19.7-36.2-3.6-55.9-4.6-97.4-3-123.6 1.1-17.3 3.3-53.4 35.1-67.1 3.4-1.5 7-2.6 10.6-3.3 29.3-11.2 138.6-50.9 310-90.9 181.8-42.4 471-92.9 816.2-92.9 345.1 0 637.3 50.5 821.6 92.9 175.8 40.4 287.9 80.6 316.3 91.2h.1c6 1.3 35.8 9.9 39.1 47.6.5 5.6.7 13 .5 23.4-.3 24.6-2.3 65.9-6 122.7-.9 14.4-8.1 27.6-19.7 36.2-8.5 6.4-18.8 9.8-29.2 9.8zM2228.9 1060c315.9 0 677.5 44.8 1075.8 133.2 1.1-20.8 1.7-35.9 2.1-46.8-46.3-16.1-144.7-47.8-282-79.3-178.9-41-462.5-89.9-797.4-89.9-335.8 0-617.1 49.1-793.9 90.4-140.7 32.8-238.4 65.6-280.4 80.8-.3 9.7-.3 24 .4 44.7 398.1-88.4 759.6-133.1 1075.4-133.1zM1076 1145zm2323.9-15.4z" class="color720c0c svgShape"/><path fill="#ddd" d="M3350.2 1253.7c10.2-157.6 4.2-142.3 4.2-142.3s-467.8-183.3-1126.9-183.3c-659.2 0-1115.7 183.3-1115.7 183.3s-14.4-15.4-4.2 142.3c284.4-65.5 702.9-144.7 1121.3-144.7s836.8 79.2 1121.3 144.7z" class="colorddd svgShape"/><path fill="#fff" d="M2704.9 249.7c-192.5-123.4-631.1-163.6-939.5-10.8-101.4 73.7 171.8 101.2 469.1 103 397.7 2.4 565-31.6 470.4-92.2zM1301.7 463.6c-144.6-25.1-387.2 64.7-404.2 321.7 3.4 143.9 150.7-42.3 234-123.7 100.8-98.6 309-173.9 170.2-198zm1854.5 0c144.6-25.1 387.2 64.7 404.2 321.7-3.4 143.9-150.7-42.3-234-123.7-100.8-98.6-309-173.9-170.2-198z" class="colorfff svgShape"/><path fill="#ed9077" d="M2403.9 2000.6h-365.7c-46.3 198 2.3 256 174.3 256h15.9c172.1.1 221.8-58 175.5-256z" class="colored9077 svgShape"/><path fill="#f4ae98" d="M2377.5 1944.9c-35.1-172.4-118.2-290.1-118.2-290.1l-195.7 290.1c-36.9 158.1 13.5 204.5 150.6 204.5h12.7c137.1-.1 182.9-45.4 150.6-204.5z" class="colorf4ae98 svgShape"/><path fill="#720c0c" d="M2226.9 2164.7h-12.7c-78.8 0-125.9-15.1-152.8-49.1-28.1-35.5-32.2-90.8-12.7-174.2 1.9-8.2 10.2-13.4 18.4-11.4 8.2 1.9 13.4 10.2 11.4 18.4-17.2 73.6-15 120.7 6.9 148.2 20.3 25.5 61.2 37.4 128.8 37.4h12.7c67 0 105.8-11 126-35.7 21.9-26.8 25-74.6 9.5-150.3-34-167-114.9-283.1-115.7-284.3-4.9-6.9-3.2-16.5 3.7-21.4 6.9-4.9 16.5-3.2 21.4 3.7 3.5 4.9 85.4 122.3 120.7 295.9 17.6 86.6 12.7 140.9-15.8 175.8-26.6 32.5-72.8 47-149.8 47zm-20.5 27.7zm645.7 83.3c-55.1 108.4-236.2 142.9-330.7 54.2-130.3-122.3-173.7-153.9-299-153.9-125.3 0-168.7 31.6-299 153.9-94.5 88.7-275.6 54.2-330.7-54.2-55.1-108.4-103.6 295.4 304 295.4 221.3 0 324.9-116.1 325.7-117.1.8.9 104.4 117.1 325.7 117.1 407.6 0 359.2-403.8 304-295.4z" class="color720c0c svgShape"/><path fill="#a09f9f" d="M1510.3 3779.3s-104.9-567.7-153.4-567.7-162.1 510.9-174.9 668.4c0 0-94.3 33-150.2 104.4 112.6-50.4 167.6-57.7 167.6-57.7s-134.6 98.9-135.5 209.7c49.4-36.6 282-122.7 282-122.7v-249l164.4 14.6zm1470 0s104.9-567.7 153.4-567.7 162.1 510.9 174.9 668.4c0 0 94.3 33 150.2 104.4-112.6-50.4-167.6-57.7-167.6-57.7s134.6 98.9 135.5 209.7c-49.4-36.6-282-122.7-282-122.7v-249l-164.4 14.6z" class="colora09f9f svgShape"/><path fill="#720c0c" d="M1366.7 3357c-13.2 0-23.9 10.7-23.9 23.9v988h47.9v-988c0-13.2-10.8-23.9-24-23.9z" class="color720c0c svgShape"/><path fill="#720c0c" d="M1125.4 4064c-3.3 0-6.7-1.1-9.5-3.3-6.6-5.3-7.7-14.9-2.5-21.5 63.7-80.1 126.8-115.5 175.1-130.6-16.9-2.3-35.7-3.6-55.6-2.9-98.3 3.5-176.8 51.9-233.2 144.1-4.4 7.2-13.9 9.5-21.1 5.1-7.2-4.4-9.5-13.9-5.1-21.1 77.7-126.9 184-156.4 259.5-158.7 81.1-2.6 143.3 24.5 145.9 25.6 7.1 3.2 10.8 11.2 8.4 18.6-2.3 7.4-9.9 11.9-17.6 10.4-.2 0-28.8-5.1-71.3 8.1-71.6 22.1-127.2 77.7-161.2 120.5-2.9 3.7-7.3 5.7-11.8 5.7zm1995.8-707c-13.2 0-23.9 10.7-23.9 23.9v988h47.9v-988c-.1-13.2-10.8-23.9-24-23.9z" class="color720c0c svgShape"/><path fill="#720c0c" d="M3345.8 4064c-4.6 0-9.2-2.1-12.2-6.1-32.3-42.7-85-98.1-152.9-120.2-40.2-13.1-67.2-8.1-67.5-8.1-7.6 1.5-15.2-3-17.5-10.3-2.4-7.4 1.1-15.3 8.1-18.6 2.5-1.2 62-28.3 139.6-25.8 72.2 2.4 173.7 31.9 247.9 159 4.3 7.3 1.8 16.7-5.5 21-7.3 4.3-16.7 1.8-21-5.5-53.9-92.3-128.7-140.7-222.4-143.8-18.6-.6-36.1.7-51.8 2.9 46.3 15.1 106.6 50.5 167.5 130.9 5.1 6.8 3.8 16.4-3 21.5-2.8 2-6 3.1-9.3 3.1z" class="color720c0c svgShape"/><path fill="#f4ae98" d="M3082.5 4627.3c-303.9 68.3-763.7-183.9-1715.8-636.6v-201.6S2589.9 3908 3076.5 4006c352.7 71 396.6 533.5 6 621.3z" class="colorf4ae98 svgShape"/><path fill="#720c0c" d="M2977.4 4662.9c-38.5 0-79.5-3.7-123.6-11.2-82.8-14-179.1-41.9-294.6-85.1-220.9-82.6-504.1-218.6-862.5-390.8-107.8-51.8-219.2-105.3-340.4-163-8.5-4.1-14-12.7-14-22.1v-201.6c0-6.9 2.9-13.5 8-18.2 5.1-4.6 12-6.9 18.9-6.2 12.2 1.2 1230 120.1 1712.2 217.2 90.8 18.3 167.6 62.3 222.2 127.2 50.4 60 78.7 135 79.5 211.3.8 75-24 145.1-71.7 202.7-51.9 62.6-129.1 106.9-223.5 128.1l-5.4-23.9 5.4 23.9c-34.6 7.8-71.2 11.7-110.5 11.7zm-1586.1-687.7c115.9 55.2 223 106.6 326.6 156.4 357.3 171.7 639.6 307.2 858.4 389.1 168.2 62.9 296.9 93.1 401.6 93.1 35.7 0 68.5-3.5 99.2-10.4 191.3-43 258.1-174.1 256.9-282.4-.7-64.9-24.9-129-68-180.3-47.3-56.3-114.5-94.6-194.3-110.6-439.9-88.6-1498-195.7-1680.4-213.9v159z" class="color720c0c svgShape"/><path fill="#ed9077" d="M3327.5 4378.3s-44.3 284.1-456.5 228.3c-412.2-55.8-1479.6-629-1479.6-629v-77.2s586.3 223.3 1105.2 377.7 830.9 100.2 830.9 100.2z" class="colored9077 svgShape"/><path fill="#f9e6e1" d="M3076.3 4029.3c61.9 11.4 140.3 43.4 205.5 131.9-133.4-79.7-1227.4-272.5-1227.4-272.5s172.3 12.8 584.3 72.1c123.9 17.8 261.3 36.1 437.6 68.5z" class="colorf9e6e1 svgShape"/><path fill="#f4ae98" d="M1404.4 4627.3c303.9 68.3 763.7-183.9 1715.8-636.6v-201.6S1897.1 3908 1410.4 4006c-352.6 71-396.6 533.5-6 621.3z" class="colorf4ae98 svgShape"/><path fill="#720c0c" d="M1509.5 4662.9c-39.3 0-75.9-3.9-110.5-11.7-94.3-21.2-171.6-65.5-223.5-128.1-47.8-57.6-72.6-127.7-71.7-202.7.9-76.3 29.1-151.3 79.5-211.3 54.6-64.9 131.4-108.9 222.2-127.2 482.3-97.1 1700-216.1 1712.2-217.2 6.9-.7 13.7 1.6 18.9 6.2 5.1 4.6 8 11.2 8 18.2v201.6c0 9.5-5.4 18.1-14 22.1-121.2 57.6-232.7 111.2-340.4 163-358.4 172.2-641.6 308.2-862.5 390.8-115.5 43.2-211.8 71-294.6 85.1-44 7.4-85.1 11.2-123.6 11.2zm1586.2-846.7c-182.4 18.1-1240.5 125.2-1680.4 213.9-79.8 16.1-147 54.3-194.3 110.6-43.2 51.3-67.3 115.4-68 180.3-1.2 108.3 65.6 239.4 256.9 282.4 120.8 27.2 275.3 1.6 500.8-82.7 218.9-81.9 501.1-217.5 858.4-389.1 103.7-49.8 210.7-101.2 326.6-156.4v-159z" class="color720c0c svgShape"/><path fill="#ed9077" d="M1159.4 4378.3s44.3 284.1 456.5 228.3c412.2-55.8 1479.6-629 1479.6-629v-77.2s-586.3 223.3-1105.2 377.7-830.9 100.2-830.9 100.2z" class="colored9077 svgShape"/><path fill="#f9e6e1" d="M1410.6 4029.3c-61.9 11.4-140.3 43.4-205.5 131.9 133.4-79.7 1227.4-272.5 1227.4-272.5s-172.3 12.8-584.3 72.1c-123.8 17.8-261.3 36.1-437.6 68.5z" class="colorf9e6e1 svgShape"/></svg>