<svg xmlns="http://www.w3.org/2000/svg" viewBox="0 0 2800 1900" id="chef-holding-chicken-leg-piece"><g data-name="Layer 1"><ellipse cx="1144.176" cy="1746.482" fill="#d1bfb2" rx="68.352" ry="484.681" transform="rotate(-87.675 1144.176 1746.482)"></ellipse><path fill="#333" d="M1432.3657,1548.5921s-2.6205,11.0983-7.4122,28.9536c-10.2792,38.4548-30.5101,108.2383-55.6957,165.7362-12.7772-3.3992-23.6708-6.8393-32.8852-10.1972-31.4515-11.3031-43.4099-21.0089-43.4099-21.0089s5.7745-114.2584,2.908-163.197C1292.9627,1499.8994,1432.3657,1548.5921,1432.3657,1548.5921Z"></path><path d="M1432.3657,1548.5921s-2.6205,11.0983-7.4122,28.9536c-28.6669,14.2518-86.6972,55.4503-88.5809,155.539-31.4515-11.3031-43.4099-21.0089-43.4099-21.0089s5.7745-114.2584,2.908-163.197C1292.9627,1499.8994,1432.3657,1548.5921,1432.3657,1548.5921Z" style="mix-blend-mode:soft-light" opacity=".3"></path><path fill="#6b6b6b" d="M1462.0565,1756.6325c.328,4.5457-2.8665,8.2313-10.4427,10.6476-31.001,9.8288-103.0783-2.8667-133.0146-.2047-29.8952,2.6618-35.2603-20.8451-25.6365-54.9996,43.8198-17.1182,93.0447-10.5249,93.0447-10.5249,1.1058.4915,2.1706.9829,3.2764,1.4743C1428.8034,1721.2902,1461.1967,1742.8722,1462.0565,1756.6325Z"></path><path d="M1462.0565,1756.6325c.328,4.5457-2.8665,8.2313-10.4427,10.6476-31.001,9.8288-103.0783-2.8667-133.0146-.2047-29.8952,2.6618-35.2603-20.8451-25.6365-54.9996,43.8198-17.1182,93.0447-10.5249,93.0447-10.5249,1.1058.4915,2.1706.9829,3.2764,1.4743-21.0088,3.4401-49.3483,11.344-55.9827,29.4451C1323.8408,1758.3935,1416.4765,1761.3829,1462.0565,1756.6325Z" style="mix-blend-mode:soft-light" opacity=".3"></path><path fill="#333" d="M1041.3894,1752.1276a4.46479,4.46479,0,0,1-.3274.6144c-9.2144,17.1592-51.068,2.0476-108.1155,2.58-57.7024.5324-100.4163-3.1944-67.3262-32.0661,33.1307-28.8307,73.1827-25.1041,93.4951-30.9603,20.3129-5.8972,28.8309-21.0908,28.8309-21.0908l53.4431,26.4146s.5739,2.539,1.3108,6.5933C1044.7069,1715.5157,1047.6553,1738.7359,1041.3894,1752.1276Z"></path><path d="M1041.062,1752.742c-9.2144,17.1592-51.068,2.0476-108.1155,2.58-57.7024.5324-100.4163-3.1944-67.3262-32.0661,33.1307-28.8307,73.1827-25.1041,93.4951-30.9603,20.3129-5.8972,28.8309-21.0908,28.8309-21.0908l53.4431,26.4146s.5739,2.539,1.3108,6.5933c-10.9346,3.6039-32.8442,7.6174-76.1316,7.2897-77.4414-.5324-59.7905,40.0928,39.2741,41.1576C1019.1933,1752.7829,1030.8648,1752.8237,1041.062,1752.742Z" style="mix-blend-mode:soft-light" opacity=".3"></path><path fill="#6b6b6b" d="M1041.3894,1752.1276a4.46479,4.46479,0,0,1-.3274.6144c-9.2144,17.1592-51.068,2.0476-108.1155,2.58-57.7024.5324-100.4163-3.1944-67.3262-32.0661,33.1307-28.8307,73.1827-25.1041,93.4951-30.9603,20.3129-5.8972,28.8309-21.0908,28.8309-21.0908l53.4431,26.4146s.5739,2.539,1.3108,6.5933C1044.7069,1715.5157,1047.6553,1738.7359,1041.3894,1752.1276Z"></path><path d="M1041.062,1752.742c-9.2144,17.1592-51.068,2.0476-108.1155,2.58-57.7024.5324-100.4163-3.1944-67.3262-32.0661,33.1307-28.8307,73.1827-25.1041,93.4951-30.9603,20.3129-5.8972,28.8309-21.0908,28.8309-21.0908l53.4431,26.4146s.5739,2.539,1.3108,6.5933c-10.9346,3.6039-32.8442,7.6174-76.1316,7.2897-77.4414-.5324-59.7905,40.0928,39.2741,41.1576C1019.1933,1752.7829,1030.8648,1752.8237,1041.062,1752.742Z" style="mix-blend-mode:soft-light" opacity=".3"></path><path fill="#e6e8e8" d="M1110.2723,1549.6569c-4.9141,8.723-10.6891,20.067-16.791,32.5985-23.7113,48.7337-52.0919,115.364-52.0919,115.364s-10.6066,2.498-33.786,1.1468a356.89053,356.89053,0,0,1-48.488-6.4706,1378.0451,1378.0451,0,0,1,17.6094-168.8076S1134.3116,1506.9432,1110.2723,1549.6569Z"></path><path d="M1110.2723,1549.6569c-4.9141,8.723-10.6891,20.067-16.791,32.5985-29.1579,4.341-87.3926,24.5307-85.8779,116.5108a356.89053,356.89053,0,0,1-48.488-6.4706,1378.0451,1378.0451,0,0,1,17.6094-168.8076S1134.3116,1506.9432,1110.2723,1549.6569Z" style="mix-blend-mode:soft-light" opacity=".6"></path><path fill="#333" d="M1110.2723,1549.6569c-4.9141,8.723-10.6891,20.067-16.791,32.5985-23.7113,48.7337-52.0919,115.364-52.0919,115.364s-10.6066,2.498-33.786,1.1468a356.89053,356.89053,0,0,1-48.488-6.4706,1378.0451,1378.0451,0,0,1,17.6094-168.8076S1134.3116,1506.9432,1110.2723,1549.6569Z"></path><path d="M1110.2723,1549.6569c-4.9141,8.723-10.6891,20.067-16.791,32.5985-29.1579,4.341-87.3926,24.5307-85.8779,116.5108a356.89053,356.89053,0,0,1-48.488-6.4706,1378.0451,1378.0451,0,0,1,17.6094-168.8076S1134.3116,1506.9432,1110.2723,1549.6569Z" style="mix-blend-mode:soft-light" opacity=".3"></path><ellipse cx="1786.508" cy="669.912" fill="#97a0a0" rx="332.556" ry="84.84"></ellipse><path d="M2041.748,661.0997c0,23.5888-49.1024,44.229-122.654,55.6549-38.6182,6.02-84.0352,9.4601-132.6046,9.4601-25.6775,0-50.4952-.9828-73.8791-2.7847-104.921-8.0679-181.3391-32.9262-181.3391-62.3303,0-24.6534,53.7301-46.1129,132.9736-57.17,24.6127-3.4401,51.683-5.8564,80.3499-7.085q20.4549-.8601,41.8947-.8598c23.6298,0,46.4808.8188,68.186,2.3341,2.0886.1639,4.0952.3277,6.1429.4916,39.5195,3.0305,74.9438,8.477,103.7747,15.6438.4095.123.8189.2049,1.2283.3277a286.5495,286.5495,0,0,1,34.4825,10.7296C2026.5132,635.7499,2041.748,647.954,2041.748,661.0997Z" style="mix-blend-mode:soft-light" opacity=".98"></path><path fill="#e5e2cc" d="M1896.2704,438.8767c43.6898-11.5942,30.3443-51.2328,6.8032-58.2025s-26.8063-15.401-26.8063-15.401c22.3288-57.2616,9.1168-95.7777-11.9676-106.8374a27.64289,27.64289,0,0,0-16.9767-2.99c-9.0704,1.2726-18.3043,7.0263-26.0364,17.8057-32.6198,45.435-3.6783,98.0948-3.6783,98.0948L1707.9792,485.7427l-37.8357,39.4958,24.6,38.2873,150.938-138.116S1852.5806,450.4708,1896.2704,438.8767Z"></path><path d="M1864.2997,258.4358a27.64289,27.64289,0,0,0-16.9767-2.99c37.053,44.4464-1.0406,95.7848-2.581,97.8322C1846.2899,351.581,1882.9356,310.8842,1864.2997,258.4358Z" style="mix-blend-mode:soft-light" opacity=".49"></path><path d="M1896.2704,438.8767c43.6898-11.5942,30.3443-51.2328,6.8032-58.2025s-26.8063-15.401-26.8063-15.401c22.3288-57.2616,9.1168-95.7777-11.9676-106.8374,39.8369,33.339-8.9492,135.7495-8.9492,135.7495,6.3017-4.8965,13.7829-17.0952,13.7829-17.0952s45.1229,16.4796,31.8847,37.0951c-13.2383,20.6157-39.2763,12.368-50.2699-15.1258-55.3608,67.3649-113.1834,83.2222-142.769,86.6833l-37.8357,39.4958,24.6,38.2873,150.938-138.116S1852.5806,450.4708,1896.2704,438.8767Z" style="mix-blend-mode:soft-light" opacity=".49"></path><path fill="#966d45" d="M1646.9082,705.1983c41.5734-1.1062,82.5723-45.9025,114.409-72.7398,31.8322-26.8134,40.6737-76.2969,40.3153-125.1311-.3537-48.8582-23.0737-55.8197-44.3466-69.0098-18.1281-11.2642-41.0033-5.4909-67.7277-.1833-.0241-.0046-.0766.0103-.1006.0057-4.6171.9323-9.3498,1.8172-14.1885,2.6071-32.9229,5.3873-60.2109,5.3261-81.8272,46.6938-16.3331,31.2646-30.7197,51.759-36.7764,59.9186a112.8531,112.8531,0,0,0-7.4453,11.2335c-22.2935,39.4427-12.241,69.4978,3.6365,98.4293l.1611.3301c.5985,1.0375,1.168,2.0944,1.7662,3.1319a1.06829,1.06829,0,0,0,.1657.306c1.7319,3.0506,3.536,6.1149,5.3403,9.1794C1580.9172,704.8006,1605.3349,706.3044,1646.9082,705.1983Z"></path><path fill="#b78e6c" d="M1609.4924 550.8376c7.5575-14.8006 19.9502-26.7997 35.4285-32.8492q1.46955-.57435 3.013-1.098c24.696-8.3611 39.9285-13.1347 37.1437 24.1633s-34.8942 48.0338-47.8463 62.4532-36.6164 7.2677-38.2693-12.8866C1597.6542 574.6746 1604.5576 560.5019 1609.4924 550.8376zM1718.6579 539.3049a20.66289 20.66289 0 0110.7435-9.9613q.44565-.17415.9137-.333c7.4889-2.5354 12.1081-3.983 11.2636 7.3274s-10.5815 14.566-14.5091 18.9386a6.59966 6.59966 0 01-11.605-3.9078C1715.0681 546.5334 1717.1615 542.2356 1718.6579 539.3049zM1622.2559 660.1425a20.66289 20.66289 0 0110.7435-9.9613q.44565-.17415.9137-.333c7.4889-2.5354 12.1081-3.983 11.2636 7.3274s-10.5815 14.566-14.5091 18.9386a6.59966 6.59966 0 01-11.605-3.9078C1618.666 667.371 1620.7594 663.0732 1622.2559 660.1425zM1674.7415 463.021c4.5275-4.8586 19.3654-8.0308 25.9769-8.6579q.62775-.05955 1.2782-.0915c10.4072-.5044 11.003 10.9424 5.8421 24.9698s-12.8961 3.0208-19.4547 7.1413-21.184 2.4057-19.6087-5.5205C1670.0217 474.5912 1671.7852 466.1936 1674.7415 463.021z"></path><path d="M1646.9082,705.1983c41.5734-1.1062,82.5723-45.9025,114.409-72.7398,31.8322-26.8134,40.6737-76.2969,40.3153-125.1311-.3537-48.8582-23.0737-55.8197-44.3466-69.0098-18.1281-11.2642-41.0033-5.4909-67.7277-.1833-6.1988,3.7865,44.5171-12.6477,37.4338,15.1937-13.7775,47.5372-25.0395,40.1112-62.9523,69.8939s-22.8523,60.5018-74.1318,78.764c-42.4966,15.1146-28.2253,69.9469-34.9582,58.8044,1.7319,3.0506,3.536,6.1149,5.3403,9.1794C1580.9172,704.8006,1605.3349,706.3044,1646.9082,705.1983Z" style="mix-blend-mode:soft-light" opacity=".49"></path><path fill="#e5e2cc" d="M2119.3132,646.9818c47.5451,18.2355,61.5087-26.7655,44.6097-48.6605-16.8988-21.8951-14.3184-31.7483-14.3184-31.7483,58.1664-37.5589,71.5115-81.4468,59.5541-105.456a31.14189,31.14189,0,0,0-13.5301-13.9302c-9.1223-4.8219-21.3503-5.6595-35.5223-.9171-59.7618,19.97-68.0739,87.1506-68.0739,87.1506L1916.453,565.5594l-60.6065,11.1055-2.7948,51.1918,228.9496-26.5468S2071.7681,628.7463,2119.3132,646.9818Z"></path><path d="M2209.1586,461.117a31.14189,31.14189,0,0,0-13.5301-13.9302c4.5136,65.0316-64.1411,86.7813-66.8984,87.6347C2131.2631,534.293,2191.5752,521.3057,2209.1586,461.117Z" style="mix-blend-mode:soft-light" opacity=".49"></path><path d="M2119.3132,646.9818c47.5451,18.2355,61.5087-26.7655,44.6097-48.6605-16.8988-21.8951-14.3184-31.7483-14.3184-31.7483,58.1664-37.5589,71.5115-81.4468,59.5541-105.456,14.3836,56.7253-97.7285,118.0584-97.7285,118.0584,8.9848-.314,23.8642-6.518,23.8642-6.518s30.3329,44.8171,4.6437,54.9091-44.0252-14.6173-35.9262-46.9764c-94.9956,24.9931-158.2588,1.3268-187.5588-15.0307l-60.6065,11.1055-2.7948,51.1918,228.9496-26.5468S2071.7681,628.7463,2119.3132,646.9818Z" style="mix-blend-mode:soft-light" opacity=".49"></path><path fill="#966d45" d="M2005.3819,610.1954a71.22336,71.22336,0,0,1-5.0781,15.3163,123.46648,123.46648,0,0,1-12.5728,21.5412c-19.739,27.7251-42.8365,53.3616-68.637,69.7017-38.6182,6.02-84.0352,9.4601-132.6046,9.4601-25.6775,0-50.4952-.9828-73.8791-2.7847-36.5705-25.1861-56.597-42.9595-52.5427-87.0657.3279-3.5219.6554-7.003,1.0238-10.4429q.0615-.7986.123-1.4745a.81733.81733,0,0,1,.082-.3685c.1229-1.3515.2869-2.703.4504-4.0543a2.75512,2.75512,0,0,0,.041-.4096c.6554-5.2829,1.4332-10.5249,2.457-15.6848,5.938-30.7556,19.4526-58.3577,59.1766-76.5818a134.99479,134.99479,0,0,1,14.211-5.3648c10.8936-3.4401,37.5539-12.6545,73.1007-30.4279,47.0547-23.5071,71.9134-5.4468,105.5354,11.3438,4.9552,2.4573,9.8288,4.7916,14.6615,6.962.041.041.0815.041.1224.082,26.6194,12.2039,50.3312,21.7049,60.3644,41.8946a32.14591,32.14591,0,0,1,1.3513,2.9488c4.9966,12.0808,11.0985,23.1791,13.0642,36.0384A54.524,54.524,0,0,1,2005.3819,610.1954Z"></path><path fill="#b78e6c" d="M1783.5736 560.0285c16.6654-8.5296 35.8982-11.3111 54.0234-6.624q1.721.445 3.4758.985c28.0676 8.6573 45.1266 14.3474 17.9776 46.5697s-63.5532 20.8426-84.8933 25.4652-38.2317-17.5198-26.4449-37.0146C1757.0376 573.9859 1772.6916 565.5981 1783.5736 560.0285zM1890.8685 621.5157a23.27769 23.27769 0 0116.3823-2.0087q.522.135 1.0541.2987c8.5113 2.6253 13.6844 4.3508 5.4516 14.122s-19.2722 6.3204-25.7435 7.7222a7.43478 7.43478 0 01-8.0192-11.2245C1882.8217 625.7482 1887.5686 623.2047 1890.8685 621.5157zM1723.1184 668.2628a23.27756 23.27756 0 0116.3823-2.0087q.52185.135 1.054.2987c8.5114 2.6253 13.6844 4.3508 5.4516 14.122s-19.2721 6.3204-25.7434 7.7222a7.43482 7.43482 0 01-8.0193-11.2245C1715.0715 672.4953 1719.8185 669.9518 1723.1184 668.2628zM1901.0913 522.8831c7.3397-1.4499 22.9819 5.4422 29.433 9.2313q.6126.3597 1.2277.7597c9.8363 6.4053 2.8286 17.2511-11.1382 26.6558s-13.7692-5.7493-22.4768-6.3134-20.9316-11.7786-14.264-17.9773C1889.1482 530.3349 1896.2987 523.8299 1901.0913 522.8831z"></path><path d="M2005.3819,610.1954a71.22336,71.22336,0,0,1-5.0781,15.3163,123.46648,123.46648,0,0,1-12.5728,21.5412c-19.739,27.7251-42.8365,53.3616-68.637,69.7017-38.6182,6.02-84.0352,9.4601-132.6046,9.4601-25.6775,0-50.4952-.9828-73.8791-2.7847-36.5705-25.1861-56.597-42.9595-52.5427-87.0657.3279-3.5219.6554-7.003,1.0238-10.4429-.9828,15.8487,1.1468,57.3746,48.4065,71.176,58.8491,17.1592,65.4015-20.8451,119.664-23.0158,54.2624-2.2113,59.6275,11.9994,103.5697-22.319a119.07013,119.07013,0,0,0,31.6155-36.8166,1.382,1.382,0,0,0,.2459-.4916,83.95159,83.95159,0,0,0,9.3784-27.9706,65.539,65.539,0,0,0-2.867-30.9193c-5.5695-16.2994-18.1423-32.0661-40.052-45.6215,26.6194,12.2039,50.3312,21.7049,60.3644,41.8946a32.14591,32.14591,0,0,1,1.3513,2.9488c4.9966,12.0808,11.0985,23.1791,13.0642,36.0384A54.524,54.524,0,0,1,2005.3819,610.1954Z" style="mix-blend-mode:soft-light" opacity=".49"></path><path fill="#b7765a" d="M1912.9635,750.3468a12.42017,12.42017,0,0,1-3.425,3.4302c-19.1099,13.8351-159.2178,56.0165-192.0028,74.4241-32.8388,18.441-56.452,34.8097-56.452,34.8097l-21.4985-83.8351,4.8595-14.2729s-6.451-23.7294-9.8716-32.3047c-3.3667-8.6086,7.0953-28.9304,5.8265-49.0544-1.3226-20.0906-14.7127-33.4378,10.263-28.5106,24.922,4.9607,43.1893,26.9482,32.7537,54.8206,10.3327,22.476,12.6458,38.3364,19.4852,42.3298,2.0607,1.2184,11.754-.1002,25.3212-2.4442.4335-.0827.8233-.1753,1.2027-.2247,31.8477-5.5622,83.843-16.6201,109.7608-15.5205C1873.3551,735.4155,1919.7169,739.1852,1912.9635,750.3468Z"></path><path d="M1912.9635 750.3468a12.42017 12.42017 0 01-3.425 3.4302c-19.1099 13.8351-159.2178 56.0165-192.0028 74.4241-32.8388 18.441-56.452 34.8097-56.452 34.8097l-21.4985-83.8351 4.8595-14.2729s44.9929 47.9905 85.4684 30.9235C1768.9195 779.3352 1881.8853 753.6051 1912.9635 750.3468zM1728.2227 749.7393c-14.2743 3.0064-39.3107 15.0395-43.287 4.9082-4.0997-10.3903-1.5194-44.7938-1.5194-44.7938 10.3327 22.476 12.6458 38.3364 19.4852 42.3298C1704.9622 753.4019 1714.6555 752.0833 1728.2227 749.7393z" style="mix-blend-mode:soft-light" opacity=".3"></path><path fill="#333" d="M1433.0216,787.0749a151.91638,151.91638,0,0,1-18.7977,34.8506c-62.207,53.9351-38.4952-212.6678-38.4952-212.6678l26.8238,28.8716s9.7878,11.0164,19.4935,29.4451C1436.584,695.0129,1451.0814,738.9144,1433.0216,787.0749Z"></path><path d="M1433.0216,787.0749a151.91638,151.91638,0,0,1-18.7977,34.8506c-62.207,53.9351-38.4952-212.6678-38.4952-212.6678l26.8238,28.8716s9.7878,11.0164,19.4935,29.4451C1417.5413,696.0367,1414.3879,744.3202,1433.0216,787.0749Z" style="mix-blend-mode:soft-light" opacity=".3"></path><path fill="#e6e8e8" d="M1720.3051,988.5218l-95.6247,62.9034-143.2123,94.1915c.9833,1.5562,2.0071,3.1124,2.99,4.6686l.041.0408c45.6215,71.5447,92.7582,168.0294,84.7316,306.3271-.6149,10.443-1.5158,21.1316-2.7855,32.1069-64.2137,60.0369-163.0734,85.4275-264.5135,91.079a901.5613,901.5613,0,0,1-126.0119-2.0886c-108.8939-9.0914-204.4776-34.8507-242.9733-56.9243,0-4.0543.041-8.1496.082-12.2858.3279-20.7631,1.3927-42.3453,2.9485-63.6408,6.4298-88.417,20.8453-172.0018,21.4182-175.319-4.8731,5.9382-9.8693,12.2451-15.0703,18.9204a4.64319,4.64319,0,0,0-.41.5322c-.2454.3277-.4909.6554-.7778,1.0238a.91013.91013,0,0,0-.164.205.317.317,0,0,1-.041.1227c-14.2925,18.5108-29.6498,39.847-46.0309,64.6646-16.5856,25.1039-34.195,53.8118-52.7877,86.7381-9.0504,0-34.6869-2.7031-64.0098-13.023-39.683-13.9651-86.0414-41.8949-106.9272-95.9526,11.5895-33.2537,24.9401-65.5653,39.3961-96.6486C816.231,1009.2439,983.1547,845.6374,983.1547,845.6374l331.7177,111.6374,31.5744-17.3232c12.4908-6.8391,29.8958-16.4222,54.2215-29.7726,22.852-12.5725,51.8059-28.4622,88.4994-48.6109,21.8277-11.9994,46.3584-25.5138,74.0015-40.6664,23.3844-12.859,48.9799-26.9057,76.991-42.304,38.8647,18.8381,58.9317,66.5073,69.2518,111.6373C1721.0015,940.9344,1720.3051,988.5218,1720.3051,988.5218Z"></path><path fill="#b7765a" d="M1057.3969 1001.08l27.2425 56.6217s62.9829 55.4543 158.8903 65.3859c77.2115-22.6526 111.9323-74.4668 111.3982-85.1501s-71.0442-59.2925-82.7959-59.8267S1057.3969 1001.08 1057.3969 1001.08zM702.3093 1344.6829l-16.6522 16.2427s-23.8109 22.8182-60.2678 43.6508-40.2628 26.8419-38.0594 42.6665 18.0281 27.6432 18.0281 27.6432-10.6165 10.0156-11.6181 16.6259 6.0094 41.8654 24.4381 49.6776c8.0126 23.4365.2004 47.4741 14.4226 49.2769s30.8797-17.8279 38.5759-47.4741c17.5116-26.4413 50.9638-41.665 59.5772-43.0672s20.2316 11.2175 28.4444 32.2503 6.0165 25.64 23.8408 13.4209 16.2218-56.6884 15.0199-75.7181-3.6659-33.4522.671-41.6651S702.3093 1344.6829 702.3093 1344.6829z"></path><path d="M798.7441,1428.232c-1.5967,3.0714-2.2521,6.921-2.4161,11.5894-20.1489-3.1124-59.0951-10.8113-106.4363-28.2162-40.8708.7781-82.397,16.5038-80.3494,58.8491,24.1213-26.0052,27.8368-30.2454,28.9426-31.0235-2.1296,2.3343-30.0484,39.0911-19.8921,80.4536,22.2785-33.3357,36.8575-45.8672,37.7583-46.6043-.6959,1.4742-15.3163,31.8201-7.1257,63.1081,8.3955,32.0251,43.0824-36.2431,104.7576-47.0957a84.85682,84.85682,0,0,1,41.1167,35.67c-2.3755,9.0094-6.1839,16.5858-12.0813,20.6401-17.8144,12.2039-15.6028,7.6172-23.8344-13.4324-8.1905-21.0088-19.8215-33.6633-28.4215-32.2301-8.6409,1.3925-42.0581,16.6269-59.586,43.0415-7.6996,29.6498-24.3672,49.3073-38.5777,47.5054-14.211-1.843-6.3884-25.8412-14.4155-49.3074-18.4287-7.8218-25.4315-43.0414-24.4487-49.6757,1.0238-6.5934,11.6305-16.6269,11.6305-16.6269s-15.8487-11.7944-18.0189-27.6431c-2.2116-15.8077,1.5968-21.8277,38.0449-42.6728,36.4481-20.804,60.2829-43.6555,60.2829-43.6555l16.6265-16.2174S803.0853,1420.0004,798.7441,1428.232Z" style="mix-blend-mode:soft-light" opacity=".3"></path><path fill="#995942" d="M618.178 1541.1895a34.16124 34.16124 0 01-1.7838-22.2615 32.85925 32.85925 0 015.0254-10.5047c2.1085-3.1297 4.4329-5.9835 6.7415-8.8521a204.41889 204.41889 0 0115.0791-15.9485 155.8087 155.8087 0 0116.8032-14.1452c-8.4018 12.0919-17.953 22.9997-27.1759 34.036-2.3381 2.7165-4.6186 5.4921-6.7284 8.2809a34.05722 34.05722 0 00-5.2089 8.6256A47.66436 47.66436 0 00618.178 1541.1895zM605.358 1474.8862c3.5898-7.3657 8.5396-13.4491 13.7991-19.2416a88.92066 88.92066 0 0118.1174-15.2124 50.48326 50.48326 0 01-6.1194 10.3321 103.4031 103.4031 0 01-7.5074 9.0665C618.2308 1465.4889 612.4812 1470.8353 605.358 1474.8862z"></path><path fill="#7c7c7c" d="M957.4367 1269.51c10.0065-16.0598 21.98-30.6739 34.714-44.5291a403.23684 403.23684 0 0141.2086-38.5451 279.94247 279.94247 0 01-17.842 21.9057c-6.1771 7.0647-12.5471 13.9171-18.8644 20.8134-6.4027 6.8177-12.7554 13.6756-19.2721 20.407C970.9019 1256.3281 964.3699 1263.0598 957.4367 1269.51zM1481.4699 1145.6078c-9.7113-10.5468-18.0747-21.8816-26.1736-33.4654-3.9588-5.8502-7.8733-11.7406-11.4668-17.8573a156.70866 156.70866 0 01-9.8449-18.9559 297.83875 297.83875 0 0126.3697 33.3335C1468.2858 1120.3679 1475.8195 1132.418 1481.4699 1145.6078z"></path><path fill="#b23030" d="M894.9012 1355.0493c-16.5856 25.1039-34.195 53.8118-52.7877 86.7381-21.3363 0-134.6124-14.9889-170.937-108.9756 11.5895-33.2537 24.9401-65.5653 39.3961-96.6486C732.1138 1270.236 789.6527 1342.8862 894.9012 1355.0493zM1720.3051 988.5218l-95.6247 62.9034c-5.4875-100.3753-42.7959-190.8809-61.5112-230.5235 23.3844-12.859 48.9799-26.9057 76.991-42.304C1722.7217 818.6494 1720.3051 988.5218 1720.3051 988.5218zM1175.5101 1492.8964c-122.2851-11.221-211.9308-38.7413-239.533-47.9967-1.8428 25.5136-3.0305 51.4368-3.0305 75.9265 38.4957 22.0736 134.0795 47.8329 242.973 56.9244z"></path><path d="M1175.5101,1492.8964c-122.2851-11.221-211.9308-38.7413-239.533-47.9967-1.8428,25.5136-3.0305,51.4368-3.0305,75.9265,38.4957,22.0736,134.0795,47.8329,242.973,56.9244Z" style="mix-blend-mode:soft-light" opacity=".3"></path><path fill="#b23030" d="M1301.9314,1579.8392a901.57647,901.57647,0,0,1-126.0118-2.0886l-.4095-84.8542-1.6791-332.9053c137.7243-52.3377,167.1284-161.3131,172.6161-220.0394,2.2114-23.9574.4505-39.5604.4505-39.5604s-.7782-247.6007,45.7033-41.649a377.45891,377.45891,0,0,1,8.0677,51.4367c14.7839,172.0837-103.4468,260.2141-103.4468,260.2141l3.7677,327.131c83.257-1.5562,174.7046-12.7773,268.2408-40.8709-.6143,10.443-1.5152,21.1316-2.7848,32.107-64.214,60.0368-163.074,85.4275-264.5141,91.079a901.57647,901.57647,0,0,1-126.0118-2.0886"></path><path fill="#e6e8e8" d="M1265.1966,1217.9392a29.3557,29.3557,0,0,1-.2864,4.2592,31.51543,31.51543,0,1,1-39.4786-34.6871,31.93988,31.93988,0,0,1,8.2316-1.0648A31.51214,31.51214,0,0,1,1265.1966,1217.9392Z"></path><path d="M1262.1163,1228.8052a30.28718,30.28718,0,1,1-44.5039-37.6514,29.7583,29.7583,0,0,0-2.7572,12.5636,30.30564,30.30564,0,0,0,30.2868,30.3259A29.95909,29.95909,0,0,0,1262.1163,1228.8052Z" style="mix-blend-mode:soft-light" opacity=".6"></path><path fill="#fff" d="M1265.1966,1217.9392a29.3557,29.3557,0,0,1-.2864,4.2592,30.56128,30.56128,0,0,1-8.2726,1.1056,31.51214,31.51214,0,0,1-31.4924-31.5337,29.41136,29.41136,0,0,1,.2864-4.259,31.93988,31.93988,0,0,1,8.2316-1.0648A31.51214,31.51214,0,0,1,1265.1966,1217.9392Z" opacity=".22"></path><path fill="#e6e8e8" d="M1265.1966,1411.7243a29.358,29.358,0,0,1-.2864,4.2593,31.51543,31.51543,0,1,1-39.4786-34.6872,31.93988,31.93988,0,0,1,8.2316-1.0648A31.51214,31.51214,0,0,1,1265.1966,1411.7243Z"></path><path d="M1262.1163,1422.5903a30.28718,30.28718,0,1,1-44.5039-37.6514,29.7583,29.7583,0,0,0-2.7572,12.5636,30.30573,30.30573,0,0,0,30.2868,30.326A29.95917,29.95917,0,0,0,1262.1163,1422.5903Z" style="mix-blend-mode:soft-light" opacity=".6"></path><path fill="#fff" d="M1265.1966,1411.7243a29.358,29.358,0,0,1-.2864,4.2593,30.56518,30.56518,0,0,1-8.2726,1.1055,31.51214,31.51214,0,0,1-31.4924-31.5337,29.41232,29.41232,0,0,1,.2864-4.259,31.93988,31.93988,0,0,1,8.2316-1.0648A31.51214,31.51214,0,0,1,1265.1966,1411.7243Z" opacity=".22"></path><path d="M941.9149,1289.0332c-.2454.3277-.4909.6554-.7778,1.0238A11.43883,11.43883,0,0,1,941.9149,1289.0332Z" style="mix-blend-mode:soft-light" opacity=".6"></path><path d="M932.9465,1102.0428c-109.7537,123.6365-144.1537,253.7844-154.8428,326.7216-39.683-13.9651-86.0414-41.8949-106.9272-95.9526,11.5895-33.2537,24.9401-65.5653,39.3961-96.6486C816.231,1009.2439,983.1547,845.6374,983.1547,845.6374l331.7177,111.6374,31.5744-17.3232c12.4908-6.8391,29.8958-16.4222,54.2215-29.7726,22.852-12.5725,51.8059-28.4622,88.4994-48.6109C1461.6476,967.6357,1350.1332,1229.1195,932.9465,1102.0428Z" style="mix-blend-mode:soft-light" opacity=".6"></path><path d="M1569.2307 1456.6532c-138.4617 141.7376-470.0154 104.8801-636.2022 51.8872.3279-20.7631 1.3927-42.3453 2.9485-63.6408 6.4298-88.417 20.8453-172.0018 21.4182-175.319-4.8731 5.9382-9.8693 12.2451-15.0703 18.9204 8.3955-11.1802 54.6718-71.9951 86.5332-97.3448C1149.7914 1385.9277 1358.0778 1479.3 1569.2307 1456.6532zM1720.3051 988.5218l-95.6247 62.9034-143.2123 94.1915c.9833 1.5562 2.0071 3.1124 2.99 4.6686l-46.3584-68.7189S1632.83 954.6127 1709.412 890.235C1721.0015 940.9344 1720.3051 988.5218 1720.3051 988.5218z" style="mix-blend-mode:soft-light" opacity=".6"></path><path fill="#b7765a" d="M1428.5855,857.1725c-31.6701-2.3807-22.4158-28.1535-13.5483-44.0562l.0397-.0755a115.68806,115.68806,0,0,1,7.9748-12.4108s6.195-11.9557,17.0856-13.3275c3.3799-.4698,7.2781.2003,11.6062,2.5551C1469.6283,799.7543,1474.7184,860.6917,1428.5855,857.1725Z"></path><path d="M1452.5564,812.4955c4.5877,12.7476-1.6448,40.4168-25.9924,40.2916-12.8688-.1179-14.6125-20.029-11.5268-39.6708l.0397-.0755a115.68806,115.68806,0,0,1,7.9748-12.4108s6.195-11.9557,17.0856-13.3275a54.26945,54.26945,0,0,0-2.2161,22.6188S1447.9688,799.7487,1452.5564,812.4955Z" style="mix-blend-mode:soft-light" opacity=".3"></path><path fill="#995942" d="M1427.2612,846.2176a45.21567,45.21567,0,0,1-.541-13.5048,51.30642,51.30642,0,0,1,3.03-13.3134c1.7472-4.2606,4.0499-8.6316,8.0852-11.7546a13.38989,13.38989,0,0,1,6.9348-2.8797,11.4579,11.4579,0,0,1,6.8643,1.6182,13.18419,13.18419,0,0,0-10.5886,4.7345,36.54768,36.54768,0,0,0-5.6483,10.4728C1432.3689,829.3516,1430.3518,837.7031,1427.2612,846.2176Z"></path><path fill="#b23030" d="M1462.2108,414.205s-12.873,64.195-32.1773,135.077c-8.1878,29.8351-17.4665,60.8998-27.4612,88.8394-55.9961,54.5019-395.6139,88.2878-485.283,96.3477-13.7846,1.2594-21.6885,1.8693-21.6885,1.8693l-31.8033-53.1977-42.8299-82.0802S924.765,623.9646,941.6709,502.359c137.9787,46.2692,221.7906-20.7409,238.5009-124.3977,89.2717,99.573,192.1777,83.2087,235.8838,29.4594C1441.7929,430.375,1462.2108,414.205,1462.2108,414.205Z"></path><path fill="#e6e8e8" d="M1572.9438,420.384c.9665,42.5801-34.5754,78.7162-82.0777,86.5504,5.3051,4.3121,8.4758,9.404,8.6008,14.9092.3748,16.516-26.0737,30.4993-59.0627,31.248a108.49931,108.49931,0,0,1-11.3669-.3014c.3601-1.1701.6781-2.3391.9962-3.5082,19.3043-70.882,32.1773-135.077,32.1773-135.077l-.0421.0437c-1.0997.8426-21.1223,15.4549-46.1131-6.828-43.7061,53.7493-146.6121,70.1136-235.8838-29.4594-16.7103,103.6568-100.5222,170.6669-238.5009,124.3977-16.9059,121.6056-120.7033,98.7015-120.7033,98.7015l42.8299,82.0802,14.7166,24.6246a93.37473,93.37473,0,0,1-57.5735,21.0156c-32.8603.7459-61.8746-14.9047-77.7772-38.6851-46.8437-4.8753-83.5692-39.8443-84.5503-83.0697-.4979-21.9351,8.2965-42.1017,23.091-57.6278a142.2475,142.2475,0,0,1-20.9721-70.8285c-1.6196-71.3539,50.9437-133.0072,124.8467-155.0388a149.5229,149.5229,0,0,1-2.6228-24.5551c-1.9778-87.1385,72.3317-159.4841,166.0079-161.6103,45.5911-1.0348,87.347,14.8002,118.4175,41.3773,20.8782-54.6514,78.8807-94.6969,148.0403-96.2666,84.7733-1.9242,155.3814,54.6099,162.1207,127.8269a166.04979,166.04979,0,0,1,43.6306-22.9369c68.9055-24.1987,139.9755-.3798,158.7472,53.1137,13.943,39.8325-5.002,84.8869-43.9875,115.2921C1558.0102,371.0207,1572.3493,394.191,1572.9438,420.384Z"></path><ellipse cx="933.064" cy="242.117" fill="#fff" opacity=".5" rx="125.649" ry="72.949" transform="rotate(-14.939 933.082 242.123)"></ellipse><ellipse cx="1221.002" cy="191.337" fill="#fff" opacity=".5" rx="79.233" ry="125.649" transform="rotate(-87.403 1221.002 191.337)"></ellipse><ellipse cx="1463.26" cy="280.612" fill="#fff" opacity=".5" rx="98.696" ry="62.237" transform="rotate(-23.644 1463.26 280.612)"></ellipse><path d="M1462.2108,414.205l-.0421.0437c-1.0997.8426-21.1223,15.4549-46.1131-6.828-43.7061,53.7493-146.6121,70.1136-235.8838-29.4594-16.7103,103.6568-100.5222,170.6669-238.5009,124.3977-16.9059,121.6056-120.7033,98.7015-120.7033,98.7015l42.8299,82.0802,14.7166,24.6246a93.37473,93.37473,0,0,1-57.5735,21.0156c-32.8603.7459-61.8746-14.9047-77.7772-38.6851-46.8437-4.8753-83.5692-39.8443-84.5503-83.0697-.4979-21.9351,8.2965-42.1017,23.091-57.6278a142.2475,142.2475,0,0,1-20.9721-70.8285c-1.6196-71.3539,50.9437-133.0072,124.8467-155.0388,0,0-22.6071,169.9743,145.8974,139.2114,75.1904,47.9526,188.5128,33.5897,247.564-110.0153,54.2716,91.3737,189.2236,100.9622,237.6445,27.4398C1433.0731,417.7925,1462.2108,414.205,1462.2108,414.205Z" style="mix-blend-mode:soft-light" opacity=".6"></path><path d="M1430.0335,549.282c-74.8771,73.9078-337.2275,144.841-512.7442,185.1871-13.7846,1.2594-21.6885,1.8693-21.6885,1.8693l-31.8033-53.1977-42.8299-82.0802S924.765,623.9646,941.6709,502.359c137.9787,46.2692,221.7906-20.7409,238.5009-124.3977,0,0,26.4998,153.1959-151.6513,168.4708C1053.032,587.402,1267.28,520.6156,1430.0335,549.282Z" style="mix-blend-mode:soft-light" opacity=".6"></path><path fill="#e6e8e8" d="M1430.0335,549.282c-8.1878,29.8351-17.4665,60.8998-27.4612,88.8394-64.6264,62.9171-506.9715,98.217-506.9715,98.217l-31.8033-53.1977C894.8369,655.2828,1084.8872,544.2923,1430.0335,549.282Z"></path><path d="M1402.5723,638.1214c-64.6264,62.9171-506.9715,98.217-506.9715,98.217l-31.8033-53.1977c31.0394-27.8579,221.0897-138.8484,566.236-133.8587,0,0-132.1173,5.3223-259.6425,38.5547C1042.8648,621.0258,1311.5923,607.3528,1402.5723,638.1214Z" style="mix-blend-mode:soft-light" opacity=".6"></path><path fill="#b7765a" d="M1438.967,956.1645q-1.4868,2.745-3.2319,5.4955c-1.7436,2.7937-3.6594,5.5913-5.6628,8.3478-28.0515,38.1607-83.2159,72.4185-164.1402,94.1364-119.6325,32.1062-209.5078.7102-264.4962-40.6869-.1752-.125-.3067-.2512-.4819-.3762-.0865-.0411-.1315-.1262-.2186-.1673-22.374-16.9202-38.9333-35.5215-49.2931-52.1121-10.6719-17.0569-19.9515-44.8172-27.7008-75.3231-18.2845-71.8364-28.1407-159.1402-28.1407-159.1402s40.2503-35.3394,124.0452-65.2123c83.4088-29.7782,209.9298-54.166,382.9263-33.0047.1594,3.2238.2747,6.4056.4311,9.5005.0146.645.0733,1.3323.0879,1.9773,2.0446,42.6846,4.6288,76.9228,7.2651,103.9733,4.1991,42.808,8.5517,67.711,11.0645,79.8319,1.3954,6.5093,2.2352,9.3733,2.2352,9.3733C1455.18,877.9943,1459.885,918.4239,1438.967,956.1645Z"></path><path fill="#fff" d="M1410.3564 753.5725c-57.2462-8.1678-130.1177-27.9439-106.4578-56.71 22.6977-27.5824 69.0374-41.1137 99.1927-47.2633C1405.1359 692.2838 1407.7201 726.522 1410.3564 753.5725zM1438.967 956.1645q-1.4868 2.745-3.2319 5.4955a110.464 110.464 0 01-34.342-9.5912c-31.9339-15.3265-46.371-54.2011-31.785-86.5051 10.1632-22.4353 30.9808-30.4384 51.8128-32.1593 1.3954 6.5093 2.2352 9.3733 2.2352 9.3733C1455.18 877.9943 1459.885 918.4239 1438.967 956.1645z" opacity=".11"></path><path d="M1430.0723,970.0078c-124.469,126.1555-343.6091,115.8099-428.6364,53.4495-.1752-.125-.3067-.2512-.4819-.3762-.0865-.0411-.1315-.1262-.2186-.1673-22.374-16.9202-38.9333-35.5215-49.2931-52.1121-10.6719-17.0569-19.9515-44.8172-27.7008-75.3231-18.2845-71.8364-28.1407-159.1402-28.1407-159.1402s40.2503-35.3394,124.0452-65.2123c83.4088-29.7782,209.9298-54.166,382.9263-33.0047.1594,3.2238.2747,6.4056.4311,9.5005-74.9561.2811-258.5879,11.0759-318.7356,108.2741-76.2527,123.2538-46.5822,241.7368,25.8397,281.4901C1182.5725,1077.1383,1371.9321,1022.9231,1430.0723,970.0078Z" style="mix-blend-mode:soft-light" opacity=".3"></path><path fill="#fff" d="M1314.5739,848.6961c-15.3671,11.1499-30.8863,19.4202-30.3802,5.6814a45.1176,45.1176,0,0,1,6.888-22.6193c12.9239-6.9633,24.6296-10.7146,26.4823-3.0109C1318.8014,833.9693,1317.5452,841.1842,1314.5739,848.6961Z" opacity=".11"></path><path d="M1314.5739,848.6961s-26.392,27.7582-46.3171,27.7895-21.2575-11.9818-3.2075-28.3303c-18.6296,12.1275-31.0339,27.7957-8.4356,34.4637s36.1006,1.0709,43.7462-10.9807S1314.5739,848.6961,1314.5739,848.6961Z" style="mix-blend-mode:soft-light" opacity=".3"></path><path fill="#280303" d="M1108.3856,936.3836s-19.5912,27.106-18.2404,49.5269,53.6255,38.0732,90.8175,32.1774,71.7134-30.5341,85.9373-71.5505S1108.3856,936.3836,1108.3856,936.3836Z"></path><path fill="#fff" d="M1245.9236,937.1795a58.65147,58.65147,0,0,1-4.544,15.939,8.69628,8.69628,0,0,0-.4095.9131l-.043.001a46.97217,46.97217,0,0,1-15.2331,18.9788c-2.8937,1.4427-5.7467,2.7553-8.6447,3.983-.1282.046-.2133.0908-.3415.1367-54.1757,22.832-107.1294,8.4993-110.9464-4.1948-4.0475-13.3773,2.641-44.8134,2.641-44.8134Z"></path><path fill="#e5e5e5" d="M1245.9236,937.1795a58.65147,58.65147,0,0,1-4.544,15.939l-.3674.8691-.0421.044-.043.001c-1.9999.9922-42.8262,20.4657-108.1598,12.3953-3.1681,19.6946,49.4246,23.7938,83.9405,10.7032-54.1757,22.832-107.1294,8.4993-110.9464-4.1948-4.0475-13.3773,2.641-44.8134,2.641-44.8134Z"></path><path fill="#b7765a" d="M940.9321,948.9202c-2.2111,1.4335-4.6272,2.8258-7.2077,4.2183-79.5301,42.386-106.5178-65.8522-80.7178-96.8535,6.2659-7.4534,12.7777-11.6714,19.0026-13.5144,20.1075-6.2659,38.1268,9.2964,38.1268,9.2964a184.26,184.26,0,0,1,21.4183,14.9476l.1224.082c8.2726,6.6753,17.2415,15.1116,23.5889,24.5307l.041.041C967.306,909.4009,969.968,930.4505,940.9321,948.9202Z"></path><path d="M940.9321,948.9202c-.041.041-.041.041-.0815.041-43.0004,19.4116-76.5-27.9298-75.9266-53.3206.6144-25.4315,24.3672-15.9715,24.3672-15.9715a89.02235,89.02235,0,0,0-17.282-36.8985c20.1075-6.2659,38.1268,9.2964,38.1268,9.2964a184.26,184.26,0,0,1,21.4183,14.9476l.1224.082c4.5462,8.3133,13.9656,16.5448,23.5889,24.5307l.041.041C967.306,909.4009,969.968,930.4505,940.9321,948.9202Z" style="mix-blend-mode:soft-light" opacity=".3"></path><path fill="#995942" d="M929.5991,933.3512c-5.3269-6.3124-10.0388-12.6291-14.7544-18.8147-4.7708-6.1353-9.4607-12.1407-14.4596-17.5947-5.0415-5.3447-10.337-10.2786-16.3878-13.0737-6.0081-2.8407-13.2137-2.4815-21.0449.5827a22.57526,22.57526,0,0,1,23.6056-9.1195c9.2668,1.9295,16.4464,7.772,22.2173,13.8658a82.05177,82.05177,0,0,1,13.6613,20.7357A76.87816,76.87816,0,0,1,929.5991,933.3512Z"></path><path fill="#333" d="M1000.1912,825.5294a264.9909,264.9909,0,0,1-19.0432,19.944c-3.8903,3.6859-7.9856,7.4125-12.3678,11.1393,0,0-.3684,1.4742-.9008,4.0953a141.83833,141.83833,0,0,0-2.3346,21.3365c-.5319,15.6437,1.5157,35.8337,12.2038,52.3375-27.6021-14.1287-41.0752-21.6639-54.0165-38.9051-1.9246-7.6172-3.7673-15.3983-5.5285-23.2202v-.041c-3.1125-14.0468-5.9385-28.2165-8.436-41.8946-2.826-15.4803-5.2421-30.2642-7.2897-43.3692-4.5462-29.7317-6.8803-50.6176-6.8803-50.6176s40.2564-35.3423,124.0462-65.1968a4.88041,4.88041,0,0,0,.4094.5732C1037.3762,697.4702,1061.17,754.5991,1000.1912,825.5294Z"></path><ellipse cx="1135.801" cy="796.491" rx="34.3" ry="51.345" transform="rotate(-4.29 1135.801 796.491)" style="mix-blend-mode:soft-light" opacity=".3"></ellipse><ellipse cx="1138.416" cy="812.779" fill="#333" rx="21.604" ry="26.935" transform="rotate(-1.3 1138.415 812.779)"></ellipse><path fill="#fff" d="M1150.5598 803.944c.1283 5.6545-3.5726 10.3247-8.2663 10.4312s-8.6027-4.391-8.731-10.0454 3.5726-10.3246 8.2663-10.4312S1150.4315 798.2896 1150.5598 803.944zM1136.3213 819.422a4.91007 4.91007 0 11-5.0202-4.7973A4.91007 4.91007 0 011136.3213 819.422z"></path><ellipse cx="1342.721" cy="783.764" rx="30.956" ry="46.338" transform="rotate(-7.876 1342.72 783.764)" style="mix-blend-mode:soft-light" opacity=".3"></ellipse><ellipse cx="1345.995" cy="798.288" fill="#333" rx="19.498" ry="24.309" transform="rotate(-4.885 1345.995 798.288)"></ellipse><ellipse cx="1348.791" cy="790.298" fill="#fff" rx="7.672" ry="9.242" transform="rotate(-4.886 1348.79 790.297)"></ellipse><path fill="#fff" d="M1344.4838,804.3893a4.4313,4.4313,0,1,1-4.7926-4.0378A4.43127,4.43127,0,0,1,1344.4838,804.3893Z"></path><path fill="#995942" d="M1273.09,884.666c6.5893.3955,12.2492-2.6461,16.9318-6.5319a67.56967,67.56967,0,0,0,12.0565-13.9013,86.7748,86.7748,0,0,0,8.4097-16.3119c2.1466-5.5633,3.745-11.6549,3.1403-16.7282a8.527,8.527,0,0,0-.2936-1.5822,1.7559,1.7559,0,0,0-.193-.4909c-.0256-.0656-.3656-.3699-1.4276-.4272a23.82483,23.82483,0,0,0-7.7813,1.5734c-5.6922,1.8591-11.3118,4.8519-16.969,7.6638-11.2301,5.8984-22.288,12.4514-33.6145,18.7833a190.35218,190.35218,0,0,1,30.2208-24.5767,103.16666,103.16666,0,0,1,17.5508-9.5172,28.99365,28.99365,0,0,1,11.0039-2.324,10.27907,10.27907,0,0,1,7.2903,3.0766,9.75324,9.75324,0,0,1,2.0926,3.699,15.42921,15.42921,0,0,1,.6629,3.136c.6163,7.8267-1.5255,14.5178-4.1649,20.7931a76.799,76.799,0,0,1-10.5483,17.2083,59.64519,59.64519,0,0,1-15.0368,13.3759,33.3999,33.3999,0,0,1-9.4561,3.7078A19.06772,19.06772,0,0,1,1273.09,884.666Z"></path><path fill="#333" d="M1305.9517 948.4686c-16.1132 1.0544-32.4724 2.6304-48.8772 4.1217-50.2876 4.5408-101.1064 8.4484-145.6372-4.4833-59.0431-17.2068-47.6713-73.5789-47.6713-73.5789.6672 19.9088 5.0259 39.4326 26.82 49.7819 21.7942 10.3495 33.4327-.1563 58.5658-24.6958 25.1322-24.5825 47.1491-27.1908 83.2916-21.6852 51.7989 10.8302 47.706 6.835 68.0518 2.6725s41.6748-4.819 52.0915.9692c10.3736 5.832 17.3636 18.0239 33.538 25.3595s24.5189-8.0011 23.7511-22.8729C1421.8204 923.0747 1374.5412 940.7151 1305.9517 948.4686zM1178.2136 723.9423c-6.7573 1.8317-16.1457 5.3151-26.0829 9.2416-5.6709 2.3234-11.511 4.7365-17.1359 7.1878-4.2199 1.7741-8.2676 3.5443-12.0179 5.1785-8.3086 3.6312-15.1649 6.7991-18.9557 8.5204-2.0019.9061-3.1085 1.4476-3.1085 1.4476-13.0231-4.9973-22.1642-24.7569-22.1642-24.7569 1.5201-3.1757 3.1293-6.2246 4.7413-9.1445a137.0257 137.0257 0 0113.3585-20.0549 102.118 102.118 0 0112.1425-12.9271 79.30461 79.30461 0 0113.5884-9.9045c8.749-5.1043 17.4706-7.6259 25.5971-7.8965C1170.6211 670.0231 1185.6089 702.8178 1178.2136 723.9423z"></path><path d="M1122.9769 745.5502c-8.3086 3.6312-15.1649 6.7991-18.9557 8.5204a128.392 128.392 0 01-20.5314-32.4538 137.0257 137.0257 0 0113.3585-20.0549C1100.2399 712.5873 1107.8498 731.2628 1122.9769 745.5502zM1152.1307 733.1839c-5.6709 2.3234-11.511 4.7365-17.1359 7.1878-8.6269-10.3899-21.0457-28.5691-26.004-51.7369a79.30461 79.30461 0 0113.5884-9.9045C1125.41 691.5757 1133.0559 715.6294 1152.1307 733.1839z" style="mix-blend-mode:soft-light" opacity=".3"></path><path fill="#333" d="M1381.1407,706.2976c-2.9399,5.1017-7.3366,12.3447-9.9858,15.0728-2.1027,2.1563-17.2148-.0826-32.8224-3.3001-2.3349-.5064-4.6703-1.0128-6.9626-1.5202-2.897-.6227-5.7099-1.2903-8.3916-1.9181-5.3223-1.2991-10.1272-2.5243-13.8524-3.6014-3.118-.8761-5.5024-1.6396-6.805-2.1695-8.4282-3.5094,6.8805-28.6435,15.1846-38.1699,3.1457-3.6001,8.2725-5.2225,13.9443-5.6094a50.27143,50.27143,0,0,1,16.3038,1.6523,44.55652,44.55652,0,0,1,8.0686,2.8723c.4804.2903.9588.5377,1.3952.7859a44.341,44.341,0,0,1,4.9412,3.4596c6.3955,4.9757,14.1899,12.8028,18.605,19.6307A12.27562,12.27562,0,0,1,1381.1407,706.2976Z"></path><path d="M1347.7536 666.7341c-14.6649 15.5665-22 37.4642-24.7753 47.8979-5.3223-1.2991-10.1272-2.5243-13.8524-3.6014a120.3099 120.3099 0 0122.3239-45.9488A50.27143 50.27143 0 011347.7536 666.7341zM1362.1586 673.8519c-12.869 15.0522-20.48 34.2882-23.8261 44.2184-2.3349-.5064-4.6703-1.0128-6.9626-1.5202 8.8821-25.7628 19.3448-40.6742 24.4523-46.9437.4804.2903.9588.5377 1.3952.7859A44.341 44.341 0 011362.1586 673.8519zM1257.0745 952.5903c-50.2876 4.5408-101.1064 8.4484-145.6372-4.4833-59.0431-17.2068-47.6713-73.5789-47.6713-73.5789.6672 19.9088 5.0259 39.4326 26.82 49.7819 21.7942 10.3495 33.4327-.1563 58.5658-24.6958 25.1322-24.5825 47.1491-27.1908 83.2916-21.6852 51.7989 10.8302 47.706 6.835 68.0518 2.6725 0 0-19.4838 13.6962-50.2986 9.748C1222.7495 886.8844 1204.3604 929.8608 1257.0745 952.5903zM967.8794 860.708a141.83833 141.83833 0 00-2.3346 21.3365 226.61036 226.61036 0 01-47.3412-9.7878v-.041c-3.1125-14.0468-5.9385-28.2165-8.436-41.8946C926.6806 844.4088 948.3038 854.1554 967.8794 860.708zM1000.1912 825.5294a264.9909 264.9909 0 01-19.0432 19.944c-18.0598-9.5008-44.8021-26.9878-78.6701-58.5215-4.5462-29.7317-6.8803-50.6176-6.8803-50.6176s40.2564-35.3423 124.0462-65.1968a4.88041 4.88041 0 00.4094.5732C999.4128 692.0234 942.0789 758.8174 1000.1912 825.5294z" style="mix-blend-mode:soft-light" opacity=".3"></path></g></svg>