<svg xmlns="http://www.w3.org/2000/svg" viewBox="0 0 2800 1900" id="chef-showing-smartphone-for-online-order"><g data-name="Layer 1"><ellipse cx="1342.142" cy="1727.757" fill="#d1bfb2" rx="522.44" ry="89.814"></ellipse><path fill="#b7765a" d="M1003.5368,1285.5248s-33.694-4.9647-34.8813,0-2.7705,39.7941,2.3747,47.1161,18.9978,11.28,27.3093,12.4674,29.6841-3.3642,37.0062-8.5095,18.602-13.061,22.1641-34.8293,8.5094-72.0333,8.5094-72.0333l2.5726-20.1852-32.2567-.7915s-23.7472,25.3304-23.7472,28.1009S1003.5368,1285.5248,1003.5368,1285.5248Z"></path><path d="M1068.5936,1209.5441l-2.5894,20.1886s-.89,9.0221-2.1849,21.0786c-9.9931,8.2132-44.1802,37.8289-51.2199,63.8028-4.5318,16.5878,8.4557,21.7261,21.2811,22.899-8.3751,4.7743-27.7143,8.6992-35.5225,7.6067-8.3346-1.2139-22.171-5.1383-27.3093-12.4615-5.1788-7.3227-3.6008-42.1572-2.3874-47.1335,1.1735-4.9763,34.8755,0,34.8755,0s9.0626-45.88,9.0626-48.6714c0-2.7514,23.749-28.0783,23.749-28.0783Z" style="mix-blend-mode:soft-light" opacity=".3"></path><path fill="#995942" d="M998.538,1320.965c2.7369-8.1169,6.8792-15.0077,11.4168-21.6948,2.5979-3.4042,3.9855-6.088,2.9278-7.9472-1.3767-2.3621-5.6226-4.07-9.3464-5.7983a21.02453,21.02453,0,0,1,6.4336-.1875,11.10533,11.10533,0,0,1,6.5725,2.9803c2.2572,2.0371,2.4358,5.7977,1.7065,8.1653a21.53309,21.53309,0,0,1-3.1704,6.0321C1010.2969,1309.2095,1005.1201,1315.7003,998.538,1320.965Z"></path><path fill="#6b6b6b" d="M1621.1999,1727.0381c-3.8237,13.8178-42.9749,13.9482-91.1209,11.0807-65.3968-3.9549-114.2815,10.9497-123.8412-9.256-.1305-.2605-.2607-.5209-.3477-.7384-6.431-15.7305-1.6947-42.1927,1.2603-55.0552,1.0863-4.6057,2.3464-9.212,2.3464-9.212l62.3985-25.4634a2.90736,2.90736,0,0,0,.2172.4344c1.347,3.3025,10.9502,24.681,32.1119,31.9814a64.622,64.622,0,0,0,10.8632,2.4766c23.769,3.7809,60.0956,1.9992,90.6865,28.7664,1.1733,1.0428,2.3031,2.0857,3.4329,3.172C1619.1142,1714.784,1622.6339,1721.8669,1621.1999,1727.0381Z"></path><path d="M1621.1999,1727.0381c-3.8237,13.8178-42.9749,13.9482-91.1209,11.0807-65.3968-3.9549-114.2815,10.9497-123.8412-9.256-.1305-.2605-.2607-.5209-.3477-.7384-6.431-15.7305-1.6947-42.1927,1.2603-55.0552,1.0863-4.6057,2.3464-9.212,2.3464-9.212l62.3985-25.4634a2.90736,2.90736,0,0,0,.2172.4344c1.347,3.3025,10.9502,24.681,32.1119,31.9814a64.622,64.622,0,0,0,10.8632,2.4766c-8.5166,4.2588-23.117,9.8204-46.1906,13.8183-42.106,7.2133-60.5735,39.1077,33.0245,37.3695C1564.9284,1723.3442,1601.6895,1729.5147,1621.1999,1727.0381Z" style="mix-blend-mode:soft-light" opacity=".3"></path><path fill="#6b6b6b" d="M1219.042,1723.5181c-.0867.2175-.2172.4785-.3474.7389-9.5597,20.2058-58.4444,5.3012-123.8412,9.2556-66.1791,3.9538-115.4115,2.1726-79.128-32.8943,1.1298-1.0863,2.2596-2.1292,3.4327-3.172,35.7185-31.286,79.3018-23.5947,101.5497-31.2425,21.1616-7.3003,30.7648-28.6794,32.1118-31.9819a2.884,2.884,0,0,0,.2173-.4339l62.3558,25.4463s1.303,4.6229,2.3893,9.2292C1220.7368,1681.3254,1225.4733,1707.7882,1219.042,1723.5181Z"></path><path d="M1218.6946,1724.257c-9.5597,20.2058-58.4444,5.3012-123.8412,9.2556-66.1791,3.9538-115.4115,2.1726-79.128-32.8943,1.1298-1.0863,2.2596-2.1292,3.4327-3.172,35.7185-31.286,79.3018-23.5947,101.5497-31.2425,21.1616-7.3003,30.7648-28.6794,32.1118-31.9819a2.884,2.884,0,0,0,.2173-.4339l62.3558,25.4463s1.303,4.6229,2.3893,9.2292c-12.3408,4.7797-37.2393,10.6458-86.9061,12.8184-88.905,3.8674-66.2659,49.4496,47.4072,44.9303C1193.6221,1725.5603,1207.0057,1724.9089,1218.6946,1724.257Z" style="mix-blend-mode:soft-light" opacity=".3"></path><path fill="#333" d="M1271.4733,1481.1426c-4.2898,10.67-9.1675,24.4538-14.2396,39.639-19.704,59.0507-42.045,139.1819-42.045,139.1819s-11.7049,4.4335-38.3047,6.3664a409.93577,409.93577,0,0,1-56.1886-.1066c-9.5199-105.2144-5.2292-194.8804-5.2292-194.8804S1292.4525,1428.8985,1271.4733,1481.1426Z"></path><path d="M1271.4733,1481.1426c-4.2898,10.67-9.1675,24.4538-14.2396,39.639-32.5557,9.3108-95.8511,41.0256-80.3497,145.5483a409.93577,409.93577,0,0,1-56.1886-.1066c-9.5199-105.2144-5.2292-194.8804-5.2292-194.8804S1292.4525,1428.8985,1271.4733,1481.1426Z" style="mix-blend-mode:soft-light" opacity=".3"></path><path fill="#333" d="M1504.2244,1670.8531c-15.2521.9563-28.4617,1.1733-39.7594.9129-6.0401-.174-11.5152-.435-16.4254-.8259-26.5932-1.9122-38.3256-6.3445-38.3256-6.3445s-22.3349-80.1272-42.019-139.1797c-5.084-15.2086-9.9507-28.9834-14.2527-39.6292-20.9877-52.2741,155.9965-9.8204,155.9965-9.8204s.4344,9.6464.7386,26.2893A1620.05887,1620.05887,0,0,1,1504.2244,1670.8531Z"></path><path d="M1464.465,1671.766c-6.0401-.174-11.5152-.435-16.4254-.8259-26.5932-1.9122-38.3256-6.3445-38.3256-6.3445s-22.3349-80.1272-42.019-139.1797c-5.084-15.2086-9.9507-28.9834-14.2527-39.6292-20.9877-52.2741,155.9965-9.8204,155.9965-9.8204s.4344,9.6464.7386,26.2893C1482.3676,1520.3752,1433.1787,1568.478,1464.465,1671.766Z" style="mix-blend-mode:soft-light" opacity=".3"></path><path fill="#e6e8e8" d="M1757.1128,1173.6571c-15.2934,141.9685-169.1563,71.0045-169.1563,71.0045.324,1.6994.607,3.4393.9304,5.1383.0405.162.0405.2834.081.4449,8.4562,47.3365,15.8594,94.2275,21.4431,131.4494,6.7562,45.0701,10.8021,75.8993,10.8021,75.8993-168.1444,65.0973-337.8672,51.8673-446.3761,30.9507-71.8944-13.7959-116.9245-30.9507-116.9245-30.9507-.8495-6.1897-1.5774-12.5824-2.1849-19.0557q-1.15275-11.5914-1.8609-23.5465c-4.2483-72.0564,2.0634-151.3145,4.6123-178.9069l.1615-1.4564s.081-.809.243-2.3869c.3645-4.0863.6069-6.3112.6069-6.3112s-1.5779,2.5484-4.4098,6.6752c-8.6986,12.704-29.2107,40.1748-51.5438,52.9197-42.8862-17.4782-73.9173-38.5973-93.863-62.6293-48.2269-57.8555-32.4071-132.5009,35.8455-213.6199,96.5744-114.7806,169.3993-106.0815,169.3993-106.0815l381.9258-25.3269,36.7769,11.935,29.2512,9.4671,27.0259,18.2467s162.5616,101.7122,167.9829,232.3926A161.40005,161.40005,0,0,1,1757.1128,1173.6571Z"></path><path d="M1757.1128,1173.6571c-2.9939,27.9978-11.4095,47.7005-22.9805,61.2949-17.9638-5.7453-48.8735-8.5371-70.357,27.3903-39.2849-.8499-75.8188-17.6807-75.8188-17.6807.324,1.6994.607,3.4393.9304,5.1383l-17.1137-87.2688-.2835-1.456-3.8029-21.7265s151.7186,8.7391,190.1945,10.56A161.40005,161.40005,0,0,1,1757.1128,1173.6571Z" style="mix-blend-mode:soft-light" opacity=".6"></path><path fill="#b7765a" d="M1187.1961,947.5671s37.9956,61.4516,112.9314,96.2809c98.1553-26.3859,124.0134-112.8215,124.0134-112.8215l-166.5728-18.0523"></path><path fill="#b23030" d="M1174.837,1488.5442c-71.8944-13.7959-116.9245-30.9507-116.9245-30.9507-1.8609-13.5939-3.1559-27.9568-4.0458-42.6022a1124.35243,1124.35243,0,0,0,121.2128,17.3968C1174.7965,1454.3977,1174.756,1473.3724,1174.837,1488.5442Z"></path><path d="M1174.837,1488.5442c-71.8944-13.7959-116.9245-30.9507-116.9245-30.9507-1.8609-13.5939-3.1559-27.9568-4.0458-42.6022a1124.35243,1124.35243,0,0,0,121.2128,17.3968C1174.7965,1454.3977,1174.756,1473.3724,1174.837,1488.5442Z" style="mix-blend-mode:soft-light" opacity=".3"></path><path fill="#b23030" d="M1621.2131,1457.5935c-168.1444,65.0973-337.8672,51.8673-446.3761,30.9507-.081-15.1718-.0405-34.1465.2425-56.1561,1.133-85.4884,5.9073-216.7753,22.6166-349.2762,201.7654-61.9013,244.7555-201.6378,244.7555-201.6378l16.8474,32.077c5.1382,2.1445,10.722,4.6124,16.7502,7.2417-42.5622,111.1798-201.0374,191.7324-201.0374,191.7324q-13.1694,174.9615-11.207,324.1512c102.4401.931,222.035-12.178,346.6062-54.9822C1617.1672,1426.7643,1621.2131,1457.5935,1621.2131,1457.5935Z"></path><path fill="#7c7c7c" d="M1587.9468,1244.6765c-5.9088-19.7968-10.2541-39.8403-14.4536-59.9137-4.036-20.1123-7.8907-40.2205-10.5622-60.7022,7.1437,19.3967,12.0533,39.4184,16.2556,59.5375C1583.213,1203.7601,1586.5374,1224.0639,1587.9468,1244.6765Z"></path><path fill="#b7765a" d="M1654.4306,1070.7075c-4.3408,25.5329-15.1658,47.7162-35.9524,62.1228-1.7436,1.2011-3.4891,2.3572-5.1915,3.4665-70.9406,46.2538-109.0846,8.0173-120.2471-32.6823a97.74315,97.74315,0,0,1-3.4948-23.925c-.3332-19.5283,8.0896-42.1885,18.6035-65.3012l-.002-.0449c7.527-16.5548,16.1224-33.3373,23.3129-49.3829l.0429-.0469c6.8578-15.4467,12.492-30.1198,14.6871-43.3368,5.4513-32.8603-7.2421-65.5845-3.4733-81.7918,1.5049-6.5368,5.6901-10.4078,14.7591-10.5433,31.604-.5579,57.0259,38.5164,57.0259,38.5164S1668.85,987.1729,1654.4306,1070.7075Z"></path><path d="M1654.4306,1070.7075c-13.0337,24.0343-27.0711,46.7204-41.1439,65.5893-70.9406,46.2538-109.0846,8.0173-120.2471-32.6823,30.4018-1.3132,57.267-19.4504,71.7298-59.7671,5.7168-15.845,9.5247-35.199,10.7841-58.3029.0923-.9477.138-1.938.1857-2.8837,3.8341-81.1297-24.2154-129.7461-33.0233-142.8758,1.5049-6.5368,5.6901-10.4078,14.7591-10.5433,31.604-.5579,57.0259,38.5164,57.0259,38.5164S1668.85,987.1729,1654.4306,1070.7075Z" style="mix-blend-mode:soft-light" opacity=".3"></path><path fill="#444343" d="M1914.7986,779.8472l-28.7806,430.1205a21.739,21.739,0,0,1-23.1079,20.271l-260.295-17.4171a21.74816,21.74816,0,0,1-20.2011-23.169l28.7806-430.1204a21.71977,21.71977,0,0,1,23.1078-20.2711l260.295,17.4171A21.74905,21.74905,0,0,1,1914.7986,779.8472Z"></path><path fill="#a8d5dd" d="M1868.3003,1180.9606l25.0718-374.6921a18.93622,18.93622,0,0,0-17.6199-20.1666l-226.6916-15.1686a18.93616,18.93616,0,0,0-20.1496,17.6394l-25.0717,374.6921a18.93608,18.93608,0,0,0,17.6199,20.1666L1848.1507,1198.6A18.936,18.936,0,0,0,1868.3003,1180.9606Z"></path><path d="M1874.1605,1227.9329a21.93537,21.93537,0,0,1-11.2504,2.3058l-260.295-17.4171a21.74816,21.74816,0,0,1-20.2011-23.169l28.7806-430.1204a21.88713,21.88713,0,0,1,8.9192-16.1785c4.9069,9.583,10.2796,20.1072,16.1282,31.4077,57.2158,110.9306,155.2963,296.8235,221.4238,421.9874C1863.4542,1207.6317,1869.008,1218.0852,1874.1605,1227.9329Z" style="mix-blend-mode:soft-light" opacity=".3"></path><rect width="223.649" height="19.712" x="1644.196" y="806.761" fill="#fff" transform="rotate(3.827 1756.103 816.689)"></rect><rect width="223.649" height="19.712" x="1641.951" y="840.312" fill="#fff" transform="rotate(3.827 1753.857 850.242)"></rect><rect width="223.649" height="19.712" x="1636.541" y="921.17" fill="#fff" transform="rotate(3.827 1748.445 931.105)"></rect><path fill="#b7765a" d="M1972.2277,998.063c-3.465,19.854-17.9291,44.865-54.0715,39.8308-33.629-4.7366-53.1102-9.7559-61.2857-25.3014-8.4631-15.8881-3.7898-35.9542,9.9807-47.4575a9.54962,9.54962,0,0,1,1.3695-1.1507c22.4345-17.18,57.9891-19.1003,57.9891-19.1003,26.4506-.3277,43.1977,19.7684,46.4192,36.6308C1973.4628,985.6331,1973.4239,991.5807,1972.2277,998.063Z"></path><path fill="#b7765a" d="M1957.4569,1083.4293c-4.8973,16.2389-18.2722,33.2507-46.8096,29.2721-29.9482-4.1801-47.3302-8.6999-54.7039-22.51-6.1398-11.5608-4.4534-25.5381,3.0308-35.9192a33.07312,33.07312,0,0,1,7.1535-7.474c20.0527-15.3227,51.7002-17.0257,51.7002-17.0257,23.6667-.2521,38.6227,17.6263,41.4429,32.7081C1960.1867,1067.4793,1959.8985,1075.389,1957.4569,1083.4293Z"></path><path fill="#b7765a" d="M1942.3442 1142.5032c-3.3919 13.5123-14.0557 28.5375-38.0388 25.1117-24.0688-3.3534-38.1189-6.9503-43.9779-18.0901a27.24311 27.24311 0 01.405-25.7523 29.26082 29.26082 0 017.7761-9.1655c16.0641-12.3357 41.5727-13.6976 41.5727-13.6976 19.0651-.2534 31.0646 14.1951 33.3493 26.2948A36.01272 36.01272 0 011942.3442 1142.5032zM1976.6015 926.4751c-6.3115 16.9891-21.3846 33.4573-51.3328 29.2771-33.629-4.7367-53.1102-9.7559-61.2857-25.3014-7.0993-13.3103-4.9003-29.5445 4.0458-41.2272a37.54517 37.54517 0 017.3044-7.381c22.4344-17.1801 57.989-19.1003 57.989-19.1003 26.4439-.2494 43.1978 19.7684 46.4193 36.6303C1980.9352 905.7446 1980.3504 916.1676 1976.6015 926.4751z"></path><path d="M1942.3442 1142.5032c-3.3919 13.5123-14.0557 28.5375-38.0388 25.1117-24.0688-3.3534-38.1189-6.9503-43.9779-18.0901a27.24311 27.24311 0 01.405-25.7523C1867.2084 1136.9494 1886.593 1157.75 1942.3442 1142.5032zM1957.4569 1083.4293c-4.8973 16.2389-18.2722 33.2507-46.8096 29.2721-29.9482-4.1801-47.3302-8.6999-54.7039-22.51-6.1398-11.5608-4.4534-25.5381 3.0308-35.9192C1863.2188 1069.3979 1881.4442 1095.3352 1957.4569 1083.4293zM1972.2277 998.063c-3.465 19.854-17.9291 44.865-54.0715 39.8308-33.629-4.7366-53.1102-9.7559-61.2857-25.3014-8.4631-15.8881-3.7898-35.9542 9.9807-47.4575-1.5712 10.8137.53 35.1166 48.012 37.4826C1941.886 1003.9258 1960.197 1001.3852 1972.2277 998.063zM1976.6015 926.4751c-6.3115 16.9891-21.3846 33.4573-51.3328 29.2771-33.629-4.7367-53.1102-9.7559-61.2857-25.3014-7.0993-13.3103-4.9003-29.5445 4.0458-41.2272C1874.9729 907.9953 1898.3043 936.3584 1976.6015 926.4751z" style="mix-blend-mode:soft-light" opacity=".3"></path><path fill="#b23030" d="M1078.7891,1115.2761l-15.4143,81.402-4.7343,37.9499c.5265-5.5833.8499-8.6981.8499-8.6981s-26.3788,42.7237-55.9536,59.5949c-42.8862-17.4782-73.9173-38.5973-93.863-62.6293,60.08-34.1875,107.295-107.9029,122.0623-132.7844C1050.7918,1100.6302,1069.969,1111.0278,1078.7891,1115.2761Z"></path><path d="M1610.411,1381.6942c-77.5992,101.1858-329.452,118.3-554.6834,56.8436q-1.15275-11.5914-1.8609-23.5465c-4.2483-72.0564,2.0634-151.3145,4.6123-178.9069l.1615-1.4564s.081-.809.243-2.3869c1.9824-18.4087,15.6578-139.0956,42.6027-210.8685C1167.9183,1211.1215,1378.4634,1373.3596,1610.411,1381.6942Z" style="mix-blend-mode:soft-light" opacity=".6"></path><path d="M1055.0806,1232.6051c-8.6986,12.704-29.2107,40.1748-51.5438,52.9197-42.8862-17.4782-73.9173-38.5973-93.863-62.6293-48.2269-57.8555-32.4071-132.5009,35.8455-213.6199,96.5744-114.7806,169.3993-106.0815,169.3993-106.0815l381.9258-25.3269,36.7769,11.935c-18.8537,46.6485-111.7058,209.3311-465.0277,107.6189-113.6067,50.6538-114.8207,147.4707-101.1457,170.6937C979.3428,1188.344,1039.7468,1223.826,1055.0806,1232.6051Z" style="mix-blend-mode:soft-light" opacity=".6"></path><path fill="#b23030" d="M1643.4976,439.413s-23.2262,57.9323-53.6098,121.0008c-12.8469,26.5354-26.9246,54.0313-41.1213,78.4701-61.6664,41.2311-383.6932,12.9786-468.5669,4.7121-13.051-1.2517-20.5147-2.0747-20.5147-2.0747l-20.2838-55.5034-25.4879-84.5364s92.6004,39.799,129.6364-71.263c120.323,67.7442,210.0707,19.6915,243.7807-74.5721,65.6511,109.1381,164.3001,111.9527,214.3954,69.2583C1621.6608,450.9744,1643.4976,439.413,1643.4976,439.413Z"></path><path fill="#e6e8e8" d="M1745.4832,464.7508c-6.5588,40.1036-45.9699,67.7205-91.5562,66.6843,4.1826,4.9802,6.2419,10.3152,5.3939,15.5002-2.544,15.5554-29.6111,24.0016-60.4476,18.8817a102.1139,102.1139,0,0,1-10.5273-2.2888c.5401-1.0339,1.0409-2.074,1.5418-3.1144,30.3836-63.0685,53.6098-121.0008,53.6098-121.0008l-.0468.0337c-1.1712.5961-22.3672,10.7662-41.7251-14.542-50.0953,42.6944-148.7443,39.8798-214.3954-69.2583-33.71,94.2636-123.4577,142.3163-243.7807,74.5721-37.036,111.062-129.6364,71.263-129.6364,71.263l25.4879,84.5364,9.3848,25.6911a87.86272,87.86272,0,0,1-57.2692,9.5482c-30.7164-5.1-54.9809-24.8983-65.6173-50.0069-42.7471-12.8394-70.8053-52.1161-64.1472-92.8275,3.3787-20.6593,15.0967-38.0201,31.5866-49.9699a136.70926,136.70926,0,0,1-7.1141-70.1267c10.9908-67.2039,70.7147-115.7477,143.361-123.3667a143.7465,143.7465,0,0,1,1.8598-23.4915c13.4222-82.0705,95.2598-136.8039,182.824-122.2653,42.6165,7.0758,78.7083,29.2957,102.9728,59.7041,29.0056-47.5692,90.0075-74.8885,154.6546-64.1549,79.2422,13.1568,135.0602,78.6377,128.5084,148.4925a156.40585,156.40585,0,0,1,44.628-13.8108c68.3743-10.5335,130.3527,24.3476,138.4551,77.8285,6.0008,39.817-19.5245,78.727-61.1371,100.3616C1740.2297,415.8207,1749.5178,440.0812,1745.4832,464.7508Z"></path><ellipse cx="1181.122" cy="184.636" fill="#fff" opacity=".5" rx="119.009" ry="69.612" transform="rotate(-4.348 1181.121 184.636)"></ellipse><ellipse cx="1458.023" cy="187.83" fill="#fff" opacity=".5" rx="75.581" ry="119.052" transform="rotate(-76.519 1458.023 187.83)"></ellipse><ellipse cx="1667.874" cy="314.311" fill="#fff" opacity=".5" rx="93.513" ry="59.369" transform="rotate(-13.209 1667.874 314.31)"></ellipse><path d="M1643.4976,439.413l-.0468.0337c-1.1712.5961-22.3672,10.7662-41.7251-14.542-50.0953,42.6944-148.7443,39.8798-214.3954-69.2583-33.71,94.2636-123.4577,142.3163-243.7807,74.5721-37.036,111.062-129.6364,71.263-129.6364,71.263l25.4879,84.5364,9.3848,25.6911a87.86272,87.86272,0,0,1-57.2692,9.5482c-30.7164-5.1-54.9809-24.8983-65.6173-50.0069-42.7471-12.8394-70.8053-52.1161-64.1472-92.8275,3.3787-20.6593,15.0967-38.0201,31.5866-49.9699a136.70926,136.70926,0,0,1-7.1141-70.1267c10.9908-67.2039,70.7147-115.7477,143.361-123.3667,0,0-50.8147,155.4176,111.414,156.306,61.5862,58.2416,169.58,64.7715,249.6973-59.4843,34.5099,95.2715,158.4407,128.0811,216.3879,67.675C1615.7486,437.6351,1643.4976,439.413,1643.4976,439.413Z" style="mix-blend-mode:soft-light" opacity=".6"></path><path d="M1589.8878,560.4138c-82.6396,56.0984-339.2542,76.3206-509.6882,83.1822-13.051-1.2517-20.5147-2.0747-20.5147-2.0747l-20.2838-55.5034-25.4879-84.5364s92.6004,39.799,129.6364-71.263c120.323,67.7442,210.0707,19.6915,243.7807-74.5721,0,0-2.1682,148.349-170.6629,131.233C1232.306,529.6283,1443.4216,504.8058,1589.8878,560.4138Z" style="mix-blend-mode:soft-light" opacity=".6"></path><path fill="#e6e8e8" d="M1589.8878,560.4138c-12.8469,26.5354-26.9246,54.0313-41.1213,78.4701-71.1733,47.6-489.0816,2.6374-489.0816,2.6374l-20.2838-55.5034C1073.1715,565.3699,1269.5071,494.8206,1589.8878,560.4138Z"></path><path d="M1548.7665,638.8839c-71.1733,47.6-489.0816,2.6374-489.0816,2.6374l-20.2838-55.5034c33.7704-20.648,230.106-91.1973,550.4867-25.6041,0,0-123.9042-18.3254-248.4228-9.6655C1216.953,559.3675,1469.4737,593.9713,1548.7665,638.8839Z" style="mix-blend-mode:soft-light" opacity=".6"></path><path fill="#b7765a" d="M1077.4219,837.5884c-.0354-.0168-.0354-.0168-.088.0019-1.1545.5-2.414,1.0375-3.7279,1.5054-70.9543,26.753-81.7334-66.4435-56.8664-89.5733,6.0634-5.5057,11.9354-8.3079,17.3343-9.1945,17.4251-3.0381,30.7703,11.9001,30.7703,11.9001a155.47484,155.47484,0,0,1,16.3066,14.7718l.0898.0864c11.2502,11.7162,23.7551,28.7009,21.5332,44.3275-.0169.0357.0019.0881-.015.1238C1101.2981,821.2372,1094.1281,830.4536,1077.4219,837.5884Z"></path><path d="M1077.4219,837.5884c-.0354-.0168-.0354-.0168-.088.0019-38.02,11.5579-58.1422-32.7984-54.8854-53.9163,3.238-21.1705,22.051-10.6674,22.051-10.6674a75.12468,75.12468,0,0,0-10.4256-32.6787c17.4251-3.0381,30.7703,11.9001,30.7703,11.9001a155.47484,155.47484,0,0,1,16.3066,14.7718l.0898.0864c15.3018,20.0153,21.1835,34.1178,21.5332,44.3275-.0169.0357.0019.0881-.015.1238C1101.2981,821.2372,1094.1281,830.4536,1077.4219,837.5884Z" style="mix-blend-mode:soft-light" opacity=".3"></path><path fill="#995942" d="M1072.3151,822.1368c-7.4231-11.6301-13.2078-23.3154-20.4306-33.5409-3.627-5.0044-7.5117-9.6946-12.2564-12.6817-4.7052-3.0205-10.7557-3.501-17.6214-1.7931a18.99323,18.99323,0,0,1,20.6814-5.0521c7.5226,2.6129,12.8807,8.2655,17.0353,13.9745a69.02237,69.02237,0,0,1,9.1528,18.7793A64.65684,64.65684,0,0,1,1072.3151,822.1368Z"></path><path fill="#b7765a" d="M1532.63,837.5884c.0354-.0168.0354-.0168.088.0019,1.1545.5,2.414,1.0375,3.7278,1.5054,70.9544,26.753,81.7335-66.4435,56.8665-89.5733-6.0635-5.5057-11.9354-8.3079-17.3344-9.1945-17.425-3.0381-30.7703,11.9001-30.7703,11.9001a155.48037,155.48037,0,0,0-16.3065,14.7718l-.0898.0864c-11.2503,11.7162-23.7551,28.7009-21.5332,44.3275.0169.0357-.0019.0881.015.1238C1508.7538,821.2372,1515.9237,830.4536,1532.63,837.5884Z"></path><path d="M1532.63,837.5884c.0354-.0168.0354-.0168.088.0019,38.02,11.5579,58.1421-32.7984,54.8854-53.9163-3.238-21.1705-22.051-10.6674-22.051-10.6674a75.126,75.126,0,0,1,10.4255-32.6787c-17.425-3.0381-30.7703,11.9001-30.7703,11.9001a155.48037,155.48037,0,0,0-16.3065,14.7718l-.0898.0864c-15.3018,20.0153-21.1835,34.1178-21.5332,44.3275.0169.0357-.0019.0881.015.1238C1508.7538,821.2372,1515.9237,830.4536,1532.63,837.5884Z" style="mix-blend-mode:soft-light" opacity=".3"></path><path fill="#995942" d="M1537.7366,822.1368a64.65532,64.65532,0,0,1,3.4403-20.314,68.97739,68.97739,0,0,1,9.1514-18.7793c4.1546-5.709,9.5127-11.3616,17.0353-13.9745a18.99148,18.99148,0,0,1,20.6814,5.0521c-6.8657-1.7079-12.9162-1.2274-17.6214,1.7931-4.7447,2.9871-8.6294,7.6773-12.2564,12.6817C1550.9458,798.8214,1545.1597,810.5067,1537.7366,822.1368Z"></path><path fill="#b7765a" d="M1553.4229,631.4296l-1.0733,6.1813-1.7028,9.7717-18.5811,107.1189-7.2917,42.011a64.13788,64.13788,0,0,0-.8144,7.4769,60.025,60.025,0,0,0,2.4801,20.4689c7.3287,24.4663,15.2498,80.9128-51.5607,116.2242a.13613.13613,0,0,0-.1111.037c-4.5156,2.369-9.4015,4.6639-14.6206,6.8476-34.0531,14.2135-83.6148,23.5411-155.1261,23.5411-119.3705,0-177.6307-26.0951-204.6512-57.1127-28.4268-32.5726-22.4306-70.623-16.7302-89.5372a61.57391,61.57391,0,0,0,1.6656-27.9458l-28.6859-165.0829s105.0459-46.3418,248.4017-46.3418C1448.3768,585.0878,1553.4229,631.4296,1553.4229,631.4296Z"></path><path fill="#333" d="M1464.2558,807.1725c-.2221,13.7694-3.1091,36.7182-147.9824,36.7182h-.2591c-144.5772-.037-147.4641-22.9488-147.6862-36.7182-.2591-13.7321,8.9203-26.539,8.9203-26.539s-8.217,22.6897,0,33.3127c8.2172,10.623,40.7896-6.1813,63.9605-22.0605,15.9531-10.919,33.0536-18.5439,50.7462-22.2085a28.57262,28.57262,0,0,0,44.269-.8142,120.355,120.355,0,0,1,15.953,3.8124,145.35555,145.35555,0,0,1,39.1979,19.2103c23.1708,15.8792,55.7435,32.6835,63.9605,22.0605s0-33.3127,0-33.3127S1464.5149,793.4404,1464.2558,807.1725Z"></path><path d="M1316.0143,843.8907c-144.5772-.037-147.4641-22.9488-147.6862-36.7182-.2591-13.7321,8.9203-26.539,8.9203-26.539s-8.217,22.6897,0,33.3127c8.2172,10.623,40.7896-6.1813,63.9605-22.0605,15.9531-10.919,33.0536-18.5439,50.7462-22.2085a28.57262,28.57262,0,0,0,44.269-.8142,120.355,120.355,0,0,1,15.953,3.8124c-8.2911,7.7731-26.354,19.8765-59.0746,21.3572C1254.1638,795.7724,1253.7197,832.0832,1316.0143,843.8907Z" style="mix-blend-mode:soft-light" opacity=".3"></path><path fill="#fff" d="M1526.4397 824.4583c7.3287 24.4663 15.2498 80.9128-51.5607 116.2242a.13613.13613 0 00-.1111.037c-4.5156 2.369-9.4015 4.6639-14.6206 6.8476-12.2517-10.8822-20.0246-25.3546-20.0246-44.5649 0-60.2589 50.265-87.5385 83.8369-99.0128A60.025 60.025 0 001526.4397 824.4583zM1550.6468 647.3826l-18.5811 107.1189c-63.3311 11.6964-116.7795-36.5329-106.6377-86.1319C1436.5322 614.0329 1527.1059 639.7207 1550.6468 647.3826zM1341.7391 753.2429a17.43257 17.43257 0 01-.9994 6.7366.28825.28825 0 00-.0368.1112s-.0371.1109-.1112.37c-.148.3333-.3332.9254-.6292 1.7028-.1111.333-.2591.7032-.4073 1.1103a28.34356 28.34356 0 01-52.7451-3.1831.28825.28825 0 00-.0368-.1112 17.43389 17.43389 0 01-.9995-6.7366c.3332-6.5884 5.0339-15.6939 27.9827-15.6939S1341.4059 746.6545 1341.7391 753.2429z" opacity=".11"></path><path d="M1553.4229,631.4296l-1.0733,6.1813c-59.5188-13.7321-352.4856-74.6945-401.8994,41.6409-55.04,129.6235,31.795,318.5805,324.3177,261.4677-102.1589,35.0894-270.7213,43.7137-374.3979-26.724-28.4268-32.5726-22.4306-70.623-16.7302-89.5372a61.57391,61.57391,0,0,0,1.6656-27.9458l-28.6859-165.0829s105.0459-46.3418,248.4017-46.3418C1448.3768,585.0878,1553.4229,631.4296,1553.4229,631.4296Z" style="mix-blend-mode:soft-light" opacity=".3"></path><ellipse cx="1213.707" cy="732.028" rx="30.133" ry="45.107" transform="rotate(-2.115 1213.708 732.03)" style="mix-blend-mode:soft-light" opacity=".3"></ellipse><ellipse cx="1215.459" cy="746.415" fill="#333" rx="23.663" ry="18.98" transform="rotate(-89.125 1215.46 746.415)"></ellipse><path fill="#fff" d="M1226.4148 739.0631c-.0758 4.9682-3.4806 8.9447-7.6046 8.8817s-7.4058-4.1416-7.3299-9.1098 3.4806-8.9447 7.6046-8.8818S1226.4907 734.0948 1226.4148 739.0631zM1213.3989 752.1763a4.31355 4.31355 0 11-4.2472-4.379A4.31351 4.31351 0 011213.3989 752.1763z"></path><ellipse cx="1395.783" cy="727.755" rx="27.195" ry="40.709" transform="rotate(-2.255 1395.785 727.756)" style="mix-blend-mode:soft-light" opacity=".3"></ellipse><ellipse cx="1397.396" cy="740.735" fill="#333" rx="21.356" ry="17.129" transform="rotate(-89.265 1397.397 740.735)"></ellipse><ellipse cx="1400.528" cy="733.989" fill="#fff" rx="8.12" ry="6.74" transform="rotate(-89.265 1400.528 733.99)"></ellipse><path fill="#fff" d="M1395.5499,745.939a3.893,3.893,0,1,1-3.8427-3.9426A3.89291,3.89291,0,0,1,1395.5499,745.939Z"></path><path fill="#333" d="M1252.7194,672.3108c-6.1658,1.4225-14.7646,4.2465-23.8744,7.4519-5.2015,1.9039-10.5589,3.8831-15.7232,5.9041-3.8722,1.4575-7.5886,2.9175-11.0319,4.2648-7.6287,2.9945-13.9297,5.6205-17.4126,7.0451-1.8391.7497-2.8571,1.2008-2.8571,1.2008-11.5907-4.9602-19.1688-23.1201-19.1688-23.1201,1.4818-2.8161,3.0397-5.5145,4.5959-8.0964a123.83961,123.83961,0,0,1,12.753-17.6548,92.29888,92.29888,0,0,1,11.4102-11.2589,71.6832,71.6832,0,0,1,12.6124-8.4793,49.34169,49.34169,0,0,1,23.3895-6.2539C1247.7118,623.3519,1260.1233,653.4854,1252.7194,672.3108Z"></path><path d="M1202.0899 689.9316c-7.6287 2.9945-13.9297 5.6205-17.4126 7.0451a116.04565 116.04565 0 01-17.43-30.0157 123.83961 123.83961 0 0112.753-17.6548C1182.6852 659.3804 1188.9176 676.5086 1202.0899 689.9316zM1228.845 679.7627c-5.2015 1.9039-10.5589 3.8831-15.7232 5.9041-7.4352-9.6799-18.0279-26.5248-21.7113-47.6195a71.6832 71.6832 0 0112.6124-8.4793C1206.139 641.2667 1212.2194 663.2536 1228.845 679.7627z" style="mix-blend-mode:soft-light" opacity=".3"></path><path fill="#333" d="M1445.3049,672.675c-3.5093,5.5882-8.7413,13.5126-11.824,16.455-2.4465,2.3253-19.275-.8247-36.6168-5.0918-2.5932-.6664-5.187-1.3329-7.7326-1.9987-3.2178-.8205-6.3395-1.6878-9.3159-2.5049-5.9052-1.6812-11.2339-3.2577-15.3598-4.6224-3.4547-1.1137-6.0923-2.0702-7.5286-2.719-9.2893-4.2886,8.9237-31.7846,18.6285-42.0998,3.6759-3.8978,9.4864-5.4966,15.8545-5.6887a56.33921,56.33921,0,0,1,18.1881,2.5439,49.93231,49.93231,0,0,1,8.9137,3.5598c.5256.3456,1.0508.6429,1.5289.9395a49.6764,49.6764,0,0,1,5.3864,4.0845c6.9505,5.8442,15.3465,14.9411,20.0004,22.7754A13.75709,13.75709,0,0,1,1445.3049,672.675Z"></path><path d="M1409.5983 626.9486c-17.0851 16.8088-26.231 41.0196-29.7827 52.586-5.9052-1.6812-11.2339-3.2577-15.3598-4.6224a134.82788 134.82788 0 0126.9544-50.5075A56.33921 56.33921 0 011409.5983 626.9486zM1425.4273 635.5324c-15.052 16.3092-24.3935 37.5275-28.5632 48.5058-2.5932-.6664-5.187-1.3329-7.7326-1.9987 11.0428-28.4734 23.394-44.7273 29.3805-51.5311.5256.3456 1.0508.6429 1.5289.9395A49.6764 49.6764 0 011425.4273 635.5324z" style="mix-blend-mode:soft-light" opacity=".3"></path><path fill="#995942" d="M1341.7768 752.7616l.0872.5118.0041-.03a19.267 19.267 0 01.5111 7.216l-.1104.2814a1.253 1.253 0 00.1636-.6467l-.0886.5438a6.19128 6.19128 0 01-.1868 1.1579l-.3121 1.3706.1404-.3278a26.62326 26.62326 0 01-10.5894 16.0211 30.293 30.293 0 01-18.9204 5.673 33.50294 33.50294 0 01-9.8357-2.0316 31.8976 31.8976 0 01-8.5353-5.1823 26.44775 26.44775 0 01-8.9633-16.7408l-.0641-.6618-.0054.1779a1.26768 1.26768 0 00.1635.6508l-.1104-.2828a19.19705 19.19705 0 01.5193-7.2187l.0041.0307.0886-.5125.1622.4498.0041.032a32.07054 32.07054 0 002.5175 6.253l-.109-.2808a2.2985 2.2985 0 01.2372.871l-.0695-.4825a29.101 29.101 0 0010.5349 11.2253 27.35008 27.35008 0 0013.8171 4.1409 27.81073 27.81073 0 0014.0543-3.1882 28.95165 28.95165 0 0011.0528-10.2923l.1432-.3305.4498-.6931a4.42331 4.42331 0 00.5302-.9221l-.0886.5425a2.25854 2.25854 0 01.2372-.8676l-.1091.2794a31.81358 31.81358 0 002.5094-6.255l.0041-.032zM1284.1857 861.7378c5.6675.8676 11.0065 1.862 16.3183 2.5312a121.826 121.826 0 0015.7867 1.0114 123.13784 123.13784 0 0015.7853-1.0223c5.3104-.6713 10.6494-1.6615 16.321-2.5203-8.8584 7.2466-20.4864 10.8784-32.1063 10.9411C1304.6708 872.5992 1293.0509 868.9701 1284.1857 861.7378z"></path><path fill="#333" d="M1085.3054 796.5125a136.4576 136.4576 0 01-25.0586-37.3101c-22.2826-48.1554-19.5806-106.3047-3.6273-127.7728 2.0728-1.2216 4.2935-2.4429 6.6254-3.5535 18.5812-9.0682 43.7508-14.8056 43.7508-14.8056S1079.531 732.7372 1085.3054 796.5125zM1548.7591 761.4231a136.18255 136.18255 0 01-24.0221 35.0894c5.7741-63.7753-21.6903-183.442-21.6903-183.442s23.4298 5.33 41.7889 13.8803a88.75733 88.75733 0 018.5873 4.4788C1569.5981 653.2309 1572.152 712.8236 1548.7591 761.4231z"></path><path d="M1524.737 796.5125c5.7741-63.7753-21.6903-183.442-21.6903-183.442s23.4298 5.33 41.7889 13.8803c-9.6606 26.0581-25.2807 84.3183 3.9235 134.4723A136.18255 136.18255 0 011524.737 796.5125zM1085.3054 796.5125a136.4576 136.4576 0 01-25.0586-37.3101c27.1682-49.0808 12.5478-105.2311 2.9981-131.3263 18.5812-9.0682 43.7508-14.8056 43.7508-14.8056S1079.531 732.7372 1085.3054 796.5125z" style="mix-blend-mode:soft-light" opacity=".3"></path><path d="M986.4771,1064.76s53.5525,6.2654,70.1424,5.21,47.9106-59.5058,47.9106-59.5058l-25.741,104.812Z" style="mix-blend-mode:soft-light" opacity=".6"></path><path fill="#7c7c7c" d="M1106.9962,1001.8418l-12.7008,55.9036-12.424,55.8791c-4.16,18.6177-7.8811,37.3186-11.7712,55.997-1.8633,9.3545-3.7484,18.7118-5.3759,28.114-1.9886,9.3525-3.3353,18.7983-5.234,28.1944,1.0999-19.1125,3.3408-38.1521,6.2045-57.084,2.8651-18.9333,6.4513-37.7507,10.4981-56.4584,4.1655-18.6818,8.609-37.3015,13.7831-55.7271C1095.0996,1038.2253,1100.5436,1019.8727,1106.9962,1001.8418Z"></path><path fill="#7c7c7c" d="M1080.5288,1116.1257c-17.7877-6.7757-34.8079-15.3458-51.5937-24.2539-16.5092-9.3491-32.807-19.088-48.2175-30.3644,17.6745,7.2718,34.459,16.0818,51.0335,25.2809,8.2873,4.5696,16.5827,9.0949,24.7064,13.9814C1064.6385,1105.543,1072.5959,1110.7716,1080.5288,1116.1257Z"></path><path fill="#e6e8e8" d="M1262.1108,1144.3239a28.99271,28.99271,0,0,1-.8268,4.1362,31.14,31.14,0,1,1-34.231-39.046,31.56088,31.56088,0,0,1,8.2013.0122A31.13679,31.13679,0,0,1,1262.1108,1144.3239Z"></path><path d="M1257.6997,1154.5747a29.92638,29.92638,0,1,1-38.7745-42.5944,29.40306,29.40306,0,0,0-4.3121,11.9554,29.94455,29.94455,0,0,0,25.7847,33.5946A29.602,29.602,0,0,0,1257.6997,1154.5747Z" style="mix-blend-mode:soft-light" opacity=".6"></path><path fill="#fff" d="M1262.1108,1144.3239a28.99271,28.99271,0,0,1-.8268,4.1362,30.2014,30.2014,0,0,1-8.2466.0225,31.1368,31.1368,0,0,1-26.8111-34.9325,29.06753,29.06753,0,0,1,.8267-4.136,31.56088,31.56088,0,0,1,8.2013.0122A31.13679,31.13679,0,0,1,1262.1108,1144.3239Z" opacity=".22"></path><path fill="#e6e8e8" d="M1251.0306,1349.3304a29.00361,29.00361,0,0,1-.8267,4.1362,31.14,31.14,0,1,1-34.231-39.0459,31.55565,31.55565,0,0,1,8.2012.0121A31.13679,31.13679,0,0,1,1251.0306,1349.3304Z"></path><path d="M1246.6196,1359.5812a29.92641,29.92641,0,1,1-38.7745-42.5944,29.40455,29.40455,0,0,0-4.3122,11.9555,29.94468,29.94468,0,0,0,25.7847,33.5946A29.60328,29.60328,0,0,0,1246.6196,1359.5812Z" style="mix-blend-mode:soft-light" opacity=".6"></path><path fill="#fff" d="M1251.0306,1349.3304a29.00361,29.00361,0,0,1-.8267,4.1362,30.20213,30.20213,0,0,1-8.2467.0225,31.13673,31.13673,0,0,1-26.811-34.9325,29.04947,29.04947,0,0,1,.8267-4.1359,31.55565,31.55565,0,0,1,8.2012.0121A31.13679,31.13679,0,0,1,1251.0306,1349.3304Z" opacity=".22"></path></g></svg>