<svg xmlns="http://www.w3.org/2000/svg" width="256" height="256" viewBox="0 0 4535.5 4835.9"><path fill="#720c0c" d="M2255 4835.9c-301.4 0-593.8-59-869.1-175.5-132.3-56-259.9-125.2-379.3-205.9-118.2-79.9-229.4-171.6-330.4-272.6-101-101-192.7-212.2-272.6-330.4-80.6-119.4-149.9-247-205.9-379.3-116.3-275.3-175.4-567.7-175.4-869s59-593.8 175.5-869.1c56-132.3 125.2-259.9 205.9-379.3 79.9-118.2 171.6-229.4 272.6-330.4s212.2-192.7 330.4-272.6c119.4-80.6 247-149.9 379.3-205.9 275.3-116.4 567.7-175.5 869.1-175.5s593.8 59 869.1 175.5c132.3 56 259.9 125.2 379.3 205.9 118.2 79.9 229.4 171.6 330.4 272.6 101 101 192.7 212.2 272.6 330.4 80.6 119.4 149.9 247 205.9 379.3 116.4 275.3 175.5 567.7 175.5 869.1s-59 593.8-175.5 869.1c-56 132.3-125.2 259.9-205.9 379.3-79.9 118.2-171.6 229.4-272.6 330.4-101 101-212.2 192.7-330.4 272.6-119.4 80.6-247 149.9-379.3 205.9-275.4 116.3-567.8 175.4-869.2 175.4zm0-4367.3c-288.2 0-567.7 56.4-830.9 167.7-254.1 107.5-482.4 261.4-678.5 457.5-196.1 196.1-350 424.3-457.5 678.5-111.3 263.1-167.7 542.7-167.7 830.9s56.4 567.7 167.7 830.9c107.5 254.2 261.4 482.5 457.5 678.5 196.1 196.1 424.3 350 678.5 457.5 263.1 111.3 542.7 167.7 830.9 167.7s567.7-56.4 830.9-167.7c254.2-107.5 482.5-261.4 678.5-457.5 196.1-196.1 350-424.3 457.5-678.5 111.3-263.1 167.7-542.7 167.7-830.9s-56.4-567.7-167.7-830.9c-107.5-254.2-261.4-482.5-457.5-678.5-196.1-196.1-424.3-350-678.5-457.5C2822.8 525 2543.2 468.6 2255 468.6z" class="color720c0c svgShape"/><circle cx="2255" cy="2603.2" r="2183.7" fill="#fc0" class="colorfc0 svgShape"/><path fill="#ff9300" d="m2255 690.3 88.8 784.6 210.5-761-35.1 788.8L2846.1 784l-158 773.6 435.3-658.8-277 739.4 533-582.5-389.4 686.9 617.6-492-492 617.6 686.9-389.4-582.5 533 739.4-277-658.8 435.3 773.6-158-718.7 326.9 788.8-35.1-761 210.5 784.5 88.8-784.5 88.8 761 210.4-788.8-35 718.7 326.8-773.6-158 658.8 435.4-739.4-277.1 582.5 533-686.9-389.4 492 617.6-617.6-492 389.4 687-533-582.6 277 739.4-435.3-658.8 158 773.7-326.9-718.8 35.1 788.8-210.5-761L2255 4516l-88.8-784.6-210.4 761 35-788.8-326.9 718.8 158-773.7-435.3 658.8 277.1-739.4-533 582.6 389.3-687-617.5 492 492-617.6-687 389.4 582.6-533-739.4 277.1 658.8-435.4-773.7 158 718.8-326.8-788.8 35 761-210.4-784.6-88.8 784.6-88.8-761-210.5 788.8 35.1-718.8-326.9 773.7 158-658.8-435.3 739.4 277-582.6-533 687 389.4-492-617.6 617.5 492-389.3-686.9 533 582.5-277.1-739.4 435.3 658.8-158-773.6 326.9 718.7-35-788.8 210.4 761z" class="colorff9300 svgShape"/><path fill="#720c0c" d="M2263.8 4833.7c-138.4 0-355.5-13.9-604.1-80.3-149.3-39.9-238.7-79.6-242.5-81.3-17.6-7.9-29-25.4-29-44.8v-299.8c-30.5 13.1-63.9 22.6-93.8 29.9-84.5 20.7-201.5 37.4-347.6 49.5-246.3 20.4-495.8 21.1-498.3 21.1h-.1c-26.6 0-48.4-21.2-49-47.8L388 3924.6c-.3-13.2 4.7-26 13.9-35.5s21.9-14.8 35.1-14.8h546.5c4.5-217.5 39-409.1 102.7-570 59.3-149.8 144.7-275.2 253.7-372.7 73.1-65.4 157.4-118.6 250.4-158.3 74.1-31.5 153.8-54.6 237.1-68.4 130.3-21.7 227.8-14.1 246.2-12.3h382.6c18.4-1.8 115.9-9.3 246.2 12.3 83.2 13.9 163 36.9 237.1 68.4 93.1 39.6 177.3 92.9 250.4 158.3 109 97.5 194.4 222.9 253.7 372.7 63.7 160.9 98.2 352.4 102.7 570h546.5c13.2 0 25.9 5.3 35.1 14.8 9.2 9.5 14.3 22.3 13.9 35.5l-11.4 455.6c-.7 26.6-22.4 47.8-49 47.8h-.1c-2.5 0-252.1-.7-498.4-21.2-146.1-12.1-263-28.8-347.6-49.5-29.9-7.3-63.3-16.8-93.8-29.9v290.8c0 18.7-10.7 35.8-27.5 44.1-3.6 1.8-90.6 44-239.2 86.3-136.3 38.8-352.9 85.1-611 85.1zm-777.5-239.3c36.7 14.3 106.6 39.7 201 64.8 131 34.9 337.4 76.4 576.4 76.4 245.5 0 451.7-43.8 581.4-80.6 94-26.6 162.6-53.5 198.1-68.6v-369.8c0-27.1 22-49.1 49.1-49.1 26.1 0 47.4 20.4 49 46.1 4.3 5.3 30.9 31 152.9 56.4 82.8 17.2 193.2 31.2 328.2 41.5 167.9 12.8 332.4 16.7 411 17.8l8.9-357h-544.7c-27.1 0-49.1-22-49.1-49.1 0-416.6-108.8-725.4-323.3-917.7-64.7-58-139.3-105.4-221.9-140.9-66.6-28.6-138.5-49.6-213.7-62.4-129.3-22-224.8-12-225.7-11.9-1.8.2-3.6.3-5.4.3H2071c-1.8 0-3.7-.1-5.5-.3-.9-.1-96.3-10.1-225.6 11.9-75.2 12.8-147.2 33.8-213.7 62.4-82.6 35.5-157.2 82.9-221.9 140.9-214.5 192.4-323.3 501.2-323.3 917.7 0 27.1-22 49.1-49.1 49.1H487.3l8.9 357c78.7-1.2 243.5-5 411.5-17.9 134.9-10.3 245.2-24.3 327.9-41.5 121.9-25.4 148.4-51.1 152.7-56.4 1.5-25.7 22.9-46.1 49-46.1 27.1 0 49.1 22 49.1 49.1v377.9zm2060.5-671z" class="color720c0c svgShape"/><path fill="#ddd" d="M3497.7 3923.4c0-1298.2-1039.1-1181.7-1039.1-1181.7h-387.5S1032 2625.2 1032 3923.4H437l11.4 455.6s988.9-1.9 988.9-162.3v410.6s351.4 157.4 826.5 157.4c488.6 0 828.6-166.4 828.6-166.4v-401.6c0 160.4 988.9 162.3 988.9 162.3l11.4-455.6h-595z" class="colorddd svgShape"/><path fill="#fff" d="M1851.3 2752.7c-285.4 43.1-754.2 232.5-813.1 1005.5 225.6-764.2 649.3-902.5 813.1-1005.5zm828.5 0c285.4 43.1 753.2 234.2 812.1 1007.1-225.7-764.2-648.3-904.1-812.1-1007.1z" class="colorfff svgShape"/><path fill="#720c0c" d="M2266.2 3189.3c-120.7 0-234.7-34.3-321.1-96.5-43.6-31.4-78-68.3-102.3-109.7-26-44.4-39.3-91.8-39.3-140.8 0-49.1 13.2-96.5 39.3-140.8 24.3-41.4 58.7-78.3 102.3-109.7 86.4-62.3 200.5-96.5 321.1-96.5 120.7 0 234.7 34.3 321.1 96.5 43.6 31.4 78 68.3 102.3 109.7 26 44.4 39.3 91.8 39.3 140.8 0 49.1-13.2 96.5-39.3 140.8-24.3 41.4-58.7 78.3-102.3 109.7-86.4 62.2-200.4 96.5-321.1 96.5zm0-596c-100.3 0-194 27.7-263.8 78-65 46.8-100.8 107.5-100.8 170.9 0 63.4 35.8 124.1 100.8 170.9 69.8 50.3 163.5 78 263.8 78 100.3 0 193.9-27.7 263.8-78 65-46.8 100.8-107.5 100.8-170.9 0-63.4-35.8-124.1-100.8-170.9-69.8-50.3-163.5-78-263.8-78z" class="color720c0c svgShape"/><ellipse cx="2266.2" cy="2842.2" fill="#ddd" class="colorddd svgShape" rx="413.6" ry="298"/><path fill="#720c0c" d="M3256.5 1529.7c-13.2 0-23.9 10.7-23.9 23.9v947.9h47.9v-947.9c-.1-13.2-10.8-23.9-24-23.9zm-596.4 3257.4c-13.5 0-24.5-11-24.5-24.5V3310.8L2261 3185.6c-10-3.3-16.7-12.7-16.7-23.3v-158.1c0-13.5 11-24.5 24.5-24.5s24.5 11 24.5 24.5v140.4l374.5 125.2c10 3.3 16.7 12.7 16.7 23.3v1469.4c.1 13.6-10.9 24.6-24.4 24.6zm-569.9-1325c-32.4 0-58.8 26.3-58.8 58.8 0 32.4 26.3 58.8 58.8 58.8 32.4 0 58.8-26.3 58.8-58.8-.1-32.5-26.4-58.8-58.8-58.8z" class="color720c0c svgShape"/><path fill="#720c0c" d="M2441.2 3579.6c32.4 0 58.8-26.3 58.8-58.8 0-32.4-26.3-58.8-58.8-58.8-32.4 0-58.8 26.3-58.8 58.8s26.3 58.8 58.8 58.8zm-351 370c-32.4 0-58.8 26.3-58.8 58.8 0 32.4 26.3 58.8 58.8 58.8 32.4 0 58.8-26.3 58.8-58.8-.1-32.5-26.4-58.8-58.8-58.8zm351 117.5c32.4 0 58.8-26.3 58.8-58.8 0-32.4-26.3-58.8-58.8-58.8-32.4 0-58.8 26.3-58.8 58.8s26.3 58.8 58.8 58.8zm-351 370c-32.4 0-58.8 26.3-58.8 58.8 0 32.4 26.3 58.8 58.8 58.8 32.4 0 58.8-26.3 58.8-58.8-.1-32.5-26.4-58.8-58.8-58.8zm351 117.5c32.4 0 58.8-26.3 58.8-58.8 0-32.4-26.3-58.8-58.8-58.8-32.4 0-58.8 26.3-58.8 58.8s26.3 58.8 58.8 58.8zM1121 4075.1c-10.8 0-20.7-7.2-23.7-18.2-26.9-100.4-97.7-136.8-100.7-138.3-9.7-4.7-15.1-15.3-13.4-25.9 1.7-10.7 10.3-18.9 21-20.4 4.1-.5 100.2-12.5 195.8 48.3 11.4 7.3 14.8 22.4 7.5 33.9-7.3 11.4-22.4 14.8-33.9 7.5-32.4-20.7-65-31.3-92.5-36.7 24.1 26.8 49.2 65.6 63.5 119 3.5 13.1-4.3 26.5-17.3 30-2.1.5-4.2.8-6.3.8zm2281.9 0c10.8 0 20.7-7.2 23.7-18.2 26.9-100.4 97.7-136.8 100.7-138.3 9.7-4.7 15.1-15.3 13.4-25.9-1.7-10.7-10.3-18.9-21-20.4-4.1-.5-100.2-12.5-195.8 48.3-11.4 7.3-14.8 22.4-7.5 33.9 7.3 11.4 22.4 14.8 33.9 7.5 32.4-20.7 65-31.3 92.5-36.7-24.1 26.8-49.2 65.6-63.5 119-3.5 13.1 4.3 26.5 17.3 30 2.1.5 4.2.8 6.3.8zm-1084.1-958.5h-112c-143 0-281.8-27.9-412.5-83-126.2-53.2-239.7-129.3-337.2-226.3s-174.3-210-228.1-335.9c-49.1-114.8-77.2-235.9-83.8-360.7-39.7-5.3-75.7-17.3-107.5-36.1-39.9-23.5-72.4-57-96.8-99.5-31.6-55.2-48.5-126.1-47.6-199.8.8-66.5 15.6-129.1 40.7-171.8 35.3-60 95.9-94.6 175.3-100 18.1-1.2 35.1-.8 49.9.4 40.6-235.1 159.7-450.3 339.2-610.8 195-174.4 446.5-270.4 708.4-270.4h112c260.1 0 510.5 94.9 705 267.3 180.4 159.9 300.7 375.3 342.1 610.7 15-.9 32.4-.9 51 .7 79.2 7.1 139.6 42.4 174.7 102.1 25.1 42.7 40 105.3 40.7 171.8.8 73.7-16.1 144.7-47.6 199.8-24.3 42.5-56.9 76-96.8 99.5-31.8 18.7-67.8 30.8-107.5 36.1-6.6 124.9-34.7 246.1-83.9 360.9-53.9 125.9-130.6 238.8-228.1 335.8s-211 173.1-337.2 226.3c-130.7 55-269.4 82.9-412.4 82.9zm-1126-1106.2h.2c26.9.1 48.7 21.9 48.9 48.8.8 129.7 26.8 255.4 77.4 373.6 48.9 114.3 118.6 216.9 207.1 304.9 88.6 88.1 191.6 157.2 306.1 205.5 118.6 50 244.5 75.3 374.4 75.3h112c129.8 0 255.7-25.3 374.3-75.3 114.5-48.2 217.5-117.4 306.1-205.4 88.5-88 158.2-190.6 207.1-304.8 50.6-118.2 76.7-243.9 77.5-373.5.2-26.9 21.9-48.6 48.8-48.7h.2c7.1 0 13.8 1.5 19.9 4.2 66.6-4.8 115.9-34.5 146.8-88.5 51.4-89.8 39-219.6 7.5-273.2-18.3-31.1-50.8-49.2-96.6-53.9-35.6-3.6-67 2.3-73.3 3.6-3 .8-6.1 1.3-9.3 1.5-25.9 1.7-48.5-17-51.8-42.7-29.6-230.8-142.3-443.3-317.3-598.4-176.5-156.5-403.7-242.6-639.9-242.6h-112c-237.7 0-466 87.2-643 245.4-175.6 157-287.5 371.6-315.2 604.4-3.1 25.9-25.9 44.9-52 43.1-9.9-.7-18.9-4.2-26.2-9.8-13.7-2.1-34.4-4.2-56.7-2.4-45.6 3.6-76.7 20.5-95.1 51.7-31.5 53.6-43.9 183.4 7.5 273.2 30.8 53.8 79.9 83.5 146.1 88.4 6.2-2.8 13.1-4.4 20.5-4.4z" class="color720c0c svgShape"/><path fill="#f4ae98" d="M3549.3 1628.4c-65.3-111.1-224.6-72.8-224.6-72.8v.1c-63.9-498.6-489.9-883.9-1005.8-883.9h-112c-519.1 0-947 390-1006.9 893l.1-4.9s-158.3-42.5-223.7 68.6c-65.3 111.1-57.8 436.3 216.4 436.3l.1-5.2c3.2 557.3 456 1008.1 1014 1008.1h112c558 0 1010.6-450.6 1014-1007.8l.1 4.9c274-.1 281.6-325.3 216.3-436.4z" class="colorf4ae98 svgShape"/><path fill="#720c0c" d="M1882.7 1713.3c0 77.7-63 140.6-140.6 140.6-77.7 0-140.6-62.9-140.6-140.6 0-77.7 63-140.6 140.6-140.6s140.6 63 140.6 140.6z" class="color720c0c svgShape"/><path fill="#ed9077" d="M2261.7 2796.7c-77.2 0-125.3-32.6-125.3-32.6s12.7 95.7 125.3 95.7 125.3-95.7 125.3-95.7-48.1 32.6-125.3 32.6zM1200.3 1561.2s303.9-32.7 508.8-330.7c435.5-90.8 1123.3-3.7 1123.3-3.7s179.8 291.6 492.9 328.8C3205.8 1122.4 2846.1 879 2343.2 879c-502.9 0-950.1 217.9-1142.9 682.2z" class="colored9077 svgShape"/><path fill="#720c0c" d="M2266.6 531.5c-1140.9 0-1156.9 1021.2-1156.9 1021.2l90.1 8.5s310.8-67.7 494.9-452.4c0 0 615.5-103.3 1153 0 184.1 384.7 477.1 446.8 477.1 446.8l91.1-4.9s-8.5-1019.2-1149.3-1019.2z" class="color720c0c svgShape"/><path fill="#ed9077" d="M1120.3 1917s-50.9-61.5 1.7-109 5.3-124.7-52.6-105.5c-57.9 19.2-60.8 200.1 50.9 214.5z" class="colored9077 svgShape"/><path fill="#f9e6e1" d="M1200.7 1561.2s-154.3-51.1-226.3 69-7 287.4.7 302.3c-23.8-76.2-44.6-396.7 222.1-337.9-.1-11.3 3.5-19.7 3.5-33.4z" class="colorf9e6e1 svgShape"/><path fill="#ed9077" d="M1192.8 2064.7s84.5 23 135.8 204.1c51.4 181.2 167.6 618.2 638.1 770.1-421.7-95.4-766.6-487.1-773.9-974.2zM3405.3 1917s50.9-61.5-1.7-109-5.3-124.7 52.6-105.5c57.9 19.2 60.8 200.1-50.9 214.5z" class="colored9077 svgShape"/><path fill="#f9e6e1" d="M3324.9 1561.2s154.4-51.4 226.4 68.7 6.9 287.6-.8 302.6c23.8-76.2 44.6-396.7-222.1-337.9.1-9.7-3.5-13.5-3.5-33.4z" class="colorf9e6e1 svgShape"/><path fill="#ed9077" d="M3332.9 2064.7s-84.5 23-135.8 204.1c-51.4 181.2-167.6 618.2-638.1 770.1 421.7-95.4 766.6-487.1 773.9-974.2z" class="colored9077 svgShape"/><path fill="#e04c34" d="M1459.7 1879.9c-64.2 0-116.3 23.5-116.3 52.5s52.1 52.4 116.3 52.4c64.2 0 116.3-23.5 116.3-52.4 0-29.1-52.1-52.5-116.3-52.5zm1606.2 0c-64.2 0-116.3 23.5-116.3 52.5s52.1 52.4 116.3 52.4c64.2 0 116.3-23.5 116.3-52.4-.1-29.1-52.1-52.5-116.3-52.5z" class="colore04c34 svgShape"/><path fill="#fff" d="M1745.5 1680.4c0 26.2-21.3 47.4-47.5 47.4s-47.4-21.2-47.4-47.4 21.2-47.4 47.4-47.4 47.5 21.2 47.5 47.4z" class="colorfff svgShape"/><path fill="#720c0c" d="M1608.1 1336.6c-41.2 16.1-26.9 48.9 7.7 37.7 0 0 78.6-24.2 205.1 11.2 20.5 5.7 45.3 17.9 56.3 4.3 29.4-15.5-71.5-122-269.1-53.2zm1316.3 376.7c0 77.7-63 140.6-140.6 140.6-77.7 0-140.6-62.9-140.6-140.6 0-77.7 63-140.6 140.6-140.6s140.6 63 140.6 140.6z" class="color720c0c svgShape"/><path fill="#fff" d="M2787.2 1680.4c0 26.2-21.3 47.4-47.5 47.4s-47.4-21.2-47.4-47.4 21.2-47.4 47.4-47.4 47.5 21.2 47.5 47.4z" class="colorfff svgShape"/><path fill="#720c0c" d="M2917.7 1336.6c41.2 16.1 26.9 48.9-7.7 37.7 0 0-78.6-24.2-205.1 11.2-20.5 5.7-45.3 17.9-56.3 4.3-29.4-15.5 71.6-122 269.1-53.2zm-1735.5 161.2c-13.5-1-25.2 9.2-26.2 22.7-20.5 291.7-11.7 575.1-11.6 577.9.4 13.3 11.3 23.7 24.5 23.7h.8c13.5-.4 24.2-11.8 23.7-25.3-.1-2.8-8.8-283.8 11.6-572.9.9-13.5-9.2-25.2-22.8-26.1zm2187.8 22.7c-1-13.5-12.7-23.7-26.2-22.7-13.5.9-23.7 12.7-22.7 26.2 20.3 289.1 11.6 570.1 11.6 572.9-.4 13.5 10.2 24.9 23.7 25.3h.8c13.2 0 24.1-10.5 24.5-23.7 0-2.9 8.8-286.3-11.7-578z" class="color720c0c svgShape"/><path fill="#ef7f68" d="M2411.1 2400.5H2117s-29.6 291.3 146.9 291.3h.4c176.4 0 146.8-291.3 146.8-291.3z" class="coloref7f68 svgShape"/><path fill="#720c0c" d="M2264.2 2707.2h-.4c-42.1 0-77-15-103.8-44.7-75.7-83.8-59.1-256.2-58.4-263.5.8-7.8 7.4-13.8 15.2-13.8H2411c7.9 0 14.5 6 15.2 13.8.7 7.3 17.3 179.8-58.4 263.5-26.6 29.6-61.5 44.7-103.6 44.7zm-132.9-291.4c-2.2 41.3-3.6 165 51.6 226.1 21 23.2 47.5 34.6 81 34.6h.4c33.5 0 60-11.3 81-34.6 55.2-61.1 53.8-184.8 51.6-226.1h-265.6zm1221.4-1255.3H1178.4c-1.3 0-2.5 0-3.8-.1-8.8-.7-217.4-18.6-318.1-171.1C794.7 895.6 788 775 836.8 631c61.1-180.7 203.2-282.1 410.8-293.4 103.7-5.6 198.3 12.9 248.4 25.4 26.2-38 77.6-102.7 159.6-167 72.8-57 155.1-102.5 244.8-135 111.3-40.4 234.2-61 365.1-61 131 0 253.9 20.6 365.2 61 89.7 32.6 172 78 244.8 135 82.1 64.3 133.4 129 159.6 167 50.1-12.5 144.6-31.1 248.4-25.4 207.6 11.3 349.7 112.8 410.8 293.4 48.7 144.1 42.1 264.6-19.8 358.3-100.7 152.5-309.2 170.4-318.1 171.1-1.1.1-2.4.1-3.7.1zm-2172-98.1h2169.7c17-1.8 172.5-20.9 242.6-127.6 44.1-67.1 46.9-158.7 8.4-272.4-26.3-77.6-71-136-132.9-173.7-50.8-30.9-114-48.8-187.9-53.1-131.5-7.7-251 30.6-252.2 31-22.6 7.4-47.3-2.5-58.5-23.5-.4-.7-48.4-87.6-158.8-172.9-64.5-49.9-137.5-89.6-217-118.1-99.8-35.8-210.3-53.9-328.6-54-118.2 0-228.8 18.2-328.6 54-79.5 28.5-152.5 68.3-217 118.1-110.4 85.4-158.4 172.2-158.9 173.1-11.2 21-35.8 30.7-58.5 23.3-1.1-.4-120.6-38.7-252.1-31-73.9 4.3-137.1 22.2-187.9 53.1-61.9 37.7-106.6 96.1-132.9 173.7-38.5 113.7-35.6 205.3 8.4 272.4 70.1 106.6 225.2 125.8 242.7 127.6z" class="color720c0c svgShape"/><path fill="#ddd" d="M3647.9 646.7C3515.4 255.1 3013.3 420 3013.3 420S2814.7 49.3 2265.6 49c-549.1.2-747.7 371-747.7 371s-502.2-164.9-634.7 226.7c-145.6 430.5 295.2 464.7 295.2 464.7h2174.4c-.1 0 440.8-34.2 295.1-464.7z" class="colorddd svgShape"/><path fill="#720c0c" d="M3383 1302.8c-3.7 0-7.4-.4-11-1.3-413.4-95.2-786.9-143.5-1110.3-143.5-323.3 0-696.9 48.3-1110.3 143.5-14 3.2-28.8.1-40.3-8.5-11.5-8.6-18.7-21.8-19.7-36.2-3.6-55.9-4.6-97.4-3-123.6 1.1-17.3 3.3-53.4 35.1-67.1 3.4-1.5 7-2.6 10.6-3.3 29.3-11.2 138.6-50.9 310-90.9 181.8-42.4 471-92.9 816.2-92.9 345.1 0 637.3 50.5 821.6 92.9 175.8 40.4 287.9 80.6 316.3 91.2h.1c6 1.3 35.8 9.9 39.1 47.6.5 5.6.7 13 .5 23.4-.3 24.6-2.3 65.9-6 122.7-.9 14.4-8.1 27.6-19.7 36.2-8.4 6.4-18.7 9.8-29.2 9.8zM2261.7 1060c315.9 0 677.5 44.8 1075.8 133.2 1.1-20.8 1.7-35.9 2.1-46.8-46.3-16.1-144.7-47.8-282-79.3-178.9-41-462.5-89.9-797.4-89.9-335.8 0-617.1 49.1-793.9 90.4-140.7 32.8-238.4 65.6-280.4 80.8-.3 9.7-.3 24 .4 44.7 398.2-88.4 759.7-133.1 1075.4-133.1zm-1152.9 85s.1 0 0 0c.1 0 0 0 0 0zm2324-15.4z" class="color720c0c svgShape"/><path fill="#ddd" d="M3383 1253.7c10.2-157.6 4.2-142.3 4.2-142.3s-467.8-183.3-1126.9-183.3c-659.2 0-1115.7 183.3-1115.7 183.3s-14.4-15.4-4.2 142.3c284.4-65.5 702.9-144.7 1121.3-144.7 418.5 0 836.9 79.2 1121.3 144.7z" class="colorddd svgShape"/><path fill="#fff" d="M2737.8 249.7c-192.5-123.4-631.1-163.6-939.5-10.8-101.4 73.7 171.8 101.2 469.1 103 397.6 2.4 564.9-31.6 470.4-92.2zM1334.6 463.6c-144.6-25.1-387.2 64.7-404.2 321.7 3.4 143.9 150.7-42.3 234-123.7 100.8-98.6 308.9-173.9 170.2-198zm1854.5 0c144.6-25.1 387.2 64.7 404.2 321.7-3.4 143.9-150.7-42.3-234-123.7-100.8-98.6-309-173.9-170.2-198z" class="colorfff svgShape"/><path fill="#ed9077" d="M2445 1991.7h-365.7c-46.3 198 2.3 256 174.3 256h15.9c172.1.1 221.8-58 175.5-256z" class="colored9077 svgShape"/><path fill="#f4ae98" d="M2418.6 1936c-35.1-172.4-118.2-290.1-118.2-290.1L2104.7 1936c-36.9 158.1 13.5 204.5 150.6 204.5h12.7c137.1 0 182.9-45.4 150.6-204.5z" class="colorf4ae98 svgShape"/><path fill="#720c0c" d="M2268 2155.8h-12.7c-78.8 0-125.9-15.1-152.8-49.1-28.1-35.5-32.2-90.8-12.7-174.2 1.9-8.2 10.2-13.4 18.4-11.4 8.2 1.9 13.4 10.2 11.4 18.4-17.2 73.6-15 120.7 6.9 148.2 20.3 25.6 61.2 37.5 128.8 37.5h12.7c67 0 105.8-11 126-35.7 21.9-26.8 25-74.6 9.5-150.3-34-167-114.9-283.1-115.7-284.3-4.9-6.9-3.2-16.5 3.7-21.4 6.9-4.9 16.5-3.2 21.4 3.7 3.5 4.9 85.4 122.3 120.7 295.9 17.6 86.6 12.7 140.9-15.8 175.8-26.6 32.4-72.8 46.9-149.8 46.9zm-20.5 27.7zm645.7 83.3c-55.1 108.4-236.2 142.9-330.7 54.2-130.3-122.3-173.7-153.9-299-153.9-125.3 0-168.7 31.6-299 153.9-94.5 88.7-275.6 54.2-330.7-54.2-55.1-108.4-103.6 295.4 304 295.4 221.3 0 324.9-116.1 325.7-117.1.8.9 104.4 117.1 325.7 117.1 407.6 0 359.2-403.7 304-295.4z" class="color720c0c svgShape"/><path fill="#a09f9f" d="M1637.5 4696.7s-58-174.8-170.5-1308.7c-33.1-333.1-111.1-106.7-126.3 54.4-15.2 161.2-52.3 744.8-52.3 744.8s-453 43.6-570.6 17.4c2.2 150.3 30.5 165.9 30.5 165.9s515.1-13 688.3-114.9c2.2 235.2 0 373.8 0 373.8s88.2 37.8 200.9 67.3zm1256.1-4.3s58-170.5 170.5-1304.4c33.1-333.1 111.1-106.7 126.3 54.4 15.2 161.2 52.3 744.8 52.3 744.8s467.1 43.8 584.7 17.7c-2.2 150.3-1.1 167.2-1.1 167.2s-558.6-14.6-731.9-116.5c-2.2 235.2 0 369.5 0 369.5s-88.1 37.8-200.8 67.3z" class="colora09f9f svgShape"/><path fill="#720c0c" d="M1413.4 3357c-13.2 0-23.9 10.7-23.9 23.9v988h47.9v-988c-.1-13.2-10.8-23.9-24-23.9zm1704.4 1.3c-13.2 0-23.9 10.7-23.9 23.9v988h47.9v-988c-.1-13.2-10.8-23.9-24-23.9z" class="color720c0c svgShape"/><path fill="#f4ae98" d="M3903.9 4342.6s-177.9-85.5-181.7-337c-3.8-251.5-.9-466.3-.9-466.3s211.7-40.9 210.8 89.3c-1.6 211.8 116.7 706-28.2 714z" class="colorf4ae98 svgShape"/><path fill="#720c0c" d="M3903.9 4367.1c-3.7 0-7.3-.8-10.6-2.4-2-1-49.7-24.3-97.5-80.4-43.6-51.2-96.1-141.1-98.1-278.3-3.8-249-.9-464.9-.9-467 .2-11.6 8.5-21.5 19.9-23.7 1.4-.3 34-6.5 74.3-6.5h.5c56.6 0 99.7 11.9 128 35.5 24.6 20.4 37.4 49.7 37.2 84.6-.5 61.3 9.5 148 20.1 239.8 10.8 93.5 21.9 190.2 23.7 273.1 2.2 100.5-10 163-38.3 196.7-14.8 17.5-34.4 27.5-56.8 28.7-.6-.1-1.1-.1-1.5-.1zm-158.3-806.7c-.6 59.9-2 241.3 1.1 444.8 1.5 97.5 30 180.1 84.9 245.5 31.9 38 64 59 77 66.5 6.2-1.5 11.2-4.9 15.9-10.5 19.7-23.3 28.7-78.5 26.8-164-1.8-80.7-12.8-176.2-23.4-268.6-10.7-93.4-20.9-181.5-20.4-245.8.1-20.3-6.2-35.5-19.5-46.5-33.1-27.6-102.3-26.1-142.4-21.4z" class="color720c0c svgShape"/><path fill="#720c0c" d="M3914.3 2563.7c.1-32.1 30.6-58 68.2-57.9 37.6.1 68.1 26.1 68 58.2l-1.9 1042.9c-.1 32.1-30.6 58-68.2 57.9-37.6-.1-68.1-26.1-68-58.2l1.9-1042.9z" class="color720c0c svgShape"/><path fill="#e04c34" d="M4119.5 4466c-.1 29.6-28.2 53.5-63 53.5l-150.9-.3c-34.7-.1-62.8-24.1-62.8-53.7l-.7-845.5c.1-29.6 28.2-53.5 63-53.5l150.9.3c34.7.1 62.8 24.1 62.8 53.7l.7 845.5z" class="colore04c34 svgShape"/><path fill="#720c0c" d="M4056.6 4544h-.2l-150.9-.3c-22.6 0-44-7.7-60.3-21.7-17.2-14.7-27-35.3-26.9-56.6l-.7-845.4c.1-43.1 39.3-78 87.4-78h.2l150.9.3c48.2.1 87.3 35.2 87.3 78.3l.7 845.4v.1c-.2 43-39.3 77.9-87.5 77.9zM3905 3591.1c-20.7 0-38.3 13.3-38.3 29l.7 845.4c0 9.5 6.1 16.2 9.8 19.3 7.3 6.3 17.7 9.9 28.5 9.9l150.9.3h.1c20.7 0 38.2-13.2 38.3-28.9l-.7-845.5c0-15.8-17.5-29.2-38.3-29.2l-151-.3z" class="color720c0c svgShape"/><path fill="#ddd" d="m4497.9 1847.5-514.2-.9-514.2-.9s-145.3 739 512.9 740.2c658.1 1.1 515.5-738.4 515.5-738.4zm-711.3 371.9c-.1 40.2-26.7 72.7-59.4 72.7h-19.4c-32.7-.1-59.2-32.7-59.1-72.9l.3-168.3c.1-40.2 26.7-72.8 59.4-72.7h19.4c32.7.1 59.2 32.7 59.1 72.9l-.3 168.3zm265.8 85.4c-.1 40.2-26.7 72.7-59.4 72.7h-19.4c-32.7-.1-59.2-32.7-59.1-72.9l.5-253.2c.1-40.2 26.7-72.8 59.4-72.7h19.4c32.7.1 59.2 32.7 59.1 72.9l-.5 253.2zm275.3-84.4c-.1 40.2-26.7 72.8-59.4 72.7h-19.4c-32.7-.1-59.2-32.7-59.1-72.9l.3-168.3c.1-40.2 26.7-72.7 59.4-72.7h19.4c32.7.1 59.2 32.7 59.1 72.9l-.3 168.3z" class="colorddd svgShape"/><path fill="#720c0c" d="M3984 2610.3h-1.7c-186.7-.3-329.1-58.6-423.1-173.2-43-52.3-75.6-116.5-97.1-190.7-17-58.7-27-123.8-29.9-193.6-4.8-118.3 12.5-208.2 13.3-211.9 2.3-11.5 12.3-19.8 24.1-19.8L4498 1823c11.7 0 21.8 8.4 24 19.9.7 3.8 17.8 93.7 12.5 212-3.1 69.7-13.4 134.8-30.6 193.5-21.7 74.2-54.7 138.2-97.8 190.4-94.2 113.8-236.3 171.5-422.1 171.5zm-493.7-740.1c-4.7 32.2-12.5 100.7-9.1 181.9 7.8 185.6 67.4 295 116 354.1 84.3 102.6 213.9 154.8 385.2 155.1h1.6c170.6 0 299.9-51.8 384.3-153.9 146.9-177.6 119.5-458.8 108.7-535.4l-986.7-1.8zm502.8 531.8h-19.5c-23 0-45.2-11.2-60.9-30.5-14.7-18.1-22.8-41.9-22.7-67l.5-253.2c0-25.1 8.2-48.8 23-66.9 15.7-19.2 37.9-30.3 60.8-30.3h19.5c46.2.1 83.7 43.8 83.6 97.5l-.5 253.2c0 25.1-8.2 48.8-23 66.9-15.7 19.3-37.9 30.3-60.8 30.3zm-18.8-398.9c-11.2 0-19.1 7.7-22.8 12.2-7.5 9.2-11.9 22.4-11.9 36l-.5 253.2c0 13.6 4.3 26.8 11.8 36 3.7 4.6 11.6 12.3 22.8 12.3h19.4c11.2 0 19.1-7.7 22.8-12.2 7.5-9.2 11.9-22.4 11.9-36h24.5-24.5l.5-253.2c0-26.2-15.8-48.3-34.6-48.3h-19.4zm294.1 314.5h-19.5c-46.2-.1-83.7-43.8-83.6-97.5l.3-168.3c0-25.1 8.2-48.8 23-66.9 15.7-19.2 37.9-30.3 60.8-30.3h19.5c23 0 45.2 11.1 60.9 30.5 14.7 18.1 22.8 41.9 22.7 67l-.3 168.3c0 25.1-8.2 48.8-23 66.9-15.7 19.2-37.8 30.3-60.8 30.3zm-19-314c-11.2 0-19.1 7.7-22.8 12.2-7.5 9.2-11.9 22.4-11.9 36l-.3 168.3c0 26.2 15.8 48.3 34.6 48.3h19.4c11.2 0 19.1-7.7 22.8-12.2 7.5-9.2 11.9-22.4 11.9-36l.3-168.3c0-13.6-4.3-26.8-11.8-36-3.7-4.6-11.6-12.3-22.8-12.3h-19.4c.1 0 .1 0 0 0zm-522.1 313h-19.5c-23 0-45.2-11.1-60.9-30.5-14.7-18.1-22.8-41.9-22.7-67l.3-168.3c0-25.1 8.2-48.8 23-66.9 15.7-19.2 37.9-30.3 60.8-30.3h19.5c46.2.1 83.7 43.8 83.6 97.5l-.3 168.3h-24.5 24.5c-.1 53.6-37.7 97.2-83.8 97.2zm-19-313.9c-11.2 0-19.1 7.7-22.8 12.2-7.5 9.2-11.9 22.4-11.9 36l-.3 168.3c0 13.6 4.3 26.8 11.8 36 3.7 4.6 11.6 12.3 22.8 12.3h19.4c18.8 0 34.7-22.1 34.8-48.2l.3-168.3c0-26.2-15.8-48.3-34.6-48.3h-19.5c.1 0 0 0 0 0z" class="color720c0c svgShape"/><path fill="#f4ae98" d="M4072 4002.8c-166.9 6.3-153.2 197.4 4 191.5-176.5 6.7-134.7 196.7 11.9 191.2 248.1-9.4 305-97 293.7-394.3-11.2-297.3-74.6-380.4-322.6-371-146.6 5.5-174 198.2 2.6 191.5-157.2 5.9-156.5 197.4 10.4 191.1z" class="colorf4ae98 svgShape"/><path fill="#720c0c" d="M4081.8 4410.1c-54.5 0-101.9-24.2-128-65.6-21.9-34.9-24.5-75.8-6.7-109.3 5.9-11.2 16.7-26.3 35.8-39.1-15.4-9.7-28.2-22.4-37.8-37.7-21.4-34-23.1-75.2-4.5-110.2 8.8-16.7 21.6-30.8 37.6-41.8-5.4-3.2-10.6-6.7-15.4-10.6-25.9-20.9-40.8-50.1-42-82.3-1.3-35.6 14.7-72.1 47.7-96.7-19.9-11.4-31.8-25.5-38.6-36.2-20.2-32.1-20.8-73.1-1.5-109.5 23.8-45.1 72.3-73.3 129.7-75.4 137.5-5.2 218.2 18.5 269.7 79.1 49.4 58.1 72.1 149.5 78.3 315.5 6.3 166-9.5 258.9-54.3 320.5-46.8 64.4-125.5 94.1-263 99.3h-7zm-4.8-191.3c-43.2 1.6-74 15.6-86.5 39.3-9.4 17.9-7.6 40.4 4.9 60.3 17.7 28.1 51.9 44 91.6 42.5 120.8-4.6 188.2-28.2 225.2-79.1 37.2-51.2 50.7-137.9 44.9-289.8-5.7-151.9-25.7-237.3-66.7-285.6-40.7-47.9-109.7-66.4-230.5-61.9-39.7 1.5-72.6 19.9-88.1 49.3-11 20.8-11.1 43.4-.3 60.5 14.3 22.7 46 34.3 89.2 32.7 13.6-.5 24.9 10 25.4 23.6s-10 24.9-23.6 25.4c-65.6 2.5-94 40.9-92.7 75.5 1.3 35.1 33.2 69.3 101.3 66.7 13.6-.5 24.9 10 25.4 23.6v.9c0 13.1-10.4 24-23.6 24.5-42.7 1.6-75.2 17.6-89 43.8-10.2 19.4-9.2 42.3 2.7 61.2 15.9 25.3 48.1 39 88.5 37.5 13.5-.5 24.9 10 25.4 23.6.6 13.6-10 25-23.5 25.5z" class="color720c0c svgShape"/><path fill="#720c0c" d="M4196 3836.1h-134.4c-13.5 0-24.5-11-24.5-24.5s11-24.5 24.5-24.5H4196c13.5 0 24.5 11 24.5 24.5s-11 24.5-24.5 24.5zm0 191.4h-134.4c-13.5 0-24.5-11-24.5-24.5s11-24.5 24.5-24.5H4196c13.5 0 24.5 11 24.5 24.5s-11 24.5-24.5 24.5zm-1 192h-134.4c-13.5 0-24.5-11-24.5-24.5s11-24.5 24.5-24.5H4195c13.5 0 24.5 11 24.5 24.5s-10.9 24.5-24.5 24.5z" class="color720c0c svgShape"/><path fill="#f4ae98" d="M675.6 4350.4s176.3-88.8 175.3-340.3c-.9-251.5-7.9-466.3-7.9-466.3s-212.4-36.9-209 93.2c5.6 211.7-103.4 708 41.6 713.4z" class="colorf4ae98 svgShape"/><path fill="#720c0c" d="M675.6 4374.9h-.9c-22.4-.8-42.2-10.4-57.3-27.6-29-33.1-42.3-95.3-42-195.9.3-83 9.6-179.8 18.5-273.5 8.8-92 17.2-178.9 15.6-240.2-.9-34.9 11.4-64.4 35.6-85.3 27.9-24.1 70.9-36.9 127.8-37.9 40.3-.7 73 4.9 74.4 5.1 11.5 2 19.9 11.7 20.3 23.4.1 2.2 7 218 7.9 467 .5 137.2-50.2 228.1-92.9 280.1-46.7 57-94 81.2-96 82.2-3.4 1.7-7.1 2.6-11 2.6zm105-811.5c-37.1 0-79.9 5.6-103.5 26.1-13 11.3-19.1 26.6-18.6 46.9 1.7 64.3-6.8 152.6-15.8 246.2-8.9 92.6-18.1 188.3-18.3 269-.3 85.5 9.8 140.5 29.9 163.5 4.8 5.5 10 8.8 16.1 10.2 12.8-7.8 44.5-29.3 75.7-68 53.6-66.4 80.6-149.5 80.3-247-.7-203.6-5.5-385-7.3-444.8-11-1.3-24.3-2.1-38.5-2.1z" class="color720c0c svgShape"/><path fill="#720c0c" d="M631.7 2572c-.7-32.1-31.7-57.4-69.3-56.6-37.6.8-67.6 27.4-66.9 59.4L517 3617.5c.7 32.1 31.7 57.4 69.3 56.6 37.6-.8 67.6-27.4 66.9-59.5L631.7 2572z" class="color720c0c svgShape"/><path fill="#ddd" d="M564.1 2595.3c-658 13.6-529.4-728.5-529.4-728.5l514.1-10.6 514.1-10.6s159.2 736.1-498.8 749.7z" class="colorddd svgShape"/><path fill="#720c0c" d="M546.4 2620c-177.8 0-315.2-55.1-408.7-163.8-44.1-51.3-78.2-114.8-101.4-188.5-18.3-58.3-29.8-123.2-34.2-192.8-7.5-118.1 7.8-208.4 8.5-212.2 2-11.6 11.9-20.1 23.7-20.3l1028.2-21.2c11.7-.2 22 7.9 24.5 19.3.8 3.8 19.9 93.3 17.2 211.7-1.5 69.8-10.4 135.1-26.3 194.1-20.1 74.6-51.5 139.4-93.5 192.5-91.9 116.3-233.1 177.3-419.8 181.1l-.5-24.5.5 24.5c-6.1.1-12.2.1-18.2.1zM56.1 1891c-4 32.3-10.3 100.9-5 182 12 185.4 74 293.4 123.9 351.4 86.6 100.7 217.4 149.9 388.6 146.4 171.3-3.5 299.9-58.2 382.3-162.5 142.8-180.8 109.2-461.3 96.6-537.7L56.1 1891z" class="color720c0c svgShape"/><path fill="#e04c34" d="M463.6 4446.6c.6 29.6 29.3 53 64 52.3l150.9-3.1c34.7-.7 62.4-25.3 61.8-54.9l-16.4-814.2c-.6-29.6-29.3-53-64-52.3l-150.9 3.1c-34.7.7-62.4 25.3-61.8 54.9l16.4 814.2z" class="colore04c34 svgShape"/><path fill="#720c0c" d="M526 4523.5c-47.3 0-86.1-33.9-87-76.3L422.6 3633c-.9-43 37.6-78.9 85.8-79.9l150.9-3.1c48.2-.9 88.1 33.2 89 76.3l16.4 814.2c.4 21.3-9 42.1-25.9 57.1-16 14.2-37.3 22.3-59.9 22.8l-150.9 3.1c-.6-.1-1.3 0-2 0zm-37.9-77.4c.3 15.8 18.1 28.7 38.9 28.3l150.9-3.1c10.8-.2 21.1-4 28.3-10.4 3.6-3.2 9.6-10 9.4-19.4l-16.4-814.2c-.3-15.7-18.1-28.7-38.9-28.3l-150.9 3.1c-20.8.4-38.1 14.1-37.7 29.9l16.4 814.1z" class="color720c0c svgShape"/><path fill="#fff" d="m217.5 1953.3 346.9-7.2 346.9-7.2s64.8 175.9-343.2 184.3c-408.1 8.5-350.6-169.9-350.6-169.9z" class="colorfff svgShape"/><path fill="#f4ae98" d="M501.1 4013.8c167 3.2 156.9 194.5-.4 191.5 176.6 3.3 138.4 194.1-8.3 191.4-248.2-4.7-306.7-91.2-301.1-388.7 5.6-297.5 67.4-381.8 315.6-377.1 146.6 2.8 177.7 194.9 1 191.5 157.3 3 160.2 194.6-6.8 191.4z" class="colorf4ae98 svgShape"/><path fill="#720c0c" d="M495.5 4421.2H492c-137.6-2.6-216.8-30.8-264.8-94.3-46-60.8-63.5-153.3-60.3-319.4 3.1-166.1 24.1-257.9 72.4-316.9 50.4-61.6 130.6-86.8 268.2-84.2 57.4 1.1 106.4 28.4 131.1 73 19.9 36.1 20.1 77 .5 109.5-6.5 10.9-18.2 25.2-37.9 37 33.5 24 50.2 60.2 49.5 95.8-.6 32.2-15 61.7-40.5 83.1-4.7 4-9.8 7.6-15.2 10.9 16.2 10.8 29.3 24.6 38.4 41.1 19.2 34.7 18.2 75.9-2.5 110.3-9.3 15.5-21.9 28.4-37.1 38.4 19.3 12.5 30.4 27.3 36.5 38.4 18.4 33.2 16.6 74.1-4.7 109.4-25.7 42.7-74.1 67.9-130.1 67.9zm-7.3-766c-109.6 0-173.2 20.2-211 66.4-40.1 49-58.4 134.8-61.3 286.8-2.9 152 12.2 238.4 50.4 288.9 38 50.2 105.7 72.6 226.6 74.8 39.7.8 73.6-15.8 90.8-44.2 12.1-20.1 13.5-42.7 3.7-60.4-13-23.5-43.9-36.8-87.2-37.7-13.5-.3-24.3-11.4-24.1-25 .3-13.5 11.4-24.3 25-24.1 40.3.8 72.3-13.5 87.8-39.1 11.6-19.2 12.1-42.1 1.5-61.2-14.3-26-47.1-41.3-89.8-42.1-13.4-.3-24.1-11.2-24.1-24.5v-.5c.3-13.5 11.4-24.3 25-24.1 68.2 1.4 99.4-33.5 100-68.6.7-34.6-28.5-72.5-94.1-73.7-13.5-.3-24.3-11.4-24.1-25 .3-13.5 11.4-24.4 25-24.1h4.1c41.2 0 71.1-12.1 84.5-34.4 10.4-17.3 9.9-39.9-1.5-60.5-16.1-29.1-49.4-46.9-89.1-47.6-6 0-12.1-.1-18.1-.1z" class="color720c0c svgShape"/><path fill="#720c0c" d="M502 3846.6H367.6c-13.5 0-24.5-11-24.5-24.5s11-24.5 24.5-24.5H502c13.5 0 24.5 11 24.5 24.5.1 13.6-10.9 24.5-24.5 24.5zm0 191.4H367.6c-13.5 0-24.5-11-24.5-24.5s11-24.5 24.5-24.5H502c13.5 0 24.5 11 24.5 24.5.1 13.5-10.9 24.5-24.5 24.5zm-1 192H366.6c-13.5 0-24.5-11-24.5-24.5s11-24.5 24.5-24.5H501c13.5 0 24.5 11 24.5 24.5S514.6 4230 501 4230z" class="color720c0c svgShape"/></svg>