<svg xmlns="http://www.w3.org/2000/svg" viewBox="0 0 2800 1900" id="chef-doing-thumbs-up-hand-gesture"><g data-name="Layer 1"><ellipse cx="1412.237" cy="1753.82" fill="#d1bfb2" rx="452.058" ry="63.752"></ellipse><path fill="#6b6b6b" d="M1716.8171,1746.0374c-3.7117,13.4131-41.7163,13.5397-88.4522,10.7562-63.4815-3.8391-110.9345,10.629-120.2143-8.985-.1266-.2528-.253-.5056-.3375-.7167-6.2426-15.2698-1.6451-40.957,1.2234-53.4428,1.0545-4.4709,2.2777-8.9422,2.2777-8.9422l60.571-24.7177a2.81085,2.81085,0,0,0,.2109.4217c1.3075,3.2058,10.6295,23.9582,31.1714,31.0447a62.71889,62.71889,0,0,0,10.5451,2.4041c23.0728,3.6702,58.3356,1.9406,88.0305,27.9239,1.1389,1.0123,2.2357,2.0246,3.3324,3.0791C1714.7925,1734.1422,1718.2091,1741.0176,1716.8171,1746.0374Z"></path><path d="M1716.8171,1746.0374c-3.7117,13.4131-41.7163,13.5397-88.4522,10.7562-63.4815-3.8391-110.9345,10.629-120.2143-8.985-.1266-.2528-.253-.5056-.3375-.7167-6.2426-15.2698-1.6451-40.957,1.2234-53.4428,1.0545-4.4709,2.2777-8.9422,2.2777-8.9422l60.571-24.7177a2.81085,2.81085,0,0,0,.2109.4217c1.3075,3.2058,10.6295,23.9582,31.1714,31.0447a62.71889,62.71889,0,0,0,10.5451,2.4041c-8.2672,4.1341-22.4401,9.5328-44.8379,13.4136-40.8728,7.0021-58.7995,37.9624,32.0573,36.2751C1662.1936,1742.4516,1697.8781,1748.4414,1716.8171,1746.0374Z" style="mix-blend-mode:soft-light" opacity=".3"></path><path fill="#6b6b6b" d="M1301.129,1742.6205c-.0841.2111-.2108.4645-.3372.7173-9.2798,19.614-56.7327,5.1459-120.2142,8.9844-64.241,3.8381-112.0315,2.109-76.8107-31.9308,1.0968-1.0546,2.1935-2.0668,3.3322-3.0791,34.6724-30.3697,76.9793-22.9037,98.5756-30.3275,20.5419-7.0866,29.8638-27.8395,31.1714-31.0453a2.814,2.814,0,0,0,.2109-.4211l60.5296,24.7009s1.2648,4.4876,2.3193,8.9589C1302.7741,1701.6635,1307.3719,1727.3512,1301.129,1742.6205Z"></path><path d="M1300.7918,1743.3378c-9.2798,19.614-56.7327,5.1459-120.2142,8.9844-64.241,3.8381-112.0315,2.109-76.8107-31.9308,1.0968-1.0546,2.1935-2.0668,3.3322-3.0791,34.6724-30.3697,76.9793-22.9037,98.5756-30.3275,20.5419-7.0866,29.8638-27.8395,31.1714-31.0453a2.814,2.814,0,0,0,.2109-.4211l60.5296,24.7009s1.2648,4.4876,2.3193,8.9589c-11.9793,4.6398-36.1486,10.334-84.3608,12.4431-86.3013,3.7541-64.3252,48.0013,46.0187,43.6144C1276.4536,1744.6029,1289.4452,1743.9706,1300.7918,1743.3378Z" style="mix-blend-mode:soft-light" opacity=".3"></path><path fill="#333" d="M1352.0248,1507.3435c-4.1642,10.3575-8.899,23.7376-13.8226,38.4781-19.127,57.3213-40.8136,135.1056-40.8136,135.1056s-11.3622,4.3037-37.1829,6.1799a397.90351,397.90351,0,0,1-54.543-.1035c-9.2411-102.1329-5.0761-189.1728-5.0761-189.1728S1372.3895,1456.6295,1352.0248,1507.3435Z"></path><path d="M1352.0248,1507.3435c-4.1642,10.3575-8.899,23.7376-13.8226,38.4781-31.6022,9.0381-93.0439,39.824-77.9965,141.2855a397.90351,397.90351,0,0,1-54.543-.1035c-9.2411-102.1329-5.0761-189.1728-5.0761-189.1728S1372.3895,1456.6295,1352.0248,1507.3435Z" style="mix-blend-mode:soft-light" opacity=".3"></path><path fill="#333" d="M1603.2675,1691.4979c-14.8054.9283-27.6282,1.1389-38.595.8861-5.8631-.1689-11.1779-.4222-15.9443-.8017-25.8144-1.8562-37.2032-6.1587-37.2032-6.1587s-21.6808-77.7804-40.7884-135.1035c-4.935-14.7631-9.6592-28.1345-13.8353-38.4685-20.3729-50.7432,151.4279-9.5328,151.4279-9.5328s.4217,9.3639.7169,25.5193A1572.61052,1572.61052,0,0,1,1603.2675,1691.4979Z"></path><path d="M1564.6725,1692.384c-5.8631-.1689-11.1779-.4222-15.9443-.8017-25.8144-1.8562-37.2032-6.1587-37.2032-6.1587s-21.6808-77.7804-40.7884-135.1035c-4.935-14.7631-9.6592-28.1345-13.8353-38.4685-20.3729-50.7432,151.4279-9.5328,151.4279-9.5328s.4217,9.3639.7169,25.5193C1582.0508,1545.427,1534.3026,1592.121,1564.6725,1692.384Z" style="mix-blend-mode:soft-light" opacity=".3"></path><path fill="#e6e8e8" d="M1699.3747,1482.0229c-86.9338,62.5533-244.2668,60.3182-294.8833,60.3182-13.2025,0-33.7021.1683-58.2933-.7595-22.9884-.8017-49.6043-2.5307-77.2746-6.1587-56.0157-7.3393-116.3337-22.4398-159.3578-53.4,0-2.2357.0422-4.5978.1267-7.1285.5484-18.222,3.1213-43.3616,6.5379-70.357,9.0689-71.6645,24.1693-155.9834,24.1693-155.9834s-36.3173-89.1272-9.9123-179.3509c26.405-90.224,168.3422-160.6654,168.3422-160.6654h211.2816s10.2076,5.0617,25.688,14.257c4.26,2.4888,8.9,5.357,13.8773,8.4361,11.431,7.2129,24.3804,15.9443,37.6249,25.983,37.9623,28.7251,78.2868,67.9951,91.1521,111.9893,14.5098,49.6461,10.0809,98.9551,3.1213,133.2478-5.6945,28.0501-13.0339,46.1031-13.0339,46.1031s9.9545,55.636,18.5595,114.8997c1.7293,11.9369,3.4166,24.0005,4.935,35.769C1696.2534,1431.9547,1699.3747,1462.5355,1699.3747,1482.0229Z"></path><path fill="#b7765a" d="M1306.5429,950.3661s24.7581,70.423,94.0807,105.6345,134.794-125.441,134.794-125.441Z"></path><path fill="#b23030" d="M1116.2303,1404.5374c-3.8805,30.7073-6.6646,59.0526-6.6646,77.4855,43.0241,30.9602,103.3421,46.0607,159.3578,53.4.4734-16.4113,1.513-46.9489,3.5909-87.2353C1203.4017,1436.4024,1148.9446,1417.7232,1116.2303,1404.5374Z"></path><path d="M1116.2303,1404.5374c-3.8805,30.7073-6.6646,59.0526-6.6646,77.4855,43.0241,30.9602,103.3421,46.0607,159.3578,53.4.4734-16.4113,1.513-46.9489,3.5909-87.2353C1203.4017,1436.4024,1148.9446,1417.7232,1116.2303,1404.5374Z" style="mix-blend-mode:soft-light" opacity=".3"></path><path fill="#b23030" d="M1692.0353,1399.2227c-125.0241,54.522-244.6833,65.323-344.4071,58.091q4.55445-155.2452,23.2875-336.9458s137.9301-75.6297,178.7607-189.1371c-4.9773-3.0791-9.6173-5.9473-13.8773-8.4361l-26.2363,18.222s-29.1466,90.7723-203.0144,144.6788c-19.7986,137.0812-29.447,273.5559-34.034,362.4921-2.0779,40.2864-3.1175,70.824-3.5909,87.2353,27.6703,3.628,54.2862,5.357,77.2746,6.1587,24.5912.9278,45.0908.7595,58.2933.7595,50.6165,0,207.9495,2.2351,294.8833-60.3182C1699.3747,1462.5355,1696.2534,1431.9547,1692.0353,1399.2227Z"></path><path fill="#4c4c4c" d="M1433.3335,1196.5158a32.86032,32.86032,0,0,1-.4977,4.367c-2.7939,15.736-15.8813,27.3062-30.9654,26.524-16.4378-.8525-28.9893-16.0752-28.0609-33.9778.7777-14.9961,10.7521-27.1077,23.5918-30.1587a27.88259,27.88259,0,0,1,7.831-.6922C1421.67,1163.4306,1434.2619,1178.6132,1433.3335,1196.5158Z"></path><path d="M1429.8448,1207.5416c-5.0598,10.5425-15.4166,17.5199-26.9844,16.92-15.8082-.8198-27.879-15.4595-26.9861-32.6764a31.79058,31.79058,0,0,1,13.948-25.1512,32.962,32.962,0,0,0-3.2741,12.7878c-.8928,17.2169,11.178,31.8566,26.9861,32.6764A26.743,26.743,0,0,0,1429.8448,1207.5416Z" style="mix-blend-mode:soft-light" opacity=".6"></path><path fill="#fff" d="M1433.3335,1196.5158a32.86032,32.86032,0,0,1-.4977,4.367,26.69307,26.69307,0,0,1-7.8718.732c-16.4377-.8524-28.9888-16.0752-28.0604-33.9778a32.97819,32.97819,0,0,1,.4977-4.3667,27.88259,27.88259,0,0,1,7.831-.6922C1421.67,1163.4306,1434.2619,1178.6132,1433.3335,1196.5158Z" opacity=".22"></path><path fill="#4c4c4c" d="M1422.9968,1395.842a32.89506,32.89506,0,0,1-.4977,4.3671c-2.7939,15.736-15.8813,27.3062-30.9655,26.5239-16.4377-.8524-28.9892-16.0751-28.0608-33.9778.7776-14.996,10.7521-27.1076,23.5918-30.1587a27.88558,27.88558,0,0,1,7.8309-.6921C1411.3333,1362.7569,1423.9252,1377.9394,1422.9968,1395.842Z"></path><path d="M1419.5081,1406.8679c-5.0598,10.5425-15.4166,17.5199-26.9844,16.92-15.8082-.8198-27.879-15.4595-26.9861-32.6765a31.79089,31.79089,0,0,1,13.948-25.1512,32.9629,32.9629,0,0,0-3.2741,12.7878c-.8929,17.217,11.1779,31.8567,26.9861,32.6765A26.743,26.743,0,0,0,1419.5081,1406.8679Z" style="mix-blend-mode:soft-light" opacity=".6"></path><path fill="#fff" d="M1422.9968,1395.842a32.89506,32.89506,0,0,1-.4977,4.3671,26.69307,26.69307,0,0,1-7.8718.732c-16.4378-.8525-28.9888-16.0752-28.0604-33.9778a32.94436,32.94436,0,0,1,.4977-4.3668,27.88558,27.88558,0,0,1,7.8309-.6921C1411.3333,1362.7569,1423.9252,1377.9394,1422.9968,1395.842Z" opacity=".22"></path><path d="M1692.0353,1399.2227c-70.146,114.2244-329.5557,151.9756-582.3429,75.6717.5484-18.222,3.1213-43.3616,6.5379-70.357,9.0689-71.6645,24.1693-155.9834,24.1693-155.9834s-36.3173-89.1272-9.9123-179.3509c26.405-90.224,168.3422-160.6654,168.3422-160.6654h211.2816s10.2076,5.0617,25.688,14.257c4.26,2.4888,8.9,5.357,13.8773,8.4361,11.431,7.2129,24.3804,15.9443,37.6249,25.983-38.4263,31.2981-167.9625,118.6536-359.9676,63.8612C1234.4622,1268.632,1516.6068,1410.1472,1692.0353,1399.2227Z" style="mix-blend-mode:soft-light" opacity=".6"></path><path fill="#b7765a" d="M963.78108,1154.4827s-74.8244,60.5197-63.2706,143.5968,165.05372,19.7455,202.466-14.8853S963.78108,1154.4827,963.78108,1154.4827Z"></path><path d="M1102.9856,1283.1843c-8.2672,7.6346-22.1867,16.7035-39.0169,25.266-39.9025-14.4679-128.69232-39.7761-156.3207,9.7437a47.84594,47.84594,0,0,1-7.12852-20.1199c-11.5574-83.0533,63.2707-143.5823,63.2707-143.5823S1140.3996,1248.554,1102.9856,1283.1843Z" style="mix-blend-mode:soft-light" opacity=".3"></path><path fill="#b7765a" d="M1194.6381,1253.0793c-13.9806,13.117-35.4216,25.9964-68.1314,33.8381-71.0804,17.0119-122.4513,7.0406-152.03112-40.6013a123.16622,123.16622,0,0,1-6.95858-12.6387c-28.10092-58.4775-28.37422-108.5419-9.57362-153.8714,7.6811-18.5313,16.2004-38.6165,24.1244-57.5044,7.5069-17.9805,14.45559-34.8809,19.58952-48.3714,2.7516-7.0553,4.9555-13.2007,6.4873-18.0429,11.751-34.1341-2.6485-61.8592-2.6485-61.8592-12.30673-22.4293.2974-30.7848,17.157-28.2232a52.11263,52.11263,0,0,1,13.1327,3.9377c22.0242,9.7824,42.8494,34.17,51.8589,65.5173,4.8283,16.772-.1827,33.1594-5.5771,50.0757-4.6578,14.7239-9.5708,29.8433-8.5779,46.0084,40.2239,9.4764,123.1838-1.0051,141.1746,22.4858s19.0142,32.303-11.5177,48.4561a8.71,8.71,0,0,1,.3392.8437,227.71461,227.71461,0,0,1,15.7578,107.626C1218.6498,1217.1507,1213.5615,1235.2894,1194.6381,1253.0793Z"></path><path fill="#995942" d="M1203.1278,1102.2973a66.31317,66.31317,0,0,1-9.5618,8.3416,120.28538,120.28538,0,0,1-10.4259,6.8545,118.6701,118.6701,0,0,1-11.1124,5.674,65.5966,65.5966,0,0,1-11.9859,4.1707,65.6,65.6,0,0,1,9.5572-8.3496,118.72015,118.72015,0,0,1,10.4306-6.8468,120.32936,120.32936,0,0,1,11.1171-5.6657A66.30828,66.30828,0,0,1,1203.1278,1102.2973Z"></path><path d="M1194.6381,1253.0793c-44.9575,21.5068-103.9013,39.585-158.4574,24.6232-62.08822-17.0285-77.73012-92.3573-82.76182-147.5654-1.5065-16.5298-1.9526-34.7046,4.5246-50.3312,7.6811-18.5312,16.2003-38.6164,24.1243-57.5043,7.5069-17.9805,14.45559-34.8809,19.58952-48.3714,2.7516-7.0553,4.9555-13.2007,6.4873-18.0429,11.751-34.1341-2.6485-61.8592-2.6485-61.8592-12.30673-22.4293.2974-30.7848,17.157-28.2232,21.9954,25.7538,41.9978,67.1178,23.7899,124.6751-33.5012,105.9012-55.04263,194.6686,126.0795,129.6193,14.5481-8.477,24.3529-13.7335,30.9633-16.9697a227.71461,227.71461,0,0,1,15.7578,107.626C1218.6498,1217.1507,1213.5615,1235.2894,1194.6381,1253.0793Z" style="mix-blend-mode:soft-light" opacity=".3"></path><path d="M1687.1003,1363.4537c-181.6711-31.2136-102.1611-250.0879-102.1611-250.0879s48.6763,40.4512,96.6355,89.0851c-5.6945,28.0501-13.0339,46.1031-13.0339,46.1031S1678.4953,1304.19,1687.1003,1363.4537Z" style="mix-blend-mode:soft-light" opacity=".6"></path><path fill="#b7765a" d="M1828.5314,1154.4827s74.8245,60.5197,63.2707,143.5968-165.0538,19.7455-202.4661-14.8853S1828.5314,1154.4827,1828.5314,1154.4827Z"></path><path d="M1689.327,1283.1843c8.2672,7.6346,22.1867,16.7035,39.0169,25.266,39.9025-14.4679,128.6922-39.7761,156.3206,9.7437a47.84483,47.84483,0,0,0,7.1285-20.1199c11.5574-83.0533-63.2706-143.5823-63.2706-143.5823S1651.913,1248.554,1689.327,1283.1843Z" style="mix-blend-mode:soft-light" opacity=".3"></path><path fill="#b7765a" d="M1597.6745,1253.0793c13.9805,13.117,35.4216,25.9964,68.1314,33.8381,71.0803,17.0119,122.4513,7.0406,152.031-40.6013a123.17045,123.17045,0,0,0,6.9587-12.6387c28.1009-58.4775,28.3741-108.5419,9.5735-153.8714-7.6811-18.5313-16.2003-38.6165-24.1243-57.5044-7.5069-17.9805-14.4557-34.8809-19.5895-48.3714-2.7516-7.0553-4.9555-13.2007-6.4873-18.0429-11.7511-34.1341,2.6484-61.8592,2.6484-61.8592,12.3067-22.4293-.2974-30.7848-17.1569-28.2232a52.11141,52.11141,0,0,0-13.1327,3.9377c-22.0242,9.7824-42.8494,34.17-51.8589,65.5173-4.8283,16.772.1826,33.1594,5.5771,50.0757,4.6578,14.7239,9.5707,29.8433,8.5779,46.0084-40.2239,9.4764-123.1838-1.0051-141.1746,22.4858s-19.0143,32.303,11.5176,48.4561a8.73557,8.73557,0,0,0-.3392.8437,227.71737,227.71737,0,0,0-15.7578,107.626C1573.6627,1217.1507,1578.7511,1235.2894,1597.6745,1253.0793Z"></path><path fill="#995942" d="M1589.1847,1102.2973a66.30022,66.30022,0,0,1,11.9811,4.1787,120.30234,120.30234,0,0,1,11.117,5.6657,118.67712,118.67712,0,0,1,10.4307,6.8468,65.59479,65.59479,0,0,1,9.5572,8.3496,65.59559,65.59559,0,0,1-11.9858-4.1707,118.65607,118.65607,0,0,1-11.1123-5.674,120.28854,120.28854,0,0,1-10.4261-6.8545A66.32386,66.32386,0,0,1,1589.1847,1102.2973Z"></path><path d="M1597.6745,1253.0793c44.9575,21.5068,103.9013,39.585,158.4573,24.6232,62.0883-17.0285,77.7302-92.3573,82.7619-147.5654,1.5065-16.5298,1.9525-34.7046-4.5246-50.3312-7.6811-18.5312-16.2004-38.6164-24.1243-57.5043-7.5069-17.9805-14.4557-34.8809-19.5895-48.3714-2.7516-7.0553-4.9555-13.2007-6.4873-18.0429-11.7511-34.1341,2.6484-61.8592,2.6484-61.8592,12.3067-22.4293-.2974-30.7848-17.1569-28.2232-21.9954,25.7538-41.9978,67.1178-23.7899,124.6751,33.5012,105.9012,55.0426,194.6686-126.0795,129.6193-14.5481-8.477-24.353-13.7335-30.9634-16.9697a227.71737,227.71737,0,0,0-15.7578,107.626C1573.6627,1217.1507,1578.7511,1235.2894,1597.6745,1253.0793Z" style="mix-blend-mode:soft-light" opacity=".3"></path><path fill="#b23030" d="M1754.3715,453.274s-24.1281,60.1816-55.6915,125.699c-13.3456,27.5656-27.9699,56.1292-42.7179,81.5169-64.0608,42.832-398.5912,13.4825-486.7603,4.895-13.5578-1.3003-21.3112-2.1552-21.3112-2.1552l-21.0714-57.6585-26.4776-87.8188s96.1959,41.3443,134.6699-74.03c124.995,70.3746,218.2274,20.4561,253.2462-77.4675,68.2002,113.3756,170.6795,116.2995,222.7199,71.9474C1731.6867,465.2842,1754.3715,453.274,1754.3715,453.274Z"></path><path fill="#e6e8e8" d="M1860.3169,479.5956c-6.8134,41.6607-47.7548,70.3499-95.1112,69.2734,4.345,5.1736,6.4843,10.7158,5.6034,16.1021-2.6428,16.1594-30.7608,24.9335-62.7946,19.6148a106.04457,106.04457,0,0,1-10.9361-2.3777c.5611-1.074,1.0813-2.1545,1.6016-3.2352,31.5634-65.5174,55.6915-125.699,55.6915-125.699l-.0487.0349c-1.2167.6193-23.2357,11.1843-43.3452-15.1066-52.0404,44.3521-154.5197,41.4282-222.7199-71.9474-35.0188,97.9236-128.2512,147.8421-253.2462,77.4675-38.474,115.3743-134.6699,74.03-134.6699,74.03l26.4776,87.8188,9.7492,26.6886a91.27347,91.27347,0,0,1-59.4929,9.9189c-31.909-5.2979-57.1157-25.865-68.1651-51.9485-44.40692-13.338-73.55452-54.1397-66.63782-96.4318,3.5099-21.4614,15.6828-39.4964,32.813-51.9102a142.01655,142.01655,0,0,1-7.3904-72.8495c11.4176-69.8132,73.46052-120.2419,148.92742-128.1568a149.3425,149.3425,0,0,1,1.932-24.4036c13.9434-85.2571,98.9586-142.1157,189.9227-127.0126,44.2712,7.3505,81.7644,30.4332,106.971,62.0223,30.1319-49.4162,93.5023-77.7963,160.6596-66.6459,82.3189,13.6677,140.3043,81.6911,133.4981,154.2581a162.47779,162.47779,0,0,1,46.3608-14.347c71.0291-10.9425,135.4139,25.2929,143.8309,80.8504,6.2338,41.363-20.2825,81.7838-63.5109,104.2584C1854.8595,428.7656,1864.5081,453.9681,1860.3169,479.5956Z"></path><ellipse cx="1274.043" cy="188.605" fill="#fff" opacity=".5" rx="123.63" ry="72.315" transform="rotate(-4.349 1273.96 188.635)"></ellipse><ellipse cx="1561.695" cy="191.923" fill="#fff" opacity=".5" rx="78.516" ry="123.675" transform="rotate(-76.519 1561.695 191.923)"></ellipse><ellipse cx="1779.695" cy="323.314" fill="#fff" opacity=".5" rx="97.144" ry="61.674" transform="rotate(-13.209 1779.694 323.314)"></ellipse><path d="M1754.3715,453.274l-.0487.0349c-1.2167.6193-23.2357,11.1843-43.3452-15.1066-52.0404,44.3521-154.5197,41.4282-222.7199-71.9474-35.0188,97.9236-128.2512,147.8421-253.2462,77.4675-38.474,115.3743-134.6699,74.03-134.6699,74.03l26.4776,87.8188,9.7492,26.6886a91.27347,91.27347,0,0,1-59.4929,9.9189c-31.909-5.2979-57.1157-25.865-68.1651-51.9485-44.40692-13.338-73.55452-54.1397-66.63782-96.4318,3.5099-21.4614,15.6828-39.4964,32.813-51.9102a142.01655,142.01655,0,0,1-7.3904-72.8495c11.4176-69.8132,73.46052-120.2419,148.92742-128.1568,0,0-52.7876,161.4522,115.74,162.3751,63.9775,60.5029,176.1644,67.2864,259.3925-61.794,35.8498,98.9707,164.5926,133.0543,224.7898,70.3027C1725.545,451.427,1754.3715,453.274,1754.3715,453.274Z" style="mix-blend-mode:soft-light" opacity=".6"></path><path d="M1698.68,578.973c-85.8483,58.2765-352.4267,79.2839-529.4782,86.4119-13.5578-1.3003-21.3112-2.1552-21.3112-2.1552l-21.0714-57.6585-26.4776-87.8188s96.1959,41.3443,134.6699-74.03c124.995,70.3746,218.2274,20.4561,253.2462-77.4675,0,0-2.2524,154.1091-177.2893,136.3285C1327.2141,546.9921,1546.5269,521.2058,1698.68,578.973Z" style="mix-blend-mode:soft-light" opacity=".6"></path><path fill="#e6e8e8" d="M1698.68,578.973c-13.3456,27.5656-27.9699,56.1292-42.7179,81.5169-73.9368,49.4482-508.0715,2.7398-508.0715,2.7398l-21.0714-57.6585C1161.9008,584.1215,1365.8597,510.8329,1698.68,578.973Z"></path><path d="M1655.9621,660.4899c-73.9368,49.4482-508.0715,2.7398-508.0715,2.7398l-21.0714-57.6585c35.0816-21.4497,239.0405-94.7383,571.8608-26.5982,0,0-128.7151-19.037-258.0685-10.0408C1311.2651,577.886,1573.5906,613.8334,1655.9621,660.4899Z" style="mix-blend-mode:soft-light" opacity=".6"></path><path fill="#b7765a" d="M1166.3163,866.9096c-.0369-.0175-.0369-.0175-.0915.002-1.1993.5193-2.5077,1.0777-3.8726,1.5639-73.7093,27.7917-84.9069-69.0235-59.0745-93.0513,6.2989-5.7195,12.3989-8.6304,18.0075-9.5515,18.1016-3.1561,31.965,12.3622,31.965,12.3622a161.50148,161.50148,0,0,1,16.9397,15.3453l.0933.0897c11.6871,12.1712,24.6774,29.8154,22.3693,46.0487-.0176.0371.002.0915-.0156.1286C1191.1195,849.9235,1183.6711,859.4978,1166.3163,866.9096Z"></path><path d="M1166.3163,866.9096c-.0369-.0175-.0369-.0175-.0915.002-39.4962,12.0067-60.3997-34.0719-57.0165-56.0098,3.3637-21.9925,22.9072-11.0816,22.9072-11.0816a78.04174,78.04174,0,0,0-10.8303-33.9475c18.1016-3.1561,31.965,12.3622,31.965,12.3622a161.50148,161.50148,0,0,1,16.9397,15.3453l.0933.0897c15.896,20.7925,22.006,35.4426,22.3693,46.0487-.0176.0371.002.0915-.0156.1286C1191.1195,849.9235,1183.6711,859.4978,1166.3163,866.9096Z" style="mix-blend-mode:soft-light" opacity=".3"></path><path fill="#995942" d="M1161.0117,850.8578c-7.7112-12.0811-13.7219-24.2205-21.2242-34.8427-3.7684-5.1993-7.8031-10.0713-12.733-13.1743-4.8878-3.138-11.1731-3.6372-18.3053-1.8625a19.72872,19.72872,0,0,1,21.4851-5.2485c7.8145,2.7145,13.3799,8.5861,17.696,14.5169a71.707,71.707,0,0,1,9.5079,19.5084A67.19875,67.19875,0,0,1,1161.0117,850.8578Z"></path><path fill="#b7765a" d="M1639.199,866.9096c.0369-.0175.0369-.0175.0915.002,1.1993.5193,2.5077,1.0777,3.8726,1.5639,73.7093,27.7917,84.9069-69.0235,59.0744-93.0513-6.2989-5.7195-12.3988-8.6304-18.0074-9.5515-18.1016-3.1561-31.965,12.3622-31.965,12.3622a161.50148,161.50148,0,0,0-16.9397,15.3453l-.0933.0897c-11.6871,12.1712-24.6775,29.8154-22.3693,46.0487.0176.0371-.002.0915.0156.1286C1614.3958,849.9235,1621.8442,859.4978,1639.199,866.9096Z"></path><path d="M1639.199,866.9096c.0369-.0175.0369-.0175.0915.002,39.4962,12.0067,60.3997-34.0719,57.0165-56.0098-3.3637-21.9925-22.9072-11.0816-22.9072-11.0816a78.04174,78.04174,0,0,1,10.8303-33.9475c-18.1016-3.1561-31.965,12.3622-31.965,12.3622a161.50148,161.50148,0,0,0-16.9397,15.3453l-.0933.0897c-15.896,20.7925-22.006,35.4426-22.3693,46.0487.0176.0371-.002.0915.0156.1286C1614.3958,849.9235,1621.8442,859.4978,1639.199,866.9096Z" style="mix-blend-mode:soft-light" opacity=".3"></path><path fill="#995942" d="M1644.5036,850.8578a67.19885,67.19885,0,0,1,3.5736-21.1027,71.70924,71.70924,0,0,1,9.5077-19.5084c4.3162-5.9308,9.8816-11.8024,17.6961-14.5169a19.72872,19.72872,0,0,1,21.4851,5.2485c-7.1322-1.7747-13.4175-1.2755-18.3053,1.8625-4.93,3.103-8.9645,7.975-12.7329,13.1743C1658.2255,826.6373,1652.2148,838.7767,1644.5036,850.8578Z"></path><path fill="#b7765a" d="M1660.7993,652.7461l-1.115,6.4213-1.7688,10.1512-19.3027,111.278-7.5748,43.6422a66.64791,66.64791,0,0,0-.846,7.7672,62.35794,62.35794,0,0,0,2.5764,21.2637c7.6133,25.4162,15.8419,84.0545-53.5626,120.7369a.14144.14144,0,0,0-.1155.0385c-4.6909,2.461-9.7665,4.8449-15.1883,7.1134-35.3752,14.7654-86.8614,24.4552-161.1493,24.4552-124.0054,0-184.5277-27.1083-212.5974-59.3303-29.5305-33.8373-23.3014-73.3652-17.3798-93.0137a63.96487,63.96487,0,0,0,1.7304-29.0309l-29.7998-171.4927s109.1246-48.1411,258.0466-48.1411C1551.6745,604.605,1660.7993,652.7461,1660.7993,652.7461Z"></path><path fill="#fff" d="M1632.7684 853.2697c7.6133 25.4162 15.8419 84.0545-53.5626 120.7369a.14144.14144 0 00-.1155.0385c-4.6909 2.461-9.7665 4.8449-15.1883 7.1134-12.7274-11.3047-20.802-26.339-20.802-46.2953 0-62.5986 52.2166-90.9374 87.092-102.8572A62.35794 62.35794 0 001632.7684 853.2697zM1657.9155 669.3186l-19.3027 111.278c-65.7901 12.1506-121.3138-37.9514-110.7781-89.4762C1539.3701 634.6739 1633.4605 661.3591 1657.9155 669.3186z" opacity=".11"></path><path d="M1660.7993,652.7461l-1.115,6.4213c-61.8297-14.2653-366.1719-77.5947-417.5042,43.2577-57.1771,134.6565,33.0295,330.9503,336.9102,271.62-106.1255,36.4518-281.2328,45.411-388.935-27.7617-29.5305-33.8373-23.3014-73.3652-17.3798-93.0137a63.96487,63.96487,0,0,0,1.7304-29.0309l-29.7998-171.4927s109.1246-48.1411,258.0466-48.1411C1551.6745,604.605,1660.7993,652.7461,1660.7993,652.7461Z" style="mix-blend-mode:soft-light" opacity=".3"></path><ellipse cx="1307.893" cy="757.251" rx="31.303" ry="46.859" transform="rotate(-2.115 1307.893 757.25)" style="mix-blend-mode:soft-light" opacity=".3"></ellipse><ellipse cx="1309.713" cy="772.196" fill="#333" rx="24.582" ry="19.717" transform="rotate(-89.125 1309.713 772.196)"></ellipse><path fill="#fff" d="M1321.0943 764.5588c-.0789 5.1611-3.6158 9.292-7.9 9.2266s-7.6933-4.3024-7.6145-9.4636 3.6157-9.292 7.8999-9.2266S1321.1731 759.3976 1321.0943 764.5588zM1307.5729 778.1811a4.481 4.481 0 11-4.412-4.5489A4.481 4.481 0 011307.5729 778.1811z"></path><ellipse cx="1497.039" cy="752.811" rx="28.251" ry="42.29" transform="rotate(-2.255 1497.038 752.811)" style="mix-blend-mode:soft-light" opacity=".3"></ellipse><ellipse cx="1498.715" cy="766.295" fill="#333" rx="22.185" ry="17.794" transform="rotate(-89.265 1498.713 766.293)"></ellipse><path fill="#fff" d="M1508.9693 759.3779c-.0598 4.6581-3.2427 8.3939-7.1093 8.3443s-6.9526-3.8659-6.8929-8.524 3.2428-8.3939 7.1094-8.3443S1509.0291 754.7199 1508.9693 759.3779zM1496.7964 771.7017a4.04408 4.04408 0 11-3.9918-4.0957A4.04408 4.04408 0 011496.7964 771.7017z"></path><path fill="#333" d="M1348.4202,695.2146c-6.4053,1.4778-15.338,4.4114-24.8014,7.7413-5.4034,1.9778-10.9689,4.0338-16.3338,6.1333-4.0224,1.5141-7.8832,3.0308-11.4601,4.4304-7.925,3.1108-14.4707,5.8387-18.0888,7.3186-1.9104.7788-2.968,1.2475-2.968,1.2475-12.0407-5.1528-19.9131-24.0178-19.9131-24.0178,1.5394-2.9255,3.1578-5.7287,4.7743-8.4108a128.66,128.66,0,0,1,13.2482-18.3403,95.88427,95.88427,0,0,1,11.8533-11.696,74.46486,74.46486,0,0,1,13.1021-8.8086,51.25575,51.25575,0,0,1,24.2976-6.4966C1343.2181,644.3548,1356.1115,675.6583,1348.4202,695.2146Z"></path><path d="M1295.8249 713.5196c-7.925 3.1108-14.4707 5.8387-18.0888 7.3186a120.55334 120.55334 0 01-18.1068-31.1811 128.66 128.66 0 0113.2482-18.3403C1275.6667 681.7822 1282.1411 699.5754 1295.8249 713.5196zM1323.6188 702.9559c-5.4034 1.9778-10.9689 4.0338-16.3338 6.1333-7.7238-10.0557-18.7278-27.5547-22.5542-49.4684a74.46486 74.46486 0 0113.1021-8.8086C1300.0311 662.9652 1306.3476 685.8058 1323.6188 702.9559z" style="mix-blend-mode:soft-light" opacity=".3"></path><path fill="#333" d="M1548.4833,695.593c-3.6456,5.8052-9.0806,14.0372-12.2831,17.0939-2.5414,2.4156-20.0233-.8567-38.0385-5.2895-2.6939-.6923-5.3884-1.3847-8.0329-2.0763-3.3427-.8524-6.5856-1.7533-9.6776-2.6022-6.1344-1.7465-11.6701-3.3841-15.9562-4.8018-3.5888-1.157-6.3288-2.1506-7.8209-2.8246-9.65-4.4551,9.2702-33.0187,19.3518-43.7345,3.8187-4.0491,9.8547-5.71,16.4701-5.9095a58.5211,58.5211,0,0,1,18.8943,2.6427,51.86814,51.86814,0,0,1,9.2598,3.6979c.546.3591,1.0916.6679,1.5883.976a51.60592,51.60592,0,0,1,5.5955,4.2432c7.2204,6.0711,15.9423,15.5212,20.777,23.6596A14.29116,14.29116,0,0,1,1548.4833,695.593Z"></path><path d="M1511.3903 648.0912c-17.7484 17.4614-27.2495 42.6122-30.9391 54.6277-6.1344-1.7465-11.6701-3.3841-15.9562-4.8018a140.06316 140.06316 0 0128.001-52.4686A58.5211 58.5211 0 011511.3903 648.0912zM1527.8339 657.0083c-15.6364 16.9424-25.3407 38.9845-29.6722 50.3891-2.6939-.6923-5.3884-1.3847-8.0329-2.0763 11.4716-29.5789 24.3024-46.4639 30.5213-53.532.546.3591 1.0916.6679 1.5883.976A51.60592 51.60592 0 011527.8339 657.0083z" style="mix-blend-mode:soft-light" opacity=".3"></path><path fill="#995942" d="M1381.108,891.9968c5.8871.901,11.4345,1.9339,16.9518,2.6292a138.17132,138.17132,0,0,0,16.4005,1.05,140.0095,140.0095,0,0,0,16.3978-1.0613c5.516-.6971,11.0633-1.7255,16.9544-2.6179a47.7947,47.7947,0,0,1-15.6044,8.4653,55.6155,55.6155,0,0,1-35.4931-.0114A48.02669,48.02669,0,0,1,1381.108,891.9968Z"></path><path fill="#333" d="M1174.5059 824.2388a141.754 141.754 0 01-26.0316-38.7588c-23.1478-50.0251-20.3409-110.4322-3.7682-132.7339 2.1533-1.269 4.4603-2.5377 6.8827-3.6914 19.3026-9.4204 45.4495-15.3805 45.4495-15.3805S1168.5072 757.9873 1174.5059 824.2388zM1655.9544 787.787a141.4651 141.4651 0 01-24.9548 36.4518c5.9984-66.2515-22.5324-190.5646-22.5324-190.5646s24.3395 5.5369 43.4114 14.4192a92.22326 92.22326 0 018.9207 4.6527C1677.6025 675.394 1680.2557 737.3004 1655.9544 787.787z"></path><path d="M1630.9996 824.2388c5.9984-66.2515-22.5324-190.5646-22.5324-190.5646s24.3395 5.5369 43.4114 14.4192c-10.0357 27.0699-26.2623 87.5922 4.0758 139.6936A141.4651 141.4651 0 011630.9996 824.2388zM1174.5059 824.2388a141.754 141.754 0 01-26.0316-38.7588c28.2231-50.9864 13.035-109.317 3.1145-136.4253 19.3026-9.4204 45.4495-15.3805 45.4495-15.3805S1168.5072 757.9873 1174.5059 824.2388z" style="mix-blend-mode:soft-light" opacity=".3"></path><path fill="#280303" d="M1501.8742,862.6828s-.2531,1.2653-.9278,3.501c-4.1339,13.8353-23.579,64.0299-88.1995,64.0299-64.5782,0-84.0655-50.1946-88.1991-64.0299-.675-2.2357-.9281-3.501-.9281-3.501Z"></path><path fill="#fff" d="M1501.8742,862.6828s-.2531,1.2653-.9278,3.501c-1.6451,1.7715-3.4589,3.5853-5.3993,5.3148a100.46231,100.46231,0,0,1-35.1785,20.6263c-12.9914,4.5553-28.7249,7.3816-47.6217,7.3816-45.8501,0-72.8034-16.788-88.1991-33.3227-.675-2.2357-.9281-3.501-.9281-3.501Z"></path><path fill="#e5e5e5" d="M1501.8742,862.6828s-.2531,1.2653-.9278,3.501c-1.6451,1.7715-3.4589,3.5853-5.3993,5.3148-9.6592,1.8982-65.4641,12.3588-111.1033,9.575,20.9638,16.7455,56.1843,14.2148,75.9248,11.0513-12.9914,4.5553-28.7249,7.3816-47.6217,7.3816-45.8501,0-72.8034-16.788-88.1991-33.3227-.675-2.2357-.9281-3.501-.9281-3.501Z"></path><path fill="#333" d="M1568.17,835.3128c-.2307,14.304-3.2297,38.1438-153.7282,38.1438h-.2692c-150.1907-.0385-153.1898-23.8398-153.4205-38.1438-.2692-14.2653,9.2667-27.5695,9.2667-27.5695s-8.5361,23.5706,0,34.6061c8.5363,11.0355,42.3734-6.4213,66.4439-22.917,16.5725-11.343,34.337-19.2639,52.7166-23.0708a29.68206,29.68206,0,0,0,45.9878-.8458,125.05263,125.05263,0,0,1,16.5725,3.9603,150.99862,150.99862,0,0,1,40.7198,19.9563c24.0706,16.4957,57.9079,33.9525,66.444,22.917s0-34.6061,0-34.6061S1568.4392,821.0475,1568.17,835.3128Z"></path><path d="M1414.1726,873.4566c-150.1907-.0385-153.1898-23.8398-153.4205-38.1438-.2692-14.2653,9.2667-27.5695,9.2667-27.5695s-8.5361,23.5706,0,34.6061c8.5363,11.0355,42.3734-6.4213,66.4439-22.917,16.5725-11.343,34.337-19.2639,52.7166-23.0708a29.68206,29.68206,0,0,0,45.9878-.8458,125.05263,125.05263,0,0,1,16.5725,3.9603c-8.613,8.0749-27.3773,20.6484-61.3683,22.1865C1349.9207,823.4699,1349.4593,861.1906,1414.1726,873.4566Z" style="mix-blend-mode:soft-light" opacity=".3"></path><path fill="#fff" d="M1440.8963,779.2892a18.11255,18.11255,0,0,1-1.0382,6.9982.2985.2985,0,0,0-.0383.1154s-.0385.1153-.1154.3844c-.1538.3462-.3462.9613-.6537,1.7689-.1154.3459-.2691.7306-.4231,1.1535a29.44412,29.44412,0,0,1-54.7931-3.3068.29909.29909,0,0,0-.0382-.1154,18.11182,18.11182,0,0,1-1.0383-6.9982c.3462-6.8442,5.2293-16.3033,29.0692-16.3033S1440.5502,772.445,1440.8963,779.2892Z" opacity=".11"></path><path fill="#995942" d="M1440.9348,778.7894l.1035.535.0046-.0347a20.31808,20.31808,0,0,1,.5186,7.4964l-.1146.2929a1.31007,1.31007,0,0,0,.17-.6734l-.0924.5659a6.52368,6.52368,0,0,1-.1937,1.2024l-.3252,1.4243.1468-.341a27.87433,27.87433,0,0,1-10.9872,16.665,31.30693,31.30693,0,0,1-19.6695,5.8822,30.7082,30.7082,0,0,1-19.0858-7.5021c-5.1267-4.6052-8.6732-10.8383-9.3091-17.3934l-.0667-.6876-.0057.1843a1.31759,1.31759,0,0,0,.1711.6774l-.1152-.2944a20.261,20.261,0,0,1,.5263-7.4989l.0045.035.1044-.5353.1813.4639.0047.0364a32.28348,32.28348,0,0,0,2.6022,6.4956l-.1145-.2924a2.361,2.361,0,0,1,.2473.9064l-.0718-.5017a30.18733,30.18733,0,0,0,10.9452,11.6588,29.40615,29.40615,0,0,0,28.9379.9701,29.6558,29.6558,0,0,0,11.4968-10.6705l.1475-.3427.4674-.7204a4.497,4.497,0,0,0,.5511-.9578l-.0917.5642a2.35586,2.35586,0,0,1,.2461-.9024l-.1139.291a32.11981,32.11981,0,0,0,2.5947-6.4982l.0047-.0361Z"></path></g></svg>