<svg xmlns="http://www.w3.org/2000/svg" viewBox="0 0 2800 1900" id="chef-holding-empty-board"><g data-name="Layer 1"><ellipse cx="1411.253" cy="1726.787" fill="#d1bfb2" rx="1067.515" ry="90.784"></ellipse><path fill="#6b6b6b" d="M1009.3837,1733.5218c-.0816.2046-.2045.4502-.327.6954-8.997,19.0164-55.0044,4.9891-116.5519,8.7107-62.2838,3.7211-108.6183,2.0448-74.4705-30.9581,1.0633-1.0224,2.1266-2.0038,3.2306-2.9853,33.6161-29.4444,74.6341-22.2059,95.5725-29.4035,19.916-6.8707,28.954-26.9914,30.2217-30.0995a2.72411,2.72411,0,0,0,.2045-.4083l58.6855,23.9484s1.2263,4.3509,2.2487,8.686C1010.9787,1693.8125,1015.4364,1718.7177,1009.3837,1733.5218Z"></path><path d="M1009.0567,1734.2172c-8.997,19.0164-55.0044,4.9891-116.5519,8.7107-62.2838,3.7211-108.6183,2.0448-74.4705-30.9581,1.0633-1.0224,2.1266-2.0038,3.2306-2.9853,33.6161-29.4444,74.6341-22.2059,95.5725-29.4035,19.916-6.8707,28.954-26.9914,30.2217-30.0995a2.72411,2.72411,0,0,0,.2045-.4083l58.6855,23.9484s1.2263,4.3509,2.2487,8.686c-11.6144,4.4984-35.0474,10.0192-81.7908,12.064-83.672,3.6397-62.3654,46.5389,44.6168,42.2857C985.46,1735.4437,998.0558,1734.8307,1009.0567,1734.2172Z" style="mix-blend-mode:soft-light" opacity=".3"></path><path fill="#333" d="M1074.4177,1466.9903c-4.782,12.307-10.3359,28.283-16.1714,45.9185-22.6738,68.5812-51.4256,163.3242-51.4256,163.3242s-9.1918,2.7904-34.3071,2.0086c-13.4435-.3812-23.7844.7809-45.6051-3.7231-1.5088-127.3996,1.7014-237.483,1.7014-237.483S1097.8081,1406.7278,1074.4177,1466.9903Z"></path><path d="M1074.4177,1466.9903c-4.782,12.307-10.3359,28.283-16.1714,45.9185-31.2293,7.3794-92.9074,38.0659-85.7327,165.3328-13.4435-.3812-23.7844.7809-45.6051-3.7231-1.5088-127.3996,1.7014-237.483,1.7014-237.483S1097.8081,1406.7278,1074.4177,1466.9903Z" style="mix-blend-mode:soft-light" opacity=".3"></path><path fill="#e6e8e8" d="M1373.8108,1352.4439a380.51561,380.51561,0,0,1-19.4663,42.5313.1268.1268,0,0,1-.0409.0819c-27.4406,50.7104-66.3322,89.6838-121.2954,102.8111-69.563,16.6037-129.7609,18.4029-179.3266,13.2091-103.2199-10.7146-160.4325-51.61-160.4325-51.61l1.4317-15.0906,3.1081-32.5935h.0409l4.4979-47.2748c-80.073-5.0715-124.4034-32.1438-140.3118-44.8217-26.1322-20.7747-51.2011-68.2542-32.0209-198.4245,19.2206-130.1289,97.6168-155.1978,97.6168-155.1978s189.9184-173.3551,273.3042-161.373c26.541,3.803,53.4914,11.1234,77.9468,19.3025a687.53534,687.53534,0,0,1,93.1189,39.0962l144.8102,139.2485S1430.7783,1205.0977,1373.8108,1352.4439Z"></path><path fill="#b7765a" d="M941.163,972.09s54.0578,19.431,132.6188,8.6293c28.5531-55.6088,27.3625-135.6215,27.3625-135.6215Z"></path><path fill="#b23030" d="M1078.71 1156.6373c-13.7003.7768-31.6939 1.5945-52.1416 2.1671-3.7625-25.9685-8.0158-51.8147-12.8008-77.0059 64.574-97.0856 80.0326-213.7602 80.0326-213.7602l39.9958-53.0003s-5.2757 157.4063-69.8496 254.4919C1069.222 1097.2162 1074.1702 1126.6197 1078.71 1156.6373zM1354.3445 1394.9752c-27.4406 50.7513-66.3322 89.7657-121.3363 102.893-69.563 16.6037-129.7609 18.4029-179.3266 13.2091-.2451-20.5296-.8587-45.0668-2.0039-72.4665-1.1042-26.5411-2.6578-55.8223-4.8253-86.7799q25.70235-5.46045 53.9407-13.7822c3.5175 37.624 6.0115 72.7121 7.3205 102.8115C1222.4979 1441.1463 1307.0697 1414.7684 1354.3445 1394.9752z"></path><path fill="#7c7c7c" d="M913.5336,1157.3731c-10.5412-12.1567-17.2317-27.1399-22.4561-42.1444-5.0082-15.1506-8.6221-30.7793-9.5658-46.762,5.4931,15.0093,10.0507,30.0235,15.1306,44.8799C901.6573,1128.243,906.9741,1142.8315,913.5336,1157.3731Z"></path><path fill="#b23030" d="M1103.4105 1337.3128c-50.4648 14.9674-94.7548 22.9832-133.2779 26.2136 8.9558-71.9343 11.0415-166.6891 11.5328-204.1494 66.8224.0818 124.4034-4.4984 124.4034-4.4984S1112.4897 1250.9009 1103.4105 1337.3128zM1053.6816 1511.0773c-103.2199-10.7146-160.4325-51.61-160.4325-51.61l4.5398-47.6841h.0409a840.19744 840.19744 0 00153.8479 26.8276C1052.8229 1466.0105 1053.4365 1490.5477 1053.6816 1511.0773z"></path><path d="M1053.6816,1511.0773c-103.2199-10.7146-160.4325-51.61-160.4325-51.61l4.5398-47.6841h.0409a840.19744,840.19744,0,0,0,153.8479,26.8276C1052.8229,1466.0105,1053.4365,1490.5477,1053.6816,1511.0773Z" style="mix-blend-mode:soft-light" opacity=".3"></path><path d="M1235.707,1303.6969l4.8668,17.7485s-41.1405,41.468-135.0366,33.9838c84.8169,71.4851,248.8073,39.546,248.8073,39.546a.1268.1268,0,0,1-.0409.0819c-3.476,4.0895-155.5253,182.1886-459.6228,49.3196l3.1081-32.5935h.0409l4.4979-47.2748c-80.073-5.0715-124.4034-32.1438-140.3118-44.8217-26.1322-20.7747-51.2011-68.2542-32.0209-198.4245,19.2206-130.1289,97.6168-155.1978,97.6168-155.1978s189.9184-173.3551,273.3042-161.373c26.541,3.803,42.869,7.6817,67.3243,15.8608-40.3013,116.8995-121.3879,210.0862-350.1974,261.778-33.0847,154.7071,48.1339,201.4098,290.2344,175.9315,28.7496,58.7672,157.8152-63.919,198.3426-64.9823,40.5679-1.0633,66.7411-4.3351,66.7411-4.3351s-16.8489,52.6732-109.5584,67.4364C1251.1656,1294.0861,1235.707,1303.6969,1235.707,1303.6969Z" style="mix-blend-mode:soft-light" opacity=".6"></path><path fill="#333" d="M1092.5095,654.9348a140.22714,140.22714,0,0,1-7.276,35.819c-40.5146,64.2989-90.9386-177.5637-90.9386-177.5637l31.425,18.3241s11.5955,7.1115,25.103,20.793C1071.011,572.6543,1095.5706,607.5555,1092.5095,654.9348Z"></path><path d="M1092.5095,654.9348a140.22714,140.22714,0,0,1-7.276,35.819c-40.5146,64.2989-90.9386-177.5637-90.9386-177.5637l31.425,18.3241s11.5955,7.1115,25.103,20.793C1054.463,578.6565,1064.603,622.154,1092.5095,654.9348Z" style="mix-blend-mode:soft-light" opacity=".3"></path><path fill="#b7765a" d="M1107.3562,718.0461c-28.6145,6.3751-27.3388-18.8698-23.7625-35.292l.0149-.0773a106.77027,106.77027,0,0,1,3.7224-13.0986s2.272-12.2199,11.5255-16.3472a17.30014,17.30014,0,0,1,10.9368-.8499C1128.2419,656.3359,1149.0518,708.8048,1107.3562,718.0461Z"></path><path d="M1116.5716,672.1616c7.4654,10.033,9.3668,36.1442-12.1752,42.5516-11.3997,3.3409-18.2705-13.7817-20.8027-31.9591l.0149-.0773a106.77027,106.77027,0,0,1,3.7224-13.0986s2.272-12.2199,11.5255-16.3472a50.093,50.093,0,0,0,4.0974,20.5745S1109.1066,662.1293,1116.5716,672.1616Z" style="mix-blend-mode:soft-light" opacity=".3"></path><path fill="#995942" d="M1103.2531,708.7229a41.58443,41.58443,0,0,1-4.0823-11.7771,48.25243,48.25243,0,0,1-.8914-12.5631c.4298-4.2339,1.3323-8.7034,4.0272-12.5274a12.23636,12.23636,0,0,1,5.3292-4.3813,11.6611,11.6611,0,0,1,3.2845-.7384,31.08077,31.08077,0,0,1,3.2006.2734,12.36022,12.36022,0,0,0-8.0558,7.0694,35.30656,35.30656,0,0,0-2.2113,10.7293C1103.2875,692.4729,1103.6967,700.3764,1103.2531,708.7229Z"></path><path fill="#b23030" d="M1018.4759,317.7304s5.8134,60.1555,7.7356,127.94c.754,28.548.8735,58.4742-.4762,85.8315-34.8761,63.137-325.8472,183.9006-402.9024,215.0254-11.8401,4.8028-18.6591,7.4575-18.6591,7.4575l-42.3361-38.4806L502.0289,654.461s97.8253-7.5538,80.2055-119.505c134.2757,3.9363,190.3755-77.6968,177.3879-173.7398,105.518,64.0635,192.0437,22.059,216.2642-37.1231C1004.7677,337.4808,1018.4759,317.7304,1018.4759,317.7304Z"></path><path fill="#e6e8e8" d="M1117.9507,293.5451c12.2527,37.3562-9.4709,78.7933-49.3368,98.4306,5.8409,2.389,10.005,6.0384,11.5891,10.8681,4.7526,14.4898-14.8685,33.9229-43.8102,43.4157a100.16478,100.16478,0,0,1-10.1222,2.7767c.0049-1.1301-.0271-2.2479-.0591-3.3658-1.9222-67.7845-7.7356-127.94-7.7356-127.94l-.0254.0499c-.746,1.0387-14.522,19.3072-42.564,6.3128-24.2205,59.1821-110.7462,101.1866-216.2642,37.1231,12.9876,96.043-43.1122,177.6761-177.3879,173.7398,17.6198,111.9512-80.2055,119.505-80.2055,119.505l59.8088,61.0432,19.5927,17.8135a86.19061,86.19061,0,0,1-45.234,33.9778c-28.8288,9.4557-58.6496,3.3974-79.0639-13.3528-42.6865,8.2335-84.4909-12.8263-96.9293-50.7486-6.3119-19.244-3.9418-39.4133,4.9712-57.0895a131.30383,131.30383,0,0,1-37.4878-56.955c-20.5325-62.5999,9.3966-131.1355,68.7839-170.3821a138.03675,138.03675,0,0,1-8.8904-20.9897c-25.0746-76.448,21.2026-160.2505,103.3862-187.2064,39.9978-13.1191,81.1238-10.3089,115.6859,4.8515,3.8133-53.8678,44.3319-104.7713,105.0067-124.6724,74.3729-24.3939,151.882,6.6456,177.4361,69.5208a153.2743,153.2743,0,0,1,32.4025-31.9424c54.3925-39.8232,123.5516-37.8076,154.4548,4.4228,22.9805,31.4551,18.306,76.3275-7.9939,113.6239C1091.5437,253.9358,1110.4135,270.5655,1117.9507,293.5451Z"></path><ellipse cx="504.963" cy="307.365" fill="#fff" opacity=".5" rx="115.982" ry="67.337" transform="rotate(-31.798 504.963 307.365)"></ellipse><ellipse cx="745.731" cy="185.424" fill="#fff" opacity=".5" rx="115.982" ry="73.137" transform="rotate(-14.263 745.73 185.424)"></ellipse><ellipse cx="983.639" cy="199.435" fill="#fff" opacity=".5" rx="91.103" ry="57.449" transform="rotate(-40.503 983.64 199.435)"></ellipse><path d="M1018.4759,317.7304l-.0254.0499c-.746,1.0387-14.522,19.3072-42.564,6.3128-24.2205,59.1821-110.7462,101.1866-216.2642,37.1231,12.9876,96.043-43.1122,177.6761-177.3879,173.7398,17.6198,111.9512-80.2055,119.505-80.2055,119.505l59.8088,61.0432,19.5927,17.8135a86.19061,86.19061,0,0,1-45.234,33.9778c-28.8288,9.4557-58.6496,3.3974-79.0639-13.3528-42.6865,8.2335-84.4909-12.8263-96.9293-50.7486-6.3119-19.244-3.9418-39.4133,4.9712-57.0895a131.30383,131.30383,0,0,1-37.4878-56.955c-20.5325-62.5999,9.3966-131.1355,68.7839-170.3821,0,0,25.5321,156.2059,166.1523,83.9208,79.2597,22.232,175.5228-20.793,189.2444-163.4608,72.4043,66.19,194.1867,38.5331,217.279-39.3785C993.6963,328.6998,1018.4759,317.7304,1018.4759,317.7304Z" style="mix-blend-mode:soft-light" opacity=".6"></path><path d="M1026.2115,445.6704C979.8511,531.0049,767.082,663.8993,622.8329,746.5273c-11.8401,4.8028-18.6591,7.4575-18.6591,7.4575l-42.3361-38.4806L502.0289,654.461s97.8253-7.5538,80.2055-119.505c134.2757,3.9363,190.3755-77.6968,177.3879-173.7398,0,0,64.421,128.2379-88.8672,189.4236C703.3763,580.2704,874.7623,463.9166,1026.2115,445.6704Z" style="mix-blend-mode:soft-light" opacity=".6"></path><path fill="#e6e8e8" d="M1026.2115,445.6704c.754,28.548.8735,58.4742-.4762,85.8315-40.2472,72.8813-421.5615,222.4829-421.5615,222.4829l-42.3361-38.4806C581.8,682.5854,719.9762,533.6599,1026.2115,445.6704Z"></path><path d="M1025.7353,531.5019c-40.2472,72.8813-421.5615,222.4829-421.5615,222.4829l-42.3361-38.4806C581.8,682.5854,719.9762,533.6599,1026.2115,445.6704c0,0-115.2866,40.0701-219.0449,103.5665C703.3959,612.6953,937.1274,528.6769,1025.7353,531.5019Z" style="mix-blend-mode:soft-light" opacity=".6"></path><path fill="#b7765a" d="M1143.0278,802.7156q-.57855,2.823-1.3839,5.7199c-.7924,2.9347-1.7359,5.9189-2.7678,8.8903-14.5646,41.2204-54.1254,86.2512-119.7993,127.1005-97.0874,60.3886-184.8875,56.7137-244.546,34.8645-.1881-.0635-.3381-.1398-.5263-.2034-.0875-.0131-.15-.0763-.238-.0892-24.2946-8.9576-43.9026-20.9568-57.4958-32.8395-13.9937-12.2109-29.6228-34.25-44.635-59.1241-35.3833-58.5649-67.4619-133.0498-67.4619-133.0498s26.0963-41.9938,92.1229-90.8155c65.711-48.6349,170.9498-104.0491,329.4386-131.6674,1.0038,2.8053,1.9574,5.5851,2.9241,8.2773.1856.5658.4214,1.1573.607,1.7232,13.2331,37.1599,24.6816,66.7138,34.2521,89.9042,15.1693,36.6922,25.681,57.526,31.1457,67.5609,2.9752,5.3767,4.4838,7.6819,4.4838,7.6819C1136.4236,729.3204,1151.4032,763.776,1143.0278,802.7156Z"></path><path fill="#fff" d="M1063.5185 631.4066c-52.7574 8.1097-122.4256 10.1478-109.2255-21.5979 12.667-30.4423 49.9807-54.8011 74.9734-68.3063C1042.4995 578.6623 1053.948 608.2162 1063.5185 631.4066zM1143.0278 802.7156q-.57855 2.823-1.3839 5.7199a101.9655 101.9655 0 01-32.9051.7207c-32.3131-4.9904-55.4737-35.4671-51.2364-67.9089 2.9721-22.5399 19.2197-35.1828 37.1618-42.2798 2.9752 5.3767 4.4838 7.6819 4.4838 7.6819C1136.4236 729.3204 1151.4032 763.776 1143.0278 802.7156z" opacity=".11"></path><path d="M1138.8761,817.3258c-76.1825,144.7658-272.5386,194.2914-364.3453,161.965-.1881-.0635-.3381-.1398-.5263-.2034-.0875-.0131-.15-.0763-.238-.0892-24.2946-8.9576-43.9026-20.9568-57.4958-32.8395-13.9937-12.2109-29.6228-34.25-44.635-59.1241-35.3833-58.5649-67.4619-133.0498-67.4619-133.0498s26.0963-41.9938,92.1229-90.8155c65.711-48.6349,170.9498-104.0491,329.4386-131.6674,1.0038,2.8053,1.9574,5.5851,2.9241,8.2773C962.5191,560.0936,803.19,618.7888,776.0765,720.7547c-34.3655,129.2947,23.5637,226.0187,98.1828,241.7487C948.9162,978.221,1101.6813,879.6352,1138.8761,817.3258Z" style="mix-blend-mode:soft-light" opacity=".3"></path><path fill="#fff" d="M1004.3701,741.0795c-10.5903,13.9636-22.0859,25.4241-25.3167,13.1519a41.64642,41.64642,0,0,1,.0295-21.8257c9.5528-9.6111,18.8892-16.0586,22.5882-9.7492C1004.1621,726.9383,1004.9839,733.6481,1004.3701,741.0795Z" opacity=".11"></path><path d="M1004.3701,741.0795s-15.8835,31.5867-33.4768,36.9483-21.9863-4.8938-10.4177-24.168c-13.2106,15.7006-19.974,32.8624,1.7742,32.7032s32.1777-8.7183,35.7055-21.4114S1004.3701,741.0795,1004.3701,741.0795Z" style="mix-blend-mode:soft-light" opacity=".3"></path><path fill="#280303" d="M845.6993,873.7396s-10.0503,29.1898-2.8548,48.6347,57.5647,19.2778,88.8415,4.113,55.177-46.1717,56.7619-86.213S845.6993,873.7396,845.6993,873.7396Z"></path><path fill="#fff" d="M967.4124,837.6231a54.14045,54.14045,0,0,1,.2528,15.2968,8.02951,8.02951,0,0,0-.1173.9163l-.0378.0123a43.35648,43.35648,0,0,1-8.376,20.8437c-2.17,2.0492-4.339,3.9725-6.5704,5.8329-.101.0749-.1642.1372-.2651.2122-41.7461,34.6726-92.362,36.1872-99.1322,25.9952-7.1566-10.7339-9.6637-40.2948-9.6637-40.2948Z"></path><path fill="#e5e5e5" d="M967.4124,837.6231a54.14045,54.14045,0,0,1,.2528,15.2968l-.0919.8661-.0254.0502-.0378.0123c-1.501,1.412-32.3535,29.5441-92.2292,39.9049,2.4737,18.2462,50.0311,7.7881,77.0177-13.0161-41.7461,34.6726-92.362,36.1872-99.1322,25.9952-7.1566-10.7339-9.6637-40.2948-9.6637-40.2948Z"></path><path fill="#b7765a" d="M701.1283,929.6425c-1.5695,1.8582-3.3311,3.7349-5.238,5.6559-58.9092,58.7341-111.7259-29.658-97.2336-63.951,3.5399-8.2618,8.1633-13.7312,13.1689-17.0256,16.0854-10.9181,36.1696-1.9944,36.1696-1.9944a170.09263,170.09263,0,0,1,22.9223,7.4708l.1301.0396c9.0949,3.6824,19.2765,8.7339,27.4052,15.3554l.0472.0253C713.8473,887.671,721.834,905.5534,701.1283,929.6425Z"></path><path d="M701.1283,929.6425c-.0252.0472-.0252.0472-.061.058-32.7896,28.6595-75.0565-4.1936-81.3472-26.7771-6.2654-22.6305,17.2502-20.6322,17.2502-20.6322a82.17138,82.17138,0,0,0-25.1447-27.9694c16.0854-10.9181,36.1696-1.9944,36.1696-1.9944a170.09263,170.09263,0,0,1,22.9223,7.4708l.1301.0396c6.2416,6.1269,16.7662,10.877,27.4052,15.3554l.0472.0253C713.8473,887.671,721.834,905.5534,701.1283,929.6425Z" style="mix-blend-mode:soft-light" opacity=".3"></path><path fill="#995942" d="M686.9494,918.9228c-6.3956-4.1505-12.2497-8.4691-18.0708-12.6706-5.8541-4.1374-11.5622-8.2652-17.4838-11.6738-5.8376-3.4471-11.9011-6.3143-17.9771-7.1609-6.0676-.9011-12.3365,1.3454-18.4344,6.149a20.83523,20.83523,0,0,1,18.411-14.3756c8.7199-.7736,16.5621,2.5392,23.338,6.3025a78.48158,78.48158,0,0,1,17.6202,14.6595A70.96362,70.96362,0,0,1,686.9494,918.9228Z"></path><path fill="#333" d="M720.445,804.7761a244.61575,244.61575,0,0,1-11.4835,22.7163c-2.4499,4.2975-5.07,8.6859-7.9435,13.1513,0,0,.0691,1.4009.3005,3.8589a130.94111,130.94111,0,0,0,3.6495,19.4734c3.718,13.962,10.9319,31.2495,24.7918,42.9676-28.1658-5.092-42.0851-8.1417-58.1328-19.908-3.7394-6.2137-7.4503-12.5942-11.1001-19.0325l-.0109-.0363c-6.5099-11.5756-12.7997-23.3365-18.6677-34.751-6.6407-12.9186-12.7327-25.3318-18.0498-36.3604-11.9755-25.0478-19.6286-42.8733-19.6286-42.8733s26.1009-41.998,92.1279-90.8021a4.54109,4.54109,0,0,0,.5151.3967C719.0118,681.6949,755.3248,725.7925,720.445,804.7761Z"></path><ellipse cx="832.468" cy="742.82" rx="31.661" ry="47.395" transform="rotate(-21.149 832.468 742.82)" style="mix-blend-mode:soft-light" opacity=".3"></ellipse><ellipse cx="839.138" cy="756.509" fill="#333" rx="19.942" ry="24.863" transform="rotate(-18.159 839.138 756.51)"></ellipse><path fill="#fff" d="M847.5009 745.4533c1.6271 4.9607-.392 10.0771-4.5098 11.4277s-8.7751-1.5759-10.4022-6.5367.3921-10.0771 4.5099-11.4277S845.8739 740.4925 847.5009 745.4533zM839.0663 762.9382a4.53228 4.53228 0 11-5.7191-2.8941A4.53225 4.53225 0 01839.0663 762.9382z"></path><ellipse cx="1011.852" cy="676.184" rx="28.574" ry="42.773" transform="rotate(-24.735 1011.852 676.184)" style="mix-blend-mode:soft-light" opacity=".3"></ellipse><path fill="#333" d="M1035.3498,681.47c4.591,11.5106.8284,23.827-8.4041,27.5094s-20.4386-2.6637-25.0296-14.1743-.8284-23.827,8.404-27.5093S1030.7588,669.9594,1035.3498,681.47Z"></path><path fill="#fff" d="M1025.5415 677.7071c1.7456 4.3764.2156 9.0988-3.4172 10.5478s-7.9928-.9243-9.7384-5.3007-.2156-9.0988 3.4172-10.5478S1023.796 673.3306 1025.5415 677.7071zM1018.931 693.9322a4.09035 4.09035 0 11-5.3146-2.2839A4.09027 4.09027 0 011018.931 693.9322z"></path><path fill="#995942" d="M977.353,783.9605c5.9272-1.4149,10.1128-5.6164,13.2087-10.3029a62.39245,62.39245,0,0,0,6.9287-15.5081,80.13183,80.13183,0,0,0,3.0628-16.6613c.4064-5.489.1888-11.2983-1.7043-15.6176a5.1055,5.1055,0,0,0-.9851-1.7016c-.04-.051-.4216-.2287-1.375.0048a22.00587,22.00587,0,0,0-6.4535,3.4734c-4.53,3.1661-8.6936,7.3138-12.9385,11.3128-8.341,8.217-16.3555,16.9658-24.6661,25.592a175.66856,175.66856,0,0,1,20.1181-29.8018,95.153,95.153,0,0,1,12.9565-13.1052,26.75419,26.75419,0,0,1,9.0987-4.9993,9.48958,9.48958,0,0,1,7.2636.7668,8.98166,8.98166,0,0,1,2.8382,2.7066,14.25419,14.25419,0,0,1,1.426,2.5929c2.6384,6.7497,2.5378,13.2335,1.8861,19.4837a70.94313,70.94313,0,0,1-4.7106,18.026,55.04968,55.04968,0,0,1-9.7035,15.8415,30.81381,30.81381,0,0,1-7.3601,5.8066A17.6047,17.6047,0,0,1,977.353,783.9605Z"></path><path fill="#333" d="M1023.4629 831.5259c-13.952 5.245-27.9817 11.0168-42.0744 16.7258-43.208 17.4735-87.0549 34.5299-129.855 35.0273-56.7645.6057-61.8098-52.2372-61.8098-52.2372 5.9191 17.4087 14.9961 33.489 37.0195 36.7971 22.0233 3.3083 29.4922-9.0882 45.1253-37.4944 15.6208-28.444 34.3721-36.6422 67.7739-41.4541 48.658-4.2995 43.9729-6.7332 60.8319-15.857s35.5251-15.4135 46.2767-13.0889c10.7252 2.3749 20.1639 11.2738 36.416 13.424s19.5179-13.6318 14.8584-26.5639C1119.0223 778.0746 1081.9787 806.3149 1023.4629 831.5259zM850.5133 667.3774c-5.4791 3.427-12.8402 9.0175-20.5675 15.1464-4.3876 3.5706-8.9007 7.2658-13.2135 10.9371-3.2529 2.6969-6.3547 5.3442-9.2302 7.7919-6.3677 5.4319-11.5764 10.0659-14.4644 12.6013-1.5258 1.3364-2.3584 2.1109-2.3584 2.1109-12.8423-.9282-26.2072-15.9365-26.2072-15.9365.4926-3.2124 1.0979-6.3365 1.7403-9.3475a126.47457 126.47457 0 016.4321-21.2924 94.24227 94.24227 0 017.2659-14.6703 73.20309 73.20309 0 019.3523-12.3873 50.39171 50.39171 0 0120.4984-13.8282C829.3716 621.7781 851.391 646.7364 850.5133 667.3774z"></path><path d="M807.5021 701.2528c-6.3677 5.4319-11.5764 10.0659-14.4644 12.6013a118.51548 118.51548 0 01-26.8253-23.1731 126.47457 126.47457 0 016.4321-21.2924C778.5921 678.2204 790.3141 692.6809 807.5021 701.2528zM829.9458 682.5238c-4.3876 3.5706-8.9007 7.2658-13.2135 10.9371-10.4024-6.869-26.2397-19.6037-36.8219-38.7426a73.20309 73.20309 0 019.3523-12.3873C795.2023 652.9207 808.3958 672.1227 829.9458 682.5238z" style="mix-blend-mode:soft-light" opacity=".3"></path><path fill="#333" d="M1025.0538,597.4655c-1.2313,5.2939-3.1763,12.8693-4.7862,15.9885-1.2803,2.4677-15.2295,4.5355-29.8785,5.8715-2.1982.1776-4.3969.3555-6.5578.5209-2.7258.2255-5.3894.3887-7.9265.552-5.0495.2773-9.622.4812-13.2012.5269-2.989.0608-5.2997.0247-6.5923-.0947-8.3849-.8439-1.5898-27.1454,3.1957-37.784,1.8151-4.0224,5.9098-6.8281,10.8166-8.6883a46.401,46.401,0,0,1,14.845-2.9049,41.12242,41.12242,0,0,1,7.8967.3773c.5021.1279.9909.2183,1.4429.3208a40.929,40.929,0,0,1,5.2912,1.7334c6.9817,2.6834,15.9626,7.5111,21.6907,12.3609A11.33107,11.33107,0,0,1,1025.0538,597.4655Z"></path><path d="M984.9686 571.4534c-8.7876 17.6771-9.4053 38.9851-9.0638 48.945-5.0495.2773-9.622.4812-13.2012.5269a111.05313 111.05313 0 017.42-46.567A46.401 46.401 0 01984.9686 571.4534zM999.5994 573.8849c-7.3389 16.7421-8.9128 35.7725-9.2103 45.4406-2.1982.1776-4.3969.3555-6.5578.5209.9496-25.1364 6.2004-41.1099 9.034-48.0157.5021.1279.9909.2183 1.4429.3208A40.929 40.929 0 01999.5994 573.8849zM981.3885 848.2517c-43.208 17.4735-87.0549 34.5299-129.855 35.0273-56.7645.6057-61.8098-52.2372-61.8098-52.2372 5.9191 17.4087 14.9961 33.489 37.0195 36.7971 22.0233 3.3083 29.4922-9.0882 45.1253-37.4944 15.6208-28.444 34.3721-36.6422 67.7739-41.4541 48.658-4.2995 43.9729-6.7332 60.8319-15.857 0 0-13.5453 17.3151-41.8238 22.0766C933.4763 799.3966 928.7365 842.2844 981.3885 848.2517zM701.3185 844.5026a130.94111 130.94111 0 003.6495 19.4734 209.17491 209.17491 0 01-44.4411 4.0271l-.0109-.0363c-6.5099-11.5756-12.7997-23.3365-18.6677-34.751C660.5605 841.1331 682.2714 843.9545 701.3185 844.5026zM720.445 804.7761a244.61575 244.61575 0 01-11.4835 22.7163c-18.4973-3.5583-46.8026-11.847-85.163-30.637-11.9755-25.0478-19.6286-42.8733-19.6286-42.8733s26.1009-41.998 92.1279-90.8021a4.54109 4.54109 0 00.5151.3967C684.0172 687.0463 651.2499 761.4001 720.445 804.7761z" style="mix-blend-mode:soft-light" opacity=".3"></path><path d="M1106.0688,1154.8786s-10.3466.8177-27.3588,1.7587c-13.7003.7768-31.6939,1.5945-52.1416,2.1671-14.0273.3679-29.1998.5726-44.903.5726-22.1251-.041-45.2306-.5726-67.6412-1.9629l-2.0857-2.5355c-16.7265-27.1546-26.7457-69.2361-29.5672-82.3634C883.7206,1074.8056,928.2148,1147.5172,1106.0688,1154.8786Z" style="mix-blend-mode:soft-light" opacity=".6"></path><rect width="983.084" height="1559.709" x="1186.96" y="208.911" fill="#85582d"></rect><polygon fill="#99692b" points="2169.732 1768.554 2170.06 1768.554 2170.06 209.019 1678.413 989.929 2169.732 1768.554"></polygon><polygon fill="#99692b" points="1678.441 989.89 1678.399 989.931 1248.098 1673.497 1231.168 1700.365 1209.043 1735.494 1188.228 1768.579 1186.96 1768.579 1186.96 211.119 1208.921 245.921 1230.023 279.333 1248.098 307.959 1248.098 308 1678.154 989.399 1678.441 989.89"></polygon><rect width="939.227" height="1493.431" x="1208.902" y="242.071" style="mix-blend-mode:multiply" fill="#85582d" opacity=".4"></rect><rect width="897.011" height="1423.16" x="1230.01" y="277.201" fill="#cc9e4c"></rect><rect width="874.813" height="1387.947" x="1248.103" y="294.808" fill="#f7d180"></rect><path d="M2170.0437,1768.538a.44854.44854,0,0,1-.1637.0819H1186.96V211.1187l21.9608,34.802,21.1022,33.4118,18.0754,28.6267v.041l430.383,681.8077,437.4169,692.9317,11.1234,17.6256,21.1027,33.4527Z" style="mix-blend-mode:soft-light" opacity=".3"></path><path d="M1259.9122,1042.8421a24.79939,24.79939,0,0,0-5.9888-8.2408,47.42987,47.42987,0,0,0-10.7271-7.0393c11.0751-2.1849,18.4989-5.8627,22.8996-12.7958,5.9245-9.38,5.3885-21.2999-.2763-30.5496a28.02983,28.02983,0,0,0-5.5704-6.7716c-6.6989-5.9663-15.2625-10.0185-22.9616-12.735,16.5649-2.2536,27.1668-6.3277,32.9615-15.5847,8.1632-12.8892,5.4902-30.1452-5.4161-40.743a8.07827,8.07827,0,0,0-1.0842-1.0596c-6.6289-5.9162-14.9153-10.1658-22.7197-13.1792,13.9873-2.3803,23.1869-6.5083,28.4347-14.8917,6.8464-10.7974,6.0209-24.6574-.7967-35.0999a31.81961,31.81961,0,0,0-5.7036-6.7027c-17.8673-15.9468-47.7937-19.8316-47.7937-19.8316-22.3328-1.8931-37.7657,13.9589-41.561,28.0048-1.4141,5.3092-1.583,14.1554.9294,23.1049,2.6582,9.2246,8.2222,18.4949,18.2648,23.7533-9.637,5.5091-16.1309,14.5856-18.4087,23.0155a39.10074,39.10074,0,0,0-.7137,14.0111c1.2486,12.7447,7.5383,28.3311,23.6137,34.5122-8.8106,4.8894-14.7271,13.1062-16.7615,20.7539-1.0919,4.1664-1.3516,10.8693.2004,17.82,2.0798,9.399,7.3788,19.3071,17.9523,24.3799a27.698,27.698,0,0,0-8.883,13.508,30.52358,30.52358,0,0,0-.0551,12.9989c2.0069,11.6357,10.0635,25.0125,30.5505,23.6428,20.5547-1.3028,32.6578-3.4488,38.3183-12.4908A23.08963,23.08963,0,0,0,1259.9122,1042.8421Z" style="mix-blend-mode:soft-light" opacity=".3"></path><path fill="#b7765a" d="M1152.472,912.0277c1.6653,16.9999,12.2984,39.0578,43.1639,37.1025,28.7224-1.8637,45.5061-4.8663,53.4045-17.4843,8.1632-12.8893,5.4902-30.1452-5.416-40.7431a8.09114,8.09114,0,0,0-1.0842-1.0597c-17.8672-15.9467-47.7936-19.8314-47.7936-19.8314-22.3336-1.9597-37.7657,13.9589-41.561,28.005A39.1026,39.1026,0,0,0,1152.472,912.0277Z"></path><path fill="#b7765a" d="M1159.5246,985.1138c3.1058,14.0356,13.3272,29.2638,37.6983,27.7168,25.5763-1.6275,40.554-4.3416,47.6643-15.5439,5.9245-9.3799,5.3885-21.2999-.2763-30.5495a28.027,28.027,0,0,0-5.5702-6.7716c-15.9726-14.2255-42.6107-17.6782-42.6107-17.6782-19.9855-1.7186-33.7628,12.4397-37.1057,25.0064C1158.2322,971.4602,1157.9726,978.1632,1159.5246,985.1138Z"></path><path fill="#b7765a" d="M1168.5388 1036.0007c2.007 11.6356 10.0634 25.0124 30.5504 23.6428 20.5548-1.3029 32.6579-3.4489 38.3183-12.4909a23.08947 23.08947 0 001.296-21.7899 24.799 24.799 0 00-5.9888-8.2408c-12.7916-11.4473-34.2633-14.2211-34.2633-14.2211a28.36752 28.36752 0 00-29.8576 20.101A30.52216 30.52216 0 001168.5388 1036.0007zM1153.3297 851.2479c4.2533 14.7596 15.9446 29.6364 41.5208 28.0088 28.7225-1.8637 45.5061-4.8663 53.4045-17.4843 6.8466-10.7974 6.021-24.6574-.7965-35.1001a31.827 31.827 0 00-5.7036-6.7026c-17.8673-15.9467-47.7937-19.8315-47.7937-19.8315-22.3328-1.8931-37.7656 13.9589-41.561 28.0046C1150.986 833.4521 1150.8172 842.2982 1153.3297 851.2479z"></path><path d="M1168.5388 1036.0007c2.007 11.6356 10.0634 25.0124 30.5504 23.6428 20.5548-1.3029 32.6579-3.4489 38.3183-12.4909a23.08947 23.08947 0 001.296-21.7899C1232.3921 1036.087 1214.6862 1052.4331 1168.5388 1036.0007zM1159.5246 985.1138c3.1058 14.0356 13.3272 29.2638 37.6983 27.7168 25.5763-1.6275 40.554-4.3416 47.6643-15.5439 5.9245-9.3799 5.3885-21.2999-.2763-30.5495C1240.0614 979.2505 1223.0083 1000.0116 1159.5246 985.1138zM1152.472 912.0277c1.6653 16.9999 12.2984 39.0578 43.1639 37.1025 28.7224-1.8637 45.5061-4.8663 53.4045-17.4843 8.1632-12.8893 5.4902-30.1452-5.416-40.7431.64 9.239-2.6819 29.6446-42.9612 28.6235C1177.7419 918.9129 1162.4282 915.6008 1152.472 912.0277zM1153.3297 851.2479c4.2533 14.7596 15.9446 29.6364 41.5208 28.0088 28.7225-1.8637 45.5061-4.8663 53.4045-17.4843 6.8466-10.7974 6.021-24.6574-.7965-35.1001C1240.3956 842.0953 1218.8729 864.5817 1153.3297 851.2479z" style="mix-blend-mode:soft-light" opacity=".3"></path><path fill="#b7765a" d="M1377.3282,1177.8208c.1223,5.8887-3.1081,11.3281-8.6293,16.2763a53.42676,53.42676,0,0,1-7.8926,5.8478q-1.59495.98235-3.3127,1.9634c-.5721.327-1.1452.6544-1.7173.9405q-1.3494.73605-2.8221,1.4722c-.5316.2865-1.1042.5726-1.6768.8177-.8996.4503-1.8401.8591-2.7806,1.268-2.6583,1.227-5.3985,2.3722-8.261,3.4355-1.3908.5312-2.8215,1.0629-4.2533,1.5536a6.44066,6.44066,0,0,1-.8177.2865c-1.1452.4089-2.3313.8177-3.4765,1.1862-3.4755,1.1446-7.0748,2.208-10.714,3.1894-.9815.2861-2.0039.5317-2.9853.8182-1.5136.4089-3.0672.7768-4.6217,1.1452-2.3308.5721-4.6207,1.1038-6.952,1.5945-4.5803.9814-9.2015,1.881-13.6999,2.5764-.7363.1228-1.5131.2451-2.2489.3679-3.6812.5731-7.2795,1.0634-10.756,1.4318-.6949.0818-1.3903.1637-2.0857.2042-4.0896.4088-7.9744.6954-11.5323.8182-2.9449,67.2317-14.1502,88.293-24.7824,96.0222-2.3313,1.7173-7.6888,3.8849-15.1725,5.7659-2.822.7364-6.0115,1.4318-9.4056,2.0448-1.5955.2866-3.2309.5731-4.9487.8182-1.3494.2042-2.6993.4089-4.0896.5317q-2.1468.3069-4.2937.4907c-1.5955.1632-3.2309.286-4.8668.4088-.6135.041-1.2265.0819-1.8406.0819a160.12438,160.12438,0,0,1-29.4035-.9405c-3.1081-.4093-6.2571-.8996-9.4062-1.554-2.0447-.327-4.1304-.7773-6.1752-1.3085-3.0672-.7363-6.1343-1.5955-9.2015-2.6178a73.422,73.422,0,0,1-7.9334-2.8216,112.11142,112.11142,0,0,1-23.7195-12.7184q-2.45325-1.7178-4.7845-3.5579c3.6807-56.6405,1.922-111.9306.7358-136.9176a.04015.04015,0,0,1,.041-.041c1.0224-1.1861,2.1266-2.4541,3.2309-3.7216,1.554-1.7587,3.1899-3.5988,4.8663-5.4798.8591-.9405,1.7183-1.922,2.5769-2.8625.8587-.9815,1.7582-1.9634,2.6169-2.9449,1.227-1.3084,2.495-2.6992,3.7625-4.0486,4.6622-5.1119,9.4875-10.2238,14.1092-14.9269q1.4109-1.41075,2.6988-2.6987c1.5136-1.5546,3.0262-2.9853,4.4579-4.3761,6.2572-5.9296,11.7365-10.6327,15.5809-12.7593,15.54-8.6289,41.8359,14.4771,55.7814,38.2371,1.1452,1.9219,2.2085,3.8444,3.149,5.7663,5.6027-.5726,12.023-1.1042,18.9341-1.5949,1.3089-.0819,2.6179-.1638,3.9672-.2866q3.19005-.18345,6.5023-.3674c1.6359-.1228,3.3537-.2047,5.03-.2866,3.6807-.1637,7.4842-.3274,11.3281-.4497,1.3499-.0819,2.7402-.1228,4.1305-.1228a.15022.15022,0,0,1,.1228-.041C1319.6244,1154.265,1376.9598,1157.7006,1377.3282,1177.8208Z"></path><path d="M1368.6989,1194.0971a53.42676,53.42676,0,0,1-7.8926,5.8478c-1.0633.6549-2.1675,1.3498-3.3127,1.9634-.5721.327-1.1452.6544-1.7173.9405-.8996.5316-1.8406.9814-2.8221,1.4722-.5316.2865-1.1042.5726-1.6768.8177-.8996.4503-1.8401.8591-2.7806,1.268-2.6583,1.227-5.3985,2.3722-8.261,3.4355-1.3908.5312-2.8215,1.0629-4.2533,1.5536a6.44066,6.44066,0,0,1-.8177.2865c-1.1452.4089-2.3313.8177-3.4765,1.1862-3.4755,1.1446-7.0748,2.208-10.714,3.1894-.9815.2861-2.0039.5317-2.9853.8182-1.5136.4089-3.0672.7768-4.6217,1.1452-2.3308.5721-4.6207,1.1038-6.952,1.5945-4.5803.9814-9.2015,1.881-13.6999,2.5764-.7363.1228-1.5131.2451-2.2489.3679-3.6812.5731-7.2795,1.0634-10.756,1.4318-.6949.0818-1.3903.1637-2.0857.2042-4.0896.4088-7.9744.6954-11.5323.8182,0,0-66.128-2.3723-85.3487,45.0668-13.0863,32.3478,21.6748,52.1006,59.83,51.3643-2.6174,1.6359-7.6474,3.5988-14.4362,5.357-2.863.7364-6.0115,1.4318-9.4056,2.0448-1.5955.2866-3.2309.5731-4.9487.8182-1.3494.2042-2.6993.4089-4.0896.5317q-2.1468.3069-4.2937.4907c-1.5955.1632-3.2309.286-4.8668.4088-.6135.041-1.2265.0819-1.8406.0819a160.12438,160.12438,0,0,1-29.4035-.9405c-3.1081-.4093-6.2571-.8996-9.4062-1.554-2.0447-.327-4.1304-.7773-6.1752-1.3085-3.0672-.7363-6.1343-1.5955-9.2015-2.6178a73.422,73.422,0,0,1-7.9334-2.8216,112.11142,112.11142,0,0,1-23.7195-12.7184q-2.45325-1.7178-4.7845-3.5579c3.6807-56.6405,1.922-111.9306.7358-136.9176a.04015.04015,0,0,1,.041-.041c1.0224-1.1861,2.1266-2.4541,3.2309-3.7216,1.554-1.7587,3.1899-3.5988,4.8663-5.4798.8591-.9405,1.7183-1.8811,2.5769-2.8625s1.7582-1.9634,2.6169-2.9449c1.268-1.3493,2.495-2.6992,3.7625-4.0486,4.6622-5.1119,9.4875-10.2238,14.1092-14.9269q1.4109-1.41075,2.6988-2.6987c1.5136-1.5546,3.0262-2.9853,4.4579-4.3761,5.071,17.708,22.9418,32.1033,71.3623,25.4778,1.1452,1.9219,2.2085,3.8444,3.149,5.7663,5.6027-.5726,12.023-1.1042,18.9341-1.5949,1.3089-.0819,2.6179-.1638,3.9672-.2866q3.19005-.18345,6.5023-.3674c1.6359-.1228,3.3537-.2047,5.03-.2866,3.6807-.1637,7.4842-.3274,11.3281-.4497,1.3908-.0819,2.8216-.1228,4.2533-.1638a.15022.15022,0,0,0-.1228.041c-36.1923,5.6845-69.8087,14.3133-81.3405,27.3592C1162.3818,1212.2954,1300.281,1221.3336,1368.6989,1194.0971Z" style="mix-blend-mode:soft-light" opacity=".3"></path><path fill="#995942" d="M1219.6865,1158.879c-9.5906,2.8168-19.2584,3.7599-28.944,4.2635-9.694.3113-19.4072.1681-29.1976-1.8614,9.5892-2.8299,19.257-3.7737,28.9441-4.2635C1200.1843,1156.72,1209.8961,1156.8619,1219.6865,1158.879Z"></path><path fill="#841818" d="M902.328,1364.508a497.57434,497.57434,0,0,0,50.8815-1.1904c16.8982-1.3109,33.7201-3.4588,50.4344-6.0828,16.6978-2.7838,33.3384-5.8569,49.7083-10.3105l49.0484-13.1452-2.6453,3.1475c1.1071-15.112,2.6295-30.1799,3.2102-45.3347.6868-15.145,1.0361-30.3114,1.1263-45.4813.0641-15.1706-.1088-30.3446-.3134-45.5179-.2701-15.1678-.8143-30.3528-1.6113-45.46l4.2091,3.6442c-10.4828.5828-20.9627,1.3364-31.4434,1.7787l-31.4412,1.1552c-10.4758.4988-20.9641.5939-31.4551.4995l-31.4577-.1033c-20.9717-.9535-41.9385-1.716-62.8605-2.9154a505.191,505.191,0,0,1-62.3383-8.0344,609.35583,609.35583,0,0,0,62.5325,4.6995c20.9235.0145,41.8021.4671,62.6766.7275,20.8903-.6234,41.7807-.7791,62.64-2.0818l31.2994-1.4529c10.4269-.5407,20.8214-1.3901,31.2318-2.0687l3.9748-.2597.2356,3.9039c1.8428,30.5326,2.9285,61.0232,2.3484,91.5703-.2369,15.2663-.735,30.5326-1.5741,45.7886-.7322,15.2629-2.4117,30.4824-3.6793,45.7142l-.2087,2.5089-2.4373.64c-16.6,4.3606-33.1214,8.2328-49.7076,12.2215-16.5532,3.99-33.4852,6.6174-50.3738,8.9292C970.5156,1366.3887,936.2003,1367.7093,902.328,1364.508Z"></path><path fill="#e6e8e8" d="M1070.5039,1119.0305a22.21375,22.21375,0,0,1-.6333,3.1685,23.8546,23.8546,0,1,1-26.2224-29.9109,24.17542,24.17542,0,0,1,6.2825.0094A23.852,23.852,0,0,1,1070.5039,1119.0305Z"></path><path d="M1067.1249,1126.8831a22.92493,22.92493,0,1,1-29.703-32.6292,22.52658,22.52658,0,0,0-3.3033,9.1584,22.93889,22.93889,0,0,0,19.7522,25.7349A22.67734,22.67734,0,0,0,1067.1249,1126.8831Z" style="mix-blend-mode:soft-light" opacity=".6"></path><path fill="#fff" d="M1070.5039,1119.0305a22.21375,22.21375,0,0,1-.6333,3.1685,23.13158,23.13158,0,0,1-6.3173.0172,23.85206,23.85206,0,0,1-20.5384-26.7598,22.24709,22.24709,0,0,1,.6333-3.1683,24.17542,24.17542,0,0,1,6.2825.0094A23.852,23.852,0,0,1,1070.5039,1119.0305Z" opacity=".22"></path><path fill="#e6e8e8" d="M1101.9074,1377.8513a22.21116,22.21116,0,0,1-.6334,3.1685,23.85456,23.85456,0,1,1-26.2224-29.9109,24.17543,24.17543,0,0,1,6.2825.0094A23.85213,23.85213,0,0,1,1101.9074,1377.8513Z"></path><path d="M1098.5283,1385.7039a22.92492,22.92492,0,1,1-29.7029-32.6292,22.52513,22.52513,0,0,0-3.3033,9.1584,22.93875,22.93875,0,0,0,19.7522,25.7349A22.67623,22.67623,0,0,0,1098.5283,1385.7039Z" style="mix-blend-mode:soft-light" opacity=".6"></path><path fill="#fff" d="M1101.9074,1377.8513a22.21116,22.21116,0,0,1-.6334,3.1685,23.13087,23.13087,0,0,1-6.3172.0172,23.852,23.852,0,0,1-20.5385-26.7597,22.27628,22.27628,0,0,1,.6333-3.1684,24.17543,24.17543,0,0,1,6.2825.0094A23.85213,23.85213,0,0,1,1101.9074,1377.8513Z" opacity=".22"></path></g></svg>