<svg xmlns="http://www.w3.org/2000/svg" width="550" height="550"><svg xmlns="http://www.w3.org/2000/svg" width="550" height="550" data-name="Layer 1" viewBox="0 0 1476.041 1702.322"><path fill="#ff6d00" d="M915.386 1008.384s6.92-8.862 7.254-16.48c-4.334 2-8.334 8.813-20.334 8.24-1-12.24 0-15.059 0-15.059l-26.333.041a135.509 135.509 0 0 0-12 16.779c-11-8-12.667-11.667-12.667-11.667l-7.333 13s-6.999-8.638-7.667-18.153H814.64s-9.334 14.152-12 19.82c-7.667-10-7.334-14-7.334-14l-4.666 12.333s-17.334-3-23.334-12a24.942 24.942 0 0 0 9 17.146Z" class="colorff6d00 svgShape"/><path fill="#4c4945" d="M712.444 861.087a8.46 8.46 0 0 0 8.498 8.424l259.374-1.162a8.46 8.46 0 0 0 8.422-8.499 8.459 8.459 0 0 0-8.498-8.422l-259.373 1.161a8.46 8.46 0 0 0-8.423 8.498Z" class="color4c4945 svgShape"/><path fill="#a09f9f" d="M974.536 868.375s-6.165 74.167-7.386 91.714c-1.22 17.547-10.936 24.088-25.228 24.152l-85.109.382-11.33.05-85.108.382c-14.293.063-24.069-6.39-25.447-23.926-1.377-17.535-8.206-91.644-8.206-91.644Z" class="colora09f9f svgShape"/><path fill="#e8e7e6" d="M966.63 868.41s-6.454 82.198-7.711 91.75c-1.256 9.552-6.42 17.212-18.439 17.265l-37.031.166a21.79 21.79 0 0 0 18.111-17.9c3.175-16.242 7.387-91.113 7.387-91.113Z" class="colore8e7e6 svgShape"/><path fill="#c6c6c6" d="M37.056 1677.549a24.775 24.775 0 0 0 24.776 24.773h1389.433a24.775 24.775 0 0 0 24.776-24.773 24.774 24.774 0 0 0-24.776-24.774H61.832a24.774 24.774 0 0 0-24.776 24.774Z" class="colorc6c6c6 svgShape"/><path fill="#66635f" d="M653.97 1643.238h786.262v-575.99a40 40 0 0 0-40-40H693.97a40 40 0 0 0-40 40Z" class="color66635f svgShape"/><path fill="#a09f9f" d="M696.228 1008.384h701.746v19.575H696.228zm-42.258 108.129h786.262v463.835H653.97z" class="colora09f9f svgShape"/><path fill="#191919" d="M683.314 1148.238h727.574v401.239H683.314z" class="color191919 svgShape"/><path fill="#fff" d="M981.558 1526.24a3.5 3.5 0 0 1-2.474-5.975l353.002-353.002a3.5 3.5 0 0 1 4.949 4.95l-353.002 353.002a3.489 3.489 0 0 1-2.475 1.025Zm137.252 0a3.5 3.5 0 0 1-2.475-5.975l274.503-274.502a3.5 3.5 0 0 1 4.949 4.95l-274.503 274.502a3.49 3.49 0 0 1-2.475 1.025Zm-416.183-119.19a3.5 3.5 0 0 1-2.475-5.975l233.5-233.5a3.5 3.5 0 1 1 4.95 4.95l-233.5 233.5a3.49 3.49 0 0 1-2.475 1.025Zm643.152 122.407a3.5 3.5 0 0 1-2.475-5.976l47.534-47.53a3.5 3.5 0 0 1 4.949 4.95l-47.533 47.53a3.49 3.49 0 0 1-2.475 1.026Z" class="colorfff svgShape"/><path d="m940.038 983.147-179.007-.062c-38.828.118-42.972 24.816-43.009 25.065l3.955.592c.033-.215 3.634-21.55 39.059-21.657l179 .062c35.233 0 38.99 20.668 39.13 21.538l3.956-.603c-.038-.25-4.258-24.935-43.084-24.935Zm388.402 0-179.008-.062c-38.828.118-42.971 24.816-43.008 25.065l3.955.592c.032-.215 3.633-21.55 39.058-21.657l179.001.062c35.234 0 38.99 20.668 39.13 21.538l3.955-.603c-.038-.25-4.257-24.935-43.084-24.935Z" class="color000 svgShape"/><path fill="red" d="M907.014 1008.446s5.335-1.438 7.21-5.378c-8.818 3.564-23.827 3.095-23.827 3.095v-16.229s-12.945 17.637-24.577 17.261c-9.193-3.565-12.946-7.598-12.946-7.598l-8.63 8.787h-9.57l-8.442-17.512-13.134 17.512h-13.321l-4.127-5.88-2.44 5.88s-12.195-2.877-15.384-5.691a28.177 28.177 0 0 0 4.691 5.69Z" class="colorred svgShape"/><circle cx="1238.973" cy="1073.821" r="30.667" fill="#e8e7e6" class="colore8e7e6 svgShape" transform="rotate(-50.488 1238.973 1073.821)"/><path fill="#66635f" d="M1239.89 1043.166h.014a75.682 75.682 0 0 1 6.736 30.643 68.574 68.574 0 0 1-7.667 30.667h-.013a75.69 75.69 0 0 1-6.736-30.643 68.58 68.58 0 0 1 7.666-30.667Z" class="color66635f svgShape"/><path fill="#e8e7e6" d="M815.36 1073.821a30.667 30.667 0 1 0 30.665-30.667 30.666 30.666 0 0 0-30.666 30.667Z" class="colore8e7e6 svgShape"/><path fill="#66635f" d="M846.943 1043.166h.014a75.69 75.69 0 0 1 6.735 30.643 68.574 68.574 0 0 1-7.667 30.667h-.014a75.691 75.691 0 0 1-6.735-30.643 68.575 68.575 0 0 1 7.667-30.667Z" class="color66635f svgShape"/><path fill="#191919" d="M941.314 1073.821a30.655 30.655 0 0 0 30.655 30.656h130.69a30.655 30.655 0 0 0 30.655-30.656 30.655 30.655 0 0 0-30.655-30.655h-130.69a30.655 30.655 0 0 0-30.655 30.655Zm408.638 569.417v14.24a19.185 19.185 0 0 0 19.184 19.186h22.567a19.186 19.186 0 0 0 19.185-19.185v-14.24Zm-659.968 0v14.24a19.186 19.186 0 0 0 19.186 19.186h22.566a19.185 19.185 0 0 0 19.185-19.185v-14.24Z" class="color191919 svgShape"/><path fill="#8e453c" d="m119.551 941.565 8.918 677.546h71.334l35.668-602.986h17.918l35.666 602.986h71.336l8.916-677.546H119.551z" class="color8e453c svgShape"/><path d="M133.227 1619.111s-58.357 1.159-58.357 43.432v14.576s60.812 3.152 72.426-7.598c0 3.508.246 7.598.246 7.598h51.963v-58.15c-37.66 0-66.278.142-66.278.142Zm222.196 0s58.357 1.159 58.357 43.432v14.576s-60.812 3.152-72.426-7.598c0 3.508-.246 7.598-.246 7.598h-51.963v-58.15c37.658 0 66.278.142 66.278.142Z" class="color000 svgShape"/><path fill="#eadbcb" d="M124.786 540.538c25.68-9.811 86.512-12.222 86.512-12.222h66.035s67.582 2.677 90.353 13.876c46.42 22.829 94.417 202.472 94.417 202.472l39.5-137.385 51.678 30.136s-16.437 214.013-83.325 230.96c-42.23 10.699-95.041-103.966-95.041-103.966l17.554 304.644s-6.91 32.939-123.64 32.939H219.8c-116.73 0-123.64-32.939-123.64-32.939l12.428-160.64c4.025-110.392-1.975-162.392-1.975-162.392-.532-3-2.688-11.163-5.376-22.608-11.15 54.193-35.816 98.296 174.736 132.55 1.01.163 2.717 67.796 2.717 67.796C88.537 906.045-3.246 868.94.088 791.606c3.618-83.922 50.928-225.514 124.698-251.067Z" class="coloreadbcb svgShape"/><path fill="#146199" d="m244.264 553.897-.03.007-.032-.007Z" class="color146199 svgShape"/><path fill="#96590a" d="M289.15 600.928a9.979 9.979 0 1 1-9.978 9.98 9.98 9.98 0 0 1 9.978-9.98Zm-89.9 0a9.979 9.979 0 1 1-9.979 9.98 9.98 9.98 0 0 1 9.979-9.98Zm89.9 110.391a9.979 9.979 0 1 1-9.978 9.979 9.98 9.98 0 0 1 9.978-9.98Zm-89.9 0a9.979 9.979 0 1 1-9.979 9.979 9.98 9.98 0 0 1 9.979-9.98Zm89.9 110.391a9.979 9.979 0 1 1-9.978 9.978 9.98 9.98 0 0 1 9.978-9.979Zm-89.9 0a9.979 9.979 0 1 1-9.979 9.978 9.98 9.98 0 0 1 9.979-9.979Zm89.9 110.39a9.979 9.979 0 1 1-9.978 9.98 9.98 9.98 0 0 1 9.978-9.98Zm-89.9 0a9.979 9.979 0 1 1-9.979 9.98 9.98 9.98 0 0 1 9.979-9.98Zm89.9 110.39a9.979 9.979 0 1 1-9.978 9.98 9.98 9.98 0 0 1 9.978-9.98Zm-89.9 0a9.979 9.979 0 1 1-9.979 9.98 9.98 9.98 0 0 1 9.979-9.98Z" class="color96590a svgShape"/><path fill="#f9a355" d="M214.23 496.723s-1.677 15.487-3.161 31.593c9.662 21.371 33.133 30.85 33.133 30.85s23.469-9.479 33.13-30.85c-1.484-16.106-3.16-31.593-3.16-31.593Z" class="colorf9a355 svgShape"/><path fill="#ffc182" d="M238.384 499.927c-131.323 0-119.434-97.817-119.434-97.817s-36.748 2.704-36.748-46.475 36.748-35.126 36.748-35.126V271.87s-1.08-47.016 119.434-47.016h4.324c120.511 0 119.431 47.016 119.431 47.016v48.638s36.748-14.053 36.748 35.126c0 49.18-36.748 46.475-36.748 46.475s6.485 97.817-119.431 97.817Z" class="colorffc182 svgShape"/><path d="M293.92 354.53a12.428 12.428 0 0 0 12.428 12.43 12.428 12.428 0 0 0 12.43-12.43v-9.726a12.428 12.428 0 0 0-12.43-12.429 12.428 12.428 0 0 0-12.427 12.43Zm36.231-49.616s-18.666-9.16-41.726 2.673c-6.618 3.67-10.288-2.947-4.41-6.735 3.392-2.188 23.605-11.88 47.769.089 2.162 1.821.205 4.725-1.633 3.974Z" class="color000 svgShape"/><path fill="#8e453c" d="M380.73 251.371s-25.072-7.173-55.572-13.257h-1.309s5.21 56.795 38.272 82.465a32.51 32.51 0 0 1 11.889-1.842s16.48-26.29 6.72-67.366Zm-280.32-.034c-9.76 41.076 6.72 67.365 6.72 67.365a34.472 34.472 0 0 1 11.89 1.843c33.062-25.671 38.27-82.465 38.27-82.465h-1.308c-30.5 6.083-55.572 13.257-55.572 13.257Z" class="color8e453c svgShape"/><path d="M194.481 354.53a12.428 12.428 0 0 1-12.428 12.43 12.428 12.428 0 0 1-12.43-12.43v-9.726a12.428 12.428 0 0 1 12.43-12.429 12.428 12.428 0 0 1 12.428 12.43Zm-36.231-49.616s18.667-9.16 41.727 2.673c6.617 3.67 10.287-2.947 4.41-6.735-3.392-2.188-23.605-11.88-47.77.089-2.161 1.821-.204 4.725 1.634 3.974Z" class="color000 svgShape"/><path fill="#f9a355" d="M364.716 378.229v-34.604s20.4-8.751 20.4 12.128c0 18.471-15.315 22.476-20.4 22.476Zm-241.223 0v-34.604s-20.4-8.751-20.4 12.128c0 18.471 15.312 22.476 20.4 22.476Z" class="colorf9a355 svgShape"/><path fill="#96590a" d="M100.73 718.633c.255-.728 25.735-73.223 35.321-112.57a2 2 0 1 1 3.887.947c-9.635 39.54-35.178 112.222-35.435 112.951a2 2 0 0 1-3.774-1.328Zm269.685-114.081a2.002 2.002 0 0 1 2.232 1.736c4.63 37.033 4.272 156.921 4.268 158.127a2 2 0 0 1-2 1.994h-.006a2 2 0 0 1-1.994-2.007c.004-1.204.361-120.837-4.237-157.617a1.998 1.998 0 0 1 1.737-2.233Z" class="color96590a svgShape"/><path fill="#eaddcd" d="M108.053 121.606s40.325-16 130.663-16h3.658c90.338 0 130.662 16 130.662 16s7.694 56 7.694 129.766c-26.305-5.735-90.694-13.258-138.356-13.258h-3.658c-47.663 0-112.051 7.523-138.357 13.258 0-73.766 7.694-129.766 7.694-129.766Z" class="coloreaddcd svgShape"/><path fill="#dbc3a9" d="M375.61 144.658c-11.799-1.257-25.11-6.219-38.85-15.31-25.209 45.258-96.215 37.744-96.215 37.744s-74.51 7.514-96.216-37.744c-13.741 9.092-27.053 14.054-38.852 15.31l2.576-23.052s32.983-23.5 134.983-23.5 130 23.5 130 23.5Z" class="colordbc3a9 svgShape"/><path fill="#eaddcd" d="M240.545 151.592s-74.51 7.514-96.216-37.744c-46.041 30.463-87.256 14.555-82.918-31.722 4.339-46.277 50.014-55.677 87.914-40.492C166.98 16.326 198.415 0 240.545 0s73.563 16.326 91.22 41.634c37.9-15.185 83.575-5.785 87.913 40.492 4.338 46.277-36.877 62.185-82.918 31.722-25.209 45.258-96.215 37.744-96.215 37.744Z" class="coloreaddcd svgShape"/><path fill="#96590a" d="M244.264 561.207s-2.406-30.7 31.46-49.284c0 0-.53-3.866-.53-5.263 14.803 0 12.137 22.191 12.137 22.191s-12.706 25.994-43.067 32.356Z" class="color96590a svgShape"/><path fill="#96590a" d="M244.164 561.207s2.406-30.7-31.46-49.284c0 0 .53-3.866.53-5.263-14.803 0-12.137 22.191-12.137 22.191s12.706 25.994 43.067 32.356Z" class="color96590a svgShape"/><path fill="#96590a" d="M327.834 1098.25c-7.336-91.491-19.1-480.217-19.849-505.098l-74.4-35.457 1.72-3.612 76.606 36.508.036 1.221c.123 4.11 12.34 412.166 19.873 506.119Z" class="color96590a svgShape"/><path fill="#f4eee9" d="M150.72 48.102s26.832-43.166 89.825-43.166 89.825 43.166 89.825 43.166 53.334-22.5 79.334 12.834c-34.667-12.334-83.167 8.333-83.167 8.333s-27-42-85.992-42-85.993 42-85.993 42-48.5-20.667-83.167-8.334c26-35.333 79.334-12.833 79.334-12.833Z" class="colorf4eee9 svgShape"/><path fill="#66635f" d="M315.258 894.982a13.532 13.532 0 1 0-3.68-18.778 13.534 13.534 0 0 0 3.68 18.778Z" class="color66635f svgShape"/><path fill="#4c4945" d="M294.35 1030.99a9.001 9.001 0 0 0 12.492-2.447L450.955 814.19a9 9 0 0 0-2.447-12.49 9 9 0 0 0-12.492 2.446L291.903 1018.5a8.999 8.999 0 0 0 2.447 12.49Z" class="color4c4945 svgShape"/><path fill="#c6c6c6" d="M434.686 806.125s-62.557 23.741-102.862 83.688c-40.304 59.948-39.921 128.687-39.921 128.687Z" class="colorc6c6c6 svgShape"/><path fill="#ffc182" d="M280.05 920.902c8.983 9.218 28.773 27.82 38.804 26.73 10.533-2.017 11.947-9.163 11.947-9.163s13.823 2.733 17.454-16.715c10.137-6.239 14.56-9.682 11.859-21.183 10.397-2.038 14.048-13.417 9.193-18.333-4.855-4.912-8.446-9.184-34.526-14.667 34.526 4.334 25.666-24.333 25.666-24.333s-19.44 1.405-49.959 7.333c-15.711 3.052-25.343 5.77-30.805 8.471Z" class="colorffc182 svgShape"/><path fill="#96590a" d="m281.683 927.772-2.159-.172c-.908-.073-91.693-7.499-170.458-28.682l1.04-3.862c71.66 19.273 153.349 27.109 167.577 28.37v-65.034c-61.489-7.08-104.05-21.582-129.006-32.555-27.418-12.056-39.859-22.339-40.375-22.77l2.566-3.07c.494.413 50.76 41.36 169.038 54.621l1.777.2Z" class="color96590a svgShape"/><path fill="#c6c6c6" d="M579.747 614.525h10.572V842.1h-10.572z" class="colorc6c6c6 svgShape"/><path fill="#a8a5a1" d="M670.01 842.108c-29.898-.045-65.082-.1-90.263-.137 0 45.202 20.137 53.448 45.062 53.486s45.2-8.286 45.2-53.349Z" class="colora8a5a1 svgShape"/><path fill="#e8e7e6" d="M667.759 844.932h-22.372s.495 40.056-17.517 47.764c9.474 0 39.889-2.647 39.889-47.764Z" class="colore8e7e6 svgShape"/><path fill="#eaeaea" d="M805.481 736.569s19.396-11.48 31.27 5.54c11.876 17.022-6.333 30.084-6.333 30.084s10.974 21.677-4.75 30.702c-23.75 13.632-36.416-7.556-36.416-7.556s-33.646 7.556-37.208-19.979c-3.632-28.072 21.375-30.875 21.375-30.875s-2.19-14.617 11.874-18.208c18.604-4.75 20.188 10.292 20.188 10.292ZM674.427 822.96s-13.507 3.287-17.455-8.891c-3.949-12.18 9.145-16.615 9.145-16.615s-2.578-14.765 8.322-17.264c16.469-3.775 20.135 11.007 20.135 11.007s21.21 1.59 18.363 18.478c-2.902 17.221-18.164 14.378-18.164 14.378s-1.336 9.02-10.281 8.61c-11.834-.541-10.065-9.703-10.065-9.703Z" class="coloreaeaea svgShape"/><path fill="#8e453c" d="M278.239 407.766a2.434 2.434 0 0 0-3.275 1.05c-.052.104-5.871 10.177-28.811 10.177h-4.317c-22.992 0-28.769-10.1-28.81-10.176a2.432 2.432 0 0 0-4.327 2.224c.269.524 6.889 12.815 33.137 12.815h4.317c26.248 0 32.868-12.291 33.137-12.815a2.433 2.433 0 0 0-1.051-3.275Z" class="color8e453c svgShape"/><path d="M593.92 649.5c-1.28 9.984-2.948 13.974-7.91 13.926-5.891-.056-9.404-.603-9.086-33.722 0 0-.212-52.541-5.649-93.614-1.022-7.718 10.738-15.034 16.616-1.841 10.827 24.3 11.233 74.667 6.029 115.252Z" class="color000 svgShape"/><path fill="#ffc182" d="M564.572 621.974c1.169 2.056 2.724 2.525 4.486 4.515-3.078 11.297 7.729 9.884 7.729 9.884l-.127-22.12-1.123-28.89s14.155 10.942 22.924-7.114c-8.205-13.975-25.176-27.55-25.568-28.18l-.864-7.922c-21.02.943-43.524 25.022-43.524 25.022-8.369 8.596-21.581 31.377-25.204 41.1 22.046 12.856 45.398 26.994 45.398 26.994a153.913 153.913 0 0 1 15.873-13.289Z" class="colorffc182 svgShape"/><path fill="#ffc182" d="M595.302 587.448c2.051-20.572-2.983-39.628-2.983-39.628s15.99 6.965 20.127 21.88c1.11 4.006.978 11.088.772 16.511a10.54 10.54 0 0 1 .118 1.124c.547 11.079-5.368 34.458-17.181 39.515-4.959-4.886-2.513-10.98.113-17.98q-.04-1.562-.095-3.163c-3.145-4.043-2.147-12.348-.87-18.259Z" class="colorffc182 svgShape"/><path fill="#ce7d3a" d="M612.114 587a1 1 0 0 0-1.218.72c-.04.158-4.102 15.933-5.442 19.477a3.156 3.156 0 0 1-2.06 2.195c-2.137.567-5.302-1.492-6.443-2.413-3.32-4.255-2.479-13.133 2.799-29.628l.026-.097c.007-.038.818-3.799 3.604-3.69a1.021 1.021 0 0 0 1.036-.961 1 1 0 0 0-.962-1.038 5.271 5.271 0 0 0-4.842 3.14l-24.983-25.313a15.952 15.952 0 0 0-5.512-3.604c-3.14-1.22-8.043-1.868-13.565 1.97-3.426 2.383-16.897 18.194-17.47 18.866a1 1 0 1 0 1.524 1.296c4.785-5.623 14.515-16.73 17.088-18.519 9.132-6.35 16.172 1.031 16.487 1.371l25.527 25.865c-.7 2.015-3.493 9.01-9.13 10.981-3.598 1.26-7.778.237-12.42-3.04l-13.503-11.933-.541 1.28c-.075.177-7.543 17.666-15.307 19.52a1 1 0 0 0 .232 1.972 1.012 1.012 0 0 0 .233-.027c7.343-1.753 13.898-14.628 15.994-19.145 1.87 3.725 8.367 18.993-1.886 33.837a1 1 0 0 0 1.647 1.136c8.847-12.808 5.936-25.922 3.47-32.51l8.378 7.404.084.067c5.214 3.697 10.021 4.817 14.28 3.327a14.141 14.141 0 0 0 6.192-4.588c-3.29 12.32-3.231 19.34.024 23.392l.14.143c.165.138 3.685 3.034 7.02 3.034a4.814 4.814 0 0 0 4.71-3.583c1.378-3.645 5.34-19.033 5.509-19.687a1 1 0 0 0-.72-1.217Z" class="colorce7d3a svgShape"/><path fill="#ce7d3a" d="m576.793 617.713-.133-3.46c-.253.247-5.663 5.879-8.043 10.852-1.337-.815-3.7-2.612-3.059-4.851 1.854-6.464 9.496-12.444 9.574-12.504a1 1 0 1 0-1.225-1.582c-.335.26-8.235 6.436-10.27 13.535-1.072 3.735 2.536 6.305 4.205 7.27a11.118 11.118 0 0 0-.57 2.514 5.952 5.952 0 0 0 1.424 4.658c2.612 2.984 7.831 3.22 8.052 3.228l.079-1.999c-.046-.002-4.589-.214-6.63-2.55a3.973 3.973 0 0 1-.935-3.149c.53-5.576 7.456-11.889 7.53-11.962Z" class="colorce7d3a svgShape"/></svg></svg>