<svg xmlns="http://www.w3.org/2000/svg" width="550" height="550"><svg xmlns="http://www.w3.org/2000/svg" width="550" height="550" data-name="Layer 1" viewBox="0 0 451.692 1702.322"><path fill="#c6c6c6" d="M451.692 1677.549a24.776 24.776 0 0 1-24.776 24.773H24.776A24.776 24.776 0 0 1 0 1677.55a24.774 24.774 0 0 1 24.775-24.774h402.141a24.774 24.774 0 0 1 24.776 24.774Z" class="colorc6c6c6 svgShape"/><path fill="#8e453c" d="m354.228 941.564-8.918 677.547h-71.334l-35.668-602.986H220.39l-35.666 602.986h-71.336l-8.916-677.547h249.756z" class="color8e453c svgShape"/><path d="M340.552 1619.111s58.358 1.158 58.358 43.432v14.576s-60.813 3.152-72.426-7.598c0 3.508-.246 7.598-.246 7.598h-51.963v-58.15c37.66 0 66.277.142 66.277.142zm-222.195 0s-58.358 1.158-58.358 43.432v14.576s60.813 3.152 72.426-7.598c0 3.508.246 7.598.246 7.598h51.963v-58.15c-37.658 0-66.277.142-66.277.142z" class="color000 svgShape"/><path fill="#eadbcb" d="m98.865 764.408-4.846 309.007s-5.799 28.577 110.932 28.577h49.027c116.73 0 113.374-28.577 113.374-28.577l3.427-152.509c.048-20.256.829-29.256 2.386-50.688 0 0 78.75 6.868 75.37-64.136s-24.154-233.217-99.541-265.543c-25.266-10.834-86.512-12.223-86.512-12.223h-66.035s-68.171 1.551-90.354 13.875C47.875 574.54 21.938 719.284 21.938 719.284c-11.16 72.3-27.92 145.464 51.915 156.468 28.668-69.334 25.012-111.344 25.012-111.344Z" class="coloreadbcb svgShape"/><path fill="#146199" d="m229.515 553.896.031.008.032-.008Z" class="color146199 svgShape"/><path fill="#96590a" d="M184.63 600.928a9.98 9.98 0 1 0 9.978 9.98 9.981 9.981 0 0 0-9.979-9.98zm89.9 0a9.98 9.98 0 1 0 9.978 9.98 9.981 9.981 0 0 0-9.978-9.98zm-89.9 97.994a9.98 9.98 0 1 0 9.978 9.98 9.981 9.981 0 0 0-9.979-9.98zm89.9 0a9.98 9.98 0 1 0 9.978 9.98 9.981 9.981 0 0 0-9.978-9.98zm-89.9 97.994a9.98 9.98 0 1 0 9.978 9.98 9.981 9.981 0 0 0-9.979-9.98zm89.9 0a9.98 9.98 0 1 0 9.978 9.98 9.981 9.981 0 0 0-9.978-9.98zm-89.9 97.994a9.98 9.98 0 1 0 9.978 9.98 9.981 9.981 0 0 0-9.979-9.98zm89.9 0a9.98 9.98 0 1 0 9.978 9.98 9.981 9.981 0 0 0-9.978-9.98z" class="color96590a svgShape"/><path fill="#f9a355" d="M259.55 496.723s1.676 15.488 3.16 31.593c-9.662 21.371-33.132 30.85-33.132 30.85s-23.47-9.479-33.131-30.85c1.484-16.105 3.16-31.593 3.16-31.593Z" class="colorf9a355 svgShape"/><path fill="#ffc182" d="M235.396 499.927c131.322 0 119.434-97.817 119.434-97.817s36.748 2.704 36.748-46.475-36.748-35.126-36.748-35.126V271.87s1.08-47.016-119.434-47.016h-4.324c-120.512 0-119.432 47.016-119.432 47.016v48.638s-36.748-14.053-36.748 35.126c0 49.18 36.748 46.475 36.748 46.475s-6.484 97.817 119.432 97.817Z" class="colorffc182 svgShape"/><path d="M179.859 354.531a12.427 12.427 0 0 1-12.428 12.428 12.427 12.427 0 0 1-12.43-12.428v-9.726a12.43 12.43 0 0 1 12.43-12.43 12.429 12.429 0 0 1 12.428 12.43zm-36.23-49.617s18.665-9.16 41.726 2.674c6.617 3.67 10.287-2.947 4.41-6.736-3.392-2.188-23.605-11.88-47.77.09-2.162 1.82-.204 4.724 1.633 3.972z" class="color000 svgShape"/><path fill="#8e453c" d="M93.05 251.371c-9.761 41.076 6.72 67.365 6.72 67.365a32.509 32.509 0 0 1 11.889 1.844c33.062-25.672 38.271-82.466 38.271-82.466h-1.309c-30.5 6.083-55.572 13.257-55.572 13.257zm280.32-.034s-25.073-7.174-55.573-13.257h-1.308s5.209 56.794 38.271 82.465a34.484 34.484 0 0 1 11.889-1.843s16.481-26.29 6.72-67.365z" class="color8e453c svgShape"/><path d="M279.298 354.531a12.427 12.427 0 0 0 12.428 12.428 12.427 12.427 0 0 0 12.43-12.428v-9.726a12.429 12.429 0 0 0-12.43-12.43 12.429 12.429 0 0 0-12.428 12.43zm36.23-49.617s-18.665-9.16-41.726 2.674c-6.617 3.67-10.287-2.947-4.41-6.736 3.393-2.188 23.605-11.88 47.77.09 2.162 1.82.205 4.724-1.633 3.972z" class="color000 svgShape"/><path fill="#f9a355" d="M109.064 378.228v-34.603s-20.4-8.752-20.4 12.129c0 18.47 15.314 22.474 20.4 22.474zm241.223 0v-34.603s20.4-8.752 20.4 12.129c0 18.47-15.313 22.474-20.4 22.474z" class="colorf9a355 svgShape"/><path fill="#eaddcd" d="M365.726 121.606s-40.324-16-130.662-16h-3.658c-90.338 0-130.662 16-130.662 16s-7.695 56-7.695 129.765c26.306-5.734 90.695-13.257 138.357-13.257h3.658c47.662 0 112.05 7.523 138.356 13.257 0-73.766-7.694-129.766-7.694-129.766Z" class="coloreaddcd svgShape"/><path fill="#dbc3a9" d="M98.17 144.658c11.798-1.258 25.109-6.218 38.849-15.31 25.209 45.257 96.216 37.744 96.216 37.744s74.509 7.513 96.216-37.744c13.74 9.092 27.052 14.054 38.851 15.31l-2.576-23.052s-32.982-23.5-134.982-23.5-130 23.5-130 23.5Z" class="colordbc3a9 svgShape"/><path fill="#eaddcd" d="M233.235 151.592s74.509 7.513 96.216-37.744c46.04 30.462 87.255 14.555 82.918-31.722-4.34-46.276-50.014-55.677-87.915-40.492C306.798 16.326 275.365 0 233.234 0s-73.563 16.326-91.219 41.634c-37.9-15.185-83.575-5.784-87.914 40.492-4.338 46.277 36.877 62.184 82.918 31.722 25.209 45.257 96.216 37.744 96.216 37.744Z" class="coloreaddcd svgShape"/><path fill="#96590a" d="M229.515 561.207s2.406-30.7-31.459-49.283c0 0 .53-3.867.53-5.264-14.803 0-12.137 22.192-12.137 22.192s12.706 25.993 43.066 32.355Z" class="color96590a svgShape"/><path fill="#96590a" d="M229.616 561.207s-2.407-30.7 31.459-49.283c0 0-.53-3.867-.53-5.264 14.803 0 12.137 22.192 12.137 22.192s-12.706 25.993-43.066 32.355Z" class="color96590a svgShape"/><path fill="#96590a" d="m237.154 554.713-76.61 36.51-.032 1.224c-.11 4.105-11.02 411.533-18.554 505.484l3.988.319c7.335-91.482 17.861-479.54 18.532-504.47l74.397-35.456Z" class="color96590a svgShape"/><path fill="#f4eee9" d="M323.06 48.102S296.227 4.936 233.235 4.936 143.41 48.101 143.41 48.101s-53.334-22.5-79.334 12.834c34.667-12.334 83.167 8.333 83.167 8.333s27-42 85.992-42 85.992 42 85.992 42 48.5-20.667 83.167-8.334c-26-35.333-79.334-12.833-79.334-12.833Z" class="colorf4eee9 svgShape"/><path fill="#66635f" d="M95.668 968.21s-17.112 102.555-1.477 382.387c125.48 31 275.645 0 275.645 0s12.62-224.94-.12-382.387Z" class="color66635f svgShape"/><path fill="#f9a355" d="M132.645 856.332c94.255-24.25 130.917-74.25 214.907-82.282 16.557-15.542 15.8-11.992 15.8-11.992l-4.482-37.391s-134.483-3.669-247.49 41.911C95.716 791 52.943 876.838 132.646 856.332Z" class="colorf9a355 svgShape"/><path fill="#ffc182" d="M332.269 856.332c-94.255-24.25-130.917-74.25-214.907-82.282-16.557-15.542-13.99-10.634-13.99-10.634l.128-36.89s137.027-5.528 250.034 40.052c15.664 24.421 58.437 110.26-21.265 89.754Z" class="colorffc182 svgShape"/><path fill="#96590a" d="M365.59 766.169c-.117-1.089-11.816-109.487-23.382-158.353a2.25 2.25 0 1 0-4.378 1.036c11.5 48.591 23.169 156.71 23.285 157.796a2.25 2.25 0 0 0 2.235 2.01c.08 0 .16-.004.242-.012a2.25 2.25 0 0 0 1.998-2.477Z" class="color96590a svgShape"/><path fill="#c9b099" d="M365.443 763.816s-7.548-8.377-14.422.512-19.942 88.522-23.772 106.17c-3.829 17.646 58.12 25.28 61.578 5.254 3.458-20.025-11.384-85.492-23.384-111.936Z" class="colorc9b099 svgShape"/><path fill="#96590a" d="M106.85 604.553a2.001 2.001 0 0 0-2.232 1.736c-4.629 37.031-4.271 156.92-4.267 158.127a2 2 0 0 0 2 1.992h.005a2 2 0 0 0 1.994-2.006c-.003-1.205-.36-120.838 4.237-157.617a1.998 1.998 0 0 0-1.737-2.232Z" class="color96590a svgShape"/><path fill="#c9b099" d="M97.237 763.816s7.548-8.377 14.422.512 19.942 88.522 23.772 106.17c3.829 17.646-58.12 25.28-61.578 5.254-3.457-20.025 11.384-85.492 23.384-111.936Z" class="colorc9b099 svgShape"/><path fill="#4c4945" d="M118.875 1135.264c8.229 93.333 74.055 104.667 122.542 93.333-84.764-13.75-122.542-93.333-122.542-93.333zm175.375-36.216c-59.928 38.855-129.962 11.265-129.962 11.265 60.08 52.47 107.005 22.698 129.962-11.265zm-98.235 67.049c28.799 26.5 137.309 44 148.623-51.5 0 0-21.085 77.5-148.623 51.5z" class="color4c4945 svgShape"/><path fill="#66635f" d="M369.716 968.21s14.767-23.734 42.434-9.4 25.667 39.667 12.667 48.667-53.49-16.99-53.49-16.99l-.586-8.698s31.742 20.355 43.41 10.688-14.69-45.358-43.845-16.68Z" class="color66635f svgShape"/><path fill="#8e453c" d="M265.126 407.037a2.434 2.434 0 0 0-3.275 1.05c-.052.104-5.871 10.177-28.81 10.177h-4.318c-22.991 0-28.768-10.1-28.81-10.176a2.432 2.432 0 1 0-4.327 2.224c.269.524 6.889 12.815 33.137 12.815h4.318c26.248 0 32.868-12.291 33.136-12.815a2.433 2.433 0 0 0-1.05-3.275Z" class="color8e453c svgShape"/></svg></svg>