<svg xmlns="http://www.w3.org/2000/svg" width="550" height="550"><svg xmlns="http://www.w3.org/2000/svg" width="550" height="550" data-name="Layer 1" viewBox="0 0 570.44 1702.322"><path fill="#ffc182" d="M543.8 820.185s-6.6 117.102-61.157 197.683c-12.093-75.124-8.499-205.225-8.499-205.225Z" class="colorffc182 svgShape"/><path fill="#c6c6c6" d="M561.49 1677.549a24.776 24.776 0 0 1-24.775 24.773H134.574a24.776 24.776 0 0 1-24.775-24.773 24.774 24.774 0 0 1 24.775-24.774h402.141a24.774 24.774 0 0 1 24.775 24.774Z" class="colorc6c6c6 svgShape"/><path fill="#8e453c" d="m464.027 941.564-8.918 677.547h-71.334l-35.668-602.986h-17.918l-35.666 602.986h-71.336l-8.916-677.547h249.756z" class="color8e453c svgShape"/><path d="M450.35 1619.111s58.358 1.158 58.358 43.432v14.576s-60.812 3.152-72.426-7.598c0 3.508-.246 7.598-.246 7.598h-51.963v-58.15c37.66 0 66.278.142 66.278.142zm-222.195 0s-58.357 1.158-58.357 43.432v14.576s60.813 3.152 72.426-7.598c0 3.508.246 7.598.246 7.598h51.963v-58.15c-37.658 0-66.278.142-66.278.142z" class="color000 svgShape"/><path fill="#eadbcb" d="m212.15 766.408-8.333 307.007s-5.798 28.577 110.932 28.577h49.028c116.73 0 113.374-28.577 113.374-28.577s-.912-235.413-4.563-307.26l80.028 2.504c-4.042-49.78-18.436-195.794-93.824-228.12-25.265-10.834-86.512-12.223-86.512-12.223h-66.035s-67.724 2.391-90.353 13.875c-77.135 39.146-83.135 224.218-83.135 224.218Z" class="coloreadbcb svgShape"/><path fill="#146199" d="m339.314 553.896.031.008a.355.355 0 0 0 .031-.008Z" class="color146199 svgShape"/><path fill="#96590a" d="M294.428 600.928a9.98 9.98 0 1 0 9.979 9.98 9.981 9.981 0 0 0-9.979-9.98zm89.9 0a9.98 9.98 0 1 0 9.979 9.98 9.981 9.981 0 0 0-9.979-9.98zm-89.9 97.994a9.98 9.98 0 1 0 9.979 9.98 9.981 9.981 0 0 0-9.979-9.98zm89.9 0a9.98 9.98 0 1 0 9.979 9.98 9.981 9.981 0 0 0-9.979-9.98zm-89.9 97.994a9.98 9.98 0 1 0 9.979 9.98 9.981 9.981 0 0 0-9.979-9.98zm89.9 0a9.98 9.98 0 1 0 9.979 9.98 9.981 9.981 0 0 0-9.979-9.98zm-89.9 97.994a9.98 9.98 0 1 0 9.979 9.98 9.981 9.981 0 0 0-9.979-9.98zm89.9 0a9.98 9.98 0 1 0 9.979 9.98 9.981 9.981 0 0 0-9.979-9.98z" class="color96590a svgShape"/><path fill="#f9a355" d="M369.349 496.723s1.676 15.488 3.16 31.593c-9.662 21.371-33.133 30.85-33.133 30.85s-23.469-9.479-33.13-30.85c1.484-16.105 3.16-31.593 3.16-31.593Z" class="colorf9a355 svgShape"/><path fill="#ffc182" d="M345.195 499.927c131.322 0 119.433-97.817 119.433-97.817s36.748 2.704 36.748-46.475-36.748-35.126-36.748-35.126V271.87s1.08-47.016-119.433-47.016h-4.325c-120.511 0-119.431 47.016-119.431 47.016v48.638s-36.748-14.053-36.748 35.126c0 49.18 36.748 46.475 36.748 46.475s-6.485 97.817 119.431 97.817Z" class="colorffc182 svgShape"/><path d="M289.657 354.531a12.427 12.427 0 0 1-12.427 12.428 12.427 12.427 0 0 1-12.43-12.428v-9.726a12.429 12.429 0 0 1 12.43-12.43 12.429 12.429 0 0 1 12.427 12.43zm-36.23-49.617s18.666-9.16 41.727 2.674c6.617 3.67 10.287-2.947 4.41-6.736-3.393-2.188-23.606-11.88-47.77.09-2.162 1.82-.205 4.724 1.633 3.972z" class="color000 svgShape"/><path fill="#8e453c" d="M202.848 251.371c-9.76 41.076 6.72 67.365 6.72 67.365a32.51 32.51 0 0 1 11.89 1.844c33.062-25.672 38.27-82.466 38.27-82.466h-1.308c-30.5 6.083-55.572 13.257-55.572 13.257zm280.32-.034s-25.072-7.174-55.572-13.257h-1.309s5.21 56.794 38.272 82.465a34.484 34.484 0 0 1 11.888-1.843s16.482-26.29 6.721-67.365z" class="color8e453c svgShape"/><path d="M389.097 354.531a12.427 12.427 0 0 0 12.428 12.428 12.427 12.427 0 0 0 12.43-12.428v-9.726a12.429 12.429 0 0 0-12.43-12.43 12.429 12.429 0 0 0-12.428 12.43zm36.23-49.617s-18.666-9.16-41.726 2.674c-6.617 3.67-10.287-2.947-4.41-6.736 3.392-2.188 23.605-11.88 47.77.09 2.161 1.82.204 4.724-1.634 3.972z" class="color000 svgShape"/><path fill="#f9a355" d="M218.863 378.228v-34.603s-20.4-8.752-20.4 12.129c0 18.47 15.314 22.474 20.4 22.474zm241.222 0v-34.603s20.4-8.752 20.4 12.129c0 18.47-15.312 22.474-20.4 22.474z" class="colorf9a355 svgShape"/><path fill="#eaddcd" d="M475.525 121.606s-40.325-16-130.662-16h-3.659c-90.338 0-130.662 16-130.662 16s-7.694 56-7.694 129.765c26.306-5.734 90.694-13.257 138.356-13.257h3.659c47.662 0 112.05 7.523 138.356 13.257 0-73.766-7.694-129.766-7.694-129.766Z" class="coloreaddcd svgShape"/><path fill="#dbc3a9" d="M207.969 144.658c11.798-1.258 25.108-6.218 38.849-15.31 25.209 45.257 96.215 37.744 96.215 37.744s74.51 7.513 96.216-37.744c13.741 9.092 27.053 14.054 38.852 15.31l-2.576-23.052s-32.983-23.5-134.983-23.5-130 23.5-130 23.5Z" class="colordbc3a9 svgShape"/><path fill="#eaddcd" d="M343.033 151.592s74.51 7.513 96.216-37.744c46.041 30.462 87.256 14.555 82.918-31.722-4.339-46.276-50.013-55.677-87.914-40.492C416.597 16.326 385.163 0 343.033 0s-73.563 16.326-91.22 41.634c-37.9-15.185-83.575-5.784-87.913 40.492-4.338 46.277 36.877 62.184 82.918 31.722 25.209 45.257 96.215 37.744 96.215 37.744Z" class="coloreaddcd svgShape"/><path fill="#96590a" d="M339.314 561.207s2.406-30.7-31.46-49.283c0 0 .53-3.867.53-5.264-14.803 0-12.137 22.192-12.137 22.192s12.706 25.993 43.067 32.355Z" class="color96590a svgShape"/><path fill="#96590a" d="M339.414 561.207s-2.406-30.7 31.46-49.283c0 0-.53-3.867-.53-5.264 14.803 0 12.137 22.192 12.137 22.192s-12.706 25.993-43.067 32.355Z" class="color96590a svgShape"/><path fill="#96590a" d="m346.952 554.713-76.609 36.51-.032 1.224c-.11 4.105-11.02 411.533-18.553 505.484l3.987.319c7.335-91.482 17.86-479.54 18.531-504.47l74.397-35.456Z" class="color96590a svgShape"/><path fill="#f4eee9" d="M432.859 48.102S406.026 4.936 343.033 4.936s-89.825 43.166-89.825 43.166-53.334-22.5-79.334 12.834c34.667-12.334 83.167 8.333 83.167 8.333s27-42 85.992-42 85.993 42 85.993 42 48.5-20.667 83.167-8.334c-26-35.333-79.334-12.833-79.334-12.833Z" class="colorf4eee9 svgShape"/><path fill="#66635f" d="M205.467 968.21s-17.112 102.555-1.478 382.387c125.481 31 275.646 0 275.646 0s12.62-224.94-.12-382.387Z" class="color66635f svgShape"/><path fill="#96590a" d="M475.388 762.129c-.117-1.089-11.816-109.487-23.38-158.353a2.25 2.25 0 1 0-4.38 1.035c11.5 48.592 23.17 156.711 23.286 157.797a2.25 2.25 0 0 0 2.234 2.01c.08 0 .161-.004.243-.012a2.25 2.25 0 0 0 1.997-2.477zM216.65 604.553a2.001 2.001 0 0 0-2.232 1.736c-4.63 37.031-4.272 156.92-4.268 158.127a2 2 0 0 0 2 1.992h.006a2 2 0 0 0 1.994-2.006c-.004-1.205-.361-120.838 4.236-157.617a1.998 1.998 0 0 0-1.736-2.232z" class="color96590a svgShape"/><path fill="#4c4945" d="M228.675 1135.264c8.228 93.333 74.054 104.667 122.541 93.333-84.765-13.75-122.541-93.333-122.541-93.333zm175.375-36.216c-59.93 38.855-129.964 11.265-129.964 11.265 60.08 52.47 107.006 22.698 129.964-11.265zm-98.236 67.049c28.799 26.5 137.308 44 148.622-51.5 0 0-21.085 77.5-148.622 51.5z" class="color4c4945 svgShape"/><path fill="#66635f" d="M479.515 968.21s14.767-23.734 42.434-9.4 25.667 39.667 12.667 48.667-53.491-16.99-53.491-16.99l-.585-8.698s31.742 20.355 43.409 10.688-14.689-45.358-43.844-16.68Z" class="color66635f svgShape"/><path fill="#c9b099" d="M210.15 764.416h-77.31l.533-9.249s-14.95-2.496-17.95 25.004-7.82 38.318 22 29.834c46-13.088 26.585 18.162 56.604 15.496s18.23-61.092 18.23-61.092zm264.74 0h77.31l-.534-9.249s14.95-2.496 17.95 25.004-1 40.5-32 40-63.472-7.528-63.472-7.528l-1.363-48.234z" class="colorc9b099 svgShape"/><path fill="#f9a355" d="M132.757 811.241s48.27-21.62 15.343-57.057c40.657 6.488 133.16-.398 93.742 23.544-49.417 29.167-47.131 63.988-79.13 81.74-48.613 26.967-41.964-46.7-41.964-46.7Z" class="colorf9a355 svgShape"/><path fill="#ffc182" d="M158.663 716.001s-22.86-17.972-50.652-17.972c-10.837 0-11.42 11.126-7.998 19.113 14.26 1.71 32.55 13.97 41.106 27.66 8.556 13.69 39.358 47.914 76.433 42.209 37.076-5.704 62.744-47.342 75.293-68.448 7.985-14.83 1.71-18.822-3.422-20.534-10.268.572-57.322 0-57.322 0s-44.652 36.35-73.438 17.972Z" class="colorffc182 svgShape"/><path fill="#ce7d3a" d="m252.651 706.174.106-.142.05-.17c.105-.346.255-.733.417-1.155 1.058-2.748 2.828-7.347-2.795-11.991a1 1 0 1 0-1.273 1.54c4.513 3.73 3.231 7.057 2.202 9.732-.156.405-.3.78-.412 1.125-13.33 17.746-37.316 28.244-37.558 28.349a1 1 0 1 0 .792 1.836c.247-.107 24.837-10.86 38.471-29.124zm24.283-13.107a1 1 0 1 0-1.815.838c4.783 10.364-31.571 40.32-45.983 50.989a1 1 0 1 0 1.19 1.607c.131-.098 13.302-9.872 25.545-21.16 16.74-15.43 23.826-26.29 21.063-32.274zm14.65 4.819a.972.972 0 0 0-1.027.972c-.653 23.915-41.965 54.213-42.382 54.517a1 1 0 1 0 1.176 1.617 195.89 195.89 0 0 0 21.267-18.495c14.27-14.437 21.651-27.082 21.938-37.584a1 1 0 0 0-.972-1.027z" class="colorce7d3a svgShape"/><path fill="#a09f9f" d="M394.206 681.128H.602s-8.57 17.758 38.953 17.758h315.698c47.523 0 38.953-17.758 38.953-17.758Z" class="colora09f9f svgShape"/><path fill="#a2a3a8" d="M200.284 475.442c-14.71 0-26.636 5.802-26.636 12.957 0 6.12 8.723 11.245 20.45 12.604v20.416h12.372v-20.416c11.726-1.359 20.45-6.484 20.45-12.604 0-7.155-11.926-12.957-26.636-12.957Z" class="colora2a3a8 svgShape"/><path fill="#c6c6c6" d="m372.166 680.866-343.502.523a171.75 171.75 0 0 1 343.502-.523Z" class="colorc6c6c6 svgShape"/><path fill="#e8e7e6" d="M176.67 517.135S51.046 531.158 35.27 673.69h78.88s1.753-96.916 62.52-156.555Z" class="colore8e7e6 svgShape"/><path fill="#8e453c" d="M379.336 395.538H299.3s-3.826 47.494 40.018 47.494c43.848 0 40.018-47.494 40.018-47.494Z" class="color8e453c svgShape"/><path fill="#fff" d="M379.336 395.538s.793 11.904-6.098 11.904h-68.396c-6.809 0-5.542-11.904-5.542-11.904Z" class="colorfff svgShape"/><path fill="#f95c57" d="M319.224 438.585s7.133 4.447 20.645 4.447c13.51 0 19.545-4.447 19.545-4.447s-5.242-11.822-20.096-11.822-20.094 11.822-20.094 11.822Z" class="colorf95c57 svgShape"/></svg></svg>