<svg xmlns="http://www.w3.org/2000/svg" width="550" height="550"><svg xmlns="http://www.w3.org/2000/svg" width="550" height="550" data-name="Layer 1" viewBox="0 0 1370.386 1702.322"><path fill="#c6c6c6" d="m666.608 815.601 31.554-117.162 10.208 2.749-31.554 117.162z" class="colorc6c6c6 svgShape"/><path d="M693.557 706.229c-1.455 9.959-.925 14.25 3.868 15.541 5.689 1.532 9.219 1.951 17.831-30.03 0 0 14.35-50.544 30.649-88.635 3.062-7.158-6.295-17.371-15.509-6.248-16.97 20.486-30.922 68.885-36.839 109.372Z" class="color000 svgShape"/><path fill="#a09f9f" d="M786.632 823.059s-6.165 119.483-7.386 137.03c-1.22 17.547-10.936 24.088-25.228 24.152l-85.109.382-11.33.05-85.108.382c-14.293.063-24.069-6.39-25.447-23.926-1.376-17.535-8.206-136.96-8.206-136.96Z" class="colora09f9f svgShape"/><path fill="#e8e7e6" d="M778.726 823.094s-6.455 127.514-7.711 137.066c-1.256 9.552-6.42 17.211-18.439 17.265-12.02.055-37.031.166-37.031.166a21.79 21.79 0 0 0 18.111-17.9c3.175-16.242 7.387-136.429 7.387-136.429Z" class="colore8e7e6 svgShape"/><path fill="#4c4945" d="M800.897 823.12a7.967 7.967 0 0 1-7.967 7.967H532.52a7.967 7.967 0 0 1-7.967-7.967 7.967 7.967 0 0 1 7.967-7.967h260.41a7.967 7.967 0 0 1 7.967 7.967Zm-261.303 14.552s-30.89-4.135-43.39-6.585-15 10.55-2.5 13.55 46.783 8.512 46.783 8.512Zm246.138 0s30.891-4.135 43.391-6.585 15 10.55 2.5 13.55-46.784 8.512-46.784 8.512Z" class="color4c4945 svgShape"/><path fill="#ff6d00" d="M720.771 1008.384s6.92-8.862 7.254-16.48c-4.334 2-8.334 8.813-20.334 8.24-1-12.24 0-15.059 0-15.059l-26.333.041a135.514 135.514 0 0 0-12 16.779c-11-8-12.667-11.667-12.667-11.667l-7.333 13s-6.999-8.638-7.667-18.153h-21.666s-9.334 14.152-12 19.82c-7.667-10-7.334-14-7.334-14l-4.666 12.333s-17.334-3-23.334-12a24.942 24.942 0 0 0 9 17.146Z" class="colorff6d00 svgShape"/><path fill="#c6c6c6" d="M0 1677.549a24.776 24.776 0 0 0 24.775 24.773H1334.85a24.776 24.776 0 0 0 24.775-24.773 24.774 24.774 0 0 0-24.775-24.774H24.775A24.774 24.774 0 0 0 0 1677.55Z" class="colorc6c6c6 svgShape"/><path fill="#66635f" d="M77.722 1643.238h786.262v-575.99a40 40 0 0 0-40-40H117.722a40 40 0 0 0-40 40Z" class="color66635f svgShape"/><path fill="#a09f9f" d="M119.98 1008.384h701.746v19.575H119.98zm-42.258 108.129h786.262v463.834H77.722z" class="colora09f9f svgShape"/><path fill="#191919" d="M107.066 1148.238H834.64v401.239H107.066z" class="color191919 svgShape"/><path fill="#fff" d="M405.31 1526.24a3.5 3.5 0 0 1-2.475-5.975l353.002-353.002a3.5 3.5 0 1 1 4.95 4.95l-353.002 353.002a3.489 3.489 0 0 1-2.475 1.025Zm137.251 0a3.5 3.5 0 0 1-2.475-5.975l274.503-274.502a3.5 3.5 0 1 1 4.95 4.95l-274.503 274.502a3.49 3.49 0 0 1-2.475 1.025Zm-416.183-119.19a3.5 3.5 0 0 1-2.474-5.975l233.5-233.5a3.5 3.5 0 1 1 4.949 4.95l-233.5 233.5a3.49 3.49 0 0 1-2.475 1.025Zm643.152 122.407a3.5 3.5 0 0 1-2.474-5.976l47.533-47.53a3.5 3.5 0 0 1 4.95 4.95l-47.534 47.53a3.49 3.49 0 0 1-2.474 1.026Z" class="colorfff svgShape"/><path d="m363.79 983.147-179.007-.062c-38.828.118-42.972 24.816-43.01 25.065l3.956.592c.032-.215 3.634-21.55 39.059-21.657l179 .062c35.233 0 38.99 20.668 39.13 21.539l3.955-.604c-.038-.25-4.257-24.935-43.084-24.935Zm388.4 0-179.006-.062c-38.828.118-42.972 24.816-43.009 25.065l3.955.592c.033-.215 3.634-21.55 39.059-21.657l179 .062c35.234 0 38.99 20.668 39.13 21.539l3.956-.604c-.038-.25-4.257-24.935-43.084-24.935Z" class="color000 svgShape"/><path fill="red" d="M712.4 1008.446s5.334-1.438 7.21-5.378c-8.819 3.564-23.828 3.095-23.828 3.095v-16.229s-12.945 17.637-24.577 17.261c-9.193-3.565-12.946-7.598-12.946-7.598l-8.63 8.787h-9.57l-8.442-17.512-13.134 17.512h-13.32l-4.128-5.88-2.44 5.88s-12.195-2.877-15.384-5.691a28.184 28.184 0 0 0 4.691 5.69Z" class="colorred svgShape"/><circle cx="662.725" cy="1073.821" r="30.667" fill="#e8e7e6" class="colore8e7e6 svgShape" transform="rotate(-9.217 662.725 1073.821)"/><path fill="#66635f" d="M663.642 1043.166h.014a75.682 75.682 0 0 1 6.736 30.643 68.574 68.574 0 0 1-7.667 30.667h-.014a75.691 75.691 0 0 1-6.735-30.643 68.58 68.58 0 0 1 7.666-30.667Z" class="color66635f svgShape"/><path fill="#e8e7e6" d="M239.11 1073.821a30.667 30.667 0 1 0 30.667-30.667 30.666 30.666 0 0 0-30.666 30.667Z" class="colore8e7e6 svgShape"/><path fill="#66635f" d="M270.695 1043.166h.013a75.69 75.69 0 0 1 6.736 30.643 68.574 68.574 0 0 1-7.667 30.667h-.014a75.69 75.69 0 0 1-6.735-30.643 68.574 68.574 0 0 1 7.667-30.667Z" class="color66635f svgShape"/><path fill="#191919" d="M365.066 1073.821a30.655 30.655 0 0 0 30.655 30.656h130.69a30.655 30.655 0 0 0 30.655-30.656 30.655 30.655 0 0 0-30.655-30.655H395.72a30.655 30.655 0 0 0-30.655 30.655Zm408.638 569.417v14.24a19.185 19.185 0 0 0 19.184 19.186h22.567a19.186 19.186 0 0 0 19.185-19.185v-14.24Zm-659.968 0v14.24a19.186 19.186 0 0 0 19.185 19.186h22.567a19.185 19.185 0 0 0 19.184-19.185v-14.24Z" class="color191919 svgShape"/><path fill="#8e453c" d="m1244.555 941.564-8.918 677.546h-71.334l-35.668-602.986h-17.918l-35.666 602.986h-71.336l-8.916-677.546h249.756z" class="color8e453c svgShape"/><path d="M1230.88 1619.11s58.357 1.159 58.357 43.432v14.576s-60.813 3.153-72.426-7.597c0 3.508-.246 7.597-.246 7.597h-51.963v-58.15c37.66 0 66.277.142 66.277.142Zm-222.196 0s-58.357 1.159-58.357 43.432v14.576s60.812 3.153 72.425-7.597c0 3.508.247 7.597.247 7.597h51.962v-58.15c-37.658 0-66.277.142-66.277.142Z" class="color000 svgShape"/><path fill="#eadbcb" d="M1239.32 540.538c-25.679-9.812-86.51-12.223-86.51-12.223h-66.036s-67.804 2.238-90.354 13.876c-48.334 24.946-99.953 218.603-99.953 218.603L778.726 644.553l-40.315 53.885s135.925 183.993 181.883 180.556c43.444-3.248 68.898-114.586 68.898-114.586l2.122 309.229s-12.767 28.354 103.964 28.354h49.027c116.73 0 111.564-28.354 111.564-28.354l-.34-159.773c-.666-85.284 4.252-177.302 7.34-190.452 19.036 76.88 28.546 196.267 20.736 284.436-.09 1.018 75.265 14.363 75.265 14.363 5.333-115.591 8.483-153.273 5.149-230.606-3.618-83.921-50.929-225.513-124.698-251.067Z" class="coloreadbcb svgShape"/><path fill="#146199" d="m1119.842 553.896.031.007.032-.007Z" class="color146199 svgShape"/><path fill="#96590a" d="M1074.957 600.928a9.979 9.979 0 1 0 9.978 9.979 9.98 9.98 0 0 0-9.978-9.98Zm89.9 0a9.979 9.979 0 1 0 9.978 9.979 9.98 9.98 0 0 0-9.978-9.98Z" class="color96590a svgShape"/><path fill="#f9a355" d="M1149.877 496.723s1.676 15.487 3.16 31.592c-9.661 21.371-33.132 30.85-33.132 30.85s-23.469-9.479-33.131-30.85a2272.574 2272.574 0 0 1 3.16-31.592Z" class="colorf9a355 svgShape"/><path fill="#ffc182" d="M1125.723 499.926c131.322 0 119.434-97.816 119.434-97.816s36.748 2.704 36.748-46.476c0-49.178-36.748-35.126-36.748-35.126v-48.637s1.08-47.016-119.434-47.016h-4.324c-120.512 0-119.432 47.016-119.432 47.016v48.637s-36.748-14.052-36.748 35.126c0 49.18 36.748 46.476 36.748 46.476s-6.484 97.816 119.432 97.816Z" class="colorffc182 svgShape"/><path d="M1070.186 354.53a12.428 12.428 0 0 1-12.428 12.429 12.428 12.428 0 0 1-12.43-12.429v-9.726a12.428 12.428 0 0 1 12.43-12.429 12.428 12.428 0 0 1 12.428 12.429Zm-36.23-49.616s18.666-9.16 41.726 2.673c6.617 3.67 10.287-2.947 4.41-6.735-3.392-2.188-23.605-11.88-47.77.088-2.161 1.822-.204 4.725 1.634 3.974Z" class="color000 svgShape"/><path fill="#8e453c" d="M983.376 251.371c-9.76 41.076 6.721 67.365 6.721 67.365a32.508 32.508 0 0 1 11.889 1.843c33.062-25.67 38.271-82.465 38.271-82.465h-1.308c-30.5 6.083-55.573 13.257-55.573 13.257Zm280.321-.035s-25.072-7.173-55.572-13.257h-1.31s5.21 56.794 38.272 82.465a34.472 34.472 0 0 1 11.89-1.842s16.48-26.29 6.72-67.366Z" class="color8e453c svgShape"/><path d="M1169.626 354.53a12.428 12.428 0 0 0 12.427 12.429 12.428 12.428 0 0 0 12.43-12.429v-9.726a12.428 12.428 0 0 0-12.43-12.429 12.428 12.428 0 0 0-12.428 12.429Zm36.23-49.616s-18.666-9.16-41.727 2.673c-6.617 3.67-10.287-2.947-4.41-6.735 3.393-2.188 23.606-11.88 47.77.088 2.162 1.822.205 4.725-1.633 3.974Z" class="color000 svgShape"/><path fill="#f9a355" d="M999.391 378.228v-34.603s-20.4-8.752-20.4 12.128c0 18.47 15.314 22.476 20.4 22.476Zm241.223 0v-34.603s20.4-8.752 20.4 12.128c0 18.47-15.312 22.476-20.4 22.476Z" class="colorf9a355 svgShape"/><path fill="#96590a" d="M1263.377 718.633c-.255-.729-25.735-73.224-35.322-112.57a2 2 0 1 0-3.887.947c9.635 39.54 35.18 112.221 35.436 112.95a2 2 0 1 0 3.773-1.327ZM993.692 604.552a2.002 2.002 0 0 0-2.232 1.736c-4.63 37.032-4.272 156.921-4.268 158.127a2 2 0 0 0 2 1.993h.006a2 2 0 0 0 1.994-2.007c-.004-1.204-.361-120.837 4.236-157.617a1.998 1.998 0 0 0-1.736-2.232Z" class="color96590a svgShape"/><path fill="#eaddcd" d="M1256.053 121.605s-40.324-16-130.662-16h-3.658c-90.338 0-130.662 16-130.662 16s-7.695 56-7.695 129.766c26.306-5.734 90.695-13.257 138.357-13.257h3.658c47.662 0 112.05 7.523 138.357 13.257 0-73.766-7.695-129.766-7.695-129.766Z" class="coloreaddcd svgShape"/><path fill="#dbc3a9" d="M988.498 144.657c11.797-1.257 25.108-6.218 38.848-15.31 25.21 45.258 96.216 37.744 96.216 37.744s74.509 7.514 96.216-37.743c13.741 9.092 27.053 14.053 38.851 15.31l-2.576-23.053s-32.982-23.5-134.982-23.5-130 23.5-130 23.5Z" class="colordbc3a9 svgShape"/><path fill="#eaddcd" d="M1123.562 151.591s74.509 7.514 96.216-37.743c46.04 30.463 87.256 14.555 82.918-31.722-4.34-46.277-50.014-55.677-87.914-40.493C1197.126 16.326 1165.69 0 1123.562 0s-73.564 16.326-91.22 41.633c-37.9-15.184-83.575-5.784-87.914 40.493-4.338 46.277 36.877 62.184 82.918 31.722 25.21 45.257 96.216 37.743 96.216 37.743Z" class="coloreaddcd svgShape"/><path fill="#96590a" d="M1119.842 561.207s2.406-30.7-31.459-49.284c0 0 .53-3.867.53-5.263-14.803 0-12.137 22.191-12.137 22.191s12.706 25.993 43.066 32.356Z" class="color96590a svgShape"/><path fill="#96590a" d="M1119.943 561.207s-2.406-30.7 31.459-49.284c0 0-.53-3.867-.53-5.263 14.803 0 12.137 22.191 12.137 22.191s-12.706 25.993-43.066 32.356Z" class="color96590a svgShape"/><path fill="#96590a" d="m1128.801 554.083-76.605 36.508-.036 1.22c-.123 4.111-12.341 412.166-19.873 506.12l3.986.318c7.336-91.49 19.1-480.217 19.849-505.098l74.4-35.457Z" class="color96590a svgShape"/><path fill="#f4eee9" d="M1213.387 48.102s-26.833-43.167-89.825-43.167-89.825 43.166-89.825 43.166-53.334-22.5-79.334 12.834c34.667-12.334 83.167 8.334 83.167 8.334s27-42 85.992-42 85.992 42 85.992 42 48.5-20.668 83.167-8.334c-26-35.334-79.334-12.834-79.334-12.834Z" class="colorf4eee9 svgShape"/><path fill="#66635f" d="M988.643 823.759c14.244-73.294 33.446-181.483 34.706-186.721-.346-12.417-2.268-85.133-.445-103.017 5.061-5.587 15.553-1.885 15.553-1.885l.496 104.688h167.43v-104.65s10.474-3.75 15.561 1.812c1.898 17.788.345 89.904.047 102.838.006.018 30.09 110.62 35.065 196.956 4.976 86.342 2.443 242.976 2.443 242.976s-9.632 191.667-5.632 300.667c-122 31-268 0-268 0s2.321-115.268-1.333-304.667c0 0 2.05-144.835 4.11-248.997Z" class="color66635f svgShape"/><path fill="#4c4945" d="M1229.867 1058.09c-8 93.333-72 104.667-119.143 93.333 82.414-13.75 119.143-93.333 119.143-93.333Zm-170.511-36.216c58.267 38.855 126.36 11.266 126.36 11.266-58.414 52.47-104.04 22.697-126.36-11.266Zm95.511 67.049c-28 26.5-133.5 44-144.5-51.5 0 0 20.5 77.5 144.5 51.5Z" class="color4c4945 svgShape"/><path fill="#ffc182" d="M1350.826 1020.873c7.421 10.517 22.089 33.374 19.185 43.037-3.909 9.987-11.193 10.07-11.193 10.07s.16 14.09-19.623 14.104c-7.986 8.827-12.615 15.86-23.427 11.102-3.906 9.85-14.439 17.743-18.384 12.07-3.942-5.67-6.658-28.457-7.281-55.1-19.167 30.412-34.284 14.882-34.284 14.882s5.314-13.771 17.047-31.9c8.694-13.436 13.556-25.058 17.211-29.935ZM740.58 616.132c-.544.5-20.546 9.005-32.211 20.255 3.584 19.75 20.162 13.023 20.162 13.023l-8.86 27.521-6.079 21.269s10.028 4.27 10.104-7.438c2.234-1.442 3.858-1.475 5.537-3.14a33.94 33.94 0 0 0 14.22 4.077l35.273-47.146s-15.19-29.25-35.18-35.818Z" class="colorffc182 svgShape"/><path fill="#ffc182" d="M708.933 646.096c3.565-20.365 13.545-37.361 13.545-37.361s-17.275 2.402-25.275 15.652c-2.148 3.558-3.927 10.415-5.19 15.693a10.731 10.731 0 0 0-.415 1.051c-3.51 10.522-4.11 34.63 5.905 42.681 6.093-3.37 5.377-9.898 4.732-17.345q.462-1.494.945-3.022c4.117-3.046 5.392-11.313 5.753-17.35Z" class="colorffc182 svgShape"/><path fill="#ce7d3a" d="M770.611 641.718c-.37-.801-9.085-19.655-11.743-22.872-8.212-9.936-18.71-3.63-18.785-3.582l-30.909 17.671a5.286 5.286 0 0 0-3.815-4.33 1 1 0 0 0-.465 1.945c2.671.64 2.486 4.367 2.477 4.523l-.003.05.001.05c.641 17.31-.94 26.085-5.283 29.288-1.342.583-4.927 1.72-6.852.59a3.155 3.155 0 0 1-1.394-2.67c-.336-3.773 0-20.06.004-20.223a1 1 0 0 0-.98-1.021 1.042 1.042 0 0 0-1.02.979c-.014.674-.342 16.561.004 20.443a5.069 5.069 0 0 0 2.375 4.218 6.197 6.197 0 0 0 3.148.746 15.646 15.646 0 0 0 5.626-1.278l.172-.099c4.223-3.023 6.171-9.76 6.322-22.495a14.158 14.158 0 0 0 4.728 6.06c3.7 2.581 8.63 2.797 14.65.64l10.163-4.918c-4.15 5.68-10.487 17.525-5.415 32.246a1 1 0 0 0 1.89-.651c-5.864-17.024 4.496-30 7.297-33.093.804 4.917 3.65 19.078 10.247 22.743a1 1 0 0 0 .971-1.748c-6.971-3.873-9.459-22.73-9.483-22.92l-.177-1.38-16.218 7.857c-5.349 1.904-9.646 1.766-12.774-.413-4.89-3.405-5.706-10.907-5.84-13.038l31.573-18.052c.37-.226 9.135-5.441 16.223 3.136 1.996 2.415 8.375 15.732 11.469 22.436a1 1 0 0 0 1.816-.838Z" class="colorce7d3a svgShape"/><path fill="#ce7d3a" d="M723.1 669.68a1 1 0 0 0-.206 1.4c.058.078 5.807 7.882 5.852 14.62.016 2.328-2.744 3.422-4.251 3.847a40.22 40.22 0 0 0-4.388-11.382l-1.726 1.01c.053.09 5.256 9.079 4.26 14.6a3.969 3.969 0 0 1-1.749 2.78c-2.592 1.7-7.025.682-7.069.671l-.463 1.946a16.072 16.072 0 0 0 3.413.366 9.614 9.614 0 0 0 5.21-1.306 5.953 5.953 0 0 0 2.627-4.103 11.168 11.168 0 0 0 .129-2.574c1.867-.48 6.033-1.984 6.007-5.869-.05-7.385-5.994-15.46-6.247-15.8a1 1 0 0 0-1.4-.205Z" class="colorce7d3a svgShape"/><path fill="#eaeaea" d="M612.725 711.727s-19.396-11.48-31.27 5.541c-11.876 17.021 6.333 30.084 6.333 30.084s-10.975 21.676 4.75 30.701c23.75 13.632 36.416-7.556 36.416-7.556s33.646 7.556 37.208-19.979c3.632-28.072-21.375-30.875-21.375-30.875s2.19-14.617-11.874-18.208c-18.604-4.75-20.188 10.292-20.188 10.292Zm130.281 71.516s13.509 3.288 17.456-8.891c3.948-12.18-9.145-16.615-9.145-16.615s2.578-14.764-8.322-17.264c-16.469-3.774-20.135 11.007-20.135 11.007s-21.212 1.59-18.364 18.479c2.903 17.22 18.164 14.377 18.164 14.377s1.336 9.02 10.282 8.61c11.834-.54 10.064-9.703 10.064-9.703Zm-80.921-160.219s-13.457-3.496-17.591 8.621c-4.136 12.118 8.887 16.754 8.887 16.754s-2.804 14.723 8.056 17.39c16.409 4.027 20.302-10.696 20.302-10.696s20.43 5.738 20.714-17.456c.227-18.5-20.008-15.393-20.008-15.393s-1.197-9.04-10.149-8.768c-11.84.36-10.211 9.548-10.211 9.548Z" class="coloreaeaea svgShape"/><path fill="#8e453c" d="M1159.864 395.538h-80.035s-3.826 47.495 40.018 47.495c43.847 0 40.017-47.495 40.017-47.495Z" class="color8e453c svgShape"/><path fill="#fff" d="M1159.864 395.538s.793 11.905-6.097 11.905h-68.397c-6.809 0-5.54-11.905-5.54-11.905Z" class="colorfff svgShape"/><path fill="#f95c57" d="M1099.753 438.585s7.133 4.448 20.645 4.448c13.51 0 19.544-4.448 19.544-4.448s-5.242-11.822-20.095-11.822-20.094 11.822-20.094 11.822Z" class="colorf95c57 svgShape"/></svg></svg>