<svg xmlns="http://www.w3.org/2000/svg" width="550" height="550"><svg xmlns="http://www.w3.org/2000/svg" width="550" height="550" data-name="Layer 1" viewBox="0 0 790.341 1702.322"><path fill="#c6c6c6" d="M790.341 1677.549a24.776 24.776 0 0 1-24.775 24.773H24.776A24.776 24.776 0 0 1 0 1677.55a24.774 24.774 0 0 1 24.775-24.774h740.79a24.774 24.774 0 0 1 24.776 24.774Z" class="colorc6c6c6 svgShape"/><path fill="#8e453c" d="m513.425 941.564-8.918 677.547h-71.334l-35.668-602.986h-17.918l-35.666 602.986h-71.336l-8.916-677.547h249.756z" class="color8e453c svgShape"/><path d="M499.749 1619.111s58.357 1.158 58.357 43.432v14.576s-60.812 3.152-72.425-7.598c0 3.508-.246 7.598-.246 7.598h-51.963v-58.15c37.66 0 66.277.142 66.277.142zm-222.195 0s-58.358 1.158-58.358 43.432v14.576s60.813 3.152 72.426-7.598c0 3.508.246 7.598.246 7.598h51.963v-58.15c-37.658 0-66.277.142-66.277.142z" class="color000 svgShape"/><path fill="#eadbcb" d="m260.053 691.595-6.838 381.82s-5.798 28.577 110.932 28.577h49.028c116.73 0 113.374-28.577 113.374-28.577s-4.798-258.459-8.45-330.307l80.832-41.787c-4.666-11-30.438-132.15-90.74-160.782-24.834-11.791-86.512-12.223-86.512-12.223h-66.035s-67.725 2.391-90.354 13.875c-77.135 39.146-153.781 164.473-153.781 164.473l86.209 32.595Z" class="coloreadbcb svgShape"/><path fill="#146199" d="m388.712 553.896.031.008c.012-.002.031-.008.031-.008Z" class="color146199 svgShape"/><path fill="#96590a" d="M343.826 600.928a9.98 9.98 0 1 0 9.979 9.98 9.981 9.981 0 0 0-9.979-9.98zm89.9 0a9.98 9.98 0 1 0 9.98 9.98 9.981 9.981 0 0 0-9.98-9.98zm-89.9 97.994a9.98 9.98 0 1 0 9.979 9.98 9.981 9.981 0 0 0-9.979-9.98zm89.9 0a9.98 9.98 0 1 0 9.98 9.98 9.981 9.981 0 0 0-9.98-9.98zm-89.9 97.994a9.98 9.98 0 1 0 9.979 9.98 9.981 9.981 0 0 0-9.979-9.98zm89.9 0a9.98 9.98 0 1 0 9.98 9.98 9.981 9.981 0 0 0-9.98-9.98zm-89.9 97.994a9.98 9.98 0 1 0 9.979 9.98 9.981 9.981 0 0 0-9.979-9.98zm89.9 0a9.98 9.98 0 1 0 9.98 9.98 9.981 9.981 0 0 0-9.98-9.98z" class="color96590a svgShape"/><path fill="#f9a355" d="M418.747 496.723s1.676 15.488 3.16 31.593c-9.662 21.371-33.133 30.85-33.133 30.85s-23.468-9.479-33.13-30.85c1.484-16.105 3.16-31.593 3.16-31.593Z" class="colorf9a355 svgShape"/><path fill="#ffc182" d="M394.593 499.927c131.322 0 119.433-97.817 119.433-97.817s36.748 2.704 36.748-46.475-36.748-35.126-36.748-35.126V271.87s1.08-47.016-119.433-47.016h-4.325c-120.511 0-119.431 47.016-119.431 47.016v48.638s-36.748-14.053-36.748 35.126c0 49.18 36.748 46.475 36.748 46.475s-6.484 97.817 119.432 97.817Z" class="colorffc182 svgShape"/><path d="M302.825 304.914s18.666-9.16 41.727 2.674c6.617 3.67 10.287-2.947 4.41-6.736-3.393-2.188-23.606-11.88-47.77.09-2.162 1.82-.205 4.724 1.633 3.972Z" class="color000 svgShape"/><path fill="#8e453c" d="M252.246 251.371c-9.76 41.076 6.72 67.365 6.72 67.365a32.51 32.51 0 0 1 11.89 1.844c33.062-25.672 38.27-82.466 38.27-82.466h-1.308c-30.5 6.083-55.572 13.257-55.572 13.257zm280.32-.034s-25.072-7.174-55.572-13.257h-1.308s5.209 56.794 38.271 82.465a34.484 34.484 0 0 1 11.889-1.843s16.481-26.29 6.72-67.365z" class="color8e453c svgShape"/><path d="M474.726 304.914s-18.666-9.16-41.727 2.674c-6.617 3.67-10.287-2.947-4.41-6.736 3.392-2.188 23.605-11.88 47.77.09 2.162 1.82.204 4.724-1.633 3.972Z" class="color000 svgShape"/><path fill="#f9a355" d="M268.26 378.228v-34.603s-20.4-8.752-20.4 12.129c0 18.47 15.315 22.474 20.4 22.474zm241.223 0v-34.603s20.4-8.752 20.4 12.129c0 18.47-15.312 22.474-20.4 22.474z" class="colorf9a355 svgShape"/><path fill="#eaddcd" d="M524.923 121.606s-40.324-16-130.662-16h-3.658c-90.338 0-130.663 16-130.663 16s-7.694 56-7.694 129.765c26.306-5.734 90.694-13.257 138.357-13.257h3.658c47.662 0 112.05 7.523 138.356 13.257 0-73.766-7.694-129.766-7.694-129.766Z" class="coloreaddcd svgShape"/><path fill="#dbc3a9" d="M257.367 144.658c11.798-1.258 25.109-6.218 38.849-15.31 25.209 45.257 96.216 37.744 96.216 37.744s74.508 7.513 96.215-37.744c13.742 9.092 27.053 14.054 38.852 15.31l-2.576-23.052s-32.983-23.5-134.983-23.5-130 23.5-130 23.5Z" class="colordbc3a9 svgShape"/><path fill="#eaddcd" d="M392.432 151.592s74.508 7.513 96.215-37.744c46.042 30.462 87.256 14.555 82.918-31.722-4.339-46.276-50.013-55.677-87.914-40.492C465.995 16.326 434.561 0 392.431 0s-73.563 16.326-91.22 41.634c-37.9-15.185-83.574-5.784-87.913 40.492-4.338 46.277 36.877 62.184 82.918 31.722 25.209 45.257 96.216 37.744 96.216 37.744Z" class="coloreaddcd svgShape"/><path fill="#96590a" d="M388.712 561.207s2.406-30.7-31.46-49.283c0 0 .53-3.867.53-5.264-14.802 0-12.136 22.192-12.136 22.192s12.705 25.993 43.066 32.355Z" class="color96590a svgShape"/><path fill="#96590a" d="M388.813 561.207s-2.407-30.7 31.459-49.283c0 0-.53-3.867-.53-5.264 14.803 0 12.137 22.192 12.137 22.192s-12.706 25.993-43.067 32.355Z" class="color96590a svgShape"/><path fill="#96590a" d="m396.35 554.713-76.609 36.51-.032 1.224c-.11 4.105-11.02 411.533-18.553 505.484l3.987.319c7.335-91.482 17.86-479.54 18.531-504.47l74.397-35.456Z" class="color96590a svgShape"/><path fill="#f4eee9" d="M482.257 48.102S455.424 4.936 392.432 4.936s-89.826 43.166-89.826 43.166-53.334-22.5-79.334 12.834c34.667-12.334 83.167 8.333 83.167 8.333s27-42 85.993-42 85.992 42 85.992 42 48.5-20.667 83.167-8.334c-26-35.333-79.334-12.833-79.334-12.833Z" class="colorf4eee9 svgShape"/><path fill="#66635f" d="M254.865 968.21s-17.112 102.555-1.477 382.387c125.48 31 275.645 0 275.645 0s12.62-224.94-.12-382.387Z" class="color66635f svgShape"/><path fill="#96590a" d="M520.12 740.62c-.117-1.09-11.816-109.488-23.381-158.353a2.25 2.25 0 1 0-4.38 1.035c11.501 48.592 23.17 156.71 23.286 157.797a2.25 2.25 0 0 0 2.235 2.01c.08 0 .161-.005.243-.012a2.25 2.25 0 0 0 1.997-2.478zM266.047 604.552a2.001 2.001 0 0 0-2.232 1.736c-4.629 37.031-4.272 156.92-4.268 158.127a2 2 0 0 0 2 1.992h.006a2 2 0 0 0 1.994-2.006c-.004-1.205-.361-120.838 4.237-157.617a1.998 1.998 0 0 0-1.737-2.232z" class="color96590a svgShape"/><path fill="#4c4945" d="M278.073 1135.264c8.228 93.333 74.054 104.667 122.541 93.333-84.764-13.75-122.541-93.333-122.541-93.333zm175.375-36.216c-59.93 38.855-129.964 11.265-129.964 11.265 60.08 52.47 107.006 22.698 129.964-11.265zm-98.236 67.049c28.799 26.5 137.309 44 148.623-51.5 0 0-21.085 77.5-148.623 51.5z" class="color4c4945 svgShape"/><path fill="#66635f" d="M528.913 968.21s14.767-23.734 42.434-9.4 25.667 39.667 12.667 48.667-53.491-16.99-53.491-16.99l-.585-8.698s31.742 20.355 43.41 10.688-14.69-45.358-43.845-16.68Z" class="color66635f svgShape"/><path fill="#c9b099" d="m530.221 736.757 68.71-35.436-2.858-9.215s14.823-4.837 25.56 15.236c16.038 29.987 15.46 43.055-12.32 56.82-27.783 13.765-45.82 16.759-64.57 24.509-11.093 4.585-25.256-9.017-26.644-24a105.36 105.36 0 0 1 0-21.563zm-332.503 2.502-86.21-32.595 4.91-7.734s-16.17-2.882-26.147 17.758c-12.038 24.908-9.42 35.216 19.018 47.563 44.304 19.237 72.7 30.492 93.19-1.3 14.446-22.416 6.058-31.966 6.058-31.966z" class="colorc9b099 svgShape"/><path d="M339.056 368.776a12.427 12.427 0 0 1-12.428 12.428 12.427 12.427 0 0 1-12.43-12.428v-9.726a12.43 12.43 0 0 1 12.43-12.43 12.429 12.429 0 0 1 12.428 12.43zm99.44 0a12.427 12.427 0 0 0 12.427 12.428 12.427 12.427 0 0 0 12.43-12.428v-9.726a12.429 12.429 0 0 0-12.43-12.43 12.429 12.429 0 0 0-12.428 12.43z" class="color000 svgShape"/><path fill="#8e453c" d="M424.323 421.282a2.434 2.434 0 0 0-3.275 1.051c-.052.103-5.871 10.176-28.81 10.176h-4.318c-22.991 0-28.769-10.1-28.81-10.176a2.432 2.432 0 0 0-4.327 2.225c.269.523 6.889 12.814 33.137 12.814h4.317c26.248 0 32.868-12.29 33.137-12.814a2.433 2.433 0 0 0-1.05-3.276Z" class="color8e453c svgShape"/><path fill="#eadbcb" d="M111.372 1677.549v-529.173a38.104 38.104 0 0 1 38.105-38.105h478.597a38.105 38.105 0 0 1 38.105 38.105v529.174h86.596v-597.212a50 50 0 0 0-50-50h-628a50 50 0 0 0-50 50v597.21Z" class="coloreadbcb svgShape"/><path fill="#8e453c" d="M243.244 715.006c7.123-2.31 17.29-2.364 25.876 24.12 8.894 27.436 17.622 88.643 17.622 88.643l-6.285 2.038-6.284 2.038s-28.84-54.689-37.735-82.126c-8.583-26.486-.317-32.405 6.806-34.713Z" class="color8e453c svgShape"/><path fill="#8e453c" d="M339.487 911.862c-9.494-29.288-31.677-58.624-44.93-76.151-3.7-4.894-6.623-8.759-8.148-11.176l-2.128 1.343-.226-.444-2.149 1.064-.078-.207-2.24.843-2.303.629.059.215-2.366.399.078.491-2.51.161c.183 2.852.083 7.696-.043 13.827-.45 21.971-1.205 58.742 8.29 88.032 5.956 18.374 18.875 25.739 31.013 25.738a30.168 30.168 0 0 0 9.285-1.466l.022-.008c.046-.014.09-.032.135-.047 14.064-4.645 25.735-20.117 18.239-43.243Zm-56.255 18.235c-9.361-28.878-8.612-65.38-8.165-87.188.122-5.902.215-10.602.06-13.595.434 2.833.928 7.103 1.538 12.38 2.427 21.003 6.49 56.158 15.957 85.36 4.399 13.573 11.15 23.271 18.551 26.982-10.963-.284-22.516-7.202-27.941-23.94Zm32.28 22.81c-2.978-.637-13.252-4.434-20.451-26.644-9.387-28.96-13.432-63.955-15.849-84.865-.575-4.976-1.048-9.057-1.469-11.928.72 2.72 1.69 6.51 2.863 11.106 5.133 20.098 13.723 53.735 23.165 82.863 2.565 7.914 8.157 23.878 13.22 29.665a10.447 10.447 0 0 1-1.48-.198Zm4.776-.224c-1.649-.515-7.02-8.264-14.078-30.035-9.417-29.05-17.994-62.638-23.12-82.707-.979-3.836-1.819-7.126-2.491-9.698.968 2.487 2.224 5.66 3.688 9.36 7.62 19.25 20.372 51.47 29.782 80.499 7.056 21.77 7.252 31.196 6.219 32.58Zm2.917-1.592c.705-7.658-4.132-23.866-6.697-31.78-9.434-29.106-22.206-61.373-29.836-80.652-1.754-4.43-3.199-8.082-4.214-10.718 1.343 2.573 3.354 6.155 5.807 10.522 10.31 18.35 27.565 49.065 36.952 78.024 7.2 22.21 1.108 31.314-.93 33.574a10.603 10.603 0 0 1-1.082 1.03Zm5.255-2.656c3.818-7.346 3.597-19.164-.804-32.739-9.465-29.2-26.799-60.055-37.155-78.49-2.602-4.63-4.707-8.38-6.018-10.929 1.63 2.515 4.465 6.269 8.028 10.98 13.156 17.4 35.175 46.518 44.536 75.396 5.426 16.74.127 29.122-8.587 35.782Z" class="color8e453c svgShape"/><path fill="#ffc182" d="m98.386 759.129 97.568 8.181s40.514-18.409 62.872 0 25.637 40.409 20.998 51.743-39.974 28.666-73.307 0c0 0-111.357 6.167-132.268-19.592-15.158-18.673 14.624-47.675 14.624-47.675Z" class="colorffc182 svgShape"/><path fill="#8e453c" d="M232.776 893.838c96.54-7.21 210.153-15.694 291.469-21.769 10.678 145.983-54.365 150.608-134.852 156.62-80.488 6.01-145.973 10.677-156.617-134.851Z" class="color8e453c svgShape"/><path fill="#bc736d" d="m240.712 902.423 72.245-5.285s5.91 102.72 65.899 123.355c-30.6 2.237-127.486 27.637-138.144-118.07Z" class="colorbc736d svgShape"/><path fill="#ffc182" d="M616.971 759.953s-25.367 12.166-66.704 26.564c-9.89 20.378-18.599 71.31-20.598 97.449a33.293 33.293 0 0 0-4.805-2.96c.244 7.977.244 13.21.244 13.21a205.057 205.057 0 0 1-45.703 9.075c-4.11.747-9.104 11.91-.59 12.74 11.184 1.091 19.79 1.273 46.293-6.025-13.604 13.138-35.876 17.01-54.379 22.628-4.898 1.486-8.245 12.176.89 12.564 9.266.393 26.312-1.218 51.551-14.804-22.541 21.257-41.772 21.936-42.436 31.293-.665 9.358 14.191 4.558 38.772-10.043 0 0-23.645 15.714-24.58 21.183-1.339 7.817 18.646-1.97 30.607-11.14 5.96-4.569 9.414-9.92 13.96-18.682 87-167.667 77.478-183.052 77.478-183.052zm-341.2 5.278s19.387 11.885 17.404 32.953c-3.222 3.221-10.801 1.965-10.801 1.965z" class="colorffc182 svgShape"/><path fill="#ce7d3a" d="M247.026 775.374a1 1 0 0 0-1.074 1.688c24.666 15.696 27.833 47.923 27.862 48.247a1 1 0 0 0 .995.91c.03 0 .06 0 .09-.003a1 1 0 0 0 .907-1.085c-.03-.333-3.27-33.524-28.78-49.757zm-15.03 11.975a1 1 0 1 0-1.067 1.691c21.053 13.272 31.694 42.484 31.799 42.778a1 1 0 0 0 1.883-.674c-.107-.3-10.97-30.15-32.615-43.795zm-15.525 16.654a1 1 0 1 0-1.012 1.724c17.174 10.076 28.647 29.282 28.76 29.475a1 1 0 0 0 1.723-1.017c-.116-.197-11.841-19.84-29.471-30.182z" class="colorce7d3a svgShape"/><path fill="#bc736d" d="M410.417 891.736a5.029 5.029 0 0 1-4.012-8.053c.903-1.199 22.45-29.364 52.38-31.181 10.97-.669 19.07 2.026 24.065 8 7.418 8.878 4.494 21.323 4.366 21.85a5.028 5.028 0 0 1-9.77-2.383c.013-.057 1.83-8.112-2.344-13.054-2.84-3.364-8.124-4.833-15.708-4.376-25.35 1.54-44.764 26.938-44.957 27.194a5.022 5.022 0 0 1-4.02 2.003Z" class="colorbc736d svgShape"/></svg></svg>