<svg xmlns="http://www.w3.org/2000/svg" width="550" height="550"><svg xmlns="http://www.w3.org/2000/svg" width="550" height="550" data-name="Layer 1" viewBox="0 0 451.692 1702.322"><path fill="#c6c6c6" d="M451.692 1677.548a24.775 24.775 0 0 1-24.776 24.774H24.776A24.775 24.775 0 0 1 0 1677.548a24.774 24.774 0 0 1 24.775-24.772h402.141a24.774 24.774 0 0 1 24.776 24.772Z" class="colorc6c6c6 svgShape"/><path fill="#8e453c" d="m354.228 941.565-8.918 677.546h-71.334l-35.668-602.987H220.39l-35.666 602.987h-71.336l-8.916-677.546h249.756z" class="color8e453c svgShape"/><path d="M340.552 1619.11s58.358 1.159 58.358 43.432v14.577s-60.813 3.152-72.426-7.598c0 3.509-.246 7.598-.246 7.598h-51.963v-58.15c37.66 0 66.277.142 66.277.142Zm-222.195 0s-58.358 1.159-58.358 43.432v14.577s60.813 3.152 72.426-7.598c0 3.509.246 7.598.246 7.598h51.963v-58.15c-37.658 0-66.277.142-66.277.142Z" class="color000 svgShape"/><path fill="#eadbcb" d="m98.865 764.409-4.846 309.006s-5.799 28.577 110.932 28.577h49.027c116.73 0 113.374-28.577 113.374-28.577l3.427-152.509c.048-20.256.829-29.256 2.385-50.688 0 0 78.751 6.868 75.37-64.136s-24.153-233.217-99.54-265.544c-25.266-10.833-86.512-12.222-86.512-12.222h-66.035s-68.171 1.551-90.354 13.876c-58.218 32.346-84.155 177.092-84.155 177.092-11.16 72.3-27.92 145.465 51.915 156.467 28.668-69.333 25.012-111.342 25.012-111.342Z" class="coloreadbcb svgShape"/><path fill="#146199" d="m229.515 553.897.031.007.032-.007Z" class="color146199 svgShape"/><path fill="#96590a" d="M184.63 600.928a9.979 9.979 0 1 0 9.978 9.98 9.98 9.98 0 0 0-9.979-9.98Zm89.9 0a9.979 9.979 0 1 0 9.978 9.98 9.98 9.98 0 0 0-9.978-9.98Z" class="color96590a svgShape"/><path fill="#f9a355" d="M259.55 496.723s1.676 15.487 3.16 31.593c-9.662 21.371-33.132 30.85-33.132 30.85s-23.47-9.479-33.131-30.85c1.484-16.106 3.16-31.593 3.16-31.593Z" class="colorf9a355 svgShape"/><path fill="#ffc182" d="M235.396 499.927c131.322 0 119.434-97.817 119.434-97.817s36.748 2.704 36.748-46.475-36.748-35.126-36.748-35.126V271.87s1.08-47.016-119.434-47.016h-4.324c-120.512 0-119.432 47.016-119.432 47.016v48.638s-36.748-14.053-36.748 35.126c0 49.18 36.748 46.475 36.748 46.475s-6.484 97.817 119.432 97.817Z" class="colorffc182 svgShape"/><path d="M179.859 354.53a12.428 12.428 0 0 1-12.428 12.43 12.428 12.428 0 0 1-12.43-12.43v-9.726a12.428 12.428 0 0 1 12.43-12.428 12.427 12.427 0 0 1 12.428 12.428Zm-36.231-49.616s18.666-9.16 41.727 2.673c6.617 3.67 10.287-2.947 4.41-6.735-3.392-2.188-23.605-11.88-47.77.089-2.162 1.821-.204 4.725 1.633 3.974Z" class="color000 svgShape"/><path fill="#8e453c" d="M93.05 251.371c-9.761 41.076 6.72 67.366 6.72 67.366a32.509 32.509 0 0 1 11.889 1.843c33.062-25.67 38.271-82.466 38.271-82.466h-1.308c-30.5 6.084-55.573 13.257-55.573 13.257Zm280.32-.034s-25.073-7.174-55.573-13.257h-1.308s5.209 56.794 38.271 82.465a34.471 34.471 0 0 1 11.889-1.843s16.481-26.29 6.72-67.365Z" class="color8e453c svgShape"/><path d="M279.298 354.53a12.428 12.428 0 0 0 12.428 12.43 12.428 12.428 0 0 0 12.43-12.43v-9.726a12.428 12.428 0 0 0-12.43-12.428 12.427 12.427 0 0 0-12.428 12.428Zm36.231-49.616s-18.666-9.16-41.727 2.673c-6.617 3.67-10.287-2.947-4.41-6.735 3.393-2.188 23.606-11.88 47.77.089 2.162 1.821.205 4.725-1.633 3.974Z" class="color000 svgShape"/><path fill="#f9a355" d="M109.064 378.229v-34.603s-20.4-8.752-20.4 12.127c0 18.471 15.314 22.476 20.4 22.476Zm241.223 0v-34.603s20.4-8.752 20.4 12.127c0 18.471-15.313 22.476-20.4 22.476Z" class="colorf9a355 svgShape"/><path fill="#8e453c" d="M271.457 397.078H191.42s-3.826 47.495 40.018 47.495c43.848 0 40.018-47.495 40.018-47.495Z" class="color8e453c svgShape"/><path fill="#fff" d="M271.457 397.078s.793 11.905-6.098 11.905h-68.397c-6.808 0-5.54-11.905-5.54-11.905Z" class="colorfff svgShape"/><path fill="#f95c57" d="M211.345 440.125s7.133 4.448 20.645 4.448c13.51 0 19.545-4.447 19.545-4.447s-5.243-11.823-20.096-11.823-20.094 11.822-20.094 11.822Z" class="colorf95c57 svgShape"/><path fill="#eaddcd" d="M365.726 121.606s-40.324-16-130.662-16h-3.658c-90.338 0-130.662 16-130.662 16s-7.695 56-7.695 129.766c26.306-5.735 90.695-13.258 138.357-13.258h3.658c47.662 0 112.05 7.523 138.356 13.258 0-73.766-7.694-129.766-7.694-129.766Z" class="coloreaddcd svgShape"/><path fill="#dbc3a9" d="M98.17 144.658c11.798-1.257 25.109-6.219 38.849-15.31 25.209 45.258 96.216 37.744 96.216 37.744s74.509 7.514 96.216-37.744c13.74 9.092 27.052 14.054 38.851 15.31l-2.576-23.052s-32.982-23.5-134.982-23.5-130 23.5-130 23.5Z" class="colordbc3a9 svgShape"/><path fill="#eaddcd" d="M233.235 151.592s74.509 7.514 96.216-37.744c46.04 30.463 87.255 14.555 82.918-31.722-4.34-46.276-50.014-55.677-87.914-40.492C306.798 16.326 275.364 0 233.235 0s-73.564 16.326-91.22 41.634c-37.9-15.185-83.575-5.784-87.914 40.492-4.338 46.277 36.877 62.185 82.918 31.722 25.209 45.258 96.216 37.744 96.216 37.744Z" class="coloreaddcd svgShape"/><path fill="#96590a" d="M229.515 561.207s2.406-30.7-31.459-49.284c0 0 .53-3.866.53-5.263-14.803 0-12.137 22.191-12.137 22.191s12.706 25.994 43.066 32.356Z" class="color96590a svgShape"/><path fill="#96590a" d="M229.616 561.207s-2.407-30.7 31.459-49.284c0 0-.53-3.866-.53-5.263 14.803 0 12.137 22.191 12.137 22.191s-12.706 25.994-43.066 32.356Z" class="color96590a svgShape"/><path fill="#96590a" d="m237.154 554.712-76.61 36.51-.032 1.225c-.11 4.105-11.02 411.534-18.553 505.484l3.987.319c7.335-91.483 17.861-479.54 18.532-504.471l74.397-35.455Z" class="color96590a svgShape"/><path fill="#f4eee9" d="M323.06 48.102S296.227 4.936 233.235 4.936 143.41 48.101 143.41 48.101s-53.334-22.5-79.334 12.834c34.667-12.334 83.167 8.333 83.167 8.333s27-42 85.992-42 85.992 42 85.992 42 48.5-20.667 83.167-8.334c-26-35.333-79.334-12.833-79.334-12.833Z" class="colorf4eee9 svgShape"/><path fill="#66635f" d="M370.503 826.417c-14.244-73.293-40.706-183.482-41.966-188.72.345-12.417 2.267-85.134.444-103.017-5.06-5.587-15.552-1.886-15.552-1.886l-.496 104.688h-167.43v-104.65s-10.474-3.75-15.562 1.812c-1.898 17.79-.344 89.904-.047 102.839-.005.018-30.09 110.62-35.064 196.955-4.976 86.343-2.444 242.977-2.444 242.977s9.633 191.667 5.633 300.667c122 31 268 0 268 0s-2.321-115.269 1.333-304.667c0 0 5.21-142.836 3.15-246.998Z" class="color66635f svgShape"/><path fill="#f9a355" d="M132.645 856.332c94.255-24.25 130.917-74.25 214.907-82.282 16.557-15.543 15.8-11.992 15.8-11.992l-4.482-37.391s-134.483-3.668-247.49 41.91C95.716 791 52.943 876.838 132.646 856.333Z" class="colorf9a355 svgShape"/><path fill="#ffc182" d="M332.269 856.332c-94.255-24.25-130.917-74.25-214.907-82.282-16.557-15.543-13.99-10.634-13.99-10.634l.128-36.89s137.027-5.527 250.034 40.052c15.664 24.421 58.437 110.26-21.265 89.754Z" class="colorffc182 svgShape"/><path fill="#96590a" d="M365.59 766.169c-.117-1.09-11.816-109.487-23.381-158.353a2.25 2.25 0 0 0-4.38 1.036c11.501 48.591 23.17 156.71 23.286 157.796a2.25 2.25 0 1 0 4.475-.48Z" class="color96590a svgShape"/><path fill="#c9b099" d="M365.443 763.816s-7.548-8.377-14.422.512c-6.874 8.888-19.941 88.521-23.771 106.169-3.83 17.648 58.12 25.28 61.577 5.254 3.458-20.024-11.384-85.49-23.384-111.935Z" class="colorc9b099 svgShape"/><path fill="#96590a" d="M106.85 604.552a2.002 2.002 0 0 0-2.232 1.736c-4.629 37.033-4.271 156.921-4.267 158.127a2 2 0 0 0 2 1.994h.005a2 2 0 0 0 1.995-2.007c-.004-1.204-.362-120.837 4.236-157.617a1.998 1.998 0 0 0-1.736-2.233Z" class="color96590a svgShape"/><path fill="#c9b099" d="M97.237 763.816s7.548-8.377 14.422.512c6.874 8.888 19.942 88.521 23.772 106.169 3.829 17.648-58.12 25.28-61.578 5.254-3.457-20.024 11.384-85.49 23.384-111.935Z" class="colorc9b099 svgShape"/><path fill="#4c4945" d="M122.019 1058.749c8 93.333 72 104.667 119.143 93.333-82.414-13.75-119.143-93.333-119.143-93.333Zm170.511-36.216c-58.268 38.855-126.36 11.266-126.36 11.266 58.414 52.47 104.039 22.697 126.36-11.266Zm-95.511 67.049c28 26.5 133.5 44 144.5-51.5 0 0-20.5 77.5-144.5 51.5Z" class="color4c4945 svgShape"/></svg></svg>