<svg xmlns="http://www.w3.org/2000/svg" width="550" height="550"><svg xmlns="http://www.w3.org/2000/svg" width="550" height="550" data-name="Layer 1" viewBox="0 0 781.142 1702.322"><path fill="#c6c6c6" d="M761.63 1677.548a24.775 24.775 0 0 1-24.776 24.774H275.917a24.775 24.775 0 0 1-24.776-24.774 24.774 24.774 0 0 1 24.776-24.772h460.937a24.774 24.774 0 0 1 24.776 24.772Z" class="colorc6c6c6 svgShape"/><path fill="#8e453c" d="m664.166 941.565-8.918 677.546h-71.334l-35.668-602.987h-17.918l-35.666 602.987h-71.336l-8.916-677.546h249.756z" class="color8e453c svgShape"/><path d="M650.49 1619.11s58.357 1.159 58.357 43.432v14.577s-60.812 3.152-72.425-7.598c0 3.509-.247 7.598-.247 7.598h-51.962v-58.15c37.66 0 66.277.142 66.277.142zm-222.195 0s-58.358 1.159-58.358 43.432v14.577s60.813 3.152 72.426-7.598c0 3.509.246 7.598.246 7.598h51.963v-58.15c-37.658 0-66.277.142-66.277.142z" class="color000 svgShape"/><path fill="#eadbcb" d="M658.931 540.538c-25.68-9.811-86.511-12.222-86.511-12.222h-66.036s-67.582 2.677-90.353 13.876c-46.42 22.829-78.088 180.993-78.088 180.993l-71.106-162.097-45.947 42.78s73.057 278.563 119.015 275.127c43.443-3.249 68.897-114.586 68.897-114.586l-17.554 304.644s6.91 32.939 123.64 32.939h49.028c116.73 0 123.64-32.939 123.64-32.939l-12.427-160.64c-4.026-110.392 1.974-162.392 1.974-162.392.532-3 2.689-11.163 5.376-22.608 9.817 29.37 23.915 72.587 24.624 80.608 2.846 32.2 5.83 43.1-12.347 177.379-.137 1.013 65.554 17.5 65.554 17.5 14.81-113.1 17.715-112.585 20.793-201.395 1.633-47.091-48.402-231.413-122.172-256.966Z" class="coloreadbcb svgShape"/><path fill="#146199" d="m539.453 553.897.031.007.031-.007Z" class="color146199 svgShape"/><path fill="#96590a" d="M494.567 600.928a9.979 9.979 0 1 0 9.979 9.98 9.98 9.98 0 0 0-9.979-9.98zm89.9 0a9.979 9.979 0 1 0 9.979 9.98 9.98 9.98 0 0 0-9.979-9.98zm-89.9 110.39a9.979 9.979 0 1 0 9.979 9.98 9.98 9.98 0 0 0-9.979-9.98zm89.9 0a9.979 9.979 0 1 0 9.979 9.98 9.98 9.98 0 0 0-9.979-9.98zm-89.9 110.391a9.979 9.979 0 1 0 9.979 9.98 9.98 9.98 0 0 0-9.979-9.98zm89.9 0a9.979 9.979 0 1 0 9.979 9.98 9.98 9.98 0 0 0-9.979-9.98zm-89.9 110.391a9.979 9.979 0 1 0 9.979 9.98 9.98 9.98 0 0 0-9.979-9.98zm89.9 0a9.979 9.979 0 1 0 9.979 9.98 9.98 9.98 0 0 0-9.979-9.98zm-89.9 110.39a9.979 9.979 0 1 0 9.979 9.98 9.98 9.98 0 0 0-9.979-9.98zm89.9 0a9.979 9.979 0 1 0 9.979 9.98 9.98 9.98 0 0 0-9.979-9.98z" class="color96590a svgShape"/><path fill="#ffc182" d="M754.502 997.436c6.638 11.027 19.615 34.887 16.017 44.313-4.62 9.678-11.89 9.234-11.89 9.234s-.862 14.064-20.594 12.646c-8.606 8.225-13.73 14.906-24.17 9.377-4.607 9.541-15.686 16.652-19.21 10.71-3.52-5.943-4.581-28.867-3.272-55.485-21.319 28.945-35.272 12.361-35.272 12.361s6.297-13.35 19.313-30.582c9.642-12.772 15.334-24.011 19.332-28.61Z" class="colorffc182 svgShape"/><path fill="#f9a355" d="M569.488 496.723s1.676 15.487 3.16 31.593c-9.662 21.371-33.133 30.85-33.133 30.85s-23.468-9.479-33.13-30.85c1.484-16.106 3.16-31.593 3.16-31.593Z" class="colorf9a355 svgShape"/><path fill="#ffc182" d="M545.334 499.927c131.322 0 119.433-97.817 119.433-97.817s36.748 2.704 36.748-46.475-36.748-35.126-36.748-35.126V271.87s1.08-47.016-119.433-47.016h-4.325c-120.511 0-119.431 47.016-119.431 47.016v48.638s-36.748-14.053-36.748 35.126c0 49.18 36.748 46.475 36.748 46.475s-6.485 97.817 119.431 97.817Z" class="colorffc182 svgShape"/><path d="M489.797 354.53a12.428 12.428 0 0 1-12.428 12.43 12.428 12.428 0 0 1-12.43-12.43v-9.726a12.428 12.428 0 0 1 12.43-12.428 12.427 12.427 0 0 1 12.428 12.428zm-36.23-49.615s18.665-9.16 41.726 2.672c6.617 3.67 10.287-2.947 4.41-6.735-3.393-2.188-23.606-11.88-47.77.089-2.162 1.821-.205 4.725 1.633 3.974z" class="color000 svgShape"/><path fill="#8e453c" d="M402.987 251.371c-9.76 41.076 6.72 67.366 6.72 67.366a32.508 32.508 0 0 1 11.89 1.843c33.062-25.67 38.27-82.466 38.27-82.466h-1.308c-30.5 6.084-55.572 13.257-55.572 13.257zm280.32-.034s-25.072-7.174-55.572-13.257h-1.309s5.21 56.794 38.272 82.465a34.472 34.472 0 0 1 11.889-1.843s16.481-26.29 6.72-67.365z" class="color8e453c svgShape"/><path d="M589.236 354.53a12.428 12.428 0 0 0 12.428 12.43 12.428 12.428 0 0 0 12.43-12.43v-9.726a12.428 12.428 0 0 0-12.43-12.428 12.427 12.427 0 0 0-12.428 12.428zm36.23-49.615s-18.666-9.16-41.726 2.672c-6.617 3.67-10.287-2.947-4.41-6.735 3.392-2.188 23.605-11.88 47.77.089 2.161 1.821.204 4.725-1.634 3.974z" class="color000 svgShape"/><path fill="#f9a355" d="M419.002 378.229v-34.603s-20.4-8.752-20.4 12.127c0 18.471 15.314 22.476 20.4 22.476zm241.222 0v-34.603s20.4-8.752 20.4 12.127c0 18.471-15.312 22.476-20.4 22.476z" class="colorf9a355 svgShape"/><path fill="#8e453c" d="M581.394 397.078H501.36s-3.826 47.495 40.018 47.495c43.847 0 40.017-47.495 40.017-47.495Z" class="color8e453c svgShape"/><path fill="#fff" d="M581.394 397.078s.793 11.905-6.097 11.905H506.9c-6.809 0-5.541-11.905-5.541-11.905Z" class="colorfff svgShape"/><path fill="#f95c57" d="M521.283 440.125s7.133 4.448 20.644 4.448c13.51 0 19.545-4.447 19.545-4.447s-5.242-11.823-20.095-11.823-20.094 11.822-20.094 11.822Z" class="colorf95c57 svgShape"/><path fill="#96590a" d="M682.988 718.633c-.256-.728-25.735-73.223-35.322-112.57a2 2 0 1 0-3.887.947c9.635 39.54 35.179 112.222 35.436 112.951a2 2 0 0 0 3.773-1.328zm-269.686-114.08a2.002 2.002 0 0 0-2.232 1.735c-4.629 37.033-4.271 156.921-4.268 158.127a2 2 0 0 0 2 1.994h.006a2 2 0 0 0 1.994-2.007c-.003-1.204-.36-120.837 4.237-157.617a1.998 1.998 0 0 0-1.737-2.233z" class="color96590a svgShape"/><path fill="#eaddcd" d="M675.664 121.606s-40.324-16-130.662-16h-3.659c-90.337 0-130.662 16-130.662 16s-7.694 56-7.694 129.766c26.306-5.735 90.694-13.258 138.356-13.258h3.659c47.662 0 112.05 7.523 138.356 13.258 0-73.766-7.694-129.766-7.694-129.766Z" class="coloreaddcd svgShape"/><path fill="#dbc3a9" d="M408.108 144.658c11.798-1.257 25.108-6.219 38.849-15.31 25.209 45.258 96.216 37.744 96.216 37.744s74.508 7.514 96.215-37.744c13.742 9.092 27.053 14.054 38.852 15.31l-2.576-23.052s-32.983-23.5-134.983-23.5-130 23.5-130 23.5Z" class="colordbc3a9 svgShape"/><path fill="#eaddcd" d="M543.173 151.592s74.508 7.514 96.215-37.744c46.041 30.463 87.256 14.555 82.918-31.722-4.339-46.276-50.013-55.677-87.914-40.492C616.736 16.326 585.302 0 543.172 0s-73.563 16.326-91.22 41.634c-37.9-15.185-83.574-5.784-87.913 40.492-4.338 46.277 36.877 62.185 82.918 31.722 25.209 45.258 96.216 37.744 96.216 37.744Z" class="coloreaddcd svgShape"/><path fill="#96590a" d="M539.453 561.207s2.406-30.7-31.46-49.284c0 0 .53-3.866.53-5.263-14.803 0-12.137 22.191-12.137 22.191s12.706 25.994 43.067 32.356Z" class="color96590a svgShape"/><path fill="#96590a" d="M539.553 561.207s-2.406-30.7 31.46-49.284c0 0-.53-3.866-.53-5.263 14.803 0 12.137 22.191 12.137 22.191s-12.706 25.994-43.067 32.356Z" class="color96590a svgShape"/><path fill="#96590a" d="m456.383 1098.29-4.985-.4c7.532-93.94 19.75-501.982 19.872-506.093l.046-1.526 76.88-36.639 2.151 4.514-74.125 35.326c-.83 27.594-12.532 413.671-19.84 504.818Z" class="color96590a svgShape"/><path fill="#ffc182" d="m263.529 564.765-35.61 33.285s-9.345-6.342-28.174-17.356c-38.723-22.65-97.904-24.476-97.904-24.476-18.5-3-15.64-9.583-15.14-16.083h152.5Z" class="colorffc182 svgShape"/><path fill="#a09f9f" d="M337.333 524.94H.515s-7.334 15.195 33.333 15.195H304c40.667 0 33.333-15.196 33.333-15.196Z" class="colora09f9f svgShape"/><path fill="#a2a3a8" d="M171.388 348.928c-12.588 0-22.793 4.965-22.793 11.09 0 5.236 7.465 9.622 17.5 10.784v17.47h10.587v-17.47c10.034-1.162 17.5-5.548 17.5-10.784 0-6.125-10.206-11.09-22.794-11.09Z" class="colora2a3a8 svgShape"/><path fill="#c6c6c6" d="m318.472 524.715-293.943.448a146.972 146.972 0 1 1 293.943-.448Z" class="colorc6c6c6 svgShape"/><path fill="#e8e7e6" d="M151.181 384.606s-107.5 12-121 133.969h67.5s1.5-82.933 53.5-133.97Z" class="colore8e7e6 svgShape"/><path fill="#f4eee9" d="M632.998 50.92S606.165 7.753 543.173 7.753 453.347 50.92 453.347 50.92s-53.334-22.5-79.334 12.833c34.667-12.333 83.167 8.334 83.167 8.334s27-42 85.993-42 85.992 42 85.992 42 48.5-20.667 83.167-8.334c-26-35.333-79.334-12.833-79.334-12.833Z" class="colorf4eee9 svgShape"/></svg></svg>