<svg xmlns="http://www.w3.org/2000/svg" width="550" height="550"><svg xmlns="http://www.w3.org/2000/svg" width="550" height="550" data-name="Layer 1" viewBox="0 0 732.665 1702.322"><path fill="#c6c6c6" d="m525.988 106.946-65.221 11.94c-7.832 1.435-13.073 8.64-11.708 16.096l23.807 94.017c1.364 7.457 8.819 12.339 16.65 10.906l51.75-9.475c7.83-1.434 13.074-8.642 11.709-16.096l-10.338-96.484c-1.366-7.455-8.82-12.337-16.65-10.904Zm-29.925 105.62a4.55 4.55 0 1 1-8.95 1.638l-13.11-71.602a4.55 4.55 0 0 1 8.951-1.639Zm19.528-3.575a4.55 4.55 0 1 1-8.95 1.639l-13.11-71.603a4.55 4.55 0 1 1 8.951-1.639Zm19.527-3.575a4.55 4.55 0 0 1-8.95 1.639l-13.11-71.603a4.55 4.55 0 1 1 8.952-1.639Z" class="colorc6c6c6 svgShape"/><path fill="#717275" d="M522.522 113.642 466.38 123.92a12.409 12.409 0 0 0-9.972 14.44l21.245 85.04a12.407 12.407 0 0 0 14.44 9.97l44.548-8.156a12.407 12.407 0 0 0 9.97-14.439l-9.65-87.161a12.409 12.409 0 0 0-14.44-9.972Zm-26.46 98.924a4.55 4.55 0 1 1-8.95 1.638l-13.109-71.602a4.55 4.55 0 0 1 8.951-1.639Zm19.529-3.575a4.55 4.55 0 1 1-8.95 1.639l-13.11-71.603a4.55 4.55 0 1 1 8.951-1.639Zm19.527-3.575a4.55 4.55 0 0 1-8.95 1.639l-13.11-71.603a4.55 4.55 0 1 1 8.952-1.639Z" class="color717275 svgShape"/><path fill="#a09f9f" d="m519.445 234.425-3.7.677-26.23 4.803s19.954-.045 22.785 15.415l41.646 227.483 8.746-1.603.037-.006 8.746-1.6L529.83 252.11c-2.83-15.46 15.844-22.487 15.844-22.487Z" class="colora09f9f svgShape"/><path d="M582.261 480.722c-1.978-6.988-8.743-11.004-12.468-10.321l-8.735 1.598-.062.012-8.012 1.468c-3.726.681-9.351 6.964-8.725 14.202.624 7.237 25.214 135.068 25.214 135.068s2.658 11.833 21.783 8.333 16.219-15.29 16.219-15.29-23.235-128.08-25.214-135.07Z" class="color000 svgShape"/><path fill="#c6c6c6" d="M22.166 1677.548a24.775 24.775 0 0 0 24.775 24.774H597.41a24.775 24.775 0 0 0 24.775-24.774 24.774 24.774 0 0 0-24.775-24.772H46.941a24.774 24.774 0 0 0-24.775 24.772Z" class="colorc6c6c6 svgShape"/><path fill="#8e453c" d="m119.63 941.565 8.918 677.546h71.334l35.668-602.987h17.918l35.666 602.987h71.335l8.917-677.546H119.63z" class="color8e453c svgShape"/><path d="M133.305 1619.11s-58.357 1.159-58.357 43.432v14.577s60.813 3.152 72.426-7.598c0 3.509.246 7.598.246 7.598h51.963v-58.15c-37.66 0-66.278.142-66.278.142Zm222.195 0s58.358 1.159 58.358 43.432v14.577s-60.812 3.152-72.426-7.598c0 3.509-.246 7.598-.246 7.598h-51.963v-58.15c37.659 0 66.278.142 66.278.142Z" class="color000 svgShape"/><path fill="#eadbcb" d="M124.864 540.538c25.68-9.811 86.512-12.222 86.512-12.222h66.035s67.582 2.677 90.353 13.876c46.42 22.829 78.088 180.993 78.088 180.993l71.107-162.097 44.792 47.108s-71.903 274.235-117.86 270.799c-43.444-3.249-68.898-114.586-68.898-114.586l-2.122 309.228s12.766 28.355-103.964 28.355H219.88c-116.73 0-111.564-28.355-111.564-28.355l.34-159.773c.666-85.283-4.252-177.301-7.34-190.451-21.06 105.669-8.56 95.169 174.737 132.55 1.001.203.703 76.619.703 76.619-234.5-21-279.924-63.643-276.59-140.976 3.618-83.922 50.928-225.514 124.698-251.067Z" class="coloreadbcb svgShape"/><path fill="#146199" d="m244.343 553.897-.032.007-.031-.007Z" class="color146199 svgShape"/><path fill="#96590a" d="M289.228 600.928a9.979 9.979 0 1 1-9.978 9.98 9.98 9.98 0 0 1 9.978-9.98Zm-89.9 0a9.979 9.979 0 1 1-9.979 9.98 9.98 9.98 0 0 1 9.979-9.98Z" class="color96590a svgShape"/><path fill="#f9a355" d="M214.307 496.723s-1.675 15.487-3.16 31.593c9.662 21.371 33.133 30.85 33.133 30.85s23.469-9.479 33.13-30.85a2254.065 2254.065 0 0 0-3.16-31.593Z" class="colorf9a355 svgShape"/><path fill="#ffc182" d="M238.462 499.927c-131.323 0-119.434-97.817-119.434-97.817s-36.748 2.704-36.748-46.475 36.748-35.126 36.748-35.126V271.87s-1.08-47.016 119.434-47.016h4.324c120.512 0 119.432 47.016 119.432 47.016v48.638s36.748-14.053 36.748 35.126c0 49.18-36.748 46.475-36.748 46.475s6.484 97.817-119.432 97.817Z" class="colorffc182 svgShape"/><path d="M293.999 354.53a12.428 12.428 0 0 0 12.428 12.43 12.428 12.428 0 0 0 12.43-12.43v-9.726a12.428 12.428 0 0 0-12.43-12.428 12.427 12.427 0 0 0-12.428 12.428Zm36.231-49.616s-18.667-9.16-41.727 2.673c-6.617 3.67-10.287-2.947-4.41-6.735 3.392-2.188 23.605-11.88 47.769.089 2.162 1.821.205 4.725-1.633 3.974Z" class="color000 svgShape"/><path fill="#8e453c" d="M380.808 251.371c9.761 41.076-6.72 67.366-6.72 67.366a32.509 32.509 0 0 0-11.89 1.843c-33.062-25.67-38.27-82.466-38.27-82.466h1.308c30.5 6.084 55.572 13.257 55.572 13.257Zm-280.32-.034s25.072-7.174 55.572-13.257h1.309s-5.209 56.794-38.272 82.465a34.472 34.472 0 0 0-11.888-1.843s-16.482-26.29-6.721-67.365Z" class="color8e453c svgShape"/><path d="M194.56 354.53a12.428 12.428 0 0 1-12.428 12.43 12.428 12.428 0 0 1-12.43-12.43v-9.726a12.428 12.428 0 0 1 12.43-12.428 12.427 12.427 0 0 1 12.427 12.428Zm-36.231-49.616s18.666-9.16 41.726 2.673c6.618 3.67 10.288-2.947 4.41-6.735-3.392-2.188-23.605-11.88-47.769.089-2.162 1.821-.205 4.725 1.633 3.974Z" class="color000 svgShape"/><path fill="#f9a355" d="M364.794 378.229v-34.603s20.4-8.752 20.4 12.127c0 18.471-15.314 22.476-20.4 22.476Zm-241.223 0v-34.603s-20.4-8.752-20.4 12.127c0 18.471 15.312 22.476 20.4 22.476Z" class="colorf9a355 svgShape"/><path fill="#96590a" d="M100.807 718.633c.256-.728 25.736-73.223 35.323-112.57a2 2 0 1 1 3.886.947c-9.634 39.54-35.178 112.222-35.435 112.951a2 2 0 0 1-3.774-1.328Zm269.686-114.081a2.002 2.002 0 0 1 2.232 1.736c4.63 37.033 4.272 156.921 4.268 158.127a2 2 0 0 1-2 1.994h-.006a2 2 0 0 1-1.994-2.007c.004-1.204.361-120.837-4.236-157.617a1.998 1.998 0 0 1 1.736-2.233Z" class="color96590a svgShape"/><path fill="#eaddcd" d="M108.132 121.606s40.324-16 130.662-16h3.658c90.338 0 130.662 16 130.662 16s7.694 56 7.694 129.766c-26.305-5.735-90.694-13.258-138.356-13.258h-3.658c-47.662 0-112.051 7.523-138.357 13.258 0-73.766 7.695-129.766 7.695-129.766Z" class="coloreaddcd svgShape"/><path fill="#dbc3a9" d="M375.687 144.658c-11.798-1.257-25.108-6.219-38.848-15.31-25.21 45.258-96.216 37.744-96.216 37.744s-74.509 7.514-96.216-37.744c-13.741 9.092-27.053 14.054-38.852 15.31l2.577-23.052s32.982-23.5 134.982-23.5 130 23.5 130 23.5Z" class="colordbc3a9 svgShape"/><path fill="#eaddcd" d="M240.623 151.592s-74.509 7.514-96.216-37.744c-46.041 30.463-87.256 14.555-82.918-31.722 4.339-46.276 50.014-55.677 87.914-40.492C167.06 16.326 198.494 0 240.623 0s73.563 16.326 91.22 41.634c37.9-15.185 83.575-5.784 87.914 40.492 4.337 46.277-36.877 62.185-82.918 31.722-25.21 45.258-96.216 37.744-96.216 37.744Z" class="coloreaddcd svgShape"/><path fill="#96590a" d="M244.343 561.207s-2.407-30.7 31.459-49.284c0 0-.53-3.866-.53-5.263 14.803 0 12.137 22.191 12.137 22.191s-12.706 25.994-43.066 32.356Z" class="color96590a svgShape"/><path fill="#96590a" d="M244.242 561.207s2.406-30.7-31.459-49.284c0 0 .53-3.866.53-5.263-14.803 0-12.137 22.191-12.137 22.191s12.706 25.994 43.066 32.356Z" class="color96590a svgShape"/><path fill="#96590a" d="m235.384 554.083 76.605 36.508.036 1.221c.123 4.11 12.341 412.166 19.873 506.119l-3.986.319c-7.336-91.491-19.1-480.217-19.849-505.098l-74.4-35.457Z" class="color96590a svgShape"/><path fill="#f4eee9" d="M150.798 48.102S177.63 4.936 240.623 4.936s89.825 43.166 89.825 43.166 53.334-22.5 79.334 12.834c-34.667-12.334-83.167 8.333-83.167 8.333s-27-42-85.992-42-85.992 42-85.992 42-48.5-20.667-83.167-8.334c26-35.333 79.334-12.833 79.334-12.833Z" class="colorf4eee9 svgShape"/><path fill="#ffc182" d="M546.847 504.032s-27.37 3.291-27.391 31.042c-.016 20.801-.85 21.16-2.887 26.903l42.7 43.46c2.776.077 4.962-1.659 8.737-1.522 13.706.5 33.17-1.138 40.75-4.166 6.156-8.783-.838-17.06-.838-17.06s11.82-7.67.879-24.154c6.036-5.43 6.221-19.283-3.727-25.655 6.041-8.705 4.096-22.024-6.117-21.63-17.171.661-39.212 5.673-48.992 10.742Z" class="colorffc182 svgShape"/><path fill="#ce7d3a" d="M547.858 543.04a7.454 7.454 0 0 1-3.42-2.077c-2.91-3.067-4.14-6.249-3.65-9.454.915-5.993 7.531-9.746 7.812-9.904a1 1 0 0 1 .975 1.747c-.06.034-6.041 3.422-6.81 8.459-.391 2.563.66 5.18 3.123 7.775 3.03 3.192 8.634 1.798 18.812-.735a230.729 230.729 0 0 1 40.291-6.968 1 1 0 1 1 .158 1.994 229.019 229.019 0 0 0-39.967 6.915c-5.622 1.4-9.93 2.463-13.323 2.623-.006.002-.01.006-.017.007-4.501.802-6.93 6.2-6.373 10.737.232 1.889 1.65 8.02 9.869 7.45 15.818-1.236 53.01-4.043 53.383-4.07a1 1 0 1 1 .15 1.993c-.372.028-37.36 2.82-53.256 4.061-4.37 1.296-4.687 5.307-4.481 7.593.494 5.519 4.645 11.301 8.381 11.675 7.342.734 47.947-1.152 48.356-1.172a1 1 0 0 1 .094 1.999c-1.395.064-28.902 1.342-42.453 1.342-2.358 0-4.29-.039-5.591-.13-.67 1.137-1.853 7.296.085 12.307 3.625 9.375 24.722 4.577 27.088 4.401a1 1 0 0 1 .142 1.996 4.58 4.58 0 0 1-.275.006c-3.068 0-25.21 6.472-29.08-6.278-1.62-5.336-.906-10.955-.013-12.814-4.54-1.525-8.246-7.777-8.727-13.153-.306-3.42.638-6.165 2.649-7.94a9.948 9.948 0 0 1-8.306-9.023c-.507-4.132 1.045-8.877 4.374-11.362Z" class="colorce7d3a svgShape"/><path fill="#66635f" d="M375.542 823.76c-14.244-73.294-33.446-181.483-34.706-186.722.345-12.416 2.267-85.133.445-103.016-5.062-5.587-15.553-1.886-15.553-1.886l-.496 104.688h-167.43v-104.65s-10.474-3.75-15.562 1.812c-1.897 17.789-.344 89.904-.046 102.839-.006.018-30.09 110.62-35.065 196.955-4.976 86.343-2.444 242.977-2.444 242.977s9.633 191.667 5.633 300.667c122 31 268 0 268 0s-2.321-115.269 1.333-304.667c0 0-2.05-144.836-4.11-248.998Z" class="color66635f svgShape"/><path fill="#4c4945" d="M134.318 1058.09c8 93.334 72 104.667 119.143 93.334-82.414-13.75-119.143-93.333-119.143-93.333Zm170.51-36.215c-58.267 38.855-126.359 11.266-126.359 11.266 58.414 52.47 104.04 22.697 126.36-11.267Zm-95.51 67.049c28 26.5 133.5 44 144.5-51.5 0 0-20.5 77.5-144.5 51.5Z" class="color4c4945 svgShape"/><path fill="#eadbcb" d="M107.177 811.682c.482.403 51.564 37.503 167.553 50.508l1.74.196v71.446l-2.114-.168c-.89-.071-95.543-8.565-172.68-29.31Z" class="coloreadbcb svgShape"/><path fill="#96590a" d="M317.439 857.878h115.137v29.669H317.439z" class="color96590a svgShape"/><path fill="#ffc182" d="M275.788 927.85c8.983 9.217 28.773 27.818 38.805 26.729 10.533-2.017 11.946-9.162 11.946-9.162s13.823 2.732 17.454-16.715c10.138-6.24 17.9-9.502 15.198-21.003 10.398-2.038 20.083-10.951 15.229-15.867-4.856-4.913-26.762-11.75-52.842-17.232 33.404-13.284 20.9-30.985 20.9-30.985s-14.511 2.706-34.48 10.928c-14.8 6.09-27.114 8.746-32.576 11.447Z" class="colorffc182 svgShape"/><path fill="#66635f" d="M429.416 854.178h-31.757v25.375c0 7.994 4.666 13.5 13.5 13.5h23.454s-5.197-20.584-5.197-38.875Z" class="color66635f svgShape"/><path fill="#fff" d="M273.422 930.374v-65.036c-61.49-7.078-104.051-21.58-129.006-32.553-27.42-12.057-36.723-20.671-37.239-21.103l-.109-3.163c.492.413 50.14 39.768 168.576 53.047l1.778.2v72.953l-2.16-.172c-.908-.073-91.812-4.288-170.577-25.471l.07-3.783c71.654 19.272 154.444 23.819 168.667 25.08Z" class="colorfff svgShape"/><path fill="#4c4945" d="m732.665 849.351-303.248-.727c.025 73.106.027 77.78 151.42 77.846 151.854.066 151.853-4.608 151.828-77.119Z" class="color4c4945 svgShape"/><path fill="#8e453c" d="M278.317 407.88a2.434 2.434 0 0 0-3.275 1.05c-.052.104-5.871 10.176-28.81 10.176h-4.318c-22.991 0-28.769-10.1-28.81-10.176a2.432 2.432 0 1 0-4.327 2.225c.269.523 6.889 12.814 33.137 12.814h4.317c26.248 0 32.868-12.29 33.137-12.814a2.433 2.433 0 0 0-1.05-3.276Z" class="color8e453c svgShape"/><path fill="#ff6d00" d="M457.55 848.624c.635-2.563-1.273-19.117 27.99-40.105s35.626-54.704 35.626-54.704 22.494 23.538 19.517 43.896c26.924-10.179 40.358-71.396 40.358-71.396s44.458 33.226 49.547 69.488c15.268-24.811 15.268-40.08 15.268-40.08s16.54 44.483 40.715 55.96 27.36 37.624 27.36 37.624Z" class="colorff6d00 svgShape"/><path fill="red" d="M486.623 848.624s7.815-15.206 27.351-30.4c3.473 10.853 18.668 18.233 18.668 18.233s50.36-16.064 57.307-42.546c18.234 21.273 34.297 49.704 34.297 49.704s19.537-10.62 23.01-22.347c7.814 8.677 26.916 19.181 28.652 28.039-36.033 0-189.285-.683-189.285-.683Z" class="colorred svgShape"/><path fill="#a09f9f" d="M726.003 856.056h-50.75s.23 44.548-17.911 60.853c55.572 0 70.382-8.325 68.661-60.853Z" class="colora09f9f svgShape"/></svg></svg>