<svg xmlns="http://www.w3.org/2000/svg" width="550" height="550"><svg xmlns="http://www.w3.org/2000/svg" width="550" height="550" data-name="Layer 1" viewBox="0 0 1299.399 1702.321"><path fill="#ff6d00" d="M738.745 1008.384s6.92-8.862 7.254-16.479c-4.334 2-8.334 8.812-20.334 8.238-1-12.238 0-15.058 0-15.058l-26.333.041a135.565 135.565 0 0 0-12 16.78c-11-8-12.667-11.669-12.667-11.669l-7.333 13s-7-8.637-7.667-18.152h-21.666s-9.334 14.152-12 19.82c-7.667-10-7.334-14-7.334-14l-4.666 12.332s-17.334-3-23.334-12a24.942 24.942 0 0 0 9 17.147Z" class="colorff6d00 svgShape"/><path fill="#4c4945" d="M535.803 827.098a8.46 8.46 0 0 0 8.498 8.423l259.374-1.162a8.46 8.46 0 0 0 8.421-8.498 8.459 8.459 0 0 0-8.498-8.423L544.225 818.6a8.46 8.46 0 0 0-8.422 8.498Z" class="color4c4945 svgShape"/><path fill="#a09f9f" d="M797.894 834.385s-6.165 108.157-7.385 125.704-10.937 24.088-25.229 24.152l-85.108.382-11.331.05-85.108.382c-14.293.063-24.068-6.39-25.446-23.926-1.377-17.535-8.206-125.633-8.206-125.633Z" class="colora09f9f svgShape"/><path fill="#e8e7e6" d="M789.988 834.42s-6.454 116.188-7.71 125.74c-1.257 9.552-6.42 17.212-18.44 17.265l-37.03.166a21.79 21.79 0 0 0 18.11-17.9c3.176-16.243 7.387-125.102 7.387-125.102Z" class="colore8e7e6 svgShape"/><path fill="#c6c6c6" d="M16.305 1677.549a24.775 24.775 0 0 0 24.775 24.772h1233.544a24.775 24.775 0 0 0 24.775-24.772 24.774 24.774 0 0 0-24.775-24.774H41.08a24.774 24.774 0 0 0-24.775 24.774Z" class="colorc6c6c6 svgShape"/><path fill="#66635f" d="M477.329 1643.238h786.262V1067.25a40 40 0 0 0-40-40H517.329a40 40 0 0 0-40 40Z" class="color66635f svgShape"/><path fill="#a09f9f" d="M519.587 1008.384h701.746v19.575H519.587zM477.329 1116.513h786.262v463.835H477.329z" class="colora09f9f svgShape"/><path fill="#191919" d="M506.673 1148.237h727.574v401.24H506.673z" class="color191919 svgShape"/><path fill="#fff" d="M804.917 1526.24a3.5 3.5 0 0 1-2.475-5.975l353.002-353.002a3.5 3.5 0 0 1 4.95 4.95L807.39 1525.215a3.489 3.489 0 0 1-2.474 1.025zm137.25 0a3.5 3.5 0 0 1-2.474-5.975l274.503-274.502a3.5 3.5 0 0 1 4.95 4.95l-274.504 274.503a3.492 3.492 0 0 1-2.474 1.024zm-416.182-119.19a3.5 3.5 0 0 1-2.474-5.975l233.5-233.5a3.5 3.5 0 0 1 4.949 4.95l-233.5 233.5a3.492 3.492 0 0 1-2.475 1.025zm643.152 122.406a3.5 3.5 0 0 1-2.474-5.975l47.533-47.53a3.5 3.5 0 0 1 4.95 4.95l-47.534 47.53a3.492 3.492 0 0 1-2.475 1.025z" class="colorfff svgShape"/><path d="m763.396 983.147-179.007-.062c-38.828.118-42.971 24.816-43.008 25.065l3.955.592c.032-.216 3.634-21.55 39.058-21.657l179.001.062c35.233 0 38.99 20.668 39.13 21.538l3.955-.603c-.038-.249-4.258-24.935-43.084-24.935zm388.402 0-179.007-.062c-38.828.118-42.972 24.816-43.009 25.065l3.955.592c.032-.216 3.634-21.55 39.059-21.657l179 .062c35.234 0 38.99 20.668 39.13 21.538l3.956-.603c-.038-.249-4.257-24.935-43.084-24.935z" class="color000 svgShape"/><path fill="red" d="M730.373 1008.446s5.335-1.438 7.21-5.379c-8.819 3.565-23.827 3.096-23.827 3.096v-16.229s-12.946 17.637-24.577 17.261c-9.194-3.565-12.947-7.598-12.947-7.598l-8.63 8.787h-9.569l-8.442-17.512-13.134 17.512h-13.321l-4.127-5.88-2.44 5.88s-12.195-2.877-15.385-5.692a28.198 28.198 0 0 0 4.692 5.692Z" class="colorred svgShape"/><circle cx="1062.332" cy="1073.821" r="30.667" fill="#e8e7e6" class="colore8e7e6 svgShape"/><path fill="#66635f" d="M1063.249 1043.166h.013a75.684 75.684 0 0 1 6.737 30.643 68.576 68.576 0 0 1-7.667 30.667h-.014a75.694 75.694 0 0 1-6.735-30.643 68.583 68.583 0 0 1 7.666-30.667Z" class="color66635f svgShape"/><path fill="#e8e7e6" d="M638.718 1073.821a30.667 30.667 0 1 0 30.666-30.667 30.666 30.666 0 0 0-30.666 30.667Z" class="colore8e7e6 svgShape"/><path fill="#66635f" d="M670.302 1043.166h.013a75.694 75.694 0 0 1 6.736 30.643 68.576 68.576 0 0 1-7.667 30.667h-.014a75.693 75.693 0 0 1-6.735-30.643 68.577 68.577 0 0 1 7.667-30.667Z" class="color66635f svgShape"/><path fill="#191919" d="M764.673 1073.821a30.656 30.656 0 0 0 30.655 30.655h130.69a30.656 30.656 0 0 0 30.655-30.655 30.656 30.656 0 0 0-30.656-30.655h-130.69a30.656 30.656 0 0 0-30.654 30.655zm408.637 569.417v14.24a19.185 19.185 0 0 0 19.185 19.186h22.566a19.186 19.186 0 0 0 19.186-19.186v-14.24zm-659.967 0v14.24a19.186 19.186 0 0 0 19.185 19.186h22.567a19.185 19.185 0 0 0 19.184-19.186v-14.24z" class="color191919 svgShape"/><path fill="#8e453c" d="m119.552 941.565 8.918 677.546h71.334l35.667-602.987h17.918l35.666 602.987h71.336l8.916-677.546H119.552z" class="color8e453c svgShape"/><path d="M133.227 1619.111s-58.357 1.158-58.357 43.432v14.576s60.812 3.152 72.426-7.598c0 3.508.246 7.598.246 7.598h51.963v-58.15c-37.66 0-66.278.142-66.278.142zm222.196 0s58.357 1.158 58.357 43.432v14.576s-60.812 3.152-72.426-7.598c0 3.508-.246 7.598-.246 7.598h-51.963v-58.15c37.659 0 66.278.142 66.278.142z" class="color000 svgShape"/><path fill="#eadbcb" d="M124.786 540.538c25.68-9.81 86.512-12.223 86.512-12.223h66.035s67.582 2.678 90.353 13.877c46.42 22.828 110.058 197.642 110.058 197.642l86.53-192.497 38.193 60s-51.82 244.678-114.188 256.548c-56.673 10.786-113.364-99.476-113.364-99.476l9.93 317.26s.714 20.322-116.016 20.322h-49.027c-116.731 0-111.5-32.654-111.5-32.654l.287-160.924c4.025-110.393-1.975-162.393-1.975-162.393-.532-2.998-2.688-11.162-5.376-22.607-11.15 54.193-35.816 98.297 174.736 132.549 1.01.164 2.717 67.797 2.717 67.797C88.537 906.045-3.246 868.939.088 791.606c3.618-83.922 50.928-225.513 124.698-251.068Z" class="coloreadbcb svgShape"/><path fill="#146199" d="m244.264 553.897-.03.006-.032-.006Z" class="color146199 svgShape"/><path fill="#96590a" d="M289.15 600.929a9.979 9.979 0 1 1-9.978 9.978 9.98 9.98 0 0 1 9.978-9.978zm-89.9 0a9.979 9.979 0 1 1-9.979 9.978 9.98 9.98 0 0 1 9.979-9.978zm89.9 110.39a9.979 9.979 0 1 1-9.978 9.979 9.98 9.98 0 0 1 9.978-9.979zm-89.9 0a9.979 9.979 0 1 1-9.979 9.979 9.98 9.98 0 0 1 9.979-9.979zm89.9 110.39a9.979 9.979 0 1 1-9.978 9.98 9.98 9.98 0 0 1 9.978-9.98zm-89.9 0a9.979 9.979 0 1 1-9.979 9.98 9.98 9.98 0 0 1 9.979-9.98zm89.9 110.392a9.979 9.979 0 1 1-9.978 9.978 9.98 9.98 0 0 1 9.978-9.978zm-89.9 0a9.979 9.979 0 1 1-9.979 9.978 9.98 9.98 0 0 1 9.979-9.978zm89.9 110.39a9.979 9.979 0 1 1-9.978 9.979 9.98 9.98 0 0 1 9.978-9.979zm-89.9 0a9.979 9.979 0 1 1-9.979 9.979 9.98 9.98 0 0 1 9.979-9.979z" class="color96590a svgShape"/><path fill="#f9a355" d="M214.23 496.724s-1.676 15.486-3.16 31.591c9.661 21.371 33.132 30.85 33.132 30.85s23.469-9.479 33.13-30.85c-1.484-16.105-3.16-31.591-3.16-31.591Z" class="colorf9a355 svgShape"/><path fill="#ffc182" d="M238.384 499.927c-131.323 0-119.434-97.817-119.434-97.817s-36.748 2.704-36.748-46.475 36.748-35.126 36.748-35.126V271.87s-1.08-47.016 119.434-47.016h4.324c120.512 0 119.431 47.016 119.431 47.016v48.638s36.748-14.053 36.748 35.126c0 49.18-36.748 46.475-36.748 46.475s6.485 97.817-119.431 97.817Z" class="colorffc182 svgShape"/><path d="M293.92 354.53a12.429 12.429 0 0 0 12.428 12.43 12.429 12.429 0 0 0 12.43-12.43v-9.726a12.427 12.427 0 0 0-12.43-12.428 12.427 12.427 0 0 0-12.427 12.428zm36.231-49.615s-18.666-9.16-41.726 2.672c-6.618 3.67-10.288-2.947-4.41-6.734 3.392-2.188 23.605-11.881 47.769.087 2.162 1.823.205 4.725-1.633 3.975z" class="color000 svgShape"/><path fill="#8e453c" d="M380.73 251.372s-25.072-7.174-55.572-13.258h-1.309s5.21 56.795 38.272 82.465a32.509 32.509 0 0 1 11.888-1.842s16.482-26.29 6.721-67.365zm-280.32-.035c-9.76 41.076 6.72 67.365 6.72 67.365a34.458 34.458 0 0 1 11.89 1.843c33.062-25.671 38.27-82.466 38.27-82.466h-1.308c-30.5 6.084-55.572 13.258-55.572 13.258z" class="color8e453c svgShape"/><path d="M194.481 354.53a12.429 12.429 0 0 1-12.427 12.43 12.429 12.429 0 0 1-12.43-12.43v-9.726a12.427 12.427 0 0 1 12.43-12.428 12.427 12.427 0 0 1 12.427 12.428zm-36.23-49.615s18.666-9.16 41.726 2.672c6.618 3.67 10.287-2.947 4.41-6.734-3.392-2.188-23.605-11.881-47.77.087-2.161 1.823-.204 4.725 1.634 3.975z" class="color000 svgShape"/><path fill="#f9a355" d="M364.716 378.23v-34.604s20.4-8.752 20.4 12.127c0 18.47-15.314 22.476-20.4 22.476zm-241.223 0v-34.604s-20.4-8.752-20.4 12.127c0 18.47 15.312 22.476 20.4 22.476z" class="colorf9a355 svgShape"/><path fill="#96590a" d="M100.73 718.634c.255-.729 25.735-73.225 35.322-112.57a2 2 0 1 1 3.886.947c-9.634 39.539-35.178 112.22-35.435 112.95a2 2 0 0 1-3.774-1.327zm269.685-114.082a2.002 2.002 0 0 1 2.232 1.736c4.63 37.033 4.272 156.922 4.268 158.127a2 2 0 0 1-2 1.994h-.006a2 2 0 0 1-1.994-2.008c.004-1.203.361-120.836-4.236-157.617a1.999 1.999 0 0 1 1.736-2.232z" class="color96590a svgShape"/><path fill="#eaddcd" d="M108.054 121.606s40.324-16 130.662-16h3.658c90.338 0 130.662 16 130.662 16s7.694 56 7.694 129.766c-26.305-5.734-90.694-13.258-138.356-13.258h-3.658c-47.662 0-112.051 7.524-138.357 13.258 0-73.766 7.695-129.766 7.695-129.766Z" class="coloreaddcd svgShape"/><path fill="#dbc3a9" d="M375.61 144.657c-11.799-1.256-25.11-6.218-38.85-15.308-25.208 45.257-96.215 37.743-96.215 37.743s-74.51 7.514-96.216-37.743c-13.741 9.091-27.053 14.052-38.852 15.308l2.577-23.05s32.982-23.5 134.982-23.5 130 23.5 130 23.5Z" class="colordbc3a9 svgShape"/><path fill="#eaddcd" d="M240.545 151.592s-74.51 7.514-96.216-37.743C98.288 144.31 57.073 128.403 61.41 82.126c4.339-46.277 50.014-55.677 87.914-40.492C166.98 16.326 198.415 0 240.545 0s73.563 16.326 91.22 41.634c37.9-15.185 83.575-5.785 87.914 40.492 4.337 46.277-36.877 62.185-82.918 31.723-25.21 45.257-96.216 37.743-96.216 37.743Z" class="coloreaddcd svgShape"/><path fill="#96590a" d="M244.264 561.208s-2.406-30.7 31.46-49.285c0 0-.53-3.866-.53-5.263 14.803 0 12.137 22.191 12.137 22.191s-12.706 25.994-43.067 32.357Z" class="color96590a svgShape"/><path fill="#96590a" d="M244.164 561.208s2.406-30.7-31.46-49.285c0 0 .53-3.866.53-5.263-14.803 0-12.137 22.191-12.137 22.191s12.707 25.994 43.067 32.357Z" class="color96590a svgShape"/><path fill="#96590a" d="M327.834 1098.25c-7.336-91.491-19.1-480.218-19.849-505.099l-74.4-35.457 1.72-3.611 76.606 36.508.036 1.22c.123 4.112 12.34 412.166 19.873 506.12Z" class="color96590a svgShape"/><path fill="#f4eee9" d="M150.72 48.102s26.833-43.166 89.825-43.166 89.825 43.166 89.825 43.166 53.334-22.5 79.334 12.834c-34.667-12.334-83.167 8.332-83.167 8.332s-27-42-85.992-42-85.992 42-85.992 42-48.5-20.665-83.167-8.332c26-35.334 79.334-12.834 79.334-12.834Z" class="colorf4eee9 svgShape"/><path fill="#c6c6c6" d="m337.716 868.686 8.251-6.611 142.303 177.597-8.251 6.611z" class="colorc6c6c6 svgShape"/><path fill="#a8a5a1" d="m550.467 989.835-70.52 56.339c28.27 35.272 49.14 29.113 68.613 13.556 19.475-15.558 30.09-34.733 1.907-69.895Z" class="colora8a5a1 svgShape"/><path fill="#e8e7e6" d="m550.477 993.444-17.458 13.99s25.438 30.949 16.203 48.228c7.393-5.925 29.471-27.01 1.255-62.218Z" class="colore8e7e6 svgShape"/><path fill="#eaeaea" d="M718.916 600.509s19.395-11.48 31.27 5.54c11.875 17.021-6.334 30.084-6.334 30.084s10.975 21.676-4.749 30.702c-23.75 13.63-36.417-7.557-36.417-7.557s-33.645 7.557-37.208-19.978c-3.632-28.073 21.375-30.875 21.375-30.875s-2.19-14.617 11.874-18.208c18.605-4.75 20.189 10.292 20.189 10.292zm8.38 159.46s-13.508 3.288-17.455-8.89c-3.95-12.18 9.144-16.615 9.144-16.615s-2.578-14.765 8.322-17.264c16.47-3.775 20.135 11.006 20.135 11.006s21.211 1.59 18.363 18.478c-2.902 17.221-18.164 14.38-18.164 14.38s-1.336 9.019-10.28 8.609c-11.835-.541-10.065-9.703-10.065-9.703z" class="coloreaeaea svgShape"/><path d="M370.642 887.123c5.243 8.59 6.438 12.746 2.535 15.813-4.63 3.64-7.713 5.409-28.18-20.632 0 0-33.022-40.866-62.95-69.519-5.625-5.382-1.023-18.446 11.816-11.827 23.643 12.191 55.458 51.24 76.78 86.165Z" class="color000 svgShape"/><path fill="#ffc182" d="M279.172 916.174c12.779 1.543 69.682-3.198 76.81-10.34 6.939-8.177 3.557-14.63 3.557-14.63s12.48-6.542 3.108-23.963c3.983-11.222 5.267-16.677-4.051-23.94 6.82-8.108 2.523-19.261-4.34-20.042-6.863-.782-22.01 4.59-45.76 16.681-5.17-5.474-6.89-6.936-11.753-12.431-1.468.655-3.949 2.993-8.158 7.982-10.323 12.232-6.12 13.599-8.679 19.127Z" class="colorffc182 svgShape"/><path fill="#96590a" d="m281.683 927.772-2.159-.172c-.908-.074-91.693-7.499-170.458-28.682l1.04-3.862c71.66 19.273 153.349 27.109 167.577 28.37v-65.034c-61.489-7.079-104.05-21.582-129.005-32.555-27.42-12.057-39.86-22.339-40.375-22.77l2.565-3.07c.494.412 50.76 41.36 169.038 54.621l1.777.2Z" class="color96590a svgShape"/><path d="M594.584 454.31c-12.806-31.301-27.809-22.891-62.452-9.899-34.645 12.993-51.477 16.52-40.543 48.523 10.934 32.002 38.324 102.192 50.965 135.898 12.64 33.709 34.905 21.089 55.713 51.733 20.807 30.645 36.291 85.377 36.291 85.377s-1.987 16.534 21.108 7.875c23.096-8.662 10.726-19.814 10.726-19.814s-24.324-51.414-28.8-88.186c-4.474-36.771 20.6-41.9 7.959-75.61-12.642-33.704-38.16-104.598-50.967-135.898Z" class="color000 svgShape"/><path fill="#ffc182" d="M640.23 531.992c.082-6.948-1.795-12.974-6.762-16.48.077-7.257-1.937-13.25-7.276-16.042-.208-11.541-6.426-21.119-21.883-20.358 4.29 11.516 5.755 15.21 5.755 15.21s-13.785 46.95-4.217 49.782c.926.274 2.059-.136 3.308-1.082-1.481 9.828-1.617 18.875 2.547 20.108.875.26 1.996-.23 3.264-1.309-.761 7.72-.255 14.072 3.184 15.09.885.26 1.99-.116 3.23-1.01-.763 7.721-.26 14.076 3.182 15.096 7.77 2.3 29.95-43 15.668-59.005Z" class="colorffc182 svgShape"/><path fill="#ce7d3a" d="m626.32 498.477-.016-.001a1 1 0 0 0-1.104.865c-4.675 36.11-16.362 42.718-16.505 42.793a1 1 0 0 0 .913 1.78c.517-.265 12.729-6.88 17.576-44.315a1.001 1.001 0 0 0-.864-1.122zm7.277 16.041a.056.056 0 0 1-.017-.001 1.002 1.002 0 0 0-1.104.865c-4.695 36.267-17.369 44.855-17.503 44.943a1 1 0 0 0 1.075 1.688c.551-.35 13.572-8.995 18.412-46.374a1 1 0 0 0-.863-1.12zm6.655 18.997a1.003 1.003 0 0 0-1.121.861c-4.649 35.906-17.364 40.074-17.55 40.13a1 1 0 0 0 .156 1.957 1.009 1.009 0 0 0 .372-.027c.574-.156 14.14-4.226 19.006-41.802a.998.998 0 0 0-.863-1.12z" class="colorce7d3a svgShape"/><path d="M651.5 785.92s-14.894 26.25.106 26.25c18.094 0-.106-26.25-.106-26.25Z" class="color000 svgShape"/><path fill="#66635f" d="M537.148 614.534s29.756-17.725 56.958-23.452c-19.5-50.912-45-119.912-45-119.912s-29.712 7.9-57.517 21.764c16.619 45.574 45.56 121.6 45.56 121.6zM381.746 968.181s17.112 102.554 1.477 382.386c-125.48 31-275.645 0-275.645 0s-12.62-224.94.12-382.386z" class="color66635f svgShape"/><path fill="#4c4945" d="M358.538 1135.234c-8.228 93.333-74.054 104.667-122.541 93.333 84.765-13.75 122.541-93.333 122.541-93.333zm-175.375-36.216c59.93 38.856 129.964 11.266 129.964 11.266-60.08 52.47-107.006 22.697-129.964-11.266zm98.236 67.05c-28.799 26.5-137.308 44-148.622-51.5 0 0 21.085 77.5 148.622 51.5z" class="color4c4945 svgShape"/><path fill="#66635f" d="M107.698 968.18s-14.767-23.734-42.434-9.4-25.667 39.667-12.667 48.667 53.491-16.99 53.491-16.99l.585-8.697s-31.742 20.354-43.41 10.687 14.69-45.357 43.845-16.679Z" class="color66635f svgShape"/><path fill="#8e453c" d="M284.186 395.539H204.15s-3.826 47.494 40.017 47.494c43.848 0 40.018-47.494 40.018-47.494Z" class="color8e453c svgShape"/><path fill="#fff" d="M284.186 395.539s.793 11.904-6.098 11.904h-68.396c-6.809 0-5.541-11.904-5.541-11.904Z" class="colorfff svgShape"/><path fill="#f95c57" d="M224.075 438.586s7.132 4.447 20.644 4.447c13.51 0 19.545-4.447 19.545-4.447s-5.242-11.822-20.096-11.822-20.093 11.822-20.093 11.822Z" class="colorf95c57 svgShape"/></svg></svg>