<svg xmlns="http://www.w3.org/2000/svg" width="550" height="550"><svg xmlns="http://www.w3.org/2000/svg" width="550" height="550" data-name="Layer 1" viewBox="0 0 673.753 1702.322"><path fill="#c6c6c6" d="M651.665 1677.548a24.775 24.775 0 0 1-24.775 24.774H76.422a24.775 24.775 0 0 1-24.776-24.774 24.774 24.774 0 0 1 24.776-24.772H626.89a24.774 24.774 0 0 1 24.775 24.772Z" class="colorc6c6c6 svgShape"/><path fill="#8e453c" d="m554.201 941.565-8.918 677.546h-71.334l-35.668-602.987h-17.918l-35.666 602.987h-71.336l-8.916-677.546h249.756z" class="color8e453c svgShape"/><path d="M540.525 1619.11s58.358 1.159 58.358 43.432v14.577s-60.813 3.152-72.426-7.598c0 3.509-.246 7.598-.246 7.598h-51.963v-58.15c37.66 0 66.277.142 66.277.142Zm-222.195 0s-58.357 1.159-58.357 43.432v14.577s60.812 3.152 72.425-7.598c0 3.509.246 7.598.246 7.598h51.963v-58.15c-37.658 0-66.277.142-66.277.142Z" class="color000 svgShape"/><path fill="#eadbcb" d="M548.967 540.538c-25.68-9.811-86.512-12.222-86.512-12.222H396.42s-67.582 2.677-90.354 13.876c-46.42 22.829-78.088 180.993-78.088 180.993l-71.106-162.097-44.792 47.108s71.902 274.235 117.86 270.799c43.444-3.249 68.898-114.586 68.898-114.586l-17.555 304.644s6.91 32.939 123.64 32.939h49.028c116.73 0 123.64-32.939 123.64-32.939l-12.427-160.64c-4.025-110.392 1.975-162.392 1.975-162.392.532-3 2.688-11.163 5.376-22.608 11.15 54.193 35.816 98.296-174.737 132.55-1.009.163-2.717 67.796-2.717 67.796C585.216 906.045 677 868.94 673.665 791.606c-3.618-83.922-50.929-225.514-124.698-251.067Z" class="coloreadbcb svgShape"/><path fill="#146199" d="m429.488 553.897.031.007.032-.007Z" class="color146199 svgShape"/><path fill="#96590a" d="M384.602 600.928a9.979 9.979 0 1 0 9.979 9.98 9.98 9.98 0 0 0-9.979-9.98Zm89.901 0a9.979 9.979 0 1 0 9.978 9.98 9.98 9.98 0 0 0-9.978-9.98Zm-89.901 110.391a9.979 9.979 0 1 0 9.979 9.979 9.98 9.98 0 0 0-9.979-9.98Zm89.901 0a9.979 9.979 0 1 0 9.978 9.979 9.98 9.98 0 0 0-9.978-9.98ZM384.602 821.71a9.979 9.979 0 1 0 9.979 9.978 9.98 9.98 0 0 0-9.979-9.979Zm89.901 0a9.979 9.979 0 1 0 9.978 9.978 9.98 9.98 0 0 0-9.978-9.979ZM384.602 932.1a9.979 9.979 0 1 0 9.979 9.98 9.98 9.98 0 0 0-9.979-9.98Zm89.901 0a9.979 9.979 0 1 0 9.978 9.98 9.98 9.98 0 0 0-9.978-9.98Zm-89.901 110.39a9.979 9.979 0 1 0 9.979 9.98 9.98 9.98 0 0 0-9.979-9.98Zm89.901 0a9.979 9.979 0 1 0 9.978 9.98 9.98 9.98 0 0 0-9.978-9.98Z" class="color96590a svgShape"/><path fill="#f9a355" d="M459.523 496.723s1.676 15.487 3.16 31.593c-9.662 21.371-33.132 30.85-33.132 30.85s-23.469-9.479-33.131-30.85c1.484-16.106 3.16-31.593 3.16-31.593Z" class="colorf9a355 svgShape"/><path fill="#ffc182" d="M435.37 499.927c131.321 0 119.433-97.817 119.433-97.817s36.748 2.704 36.748-46.475-36.748-35.126-36.748-35.126V271.87s1.08-47.016-119.434-47.016h-4.324c-120.512 0-119.432 47.016-119.432 47.016v48.638s-36.748-14.053-36.748 35.126c0 49.18 36.748 46.475 36.748 46.475s-6.484 97.817 119.432 97.817Z" class="colorffc182 svgShape"/><path d="M379.832 354.53a12.428 12.428 0 0 1-12.428 12.43 12.428 12.428 0 0 1-12.43-12.43v-9.726a12.428 12.428 0 0 1 12.43-12.428 12.427 12.427 0 0 1 12.428 12.428Zm-36.231-49.616s18.666-9.16 41.727 2.673c6.617 3.67 10.287-2.947 4.41-6.735-3.392-2.188-23.605-11.88-47.77.089-2.161 1.821-.204 4.725 1.633 3.974Z" class="color000 svgShape"/><path fill="#8e453c" d="M293.022 251.371c-9.76 41.076 6.721 67.366 6.721 67.366a32.509 32.509 0 0 1 11.889 1.843c33.062-25.67 38.271-82.466 38.271-82.466h-1.308c-30.5 6.084-55.573 13.257-55.573 13.257Zm280.321-.034s-25.073-7.174-55.573-13.257h-1.308s5.209 56.794 38.271 82.465a34.471 34.471 0 0 1 11.889-1.843s16.481-26.29 6.72-67.365Z" class="color8e453c svgShape"/><path d="M479.271 354.53a12.428 12.428 0 0 0 12.428 12.43 12.428 12.428 0 0 0 12.43-12.43v-9.726a12.428 12.428 0 0 0-12.43-12.428 12.427 12.427 0 0 0-12.428 12.428Zm36.231-49.616s-18.666-9.16-41.727 2.673c-6.617 3.67-10.287-2.947-4.41-6.735 3.393-2.188 23.606-11.88 47.77.089 2.162 1.821.205 4.725-1.633 3.974Z" class="color000 svgShape"/><path fill="#f9a355" d="M309.037 378.229v-34.603s-20.4-8.752-20.4 12.127c0 18.471 15.314 22.476 20.4 22.476Zm241.223 0v-34.603s20.4-8.752 20.4 12.127c0 18.471-15.312 22.476-20.4 22.476Z" class="colorf9a355 svgShape"/><path fill="#8e453c" d="M471.43 397.078h-80.036s-3.826 47.495 40.018 47.495c43.848 0 40.018-47.495 40.018-47.495Z" class="color8e453c svgShape"/><path fill="#fff" d="M471.43 397.078s.793 11.905-6.098 11.905h-68.397c-6.808 0-5.54-11.905-5.54-11.905Z" class="colorfff svgShape"/><path fill="#f95c57" d="M411.318 440.125s7.133 4.448 20.645 4.448c13.51 0 19.545-4.447 19.545-4.447s-5.242-11.823-20.096-11.823-20.094 11.822-20.094 11.822Z" class="colorf95c57 svgShape"/><path fill="#96590a" d="M573.023 718.633c-.256-.728-25.735-73.223-35.322-112.57a2 2 0 1 0-3.887.947c9.635 39.54 35.18 112.222 35.436 112.951a2 2 0 0 0 3.773-1.328ZM303.338 604.552a2.002 2.002 0 0 0-2.233 1.736c-4.629 37.033-4.271 156.921-4.267 158.127a2 2 0 0 0 2 1.994h.006a2 2 0 0 0 1.994-2.007c-.004-1.204-.362-120.837 4.236-157.617a1.998 1.998 0 0 0-1.736-2.233Z" class="color96590a svgShape"/><path fill="#eaddcd" d="M565.7 121.606s-40.325-16-130.663-16h-3.658c-90.338 0-130.662 16-130.662 16s-7.695 56-7.695 129.766c26.306-5.735 90.695-13.258 138.357-13.258h3.658c47.662 0 112.05 7.523 138.356 13.258 0-73.766-7.694-129.766-7.694-129.766Z" class="coloreaddcd svgShape"/><path fill="#dbc3a9" d="M298.143 144.658c11.798-1.257 25.109-6.219 38.85-15.31 25.208 45.258 96.215 37.744 96.215 37.744s74.509 7.514 96.216-37.744c13.741 9.092 27.052 14.054 38.851 15.31l-2.576-23.052s-32.982-23.5-134.982-23.5-130 23.5-130 23.5Z" class="colordbc3a9 svgShape"/><path fill="#eaddcd" d="M433.208 151.592s74.509 7.514 96.216-37.744c46.04 30.463 87.256 14.555 82.918-31.722-4.34-46.276-50.014-55.677-87.914-40.492C506.77 16.326 475.337 0 433.208 0s-73.564 16.326-91.22 41.634c-37.9-15.185-83.575-5.784-87.914 40.492-4.338 46.277 36.877 62.185 82.918 31.722 25.21 45.258 96.216 37.744 96.216 37.744Z" class="coloreaddcd svgShape"/><path fill="#96590a" d="M429.488 561.207s2.406-30.7-31.459-49.284c0 0 .53-3.866.53-5.263-14.803 0-12.137 22.191-12.137 22.191s12.706 25.994 43.066 32.356Z" class="color96590a svgShape"/><path fill="#96590a" d="M429.589 561.207s-2.406-30.7 31.459-49.284c0 0-.53-3.866-.53-5.263 14.803 0 12.137 22.191 12.137 22.191s-12.706 25.994-43.066 32.356Z" class="color96590a svgShape"/><path fill="#96590a" d="m438.447 554.083-76.605 36.508-.036 1.221c-.123 4.11-12.341 412.166-19.873 506.119l3.986.319c7.336-91.491 19.1-480.217 19.848-505.098l74.4-35.457Z" class="color96590a svgShape"/><path fill="#f4eee9" d="M523.033 48.102S496.2 4.936 433.208 4.936s-89.825 43.166-89.825 43.166-53.334-22.5-79.334 12.834c34.667-12.334 83.167 8.333 83.167 8.333s27-42 85.992-42 85.992 42 85.992 42 48.5-20.667 83.167-8.334c-26-35.333-79.334-12.833-79.334-12.833Z" class="colorf4eee9 svgShape"/><path fill="#96590a" d="M236.915 850.931h115.137V880.6H236.915z" class="color96590a svgShape"/><path fill="#a09f9f" d="m0 847.597 240.075-.367c0 120.227-53.56 120.12-119.854 120.222-66.296.1-120.221 0-120.221-119.855Z" class="colora09f9f svgShape"/><path fill="#ffc182" d="M393.703 920.902c-8.983 9.218-28.773 27.82-38.805 26.73-10.533-2.017-11.946-9.163-11.946-9.163s-13.823 2.733-17.454-16.715c-10.138-6.239-17.9-9.502-15.198-21.003-10.398-2.038-20.083-10.95-15.229-15.867 4.856-4.912 26.762-11.749 52.842-17.231-33.404-13.284-20.9-30.986-20.9-30.986s14.511 2.706 34.48 10.93c14.799 6.088 27.114 8.744 32.576 11.445ZM114.562 605.438c-12.866.355-40.023-.085-46.458-7.855-6.156-8.783-2.19-14.895-2.19-14.895s-11.821-7.67-.88-24.153c-6.036-5.43-6.222-19.283 3.727-25.655-6.041-8.705-4.096-22.024 6.117-21.63 17.17.661 40.085 6.16 49.865 11.229-1.047-51.033 30.112-35.83 30.112-35.83s-.63 9.047-.609 36.798c.016 20.801.979 32.787 3.016 38.53Z" class="colorffc182 svgShape"/><path fill="#eaeaea" d="M240.075 847.23h31.757v25.376c0 7.995-4.666 13.5-13.5 13.5h-20.578s2.321-20.585 2.321-38.876ZM74.526 750.81s-19.395-11.479-31.27 5.542c-11.875 17.02 6.334 30.083 6.334 30.083s-10.975 21.676 4.749 30.702c23.75 13.632 36.417-7.556 36.417-7.556s33.645 7.556 37.208-19.979c3.632-28.073-21.375-30.875-21.375-30.875s2.19-14.617-11.874-18.208c-18.605-4.75-20.189 10.292-20.189 10.292Zm117.094 58.985s13.509 3.288 17.456-8.89c3.948-12.18-9.144-16.616-9.144-16.616s2.577-14.764-8.323-17.264c-16.468-3.774-20.134 11.007-20.134 11.007s-21.212 1.59-18.365 18.479c2.904 17.22 18.164 14.378 18.164 14.378s1.336 9.02 10.283 8.61c11.834-.542 10.063-9.704 10.063-9.704Z" class="coloreaeaea svgShape"/><path fill="#96590a" d="M396.07 923.427v-65.035c61.489-7.079 104.05-21.582 129.005-32.555 27.42-12.056 39.86-22.339 40.375-22.77l-2.566-3.069c-.492.412-50.602 41.341-169.037 54.62l-1.778.2v72.954l2.16-.172c.908-.073 91.693-7.498 170.457-28.682l-1.039-3.862c-71.654 19.27-153.355 27.109-167.578 28.37Z" class="color96590a svgShape"/><path fill="#ce7d3a" d="M125.973 543.04a7.454 7.454 0 0 0 3.42-2.077c2.91-3.067 4.14-6.249 3.65-9.454-.915-5.993-7.531-9.746-7.813-9.904a1 1 0 0 0-.974 1.747c.06.034 6.04 3.422 6.81 8.459.391 2.563-.66 5.18-3.124 7.775-3.029 3.192-8.633 1.798-18.811-.735a230.727 230.727 0 0 0-40.291-6.968 1 1 0 1 0-.158 1.994 229.015 229.015 0 0 1 39.966 6.915c5.622 1.4 9.931 2.463 13.324 2.623.005.002.01.006.017.007 4.501.802 6.929 6.2 6.372 10.737-.231 1.889-1.65 8.02-9.868 7.45-15.818-1.236-53.01-4.043-53.384-4.07a1 1 0 1 0-.15 1.993c.373.028 37.36 2.82 53.257 4.061 4.37 1.296 4.686 5.307 4.481 7.593-.494 5.519-4.645 11.301-8.382 11.675-7.341.734-47.946-1.152-48.355-1.172a1 1 0 0 0-.094 1.999c1.395.064 28.901 1.342 42.452 1.342 2.359 0 4.29-.039 5.592-.13.67 1.137 2.12 4.485-.38 9.24-3.102 5.902-24.428 7.644-26.793 7.468a1 1 0 0 0-.142 1.996c.06.004.153.006.275.006 3.067 0 24.71-1.46 28.43-8.539 2.594-4.936 1.555-8.694.663-10.553 4.539-1.525 8.246-7.777 8.726-13.153.307-3.42-.637-6.165-2.648-7.94a9.948 9.948 0 0 0 8.306-9.023c.506-4.132-1.045-8.877-4.374-11.362Z" class="colorce7d3a svgShape"/><path fill="#e8e7e6" d="M5.987 855.106h59.5s-1.314 84.5 46.593 105c-25.201 0-106.093 15-106.093-105Z" class="colore8e7e6 svgShape"/></svg></svg>