<svg xmlns="http://www.w3.org/2000/svg" width="550" height="550"><svg xmlns="http://www.w3.org/2000/svg" width="550" height="550" data-name="Layer 1" viewBox="0 0 790.341 1702.322"><path fill="#c6c6c6" d="M790.34 1677.549a24.776 24.776 0 0 1-24.775 24.773H24.775A24.776 24.776 0 0 1 0 1677.55a24.774 24.774 0 0 1 24.775-24.774h740.79a24.774 24.774 0 0 1 24.776 24.774Z" class="colorc6c6c6 svgShape"/><path fill="#8e453c" d="m513.425 941.564-8.918 677.547h-71.334l-35.668-602.986h-17.918l-35.666 602.986h-71.336l-8.916-677.547h249.756z" class="color8e453c svgShape"/><path d="M499.749 1619.111s58.358 1.158 58.358 43.432v14.576s-60.813 3.152-72.426-7.598c0 3.508-.246 7.598-.246 7.598h-51.963v-58.15c37.66 0 66.277.142 66.277.142Zm-222.195 0s-58.358 1.158-58.358 43.432v14.576s60.813 3.152 72.426-7.598c0 3.508.246 7.598.246 7.598h51.963v-58.15c-37.658 0-66.277.142-66.277.142Z" class="color000 svgShape"/><path fill="#eadbcb" d="m260.053 691.595-6.837 381.82s-5.799 28.577 110.931 28.577h49.028c116.73 0 113.374-28.577 113.374-28.577s-4.798-258.459-8.45-330.307l80.832-41.787c-4.666-11-30.438-132.15-90.74-160.782-24.834-11.791-86.512-12.223-86.512-12.223h-66.035s-67.725 2.391-90.354 13.875c-77.135 39.146-153.78 164.473-153.78 164.473l86.209 32.595Z" class="coloreadbcb svgShape"/><path fill="#146199" d="m388.712 553.896.031.008a.355.355 0 0 0 .031-.008Z" class="color146199 svgShape"/><path fill="#96590a" d="M343.826 600.928a9.98 9.98 0 1 0 9.979 9.98 9.981 9.981 0 0 0-9.979-9.98Zm89.901 0a9.98 9.98 0 1 0 9.978 9.98 9.981 9.981 0 0 0-9.978-9.98Zm-89.901 97.994a9.98 9.98 0 1 0 9.979 9.98 9.981 9.981 0 0 0-9.979-9.98Zm89.901 0a9.98 9.98 0 1 0 9.978 9.98 9.981 9.981 0 0 0-9.978-9.98Zm-89.901 97.994a9.98 9.98 0 1 0 9.979 9.98 9.981 9.981 0 0 0-9.979-9.98Zm89.901 0a9.98 9.98 0 1 0 9.978 9.98 9.981 9.981 0 0 0-9.978-9.98Zm-89.901 97.994a9.98 9.98 0 1 0 9.979 9.98 9.981 9.981 0 0 0-9.979-9.98Zm89.901 0a9.98 9.98 0 1 0 9.978 9.98 9.981 9.981 0 0 0-9.978-9.98Z" class="color96590a svgShape"/><path fill="#f9a355" d="M418.747 496.723s1.676 15.488 3.16 31.593c-9.662 21.371-33.133 30.85-33.133 30.85s-23.468-9.479-33.13-30.85c1.484-16.105 3.16-31.593 3.16-31.593Z" class="colorf9a355 svgShape"/><path fill="#ffc182" d="M394.593 499.927c131.322 0 119.433-97.817 119.433-97.817s36.748 2.704 36.748-46.475-36.748-35.126-36.748-35.126V271.87s1.08-47.016-119.433-47.016h-4.324c-120.512 0-119.432 47.016-119.432 47.016v48.638s-36.748-14.053-36.748 35.126c0 49.18 36.748 46.475 36.748 46.475s-6.484 97.817 119.432 97.817Z" class="colorffc182 svgShape"/><path d="M302.825 304.914s18.666-9.16 41.727 2.674c6.617 3.67 10.287-2.947 4.41-6.736-3.393-2.188-23.605-11.88-47.77.09-2.162 1.82-.205 4.724 1.633 3.972Z" class="color000 svgShape"/><path fill="#8e453c" d="M252.246 251.371c-9.76 41.076 6.72 67.365 6.72 67.365a32.51 32.51 0 0 1 11.89 1.844c33.062-25.672 38.271-82.466 38.271-82.466h-1.309c-30.5 6.083-55.572 13.257-55.572 13.257Zm280.32-.034s-25.072-7.174-55.572-13.257h-1.308s5.209 56.794 38.271 82.465a34.484 34.484 0 0 1 11.889-1.843s16.481-26.29 6.72-67.365Z" class="color8e453c svgShape"/><path d="M474.726 304.914s-18.666-9.16-41.727 2.674c-6.617 3.67-10.287-2.947-4.41-6.736 3.392-2.188 23.605-11.88 47.77.09 2.162 1.82.204 4.724-1.633 3.972Z" class="color000 svgShape"/><path fill="#f9a355" d="M268.26 378.228v-34.603s-20.4-8.752-20.4 12.129c0 18.47 15.315 22.474 20.4 22.474Zm241.223 0v-34.603s20.4-8.752 20.4 12.129c0 18.47-15.312 22.474-20.4 22.474Z" class="colorf9a355 svgShape"/><path fill="#eaddcd" d="M524.923 121.606s-40.324-16-130.662-16h-3.658c-90.338 0-130.663 16-130.663 16s-7.694 56-7.694 129.765c26.306-5.734 90.694-13.257 138.357-13.257h3.658c47.662 0 112.05 7.523 138.356 13.257 0-73.766-7.694-129.766-7.694-129.766Z" class="coloreaddcd svgShape"/><path fill="#dbc3a9" d="M257.367 144.658c11.798-1.258 25.109-6.218 38.849-15.31 25.209 45.257 96.216 37.744 96.216 37.744s74.508 7.513 96.215-37.744c13.742 9.092 27.053 14.054 38.852 15.31l-2.576-23.052s-32.983-23.5-134.983-23.5-130 23.5-130 23.5Z" class="colordbc3a9 svgShape"/><path fill="#eaddcd" d="M392.432 151.592s74.508 7.513 96.215-37.744c46.041 30.462 87.256 14.555 82.918-31.722-4.338-46.276-50.013-55.677-87.914-40.492C465.995 16.326 434.561 0 392.431 0s-73.563 16.326-91.22 41.634c-37.9-15.185-83.574-5.784-87.913 40.492-4.338 46.277 36.877 62.184 82.918 31.722 25.209 45.257 96.216 37.744 96.216 37.744Z" class="coloreaddcd svgShape"/><path fill="#96590a" d="M388.712 561.207s2.406-30.7-31.46-49.283c0 0 .53-3.867.53-5.264-14.802 0-12.136 22.192-12.136 22.192s12.706 25.993 43.066 32.355Z" class="color96590a svgShape"/><path fill="#96590a" d="M388.813 561.207s-2.407-30.7 31.459-49.283c0 0-.53-3.867-.53-5.264 14.803 0 12.137 22.192 12.137 22.192s-12.706 25.993-43.067 32.355Z" class="color96590a svgShape"/><path fill="#96590a" d="m396.35 554.713-76.609 36.51-.032 1.224c-.11 4.105-11.02 411.533-18.554 505.484l3.989.319c7.334-91.482 17.86-479.54 18.53-504.47l74.397-35.456Z" class="color96590a svgShape"/><path fill="#f4eee9" d="M482.257 48.102S455.424 4.936 392.432 4.936s-89.826 43.166-89.826 43.166-53.334-22.5-79.334 12.834c34.667-12.334 83.167 8.333 83.167 8.333s27-42 85.993-42 85.992 42 85.992 42 48.5-20.667 83.167-8.334c-26-35.333-79.334-12.833-79.334-12.833Z" class="colorf4eee9 svgShape"/><path fill="#66635f" d="M254.865 968.21s-17.112 102.555-1.477 382.387c125.48 31 275.645 0 275.645 0s12.62-224.94-.12-382.387Z" class="color66635f svgShape"/><path fill="#96590a" d="M520.12 740.62c-.117-1.09-11.816-109.488-23.38-158.353a2.25 2.25 0 1 0-4.38 1.035c11.5 48.592 23.17 156.71 23.285 157.797a2.25 2.25 0 0 0 2.235 2.01c.08 0 .161-.005.242-.012a2.25 2.25 0 0 0 1.998-2.478ZM266.048 604.553a2 2 0 0 0-2.233 1.736c-4.628 37.031-4.271 156.92-4.267 158.127a2 2 0 0 0 2 1.992h.006a2 2 0 0 0 1.994-2.006c-.004-1.205-.361-120.838 4.236-157.617a2 2 0 0 0-1.736-2.232Z" class="color96590a svgShape"/><path fill="#4c4945" d="M278.073 1135.264c8.228 93.333 74.054 104.667 122.541 93.333-84.764-13.75-122.54-93.333-122.54-93.333Zm175.375-36.216c-59.93 38.855-129.964 11.265-129.964 11.265 60.08 52.47 107.006 22.698 129.964-11.265Zm-98.236 67.049c28.799 26.5 137.309 44 148.623-51.5 0 0-21.086 77.5-148.623 51.5Z" class="color4c4945 svgShape"/><path fill="#66635f" d="M528.913 968.21s14.768-23.734 42.434-9.4c27.668 14.334 25.668 39.667 12.668 48.667s-53.493-16.99-53.493-16.99l-.584-8.698s31.743 20.355 43.409 10.688c11.668-9.667-10.046-36.921-43.844-16.68Z" class="color66635f svgShape"/><path fill="#c9b099" d="m530.222 736.757 68.709-35.436-2.858-9.215s14.823-4.837 25.559 15.236c16.039 29.987 15.46 43.055-12.32 56.82-27.782 13.765-45.819 16.759-64.569 24.509-11.093 4.585-25.256-9.017-26.644-24a105.413 105.413 0 0 1 0-21.563Zm-332.504 2.502-86.21-32.595 4.91-7.734s-16.17-2.882-26.148 17.758c-12.037 24.908-9.42 35.216 19.02 47.563 44.303 19.237 72.7 30.492 93.19-1.3 14.445-22.416 6.057-31.966 6.057-31.966Z" class="colorc9b099 svgShape"/><path d="M339.056 368.776a12.427 12.427 0 0 1-12.428 12.428 12.427 12.427 0 0 1-12.43-12.428v-9.726a12.429 12.429 0 0 1 12.43-12.43 12.429 12.429 0 0 1 12.428 12.43Zm99.439 0a12.427 12.427 0 0 0 12.428 12.428 12.427 12.427 0 0 0 12.43-12.428v-9.726a12.43 12.43 0 0 0-12.43-12.43 12.429 12.429 0 0 0-12.428 12.43Z" class="color000 svgShape"/><path fill="#8e453c" d="M424.323 421.282a2.434 2.434 0 0 0-3.275 1.051c-.052.103-5.871 10.176-28.81 10.176h-4.318c-22.991 0-28.769-10.1-28.81-10.176a2.432 2.432 0 0 0-4.327 2.225c.269.523 6.889 12.814 33.137 12.814h4.317c26.248 0 32.868-12.29 33.137-12.814a2.433 2.433 0 0 0-1.05-3.276Z" class="color8e453c svgShape"/><path fill="#eadbcb" d="M111.372 1677.549v-529.173a38.105 38.105 0 0 1 38.106-38.105h478.596a38.105 38.105 0 0 1 38.105 38.105v529.174h86.596v-597.212a50 50 0 0 0-50-50h-628a50 50 0 0 0-50 50v597.21Z" class="coloreadbcb svgShape"/><path fill="#3ca012" d="M361.757 1030.338s216.145 9.417 222.258-22.861c10.555-55.746-217.277-48.66-217.277-48.66s18.051 9.814 18.52 33.52c.666 33.668-23.501 38-23.501 38Z" class="color3ca012 svgShape"/><path fill="#c2fca7" d="M392.818 994.415c0 19.84-12.111 35.923-27.051 35.923s-27.052-16.083-27.052-35.923c0-19.839 12.111-35.922 27.052-35.922s27.051 16.083 27.051 35.922Z" class="colorc2fca7 svgShape"/><path fill="#ffc182" d="M233.185 905.68s18.406 9.19 25.739 28.99c-3.666 10.334-15.448 5.024-15.448 5.024Z" class="colorffc182 svgShape"/><path fill="#96590a" d="M264.635 938.356s-3.968 30.004 3.49 43.482c-29.377-18.146-82.174-52.58-82.174-52.58s-12.435-25.622 1.57-26.185c14.007-.558 77.114 35.283 77.114 35.283Z" class="color96590a svgShape"/><path fill="#e8e7e6" d="M256.928 933.54s54.627 29.097 109.81 29.344c-1.33 27.723-54.344 72.052-107.635 14.089-12.64-27.876-2.175-43.433-2.175-43.433Z" class="colore8e7e6 svgShape"/><path fill="#a09f9f" d="M256.928 933.54s60.511 18.916 109.81 29.344c-1.33 27.723-67.97 31.21-113.69-7.27-1.54-14.158 3.88-22.074 3.88-22.074Z" class="colora09f9f svgShape"/><path fill="#ffc182" d="m160.607 782.243 28.957 108.617s37.89-1.456 51.38 24.172c13.49 25.63 8 47.182-.668 55.837-8.663 8.654-47.952 10.96-67.592-28.374 0 0-99.427-109.824-78.109-185.985 38.117 17.53 66.032 25.733 66.032 25.733Z" class="colorffc182 svgShape"/><path fill="#ce7d3a" d="M226.942 917.9a1 1 0 1 0-1.643 1.14c16.668 24.02 7.113 54.961 7.015 55.27a1 1 0 0 0 .565 1.225.814.814 0 0 0 .085.032 1 1 0 0 0 1.256-.65c.101-.317 9.96-32.175-7.278-57.017Zm-18.494 5.223a1 1 0 1 0-1.637 1.147c14.274 20.387 12.779 51.44 12.761 51.753a1.001 1.001 0 0 0 .612.975.979.979 0 0 0 .335.076 1 1 0 0 0 1.051-.944c.017-.319 1.554-32.047-13.122-53.007Zm-20.76 9.347a1 1 0 1 0-1.6 1.199c11.934 15.937 15.08 38.088 15.11 38.31a1 1 0 0 0 .605.786.984.984 0 0 0 .521.068.998.998 0 0 0 .856-1.125c-.031-.228-3.24-22.877-15.493-39.237Z" class="colorce7d3a svgShape"/><path fill="#ffc182" d="m544.401 788.12-18.504 110.877s-37.857 2.15-48.852 28.944c-10.994 26.795-3.48 47.729 5.97 55.52 9.447 7.793 48.776 6.354 64.591-34.667 0 0 79.65-103.456 61.706-184.632-42.29 18.753-64.91 23.958-64.91 23.958Z" class="colorffc182 svgShape"/><path fill="#ce7d3a" d="M491.256 929.466a1 1 0 1 1 1.743.978c-14.31 25.495-1.856 55.388-1.731 55.687a1 1 0 0 1-.445 1.274 1.088 1.088 0 0 1-.082.04 1.002 1.002 0 0 1-1.312-.529c-.132-.306-12.973-31.083 1.827-57.45Zm18.906 3.442a1 1 0 1 1 1.74.986c-12.273 21.65-7.834 52.421-7.788 52.731a1 1 0 0 1-1.977.297c-.048-.316-4.592-31.755 8.025-54.014Zm21.556 7.332a1 1 0 1 1 1.706 1.041c-10.366 17-11.393 39.349-11.4 39.573a1 1 0 0 1-.53.84.978.978 0 0 1-.512.117.997.997 0 0 1-.958-1.038c.01-.23 1.051-23.082 11.694-40.533Z" class="colorce7d3a svgShape"/><path fill="#3ca012" d="M323.04 979.903c9.35 17.498 6.25 37.392-6.929 44.434-6.39 3.414-13.564 6-20.828 6-8.33 0-15.143-15.92-19.96-24.934-7.51-14.052-12.722-30.89-5.4-40.134 1.796-2.265 6.707-3.425 10.959-4.723 14.29-4.361 32.808 1.86 42.158 19.357Z" class="color3ca012 svgShape"/><path fill="#c2fca7" d="M312.04 983.427c9.35 17.498 6.25 37.391-6.929 44.433-13.176 7.041-31.438-1.435-40.789-18.933-9.35-17.498-6.248-37.39 6.93-44.432 13.177-7.042 31.438 1.435 40.788 18.932Z" class="colorc2fca7 svgShape"/><path fill="#3ca012" d="M304.356 979.903c9.351 17.498 6.25 37.392-6.928 44.434-6.39 3.414-13.565 6-20.828 6-8.331 0-15.144-15.92-19.961-24.934-7.51-14.052-12.722-30.89-5.399-40.134 1.795-2.265 6.706-3.425 10.958-4.723 14.29-4.361 32.808 1.86 42.159 19.357Z" class="color3ca012 svgShape"/><path fill="#c2fca7" d="M293.356 983.427c9.351 17.498 6.25 37.391-6.928 44.433-13.177 7.041-31.439-1.435-40.79-18.933-9.349-17.498-6.247-37.39 6.93-44.432 13.177-7.042 31.438 1.435 40.788 18.932Z" class="colorc2fca7 svgShape"/><path fill="#3ca012" d="M285.673 979.903c9.35 17.498 6.249 37.392-6.929 44.434-6.39 3.414-13.564 6-20.828 6-8.331 0-15.143-15.92-19.96-24.934-7.51-14.052-12.723-30.89-5.4-40.134 1.796-2.265 6.707-3.425 10.959-4.723 14.29-4.361 32.807 1.86 42.158 19.357Z" class="color3ca012 svgShape"/><path fill="#c2fca7" d="M274.673 983.427c9.35 17.498 6.249 37.391-6.929 44.433-13.177 7.041-31.438-1.435-40.789-18.933-9.35-17.498-6.248-37.39 6.93-44.432 13.177-7.042 31.437 1.435 40.788 18.932Z" class="colorc2fca7 svgShape"/><path fill="#3ca012" d="M266.99 979.903c9.35 17.498 6.248 37.392-6.93 44.434-6.39 3.414-13.564 6-20.828 6-8.33 0-15.143-15.92-19.96-24.934-7.51-14.052-12.722-30.89-5.399-40.134 1.795-2.265 6.706-3.425 10.958-4.723 14.29-4.361 32.808 1.86 42.158 19.357Z" class="color3ca012 svgShape"/><path fill="#c2fca7" d="M255.99 983.427c9.35 17.498 6.248 37.391-6.93 44.433-13.176 7.041-31.438-1.435-40.789-18.933-9.35-17.498-6.247-37.39 6.93-44.432 13.177-7.042 31.438 1.435 40.788 18.932Z" class="colorc2fca7 svgShape"/><path fill="#3ca012" d="M235.352 973.933c14.85 11.483 17.421 31.888 12.364 42.1-3.781 7.636-6.867 11.095-19.586 13.267-7.773 1.327-16.446-8.953-24.099-14.867-11.924-9.226-22.949-21.744-20.208-32.56.673-2.653 4.465-5.557 7.631-8.325 10.65-9.3 29.048-11.103 43.898.385Z" class="color3ca012 svgShape"/><path fill="#c2fca7" d="M227.219 981.233c14.851 11.487 19.88 29.864 11.23 41.048-8.647 11.184-27.698 10.939-42.55-.547-14.85-11.484-19.877-29.86-11.23-41.045 8.65-11.182 27.7-10.941 42.55.544Z" class="colorc2fca7 svgShape"/><path fill="#3ca012" d="M209.377 981.58c13.677 7.485 20.052 23.543 15.743 34.466-2.613 6.625-7.113 10.75-17.362 13.077-6.385 1.45-11.75-6.387-18.796-10.242-10.983-6.014-21.657-14.846-20.817-24.075.206-2.265 2.938-5.14 5.173-7.824 7.525-9.015 22.383-12.89 36.059-5.402Z" class="color3ca012 svgShape"/><path fill="#c2fca7" d="M203.656 988.629c13.68 7.486 20.198 21.906 14.56 32.207s-21.296 12.58-34.973 5.094c-13.678-7.486-20.194-21.905-14.558-32.205 5.636-10.3 21.294-12.582 34.971-5.096Z" class="colorc2fca7 svgShape"/><path fill="#3ca012" d="M189.445 1000.032c13.638 3.638 23.24 12.047 21.445 18.778-.871 3.266-3.008 7.86-8.017 9.36-8.168 2.447-18.716-.376-25.741-2.25-10.951-2.922-17.162-7.102-19.094-12.835-.474-1.408 1.523-5.377 2.635-7.186 3.75-6.074 15.136-9.507 28.772-5.867Z" class="color3ca012 svgShape"/><path fill="#c2fca7" d="M183.803 1008.075c12.638 3.373 21.653 10.714 20.134 16.398-1.514 5.684-12.989 7.56-25.624 4.19-12.635-3.372-21.647-10.713-20.132-16.398 1.515-5.685 12.987-7.56 25.622-4.19Z" class="colorc2fca7 svgShape"/></svg></svg>