<svg xmlns="http://www.w3.org/2000/svg" width="550" height="550"><svg xmlns="http://www.w3.org/2000/svg" width="550" height="550" data-name="Layer 1" viewBox="0 0 850.933 1702.322"><path fill="#c6c6c6" d="M71.923 1677.549a24.776 24.776 0 0 0 24.775 24.773h606.273a24.776 24.776 0 0 0 24.776-24.773 24.774 24.774 0 0 0-24.776-24.774H96.698a24.774 24.774 0 0 0-24.775 24.774Z" class="colorc6c6c6 svgShape"/><path fill="#8e453c" d="m169.387 941.564 8.918 677.547h71.333l35.668-602.986h17.918l35.666 602.986h71.336l8.916-677.547H169.387z" class="color8e453c svgShape"/><path d="M183.062 1619.111s-58.357 1.158-58.357 43.432v14.576s60.812 3.152 72.426-7.598c0 3.508.246 7.598.246 7.598h51.963v-58.15c-37.66 0-66.278.142-66.278.142Zm222.196 0s58.357 1.158 58.357 43.432v14.576s-60.812 3.152-72.426-7.598c0 3.508-.246 7.598-.246 7.598H338.98v-58.15c37.658 0 66.278.142 66.278.142Z" class="color000 svgShape"/><path fill="#eadbcb" d="m424.652 766.941 78.429-47.76s-31.6-151.059-86.85-177.7c-22.858-11.022-90.418-13.449-90.418-13.449l-66.034.312s-60.82 2.697-86.453 12.63c-45.413 15.971-100.845 84.953-134.68 199.414l-2.796 7.883 86.363 32.189 29.44-60.052c2.74 11.433 11.832 139.535 7.566 244.463l3.668 108.4s-8.627 29.252 108.102 28.703l49.027-.232c116.73-.55 107.937-33.449 107.937-33.449l5.454-101.435Z" class="coloreadbcb svgShape"/><path fill="#146199" d="m294.1 553.896-.032.008a.355.355 0 0 1-.031-.008Z" class="color146199 svgShape"/><path fill="#96590a" d="M338.985 600.928a9.98 9.98 0 1 1-9.978 9.98 9.981 9.981 0 0 1 9.978-9.98Zm-89.9 0a9.98 9.98 0 1 1-9.979 9.98 9.981 9.981 0 0 1 9.979-9.98Zm89.9 110.39a9.98 9.98 0 1 1-9.978 9.98 9.981 9.981 0 0 1 9.978-9.98Zm-89.9 0a9.98 9.98 0 1 1-9.979 9.98 9.981 9.981 0 0 1 9.979-9.98Zm89.9 110.391a9.98 9.98 0 1 1-9.978 9.98 9.981 9.981 0 0 1 9.978-9.98Zm-89.9 0a9.98 9.98 0 1 1-9.979 9.98 9.981 9.981 0 0 1 9.979-9.98Zm89.9 110.391a9.98 9.98 0 1 1-9.978 9.98 9.981 9.981 0 0 1 9.978-9.98Zm-89.9 0a9.98 9.98 0 1 1-9.979 9.98 9.981 9.981 0 0 1 9.979-9.98Zm89.9 110.39a9.98 9.98 0 1 1-9.978 9.98 9.981 9.981 0 0 1 9.978-9.98Zm-89.9 0a9.98 9.98 0 1 1-9.979 9.98 9.981 9.981 0 0 1 9.979-9.98Z" class="color96590a svgShape"/><path fill="#f9a355" d="M264.064 496.723s-1.676 15.488-3.16 31.593c9.662 21.371 33.133 30.85 33.133 30.85s23.469-9.479 33.13-30.85c-1.484-16.105-3.16-31.593-3.16-31.593Z" class="colorf9a355 svgShape"/><path fill="#ffc182" d="M288.219 499.927c-131.323 0-119.434-97.817-119.434-97.817s-36.748 2.704-36.748-46.475 36.748-35.126 36.748-35.126V271.87s-1.08-47.016 119.434-47.016h4.324c120.512 0 119.431 47.016 119.431 47.016v48.638s36.748-14.053 36.748 35.126c0 49.18-36.748 46.475-36.748 46.475s6.485 97.817-119.431 97.817Z" class="colorffc182 svgShape"/><path d="M343.756 354.531a12.427 12.427 0 0 0 12.427 12.428 12.427 12.427 0 0 0 12.43-12.428v-9.726a12.43 12.43 0 0 0-12.43-12.43 12.429 12.429 0 0 0-12.427 12.43Zm36.23-49.617s-18.666-9.16-41.726 2.674c-6.618 3.67-10.288-2.947-4.41-6.736 3.392-2.188 23.605-11.88 47.769.09 2.162 1.82.205 4.724-1.633 3.972Z" class="color000 svgShape"/><path fill="#8e453c" d="M430.565 251.371c9.76 41.076-6.72 67.365-6.72 67.365a32.51 32.51 0 0 0-11.89 1.844c-33.062-25.672-38.27-82.466-38.27-82.466h1.308c30.5 6.083 55.572 13.257 55.572 13.257Zm-280.32-.034s25.072-7.174 55.572-13.257h1.309s-5.21 56.794-38.272 82.465a34.484 34.484 0 0 0-11.888-1.843s-16.482-26.29-6.721-67.365Z" class="color8e453c svgShape"/><path d="M244.316 354.531a12.427 12.427 0 0 1-12.428 12.428 12.427 12.427 0 0 1-12.43-12.428v-9.726a12.429 12.429 0 0 1 12.43-12.43 12.429 12.429 0 0 1 12.428 12.43Zm-36.23-49.617s18.666-9.16 41.726 2.674c6.618 3.67 10.287-2.947 4.41-6.736-3.392-2.188-23.605-11.88-47.77.09-2.161 1.82-.204 4.724 1.634 3.972Z" class="color000 svgShape"/><path fill="#f9a355" d="M414.55 378.228v-34.603s20.4-8.752 20.4 12.129c0 18.47-15.313 22.474-20.4 22.474Zm-241.222 0v-34.603s-20.4-8.752-20.4 12.129c0 18.47 15.312 22.474 20.4 22.474Z" class="colorf9a355 svgShape"/><path fill="#8e453c" d="M252.158 397.078h80.035s3.826 47.494-40.017 47.494c-43.848 0-40.018-47.494-40.018-47.494Z" class="color8e453c svgShape"/><path fill="#fff" d="M252.158 397.078s-.793 11.904 6.098 11.904h68.396c6.809 0 5.541-11.904 5.541-11.904Z" class="colorfff svgShape"/><path fill="#f95c57" d="M312.27 440.125s-7.133 4.447-20.645 4.447c-13.51 0-19.545-4.447-19.545-4.447s5.242-11.822 20.096-11.822 20.093 11.822 20.093 11.822Z" class="colorf95c57 svgShape"/><path fill="#96590a" d="M150.564 718.633c.256-.729 25.736-73.223 35.323-112.57a2 2 0 0 1 3.886.947c-9.635 39.54-35.178 112.222-35.435 112.95a2 2 0 0 1-1.887 1.337 1.97 1.97 0 0 1-.664-.113 2 2 0 0 1-1.223-2.551Zm269.686-114.08a2.001 2.001 0 0 1 2.232 1.736c4.63 37.031 4.272 156.92 4.268 158.127a2 2 0 0 1-2 1.992h-.004a2 2 0 0 1-1.996-2.006c.004-1.205.361-120.838-4.237-157.617a1.998 1.998 0 0 1 1.737-2.232Z" class="color96590a svgShape"/><path fill="#eaddcd" d="M157.888 121.606s40.325-16 130.663-16h3.658c90.338 0 130.662 16 130.662 16s7.694 56 7.694 129.765c-26.305-5.734-90.694-13.257-138.356-13.257h-3.658c-47.663 0-112.051 7.523-138.357 13.257 0-73.766 7.694-129.766 7.694-129.766Z" class="coloreaddcd svgShape"/><path fill="#dbc3a9" d="M425.444 144.658c-11.798-1.258-25.108-6.219-38.848-15.31-25.21 45.257-96.216 37.744-96.216 37.744s-74.51 7.513-96.216-37.744c-13.741 9.092-27.053 14.054-38.852 15.31l2.576-23.052s32.983-23.5 134.983-23.5 130 23.5 130 23.5Z" class="colordbc3a9 svgShape"/><path fill="#eaddcd" d="M290.38 151.592s-74.51 7.513-96.216-37.744c-46.041 30.463-87.256 14.555-82.918-31.722 4.339-46.276 50.014-55.677 87.914-40.492C216.816 16.326 248.25 0 290.38 0s73.563 16.326 91.22 41.634c37.9-15.185 83.575-5.784 87.913 40.492 4.338 46.277-36.876 62.185-82.917 31.722-25.21 45.257-96.216 37.744-96.216 37.744Z" class="coloreaddcd svgShape"/><path fill="#96590a" d="M294.1 561.207s-2.407-30.7 31.458-49.283c0 0-.529-3.867-.529-5.264 14.803 0 12.137 22.192 12.137 22.192s-12.706 25.993-43.067 32.355Z" class="color96590a svgShape"/><path fill="#96590a" d="M293.999 561.207s2.406-30.7-31.46-49.283c0 0 .53-3.867.53-5.264-14.803 0-12.137 22.192-12.137 22.192s12.706 25.993 43.067 32.355Z" class="color96590a svgShape"/><path fill="#96590a" d="m377.17 1098.29 4.984-.4c-7.532-93.94-19.75-501.982-19.872-506.093l-.046-1.526-76.88-36.638-2.151 4.513 74.125 35.326c.83 27.594 12.532 413.67 19.84 504.818Z" class="color96590a svgShape"/><path fill="#c9b099" d="m436.984 759.277 66.097-40.096-2.24-9.83s13.206-5.015 25.303 14.268c18.072 28.808 18.263 35.223-8.499 50.873-26.766 15.652-44.419 26.546-62.588 35.573-10.75 5.34-25.819-7.25-28.239-22.102a105.385 105.385 0 0 1-1.49-21.51ZM122.378 779.78l-86.21-32.594 2.834-7.872s-19.894-4.374-26.358 17.511c-7.836 26.53-6.79 34.84 21.305 47.947 57.695 26.916 72.7 30.493 93.19-1.3 14.446-22.415 1.302-35.75 1.302-35.75Z" class="colorc9b099 svgShape"/><path fill="#66635f" d="M158.513 964.364s-17.112 102.555-1.477 382.387c125.48 31 275.645 0 275.645 0s12.62-224.94-.12-382.387Z" class="color66635f svgShape"/><path fill="#4c4945" d="M181.72 1131.418c8.229 93.333 74.055 104.667 122.543 93.333-84.765-13.75-122.542-93.333-122.542-93.333Zm175.376-36.216c-59.93 38.856-129.963 11.266-129.963 11.266 60.08 52.47 107.005 22.697 129.963-11.266Zm-98.236 67.049c28.799 26.5 137.309 44 148.622-51.5 0 0-21.084 77.5-148.622 51.5Z" class="color4c4945 svgShape"/><path fill="#66635f" d="M432.561 964.364s14.767-23.734 42.435-9.4c27.666 14.334 25.666 39.667 12.666 48.667s-53.49-16.99-53.49-16.99l-.586-8.698s31.742 20.355 43.41 10.688c11.666-9.667-14.69-45.358-43.845-16.679Z" class="color66635f svgShape"/><path fill="#ffc182" d="M16.615 1011.642c-6.633 11.029-19.597 34.897-15.994 44.322 4.626 9.675 11.897 9.225 11.897 9.225s.867 14.064 20.599 12.637c8.61 8.219 13.737 14.899 24.174 9.364 4.612 9.538 15.694 16.645 19.216 10.7 3.517-5.945 4.568-28.868 3.244-55.489 21.333 28.936 35.277 12.344 35.277 12.344s-6.304-13.346-19.327-30.571c-9.651-12.766-20.522-25.255-24.523-29.852 0 0 3.697-83.837 20.348-168.36-32.977-10.118-67.867-26.494-67.867-26.494S6.31 861.49 16.615 1011.642Zm701.923-444.714H582.787s-10.717 5.659-18.502 24.107c-7.785 18.45-64.514 192.486-64.514 192.486l28.114-17.216s-18.96 12.513-69.092 40.907c46.603 69.394 102.311 56.463 118.724 10.364 9.953-27.953 35.501-211.46 40.393-214.544 33.781-21.296 87.151-21.787 87.151-21.787 16.468-2.67 13.921-8.531 13.477-14.317Z" class="colorffc182 svgShape"/><path fill="#a09f9f" d="M496.22 551.732h336.817s7.334 15.196-33.333 15.196H529.553c-40.667 0-33.333-15.196-33.333-15.196Z" class="colora09f9f svgShape"/><path fill="#d3ab84" d="M752.904 321.867H598.301c-105.618 0-18.783 71.885 33.305 95.053-12.481 73.932 14.402 134.812 14.402 134.812h161.626s26.882-60.88 14.4-134.812c52.089-23.168 36.487-95.053-69.13-95.053Z" class="colord3ab84 svgShape"/><path fill="#a36838" d="M752.904 321.867H598.301c-105.618 0-18.783 71.885 33.305 95.053h190.429c52.088-23.168 36.486-95.053-69.13-95.053Z" class="colora36838 svgShape"/><path fill="#ffdfc5" d="M833.629 371.144c-2.83-13.375-12.833-25.515-28.165-34.183-17.554-9.923-41.775-15.168-70.044-15.168H611.648l13.41 1.996c63.587 0 91.594 25.732 96.256 47.769 3.855 18.215-6.95 35.876-27.53 44.992l-.708.313.129.766c12.285 72.47-14.062 133.096-14.33 133.7l1.825.808c.27-.607 26.677-61.333 14.6-134.081 21.016-9.605 31.98-27.947 27.967-46.912-2.83-13.375-12.833-25.515-28.165-34.183-10.715-6.058-23.925-10.361-39.014-12.803 54.686 3.174 79.279 26.883 83.62 47.4 3.854 18.215-6.951 35.876-27.53 44.992l-.708.313.128.766c12.286 72.47-14.061 133.096-14.329 133.7l1.825.808c.27-.607 26.676-61.333 14.6-134.081 21.016-9.605 31.98-27.947 27.967-46.912-2.83-13.375-12.833-25.515-28.165-34.183-10.715-6.058-23.926-10.361-39.015-12.803 54.687 3.174 79.28 26.883 83.62 47.4 3.855 18.215-6.95 35.876-27.529 44.992l-.709.313.129.766c12.285 72.47-14.062 133.096-14.33 133.7l1.825.808c.27-.607 26.677-61.333 14.6-134.081 21.016-9.605 31.98-27.947 27.968-46.912-2.83-13.375-12.834-25.515-28.166-34.183-10.715-6.058-23.925-10.361-39.014-12.803 54.686 3.174 79.28 26.883 83.62 47.4 3.854 18.215-6.951 35.876-27.53 44.992l-.708.313.129.766c12.285 72.47-14.062 133.096-14.33 133.7l1.825.808c.27-.607 26.676-61.333 14.6-134.081 21.016-9.605 31.98-27.947 27.967-46.912-2.83-13.375-12.833-25.515-28.165-34.183-10.715-6.058-23.926-10.361-39.015-12.803 54.687 3.174 79.28 26.883 83.62 47.4 3.855 18.215-6.95 35.876-27.529 44.992l-.709.313.13.766c12.284 72.47-14.062 133.096-14.33 133.7l1.824.808c.27-.607 26.677-61.333 14.6-134.081 21.016-9.605 31.98-27.947 27.968-46.912-2.83-13.375-12.833-25.515-28.165-34.183-10.716-6.058-23.926-10.361-39.015-12.803 54.686 3.174 79.28 26.883 83.62 47.4 3.855 18.215-6.951 35.876-27.53 44.992l-.708.313.129.766c12.285 72.47-14.062 133.096-14.33 133.7l1.825.808c.27-.607 26.677-61.333 14.6-134.081 21.016-9.605 31.98-27.947 27.967-46.912-2.83-13.375-12.833-25.515-28.165-34.183-10.715-6.058-23.926-10.361-39.015-12.803 54.687 3.174 79.28 26.883 83.62 47.4 3.855 18.215-6.95 35.876-27.529 44.992l-.709.313.13.766c12.284 72.47-14.062 133.096-14.33 133.7l1.824.808c.27-.607 26.677-61.333 14.6-134.081 21.017-9.605 31.98-27.947 27.968-46.912Z" class="colorffdfc5 svgShape"/><path fill="#f4ceae" d="M606.983 321.867H588.38c-105.617 0-121.22 71.885-69.131 95.053-12.482 73.932 14.401 134.812 14.401 134.812h128.063s26.883-60.88 14.401-134.812c52.088-23.168 36.486-95.053-69.13-95.053Z" class="colorf4ceae svgShape"/><path fill="#f4eee9" d="M380.205 49.938S353.372 6.771 290.38 6.771s-89.825 43.167-89.825 43.167-53.334-22.5-79.334 12.833c34.667-12.333 83.167 8.334 83.167 8.334s27-42 85.992-42 85.992 42 85.992 42 48.5-20.667 83.167-8.334c-26-35.332-79.334-12.833-79.334-12.833Z" class="colorf4eee9 svgShape"/></svg></svg>