<svg xmlns="http://www.w3.org/2000/svg" viewBox="0 0 66 66" id="money"><circle cx="33" cy="33" r="32" fill="#fc3"></circle><circle cx="33" cy="33" r="25.72" fill="#edb529"></circle><path fill="#fc3" d="M32.13 49.46v-3.27c-1.63-.21-2.96-.57-3.99-1.1-1.02-.53-1.91-1.38-2.65-2.55-.75-1.17-1.18-2.61-1.3-4.3l3.29-.62c.25 1.76.7 3.05 1.34 3.87.92 1.16 2.02 1.81 3.31 1.94V33.02c-1.34-.25-2.72-.77-4.12-1.56a6.099 6.099 0 0 1-2.41-2.42c-.56-1.03-.84-2.2-.84-3.51 0-2.33.82-4.21 2.47-5.65 1.1-.97 2.74-1.56 4.9-1.78v-1.56h1.93v1.56c1.9.18 3.41.74 4.52 1.67 1.43 1.19 2.29 2.82 2.58 4.89l-3.38.51c-.19-1.28-.6-2.27-1.21-2.95-.61-.68-1.45-1.14-2.52-1.35v9.43c1.65.41 2.74.73 3.27.96 1.02.45 1.85.99 2.49 1.63.64.64 1.13 1.4 1.48 2.29.34.88.52 1.84.52 2.87 0 2.26-.72 4.15-2.16 5.67-1.44 1.51-3.31 2.33-5.59 2.43v3.31h-1.93zm0-28.63c-1.27.19-2.27.7-3.01 1.53-.73.82-1.1 1.8-1.1 2.92 0 1.11.31 2.05.94 2.8.62.75 1.68 1.35 3.17 1.8v-9.05zm1.92 22.6c1.27-.16 2.32-.71 3.15-1.65.83-.94 1.24-2.11 1.24-3.51 0-1.19-.29-2.14-.88-2.86-.59-.72-1.76-1.37-3.51-1.93v9.95z"></path></svg>