<svg xmlns="http://www.w3.org/2000/svg" width="2000" height="2000" fill="none" viewBox="0 0 2000 2000" id="thumbs-up"><path fill="#FFBCA4" d="M1445.84 1377.17C1311.23 1459.62 1288.86 1417.08 1288.86 1417.08L847.957 1581.81L766.587 1609.72C734.068 1557.86 697.052 1479.21 664.424 1388.62C633.197 1301.83 612.04 1220.89 603.3 1160.88C624.658 1151.78 654.009 1140.85 684.416 1125.52C851.234 1041.77 772.559 1014.86 918.202 858.616C994.675 776.499 966.216 584.973 985.971 549.395C1009 507.881 1070.55 540.4 1092.25 594.022C1135.38 700.555 1095.13 901.095 1095.13 901.095C1095.13 901.095 1357.32 780.924 1433.61 821.909C1509.9 862.895 1461.9 955.663 1461.9 955.663C1461.9 955.663 1495.79 955.882 1508.19 980.68C1532.78 1029.84 1497.12 1084.25 1497.12 1084.25C1497.12 1084.25 1539.28 1098.1 1549.34 1131.24C1559.39 1164.38 1519.69 1220.31 1519.69 1220.31C1527.47 1224.44 1534.34 1230.07 1539.91 1236.88C1545.48 1243.69 1549.64 1251.55 1552.14 1259.99C1564.79 1302.34 1529.38 1325.92 1445.84 1377.17Z"></path><path fill="#101014" d="M946.971 824.021C945.487 824.027 944.017 823.724 942.656 823.129 939.999 821.991 937.901 819.845 936.822 817.162 935.744 814.48 935.773 811.479 936.902 808.818 960.299 754.614 963.395 680.69 965.652 626.741 967.328 587.012 968.529 558.298 976.359 544.187 983.186 531.897 993.401 523.868 1005.93 520.936 1021.88 517.295 1040.52 522.029 1058.51 534.464 1059.69 535.282 1060.7 536.324 1061.47 537.531 1062.25 538.737 1062.78 540.085 1063.04 541.497 1063.29 542.908 1063.27 544.357 1062.96 545.759 1062.66 547.161 1062.08 548.489 1061.26 549.668 1060.44 550.847 1059.4 551.853 1058.19 552.629 1056.99 553.405 1055.64 553.936 1054.23 554.191 1052.82 554.447 1051.37 554.421 1049.97 554.117 1048.56 553.812 1047.24 553.235 1046.06 552.417 1033.44 543.678 1020.57 539.945 1010.9 542.221 1004.36 543.75 999.318 547.847 995.458 554.784 990.142 564.398 988.849 595.132 987.483 627.615 985.153 683.294 982.021 759.548 956.949 817.467 956.101 819.409 954.706 821.064 952.935 822.227 951.163 823.391 949.091 824.015 946.971 824.021zM766.606 1620.64C764.754 1620.65 762.932 1620.18 761.311 1619.28 759.689 1618.39 758.322 1617.1 757.338 1615.53 723.29 1561.23 685.691 1479.88 654.155 1392.32 623.621 1307.49 601.717 1225.86 592.485 1162.45 592.137 1160.06 592.592 1157.62 593.778 1155.51 594.964 1153.41 596.815 1151.75 599.04 1150.81 604.339 1148.57 610.147 1146.21 616.319 1143.68 635.383 1135.88 656.977 1127.05 679.518 1115.76 751.821 1079.49 776.201 1054.84 793.899 1024.51 798.87 1015.97 803.476 1006.74 808.338 996.94 815.766 982.028 824.197 965.131 836.523 945.248 855.368 914.914 879.475 884.143 910.21 851.169 912.185 849.049 914.921 847.801 917.817 847.698 920.712 847.596 923.53 848.648 925.65 850.623 927.77 852.598 929.018 855.334 929.121 858.23 929.223 861.125 928.171 863.943 926.196 866.063 896.426 898.036 873.175 927.659 855.095 956.774 843.296 975.801 835.067 992.206 827.893 1006.68 822.867 1016.8 818.097 1026.35 812.762 1035.5 793.061 1069.41 766.478 1096.59 689.278 1135.3 665.99 1146.97 643.012 1156.35 624.549 1163.9L615.354 1167.67C625.023 1228.43 645.961 1305.14 674.675 1384.93 704.299 1467.17 739.239 1543.64 771.285 1596.56L844.225 1571.52 1285.03 1406.85C1290.4 1404.85 1295.96 1406.63 1298.43 1411.8 1300.25 1414.31 1327.82 1446.92 1444.28 1375.61 1530.87 1322.55 1549.88 1300.32 1541.49 1262.28 1539.86 1255.34 1536.69 1248.86 1532.2 1243.32 1527.71 1237.79 1522.02 1233.34 1515.56 1230.33 1514.05 1229.7 1512.69 1228.74 1511.6 1227.52 1510.5 1226.3 1509.69 1224.85 1509.24 1223.28 1508.78 1221.71 1508.68 1220.05 1508.95 1218.43 1509.22 1216.82 1509.85 1215.28 1510.79 1213.94 1520.95 1199.61 1545.82 1157.39 1538.88 1134.46 1530.64 1107.22 1494.06 1094.68 1493.68 1094.68 1492.08 1094.15 1490.63 1093.27 1489.43 1092.09 1488.24 1090.91 1487.33 1089.48 1486.78 1087.89 1486.23 1086.31 1486.05 1084.62 1486.26 1082.95 1486.46 1081.29 1487.05 1079.69 1487.98 1078.29 1488.29 1077.82 1519.84 1028.46 1498.43 985.615 1489.32 967.316 1462.1 966.624 1461.83 966.624 1459.96 966.612 1458.12 966.121 1456.5 965.197 1454.87 964.273 1453.51 962.947 1452.55 961.347 1451.58 959.746 1451.04 957.925 1450.98 956.056 1450.92 954.187 1451.34 952.334 1452.2 950.674 1454.02 947.287 1494.31 866.919 1428.53 831.577 1427.24 830.913 1426.1 829.999 1425.17 828.889 1424.24 827.78 1423.54 826.496 1423.11 825.114 1422.68 823.732 1422.53 822.278 1422.67 820.837 1422.81 819.396 1423.23 817.997 1423.91 816.72 1424.6 815.444 1425.53 814.316 1426.65 813.402 1427.77 812.488 1429.06 811.807 1430.45 811.397 1431.84 810.987 1433.3 810.857 1434.73 811.014 1436.17 811.171 1437.57 811.613 1438.83 812.314 1474.23 831.286 1491 863.295 1487.34 905.173 1485.96 919.446 1482.7 933.473 1477.63 946.887 1490.76 949.927 1508.81 957.411 1518.04 975.892 1538.36 1016.53 1522.52 1059.19 1512.57 1079.02 1527.47 1086.3 1551.79 1101.82 1559.79 1128.18 1568.65 1157.46 1547.04 1197.83 1535.19 1216.69 1549.2 1226.4 1559.06 1241.01 1562.81 1257.64 1574.81 1311.5 1540.96 1342.05 1455.68 1394.34 1390.13 1434.4 1339.8 1450.06 1305.88 1440.75 1298.38 1438.84 1291.43 1435.18 1285.62 1430.06L851.781 1592.11 851.49 1592.2 770.138 1620.13C768.996 1620.5 767.803 1620.67 766.606 1620.64z"></path><path fill="#101014" d="M1095.13 912.019C1093.51 912.024 1091.91 911.668 1090.44 910.978 1088.98 910.289 1087.68 909.282 1086.66 908.03 1085.63 906.779 1084.89 905.315 1084.5 903.744 1084.1 902.173 1084.07 900.534 1084.38 898.946 1084.68 897.508 1112.81 754.996 1095.69 649.501 1093.07 631.953 1088.51 614.751 1082.09 598.21 1081.54 596.878 1081.26 595.451 1081.26 594.011 1081.27 592.571 1081.56 591.145 1082.11 589.817 1082.67 588.489 1083.48 587.284 1084.51 586.271 1085.53 585.259 1086.75 584.459 1088.08 583.917 1089.42 583.376 1090.85 583.104 1092.29 583.117 1093.73 583.13 1095.15 583.427 1096.48 583.992 1097.8 584.558 1099 585.379 1100.01 586.41 1101.01 587.44 1101.8 588.66 1102.34 589.998 1109.37 608.056 1114.37 626.84 1117.25 646.005 1131.27 732.382 1116.81 838.824 1109.48 882.905 1138.61 870.36 1197.49 846.125 1257.87 827.717 1284.86 819.253 1312.35 812.467 1340.18 807.398 1341.61 807.129 1343.08 807.147 1344.5 807.451 1345.92 807.755 1347.26 808.34 1348.45 809.169 1349.64 809.999 1350.66 811.059 1351.44 812.285 1352.21 813.511 1352.74 814.88 1352.98 816.312 1353.22 817.744 1353.18 819.209 1352.85 820.623 1352.51 822.037 1351.91 823.37 1351.05 824.546 1350.2 825.721 1349.12 826.715 1347.88 827.469 1346.64 828.223 1345.26 828.722 1343.83 828.937 1316.9 833.853 1290.3 840.426 1264.19 848.62 1180.89 874.02 1100.32 910.745 1099.59 911.109 1098.18 911.725 1096.66 912.036 1095.13 912.019zM1182.98 1072.21C1173.07 1072.39 1163.18 1071.17 1153.61 1068.57 1136.77 1063.63 1124.61 1054 1117.45 1039.87 1111.13 1027.44 1110.48 1013.75 1115.48 999.161 1139.77 928.297 1300.24 852.043 1307.05 848.82 1308.35 848.208 1309.75 847.858 1311.19 847.789 1312.62 847.72 1314.05 847.935 1315.4 848.42 1316.75 848.905 1318 849.652 1319.06 850.617 1320.12 851.582 1320.98 852.747 1321.59 854.046 1322.21 855.344 1322.56 856.75 1322.63 858.184 1322.69 859.618 1322.48 861.051 1321.99 862.402 1321.51 863.753 1320.76 864.995 1319.8 866.057 1318.83 867.12 1317.67 867.982 1316.37 868.594 1272.23 889.387 1153.83 954.662 1136.11 1006.26 1133.05 1015.17 1133.31 1022.92 1136.9 1029.93 1141.28 1038.58 1148.75 1044.35 1159.71 1047.58 1227.72 1067.37 1396.9 981.154 1456.37 946.231 1458.86 944.817 1461.82 944.442 1464.59 945.187 1467.36 945.931 1469.72 947.736 1471.18 950.21 1472.63 952.685 1473.05 955.631 1472.34 958.413 1471.64 961.194 1469.87 963.588 1467.42 965.076 1459.24 969.883 1283.74 1072.19 1182.98 1072.21z"></path><path fill="#101014" d="M1196.93 1240.72C1189.02 1240.81 1181.14 1239.85 1173.49 1237.86C1155.29 1232.95 1142.32 1221.88 1135 1204.98C1119.98 1170.39 1139.92 1130.33 1194.23 1086.05C1219.62 1065.72 1246.77 1047.69 1275.37 1032.19C1277.93 1030.84 1280.92 1030.56 1283.69 1031.42C1286.46 1032.28 1288.77 1034.2 1290.12 1036.77C1291.47 1039.33 1291.75 1042.33 1290.89 1045.1C1290.03 1047.86 1288.11 1050.18 1285.54 1051.53C1241.84 1074.56 1133 1145.48 1155.05 1196.28C1159.66 1206.93 1167.56 1213.63 1179.19 1216.78C1250.2 1236.02 1428.11 1121.28 1490.65 1075.43C1492.99 1073.72 1495.91 1073 1498.78 1073.44C1501.64 1073.88 1504.21 1075.44 1505.93 1077.78C1507.64 1080.12 1508.36 1083.04 1507.92 1085.91C1507.48 1088.77 1505.92 1091.34 1503.58 1093.06C1462.65 1122.41 1420.23 1149.63 1376.49 1174.61C1298.76 1218.49 1238.55 1240.72 1196.93 1240.72Z"></path><path fill="#101014" d="M1261.95 1345.02C1254.5 1345.14 1247.08 1344.12 1239.93 1342.01C1233.61 1340.2 1227.78 1336.96 1222.9 1332.54C1218.03 1328.12 1214.23 1322.64 1211.8 1316.52C1184.91 1249.3 1273.25 1201.34 1277.02 1199.34C1278.29 1198.63 1279.69 1198.19 1281.13 1198.03C1282.57 1197.87 1284.03 1198 1285.42 1198.41C1286.81 1198.82 1288.11 1199.51 1289.23 1200.43C1290.35 1201.34 1291.28 1202.47 1291.96 1203.75C1292.65 1205.03 1293.07 1206.44 1293.2 1207.88C1293.33 1209.33 1293.18 1210.78 1292.74 1212.17C1292.31 1213.55 1291.6 1214.83 1290.67 1215.94C1289.73 1217.05 1288.58 1217.96 1287.29 1218.62C1286.54 1219.02 1212.46 1259.35 1232.09 1308.4C1234.65 1314.85 1239.24 1318.91 1246.51 1321.15C1301.37 1338.43 1457.99 1247.51 1513.7 1211.04C1514.9 1210.13 1516.26 1209.48 1517.72 1209.12C1519.17 1208.76 1520.69 1208.71 1522.16 1208.96C1523.64 1209.21 1525.05 1209.76 1526.31 1210.58C1527.56 1211.4 1528.63 1212.47 1529.46 1213.72C1530.28 1214.98 1530.84 1216.38 1531.1 1217.86C1531.35 1219.34 1531.3 1220.85 1530.95 1222.31C1530.59 1223.76 1529.94 1225.13 1529.04 1226.33C1528.13 1227.52 1526.99 1228.52 1525.68 1229.25C1525.16 1229.6 1473.32 1263.45 1413.34 1294.03C1346.98 1327.97 1296.23 1345.02 1261.95 1345.02Z"></path><path fill="#101014" d="M1280.15 1423.69C1278.93 1422.09 1272.96 1413.26 1275.55 1397.35 1280.45 1367.28 1311.96 1332.27 1369.19 1293.31 1370.38 1292.47 1371.71 1291.89 1373.13 1291.58 1374.54 1291.27 1376.01 1291.24 1377.43 1291.5 1378.85 1291.76 1380.21 1292.3 1381.43 1293.09 1382.64 1293.88 1383.69 1294.9 1384.5 1296.1 1385.31 1297.3 1385.88 1298.65 1386.17 1300.06 1386.46 1301.48 1386.47 1302.95 1386.18 1304.37 1385.9 1305.79 1385.34 1307.14 1384.54 1308.34 1383.73 1309.54 1382.69 1310.57 1381.48 1311.37 1327.97 1347.78 1308.14 1373.82 1300.93 1389.21 1293.99 1404.01 1297.72 1410.67 1297.89 1411.06 1297.79 1410.88 1297.68 1410.71 1297.54 1410.56L1280.15 1423.69zM684.416 1125.52C653.463 1139.49 624.658 1151.85 603.301 1160.88 594.925 1103.42 597.838 1065.11 614.225 1059.23 630.066 1053.55 655.502 1079.09 684.416 1125.52zM835.741 1674.38C820.137 1680.02 795.083 1655.13 766.551 1609.72L847.921 1581.81C854.713 1634.21 851.326 1668.8 835.741 1674.38z"></path><path fill="#101014" d="M603.301 1171.81C600.674 1171.81 598.135 1170.86 596.149 1169.14 594.163 1167.42 592.862 1165.05 592.486 1162.45 582.508 1094.04 588.425 1056.84 610.566 1048.94 632.033 1041.24 659.217 1064.4 693.684 1119.75 694.507 1121.07 695.037 1122.56 695.24 1124.1 695.443 1125.64 695.313 1127.21 694.859 1128.7 694.406 1130.19 693.639 1131.57 692.611 1132.74 691.582 1133.91 690.315 1134.84 688.895 1135.48 662.986 1147.15 635.62 1159.15 607.543 1170.93 606.203 1171.51 604.76 1171.8 603.301 1171.81zM619.051 1069.33C618.679 1069.33 618.309 1069.39 617.958 1069.52 614.08 1070.9 605.486 1087.98 612.241 1145.21 631.432 1137.01 650.222 1128.82 668.375 1120.73 640.572 1078.47 624.458 1069.33 619.051 1069.33zM831.134 1686.1C811.306 1686.1 787.053 1662.87 757.338 1615.53 756.465 1614.13 755.918 1612.56 755.738 1610.92 755.558 1609.29 755.751 1607.63 756.3 1606.08 756.85 1604.53 757.743 1603.12 758.913 1601.97 760.082 1600.81 761.499 1599.93 763.055 1599.4L844.407 1571.47C845.941 1570.94 847.572 1570.76 849.184 1570.94 850.795 1571.12 852.345 1571.66 853.723 1572.52 855.1 1573.37 856.269 1574.53 857.146 1575.89 858.023 1577.25 858.585 1578.8 858.791 1580.41 866.857 1642.95 860.612 1677.05 839.455 1684.66 836.785 1685.62 833.97 1686.11 831.134 1686.1zM783.357 1615.53C812.344 1658.9 828.184 1665.51 832.044 1664.11 835.85 1662.72 843.788 1647.72 838.654 1596.54L783.357 1615.53z"></path><path fill="#101014" d="M370.643 1169.88C368.105 1169.89 365.642 1169.01 363.678 1167.41 361.714 1165.8 360.371 1163.56 359.88 1161.07 359.389 1158.58 359.78 1155.99 360.987 1153.76 362.193 1151.53 364.14 1149.78 366.492 1148.83L610.129 1049.16C612.811 1048.06 615.82 1048.08 618.491 1049.2 621.163 1050.32 623.28 1052.46 624.376 1055.14 625.473 1057.82 625.458 1060.83 624.337 1063.5 623.215 1066.18 621.078 1068.29 618.395 1069.39L374.703 1169.06C373.413 1169.58 372.036 1169.86 370.643 1169.88zM520.511 1810.82C517.966 1810.83 515.499 1809.95 513.535 1808.33 511.571 1806.71 510.234 1804.46 509.755 1801.96 509.276 1799.46 509.684 1796.87 510.91 1794.64 512.136 1792.41 514.102 1790.67 516.469 1789.74L831.699 1664.23C833.036 1663.7 834.466 1663.44 835.905 1663.46 837.344 1663.48 838.765 1663.79 840.086 1664.36 841.407 1664.93 842.603 1665.76 843.606 1666.79 844.608 1667.82 845.397 1669.04 845.928 1670.38 846.459 1671.72 846.721 1673.15 846.699 1674.58 846.678 1676.02 846.373 1677.44 845.802 1678.77 845.232 1680.09 844.406 1681.28 843.374 1682.29 842.341 1683.29 841.121 1684.08 839.783 1684.61L524.553 1810.04C523.267 1810.56 521.896 1810.82 520.511 1810.82z"></path><path fill="#101014" d="M654.683 1757.44C652.404 1757.44 650.182 1756.73 648.329 1755.4 644.25 1752.47 547.494 1681.48 477.176 1484.87 436.191 1370.6 428.726 1278.58 429.618 1221.35 430.601 1158.86 441.362 1123.74 441.817 1122.26 442.679 1119.5 444.605 1117.19 447.171 1115.84 449.737 1114.49 452.733 1114.22 455.5 1115.08 458.267 1115.94 460.578 1117.87 461.925 1120.43 463.272 1123 463.545 1126 462.683 1128.76 462.574 1129.09 452.268 1163.1 451.449 1222.82 450.702 1277.94 458.095 1366.87 497.678 1477.5 565.465 1667.02 660.145 1736.94 661.001 1737.63 662.881 1738.97 664.285 1740.88 665.013 1743.07 665.742 1745.26 665.756 1747.63 665.053 1749.83 664.351 1752.04 662.969 1753.96 661.106 1755.32 659.242 1756.69 656.994 1757.43 654.683 1757.44zM671.507 1668.49C663.584 1668.49 655.84 1666.14 649.252 1661.74 642.665 1657.34 637.531 1651.09 634.499 1643.77 631.467 1636.45 630.674 1628.39 632.219 1620.62 633.765 1612.85 637.58 1605.71 643.182 1600.11 648.784 1594.51 655.922 1590.7 663.692 1589.15 671.462 1587.6 679.516 1588.4 686.836 1591.43 694.155 1594.46 700.411 1599.6 704.813 1606.18 709.214 1612.77 711.564 1620.51 711.564 1628.44 711.564 1639.06 707.343 1649.25 699.831 1656.76 692.319 1664.27 682.13 1668.49 671.507 1668.49zM671.507 1610.32C667.905 1610.32 664.385 1611.39 661.391 1613.39 658.397 1615.39 656.063 1618.23 654.685 1621.56 653.307 1624.89 652.946 1628.55 653.649 1632.08 654.351 1635.61 656.086 1638.86 658.632 1641.4 661.178 1643.95 664.423 1645.68 667.955 1646.39 671.486 1647.09 675.147 1646.73 678.474 1645.35 681.801 1643.97 684.645 1641.64 686.646 1638.64 688.646 1635.65 689.714 1632.13 689.714 1628.53 689.714 1623.7 687.796 1619.07 684.381 1615.65 680.967 1612.24 676.336 1610.32 671.507 1610.32zM293.952 1202.91C291.436 1202.91 288.994 1202.05 287.04 1200.46 285.086 1198.88 283.74 1196.67 283.228 1194.2 282.717 1191.74 283.071 1189.17 284.232 1186.94 285.393 1184.71 287.29 1182.94 289.601 1181.95L318.114 1169.55C319.434 1168.94 320.862 1168.61 322.314 1168.56 323.766 1168.51 325.213 1168.75 326.57 1169.27 327.927 1169.79 329.167 1170.57 330.218 1171.58 331.268 1172.58 332.108 1173.78 332.688 1175.12 333.268 1176.45 333.577 1177.88 333.596 1179.33 333.615 1180.79 333.344 1182.23 332.799 1183.58 332.254 1184.92 331.446 1186.15 330.422 1187.18 329.398 1188.21 328.179 1189.02 326.835 1189.58L298.304 1201.99C296.929 1202.59 295.449 1202.9 293.952 1202.91zM1178.01 758.474C1176.93 758.476 1175.87 758.316 1174.84 758 1172.07 757.159 1169.75 755.252 1168.38 752.698 1167.01 750.144 1166.72 747.153 1167.56 744.381 1167.96 743.088 1206.63 614.706 1190.75 561.466 1190.31 560.083 1190.15 558.625 1190.28 557.178 1190.41 555.731 1190.83 554.325 1191.51 553.041 1192.19 551.758 1193.11 550.622 1194.24 549.702 1195.36 548.781 1196.66 548.094 1198.05 547.679 1199.44 547.265 1200.9 547.133 1202.35 547.29 1203.79 547.448 1205.19 547.891 1206.46 548.595 1207.73 549.299 1208.85 550.249 1209.74 551.39 1210.64 552.531 1211.31 553.84 1211.69 555.239 1229.43 614.742 1190.15 745.2 1188.46 750.735 1187.78 752.975 1186.39 754.936 1184.51 756.329 1182.63 757.722 1180.35 758.474 1178.01 758.474zM1230.26 724.717C1228.39 724.714 1226.54 724.228 1224.91 723.305 1223.27 722.382 1221.9 721.052 1220.93 719.445 1219.96 717.839 1219.42 716.008 1219.36 714.132 1219.3 712.255 1219.73 710.394 1220.6 708.73 1222.07 705.908 1257.76 638.594 1343.32 577.253 1344.48 576.416 1345.8 575.817 1347.2 575.489 1348.59 575.162 1350.04 575.114 1351.46 575.346 1352.87 575.579 1354.23 576.088 1355.45 576.844 1356.67 577.601 1357.73 578.59 1358.56 579.756 1359.4 580.922 1360 582.241 1360.33 583.638 1360.65 585.035 1360.7 586.483 1360.47 587.899 1360.24 589.315 1359.73 590.671 1358.97 591.891 1358.22 593.11 1357.23 594.168 1356.06 595.005 1274.69 653.27 1240.31 718.18 1239.99 718.817 1239.06 720.599 1237.67 722.091 1235.95 723.132 1234.24 724.172 1232.27 724.721 1230.26 724.717zM1351.09 297.073H1350.24C1348.28 296.913 1346.4 296.229 1344.8 295.092 1343.19 293.954 1341.93 292.405 1341.13 290.609L1321.21 245.745C1320.63 244.43 1320.31 243.013 1320.28 241.575 1320.24 240.138 1320.49 238.707 1321.01 237.365 1321.53 236.024 1322.31 234.797 1323.3 233.756 1324.29 232.715 1325.48 231.879 1326.79 231.297 1328.11 230.715 1329.53 230.398 1330.96 230.363 1332.4 230.328 1333.83 230.577 1335.17 231.095 1336.51 231.614 1337.74 232.391 1338.78 233.383 1339.82 234.375 1340.66 235.563 1341.24 236.878L1352.95 263.243 1397.14 194.909C1398.72 192.506 1401.19 190.826 1404.01 190.234 1406.83 189.641 1409.77 190.186 1412.18 191.748 1414.6 193.31 1416.31 195.763 1416.93 198.575 1417.55 201.386 1417.03 204.329 1415.49 206.762L1360.32 292.065C1359.33 293.608 1357.96 294.876 1356.35 295.751 1354.73 296.626 1352.93 297.081 1351.09 297.073zM663.149 745.51C660.689 745.506 658.303 744.672 656.376 743.143L627.135 720.001C625.967 719.126 624.987 718.027 624.251 716.767 623.515 715.508 623.039 714.114 622.851 712.667 622.662 711.221 622.766 709.751 623.154 708.345 623.543 706.94 624.21 705.626 625.114 704.481 626.019 703.337 627.144 702.386 628.422 701.683 629.7 700.981 631.106 700.541 632.557 700.391 634.008 700.24 635.474 700.382 636.87 700.807 638.265 701.233 639.561 701.933 640.681 702.867L654.209 713.574 664.46 607.969C664.599 606.54 665.018 605.153 665.693 603.886 666.367 602.619 667.285 601.498 668.393 600.586 669.502 599.673 670.779 598.988 672.152 598.57 673.525 598.151 674.967 598.007 676.395 598.146 677.824 598.285 679.211 598.703 680.478 599.378 681.745 600.053 682.867 600.971 683.779 602.079 684.691 603.187 685.376 604.464 685.794 605.837 686.213 607.21 686.357 608.652 686.218 610.081L674.019 735.605C673.756 738.315 672.49 740.83 670.469 742.656 668.448 744.481 665.818 745.486 663.095 745.473L663.149 745.51zM1635.84 759.166C1634.65 759.168 1633.46 758.971 1632.33 758.583 1630.17 757.849 1628.29 756.457 1626.96 754.602 1625.63 752.747 1624.92 750.523 1624.92 748.241V676.357C1624.92 673.46 1626.07 670.681 1628.12 668.632 1630.17 666.583 1632.94 665.432 1635.84 665.432 1638.74 665.432 1641.52 666.583 1643.57 668.632 1645.61 670.681 1646.77 673.46 1646.77 676.357V715.959L1697.98 649.173C1698.85 648.008 1699.93 647.027 1701.18 646.286 1702.42 645.545 1703.8 645.059 1705.24 644.857 1706.67 644.654 1708.13 644.739 1709.53 645.107 1710.94 645.474 1712.25 646.117 1713.4 646.997 1714.55 647.878 1715.52 648.978 1716.24 650.235 1716.96 651.491 1717.42 652.879 1717.6 654.317 1717.78 655.754 1717.68 657.214 1717.29 658.609 1716.9 660.005 1716.23 661.309 1715.34 662.446L1644.6 754.887C1643.57 756.229 1642.24 757.315 1640.72 758.057 1639.2 758.8 1637.53 759.179 1635.84 759.166z"></path></svg>