<svg xmlns="http://www.w3.org/2000/svg" width="256" height="256"><svg xmlns="http://www.w3.org/2000/svg" xml:space="preserve" width="256" height="256" viewBox="0 0 96 96"><path fill="#292d34" d="M85.3 95.5H10.7V64.9C4.3 60.1.5 52.6.5 44.5c0-13.2 9.9-24.1 22.9-25.4C26.5 8.3 36.6.5 48 .5c11.4 0 21.5 7.8 24.6 18.6 13 1.3 22.9 12.2 22.9 25.4 0 8-3.8 15.6-10.2 20.4v30.6zm-70.6-4h66.7V62.9l.9-.6c5.9-4 9.3-10.7 9.3-17.8 0-11.6-9.1-21-20.6-21.5l-1.5-.1-.3-1.5c-2.1-9.8-11-17-21.1-17s-19 7.1-21.1 17l-.3 1.5-1.6.1c-11.6.5-20.6 10-20.6 21.5 0 7.1 3.5 13.7 9.3 17.8l.9.6v28.6z" class="color292d34 svgShape"/><path fill="#f7c44c" d="M20.6 85.6V59.8l-3.4-2.4c-4.2-2.9-6.8-7.7-6.8-12.9 0-8.4 6.6-15.2 14.9-15.6l6.1-.3 1.3-6c1.5-7.1 8-12.3 15.3-12.3s13.7 5.2 15.3 12.3l1.3 6 6.1.3c8.4.4 14.9 7.2 14.9 15.6 0 5.1-2.5 9.9-6.8 12.9l-3.4 2.4v25.8H20.6z" class="colorf7c44c svgShape"/><path fill="#292d34" d="M22.3 65.7h4v8.6h-4zM22.3 78.4h4v4.5h-4z" class="color292d34 svgShape"/><path fill="#fff" d="M16.8 45.5h-4c0-7.8 6.1-14.2 13.9-14.6l.2 4c-5.6.3-10.1 4.9-10.1 10.6z" class="colorfff svgShape"/><path fill="#292d34" d="M45.7 80h37.7v4H45.7z" class="color292d34 svgShape"/></svg></svg>