<svg xmlns="http://www.w3.org/2000/svg" width="256" height="256"><svg xmlns="http://www.w3.org/2000/svg" width="256" height="256" viewBox="0 0 512 512"><defs><clipPath id="a"><path fill="none" d="M256 277.09A175.32 175.32 0 0 0 80.68 452.41h350.64A175.32 175.32 0 0 0 256 277.09Z"/></clipPath><clipPath id="b"><path fill="none" d="M315.18 41.59a33.6 33.6 0 0 0-29.65 17.78 33.6 33.6 0 0 0-59.28 0 33.6 33.6 0 1 0-29.64 49.41v76.59h118.57v-76.59a33.6 33.6 0 0 0 0-67.19Z"/></clipPath></defs><path fill="#f19f00" d="M256 277.09A175.32 175.32 0 0 0 80.68 452.41h350.64A175.32 175.32 0 0 0 256 277.09Z" class="colorf19f00 svgShape"/><g class="color000 svgShape" clip-path="url(#a)"><path fill="#fff" d="M140 457.43h-1a117.13 117.13 0 0 1 117-117v1a116.13 116.13 0 0 0-116 116Z" class="colorfff svgShape"/></g><path fill="#ea3f50" d="M283.45 334.68h-3.24a39.47 39.47 0 0 0 15.33-31.25v-19.75h-79.08v19.75a39.47 39.47 0 0 0 15.33 31.25h-3.24a28.18 28.18 0 0 0-28.18 28.18h30.94A28.16 28.16 0 0 0 256 348.27a28.16 28.16 0 0 0 24.69 14.59h30.94a28.18 28.18 0 0 0-28.18-28.18Z" class="colorea3f50 svgShape"/><circle cx="200.37" cy="383.12" r="4.89" fill="#f7efda" class="colorf7efda svgShape"/><circle cx="173.28" cy="423" r="4.89" fill="#f7efda" class="colorf7efda svgShape"/><path fill="#ff7b82" d="M319.4 207.75h-7.53l3.41-22.38H196.72l3.41 22.38h-7.75l7.78 38.25H206l2.63 17.26A47.93 47.93 0 0 0 256 303.94a47.93 47.93 0 0 0 47.39-40.69L306 246h5.61Z" class="colorff7b82 svgShape"/><path fill="#005e4b" d="m201.38 181.38-4.66 3.99 3.44 22.52 55.78-22.49 55.78 22.49 3.44-22.52-4.76-3.99H201.38zm82.07 67.68h-54.9a28.18 28.18 0 0 0-28.18 28.18h30.94A28.17 28.17 0 0 0 256 262.66a28.17 28.17 0 0 0 24.69 14.58h30.94a28.18 28.18 0 0 0-28.18-28.18Z" class="color005e4b svgShape"/><path fill="#f19f00" d="M315.18 41.59a33.6 33.6 0 0 0-29.65 17.78 33.6 33.6 0 0 0-59.28 0 33.6 33.6 0 1 0-29.64 49.41v76.59h118.57v-76.59a33.6 33.6 0 0 0 0-67.19Z" class="colorf19f00 svgShape"/><g fill="#000" class="colorfff svgShape" clip-path="url(#b)"><path d="M225.75 41.59h1v129.57h-1zm59.16 0h1v129.57h-1z" class="color000 svgShape"/><path d="M182.51 170.66h146.75v1H182.51z" class="color000 svgShape"/></g></svg></svg>