<svg xmlns="http://www.w3.org/2000/svg" width="256" height="256"><svg xmlns="http://www.w3.org/2000/svg" width="256" height="256" viewBox="0 0 128 128"><path fill="#ddd" d="M64.5 99C46 99 31 95 31 89.9v20c0 5.1 15 9.1 33.5 9.1s33.5-4 33.5-9.1v-20C98 95 83 99 64.5 99z" class="colorddd svgShape"/><path fill="#fff" d="M110.5 22c-11.7-11.7-30.7-11.7-42.4 0l-.7.7-1-.3C60.4 14.8 51 9.8 40.5 9.8 22 9.8 7.1 24.8 7.1 43.2c0 15.3 10.2 28.1 24.2 32.1L31 77v12.9C31 95 46 99 64.5 99S98 95 98 89.9v-18c4.6-1.4 8.9-3.9 12.6-7.5 11.6-11.7 11.6-30.7-.1-42.4z" class="colorfff svgShape"/><path fill="none" stroke="#31352e" stroke-linecap="round" stroke-miterlimit="10" stroke-width="6" d="M71.4 55.6c-1.2 3.1-2.9 5.9-4.9 8.5-6.1 7.6-15.5 12.5-26 12.5-3.2 0-6.2-.4-9.1-1.3-14-4-24.2-16.8-24.2-32.1C7.1 24.8 22 9.9 40.5 9.9c10.6 0 20 4.9 26.1 12.6" class="colorStroke31352e svgStroke"/><path fill="none" stroke="#31352e" stroke-linecap="round" stroke-miterlimit="10" stroke-width="6" d="M63.4 28.3c1.1-2 2.5-3.8 4.1-5.5.2-.3.5-.5.7-.7 11.7-11.7 30.7-11.7 42.4 0s11.7 30.7 0 42.4c-3.6 3.6-8 6.1-12.6 7.5-10.2 3.1-21.7.5-29.8-7.5" class="colorStroke31352e svgStroke"/><path fill="none" stroke="#31352e" stroke-linecap="round" stroke-miterlimit="10" stroke-width="6" d="M31 77v32.9c0 5.1 15 9.1 33.5 9.1s33.5-4 33.5-9.1V72" class="colorStroke31352e svgStroke"/></svg></svg>